<?xml version="1.0" encoding="utf-8"?>
<!-- Generator: Adobe Illustrator 15.0.0, SVG Export Plug-In . SVG Version: 6.00 Build 0)  -->
<!DOCTYPE svg PUBLIC "-//W3C//DTD SVG 1.1//EN" "http://www.w3.org/Graphics/SVG/1.1/DTD/svg11.dtd">
<svg version="1.1" id="图层_1" xmlns="http://www.w3.org/2000/svg" xmlns:xlink="http://www.w3.org/1999/xlink" x="0px" y="0px"
	 width="154px" height="154px" viewBox="0 0 154 154" enable-background="new 0 0 154 154" xml:space="preserve">
<path fill="none" stroke="#FF0000" stroke-width="3.5" stroke-miterlimit="10" d="M151.799,76.797
	c0,41.31-33.49,74.798-74.798,74.798c-41.309,0-74.8-33.488-74.8-74.798c0-41.311,33.491-74.8,74.8-74.8
	C118.309,1.997,151.799,35.486,151.799,76.797z"/>
<polygon fill="#FF0000" points="78.521,102.781 74.308,85.035 56.708,83.947 70.951,74.29 67.925,57.786 80.736,68.123 
	95.492,59.543 89.617,75.503 102.312,86.266 85.662,85.99 "/>
<g>
	<path fill="#FF0000" d="M116.26,125.404l-0.453,0.441l0.662,1.891l-2.6-0.453l-0.098-0.202l2.115-2.06l-10.66-10.955
		c-0.727-0.882-0.854-1.952-0.379-3.212c1.012,0.905,2.119,1.069,3.324,0.493l0.149,0.153c-1.942,1.095-2.581,1.817-1.916,2.164
		l8.946,9.192c-2.537-4.891-3.77-8.812-3.698-11.764l0.249,0.055c0.724,3.969,2.49,8.168,5.295,12.598l2.115-2.06l0.557-0.839
		l0.824,0.242l-3.627,3.53l4.696,4.826c-0.368,0.158-1.069,0.244-2.104,0.258c-0.049-0.052-0.113-0.287-0.195-0.705l-0.072-0.377
		L116.26,125.404z M113.562,102.672l0.375,0.082c-0.191,3.769,1.51,7.332,5.107,10.693c0.58,0.528,1.168,1.101,1.764,1.712
		c0.547,0.562,1.068,1.098,1.566,1.609c0.943,0.969,1.689,1.735,2.236,2.298c-0.284,0.178-0.836,0.315-1.654,0.418
		c-0.051-0.053-0.099-0.203-0.146-0.455c-0.197-0.403-0.371-0.683-0.52-0.836c-1.508-1.617-2.915-3.13-4.224-4.541
		c-1.26-1.361-2.228-2.457-2.905-3.288c-2.705,0.245-4.406,0.11-5.103-0.404c-0.813-0.702-1.126-1.291-0.939-1.771
		c0.151-0.047,0.45,0.06,0.899,0.317c1.529,0.698,3.178,1.183,4.945,1.453C113.824,108.184,113.359,105.756,113.562,102.672z
		 M123.185,122.842l-8.923-9.066c-0.178-0.723-0.133-1.213,0.136-1.475l10.063,10.343l1.967-1.913
		c0.889-0.566,0.717-1.347-0.51-2.338l-8.5-8.733c-0.112-0.587-0.051-1.095,0.187-1.522l11.554,12.175
		c-0.033,0.032-0.326,0.067-0.877,0.106c-0.35,0.043-0.635,0.119-0.854,0.233l-2.316,2.256l0.146,0.453
		c0.214,0.486,0.287,0.765,0.22,0.83c-0.518,0.005-1.268-0.06-2.251-0.195C123.246,123.477,123.232,123.094,123.185,122.842z"/>
	<path fill="#FF0000" d="M88.866,120.053c0.12-0.584,0.392-1.039,0.815-1.363l0.758,1.883l8.284-3.331l-0.519-1.29
		c0.086-0.417,0.354-0.755,0.805-1.015c0.532,1.323,1.131,2.812,1.795,4.462c0.346,0.859,0.719,1.786,1.117,2.778
		c0.425,1.057,0.789,2.024,1.091,2.902c-0.112-0.032-0.423-0.176-0.931-0.432c-0.41-0.144-0.639-0.205-0.682-0.187l-7.762,3.121
		c-0.195,0.771-0.311,1.237-0.345,1.405c-0.481-0.19-1.12-0.586-1.917-1.187c-0.055-0.134,0.02-0.394,0.217-0.779l0.076-0.376
		L88.866,120.053z M95.449,122.475l-1.117-2.775l-3.652,1.468l1.116,2.778L95.449,122.475z M96.725,125.648l-1.037-2.578
		l-3.652,1.47l1.037,2.578L96.725,125.648z M101.422,137.701l-5.088,2.047l-0.192,0.654c-0.085,0.417-0.148,0.634-0.192,0.652
		c-1.357-0.991-2.111-1.61-2.262-1.855c0.018-0.084,0.082-0.11,0.195-0.078c0.847-0.034,1.451-0.854,1.816-2.459l0.38,0.193
		c-0.136,0.668-0.175,1.452-0.116,2.351l10.895-4.383c-0.355-1.009-0.57-1.922-0.646-2.735c0.422-1.092,0.898-1.283,1.436-0.577
		c0.053,0.132,0.043,0.481-0.033,1.05c-0.252,1.255-0.219,2.469,0.104,3.646l-0.301,0.006l-0.319-0.794l-5.023,2.021
		c0.556,1.005,1.368,1.83,2.437,2.477l0.014,0.225C102.381,140.465,101.348,139.65,101.422,137.701z M95.234,133.623l0.308-0.931
		l-1.437-3.57c0.216-0.472,0.497-0.776,0.845-0.915l0.438,1.091l5.545-2.23l-0.32-0.793c0.243-0.405,0.523-0.711,0.846-0.916
		l2.433,6.05c-0.043,0.017-0.598-0.105-1.663-0.367l-4.827,1.94l-0.103,0.503c-0.031,0.548-0.088,0.842-0.177,0.877
		C96.712,134.218,96.082,133.973,95.234,133.623z M96.492,122.056l3.588-1.442l-1.117-2.777l-3.588,1.443L96.492,122.056z
		 M97.888,137.395l-2.284-1.154l0.051-0.252l8.351-3.358l0.702-0.513l0.711,0.636l-7.371,2.964L97.888,137.395z M96.705,132.57
		l4.762-1.914c0.637-0.181,0.75-0.648,0.344-1.406l-0.638-1.587l-5.545,2.229L96.705,132.57z M100.878,122.597l-0.559-1.389
		l-3.588,1.442l1.038,2.579l2.869-1.154C101.23,123.913,101.311,123.419,100.878,122.597z"/>
	<path fill="#FF0000" d="M72.127,143.286l0.027-5.023l-0.914-0.005l-0.923,1.705l-1.324-2.251l0.071-0.107l3.093,0.017l0.071-13.254
		l0.011-2.139c0.192-0.711,0.781-1.314,1.767-1.809c-0.006,1.214,0.809,2.18,2.446,2.899l0,0.106
		c-0.093-0.071-0.233-0.107-0.421-0.108c-1.452-0.149-2.249-0.189-2.39-0.12c-0.188,0.071-0.285,0.604-0.29,1.602l-0.069,12.828
		l4.289,0.023c0.14,0,0.398-0.07,0.774-0.209h0.141l0.418,0.857l-5.626-0.03l-0.038,7.269c-1.262-0.791-1.892-1.222-1.893-1.293
		c0.048-0.071,0.142-0.177,0.284-0.318C71.962,143.642,72.126,143.428,72.127,143.286z M77.94,134.338l-0.142,0.213
		c-1.305-1.361-2.096-2.613-2.37-3.753c-0.086-1.428,0.223-2.244,0.927-2.455c0.141,0.002,0.233,0.323,0.276,0.964
		C76.809,131.303,77.245,132.979,77.94,134.338z M79.598,140.014l0.009-14.966c0.237-0.427,0.614-0.711,1.13-0.85l-0.011,2.03
		l3.234,0.019l0.011-2.032c0.237-0.426,0.613-0.71,1.129-0.849l-0.312,19.026l-1.331-0.97l-2.672-0.014
		c-0.332,0.781-0.545,1.207-0.641,1.278c-0.743-0.931-1.186-1.574-1.324-1.931c0-0.072,0.143-0.213,0.424-0.425
		C79.526,140.119,79.645,140.012,79.598,140.014z M80.648,140.767l2.812,0.015c0.329,0.002,0.471-0.176,0.425-0.532l0.031-5.771
		l-3.234-0.019L80.648,140.767z M80.686,133.818l3.233,0.018l0.038-6.948l-3.235-0.018L80.686,133.818z"/>
	<path fill="#FF0000" d="M49.402,137.377l-0.188,0.27c-0.895-1.145-1.453-2.303-1.677-3.476c0.238-1.059,0.72-1.669,1.446-1.83
		c0.229-0.06,0.283,0.233,0.167,0.88C48.938,134.829,49.022,136.216,49.402,137.377z M53.22,131.671l-3.522-1.232l-1.436,1.256
		l-0.713-2.496l0.146-0.171l5.731,2.151c2.85-8.077,3.128-12.899,0.837-14.471c-0.158,0.013-0.667,0.687-1.528,2.027
		c-0.414,0.754-0.81,1.4-1.186,1.938l-0.113-0.278c1.284-2.476,2.066-4.541,2.349-6.2c0.04-0.216,0.094-0.347,0.164-0.396
		c3.806,2.201,3.949,8.086,0.426,17.658l2.573,0.953c0.185-0.078,0.378-0.113,0.578-0.106c0.201,0.006,0.344,0.027,0.431,0.063
		l0.191,1.006l-3.953-1.297c-0.367,1.005-0.857,2.307-1.471,3.903c-0.514,1.483-1.092,3.058-1.734,4.721
		c-0.91-1.229-1.373-1.884-1.39-1.967c0.028-0.066,0.169-0.162,0.424-0.287c0.369-0.156,0.581-0.3,0.635-0.431
		C51.633,135.797,52.487,133.683,53.22,131.671z M58.366,135.778l-0.533-0.916c0.608-0.366,0.899-0.515,0.872-0.448l6.261-14.878
		c0.44-0.202,0.953-0.337,1.538-0.401l-6.497,14.895c1.867-1.926,3.647-3.461,5.343-4.609l0.047,0.252
		c-3.555,3.307-6.905,7.393-10.046,12.262c-0.671-1.437-0.98-2.222-0.926-2.353c0.071-0.049,0.129-0.062,0.171-0.045
		c0.472-0.035,0.869-0.257,1.19-0.663c0.267-0.276,0.672-0.763,1.216-1.462C57.395,136.957,57.849,136.412,58.366,135.778z"/>
	<path fill="#FF0000" d="M27.239,124.071l-0.571-1.739l0.074-0.077l1.225-0.155l3.264-3.387l-1.114-1.073l-1.046,0.477l0.054-1.878
		l1.1-0.129l5.587-5.897c0.466-0.146,0.826-0.046,1.08,0.299l-0.89,0.924l1.164,1.12l4.748-4.925l-1.89-1.079
		c-0.52,1.081-0.862,1.842-1.024,2.279c-0.065,0.135-0.122,0.228-0.172,0.279l-0.3,0.007c0.411-1.979,0.787-3.35,1.128-4.108
		c0.344-0.56,0.857-0.956,1.538-1.19c0.582-0.13,0.702,0.083,0.358,0.643c-0.114,0.186-0.271,0.383-0.469,0.588
		c-0.411,0.493-0.699,0.861-0.863,1.098c2.484,1.207,4.36,1.927,5.631,2.161l0.175,0.021l-0.833,1.572l-2.599-1.762l-4.822,5.002
		l1.063,1.024l0.89-0.923c0.397-0.21,0.759-0.111,1.08,0.299c-3.016,3.129-5.687,5.899-8.012,8.312l-0.095-1.725l-0.861-0.83
		L27.239,124.071z M30.511,117.128l1.164,1.123l5.045-5.233l-1.165-1.122L30.511,117.128z M30.866,126.082l0.401-2.138l0.199-0.105
		l5.67,5.464l0.807,0.48l-0.239,0.959l-5.315-5.124L30.866,126.082z M32.284,118.837l0.708,0.683
		c0.254,0.344,0.521,0.305,0.799-0.12l4.6-4.772l-1.063-1.023L32.284,118.837z M33.928,124.729l0.03-1.754
		c0.134-0.07,0.358-0.1,0.675-0.092l0.3-0.008l2.471-2.666c0.5-0.112,0.86-0.012,1.08,0.299l-0.594,0.615l2.43,2.342l0.742-0.768
		c0.451-0.063,0.803,0.079,1.057,0.423l-4.775,4.751l-0.291-1.319l-2.126-2.049c0.049-0.052-0.2,0.005-0.75,0.169
		C34.096,124.69,34.012,124.709,33.928,124.729z M35.22,123.894l2.024,1.952c0.289,0.377,0.598,0.328,0.925-0.148l1.706-1.77
		l-2.43-2.342L35.22,123.894z M37.792,119.1l0.053-1.881l1.076-0.001l6.849-7.207c0.645-0.467,1.361-0.566,2.148-0.304
		c-0.592,0.816-0.673,1.577-0.249,2.284l-0.223,0.231c-0.646-1.018-1.134-1.391-1.465-1.115l-2.892,3.002l1.822,1.757l3.19-3.311
		c0.466-0.145,0.833-0.087,1.103,0.172l-3.685,3.723l0.708,0.684l0.83,0.354l-0.414,0.938l-1.924-1.855
		c-1.243,0.683-2.517,1.533-3.825,2.55l0.006-1.628c0.083-0.018,0.142-0.01,0.175,0.021c0.185,0.079,0.427,0.063,0.725-0.043
		c0.084-0.019,0.367-0.144,0.847-0.371c0.432-0.178,1.039-0.435,1.818-0.772l-0.76-0.732l-0.924,0.148l0.158-1.48l-3.784,3.925
		l3.695,3.562c0.372,0.359,0.697,0.325,0.975-0.099l7.641-7.928c0.533-0.081,0.918-0.007,1.153,0.221
		c-4.006,4.156-7.286,7.528-9.842,10.111l-0.068-1.55l-3.898-3.757L37.792,119.1z M43.342,120.736l-0.125,0.028
		c-0.025-0.718,0.067-1.42,0.276-2.11c0.377-0.526,0.758-0.854,1.14-0.979c0.533-0.079,0.619,0.102,0.256,0.544
		c-0.015,0.084-0.073,0.177-0.172,0.279C44.208,119.096,43.75,119.842,43.342,120.736z"/>
	<path fill="#FF0000" d="M17.988,104.729l-2.471-5.441c-0.019-0.042-0.313-0.09-0.885-0.138c-0.335-0.054-0.547-0.086-0.632-0.101
		c0.484-1.352,0.899-2.157,1.25-2.42c0.15-0.016,0.263,0.062,0.34,0.232c0.414,0.738,1.61,1.304,3.586,1.692l-0.107,0.28
		c-0.233,0.004-0.55-0.008-0.953-0.031c-1.503-0.038-2.184,0.015-2.042,0.155l1.802,3.97c0.229-0.877,0.435-1.458,0.616-1.747
		c0.214-0.046,0.403,0.024,0.563,0.207c2.8-2.455,3.437-5.188,1.911-8.202l0.292-0.133c0.583,0.766,1.321,1.099,2.216,1.001
		c0.314,2.587-1.055,5.087-4.107,7.502c3.633-0.62,6.506,0.109,8.623,2.186l0.215-0.562l-2.762-6.081
		c-0.019-0.043-0.253-0.04-0.701,0.008c-0.296,0.033-0.457,0.029-0.476-0.016c-0.004-0.356,0.223-0.975,0.684-1.854
		c0.131-0.059,0.318,0.011,0.564,0.208l0.253,0.04l5.032-2.362c0.545,0.165,0.948,0.445,1.205,0.843L25.87,96.75l2.761,6.081
		c0.143,0.141,0.311,0.167,0.506,0.079l5.772-2.543c0.583,0.25,0.942,0.524,1.078,0.823l-7.387,3.122
		c0.344,0.41,0.8,0.898,1.369,1.464c0.058,0.128,0.097,0.213,0.116,0.255l-0.36,0.241c-3.188-3.75-7.111-4.802-11.763-3.153
		l0.727,1.601c2.29,0.041,4.023,0.155,5.202,0.341l-0.078,0.345c-3.027-0.119-5.894,0.205-8.599,0.969
		c0.139-1.245,0.231-1.905,0.276-1.979c0.13-0.058,0.36,0.019,0.69,0.228c0.208,0.112,0.354,0.176,0.438,0.188
		c0.233-0.002,0.467-0.005,0.701-0.009C17.615,104.771,17.839,104.745,17.988,104.729z M17.487,107.504l0.107-0.28
		c3.269-0.041,5.51-0.107,6.721-0.194c0.252,0.04,0.987-0.242,2.2-0.844c0.714-0.325,1.136-0.517,1.265-0.574
		c0.739,0.076,0.775,0.498,0.105,1.265c-0.11,0.101-0.487,0.222-1.13,0.358c-0.919,0.213-1.556,0.45-1.907,0.712
		c-0.2,0.245-0.308,0.782-0.323,1.613l-0.419,0.113c0.065-0.03,0.079-0.086,0.039-0.173c-0.231-1.027-0.454-1.518-0.668-1.472
		C22.149,107.859,20.152,107.686,17.487,107.504z M18.763,111.866l-0.252-0.039c-0.244-1.228-0.174-2.108,0.208-2.643
		c0.838-0.74,1.568-0.943,2.19-0.608c0.058,0.128-0.069,0.366-0.381,0.714C19.534,110.204,18.947,111.063,18.763,111.866z
		 M41.684,101.846l-0.359,0.241c-2.156-2.161-3.992-3.36-5.508-3.599c-1.619-0.295-4.021,0.28-7.2,1.725
		c-0.037-1.115,0.037-1.819,0.217-2.107c0.085,0.015,0.18,0.048,0.282,0.104c0.35,0.254,0.753,0.276,1.206,0.07
		C34.838,96.333,38.624,97.521,41.684,101.846z M33.417,96.565l-0.292,0.133c-0.307-2.229-0.372-4.181-0.194-5.858
		c0.54-1.223,1.442-1.735,2.706-1.537c0.04,0.086-0.065,0.288-0.312,0.605C34.233,91.64,33.597,93.857,33.417,96.565z"/>
	<path fill="#FF0000" d="M9.646,84.984l0.892-1.949c0.136,0.038,0.483,0.302,1.043,0.787l3.982-0.221l-0.062-1.123l-1.437-0.696
		l1.822-1.366l0.1-0.007l0.174,3.159l4.779-0.264l-1.952-2.778l0.387-0.232l2.858,2.939l8.265-0.455
		c1.33-0.026,2.256,0.463,2.777,1.466c0.002,0.048-0.094,0.1-0.291,0.157c-0.99,0.149-1.621,0.793-1.891,1.936l-0.298,0.016
		c0.368-1.757,0.189-2.591-0.538-2.505l-7.27,0.4c0.852,0.939,1.485,1.562,1.901,1.866c0.285,0.314,0.393,0.472,0.326,0.476
		c-0.119,0.242-0.637,0.505-1.555,0.79c0.002,0.047-0.141-0.155-0.433-0.61c-0.518-0.956-1.062-1.771-1.633-2.444l-5.376,0.297
		l0.093,1.685l0.25,0.902l-0.781,0.323l-0.159-2.877L9.646,84.984z M28.076,73.265l-2.49,0.137l0.264,4.774l2.194-0.051
		c0.349,0.262,0.602,0.625,0.759,1.085c-7.971,0.347-13.882,0.602-17.734,0.767l1.216-1.475l-0.216-3.932
		c-0.002-0.047-0.276-0.196-0.824-0.448c-0.339-0.121-0.511-0.206-0.514-0.253c0.067-0.004,0.194-0.104,0.383-0.303
		c0.499-0.638,0.875-1.057,1.129-1.26c0.134-0.007,0.342,0.146,0.625,0.459l0.31,0.194c4.779-0.264,9.458-0.545,14.036-0.844
		c0.07,0.042,0.139,0.085,0.207,0.129C27.844,72.69,28.063,73.031,28.076,73.265z M13.994,78.688l4.783-0.194l-0.259-4.703
		l-5.875,0.324l0.216,3.932C12.825,78.613,13.202,78.827,13.994,78.688z M19.115,73.76l0.263,4.773l5.878-0.255l-0.267-4.844
		L19.115,73.76z M29.186,71.654l1.715-1.503l0.1-0.005l0.592,10.74c0.005,0.095,0.052,0.349,0.142,0.766l-0.574,0.456L30.63,72.49
		L29.186,71.654z"/>
	<path fill="#FF0000" d="M25.881,58.215l-1.022,3.068l-0.121,0.699l-0.799,0.031l1.711-5.137l-3.651-1.216l-0.689,2.067l0.812,0.271
		c0.198,0.758,0.242,1.191,0.129,1.304c-1.014-0.339-4.203-1.476-9.568-3.411c0.487-0.331,0.925-0.63,1.312-0.897l1.556-4.669
		c0.068,0.024-0.072-0.122-0.418-0.436c-0.278-0.289-0.411-0.457-0.396-0.502c0.39-0.266,1.03-0.496,1.921-0.693
		c0.122,0.089,0.245,0.278,0.373,0.569l0.137,0.268l6.716,2.162c0.287,0.492,0.371,0.914,0.253,1.271l-1.115-0.372l-0.689,2.067
		l3.651,1.217l1.111-3.336l-1.198-1.139l2.394-0.76l0.102,0.033l-1.622,4.87c3.371,0.481,6.246-0.487,8.63-2.905l0.203,0.067
		c-0.169,0.735-0.111,1.347,0.176,1.838l0.102,0.034c-2.289,1.46-5.37,1.914-9.244,1.366l-0.045,0.133l10.142,3.38
		c0.165,0.4,0.194,0.879,0.084,1.437l-9.951-3.613c3.637,3.287,5.811,6.235,6.519,8.842l0.912,0.305
		c0.151,0.446,0.195,0.88,0.129,1.302c-2.201-0.831-7.377-2.654-15.529-5.469c2.041,1.767,3.57,3.264,4.587,4.492l-0.146,0.1
		c-4.238-3.734-8.527-6.646-12.864-8.732c1.032-0.842,1.623-1.263,1.773-1.263c0.136,0.046,0.181,0.135,0.136,0.268
		c0.1,0.38,0.371,0.693,0.814,0.938c1.22,0.852,2.525,1.779,3.917,2.787c0.554-0.31,0.88-0.497,0.977-0.564
		c0.068,0.022,0.121,0.09,0.159,0.201c0.167,0.401,0.46,0.648,0.88,0.738c0.474,0.157,1.514,0.53,3.122,1.113
		c4.178,1.443,7.728,2.625,10.648,3.549C31.819,63.503,29.478,60.945,25.881,58.215z M16.227,50.328l-1.578,4.735
		c-0.119,0.357,0.039,0.559,0.475,0.604l5.578,1.859l1.711-5.138L16.227,50.328z"/>
	<path fill="#FF0000" d="M28.339,34.262l3.93-4.595l-0.822-1.999l2.919,0.37l0.082,0.068l-5.758,6.733
		c0.67,1.189,1.389,2.545,2.153,4.061l3.655-4.274c0.03-0.035-0.119-0.409-0.447-1.121c-0.047-0.165-0.083-0.288-0.106-0.369
		c0.515-0.053,1.268-0.057,2.259-0.011c0.109,0.093,0.167,0.298,0.177,0.615c0.041,0.281,0.116,0.469,0.224,0.561
		c3.737,3.195,6.758,5.748,9.063,7.657c0.246,0.15,0.397,0.249,0.452,0.296c0.588,0.627,0.707,1.528,0.355,2.708
		c-0.03,0.036-0.101,0.007-0.208-0.086c-0.843-0.658-1.884-0.593-3.122,0.197l-0.198-0.262c1.015-0.857,1.599-1.376,1.751-1.555
		c0.183-0.213,0.139-0.437-0.132-0.668l-3.006-2.571l-3.93,4.597l4.387,3.751c0.118,0.41,0.061,0.917-0.172,1.518l-10.1-8.913
		c0.942,2.408,1.488,5.003,1.641,7.786l-0.3,0.021c-0.934-4.501-2.674-8.824-5.22-12.976l-3.245,3.793l-0.396,0.956l-0.959-0.357
		l4.25-4.97c-0.731-1.118-1.651-2.398-2.762-3.842c1.328-0.345,2.06-0.49,2.199-0.433c0.024,0.082,0.017,0.199-0.02,0.353
		c-0.021,0.354,0.035,0.616,0.167,0.791c0.047,0.164,0.176,0.397,0.386,0.699C27.697,33.097,27.981,33.586,28.339,34.262z
		 M32.025,39.82l2.113,1.807l3.929-4.596l-2.761-2.362l-3.473,4.061C31.414,39.111,31.477,39.476,32.025,39.82z M38.474,37.378
		l-3.93,4.596l2.6,2.224l3.93-4.596L38.474,37.378z"/>
	<path fill="#FF0000" d="M41.491,18.615l1.874-0.967c0.033,0.063,0.039-0.18,0.019-0.732c-0.029-0.465-0.022-0.708,0.02-0.729
		c0.709,0.355,1.362,0.7,1.957,1.035c0.033,0.064-0.019,0.171-0.152,0.318c-0.119,0.383-0.163,0.606-0.13,0.669
		c0.028,0.466,0.101,1.27,0.215,2.414c0.134,1.694,0.257,2.954,0.366,3.78c2.199,0.79,3.803,2.008,4.81,3.653
		c1.291,2.303,1.322,4.05,0.092,5.244c-0.042,0.021-0.094-0.03-0.16-0.157c-0.549-0.759-1.25-1.2-2.104-1.321L48.261,31.6
		c0.033,0.063,0.069,0.085,0.111,0.063c0.997-0.112,1.533-0.349,1.611-0.71c0.439-1.91-1.11-3.998-4.65-6.263l-1.55-6.536
		l-1.875,0.966c-0.333,0.172-0.361,0.427-0.081,0.764l9.646,18.718c-0.096,0.531-0.304,0.999-0.621,1.404l-11.25-21.982
		C39.984,18.147,40.612,18.345,41.491,18.615z M56.096,23.475l-0.392-0.761l-2.813,1.449c1.089,1.604,2.252,2.888,3.489,3.854
		c0.334-1.295,0.624-3.088,0.867-5.378c0.595,0.337,1.188,0.671,1.783,1.005c0.033,0.064,0.003,0.16-0.089,0.287
		c-0.209,0.107-0.389,0.32-0.541,0.639c-0.447,0.873-0.852,1.724-1.216,2.552c-0.253,0.532-0.452,0.914-0.594,1.147
		c2.045,1.514,4.432,2.207,7.163,2.081l0.049,0.095c-0.75,0.388-1.149,0.993-1.198,1.82c-0.01,0.085,0.002,0.158,0.035,0.223
		c-3.967-0.843-7.341-3.553-10.122-8.131l-1.312,0.675l4.799,9.312l1.596-3.348l0.321,0.315c-0.942,3.29-1.388,5.084-1.341,5.381
		l0.036,0.222c-0.563-0.271-1.083-0.565-1.561-0.879c-0.032-0.063-0.045-0.139-0.035-0.223c0.169-0.489,0.173-0.892,0.011-1.209
		L45.09,15.316l0.856,0.279c0.604,0.252,0.91,0.335,0.919,0.249l3.937-2.029c0.042-0.021,0.012-0.487-0.088-1.397
		c0.074,0.043,0.762,0.25,2.061,0.621c0.033,0.064-0.01,0.287-0.13,0.669c-0.086,0.445-0.109,0.657-0.068,0.635
		c1.25,2.324,2.662,4.964,4.238,7.918C56.636,22.835,56.397,23.239,56.096,23.475z M51.346,14.256l-4,2.062
		c-0.375,0.194-0.427,0.503-0.158,0.923l1.519,2.945l4.5-2.317L51.346,14.256z M53.5,18.438L49,20.757l1.91,3.706l4.5-2.319
		L53.5,18.438z"/>
	<path fill="#FF0000" d="M63.932,23.206l-0.238-0.302c2.348-4.354,3.874-9.244,4.577-14.671c0.458,0.39,0.814,0.717,1.074,0.979
		c0.55,0.381,0.829,0.608,0.835,0.678c-0.041,0.077-0.127,0.155-0.262,0.238c-0.401,0.25-0.637,0.521-0.705,0.812
		C67.925,16.134,66.165,20.221,63.932,23.206z M68.038,29.821l8.736-0.977c-1.085-2.193-2.075-3.823-2.967-4.892l0.191-0.231
		c1.531,1.369,2.884,2.86,4.06,4.475c0.955,1.776,0.921,2.995-0.103,3.657c-0.141,0.013-0.315-0.367-0.523-1.134
		c-0.195-0.628-0.356-1.114-0.48-1.462c-6.312,1.553-9.457,2.436-9.438,2.648l-0.2,0.126c-0.455-0.892-0.75-1.582-0.887-2.069
		l0.14-0.013c0.561-0.048,1.053-0.592,1.481-1.631c1.526-4.067,2.521-7.768,2.983-11.099c1.214,0.967,1.827,1.522,1.839,1.664
		c-0.041,0.076-0.107,0.116-0.201,0.125c-0.368,0.104-0.623,0.412-0.766,0.925C71.058,22.656,69.77,25.952,68.038,29.821z
		 M80.684,18.632l-0.043,0.326c-0.875,0.221-1.494,0.667-1.859,1.341c-3.158-2.227-5.423-6.607-6.793-13.141
		c0.199,0.126,0.395,0.218,0.588,0.271c0.877,0.353,1.272,0.569,1.186,0.647c0.007,0.071-0.075,0.222-0.243,0.451
		c-0.209,0.305-0.287,0.491-0.234,0.557C74.472,14.061,76.938,17.242,80.684,18.632z"/>
	<path fill="#FF0000" d="M94.898,22.301l-1.904,6.348c-0.42,0.243-0.852,0.37-1.297,0.379l0.572-1.836l-4.43-1.382l-0.891,2.858
		c-0.664,0.241-1.108,0.327-1.332,0.256l3.502-11l0.895,1.623l4.027,1.254c0.044,0.014,0.174-0.17,0.393-0.55
		c0.26-0.366,0.424-0.576,0.49-0.631c0.436,0.809,0.746,1.464,0.932,1.971c-0.021,0.068-0.186,0.205-0.493,0.405
		C95.008,22.186,94.854,22.285,94.898,22.301z M97.669,15.773l0.739,2.358l-0.033,0.103L88.643,15.2l-0.633,0.139l-0.148-0.943
		l8.459,2.637L97.669,15.773z M94.051,21.477l-4.162-1.298c-0.224-0.069-0.355,0.039-0.395,0.325l-1.463,4.694l4.43,1.38
		L94.051,21.477z M92.174,31.752l0.127-0.408c2.379,1.189,3.541,1.479,3.487,0.863c2.245-7.362,4.108-13.5,5.591-18.412l-9.8-3.055
		l-0.667,0.016l-0.182-0.84L101.27,13.2c-0.021,0.069,0.154-0.1,0.527-0.507c0.326-0.42,0.512-0.624,0.558-0.61
		c0.454,0.59,0.753,1.28,0.901,2.072c-0.021,0.069-0.176,0.169-0.463,0.304c-0.311,0.202-0.475,0.339-0.496,0.406
		c-3.6,11.866-5.431,17.977-5.49,18.33c-0.475,1.045-1.434,1.606-2.881,1.678C94.418,33.608,93.834,32.566,92.174,31.752z"/>
</g>
<g>
	<path fill="#FF0000" d="M132.081,105.76l6.361,2.996l-0.383,0.812l-4.488-2.113l-0.716,1.52l-0.636-0.3
		c0.535-1.014,0.395-1.785-0.421-2.314L132.081,105.76z"/>
	<path fill="#FF0000" d="M134.925,98.642l6.625,2.354l-0.301,0.847l-4.675-1.661l-0.562,1.582l-0.662-0.235
		c0.434-1.062,0.217-1.815-0.647-2.262L134.925,98.642z"/>
	<path fill="#FF0000" d="M140.989,90.561c2.205,0.629,3.146,1.695,2.826,3.199c-0.435,1.529-1.766,2.03-3.996,1.501
		c-2.293-0.597-3.273-1.673-2.94-3.227C137.301,90.556,138.671,90.064,140.989,90.561z M140.763,91.471
		c-1.801-0.421-2.83-0.167-3.088,0.761c-0.239,0.961,0.555,1.654,2.38,2.082c1.82,0.453,2.846,0.212,3.079-0.724
		C143.366,92.655,142.575,91.948,140.763,91.471z"/>
	<path fill="#FF0000" d="M142.271,82.647c2.259,0.395,3.308,1.357,3.146,2.886c-0.272,1.566-1.545,2.203-3.817,1.911
		c-2.344-0.354-3.431-1.321-3.263-2.902C138.603,83.028,139.913,82.396,142.271,82.647z M142.141,83.576
		c-1.834-0.23-2.831,0.129-2.991,1.079c-0.137,0.98,0.725,1.588,2.585,1.822c1.857,0.26,2.853-0.087,2.986-1.042
		C144.854,84.482,143.994,83.861,142.141,83.576z"/>
	<path fill="#FF0000" d="M142.654,74.614c2.289,0.133,3.44,0.968,3.457,2.505c-0.091,1.587-1.281,2.367-3.572,2.337
		c-2.368-0.082-3.56-0.918-3.574-2.507C139.054,75.414,140.283,74.636,142.654,74.614z M142.632,75.551
		c-1.849-0.018-2.798,0.455-2.848,1.417c-0.023,0.99,0.902,1.493,2.777,1.512c1.875,0.044,2.823-0.415,2.847-1.378
		C145.431,76.139,144.506,75.622,142.632,75.551z"/>
	<path fill="#FF0000" d="M142.037,66.563c2.288-0.157,3.536,0.526,3.745,2.049c0.111,1.586-0.972,2.509-3.249,2.77
		c-2.359,0.217-3.646-0.462-3.861-2.037C138.566,67.811,139.688,66.884,142.037,66.563z M142.134,67.496
		c-1.837,0.215-2.719,0.804-2.646,1.765c0.101,0.985,1.083,1.368,2.945,1.149c1.865-0.192,2.748-0.767,2.649-1.726
		C144.984,67.727,144.001,67.33,142.134,67.496z"/>
	<path fill="#FF0000" d="M140.357,58.674c2.246-0.463,3.574,0.047,3.986,1.528c0.322,1.557-0.626,2.617-2.848,3.18
		c-2.31,0.532-3.676,0.031-4.101-1.5C137.086,60.376,138.073,59.307,140.357,58.674z M140.578,59.585
		c-1.791,0.46-2.586,1.161-2.385,2.104c0.232,0.962,1.257,1.21,3.073,0.744c1.822-0.441,2.62-1.129,2.394-2.066
		C143.435,59.431,142.406,59.17,140.578,59.585z"/>
	<path fill="#FF0000" d="M137.61,51.089c2.161-0.767,3.547-0.444,4.158,0.966c0.533,1.498-0.261,2.678-2.384,3.542
		c-2.214,0.844-3.637,0.536-4.268-0.923C134.604,53.225,135.435,52.03,137.61,51.089z M137.954,51.962
		c-1.711,0.702-2.402,1.506-2.073,2.412c0.362,0.921,1.411,1.026,3.146,0.314c1.744-0.687,2.44-1.479,2.087-2.375
		C140.762,51.417,139.708,51.299,137.954,51.962z"/>
	<path fill="#FF0000" d="M132.424,45.132c0.637-0.356,1.22-0.353,1.749,0.007c-0.06-0.801,0.245-1.404,0.914-1.808
		c1.243-0.605,2.256-0.26,3.037,1.033c0.308,0.604,0.444,1.169,0.41,1.695c-0.077,0.61-0.44,1.081-1.09,1.414
		c-0.692,0.417-1.383,0.355-2.072-0.185c0.101,0.66-0.157,1.161-0.771,1.504c-1.106,0.528-2.007,0.226-2.7-0.909
		C131.313,46.722,131.487,45.805,132.424,45.132z M134.475,46.402c-0.403-0.669-0.936-0.849-1.598-0.539
		c-0.53,0.386-0.61,0.938-0.24,1.655c0.392,0.647,0.889,0.817,1.492,0.509C134.73,47.662,134.846,47.12,134.475,46.402z
		 M135.157,46.022c0.503,0.793,1.113,1.004,1.83,0.633c0.806-0.479,0.974-1.14,0.504-1.981c-0.444-0.796-1.059-0.989-1.845-0.581
		C134.908,44.535,134.746,45.178,135.157,46.022z"/>
	<path fill="#FF0000" d="M130.015,42.81l-0.691,0.509l-2.895-3.933l0.629-0.463c2.259,0.213,4.474-0.205,6.645-1.252l0.556,0.755
		c-1.821,0.952-3.999,1.375-6.535,1.269L130.015,42.81z"/>
	<path fill="#FF0000" d="M125.734,34.916l0.61,0.66c-1.204,1.114-2.373,1.097-3.508-0.053c-0.861-1.083-0.85-2.106,0.035-3.067
		c0.691-0.71,1.698-0.773,3.021-0.188l0.819,0.253c0.764,0.25,1.354,0.236,1.771-0.042l-2.601-2.81l0.603-0.557l3.264,3.526
		c-0.918,0.849-1.967,1.076-3.15,0.68l-1.038-0.317c-0.943-0.368-1.637-0.312-2.079,0.168c-0.539,0.605-0.526,1.233,0.038,1.881
		C124.138,35.72,124.877,35.675,125.734,34.916z"/>
	<path fill="#FF0000" d="M117.347,27.756c0.487-0.543,1.04-0.73,1.657-0.561c-0.316-0.739-0.225-1.408,0.277-2.007
		c0.979-0.976,2.049-0.978,3.208-0.009c0.487,0.472,0.8,0.961,0.938,1.47c0.125,0.602-0.065,1.166-0.572,1.691
		c-0.519,0.618-1.192,0.784-2.02,0.498c0.31,0.592,0.229,1.149-0.24,1.673c-0.875,0.859-1.824,0.865-2.849,0.018
		C116.812,29.62,116.68,28.696,117.347,27.756z M119.7,28.291c-0.6-0.502-1.161-0.499-1.688,0.009
		c-0.376,0.537-0.272,1.084,0.312,1.643c0.58,0.485,1.105,0.484,1.576-0.003C120.351,29.399,120.284,28.849,119.7,28.291z
		 M120.222,27.709c0.732,0.586,1.379,0.588,1.937,0.005c0.606-0.715,0.551-1.395-0.167-2.038c-0.679-0.608-1.323-0.592-1.934,0.05
		C119.504,26.384,119.559,27.044,120.222,27.709z"/>
	<path fill="#FF0000" d="M112.016,21.26c1.44-1.784,2.79-2.234,4.049-1.352c1.238,0.998,1.179,2.419-0.18,4.265
		c-1.445,1.878-2.818,2.359-4.119,1.446C110.569,24.653,110.652,23.2,112.016,21.26z M112.765,21.824
		c-1.091,1.493-1.26,2.54-0.506,3.14c0.791,0.596,1.739,0.136,2.846-1.377c1.128-1.498,1.308-2.537,0.537-3.116
		C114.872,19.89,113.913,20.341,112.765,21.824z"/>
</g>
</svg>
