<?xml version="1.0" encoding="utf-8"?>
<!-- Generator: Adobe Illustrator 15.0.0, SVG Export Plug-In . SVG Version: 6.00 Build 0)  -->
<!DOCTYPE svg PUBLIC "-//W3C//DTD SVG 1.1//EN" "http://www.w3.org/Graphics/SVG/1.1/DTD/svg11.dtd">
<svg version="1.1" id="图层_1" xmlns="http://www.w3.org/2000/svg" xmlns:xlink="http://www.w3.org/1999/xlink" x="0px" y="0px"
	 width="154px" height="154px" viewBox="0 0 154 154" enable-background="new 0 0 154 154" xml:space="preserve">
<g>
	<circle fill="none" stroke="#E6211A" stroke-width="3.5" stroke-miterlimit="10" cx="77" cy="77.001" r="74.744"/>
	<polygon fill="#E6211A" points="97.276,103.097 78.608,90.731 61.921,104.521 66.585,83.917 50.022,71.66 70.179,70.176 
		76.206,50.106 84.331,69.34 104.737,68.328 89.587,82.053 	"/>
</g>
<g>
	<path fill="#E6211A" d="M45.385,110.049l-9.658,9.746c-1.39,1.402-2.738,2.799-4.049,4.188l-0.381-2.045l0.941-0.039l5.559-5.609
		c-2.208-0.336-4.309-0.24-6.302,0.286l0.39-2.114c0.432,0.24,1.255,0.454,2.472,0.643c1.253,0.221,2.538,0.476,3.857,0.765
		l6.045-6.101c0.603-0.607,0.684-1.129,0.246-1.563l-1.822-1.806c-0.405-0.401-1.038-0.219-1.899,0.551
		c-0.86,0.767-1.748,1.578-2.663,2.434l-0.253-0.251c1.404-1.481,2.248-2.452,2.533-2.909c0.288-0.459,0.388-0.914,0.302-1.369
		c0.804-0.406,1.614-0.346,2.427,0.182l2.531,2.508C46.403,108.279,46.311,109.115,45.385,110.049z M39.635,121.723
		c-2.408,2.43-4.105,4.177-5.091,5.238l-0.52-1.904l1.081-0.18l10.561-10.658c0.973-0.98,2.137-2.189,3.493-3.626l1.227,0.382
		c-1.607,1.556-2.992,2.918-4.15,4.087c2.707,0.644,4.5,0.892,5.38,0.745l-0.644,1.863c-0.45-0.354-2.145-1.107-5.084-2.258
		l-5.836,5.89l2.683,2.658l0.594,0.312l-0.151,0.961L39.635,121.723z"/>
</g>
<g>
	<path fill="#E6211A" d="M24.298,109.514L18.825,97.21l-1.907-0.399l1.348-2.315l5.646,12.694c0.231,0.521,0.544,0.98,0.937,1.377
		L24.298,109.514z M18.387,104.969l-0.328-0.01c0.16-1.423,0.376-2.273,0.647-2.55c0.273-0.277,0.471-0.443,0.59-0.497
		c0.302-0.134,0.621-0.184,0.958-0.152c0.338,0.031,0.527,0.091,0.565,0.178c0.078,0.174-0.104,0.41-0.547,0.711
		C19.646,103.188,19.019,103.96,18.387,104.969z M23.353,95.976c2.226-0.989,3.81-1.72,4.752-2.191l1.185,0.72l-0.902,0.401
		l1.274,2.865l6.584-2.929c1.123-0.551,2.097-0.388,2.921,0.494c-0.722,0.32-1.095,1.267-1.115,2.836l-0.451,0.2
		c-0.127-0.931-0.281-1.603-0.465-2.016c-0.183-0.412-0.636-0.458-1.357-0.137l-5.682,2.527l1.274,2.863l0.631-0.28l1.095,0.761
		c-1.281,0.519-2.568,1.064-3.862,1.64c-1.292,0.575-2.53,1.152-3.714,1.73l0.32-1.468l-2.925-6.575l-1.192-0.25l0.799-1.603
		L23.353,95.976z M26.409,103.817l4.42-1.966l-2.983-6.705l-4.419,1.966L26.409,103.817z M30.773,95.17l-0.329-0.01
		c0.999-2.939,1.709-4.621,2.133-5.043c0.425-0.422,0.758-0.688,0.997-0.794c0.3-0.134,0.634-0.19,1.003-0.174
		c0.368,0.019,0.572,0.071,0.61,0.157c0.078,0.175-0.228,0.544-0.911,1.107C33.349,91.244,32.181,92.828,30.773,95.17z
		 M33.741,98.685l0.589,0.596c2.661,0.638,4.938,1.469,6.837,2.496l-0.185,0.315c-3.15-1.094-5.861-1.604-8.134-1.528L33.741,98.685
		z"/>
</g>
<g>
	<path fill="#E6211A" d="M20.097,78.893c-3.748,0.158-6.245,0.288-7.492,0.387l0.92-1.607l0.813,0.537l5.129-0.217
		c-0.966-1.052-1.876-1.94-2.731-2.666c-0.853-0.724-1.686-1.33-2.497-1.819l1.727-1.215l0.135,0.851
		c1.923,1.869,3.406,3.47,4.45,4.805l2.367-0.101c0.658-0.027,0.976-0.302,0.953-0.824l-0.168-3.986
		c-0.014-0.332-0.221-0.549-0.62-0.651c-0.399-0.102-1.62-0.157-3.663-0.167l-0.015-0.355c0.986-0.042,1.857-0.114,2.609-0.217
		c0.754-0.104,1.221-0.349,1.402-0.737c0.932,0.199,1.384,0.774,1.357,1.726l0.201,4.77c0.036,0.854-0.471,1.304-1.524,1.349
		l-2.367,0.1c0.702,1.017,1.343,2.153,1.922,3.413l-0.391,0.088C21.763,80.915,20.924,79.762,20.097,78.893z M18.601,83.235
		c3.814-0.161,6.247-0.287,7.295-0.379l0.735,1.038c-1.383,0.012-4.079,0.101-8.09,0.271c1.62,0.93,2.876,1.804,3.766,2.622
		l-0.29,0.154c-1.151-0.76-2.548-1.484-4.191-2.177c-1.643-0.69-3.296-1.239-4.96-1.645l1.225-1.406l0.523,0.69
		c1.006,0.434,1.912,0.823,2.716,1.169l0.658-0.812L18.601,83.235z M35.719,79.162c-3.092,0.083-5.329,0.152-6.709,0.211l0.228,5.41
		c0.026,0.617,0.148,1.183,0.368,1.696l-0.86,0.678l-0.327-7.759c-1.643,0.069-2.892,0.146-3.745,0.229l0.92-1.607l0.714,0.541
		l2.071-0.088l-0.228-5.41l-1.524-1.006l2.008-1.582l0.336,7.974c3.222-0.136,5.258-0.245,6.112-0.329L35.719,79.162z"/>
</g>
<g>
	<path fill="#E6211A" d="M13.542,55.199l-0.221-0.244c0.884-0.767,1.504-1.156,1.862-1.164c0.359-0.007,0.661,0.039,0.903,0.138
		c0.306,0.125,0.558,0.331,0.76,0.618c0.202,0.289,0.295,0.455,0.277,0.498c-0.055,0.132-0.342,0.143-0.866,0.031
		C15.534,54.936,14.63,54.977,13.542,55.199z M21.806,51.417l-1.951-1.489l-4.419,10.816c1.22,0.498,1.86,0.928,1.927,1.288
		c0.065,0.361,0.071,0.606,0.018,0.738s-0.163,0.229-0.331,0.289c-0.167,0.061-0.31,0.065-0.433,0.016
		c-0.243-0.1-0.463-0.343-0.661-0.732c-0.264-0.569-0.991-1.225-2.181-1.969l0.107-0.264l1.006,0.411l4.365-10.686l-0.645-1.033
		l2.012-0.487c-0.191,0.641,0.292,1.633,1.448,2.978L21.806,51.417z M17.688,60.972l3.018-7.387l-0.773-1.24l2.131-0.515
		l-2.965,7.255c-0.252,0.616-0.366,1.159-0.346,1.628L17.688,60.972z M24.881,62.679c-0.896-0.417-1.769-0.799-2.622-1.148
		c-0.853-0.348-1.684-0.662-2.494-0.942l1.017-0.662l2.21-5.409l-0.516-0.827l1.409-0.579l0.333,0.752
		c1.157,0.473,2.109,0.837,2.859,1.091l-0.012,1.073l-0.64-0.261l-2.264,5.54l0.64,0.262L24.881,62.679z M21.329,60.15l2.285,0.934
		l2.263-5.541l-2.284-0.933L21.329,60.15z M33.206,67.619c-1.444-0.641-2.881-1.254-4.313-1.839
		c-1.431-0.585-2.888-1.153-4.367-1.708l1.136-0.691l3.232-7.915l-0.606-0.863L29.88,54.1l0.332,0.751
		c3.047,1.245,5.156,2.082,6.332,2.51l0.053,1.176l-1.096-0.448L32.24,66.07l0.822,0.336L33.206,67.619z M26.209,63.606l2.468,1.008
		l1.428-3.496l-2.468-1.008L26.209,63.606z M27.987,59.253l2.467,1.008l1.482-3.628l-2.467-1.008L27.987,59.253z M29.225,64.838
		l2.468,1.008l1.428-3.495l-2.468-1.008L29.225,64.838z M31.003,60.485l2.467,1.008l1.482-3.628l-2.467-1.008L31.003,60.485z"/>
</g>
<g>
	<path fill="#E6211A" d="M25.646,37.734l1.965-0.498l0.062,0.941l2.87,2.711l2.201-2.331l-3.014-2.846
		c-0.813-0.769-1.619-1.496-2.416-2.186l1.891-0.565l0.135,1.008l4.09,3.863l2.74-2.901l-3.086-2.915
		c-0.765-0.722-1.596-1.473-2.488-2.252l2.012-0.549l0.014,0.993l4.233,3.999l0.831-0.88l-0.342-1.793l2.533,0.335l-2.592,2.745
		l5.525,5.219c0.192,0.182,0.615,0.549,1.269,1.101l-0.231,1.251l-1.435-1.355l-2.739,2.901l1.22,1.152l-0.304,1.184
		c-0.829-0.847-1.338-1.362-1.529-1.543l-5.885-5.558l-2.202,2.331l9.258,8.744l7.045-7.459l-0.294-1.846l2.535,0.336l-8.807,9.324
		l0.303,0.973l-1.715-0.053l-0.111-0.889l-8.898-8.405l-0.293,0.311c-0.426,0.45-0.744,0.932-0.959,1.447l-1.087-0.144l1.908-2.021
		l-1.938-1.83C27.108,39.016,26.35,38.334,25.646,37.734z M33.86,38.239l5.382,5.083l2.74-2.901L36.6,35.338L33.86,38.239z"/>
</g>
<g>
	<path fill="#E6211A" d="M43.489,20.607l0.051-0.237c0.794,0.155,1.469,0.361,2.024,0.62c0.554,0.261,0.925,0.602,1.109,1.021
		c0.186,0.423,0.251,0.807,0.196,1.154c-0.056,0.348-0.126,0.541-0.213,0.579c-0.174,0.076-0.424-0.138-0.749-0.642
		C45.434,22.377,44.627,21.546,43.489,20.607z M52.179,34.363c0.751,0.532,1.601,0.897,2.542,1.093
		c0.943,0.198,2.369-0.07,4.279-0.801c1.908-0.731,3.959-1.794,6.148-3.187l0.158,0.361c-0.738,0.683-0.913,1.407-0.524,2.171
		c-2.044,0.898-3.734,1.569-5.069,2.012c-1.337,0.442-2.492,0.646-3.469,0.607c-0.978-0.038-1.863-0.313-2.658-0.826
		c-0.84-0.494-1.362-0.677-1.566-0.552c-0.204,0.127-0.382,0.636-0.534,1.528c-0.152,0.895-0.205,1.689-0.158,2.387l-1.494-0.745
		c0.255-1.19,0.781-2.354,1.577-3.496l-3.336-7.592l-0.456,0.201c-0.566,0.248-1.048,0.568-1.447,0.959l-0.944-0.556l2.544-1.117
		l-0.005-1.077l1.52,0.626l-0.244,0.862L52.179,34.363z M59.576,31.006c0.722-0.245,1.257-0.444,1.605-0.598
		c0.347-0.152,0.416-0.469,0.204-0.952l-1.231-2.801l-3.065,1.347l1.786,4.066l-0.609,0.915l-2.024-4.609l-2.87,1.261l1.905,4.337
		l-0.675,0.944c-0.672-1.646-1.616-3.854-2.833-6.625c-1.218-2.771-2.153-4.839-2.805-6.207l1.505,0.416l2.806-1.232
		c-0.511-0.924-1.382-1.55-2.612-1.871l0.011-0.329c0.818-0.143,1.709-0.066,2.669,0.229l1.004-3.029l-4.37,1.92
		c-0.61,0.268-1.113,0.597-1.512,0.988l-0.944-0.555l6.653-2.923l0.23-1.072l1.928,1.201c-0.722,0.247-1.613,1.464-2.674,3.655
		c0.096,0.103,0.198,0.273,0.304,0.514c0.133,0.302,0.142,0.621,0.03,0.956l2.936-1.289l0.06-1.104l1.416,0.563l-0.18,0.833
		l4.209,9.58c0.494,1.006,0.398,1.911-0.286,2.713c-0.414-0.824-1.219-1.117-2.41-0.881L59.576,31.006z M50.511,23.128l1.191,2.711
		l2.87-1.261l-1.191-2.711L50.511,23.128z M51.941,26.382l1.191,2.711l2.87-1.261l-1.191-2.711L51.941,26.382z M54.229,21.494
		l1.191,2.712l3.065-1.347l-1.19-2.711L54.229,21.494z M55.659,24.748l1.191,2.711l3.065-1.347l-1.191-2.711L55.659,24.748z"/>
</g>
<g>
	<path fill="#E6211A" d="M66.2,24.816c0.421-0.097,1.4-0.699,2.938-1.804l-0.375-5.021l-1.634,0.122l-0.838,0.261l-0.628-0.745
		l3.056-0.229c-0.162-2.166-0.329-4.066-0.498-5.704l1.786,0.955l-0.588,0.737l0.294,3.938l0.781-0.059l0.765-1.246L72.67,17.7
		l-2.912,0.218l0.338,4.528l2.234-1.651l0.172,0.383l-2.34,2.155l0.633,8.465c0.088,1.181-0.346,2.071-1.301,2.671
		c-0.111-0.851-0.826-1.49-2.144-1.918l-0.03-0.393c1.204,0.174,1.923,0.234,2.157,0.185c0.234-0.051,0.322-0.47,0.264-1.257
		l-0.522-6.989c-0.534,0.502-1.132,1.109-1.793,1.817l-0.312,0.617L66.2,24.816z M73.08,22.223l5.613-0.42l0.565-1.032l1.318,1.387
		l-0.603,0.54c-0.478,2.544-1.128,4.671-1.952,6.381c0.774,0.801,1.595,1.433,2.463,1.895s1.78,0.724,2.738,0.785l0.029,0.394
		c-0.796,0.191-1.236,0.653-1.325,1.386c-1.58-0.74-3.099-1.946-4.557-3.619c-1.521,1.96-3.477,3.526-5.865,4.695l-0.172-0.383
		c1.963-1.136,3.763-2.854,5.402-5.155c-1.058-2.032-1.906-4.147-2.546-6.343l-0.483,0.234L73.08,22.223z M80.704,19.079
		c0.237-0.018,0.488-0.168,0.753-0.452c0.221-0.215,0.431-0.114,0.629,0.299c0.197,0.416,0.302,0.688,0.312,0.818
		c0.01,0.132-0.08,0.221-0.266,0.268c-0.188,0.048-0.542,0.09-1.063,0.129l-1.847,0.138c-0.806,0.061-1.216-0.635-1.229-2.086
		l-0.36-4.823l-3.055,0.228c0.476,4.453-0.45,7.689-2.775,9.71l-0.164-0.285c0.948-1.323,1.532-2.589,1.753-3.794
		c0.219-1.204,0.309-2.398,0.268-3.583c-0.042-1.186-0.127-2.333-0.257-3.446l1.131,0.806l2.984-0.223l0.503-0.928l1.153,1.101
		L78.65,13.59l0.324,4.331c0.017,0.858,0.238,1.27,0.664,1.237L80.704,19.079z M74.545,22.707c0.726,2.059,1.647,3.871,2.765,5.436
		c0.771-1.773,1.296-3.693,1.57-5.759L74.545,22.707z"/>
</g>
<g>
	<path fill="#E6211A" d="M93.852,27.22l1.171,1.856l-0.919,0.374c-0.94,1.82-1.807,3.016-2.599,3.582
		c-0.793,0.568-1.8,0.905-3.022,1.016c-1.223,0.108-2.754-0.03-4.595-0.418l0.044-0.301c1.225,0.138,2.483,0.132,3.773-0.021
		c1.292-0.154,2.271-0.485,2.938-0.997c0.667-0.511,1.233-1.152,1.697-1.922C92.806,29.618,93.31,28.563,93.852,27.22z
		 M87.678,30.901c0.659-1.507,1.205-2.795,1.636-3.863c0.431-1.066,0.87-2.221,1.319-3.459l0.703,0.923l7.004,2.826l0.729-0.664
		l0.651,1.434l-0.787,0.428c-0.837,2.075-1.456,3.67-1.854,4.786l-1.184,0.268l2.29-5.675l-7.07-2.854l-2.29,5.675L87.678,30.901z
		 M96.785,15.949l0.125,0.264c-1.772,1.343-3.032,2.308-3.78,2.892c-0.749,0.586-1.296,1.146-1.638,1.682
		c-0.346,0.535-0.689,1.23-1.034,2.084c-0.246,0.61-0.479,0.871-0.7,0.781c-0.044-0.018-0.154-0.185-0.333-0.506
		c-0.178-0.32-0.206-0.633-0.082-0.939c0.098-0.242,0.24-0.47,0.428-0.679c0.422-0.538,0.746-0.992,0.973-1.363
		c0.227-0.37-0.037-0.955-0.79-1.756l0.178-0.248c0.611,0.39,0.999,0.6,1.167,0.631c0.165,0.032,0.429,0.014,0.79-0.054
		C92.448,18.67,94.013,17.741,96.785,15.949z M99.013,19.19l1.055,1.383l-0.611,0.18l-0.213,0.34
		c0.188,2.703,1.431,4.766,3.727,6.188l-0.111,0.274c-0.843-0.196-1.487,0.003-1.934,0.604c-1.441-2.142-2.129-4.372-2.064-6.688
		c-1.81,2.321-4.507,3.042-8.096,2.161l0.045-0.301c2.386,0.183,4.207-0.112,5.466-0.882C97.533,21.681,98.445,20.595,99.013,19.19z
		 M92.427,33.032l0.148-0.367c1.525,1.042,2.711,1.911,3.558,2.607c0.845,0.697,1.277,1.277,1.293,1.746
		c0.016,0.467-0.066,0.895-0.249,1.283c-0.183,0.387-0.339,0.555-0.472,0.502c-0.132-0.054-0.291-0.296-0.476-0.725
		c-0.352-0.781-0.824-1.576-1.42-2.383C94.213,34.889,93.419,34.001,92.427,33.032z M92.992,13.354
		c1.066,0.786,1.625,1.366,1.679,1.742c0.053,0.376,0.043,0.655-0.031,0.838c-0.074,0.184-0.234,0.422-0.479,0.713
		c-0.247,0.291-0.413,0.418-0.501,0.383c-0.132-0.054-0.179-0.32-0.138-0.801c-0.038-0.796-0.296-1.68-0.773-2.654L92.992,13.354z
		 M100.989,21.904l2.056-2.045l-4.89-1.974c-1.291,1.041-2.594,1.793-3.907,2.256l-0.059-0.236c1.074-0.632,2.035-1.361,2.883-2.19
		c0.846-0.829,1.623-1.739,2.331-2.731l0.886,1.422l-0.677,0.153l-1.104,0.832l4.691,1.893l0.935-0.793l0.599,1.944
		c-0.667-0.126-1.873,0.452-3.619,1.732L100.989,21.904z"/>
</g>
<g>
	<path fill="#E6211A" d="M111.689,43.288c-0.506,0.519-1.024,1.047-1.553,1.588c-0.529,0.539-0.961,1.015-1.296,1.425l-1.058-0.345
		l0.897-0.918l-5.091-4.984l-0.898,0.918l-0.989-0.416c1.599-1.566,3.411-3.383,5.437-5.452s3.343-3.45,3.954-4.142l0.161,1.263
		l4.531,4.437l1.199-0.207l-0.235,1.564l-0.821,0.024l-1.381,1.411c-0.415,0.423-0.79,0.839-1.124,1.248l-1.058-0.345l0.76-0.776
		l-4.633-4.535l-1.934,1.976l4.989,4.885l1.199-0.208l-0.235,1.565L111.689,43.288z M106.144,37.444l-2.14,2.187l5.091,4.984
		l2.14-2.187L106.144,37.444z M117.582,38.696l2.148-1.074l-8.91-8.723c-0.771,0.719-1.311,1.135-1.62,1.246
		c-0.309,0.112-0.547,0.134-0.71,0.064c-0.166-0.069-0.281-0.137-0.35-0.203c-0.102-0.1-0.158-0.246-0.168-0.441
		c-0.01-0.192,0.031-0.336,0.124-0.431l0.31-0.112c0.205-0.075,0.507-0.146,0.908-0.215c0.318-0.055,0.691-0.197,1.116-0.428
		c0.423-0.229,0.853-0.499,1.29-0.809l0.204,0.199l-0.69,0.705l4.226,4.137c0.287-0.361,0.542-0.758,0.763-1.188
		c0.221-0.427,0.412-0.93,0.578-1.506l0.188-0.091c0.341,1.348,0.329,2.21-0.039,2.587s-0.747,0.559-1.134,0.547l4.227,4.137
		l1.337-0.348l-0.464,2.308c-0.513-0.226-0.934-0.338-1.264-0.339c-0.332-0.002-1.018,0.087-2.057,0.266L117.582,38.696z
		 M110.84,32.647l-1.934,1.975l4.633,4.536l1.934-1.975L110.84,32.647z M117.813,23.589l0.07,1.863l-0.805-0.096l-1.476,0.49
		l2.343,2.293l1.199-0.208l-0.342,1.876l-2.8-2.74c0.005,0.742-0.057,1.279-0.185,1.614c-0.129,0.335-0.285,0.597-0.469,0.784
		c-0.138,0.142-0.301,0.258-0.49,0.349s-0.387,0.105-0.592,0.044c-0.205-0.063-0.193-0.26,0.031-0.592
		c0.226-0.332,0.512-0.743,0.857-1.232c0.346-0.49,0.543-0.896,0.592-1.217l-0.764-0.747c-1.178,0.319-2.555,0.538-4.129,0.653
		l0.105-0.311c1.165-0.24,2.341-0.609,3.525-1.107C115.672,24.808,116.781,24.235,117.813,23.589z M122.732,28.544l0.02,1.814
		l-0.803-0.097l-1.408,0.419l2.75,2.691l1.32-0.228l-0.36,1.997l-3.157-3.09c0.072,0.808,0.057,1.436-0.049,1.884
		c-0.107,0.448-0.301,0.766-0.582,0.95c-0.281,0.186-0.566,0.273-0.857,0.266c-0.291-0.009-0.234-0.32,0.17-0.938
		c0.358-0.569,0.602-1.021,0.73-1.356c0.128-0.335,0.238-0.688,0.334-1.055l-0.916-0.896c-0.788,0.057-1.537,0.107-2.242,0.152
		l-0.016-0.291c1.176-0.32,2.176-0.679,2.996-1.074C121.479,29.298,122.171,28.915,122.732,28.544z"/>
</g>
<g>
	<path fill="#E6211A" d="M116.499,48.218c1.079,1.067,1.849,1.782,2.31,2.145l5.991-2.8l-0.151-0.323
		c-0.262-0.56-0.592-1.034-0.992-1.424l0.533-0.957l1.146,2.453l5.455-2.55l-0.211-0.452c-0.262-0.56-0.592-1.034-0.992-1.424
		l0.533-0.957l1.9,4.066l1.436,0.273l-1.097,1.85l-1.177-2.518l-5.455,2.55l0.302,0.646l1.436,0.273l-1.098,1.849l-1.176-2.517
		l-5.634,2.633l2.488,2.062l-0.327,0.231c-1.778-1.162-3.616-2.295-5.513-3.4l-0.956-0.183L116.499,48.218z M123.867,52.56
		c1.927-0.849,3.786-1.691,5.574-2.527c1.789-0.836,3.625-1.721,5.515-2.655l-0.413,1.215l2.504,5.357l1.017,0.076l-0.621,1.47
		l-0.778-0.266l-4.202,1.964c-1.909,0.893-3.388,1.609-4.44,2.155l-0.93-0.589l1.073-0.501l-1.086-2.324l-3.845,1.797l0.875,1.873
		l1.435,0.272l-1.097,1.85l-1.75-3.744l-3.666,1.714l1.267,2.711l1.556,0.296l-1.156,1.956l-4.104-8.778
		c-0.262-0.56-0.593-1.034-0.992-1.424l0.533-0.957l2.534,5.421l3.667-1.713l-0.664-1.42c-0.262-0.56-0.593-1.034-0.992-1.424
		l0.533-0.957l1.659,3.55l3.845-1.798l-1.115-2.388l-0.895,0.418L123.867,52.56z M129.893,50.766l-3.755,1.755l1.116,2.389
		l3.756-1.756L129.893,50.766z M131.371,53.929l-3.755,1.755l1.086,2.324l3.755-1.756L131.371,53.929z M134.007,48.843l-3.577,1.672
		l1.116,2.389l3.577-1.673L134.007,48.843z M135.485,52.006l-3.577,1.672l1.086,2.323l3.577-1.672L135.485,52.006z"/>
</g>
<g>
	<path fill="#E6211A" d="M122.293,87.781l-2.523,8.021c1.414-0.07,3.092-0.302,5.033-0.694l0.212,0.298
		c-2.436,1.027-4.124,1.594-5.063,1.701c-0.94,0.105-1.627,0.085-2.064-0.063c-0.373-0.127-0.696-0.35-0.971-0.669
		c-0.272-0.319-0.396-0.524-0.365-0.613c0.031-0.091,0.288-0.128,0.77-0.115c0.809,0.074,1.455,0.119,1.937,0.133
		c1.034-4.465,1.557-7.023,1.568-7.67c0.013-0.648-0.083-1.184-0.288-1.604l2.215-0.074c-0.123,0.359,0.129,0.947,0.756,1.763
		c0.624,0.815,1.747,2.013,3.364,3.592c1.616,1.578,3.12,2.78,4.509,3.604l-2.095,0.943l-0.214-0.901
		C126.148,92.581,123.89,90.029,122.293,87.781z M138.054,100.598l-0.354-0.797c-2.068-0.254-4.195-0.188-6.377,0.199
		c-2.182,0.386-3.876,1.227-5.081,2.522l-0.28-0.096c0.245-0.72,0.048-1.364-0.594-1.933c1.799-0.793,3.852-1.312,6.16-1.554
		c2.307-0.243,4.854-0.066,7.64,0.532L138.054,100.598z M139.592,96.079l-1.929,1.074l-0.309-0.933
		c-3.856-2.969-6.468-6.017-7.837-9.142l0.35-0.106c1.613,2.405,3.321,4.379,5.126,5.923
		C136.797,94.438,138.33,95.499,139.592,96.079z"/>
</g>
<g>
	<path fill="#E6211A" d="M130.461,113.643l-7.354,8.523l0.422,1.022l-1.764,0.079l-0.076-0.818l-12.93-11.156
		c-1.175-0.953-1.605-2.014-1.293-3.186c0.599,0.516,1.691,0.359,3.273-0.47l0.374,0.323c-0.894,0.733-1.487,1.271-1.783,1.613
		c-0.294,0.341-0.144,0.771,0.455,1.286l12.78,11.026l5.91-6.852c0.404-0.467,0.702-0.963,0.894-1.487L130.461,113.643z
		 M115.346,110.764c-0.599-0.516-1.187-0.993-1.766-1.43l0.249-1.195l1.346,1.16l3.118-3.614l-1.271-1.097l0.175-1.26
		c0.617,0.594,1.722,1.579,3.316,2.955c1.594,1.375,2.856,2.432,3.784,3.17l-1.371,0.229l-3.025,3.507l0.422,1.021l-1.763,0.08
		l-0.076-0.819L115.346,110.764z M122.479,109.296l-3.736-3.224l-3.119,3.613l3.736,3.225L122.479,109.296z M127.759,109.521
		l-6.005,6.96l0.367,1.54l-2.305-0.201l6.004-6.959c0.436-0.504,0.717-0.981,0.847-1.434L127.759,109.521z"/>
</g>
<g>
	<path fill="#E6211A" d="M128.678,70.086l-1.019,1.746l-0.646-0.509l-3.045,0.299c-0.722,0.071-1.09,0.346-1.109,0.825l0.432,4.396
		c0.107,0.419,0.493,0.655,1.16,0.709c0.666,0.054,1.723,0.034,3.168-0.061l0.028,0.283c-1.306,0.176-2.249,0.328-2.831,0.458
		c-0.583,0.128-0.92,0.412-1.009,0.85c-1.015-0.234-1.559-0.73-1.633-1.486l-0.522-5.317c-0.102-1.041,0.508-1.577,1.826-1.611
		C126.162,70.404,127.896,70.21,128.678,70.086z M127.689,68.106l0.027,0.284c-2.039,0.104-3.363,0.079-3.974-0.075
		c-0.61-0.155-0.982-0.405-1.115-0.75c-0.134-0.345-0.126-0.608,0.021-0.79c0.146-0.182,0.286-0.277,0.418-0.291
		c0.261-0.025,0.675,0.148,1.241,0.522C125.019,67.51,126.145,67.876,127.689,68.106z M128.664,78.034l0.309,0.113
		c-0.437,0.949-0.856,1.718-1.261,2.307c-0.405,0.589-0.849,0.954-1.331,1.098c-0.481,0.143-0.927,0.149-1.336,0.023
		c-0.409-0.127-0.621-0.261-0.635-0.403c-0.019-0.189,0.289-0.411,0.927-0.663C126.287,80.081,127.396,79.256,128.664,78.034z
		 M129.967,72.107l0.309,0.112c-0.674,1.212-1.191,2.002-1.553,2.372c-0.36,0.368-0.736,0.573-1.129,0.612
		c-0.329,0.032-0.68-0.006-1.053-0.111c-0.375-0.106-0.566-0.207-0.576-0.302c-0.014-0.142,0.266-0.337,0.836-0.583
		C127.689,73.834,128.744,73.134,129.967,72.107z M129.058,68.903c1.576-0.107,3.116-0.234,4.624-0.383
		c1.506-0.147,2.945-0.313,4.316-0.495l-0.682,1.141l0.432,4.396c2.244,0.639,4.302,1.057,6.173,1.256l-1.327,1.633l-0.364-0.68
		c-1.651-0.649-3.132-1.244-4.44-1.783l0.278,2.836l1.031,0.4l-1.067,1.251l-0.744-0.501c-3.275,0.321-5.434,0.558-6.476,0.708
		l-0.694-1.006l1.08-0.106l-0.758-7.729l-0.786,0.077L129.058,68.903z M136.727,69.224l-5.698,0.56l0.759,7.729l5.698-0.56
		L136.727,69.224z M142.859,69.052c-0.582,0.82-1.133,1.447-1.65,1.88c-0.521,0.433-1.047,0.628-1.58,0.585
		c-0.533-0.044-0.906-0.15-1.122-0.319c-0.215-0.17-0.324-0.279-0.329-0.325c-0.014-0.143,0.334-0.297,1.046-0.462
		c0.901-0.23,2.041-0.749,3.417-1.552L142.859,69.052z"/>
</g>
</svg>
