<?xml version="1.0" encoding="utf-8"?>
<!-- Generator: Adobe Illustrator 15.0.0, SVG Export Plug-In . SVG Version: 6.00 Build 0)  -->
<!DOCTYPE svg PUBLIC "-//W3C//DTD SVG 1.1//EN" "http://www.w3.org/Graphics/SVG/1.1/DTD/svg11.dtd">
<svg version="1.1" id="图层_1" xmlns="http://www.w3.org/2000/svg" xmlns:xlink="http://www.w3.org/1999/xlink" x="0px" y="0px"
	 width="154px" height="154px" viewBox="0 0 154 154" enable-background="new 0 0 154 154" xml:space="preserve">
<circle fill="none" stroke="#FF0000" stroke-width="3.5" stroke-miterlimit="10" cx="77.073" cy="76.744" r="74.745"/>
<polygon fill="#FF0000" points="94.585,96.425 78.087,86.822 64.566,99.381 67.52,81.618 52.82,72.003 69.899,69.745 74.037,52.368 
	81.9,68.335 99.218,66.468 87.003,78.896 "/>
<circle fill="none" cx="77.41" cy="76.404" r="46.763"/>
<g enable-background="new    ">
	<path fill="#FF0000" d="M19.402,110.799c0.026-0.137,0.075-0.245,0.158-0.308c0.083-0.063,0.201-0.081,0.319-0.053l0.81,0.166
		l12.153-9.177c1.579-1.191,2.844-2.194,3.745-2.945l0.104-0.078c0.291-0.22,0.44-0.238,0.948-0.127
		c0.194,0.041,0.336,0.1,0.382,0.159c0.067,0.09-0.023,0.229-0.293,0.433l-1.579,1.192l7.228,9.571l0.976-0.737
		c0.416-0.313,1.067-0.099,1.214,0.097c0.09,0.119,0,0.26-0.27,0.463c-0.104,0.078-0.198,0.127-0.323,0.221
		c-1.262,0.834-2.385,1.636-3.923,2.797l-11.177,8.438c-1.205,0.91-2.564,1.96-3.186,2.477l0.522-2.115l-6.763-8.956l-1.403,0.259
		L19.402,110.799z M35.692,100.406l-14.979,11.311l7.228,9.57l14.979-11.309L35.692,100.406z M32.828,103.395
		c0.066-0.215,0.115-0.322,0.198-0.385c0.083-0.063,0.181-0.02,0.261,0.085l5.551,7.352c0.238,0.315,0.649,0.687,0.988,0.833
		l-0.452,1c-0.242-0.406-0.483-0.812-0.744-1.158l-2.311-3.061l-4.716,3.561l1.303,1.727c0.227,0.299,0.615,0.642,0.921,0.788
		l-0.442,0.969c-0.23-0.392-0.46-0.782-0.709-1.112l-1.53-2.025l-3.407,2.572l1.711,2.266c0.238,0.314,0.65,0.688,0.988,0.832
		l-0.452,1c-0.242-0.406-0.483-0.812-0.744-1.158l-4.191-5.549l-1.465,0.305l0.479-1.656c0.056-0.185,0.126-0.307,0.188-0.354
		c0.104-0.079,0.19-0.052,0.281,0.068l2.674,3.541l3.407-2.572l-1.405-1.86l-1.425,0.229l0.438-1.58
		c0.037-0.168,0.106-0.292,0.189-0.354c0.083-0.063,0.191-0.05,0.281,0.069l2.379,3.15l4.716-3.561l-2.006-2.654l-1.407,0.166
		L32.828,103.395z M31.09,109.042c-0.108-1.569,0.111-2.488,0.377-2.783c0.072-0.077,0.144-0.155,0.227-0.218
		c0.416-0.313,0.967-0.447,1.103-0.268c0.147,0.195,0.081,0.409-0.153,0.704c-0.468,0.59-1.014,1.379-1.332,2.513L31.09,109.042z"/>
</g>
<g enable-background="new    ">
	<path fill="#FF0000" d="M11.242,84.235c0.03-0.104,0.098-0.157,0.148-0.169s0.08,0.001,0.144,0.044l0.338,0.31l3.172-0.728
		c0.38-0.087,0.955-0.258,1.336-0.345c0.355-0.082,0.659,0.426,0.697,0.592c0.028,0.127-0.043,0.164-0.17,0.193l-0.939,0.215
		l1.437,6.266l0.673,0.137c0.109,0.012,0.173,0.057,0.186,0.111c0.009,0.035-0.009,0.078-0.046,0.146l-0.611,1.064l-0.654-0.409
		l-3.248,0.745c-0.583,0.133-1.01,0.251-1.737,0.455l0.556-1.419c0.033-0.084,0.071-0.151,0.147-0.169s0.114,0.033,0.521,0.402
		l3.679-0.844l-0.627-2.73l-4.719,1.082c-0.584,0.134-1.011,0.25-1.738,0.456l0.433-1.372c0.026-0.121,0.094-0.176,0.146-0.188
		c0.076-0.018,0.135,0.008,0.641,0.354l5.05-1.157l-0.643-2.803l-2.766,0.634c-0.686,0.157-1.112,0.273-1.916,0.496L11.242,84.235z
		 M27.222,90.332l3.127,3.621c0.489,0.622,0.929,0.906,1.271,1.002c0.084,0.019,0.147,0.062,0.156,0.098
		c0.013,0.056-0.03,0.104-0.094,0.176l-1.024,0.892l-1.679-2.547l-6.825,1.565l0.231,1.008c0.084,0.365,0.299,0.836,0.519,1.095
		l-0.775,0.698c-0.05-0.451-0.101-0.902-0.192-1.305l-0.315-1.375l-5.937,1.361l0.205,0.897c0.089,0.385,0.312,0.894,0.561,1.164
		l-0.821,0.729c-0.054-0.47-0.108-0.94-0.205-1.36l-0.719-3.135l-1.271-0.305l0.982-1.074c0.174-0.175,0.283-0.278,0.359-0.296
		c0.102-0.023,0.148,0.063,0.187,0.228l0.533,2.328l5.938-1.361l-0.168-0.732l-1.095-0.348l0.834-0.904
		c0.148-0.169,0.259-0.271,0.335-0.289c0.101-0.023,0.147,0.062,0.186,0.229l0.441,1.924l6.521-1.496l-1.582-2.357L27.222,90.332z
		 M18.112,81.465c0.127-0.146,0.241-0.229,0.291-0.24c0.102-0.022,0.145,0.043,0.183,0.209l1.214,5.295
		c1.17,0.213,2.083,0.353,3.372,0.5l-1.017-4.435l-1.187-0.287l0.821-1.19c0.038-0.067,0.105-0.121,0.156-0.133
		c0.102-0.023,0.165,0.02,0.777,0.361l7.231-1.657c1.193-0.273,1.624-0.14,2.586,0.68c0.039,0.05,0.072,0.08,0.081,0.117
		c0.017,0.073-0.026,0.121-0.148,0.169c-0.805,0.338-0.965,0.684-1.188,2.277l-0.363,0.045c0.001-1.043-0.036-1.67-0.12-2.036
		c-0.117-0.513-0.354-0.497-0.811-0.392l-7.333,1.681l0.467,2.034l2.892-0.663c1.345-0.309,2.128-0.509,3.257-0.825l0.202-0.046
		c0.432-0.099,0.521-0.062,0.74,0.196c0.144,0.16,0.224,0.277,0.244,0.369c0.034,0.146-0.11,0.218-0.541,0.316l-0.229,0.053
		c-1.505,0.307-2.145,0.433-3.539,0.753l-2.842,0.651l0.429,1.87l3.577-0.82c1.345-0.308,2.127-0.507,3.257-0.824l0.203-0.047
		c0.405-0.093,0.52-0.061,0.739,0.197c0.143,0.159,0.228,0.294,0.244,0.368c0.034,0.146-0.11,0.219-0.491,0.307l-0.278,0.063
		c-1.506,0.306-2.145,0.433-3.54,0.753l-3.526,0.809l0.42,1.832l4.542-1.041c1.674-0.384,3.269-0.768,4.25-1.032l0.127-0.029
		c0.33-0.075,0.422-0.02,0.705,0.282c0.139,0.141,0.216,0.24,0.232,0.312c0.029,0.129-0.114,0.201-0.47,0.282l-0.203,0.046
		c-1.276,0.255-3.234,0.685-4.479,0.97l-2.842,0.651c-0.888,0.203-2.355,0.56-3.163,0.764l0.708-1.224l-0.479-2.088
		c-1.269-0.057-2.165-0.007-3.234,0.104l0.513,2.234c0.088,0.385,0.311,0.894,0.56,1.164l-0.82,0.729
		c-0.055-0.47-0.109-0.938-0.206-1.36l-1.714-7.477l-1.343-0.386L18.112,81.465z"/>
</g>
<g enable-background="new    ">
	<path fill="#FF0000" d="M28.075,57.941c-0.136,0.835,0.033,1.328,0.539,1.733c0.069,0.051,0.084,0.112,0.074,0.167
		c-0.007,0.037-0.015,0.074-0.073,0.101c-3.07,1.873-4.969,2.499-8.024,2.938l-0.934,4.798c2.622,2.061,5.048,4.717,6.676,7.523
		l-0.313,0.111c-1.999-2.668-4.088-4.875-6.539-6.731l-0.618,3.174c-0.076,0.388-0.081,0.961,0.015,1.286l-1.021,0.338
		c0.138-0.433,0.283-0.902,0.365-1.327l0.751-3.856c-0.768-0.552-1.569-1.071-2.405-1.541l-0.536,2.75
		c-0.072,0.369-0.074,0.924,0.025,1.231l-1.017,0.319c0.133-0.415,0.274-0.866,0.353-1.271l0.65-3.34
		c-0.767-0.418-1.568-0.804-2.393-1.194L12.77,69.67c-0.075,0.388-0.081,0.961,0.016,1.286l-1.021,0.337
		c0.137-0.433,0.282-0.902,0.364-1.327l0.988-5.074c-1.121-0.506-2.305-0.966-3.499-1.371l0.952-1.078
		c0.108-0.151,0.2-0.21,0.277-0.195c0.076,0.015,0.112,0.099,0.373,0.667c0.731,0.334,1.411,0.657,2.091,0.982l0.984-5.056
		l-1.23-1.044l1.582-0.764c0.175-0.082,0.317-0.13,0.42-0.11c0.127,0.025,0.16,0.127,0.124,0.312l-1.351,6.938
		c0.848,0.414,1.618,0.813,2.385,1.23l0.895-4.594l-1.166-0.956l1.492-0.724c0.208-0.113,0.347-0.144,0.45-0.124
		c0.102,0.02,0.136,0.123,0.096,0.325l-1.239,6.366c0.811,0.464,1.607,1.003,2.395,1.596l1.592-8.174l-1.197-0.942l1.538-0.811
		c0.207-0.113,0.378-0.176,0.455-0.161c0.103,0.02,0.132,0.141,0.089,0.362l-0.967,4.964c3.419-0.675,6.195-2.395,7.085-4.653
		L28.075,57.941z M25.232,62.597c0.121-0.072,0.204-0.094,0.281-0.079c0.076,0.015,0.092,0.075,0.091,0.209
		c-0.024,0.398,0.303,1.17,1.441,2.541c1.404-1.623,3.122-3.089,3.777-3.325c0.598-0.209,1.134-0.239,1.517-0.164
		c0.46,0.089,0.731,0.333,0.688,0.555c-0.04,0.203-0.185,0.271-0.943,0.486c-1.546,0.447-3.673,1.698-5.284,3.3l5.162,1.005
		c0.894,0.174,1.22,0.41,1.617,1.636c0.018,0.042,0.01,0.079,0.003,0.115c-0.014,0.074-0.094,0.078-0.276,0.062
		c-0.8-0.118-1.396,0.092-2.194,1.468l-0.319-0.138c0.542-1.006,0.784-1.571,0.844-1.885c0.072-0.369-0.1-0.441-0.381-0.496
		l-3.858-0.751l1.833,4.207c0.312,0.712,0.674,1.166,1.069,1.454c0.095,0.056,0.139,0.104,0.132,0.14
		c-0.007,0.038-0.065,0.064-0.125,0.091l-1.256,0.598l-2.114-6.579l-2.555-0.497c-1.253-0.244-2.308-0.411-3.259-0.559l1.142-1.233
		c0.097-0.095,0.159-0.141,0.21-0.131c0.077,0.015,0.117,0.081,0.18,0.169l0.363,0.587l3.397,0.662
		c0.109-0.151,0.248-0.315,0.353-0.448c-0.973-0.995-1.558-1.53-2.604-2.423L25.232,62.597z M22.749,70.177
		c0.872-1.209,1.858-2.186,3.083-1.947c0.64,0.125,1.01,0.541,0.966,0.762c-0.032,0.166-0.182,0.253-1.148,0.313
		c-0.781,0.059-1.585,0.38-2.671,1.05L22.749,70.177z"/>
</g>
<g enable-background="new    ">
	<path fill="#FF0000" d="M23.62,37.067c0.214,0.013,0.342,0.011,0.406,0.056c0.086,0.061,0.054,0.152-0.044,0.291l-4.538,6.438
		c-0.227,0.323-0.457,0.829-0.492,1.195l-1.091-0.125c0.314-0.354,0.626-0.708,0.876-1.062l3.812-5.409l-0.694-1.409L23.62,37.067z
		 M25.043,39.703c0.108-0.017,0.171-0.018,0.213,0.012c0.043,0.03,0.064,0.091,0.084,0.198l0.07,0.578l0.617,0.435
		c0.319,0.226,1.874,1.228,2.086,1.378c0.276,0.195,0.318,0.316,0.304,0.697c-0.033,0.184-0.055,0.307-0.109,0.383
		c-0.086,0.123-0.129,0.092-0.64-0.267l-2.307,3.273c0.659,0.465,0.724,0.51,0.677,0.937c-0.023,0.214-0.045,0.336-0.078,0.382
		c-0.054,0.077-0.129,0.047-0.278-0.058c-0.511-0.36-1.309-0.945-1.819-1.305l-1.298-0.915c-0.489-0.345-1.267-0.87-1.937-1.318
		l1.318-0.29l2.133-3.027l-0.486-0.711L25.043,39.703z M27.2,42.787l-2.554-1.799l-2.307,3.273l2.554,1.799L27.2,42.787z
		 M38.644,41.191c1.06-0.058,4.043,0.136,5.236,0.976c0.638,0.449,0.825,0.996,0.674,1.211c-0.163,0.23-0.568,0.128-1.377-0.395
		c-0.394-0.255-0.809-0.479-1.3-0.687l-1.214,4.388c-0.165,0.596-0.17,1.282-0.055,1.57c0.042,0.076,0.041,0.122,0.019,0.152
		c-0.022,0.031-0.085,0.032-0.171,0.017l-1.411-0.166l1.3-3.247l-5.575-3.929l-0.953,1.352l1.192,0.84
		c0.255,0.18,0.339,0.332,0.305,0.698c-0.012,0.198-0.046,0.335-0.089,0.396c-0.065,0.092-0.172,0.063-0.405-0.102
		c-0.107-0.075-0.203-0.165-0.352-0.271c-0.681-0.525-1.776-1.32-2.669-1.95l-3.363-2.37c-0.51-0.359-1.542-1.063-2.223-1.498
		l1.393-0.215l0.909-1.291l-1.468-1.035c-0.957-0.674-2.607-1.768-3.534-2.352l1.558-0.628c0.171-0.062,0.268-0.11,0.332-0.065
		c0.063,0.045,0.074,0.076,0.111,0.837l3.531,2.489l0.791-1.122l-0.633-1.044l1.501-0.276c0.118-0.032,0.203-0.018,0.267,0.027
		c0.042,0.03,0.084,0.106,0.105,0.212l0.166,0.669l3.149,2.22c1.063,0.749,1.894,1.288,2.671,1.767
		c0.085,0.06,0.16,0.09,0.224,0.135c0.256,0.18,0.286,0.316,0.251,0.729c-0.023,0.213-0.045,0.336-0.089,0.397
		c-0.065,0.092-0.183,0.032-0.353-0.087l-0.83-0.585L35.3,40.331l5.405,3.809l0.819-1.976c-0.736-0.266-1.623-0.499-2.756-0.7
		L38.644,41.191z M30.786,42.669c0.14-0.017,0.204-0.018,0.247,0.013c0.063,0.045,0.084,0.105,0.083,0.197l0.04,0.487l7.66,5.397
		c1.106,0.78,1.393,1.143,1.352,2.149c-0.011,0.061-0.011,0.107-0.033,0.138c-0.043,0.062-0.107,0.062-0.225,0.002
		c-0.565-0.283-0.961-0.263-2.23,0.498l-0.296-0.301c0.711-0.512,1.098-0.836,1.26-1.067c0.206-0.292,0.036-0.458-0.282-0.682
		l-7.895-5.563l-3.628,5.148l5.234,3.689c0.574,0.404,3.384,2.338,4.022,2.788c0.256,0.18,0.308,0.286,0.273,0.698
		c-0.003,0.183-0.025,0.305-0.068,0.366c-0.076,0.108-0.224,0.049-0.543-0.176l-0.192-0.135c-1.127-0.84-2.883-2.101-3.989-2.88
		l-3.745-2.64c-0.787-0.555-2.149-1.468-2.895-1.948l1.543-0.246l3.4-4.825l-0.506-0.863L30.786,42.669z M34.302,40.754
		l-5.319-3.749l-0.953,1.352l5.319,3.749L34.302,40.754z M28.308,48.627c1.253-0.152,2.29,0.049,2.716,0.35
		c0.403,0.284,0.636,0.724,0.484,0.938c-0.086,0.123-0.205,0.155-0.673-0.175c-0.489-0.345-1.513-0.744-2.464-0.931L28.308,48.627z
		 M35.796,38.633l-5.319-3.749l-0.964,1.368l5.319,3.749L35.796,38.633z M34.269,47.399c0.17,0.028,0.288,0.042,0.331,0.073
		c0.085,0.06,0.063,0.136-0.013,0.244l-1.213,1.721l1.213,0.854c1.085,0.765,1.744,1.184,2.299,1.528
		c0.063,0.045,0.139,0.075,0.202,0.12c0.255,0.18,0.286,0.317,0.229,0.714c-0.013,0.198-0.045,0.335-0.089,0.397
		c-0.076,0.107-0.225,0.048-0.544-0.177c-0.745-0.525-1.883-1.395-2.628-1.92l-1.17-0.825l-0.357,0.507
		c-0.228,0.322-0.457,0.874-0.514,1.225l-1.09-0.124c0.314-0.354,0.637-0.724,0.886-1.078l0.953-1.352
		c-1.165-1.465-2.108-2.476-2.99-3.303l1.254-0.289c0.118-0.032,0.183-0.033,0.225-0.003c0.021,0.015,0.02,0.061-0.013,0.152
		c-0.141,0.291,0.101,0.853,1.697,3.196l0.487-0.691l-0.537-1.137L34.269,47.399z"/>
</g>
<g enable-background="new    ">
	<path fill="#FF0000" d="M36.125,22.142c1.559-0.507,2.729-0.6,3.331,0.406c0.267,0.447,0.359,0.969,0.133,1.104
		c-0.081,0.049-0.156,0.032-0.475-0.171c-0.908-0.641-1.616-0.946-2.936-1.067L36.125,22.142z M40.843,20.508L41.342,26
		c0.116,1.296,0.294,1.886,0.602,2.4c0.12,0.201,0.807,1.095,0.94,1.317c0.467,0.782,0.34,1.193-0.047,1.425
		c-0.194,0.115-0.398-0.006-0.611-0.363c-0.187-0.312-0.836-1.987-1.05-2.344c-0.467-0.783-0.961-0.73-2.453-0.296L38.6,27.789
		c0.557-0.241,0.955-0.418,1.246-0.592c0.743-0.443,0.76-0.817,0.745-1.87l-0.062-4.905L40.843,20.508z M50.659,16.707
		c0.075,0.016,0.147,0.063,0.161,0.085c0.04,0.067,0.004,0.119-0.111,0.219c-0.474,0.344-0.72,0.885-0.853,3.632l-0.271-0.051
		l-0.382-2.985l-5.81,3.47c0.087,1.979,0.083,3.255-0.091,4.724l-0.284-0.073c-0.069-2.535-0.478-5.566-1.174-8.455l1.575,0.181
		c0.107-0.003,0.18,0.045,0.206,0.089c0.027,0.045,0.005,0.119-0.065,0.222c-0.296,0.42-0.318,0.493-0.295,0.935l0.093,1.732
		l5.439-3.248l0.079-1.078L50.659,16.707z M55.058,21.873c-0.781,0.708-0.855,1.025-0.809,1.726
		c-0.005,0.063-0.027,0.137-0.076,0.166c-0.032,0.019-0.078,0.017-0.123,0.014c-3.353-0.151-4.769-0.578-6.97-2.175
		c0.475,3.143-0.462,5.642-3.153,8.25l-0.225-0.229c2.641-3.791,3.117-5.561,2.024-9.335l1.522,0.092
		c0.091,0.006,0.15,0.031,0.164,0.054c0.026,0.045,0.021,0.109-0.017,0.192l-0.295,0.57c2.379,1.49,4.892,1.627,7.811,0.43
		L55.058,21.873z M53.185,25.629c0.137,0.009,0.222,0.079,0.262,0.146s0.061,0.176,0.018,0.322l-0.186,0.718l1.081,1.811
		c0.481,0.805,0.857,1.397,1.292,2.017l0.12,0.201c0.187,0.313,0.187,0.495,0.021,0.806c-0.111,0.218-0.184,0.353-0.265,0.4
		c-0.113,0.067-0.225-0.047-0.412-0.36c-0.134-0.223-1.009-1.763-1.209-2.098l-1.669-2.794l-6.778,4.049l1.908,3.196
		c0.414,0.692,0.777,1.264,1.116,1.759c0.04,0.066,0.096,0.124,0.124,0.169c0.28,0.47-0.167,1.041-0.296,1.117
		c-0.129,0.077-0.229-0.016-0.429-0.351l-0.146-0.246c-0.499-0.944-0.817-1.514-1.377-2.451l-1.134-1.9
		c-0.494-0.827-0.817-1.331-1.332-2.085l1.371,0.242l6.391-3.816l-0.036-1.161L53.185,25.629z M50.444,30.024
		c0.092,0.006,0.15,0.031,0.177,0.076c0.027,0.044,0.021,0.108-0.017,0.191l-0.184,0.535c2.16,4.864,1.74,7.057-2.569,11.538
		l-0.299-0.245c2.774-3.566,3.641-5.782,3.147-8.003c-0.209-0.937-0.867-2.515-1.881-4.214L50.444,30.024z M52.446,33.376
		c2.824-0.807,5.3-0.951,6.249-0.607c0.461,0.148,0.798,0.493,0.985,0.806c0.24,0.402,0.281,0.802,0.12,0.898
		c-0.194,0.116-0.331,0.106-0.668-0.057c-1.204-0.585-3.812-1.028-6.542-0.762L52.446,33.376z"/>
</g>
<g enable-background="new    ">
	<path fill="#FF0000" d="M68.903,14.614c0.108,0.118,0.155,0.191,0.164,0.269c0.009,0.078-0.044,0.111-0.193,0.129l-3.025,0.354
		l0.57,4.859l2.458-1.808l0.21,0.342l-2.573,2.268l1.046,8.92c0.164,1.396,0.098,1.64-1.059,2.588
		c-0.053,0.032-0.087,0.062-0.125,0.067c-0.056,0.007-0.103-0.067-0.14-0.22c-0.23-0.838-0.491-1.122-2.325-1.746l0.035-0.344
		c1.123,0.208,1.797,0.313,2.189,0.267c0.523-0.061,0.562-0.38,0.477-1.104l-0.906-7.729c-1.679,1.506-2.229,2.304-2.308,2.602
		c-0.038,0.162-0.069,0.218-0.106,0.222c-0.038,0.004-0.078-0.017-0.143-0.087l-0.893-1.154l3.345-2.462l-0.63-5.377l-1.438,0.168
		c-0.393,0.046-0.921,0.212-1.218,0.431l-0.634-0.896c0.472-0.003,0.945-0.006,1.375-0.056l1.849-0.217l-0.261-2.224
		c-0.124-1.06-0.369-2.814-0.517-3.766l1.524,0.895c0.122,0.065,0.184,0.109,0.193,0.188c0.006,0.052-0.041,0.136-0.106,0.221
		l-0.425,0.576l0.47,4.007l1.326-0.155l0.559-1.376L68.903,14.614z M80.381,29.362c0.107,0.118,0.176,0.215,0.182,0.267
		c0.01,0.077-0.062,0.112-0.211,0.13l-9.803,1.149c-0.374,0.044-0.865,0.206-1.143,0.422l-0.62-0.923c0.454-0.001,0.89,0,1.3-0.047
		l8.421-0.987l0.514-1.424L80.381,29.362z M77.158,10.763c0.102,0.067,0.149,0.14,0.155,0.192c0.009,0.077-0.02,0.16-0.122,0.25
		l-0.59,0.62l1.016,8.661c0.23,1.965,0.455,3.563,0.648,4.72l0.012,0.104c0.051,0.439-0.049,0.556-0.413,0.834
		c-0.156,0.124-0.243,0.186-0.317,0.195c-0.113,0.013-0.147-0.113-0.171-0.321l-0.194-1.654l-5.62,0.659l0.17,1.448
		c0.042,0.361-0.023,0.448-0.316,0.691c-0.156,0.125-0.281,0.19-0.355,0.199c-0.149,0.018-0.208-0.158-0.26-0.597l-0.024-0.208
		c-0.141-1.529-0.395-3.858-0.568-5.333l-0.928-7.911c-0.127-1.085-0.307-2.454-0.439-3.25l1.499,1.317l5.041-0.591l0.376-1.144
		L77.158,10.763z M76.321,17.021l-0.667-5.688l-5.62,0.659l0.667,5.688L76.321,17.021z M77.115,23.795l-0.728-6.205l-5.62,0.659
		l0.728,6.205L77.115,23.795z"/>
</g>
<g enable-background="new    ">
	<path fill="#FF0000" d="M94.416,10.597c0.057,0.127,0.088,0.219,0.065,0.293c-0.03,0.1-0.101,0.133-0.25,0.168
		c-0.254,0.058-0.364,0.16-0.729,0.7c-0.797,1.169-1.831,2.592-2.97,4.037l0.501,0.729c0.047,0.042,0.06,0.128,0.036,0.203
		c-0.03,0.099-0.083,0.137-0.668,0.5l-3.057,9.817c-0.479,1.541-0.856,2.814-1.151,3.949l-0.031,0.1
		c-0.186,0.597-0.986,0.701-1.021,0.69c-0.144-0.045-0.135-0.261,0.012-0.732l0.047-0.149c0.492-1.455,0.951-2.866,1.354-4.158
		L89.586,17c-1.336,1.629-2.758,3.23-4.072,4.349l-0.127-0.285c3.013-3.479,6.531-8.327,8.286-11.815L94.416,10.597z
		 M100.188,32.843c-0.119-0.064-0.244-0.104-0.352-0.137c-0.539-0.168-1.031-0.104-1.491,0.299c-0.075,0.058-0.12,0.071-0.175,0.055
		c-0.035-0.011-0.07-0.022-0.11-0.089c-1.347-2.628-1.679-5.103-1.374-8.607l-0.629-0.196l-1.324,4.251
		c-0.217,0.695-1.245,4.192-1.484,4.962c-0.171,0.547-0.922,0.804-1.135,0.737c-0.109-0.034-0.096-0.139-0.033-0.337l0.031-0.1
		c0.562-1.624,1.143-3.488,1.793-5.575l1.301-4.176c-2.227,2.851-5.345,5.343-8.287,6.635l-0.066-0.293
		c2.785-1.614,5.678-4.258,7.375-6.674l-3.143-0.979c-0.375-0.117-0.928-0.18-1.287-0.101l-0.217-1.076
		c0.434,0.189,0.867,0.379,1.28,0.507l4.522,1.408l1.092-3.504l-2.279-0.71l-0.217,0.696c-0.085,0.273-0.16,0.386-0.518,0.521
		c-0.225,0.094-0.357,0.134-0.445,0.106c-0.09-0.028-0.068-0.158,0.016-0.431c0.125-0.397,0.787-2.4,0.926-2.848l1.122-3.604
		c0.187-0.597,0.54-1.795,0.743-2.577l0.711,1.448l5.133,1.599l0.943-0.878l0.672,1.572c0.059,0.127,0.07,0.213,0.048,0.288
		c-0.023,0.075-0.081,0.138-0.194,0.185l-0.667,0.31l-0.999,3.207c-0.123,0.397-0.699,2.372-0.838,2.819
		c-0.201,0.646-1.013,0.721-1.013,0.721c-0.108-0.034-0.079-0.188-0.002-0.437l0.286-0.92l-2.584-0.805l-1.092,3.504l4.075,1.269
		l1.099-1.13l0.553,1.645c0.078,0.188,0.094,0.329,0.062,0.429c-0.039,0.125-0.145,0.146-0.305,0.096l-4.703-1.464
		c-0.1,4.495,1.141,6.897,3.265,8.105L100.188,32.843z M100.072,20.374l1.766-5.667l-5.707-1.777l-1.766,5.667L100.072,20.374z"/>
</g>
<g enable-background="new    ">
	<path fill="#FF0000" d="M126.495,33.485c-0.024,0.255-0.054,0.403-0.123,0.481s-0.157,0.036-0.312-0.101l-7.197-6.333
		c-1.301,0.624-2.729,1.309-3.722,1.753l5.277,4.645l1.216-0.526l0.209,1.468c0.041,0.209,0.029,0.337-0.021,0.396
		c-0.053,0.059-0.146,0.08-0.332,0.09l-0.692,0.048l-7.946,9.028c-1.221,1.387-1.531,1.599-2.738,1.404
		c-0.104-0.023-0.164-0.041-0.207-0.078c-0.057-0.05-0.033-0.133,0.094-0.333c0.469-0.732,0.41-1.234-0.438-2.917l0.297-0.224
		c0.685,0.845,1.109,1.357,1.42,1.631c0.451,0.397,0.634,0.246,0.961-0.125l2.631-2.99l-5.518-4.856l-1.462,1.661
		c-0.378,0.43-2.122,2.468-2.38,2.761s-0.383,0.321-0.854,0.289c-0.213-0.014-0.349-0.03-0.419-0.092
		c-0.086-0.075,0.004-0.204,0.228-0.458l0.155-0.176c1.043-1.128,2.604-2.875,3.584-3.988l5.229-5.94
		c-2.969,1.098-6.07,1.975-8.506,2.294l0.07-0.391c4.225-0.789,9.205-2.891,13.131-5.019l-3.373-2.968
		c-0.295-0.261-0.773-0.543-1.135-0.618l0.242-1.071c0.318,0.35,0.637,0.7,0.961,0.985l3.838,3.378
		c1.94-1.066,2.996-1.697,4.045-2.405l0.256,1.646c0.026,0.197,0.018,0.292-0.018,0.331c-0.051,0.059-0.143,0.048-0.317-0.037
		c-0.396-0.176-0.692-0.124-1.161,0.123c-0.516,0.274-1.223,0.622-2.042,1.012l5.561,4.893l1.695-0.588L126.495,33.485z
		 M115.25,40.373l2.338-2.658l-5.518-4.856l-2.338,2.658L115.25,40.373z M117.967,37.285l2.355-2.677l-5.518-4.856l-2.355,2.677
		L117.967,37.285z"/>
</g>
<g enable-background="new    ">
	<path fill="#FF0000" d="M138.223,48.221c-0.051,0.081-0.083,0.138-0.131,0.158c-0.072,0.03-0.111,0.006-0.188-0.042
		c-0.58-0.487-1.285-0.611-2.659-0.51l-3.876,0.282c-2.318,3.233-3.25,3.964-4.828,4.646c-2.174,0.939-3.92-0.477-3.973-0.598
		c-0.029-0.069,0.027-0.135,0.139-0.204c0.69-0.502,0.945-0.961,0.926-2.386l0.366-0.138c0.106,0.772,0.267,1.339,0.446,1.754
		c0.432,1.001,1.076,1.05,2.033,0.637c1.361-0.589,2.533-1.422,4.561-4.081l6.391-0.959l-1.23-2.848l-14.457,6.246
		c-1.721,0.744-3.385,1.484-4.375,1.952l-0.143,0.062c-0.334,0.145-0.46,0.117-0.793-0.128c-0.162-0.114-0.256-0.196-0.285-0.266
		c-0.053-0.12,0.076-0.218,0.436-0.373l0.215-0.093c1.328-0.532,3.367-1.394,4.658-1.951l12.76-5.513
		c0.934-0.403,2.447-1.099,3.244-1.484l-0.614,1.597l1.021,2.364l1.28,0.144L138.223,48.221z M123.9,65.876
		c-0.395-0.915-0.797-1.191-1.545-1.278c-0.086-0.005-0.125-0.027-0.14-0.062c-0.015-0.034-0.013-0.097,0.013-0.17
		c1.227-3.786,3.357-6.078,8.266-9.223l-0.627-1.449l-8.842,3.82l2.618,1.858l-0.29,0.248c-3.675-1.811-4.176-1.922-4.98-1.944
		c-0.062-0.014-0.094-0.021-0.107-0.056c-0.016-0.035-0.006-0.078,0.027-0.133l1.035-1.41c0.563,0.451,1.498,0.58,2.334,0.219
		l14.1-6.091c1.577-0.682,3.354-1.491,4.039-1.808l-0.705,1.779l1.924,4.452l1.303,0.195l-0.82,1.645
		c-0.042,0.1-0.1,0.166-0.171,0.196c-0.048,0.021-0.134,0.017-0.243-0.038l-0.818-0.384l-4.539,1.962
		c-0.527,0.228-2.831,1.326-3.236,1.501c-0.359,0.155-0.461,0.116-0.889-0.149c-0.131-0.107-0.216-0.173-0.246-0.241
		c-0.066-0.156,0.005-0.188,0.723-0.497l-1.432-3.313c-1.957,1.378-3.102,2.406-4.04,3.384c1.85,0.736,3.843,1.412,5.128,1.695
		l-0.98,1.406c-0.072,0.095-0.105,0.149-0.154,0.17c-0.047,0.021-0.078,0.014-0.102-0.038c-0.014-0.034-0.033-0.21-0.041-0.227
		c-0.164-0.381-0.688-0.871-1.605-1.355l-2.529-1.323c-2.021,2.408-2.523,4.593-2.139,6.535L123.9,65.876z M132.607,58.591
		l3.823-1.651l-2.214-5.125l-3.824,1.651L132.607,58.591z M136.956,56.712l3.656-1.579l-2.214-5.125l-3.656,1.579L136.956,56.712z"
		/>
</g>
<g enable-background="new    ">
	<path fill="#FF0000" d="M130.737,78.711c-2.265,2.268-5.067,3.871-6.11,3.973c-0.183,0.017-0.339,0.015-0.469,0.014
		c-1.146-0.014-1.557-0.469-1.553-0.826c0.002-0.244,0.368-0.354,1.307-0.437c0.365-0.034,0.782-0.123,1.279-0.268l-0.861-6.703
		c-0.287-2.297-0.438-2.712-0.824-3.149c-0.077-0.076-0.103-0.114-0.102-0.152c0-0.056,0.053-0.093,0.157-0.129l1.882-0.711
		c0.301,1.037,0.66,1.511,1.824,2.145c3.26,1.767,6.914,3.218,9.898,4.117l-1.006,1.417c-0.08,0.112-0.133,0.168-0.21,0.167
		c-0.052,0-0.13-0.076-0.206-0.229c-0.307-0.51-0.409-0.587-0.927-0.837c-3.781-1.772-7.093-3.577-9.47-5.183l0.34,9.085
		c1.254-0.457,2.903-1.284,4.791-2.466L130.737,78.711z M143.783,76.057c-0.078,0.113-0.157,0.149-0.209,0.148
		c-0.053-0.001-0.104-0.058-0.18-0.209c-0.279-0.585-0.357-0.643-0.824-0.817c-4.121-1.607-9.139-4.466-11.143-6.876l0.341-0.146
		c3.559,3.011,8.661,5.306,13.203,6.449L143.783,76.057z M133.154,85.957c0.055-0.263,0.109-0.506,0.112-0.713
		c0.007-0.564-0.224-0.905-0.688-1.211c-0.078-0.059-0.104-0.096-0.104-0.152c0.001-0.037,0.027-0.094,0.08-0.131
		c3.857-2.738,6.969-3.85,13.02-4.908l-0.719,1.401c-0.053,0.093-0.105,0.13-0.157,0.13s-0.104-0.021-0.181-0.096l-0.541-0.533
		c-4.537,0.607-9.435,3.24-10.458,6.217L133.154,85.957z"/>
</g>
<g enable-background="new    ">
	<path fill="#FF0000" d="M135.785,110.486c-0.109,0.055-0.203,0.074-0.25,0.055c-0.049-0.021-0.074-0.094-0.107-0.211l-0.223-0.855
		l-16.443-7.166c-1.812-0.789-2.006-0.936-2.33-2.471c-0.025-0.072-0.003-0.125,0.012-0.158c0.023-0.053,0.086-0.066,0.244-0.039
		c0.941,0.186,1.404,0.1,2.777-1.619l0.328,0.164c-0.68,1.037-1.082,1.701-1.277,2.15c-0.316,0.723-0.062,0.855,0.535,1.115
		l16.92,7.373l4.468-10.254c0.157-0.363,0.28-0.904,0.241-1.27l1.094-0.098c-0.26,0.398-0.471,0.819-0.645,1.215l-4.468,10.256
		l0.866,1.074L135.785,110.486z M129.548,101.801c-0.095,0.02-0.157,0.033-0.206,0.012c-0.047-0.02-0.08-0.074-0.104-0.148
		l-0.262-0.77l-4.057-1.768c-0.883-0.385-1.504-0.654-2.171-0.884c-0.096-0.042-0.174-0.056-0.221-0.076
		c-0.264-0.114-0.297-0.231-0.361-0.608c-0.02-0.213-0.047-0.348-0.017-0.418c0.046-0.104,0.172-0.068,0.387,0.025l1.289,0.562
		l2.2-5.051l-1.671-0.728c-0.501-0.218-0.507-0.856-0.431-1.028c0.045-0.104,0.155-0.097,0.37-0.004
		c0.238,0.104,2.308,1.088,2.761,1.285l4.463,1.945c1.004,0.438,1.703,0.721,2.457,1.01l-1.666,0.564l-1.945,4.465l0.887,0.961
		L129.548,101.801z M124.351,97.957l5.346,2.329l2.2-5.05l-5.346-2.329L124.351,97.957z M132.51,105.818
		c-0.095,0.02-0.18,0.023-0.229,0.002c-0.049-0.02-0.049-0.082-0.012-0.168l4.566-10.479c0.158-0.361,0.28-0.902,0.24-1.269
		l1.093-0.099c-0.235,0.41-0.47,0.82-0.644,1.217l-3.949,9.064l1.004,1.279L132.51,105.818z"/>
</g>
<path fill="none" d="M34.823,131.906c0,0,54.999,40.699,103.126-20.579"/>
<g enable-background="new    ">
	<path fill="#FF0000" d="M40.538,135.441l-0.62-0.349l1.878-3.339c-0.217,0.036-0.481,0.046-0.79,0.03
		c-0.311-0.016-0.579-0.048-0.807-0.097l0.285-0.507c0.425,0.058,0.821,0.062,1.191,0.012c0.37-0.051,0.661-0.137,0.873-0.261
		l0.399,0.225L40.538,135.441z"/>
</g>
<g enable-background="new    ">
	<path fill="#FF0000" d="M47.468,138.818l-0.651-0.287l1.548-3.505c-0.213,0.057-0.475,0.093-0.784,0.106
		c-0.311,0.014-0.581,0.008-0.812-0.019l0.234-0.532c0.428,0.017,0.824-0.018,1.188-0.104s0.645-0.2,0.843-0.344l0.42,0.186
		L47.468,138.818z"/>
</g>
<g enable-background="new    ">
	<path fill="#FF0000" d="M52.904,138.393c0.183-0.549,0.396-0.97,0.643-1.259c0.244-0.291,0.53-0.482,0.855-0.576
		c0.324-0.094,0.686-0.074,1.086,0.059c0.295,0.099,0.537,0.234,0.728,0.409c0.188,0.175,0.323,0.381,0.406,0.618
		c0.082,0.237,0.119,0.506,0.11,0.805c-0.006,0.299-0.088,0.679-0.241,1.139c-0.182,0.546-0.394,0.964-0.639,1.254
		c-0.244,0.29-0.528,0.483-0.852,0.578c-0.325,0.095-0.689,0.075-1.092-0.059c-0.53-0.177-0.894-0.477-1.088-0.898
		C52.584,139.955,52.613,139.266,52.904,138.393z M53.598,138.624c-0.254,0.763-0.317,1.306-0.19,1.628
		c0.126,0.323,0.345,0.536,0.656,0.64s0.613,0.062,0.909-0.12c0.296-0.183,0.57-0.655,0.824-1.416
		c0.254-0.764,0.318-1.308,0.19-1.629c-0.128-0.322-0.349-0.535-0.665-0.641c-0.311-0.104-0.594-0.075-0.854,0.085
		C54.142,137.377,53.852,137.861,53.598,138.624z"/>
</g>
<g enable-background="new    ">
	<path fill="#FF0000" d="M60.047,140.588c0.128-0.564,0.3-1.004,0.516-1.316c0.215-0.312,0.48-0.532,0.794-0.657
		s0.676-0.142,1.087-0.048c0.304,0.068,0.559,0.18,0.765,0.336c0.205,0.154,0.36,0.346,0.466,0.574s0.169,0.492,0.19,0.79
		s-0.021,0.684-0.129,1.157c-0.127,0.56-0.298,0.997-0.512,1.311c-0.215,0.312-0.478,0.533-0.792,0.659
		c-0.313,0.126-0.678,0.143-1.093,0.049c-0.544-0.124-0.936-0.386-1.171-0.786C59.884,142.174,59.844,141.484,60.047,140.588z
		 M60.762,140.75c-0.178,0.784-0.188,1.33-0.029,1.639c0.159,0.309,0.397,0.499,0.716,0.571c0.319,0.072,0.617,0.003,0.894-0.208
		s0.503-0.709,0.68-1.49c0.179-0.786,0.188-1.332,0.029-1.641c-0.158-0.308-0.4-0.498-0.724-0.571
		c-0.319-0.072-0.601-0.017-0.843,0.169C61.181,139.455,60.939,139.966,60.762,140.75z"/>
</g>
<g enable-background="new    ">
	<path fill="#FF0000" d="M67.386,142.058c0.068-0.575,0.191-1.03,0.374-1.364c0.181-0.334,0.421-0.58,0.72-0.736
		c0.299-0.158,0.658-0.213,1.077-0.164c0.309,0.037,0.574,0.121,0.794,0.254c0.221,0.133,0.396,0.307,0.525,0.521
		c0.128,0.217,0.219,0.472,0.271,0.766c0.054,0.295,0.052,0.683-0.005,1.165c-0.067,0.57-0.19,1.022-0.37,1.356
		c-0.18,0.334-0.42,0.58-0.719,0.74c-0.299,0.158-0.658,0.213-1.08,0.164c-0.555-0.066-0.972-0.285-1.25-0.658
		C67.392,143.651,67.279,142.971,67.386,142.058z M68.113,142.143c-0.094,0.799-0.046,1.342,0.145,1.633
		c0.191,0.29,0.448,0.455,0.773,0.493c0.324,0.038,0.612-0.063,0.865-0.302c0.253-0.239,0.427-0.758,0.52-1.553
		c0.094-0.801,0.046-1.346-0.145-1.635s-0.451-0.453-0.78-0.492c-0.325-0.038-0.598,0.047-0.819,0.257
		C68.394,140.812,68.207,141.345,68.113,142.143z"/>
</g>
<g enable-background="new    ">
	<path fill="#FF0000" d="M74.858,142.729c0.002-0.579,0.075-1.045,0.217-1.397s0.353-0.623,0.632-0.813
		c0.278-0.19,0.629-0.285,1.051-0.283c0.311,0.001,0.584,0.056,0.818,0.162c0.234,0.106,0.428,0.26,0.58,0.46
		c0.151,0.2,0.271,0.443,0.356,0.729c0.086,0.287,0.128,0.673,0.126,1.158c-0.002,0.574-0.074,1.038-0.215,1.39
		c-0.142,0.353-0.352,0.624-0.631,0.815c-0.279,0.192-0.63,0.287-1.055,0.285c-0.559-0.003-0.997-0.173-1.314-0.514
		C75.042,144.313,74.854,143.648,74.858,142.729z M75.589,142.732c-0.003,0.804,0.106,1.339,0.328,1.605
		c0.222,0.268,0.497,0.401,0.823,0.403c0.327,0.001,0.603-0.132,0.826-0.397c0.224-0.267,0.338-0.801,0.341-1.602
		c0.003-0.807-0.106-1.343-0.328-1.608c-0.221-0.266-0.498-0.399-0.831-0.4c-0.327-0.002-0.588,0.114-0.785,0.348
		C75.718,141.378,75.593,141.929,75.589,142.732z"/>
</g>
<g enable-background="new    ">
	<path fill="#FF0000" d="M82.352,142.546c-0.066-0.575-0.049-1.046,0.051-1.411c0.1-0.368,0.277-0.662,0.531-0.884
		c0.254-0.224,0.592-0.357,1.011-0.405c0.31-0.036,0.587-0.014,0.831,0.064c0.246,0.078,0.455,0.207,0.63,0.388
		c0.175,0.183,0.321,0.409,0.44,0.683c0.119,0.274,0.207,0.653,0.262,1.135c0.066,0.571,0.049,1.039-0.049,1.406
		c-0.1,0.367-0.275,0.661-0.529,0.885c-0.255,0.223-0.594,0.359-1.016,0.408c-0.555,0.063-1.01-0.056-1.365-0.355
		C82.722,144.098,82.456,143.46,82.352,142.546z M83.078,142.463c0.092,0.799,0.264,1.316,0.516,1.557
		c0.252,0.238,0.539,0.34,0.864,0.303s0.583-0.201,0.773-0.492s0.24-0.834,0.149-1.631c-0.092-0.801-0.264-1.32-0.516-1.559
		c-0.252-0.236-0.542-0.338-0.872-0.299c-0.325,0.037-0.57,0.183-0.738,0.437C83.046,141.104,82.986,141.664,83.078,142.463z"/>
</g>
<g enable-background="new    ">
	<path fill="#FF0000" d="M89.773,141.474c-0.134-0.562-0.174-1.032-0.119-1.407c0.056-0.377,0.196-0.69,0.423-0.941
		c0.226-0.25,0.544-0.425,0.954-0.523c0.303-0.072,0.58-0.084,0.833-0.035s0.478,0.152,0.672,0.31
		c0.195,0.159,0.368,0.366,0.52,0.625c0.151,0.258,0.282,0.623,0.396,1.095c0.134,0.56,0.173,1.025,0.12,1.401
		c-0.055,0.376-0.194,0.689-0.42,0.942c-0.226,0.252-0.545,0.427-0.958,0.525c-0.544,0.13-1.011,0.067-1.399-0.187
		C90.327,142.97,89.987,142.369,89.773,141.474z M90.485,141.304c0.187,0.782,0.42,1.277,0.698,1.483
		c0.278,0.207,0.576,0.272,0.895,0.196c0.318-0.075,0.555-0.269,0.709-0.581c0.154-0.312,0.139-0.856-0.048-1.637
		c-0.187-0.783-0.42-1.278-0.698-1.485c-0.278-0.205-0.578-0.27-0.901-0.192c-0.318,0.076-0.545,0.25-0.681,0.523
		C90.29,139.958,90.299,140.522,90.485,141.304z"/>
</g>
<g enable-background="new    ">
	<path fill="#FF0000" d="M96.428,137.773l-0.199-0.541l3.521-1.298l0.161,0.438c-0.231,0.439-0.422,0.979-0.572,1.621
		c-0.15,0.641-0.217,1.269-0.202,1.882c0.008,0.433,0.078,0.886,0.21,1.356l-0.688,0.254c-0.126-0.364-0.202-0.832-0.229-1.403
		c-0.028-0.571,0.021-1.149,0.146-1.735s0.298-1.104,0.516-1.555L96.428,137.773z"/>
</g>
<g enable-background="new    ">
	<path fill="#FF0000" d="M104.644,137.83l0.588-0.354c0.173,0.216,0.361,0.343,0.562,0.378c0.201,0.037,0.416-0.003,0.645-0.117
		c0.196-0.099,0.348-0.223,0.457-0.372c0.11-0.149,0.18-0.311,0.21-0.485c0.031-0.174,0.024-0.383-0.02-0.63
		c-0.044-0.248-0.122-0.481-0.234-0.705c-0.012-0.023-0.031-0.058-0.058-0.105c-0.041,0.235-0.146,0.462-0.312,0.679
		c-0.168,0.217-0.379,0.389-0.636,0.518c-0.429,0.216-0.858,0.268-1.287,0.154c-0.429-0.114-0.751-0.387-0.967-0.815
		c-0.223-0.444-0.247-0.88-0.073-1.306c0.175-0.426,0.495-0.756,0.961-0.99c0.337-0.168,0.684-0.247,1.04-0.234
		c0.356,0.014,0.678,0.125,0.965,0.336c0.288,0.211,0.565,0.584,0.836,1.123c0.28,0.559,0.432,1.039,0.455,1.443
		c0.022,0.404-0.065,0.763-0.262,1.078c-0.197,0.315-0.486,0.568-0.868,0.76c-0.405,0.204-0.784,0.276-1.137,0.215
		S104.868,138.148,104.644,137.83z M106.278,134.591c-0.154-0.309-0.374-0.505-0.659-0.588c-0.286-0.084-0.565-0.057-0.839,0.081
		c-0.282,0.142-0.479,0.363-0.591,0.664c-0.112,0.299-0.09,0.604,0.065,0.915c0.14,0.278,0.354,0.455,0.64,0.528
		c0.287,0.075,0.576,0.038,0.868-0.108c0.294-0.148,0.493-0.355,0.595-0.626C106.46,135.188,106.434,134.898,106.278,134.591z"/>
</g>
<g enable-background="new    ">
	<path fill="#FF0000" d="M114.127,133.793l-0.6,0.383l-2.063-3.228c-0.069,0.21-0.185,0.446-0.345,0.712
		c-0.16,0.268-0.314,0.488-0.465,0.666l-0.312-0.49c0.25-0.348,0.44-0.696,0.57-1.047c0.13-0.349,0.189-0.646,0.181-0.891
		l0.387-0.248L114.127,133.793z"/>
</g>
<g enable-background="new    ">
	<path fill="#FF0000" d="M118.9,125.74l-0.529,0.473c-0.195-0.148-0.371-0.229-0.529-0.24c-0.257-0.017-0.496,0.061-0.719,0.234
		c-0.18,0.139-0.303,0.305-0.373,0.494c-0.092,0.247-0.107,0.514-0.047,0.803c0.062,0.288,0.24,0.627,0.538,1.018
		c-0.001-0.281,0.063-0.539,0.193-0.775s0.302-0.438,0.517-0.604c0.375-0.292,0.783-0.424,1.229-0.396
		c0.443,0.027,0.81,0.226,1.098,0.595c0.188,0.242,0.303,0.516,0.34,0.819c0.039,0.306-0.007,0.597-0.137,0.876
		c-0.13,0.28-0.332,0.525-0.607,0.74c-0.468,0.365-0.962,0.517-1.484,0.457c-0.521-0.061-1.043-0.426-1.562-1.093
		c-0.582-0.746-0.842-1.415-0.779-2.009c0.055-0.518,0.324-0.965,0.807-1.34c0.359-0.281,0.721-0.425,1.084-0.434
		C118.3,125.348,118.62,125.477,118.9,125.74z M117.904,129.193c0.128,0.162,0.291,0.287,0.489,0.371
		c0.198,0.086,0.401,0.11,0.61,0.074c0.209-0.037,0.395-0.119,0.557-0.246c0.236-0.185,0.379-0.424,0.422-0.719
		c0.045-0.295-0.041-0.581-0.257-0.857c-0.208-0.268-0.456-0.412-0.744-0.434c-0.289-0.023-0.562,0.064-0.817,0.264
		c-0.254,0.199-0.408,0.443-0.465,0.735C117.642,128.674,117.711,128.943,117.904,129.193z"/>
</g>
<g enable-background="new    ">
	<path fill="#FF0000" d="M125.877,124.545l-0.795-0.862l-1.85,1.705l-0.373-0.405l-0.205-4.127l0.428-0.394l2.15,2.333l0.576-0.531
		l0.373,0.406l-0.576,0.53l0.795,0.862L125.877,124.545z M124.709,123.277l-1.496-1.623l0.161,2.854L124.709,123.277z"/>
</g>
</svg>
