<?xml version="1.0" encoding="utf-8"?>
<!-- Generator: Adobe Illustrator 14.0.0, SVG Export Plug-In . SVG Version: 6.00 Build 43363)  -->
<!DOCTYPE svg PUBLIC "-//W3C//DTD SVG 1.1//EN" "http://www.w3.org/Graphics/SVG/1.1/DTD/svg11.dtd">
<svg version="1.1" id="图层_1" xmlns="http://www.w3.org/2000/svg" xmlns:xlink="http://www.w3.org/1999/xlink" x="0px" y="0px"
	 width="154px" height="154px" viewBox="0 0 154 154" enable-background="new 0 0 154 154" xml:space="preserve">
<circle fill="none" stroke="#FF0000" stroke-width="3.5" cx="76.993" cy="77.764" r="74.25"/>
<g>
	<path fill="#FF0000" d="M38.045,103.683l-15.521,8.548l-0.792-1.438l7.186-3.957l-5.959-0.277l0.147-0.924l6.89,0.607l6.898-3.799
		c0.239-0.132,0.278-0.402,0.115-0.813l-0.633-1.149c-0.159-0.288-0.407-0.399-0.748-0.338l-3.773,1.142l-0.198-0.359l2.706-1.209
		l-0.238-0.432l1.365-0.751c0.867-0.353,1.522-0.183,1.966,0.509l1.346,2.443C39.207,102.449,38.954,103.182,38.045,103.683z
		 M29.246,113.211l-4.743,2.612l-0.791-1.438l17.173-9.458l0.792,1.438l-4.384,2.414c2.226-0.04,4.032,0.463,5.421,1.51
		c-0.937,0.454-1.6,1.006-1.99,1.657c-0.906-1.873-2.29-2.797-4.148-2.771l-6.611,3.641l1.82,3.306l-0.718,0.396L29.246,113.211z"/>
</g>
<g>
	<path fill="#FF0000" d="M18.462,98.771l-0.813,0.107l-0.898-6.832c-0.445,0.39-1.29,0.887-2.534,1.492l-0.092-0.07
		c0.301-0.647,0.635-1.462,1.002-2.449c0.633,0.193,1.153,0.373,1.56,0.539l-0.834-6.344l0.813-0.107L18.462,98.771z M32.391,90.817
		l-7.238,0.952l0.278,2.114l0.976-0.129l0.214,1.627l-6.669,0.878l-0.214-1.627l0.651-0.086l-0.771-5.855l-0.813,0.106l-0.214-1.627
		l6.669-0.877l0.214,1.627l-0.813,0.107l0.278,2.114l7.319-0.963c0.8-0.216,1.462,0.416,1.986,1.89
		c-0.265,0.09-0.313,0.345-0.147,0.765l0.372,0.943l-0.314,0.125c-0.461-0.987-0.787-1.58-0.978-1.775
		C32.979,90.878,32.716,90.774,32.391,90.817z M20.431,88.584l0.771,5.855l3.416-0.449l-0.771-5.855L20.431,88.584z M25.885,88.528
		l-0.021-0.163c2.536-1.271,3.814-2.872,3.836-4.806c0.776,0.449,1.546,0.431,2.309-0.056l0.092,0.07
		C31.756,85.991,29.686,87.644,25.885,88.528z M27.229,94.971l-0.235-1.789c2.055-0.324,4.359,0.641,6.917,2.896l0.086,0.651
		C32.297,95.131,30.041,94.547,27.229,94.971z"/>
</g>
<g>
	<path fill="#FF0000" d="M19.894,69.12l-6.63-0.436l0.113-1.719l5.238,0.345c-1.001-1.435-2.27-2.15-3.806-2.141l0.141-2.129
		c1.474,0.097,3.077,1.546,4.812,4.345l2.128,0.14c0.539,0.145,0.775-0.114,0.709-0.776l0.086-1.31
		c0.164-0.811-0.11-1.24-0.819-1.287l-2.517-0.494l0.017-0.246l2.461,0.08l0.032-0.49c2.016,0.187,2.848,0.873,2.495,2.054
		l-0.227,3.438c-0.018,0.273-0.083,0.46-0.201,0.563l2.292,0.15l0.409-6.222l0.818,0.054l-0.409,6.222l6.467,0.426l-0.112,1.719
		l-6.467-0.426l-0.415,6.303l-0.818-0.054l0.415-6.303l-2.456-0.161l0.103-1.556c-0.116,0.103-0.283,0.146-0.502,0.131l-2.456-0.162
		c0.548,0.858,0.985,1.709,1.312,2.552l-0.054,0.819l2.129,0.14l-0.113,1.719l-5.729-0.377c0.626,0.48,1.35,1.157,2.168,2.034
		c0.156,0.12,0.261,0.209,0.312,0.267l-0.038,0.573c-1.839-2.04-4.387-3.303-7.643-3.792l0.129-1.965
		c1.187,0.298,2.464,0.875,3.832,1.732l0.043-0.654l4.748,0.312C21.618,71.645,20.954,70.505,19.894,69.12z"/>
</g>
<g>
	<path fill="#FF0000" d="M36.416,35.328l1.473-1.307l-3.811-4.296l1.289-1.143l3.811,4.296l1.779-1.579l-3.811-4.296l1.289-1.143
		l3.811,4.296l1.902-1.688l0.652,0.736l-1.902,1.688l5.988,6.75l-1.289,1.143l-0.762-0.859l-1.779,1.579l0.762,0.859l-1.289,1.143
		l-5.987-6.75l-1.473,1.307l7.675,8.652l6.751-5.988l0.653,0.736l-6.75,5.988l0.652,0.737l-1.288,1.143l-8.981-10.125l-1.658,1.47
		l-0.652-0.736l1.656-1.47l-3.156-3.56l1.288-1.143L36.416,35.328z M41.61,32.036l-1.78,1.579l4.573,5.155l1.78-1.579L41.61,32.036z
		"/>
</g>
<g>
	<path fill="#FF0000" d="M49.428,18.168l0.049-0.105c1.494,0.73,2.597,1.343,3.305,1.838c0.067,0.5-0.015,1.143-0.248,1.929
		C51.52,20.98,50.483,19.76,49.428,18.168z M52.838,24.777l-2,0.741l-0.285-0.77l2-0.74l-0.284-0.77l1.385-0.513l3.59,9.692
		c0.449,1.059,1.232,1.438,2.348,1.143l5.847-2.166c0.646-0.298,1.396-0.635,2.25-1.009c-0.336,0.825-0.179,1.407,0.474,1.749
		l-7.692,2.85c-1.282,0.475-2.441-0.292-3.477-2.299c0.095,1.83-0.49,3.243-1.754,4.236c-0.139-0.998-0.474-1.749-1.01-2.251
		l1.231-0.455c0.512-0.19,0.684-0.516,0.513-0.978L52.838,24.777z M60,15.302l-6.77,2.507l-0.285-0.769l6.924-2.564
		c0.308-0.114,0.559-0.382,0.752-0.804l0.655,1.77c-0.173,0.006-0.384,0.142-0.635,0.41l-1.815,2.422
		c-0.051,0.019,0.02,0.052,0.211,0.097c0.16,0.115,0.23,0.148,0.211,0.097c0.089,0.085,0.039,0.423-0.147,1.018l1.692-0.627
		l-0.229-0.616l1.385-0.513l4.018,10.846c0.267,0.72-0.109,1.44-1.123,2.166c-0.037-0.103-0.159-0.115-0.364-0.04l-0.74,0.362
		l-0.134-0.126c0.911-0.688,1.227-1.329,0.948-1.926l-1.083-2.923l-1.615,0.598l1.539,4.154l-1.385,0.513l-1.539-4.153l-1.615,0.598
		l1.652,4.462l-1.384,0.514l-4.56-12.309l1.385-0.513l0.228,0.615l2.154-0.798c-0.633-0.29-1.503-0.987-2.612-2.094l0.048-0.105
		c0.902,0.075,1.72,0.238,2.456,0.49L60,15.302z M58.989,23.199l-0.911-2.462l-1.616,0.599l0.912,2.461L58.989,23.199z
		 M59.274,23.969l-1.616,0.598l0.912,2.462l1.616-0.599L59.274,23.969z M60.374,22.686l1.615-0.598l-0.911-2.462l-1.616,0.599
		L60.374,22.686z M63.187,25.318l-0.912-2.461l-1.616,0.598l0.912,2.462L63.187,25.318z"/>
</g>
<g>
	<path fill="#FF0000" d="M93.548,18.946l4.716-2.371l0.051,0.104l-4.31,3.465l0.248,1.3c-0.104,0.137-0.419,0.376-0.94,0.718
		l1.397,0.479c3.118-0.665,5.083-2.015,5.897-4.048l1.707,0.586c-0.036,0.104-0.115,0.25-0.237,0.438
		c-0.141,0.241-0.194,0.397-0.16,0.466c0.241,2.164,1.325,3.634,3.257,4.411c-0.748,0.496-1.187,1.098-1.313,1.805
		c-0.567-0.368-1.049-0.821-1.441-1.361l-1.916,5.587c-0.23,0.673-0.979,1.169-2.243,1.486c-0.382,0.1-0.642,0.185-0.78,0.252
		c0.58,0.836,1.655,1.578,3.223,2.232c-0.851,0.459-1.245,1.104-1.184,1.936c-0.018,0.051-0.063,0.094-0.131,0.129l-0.155-0.053
		c-2.046-1.455-3.108-3.495-3.189-6.125c-1.029,0.979-2.852,1.74-5.468,2.288c-0.554,0.099-1.066,0.241-1.534,0.428l-0.931-0.319
		c2.685-0.583,4.411-1.146,5.176-1.693c1.027-0.804,1.852-2.11,2.473-3.922l0.586-1.707l1.707,0.586
		c-0.549,1.258-1.095,2.516-1.641,3.773c0.015,0.121,0.049,0.276,0.1,0.468c0.183,0.814,0.438,1.336,0.765,1.563
		c0.851-0.458,1.41-1.077,1.676-1.853l1.384-4.035l-5.897-2.023l-2.129,6.208l-1.552-0.532l2.555-7.449
		c-0.434,0.256-0.694,0.341-0.78,0.253c-0.134-0.622-0.108-2.466,0.074-5.524l0.181-0.024c0.1,0.38,0.277,0.962,0.53,1.742
		C93.437,18.764,93.514,18.877,93.548,18.946z M100.868,24.405l1.552,0.532c-0.667-0.922-0.939-2.403-0.817-4.442
		c-1.672,1.334-3.737,2.131-6.194,2.385l-0.544-0.186l-0.159,0.465l5.897,2.022L100.868,24.405z M94.916,13.692l0.104-0.051
		c0.87,1.339,1.339,2.165,1.405,2.477c-0.317,0.585-0.7,1.031-1.152,1.339C95.066,17.212,94.949,15.958,94.916,13.692z
		 M97.175,19.497l-0.62-0.213c1.582-1.075,2.631-2.45,3.148-4.123l1.861,0.639c-0.264,0.429-0.525,0.859-0.789,1.289l3.88,1.331
		l0.267-0.776l1.552,0.532l-0.904,2.639c-0.43-0.436-1.054-0.303-1.872,0.398l-0.026,0.078l0.719-2.096l-4.19-1.437
		C98.634,18.783,97.625,19.362,97.175,19.497z"/>
</g>
<g>
	<path fill="#FF0000" d="M73.437,22.488l-0.003-4.922l-2.133,0.001l-0.001-0.82l2.133-0.001l-0.003-4.43l1.641-0.001l0.003,4.43
		l1.805-0.001l0.001,0.82l-1.805,0.001l0.003,4.348c0.71-0.438,1.339-0.903,1.886-1.396l0.082,0.082
		c-0.382,0.931-1.038,1.778-1.967,2.544l0.005,7.137c0,0.874-0.71,1.586-2.132,2.134c0-0.219-0.164-0.274-0.492-0.164l-0.82,0.165
		l-0.164-0.246c1.477-0.44,2.132-1.041,1.968-1.806l-0.005-6.316c-0.71,0.384-1.422,0.686-2.132,0.904
		c0.218-0.71,0.217-1.422-0.001-2.133C71.961,22.872,72.671,22.763,73.437,22.488z M77.21,22.157v-0.82l4.594-0.003l-0.001-0.656
		l1.641-0.001l0.002,3.281c0.11,1.148-0.463,2.461-1.72,3.938c1.039,0.93,2.27,1.53,3.692,1.802
		c-0.382,0.71-0.437,1.559-0.162,2.543c-1.531-0.438-3.118-1.502-4.76-3.196c-0.438,0.492-1.75,1.531-3.936,3.12
		c-0.11,0.054-0.192,0.136-0.246,0.247l-0.738,0c1.64-1.424,3.087-2.792,4.345-4.104c-1.26-1.64-1.889-3.69-1.891-6.151
		L77.21,22.157z M77.698,16.497l-0.003-4.184l1.641-0.001l0.001,0.984l2.297-0.001l-0.001-0.984l1.641-0.001l0.004,5.414
		c-0.11,0.547,0.083,0.767,0.574,0.656l1.23-0.001l0.002,1.641l-2.133,0.001c-0.984,0.111-1.424-0.491-1.314-1.804l-0.003-4.102
		l-2.297,0.001l0.002,1.805c0.001,1.368-0.736,2.736-2.212,4.104l-0.738,0C77.317,19.04,77.753,17.864,77.698,16.497z
		 M81.805,23.958l-0.001-1.805l-3.445,0.002c0.22,2.024,1.041,3.719,2.465,5.084C81.479,26.255,81.806,25.162,81.805,23.958z"/>
</g>
<g>
	<path fill="#FF0000" d="M124.998,49.541l9.461-5.598l0.835,1.412l-0.636,0.376l2.339,3.954l0.636-0.377l0.836,1.412l-9.603,5.682
		l-0.835-1.412l1.059-0.627l-0.752-1.271l-2.965,1.755l1.504,2.542l-0.777,0.459l-1.504-2.541l-3.459,2.046l1.838,3.106
		l-0.777,0.459l-4.845-8.189l0.776-0.459l2.172,3.671l3.46-2.046l-1.587-2.684c-1.727-0.123-3.685-1.125-5.877-3.004
		c0.611-0.362,1.12-0.791,1.528-1.285c0.146,0.355,0.328,0.662,0.543,0.918c0.213,0.254,0.493,0.565,0.838,0.934l6.143-3.635
		l-0.835-1.412l0.775-0.459l0.836,1.412l4.942-2.924l-0.919-1.553l0.776-0.46l2.59,4.377l-0.776,0.46l-0.919-1.554l-4.942,2.924
		l0.836,1.412l-0.777,0.46l-0.835-1.412l-5.86,3.467c0.625,0.52,1.289,0.89,1.991,1.109l0.636-0.375l1.67,2.823l2.965-1.755
		l-0.751-1.27l-0.918,0.543L124.998,49.541z M127.527,49.95l0.752,1.271l2.754-1.629l-0.752-1.271L127.527,49.95z M129.115,52.633
		l0.752,1.271l2.753-1.629l-0.752-1.271L129.115,52.633z M131.809,49.133l2.824-1.672l-0.751-1.27l-2.824,1.67L131.809,49.133z
		 M132.645,50.545l0.752,1.271l2.824-1.671l-0.752-1.271L132.645,50.545z"/>
</g>
<g>
	<path fill="#FF0000" d="M134.314,89.8l-0.038,0.159c-3.797-0.346-7.172,0.365-10.126,2.134c-0.351-0.646-0.966-1.13-1.845-1.452
		c-0.199-0.104-0.294-0.185-0.281-0.236c-0.04-0.066,0.031-0.134,0.217-0.201c1.255-0.543,2.465-0.9,3.63-1.072
		c-1.139-2.521-1.556-5.602-1.249-9.238c0.854,0.428,1.65,0.506,2.39,0.232c-0.18,0.519-0.334,1.045-0.461,1.577
		c2.252,2.338,5.707,4.231,10.365,5.684l-0.496,2.074c-4.072-1.312-7.396-3.765-9.964-7.358c-0.649,2.712-0.726,5.026-0.228,6.945
		C128.334,88.707,131.028,88.958,134.314,89.8z M142.471,91.666l-0.038,0.16c-4.074-0.131-7.225,1.055-9.454,3.559
		c-0.417-0.606-1.077-0.904-1.979-0.895l-0.398-0.096c-0.054-0.013-0.003-0.113,0.155-0.301
		C133.318,91.613,137.223,90.803,142.471,91.666z M142.479,86.691l-0.496,2.074c-2.462-0.758-5.133-3.223-8.015-7.398l0.096-0.398
		C136.026,83.574,138.832,85.482,142.479,86.691z"/>
</g>
<g>
	<path fill="#FF0000" d="M117.219,106.135l14.063,7.796l5.091-9.184l0.789,0.438l-5.091,9.184l0.717,0.397l-0.836,1.507
		l-15.424-8.552c-1.174-0.59-1.443-1.738-0.809-3.449c0.145,0.08,0.282,0,0.414-0.239l0.334-0.94l0.256,0.047
		C116.209,104.855,116.375,105.854,117.219,106.135z M123.986,100.694l-1.363-0.755l0.836-1.508l7.461,4.137l-0.835,1.508
		l-0.79-0.438l-1.75,3.156l0.79,0.438l-0.835,1.506l-7.246-4.017l0.835-1.507l1.147,0.637L123.986,100.694z M123.025,104.289
		l3.73,2.068l1.75-3.157l-3.73-2.067L123.025,104.289z M128.458,111.24l5.091-9.184l0.789,0.438l-5.091,9.184L128.458,111.24z"/>
</g>
<polygon fill="#FF0000" points="93.811,99.603 78.546,88.141 63.653,99.034 68.659,81.737 55.184,70.474 72.409,70.224 
	78.546,53.449 84.492,70.224 101.908,70.392 88.325,81.308 "/>
<g>
	<path fill="#FF0000" d="M43.425,120.23l-0.598,0.332c0.531,0.93,1.383,1.893,2.557,2.889c1.172,0.996,2.778,1.738,4.814,2.225
		v0.199c-0.664,0.133-1.129,0.443-1.395,0.93c-1.949-1.063-3.398-2.136-4.35-3.221c-0.953-1.084-1.583-1.98-1.893-2.689
		c-1.195,1.815-2.402,3.188-3.619,4.117c-1.218,0.93-2.623,1.683-4.217,2.258l-0.066-0.266c1.727-0.885,3.198-1.926,4.416-3.121
		c1.217-1.195,2.202-2.723,2.955-4.582L43.425,120.23z M37.98,126.008h6.641l0.863-0.863l1.262,1.262h-6.707
		c-0.488,0-0.974,0.066-1.461,0.199L37.98,126.008z M46.48,129.527c0,1.992,0.022,3.498,0.066,4.516l-0.996,0.398v-1.129h-6.375
		v0.863l-0.996,0.398c0.043-1.107,0.066-2.169,0.066-3.188c0-1.018-0.023-2.059-0.066-3.121l0.996,0.531h6.242l0.664-0.664
		l0.93,0.93L46.48,129.527z M39.175,129.195v3.719h6.375v-3.719H39.175z"/>
	<path fill="#FF0000" d="M62.699,132.848c0.93,0.133,1.649,0.211,2.158,0.232c0.508,0.022,0.764-0.299,0.764-0.963v-11.289H54.996
		v13.48l-1.063,0.398c0.088-1.461,0.133-2.634,0.133-3.52v-8.367c0-0.974-0.023-1.992-0.066-3.055l0.996,0.664h10.559l0.465-0.664
		l1.063,0.863l-0.531,0.398v11.488c0.043,1.063-0.488,1.793-1.594,2.191c0-0.576-0.753-1.085-2.258-1.527V132.848z M55.992,123.285
		h6.441l0.863-0.863l1.262,1.262h-6.641c-0.488,0-0.93,0.066-1.328,0.199L55.992,123.285z M57.254,125.344l0.93,0.531h3.984
		l0.465-0.664l0.996,0.797l-0.531,0.465v2.457c0,0.576,0.022,1.151,0.066,1.727l-0.93,0.332v-1.129h-4.051v0.996l-0.93,0.332
		c0.043-0.752,0.066-1.671,0.066-2.756C57.32,127.348,57.297,126.318,57.254,125.344z M58.184,126.273v3.188h4.051v-3.188H58.184z"
		/>
	<path fill="#FF0000" d="M75.597,125.543c0.177-0.752,0.354-1.704,0.531-2.855h-2.258c-0.575,0-1.106,0.066-1.594,0.199
		l-0.598-0.598h4.516c0.133-0.841,0.266-1.859,0.398-3.055l1.395,0.797l-0.465,0.332c-0.133,0.62-0.243,1.262-0.332,1.926h3.918
		l1.063-0.863l1.129,1.262h-6.176c-0.177,1.019-0.354,1.971-0.531,2.855h6.442l1.063-0.93l1.262,1.328h-8.833
		c-0.222,1.019-0.442,1.859-0.664,2.523h5.512l0.598-0.664l1.262,1.262c-0.576,0.133-1.174,0.487-1.793,1.063
		c-0.621,0.576-1.395,1.351-2.324,2.324c0.973,0.398,1.494,0.797,1.561,1.195s0.043,0.73-0.066,0.996
		c-0.111,0.266-0.355,0.199-0.73-0.199c-0.377-0.398-0.963-0.863-1.76-1.395c-0.797-0.531-1.882-1.129-3.254-1.793l0.066-0.266
		c1.505,0.443,2.767,0.886,3.786,1.328c0.664-0.797,1.549-1.947,2.656-3.453h-5.579l-0.465,0.531l-0.863-0.863
		c0.222-0.177,0.388-0.365,0.498-0.564s0.299-0.874,0.564-2.025h-3.32c-0.575,0-1.106,0.066-1.593,0.199l-0.598-0.598H75.597z"/>
	<path fill="#FF0000" d="M97.793,132.914c1.15,0.089,1.881,0.122,2.191,0.1c0.311-0.021,0.465-0.32,0.465-0.896v-3.387H96
		c0,2.834,0.021,4.516,0.066,5.047l-0.996,0.465c0.045-2.523,0.066-4.36,0.066-5.512h-4.383c-0.311,2.347-1.24,4.361-2.789,6.043
		l-0.199-0.133c0.842-1.373,1.416-2.767,1.727-4.184c0.311-1.416,0.465-3.364,0.465-5.844c0-2.479-0.021-4.117-0.066-4.914
		l0.996,0.664h9.496l0.465-0.73l1.063,0.797l-0.531,0.531v11.621c0.045,1.106-0.443,1.814-1.461,2.125
		c-0.088-0.753-0.797-1.24-2.125-1.461V132.914z M90.887,124.813c-0.045,1.859-0.088,3.033-0.133,3.52h4.383v-3.52H90.887z
		 M90.887,120.762v3.652h4.25v-3.652H90.887z M96,120.762v3.652h4.449v-3.652H96z M96,124.813v3.52h4.449v-3.52H96z"/>
	<path fill="#FF0000" d="M112.617,134.973c0.045-1.461,0.066-2.412,0.066-2.855h-4.582c-0.576,0-1.107,0.066-1.594,0.199
		l-0.598-0.598h6.773v-1.793h-3.121v0.398l-0.996,0.332c0.045-0.575,0.066-1.461,0.066-2.656s-0.021-2.125-0.066-2.789l0.996,0.598
		h7.039l0.531-0.664l1.063,0.863l-0.531,0.398c0,1.594,0.021,2.834,0.066,3.719l-0.996,0.398v-0.598h-3.121v1.793h4.582l0.996-0.863
		l1.195,1.262h-6.773c0,1.239,0.021,2.08,0.066,2.523L112.617,134.973z M114.078,124.148c0.443-0.841,0.775-1.682,0.996-2.523
		h-5.246c-0.576,0-1.107,0.066-1.594,0.199l-0.598-0.598h5.047c0-0.619-0.244-1.239-0.73-1.859l0.133-0.133
		c0.752,0.311,1.24,0.609,1.461,0.896c0.221,0.288,0.133,0.653-0.266,1.096h3.32l0.863-0.93l1.195,1.328h-3.32l0.996,0.664
		c-0.398,0.089-1.041,0.709-1.926,1.859h3.719l0.996-0.93l1.195,1.328h-12.152c-0.576,0-1.107,0.066-1.594,0.199l-0.598-0.598
		H114.078z M109.563,126.207v1.527h7.172v-1.527H109.563z M109.563,128.133v1.395h7.172v-1.395H109.563z M110.227,121.625
		c0.709,0.398,1.207,0.753,1.494,1.063c0.287,0.311,0.254,0.687-0.1,1.129c-0.354,0.443-0.598,0.354-0.73-0.266
		c-0.133-0.619-0.398-1.217-0.797-1.793L110.227,121.625z"/>
</g>
<g>
	<path fill="#FF0000" d="M17.827,52.319l0.896-1.375l0.688,0.447l2.416-3.712c-0.729-0.083-1.571-0.24-2.53-0.473l-0.024-0.113
		c0.845-0.493,1.652-0.882,2.422-1.164c0.278,0.377,0.471,0.731,0.58,1.063l2.507-3.85l-0.55-0.358l0.895-1.375l2.75,1.79
		c-0.678,0.342-0.793,0.919-0.345,1.733l-2.063-1.342l-5.37,8.25l1.512,0.984l-0.895,1.375L17.827,52.319z M26.437,44.807
		l0.688,0.447l-4.924,7.563l-0.688-0.447L26.437,44.807z M27.269,54.354l0.55,0.358l-0.896,1.375l-4.124-2.685l0.896-1.375
		l0.688,0.447l3.222-4.95l-0.55-0.358l0.895-1.375l4.125,2.685l-0.895,1.375l-0.688-0.447L27.269,54.354z M29.804,48.957
		l-1.514-0.984l-3.222,4.95l1.513,0.984L29.804,48.957z M26.847,57.407l0.896-1.375l0.412,0.269l4.386-6.737l-0.275-0.179
		l0.896-1.375l6.944,4.521l-0.896,1.375l-1.101-0.716l-4.385,6.737l1.1,0.716l-0.896,1.375L26.847,57.407z M30.542,54.136
		l-1.7,2.612l1.65,1.074l1.7-2.612L30.542,54.136z M31.179,58.27l1.857,1.208l1.699-2.612l-1.855-1.208L31.179,58.27z
		 M34.878,51.085l-1.65-1.074l-1.791,2.75l1.65,1.074L34.878,51.085z M37.421,52.741l-1.855-1.208l-1.791,2.75l1.856,1.208
		L37.421,52.741z"/>
</g>
<g>
	<path fill="#FF0000" d="M105.498,40.118l-1.215-1.102l7.988-8.813l1.215,1.102l-0.551,0.607l4.072,3.691l0.551-0.607l1.216,1.102
		l-3.306,3.646l-1.215-1.102l0.33-0.365l-4.072-3.691l-1.322,1.459l4.559,4.132l0.441-0.486l1.215,1.103l-4.021,4.437l-1.215-1.103
		l0.771-0.851l-4.559-4.132L105.498,40.118z M108.639,36.653l-1.708,1.885l4.559,4.131l1.708-1.883L108.639,36.653z M122.184,27.452
		l1.459,1.322c-0.408,0.369-0.914,0.721-1.518,1.062l3.344,3.03l-0.551,0.607l-3.282-2.975c0.081,0.887,0.142,1.717,0.181,2.488
		c-0.571,0.221-1.167,0.309-1.787,0.262c0.303-0.904,0.799-1.858,1.484-2.86l-0.242-0.22c-0.998,0.202-2.02,0.272-3.068,0.208
		c0.184,0.609,0.268,1.128,0.251,1.556c-0.379,0.174-0.724,0.268-1.032,0.283l3.465,3.14l0.33-0.364l1.217,1.102l-2.149,2.37
		c0.039-0.775-0.458-1.042-1.491-0.798l1.543-1.701l-7.841-7.107l-1.212,1.338l-1.215-1.102l2.094-2.311l1.215,1.102l-0.33,0.365
		l3.768,3.416c0.268-0.865,0.595-1.676,0.984-2.43c-0.005-0.076,0.033-0.08,0.115-0.006c0.057,0.346,0.126,0.595,0.211,0.744
		C119.357,29.837,120.71,28.995,122.184,27.452z M112.385,32.521l-1.322,1.459l4.072,3.691l1.322-1.459L112.385,32.521z
		 M117.807,23.485l1.459,1.322c-0.15,0.084-0.245,0.148-0.281,0.188c-0.449,0.332-0.881,0.605-1.295,0.818l2.431,2.205l-0.551,0.607
		l-2.31-2.094c0.016,1.121,0.017,1.936,0.004,2.439c-0.608,0.262-1.223,0.369-1.844,0.322c0.342-0.945,0.912-1.903,1.719-2.872
		l-0.305-0.275c-0.574,0.145-1.518,0.249-2.83,0.313c-0.428-0.018-0.756-0.021-0.988-0.01l-0.303-0.275
		C114.595,25.888,116.293,24.991,117.807,23.485z"/>
</g>
<g>
	<path fill="#FF0000" d="M124.396,66.652l6.629-0.451l0.122,1.8l-5.483,0.373c-0.381,0.026-0.585,0.259-0.609,0.7l0.193,2.864
		c0.03,0.437,0.266,0.666,0.705,0.691l3.23,0.356l0.018,0.245l-2.947,0.2l0.022,0.328l-1.391,0.095
		c-0.712-0.007-1.12-0.363-1.224-1.068l-0.346-5.074C123.327,67.053,123.688,66.7,124.396,66.652z M126.089,63.741l4.419-0.301
		l0.123,1.801l-2.619,0.179c-1.793,0.231-3.196-0.66-4.211-2.674l0.655-0.045C124.883,63.329,125.427,63.674,126.089,63.741z
		 M131.088,73.185l0.094,0.158c-1.119,1.281-2.191,2.451-3.215,3.507c-0.561-0.18-1.215-0.521-1.961-1.017
		C126.262,75.54,127.954,74.659,131.088,73.185z M132.414,68.491l0.093,0.158c-0.763,0.874-1.659,1.812-2.687,2.813
		c-1.125-0.416-1.773-0.702-1.949-0.854C128.929,70.043,130.443,69.336,132.414,68.491z M139.798,69.469l3.938,2.281l-0.446,0.688
		l-3.43-2.069l0.111,1.638l0.491-0.033l0.122,1.8l-8.021,0.545l-0.122-1.8l1.146-0.078l-0.435-6.384l-1.145,0.078l-0.123-1.801
		l8.021-0.545l0.122,1.801l-0.49,0.033l0.122,1.8c0.983-0.835,2.109-1.623,3.374-2.367l0.088,0.076
		c-0.531,1.077-1.01,2.07-1.442,2.976c-0.495-0.021-1.165-0.195-2.009-0.521L139.798,69.469z M139.152,72.062l-0.434-6.384
		L133.972,66l0.434,6.384L139.152,72.062z"/>
</g>
</svg>
