<?xml version="1.0" encoding="utf-8"?>
<!-- Generator: Adobe Illustrator 14.0.0, SVG Export Plug-In . SVG Version: 6.00 Build 43363)  -->
<!DOCTYPE svg PUBLIC "-//W3C//DTD SVG 1.1//EN" "http://www.w3.org/Graphics/SVG/1.1/DTD/svg11.dtd">
<svg version="1.1" id="图层_1" xmlns="http://www.w3.org/2000/svg" xmlns:xlink="http://www.w3.org/1999/xlink" x="0px" y="0px"
	 width="154px" height="154px" viewBox="0 0 154 154" enable-background="new 0 0 154 154" xml:space="preserve">
<g>
	<circle fill="none" stroke="#FF0000" stroke-width="3.5" stroke-miterlimit="10" cx="77" cy="77" r="74.745"/>
	<polygon fill="#FF0000" points="75.088,54.091 81.297,71.269 98.931,70.357 85.855,81.579 90.736,97.66 76.818,88.828 
		63.109,99.039 67.142,82.491 53.29,73.227 69.886,71.61 	"/>
	<g>
		<path fill="#FF0000" d="M29.703,119.892c7.684-3.985,11.993-6.229,12.927-6.743c0.936-0.512,1.924-1.23,2.964-2.155
			c1.041-0.927,1.758-1.575,2.152-1.948c0.394-0.372,0.677-0.219,0.849,0.458c0.172,0.677-0.457,1.43-1.886,2.259
			c-1.431,0.825-2.185,1.487-2.267,1.987c-0.081,0.5,0.026,1.161,0.32,1.983l-0.353,0.302c-0.589-1.288-1.308-1.802-2.157-1.543
			c-0.848,0.257-4.988,2.165-12.426,5.722L29.703,119.892z M43.001,107.242l-11.995,10.246c-1.588,1.354-2.921,2.531-4.004,3.527
			l0.034-1.747l-4.725-5.531l-1.695,0.16l0.686-2.412l6.37,7.456l14.994-12.808l-4.937-5.779l-1.836,0.173l0.722-2.552l6.58,7.706
			l1.359-0.196l-0.544,1.863L43.001,107.242z M35.114,124.082c-0.18-2.354,0.069-3.819,0.744-4.397
			c0.678-0.577,1.231-0.853,1.659-0.826c0.431,0.028,0.328,0.473-0.307,1.338c-0.636,0.864-1.209,2.126-1.727,3.786L35.114,124.082z
			 M29.466,126.22c-0.167-1.862-0.019-3.117,0.445-3.765c0.465-0.648,1.018-1.014,1.658-1.096c0.643-0.081,0.646,0.31,0.012,1.172
			c-0.636,0.866-1.216,2.061-1.744,3.588L29.466,126.22z"/>
		<path fill="#FF0000" d="M32.402,80.087c0.395-0.945,0.194-1.432-0.601-1.46c-0.793-0.028-2.203,0.029-4.229,0.173l0.047-0.344
			c1.225-0.2,2.456-0.442,3.699-0.731c1.243-0.287,2.124-0.693,2.649-1.22c0.521-0.526,0.765-0.021,0.731,1.518
			c-0.035,1.538-0.811,3.216-2.326,5.035c-1.518,1.819-4.241,3.529-8.172,5.129l1.135,5.439l9.085-1.896l-3.939-4.103l0.421-0.255
			c3.286,2.486,5.467,3.866,6.552,4.141l-1.694,1.523c-0.445-0.241-1.458-0.167-3.038,0.216l-15.782,3.296
			c-1.665,0.348-3.135,0.683-4.411,1.004l0.884-1.436l-2.153-10.321l-1.4-0.459l1.322-1.611l0.831,0.577
			c3.333-0.696,5.257-1.126,5.775-1.289l1.045,1.034l-1.361,0.285l0.9,4.319c1.807-0.431,3.45-0.886,4.93-1.363l-1.152-5.52
			l-1.824-0.789l1.938-2.073l1.701,8.16c2.691-1.119,4.669-2.325,5.939-3.621C31.175,82.151,32.007,81.033,32.402,80.087z
			 M19.659,94.812l4.995-1.042l-1.119-5.361c-1.481,0.477-3.124,0.932-4.931,1.362L19.659,94.812z M14.093,95.974l4.882-1.02
			l-2.188-10.479l-4.882,1.019L14.093,95.974z"/>
		<path fill="#FF0000" d="M18.67,55.34c-3.034-0.916-5.34-1.58-6.909-1.999l1.607-1.308l0.589,0.86l4.997,1.508l0.614-2.033
			l-0.858-0.771l1.688-0.771l0.501,0.748c4.517,1.363,7.336,2.188,8.463,2.47l0.358,1.218l-1.331-0.402l-0.662,2.191l6.997,2.11
			l0.422-2.603c-0.877-0.036-1.986,0.027-3.329,0.19l-0.15-0.301c1.573-0.662,2.845-1.063,3.813-1.197
			c0.971-0.135,1.75,0.088,2.345,0.665c0.592,0.578,0.601,0.821,0.021,0.732c-0.58-0.09-1.271-0.141-2.073-0.157
			c-0.211,2.841-0.249,5.104-0.114,6.796l0.502,0.748l-2.124,0.212c0.087-0.827,0.296-2.186,0.625-4.078l-7.218-2.179l-0.661,2.19
			l1.111,0.334l0.248,1.185c-1.167-0.407-3.065-1.01-5.694-1.805c-2.628-0.792-4.507-1.329-5.633-1.614l1.196-0.75L18.67,55.34z
			 M33.926,73.434c-1.168-0.409-3.529-1.151-7.083-2.224c-3.553-1.073-6.042-1.794-7.464-2.168l1.084-0.781l1.794-5.946
			l-0.968-0.805l1.576-0.804l0.611,0.781l10.104,3.051c1.2,0.307,1.873,1.022,2.018,2.146c-0.831-0.193-1.624,0.166-2.385,1.073
			l-0.442-0.133c0.383-0.739,0.623-1.265,0.718-1.578c0.095-0.312-0.116-0.547-0.636-0.704l-9.884-2.981l-1.842,6.101l12.218,3.688
			L33.926,73.434z M26.333,69.689l0.897-2.973c-1.945-1.042-3.326-1.688-4.141-1.933l1.535-1.073l0.278,0.682
			c0.838,0.709,1.652,1.352,2.446,1.932l0.188-0.625l-0.787-1.004l1.949-0.438l-0.756,2.504c1.999,0.605,3.636,1.07,4.91,1.398
			l0.558,1.362c-1.243-0.431-3.158-1.04-5.752-1.821c-0.188,0.625-0.234,1.182-0.138,1.665L26.333,69.689z M19.62,54.603l7.44,2.246
			l0.66-2.189l-7.44-2.247L19.62,54.603z M18.674,57.731l7.44,2.247l0.661-2.19l-7.439-2.247L18.674,57.731z M22.634,67.891
			l-0.173-0.224c1.139-0.564,1.984-0.821,2.535-0.77c0.55,0.051,0.999,0.301,1.348,0.747c0.352,0.447,0.106,0.587-0.731,0.42
			C24.774,67.896,23.783,67.839,22.634,67.891z M12.761,65.678l1.085-0.782l1.086-3.6l-0.723-0.815l1.663-0.693l0.391,0.716
			c1.629,0.493,2.934,0.858,3.909,1.094l0.359,1.22l-0.999-0.302l-1.134,3.756l0.777,0.233l0.25,1.187
			c-0.874-0.32-1.902-0.661-3.086-1.019C15.155,66.315,13.962,65.985,12.761,65.678z M14.513,65.096l3.219,0.974l1.135-3.756
			l-3.222-0.972L14.513,65.096z M10.401,66.674l2.173-7.197l-1.05-1.342l2.377-0.648l-2.173,7.198
			c-0.124,0.418-0.163,0.947-0.113,1.588L10.401,66.674z"/>
		<path fill="#FF0000" d="M43.974,44.342l-0.327-0.33c1.798-1.126,3.259-1.974,4.383-2.542c1.123-0.568,1.938-0.752,2.449-0.548
			c0.507,0.203,0.982,0.548,1.427,1.035c0.441,0.484,0.167,0.73-0.825,0.734c-0.993,0.003-2.055,0.13-3.188,0.381
			C46.761,43.325,45.455,43.747,43.974,44.342z M39.571,48.374c-1.321-1.411-2.459-2.599-3.411-3.561
			c-0.951-0.96-1.991-1.972-3.118-3.034l1.302-0.31l6.156-6.094l-0.386-1.087l1.828-0.014l0.105,1.038
			c1.851,1.867,3.284,3.277,4.302,4.227l-0.243,1.382l-5.058-5.109l-6.214,6.15l5.06,5.112L39.571,48.374z M38.38,40.085
			l2.514-0.364l-0.011,1.151c1.533,1.858,2.425,3.341,2.68,4.448c0.253,1.109,0.165,2.337-0.261,3.687
			c-0.431,1.349-1.264,2.906-2.5,4.677l-0.304-0.188c0.694-1.234,1.25-2.571,1.662-4.014s0.494-2.637,0.243-3.587
			c-0.249-0.948-0.683-1.853-1.303-2.709C40.485,42.327,39.578,41.295,38.38,40.085z M32.081,30.817l1.954-0.466l-0.08,0.732
			l0.269,0.387c2.98,1.075,5.746,0.734,8.294-1.03l0.246,0.247c-0.589,0.801-0.661,1.58-0.217,2.335
			c-2.939,0.517-5.637,0.193-8.09-0.968c1.681,3.016,1.25,6.219-1.298,9.607l-0.303-0.189c1.261-2.441,1.758-4.514,1.496-6.212
			C34.09,33.562,33.333,32.081,32.081,30.817z M35.872,30.002l-1.274-3.148l-4.296,4.256c0.539,1.862,0.762,3.599,0.672,5.209
			l-0.279-0.05c-0.197-1.436-0.551-2.8-1.061-4.091c-0.511-1.289-1.137-2.544-1.885-3.764l1.919-0.268l-0.139,0.791l0.399,1.563
			l4.123-4.083l-0.434-1.366l2.352,0.283c-0.433,0.649-0.353,2.202,0.241,4.657L35.872,30.002z M27.613,31.647l0.337-0.007
			c0.649,2.515,1.119,4.307,1.412,5.375c0.293,1.071,0.65,1.916,1.069,2.533c0.422,0.619,1.011,1.312,1.773,2.082
			c0.762,0.768,0.763,1.176,0.001,1.22c-0.76,0.047-1.338-0.307-1.735-1.057c-0.396-0.749-0.742-1.33-1.039-1.746
			c-0.296-0.414-1.04-0.411-2.235,0.009l-0.187-0.306c0.689-0.463,1.089-0.775,1.197-0.938c0.108-0.163,0.206-0.449,0.295-0.864
			C28.591,37.534,28.296,35.435,27.613,31.647z M23.138,34.445c1.318-0.759,2.235-1.07,2.756-0.933
			c0.521,0.14,0.966,0.568,1.335,1.291c0.37,0.722,0.116,0.893-0.761,0.507c-0.878-0.379-1.944-0.548-3.201-0.502L23.138,34.445z"/>
		<path fill="#FF0000" d="M60.147,35.691l9.639-2.851l0.636-1.883l2.226,1.762l-9.874,2.92c-0.681,0.201-1.221,0.482-1.626,0.844
			L60.147,35.691z M61.911,32.146c-0.541-2.018-1.43-5.12-2.671-9.312c-1.239-4.188-2.125-7.089-2.661-8.707l1.628,0.607
			l5.015-1.485l0.455-1.343l1.67,1.32l-0.463,0.743l3.325,11.232c0.375,1.263,0.728,2.368,1.066,3.314l-1.024,1.149l-0.558-1.891
			l-5.329,1.577l0.526,1.779L61.911,32.146z M60.255,22.233l1.909,6.452l5.328-1.578l-1.909-6.45L60.255,22.233z M58.247,15.448
			l1.811,6.118l5.329-1.577l-1.811-6.117L58.247,15.448z M55.713,25.03l2.061-2.545l0.288,0.399l-2.018,3.259l2.863,9.676
			c0.438,1.481,0.159,2.654-0.836,3.515c-0.212-0.906-1.146-1.477-2.806-1.71l-0.131-0.445c1.214-0.118,2-0.25,2.355-0.394
			c0.354-0.147,0.352-0.729-0.008-1.752l-2.271-7.674c-1.204,1.89-1.791,3.069-1.763,3.545l-1.69-1.676
			c0.532-0.318,1.551-1.386,3.059-3.204l-1.613-5.449l-2.038,0.603l-0.796,0.477l-0.891-0.705l3.528-1.043
			c-0.703-2.372-1.378-4.554-2.023-6.539l2.277,0.778l-0.476,0.988l1.317,4.448l1.019-0.303l0.501-1.477l1.813,1.52l-3.136,0.927
			L55.713,25.03z"/>
		<path fill="#FF0000" d="M96.121,14.897c-0.808,3.781-1.306,6.244-1.494,7.391l-1.24,0.328l0.243-1.134l-2.719-0.58l-0.871,4.083
			l4.156,0.888l1.25-1.156l1.003,2.348l-5.596-1.193c0.066,1.517,0.393,3.188,0.979,5.013c0.584,1.824,1.524,3.231,2.818,4.218
			l-0.073,0.341c-0.709-0.072-1.324,0.191-1.84,0.793c-0.957-1.785-1.577-3.578-1.862-5.378c-0.284-1.8-0.425-3.49-0.422-5.072
			l-0.558-0.119c-1.259,5.898-2.007,9.534-2.245,10.908l-1.367,0.537c0.455-1.88,1.25-5.465,2.379-10.76
			c-1.336,2.088-2.694,3.813-4.071,5.18c-1.378,1.366-2.847,2.436-4.405,3.213L80.1,34.37c1.553-1.015,3.096-2.5,4.629-4.468
			c1.532-1.966,2.59-3.519,3.169-4.661l-3.757-0.801l-1.087,0.005l-0.447-1.043l6.395,1.365l0.869-4.086l-2.556-0.544l-0.219,1.021
			l-1.319,0.31c0.376-1.499,0.759-3.157,1.145-4.973c0.387-1.814,0.746-3.635,1.082-5.462l1.085,1.181l6.075,1.295l1.04-0.963
			l0.886,1.73L96.121,14.897z M88.864,12.873l-1.403,6.58l6.313,1.348l1.404-6.581L88.864,12.873z M80.68,28.917
			c-0.582,2.723-0.976,4.694-1.18,5.917l-1.369,0.537c0.682-2.938,1.201-5.238,1.557-6.902l2.13-9.982
			c-1.556,1.801-2.874,3.143-3.95,4.019l-0.087-0.374c1.885-2.049,3.555-4.461,5.012-7.233c1.455-2.774,2.392-4.748,2.811-5.924
			l1.388,1.718l-0.784,0.546c-1.472,2.455-2.564,4.315-3.282,5.586l0.655,0.852l-0.626,0.576L80.68,28.917z"/>
		<path fill="#FF0000" d="M105.875,44.724c0.545,0.784,1.002,1.337,1.373,1.66c0.37,0.322,0.782,0.221,1.239-0.305l2.668-3.059
			l-5.667-4.942l-4.346,4.983l-1.609-0.019c0.905-0.958,4.229-4.726,9.972-11.312c-2.675,0.745-5.197,1.111-7.568,1.094l0.045-0.423
			c2.265-0.279,4.419-0.738,6.456-1.373c2.034-0.636,4.358-1.663,6.969-3.08l-3.388-2.953c-0.534-0.466-1.104-0.809-1.707-1.027
			l0.132-1.271l5.543,4.833c1.72-1.061,3.051-2.006,3.987-2.833l0.473,2.568l-0.921-0.188c-1,0.564-1.83,1.019-2.492,1.365
			l5.236,4.567l2.342-0.572l-0.338,3.245l-7.821-6.822c-1.471,0.771-2.856,1.41-4.162,1.911l5.297,4.62l1.255-0.443l0.056,2.049
			l-1.088,0.13l-8.996,10.314c-0.813,0.932-1.875,1.236-3.187,0.917c0.651-0.664,0.606-1.73-0.136-3.198L105.875,44.724z
			 M111.589,31.085l-2.667,3.059l5.665,4.943l2.668-3.059L111.589,31.085z M108.463,34.671l-2.517,2.885l5.667,4.942l2.517-2.887
			L108.463,34.671z"/>
		<path fill="#FF0000" d="M116.041,60.449c0.512,0.044,1.057-0.04,1.638-0.251c12.771-4.705,19.654-7.269,20.653-7.693l-0.585,1.434
			l1.949,5.292l1.423,0.173l-1.071,1.787l-0.907-0.448c-4.502,1.657-7.648,2.844-9.441,3.562l-1.187-0.869l0.981-0.36l-1.242-3.375
			c-1.576,0.872-3.139,1.998-4.688,3.381c1.866,0.822,3.758,1.372,5.675,1.655l-1.506,1.948c-0.265-0.717-1.808-1.772-4.63-3.172
			c-1.331,1.535-2.121,2.915-2.369,4.139c-0.25,1.224-0.317,2.104-0.201,2.644l-0.436,0.159c-0.335-0.689-1.041-1.04-2.117-1.051
			c0.42-1.546,1.407-3.231,2.961-5.051c1.554-1.822,3.935-3.525,7.141-5.113l-0.564-1.532l-9.905,3.647l3.032,2.193l-0.27,0.274
			c-2.055-1.103-3.955-1.679-5.705-1.732L116.041,60.449z M137.095,54.181l-4.136,1.523l1.978,5.368l4.135-1.524L137.095,54.181z
			 M128.592,51.563l7.2-1.256l-0.989-2.686l-16.979,6.252c-1.959,0.723-3.693,1.387-5.197,2.001l-1.075-0.91
			c1.832-0.617,6.03-2.133,12.6-4.552c6.567-2.418,10.494-3.895,11.781-4.424l-0.447,1.47l0.96,2.606l1.233,0.331l-1.048,1.517
			l-0.771-0.412l-7.127,0.448c-0.824,1.116-1.62,2.033-2.385,2.751c-0.768,0.717-1.68,1.314-2.739,1.791
			c-1.061,0.477-2.028,0.705-2.902,0.678c-0.875-0.025-1.674-0.458-2.394-1.295c0.89-0.27,1.455-1.088,1.693-2.453l0.436-0.161
			c0.109,1.645,0.484,2.492,1.123,2.549c0.639,0.054,1.583-0.235,2.832-0.869C125.643,54.303,127.041,53.179,128.592,51.563z
			 M132.305,55.943l-4.137,1.523l1.978,5.369l4.136-1.523L132.305,55.943z"/>
		<path fill="#FF0000" d="M141.914,89.289l-0.583-0.827c-2.443,0.139-4.884,0.652-7.316,1.535c-2.435,0.886-4.206,2.183-5.313,3.894
			l-0.344-0.05c0.126-0.862-0.244-1.55-1.108-2.06c1.903-1.266,4.159-2.273,6.771-3.02c2.608-0.75,5.586-1.074,8.931-0.971
			L141.914,89.289z M142.702,83.873l-1.993,1.607l-0.559-0.989c-5.099-2.558-8.778-5.462-11.041-8.709l0.379-0.19
			c2.388,2.383,4.792,4.26,7.21,5.632C139.117,82.592,141.119,83.476,142.702,83.873z M120.926,78.061l-1.161,9.575
			c1.617-0.37,3.503-0.977,5.657-1.82l0.309,0.293c-2.585,1.661-4.553,2.695-5.902,3.105c-1.348,0.41-2.393,0.326-3.128-0.249
			c-0.737-0.575-0.648-0.907,0.261-0.993c0.913-0.087,1.647-0.174,2.206-0.258c0.218-5.253,0.262-8.249,0.136-8.981
			c-0.129-0.734-0.354-1.32-0.683-1.753l2.54-0.538c-0.063,0.431,0.354,1.043,1.257,1.835c0.899,0.791,2.456,1.912,4.668,3.364
			c2.211,1.447,4.209,2.497,5.99,3.142l-2.211,1.495l-0.445-0.973C126.423,82.687,123.259,80.271,120.926,78.061z"/>
		<path fill="#FF0000" d="M132.994,110.648l-7.755,10.322l0.584,1.155l-2.04,0.205l-0.164-0.94l-16.045-12.052
			c-1.454-1.025-2.053-2.223-1.796-3.597c0.742,0.556,1.997,0.307,3.76-0.754l0.463,0.349c-0.97,0.904-1.61,1.565-1.923,1.979
			c-0.312,0.414-0.095,0.898,0.646,1.455l15.86,11.912l6.234-8.298c0.425-0.567,0.725-1.16,0.9-1.777L132.994,110.648z
			 M129.476,106.063l-6.333,8.43l0.568,1.754l-2.696-0.083l6.334-8.43c0.458-0.609,0.74-1.181,0.85-1.711L129.476,106.063z
			 M115.173,108.3c-0.742-0.558-1.471-1.069-2.184-1.537l0.181-1.396l1.67,1.253l3.288-4.378l-1.577-1.185l0.087-1.468
			c0.771,0.647,2.146,1.715,4.126,3.2c1.977,1.486,3.541,2.626,4.686,3.419l-1.57,0.353l-3.19,4.248l0.584,1.152l-2.041,0.206
			l-0.164-0.94L115.173,108.3z M123.321,106.142l-4.637-3.483l-3.289,4.377l4.638,3.485L123.321,106.142z"/>
	</g>
	<g>
		<path fill="#FF0000" d="M40.619,136.496l-0.689-0.39l2.446-4.345c-0.254,0.064-0.561,0.099-0.918,0.104
			c-0.356,0.003-0.664-0.015-0.923-0.057l0.37-0.658c0.486,0.039,0.946,0.012,1.378-0.081c0.432-0.094,0.775-0.227,1.03-0.397
			l0.443,0.249L40.619,136.496z"/>
		<path fill="#FF0000" d="M46.868,139.574l-0.722-0.328l2.059-4.539c-0.247,0.086-0.549,0.146-0.904,0.183
			c-0.354,0.035-0.664,0.044-0.924,0.023l0.312-0.688c0.487-0.005,0.943-0.072,1.365-0.202c0.422-0.129,0.753-0.292,0.992-0.485
			l0.464,0.212L46.868,139.574z"/>
		<path fill="#FF0000" d="M51.606,138.16c0.251-0.711,0.527-1.254,0.831-1.636c0.3-0.381,0.638-0.637,1.012-0.769
			c0.375-0.131,0.784-0.118,1.226,0.038c0.326,0.115,0.588,0.282,0.789,0.5c0.2,0.216,0.337,0.475,0.41,0.776
			c0.073,0.3,0.094,0.643,0.061,1.025c-0.033,0.382-0.156,0.873-0.367,1.468c-0.249,0.705-0.525,1.246-0.825,1.628
			c-0.299,0.382-0.636,0.639-1.011,0.771s-0.785,0.12-1.229-0.038c-0.585-0.207-0.973-0.577-1.16-1.111
			C51.119,140.172,51.207,139.287,51.606,138.16z M52.374,138.432c-0.352,0.985-0.466,1.682-0.348,2.092
			c0.117,0.41,0.348,0.675,0.689,0.796c0.341,0.122,0.688,0.06,1.038-0.187c0.35-0.245,0.698-0.857,1.047-1.841
			c0.351-0.99,0.466-1.687,0.349-2.096c-0.12-0.406-0.353-0.672-0.701-0.796c-0.341-0.122-0.666-0.076-0.971,0.14
			C53.091,136.815,52.723,137.445,52.374,138.432z"/>
		<path fill="#FF0000" d="M60.074,144.089l-0.766-0.197l1.242-4.826c-0.228,0.127-0.516,0.238-0.858,0.335
			c-0.344,0.097-0.646,0.158-0.908,0.183l0.19-0.732c0.479-0.088,0.915-0.234,1.31-0.433c0.394-0.202,0.691-0.419,0.894-0.651
			l0.494,0.128L60.074,144.089z"/>
		<path fill="#FF0000" d="M64.485,141.867c0.119-0.744,0.291-1.331,0.52-1.759c0.228-0.429,0.512-0.742,0.857-0.938
			c0.344-0.197,0.748-0.259,1.21-0.185c0.342,0.057,0.63,0.171,0.866,0.349c0.236,0.177,0.417,0.406,0.545,0.689
			c0.126,0.283,0.207,0.615,0.245,0.999c0.035,0.384,0.005,0.887-0.096,1.51c-0.118,0.739-0.289,1.322-0.516,1.751
			c-0.226,0.43-0.512,0.742-0.856,0.941c-0.344,0.199-0.749,0.261-1.215,0.187c-0.614-0.099-1.062-0.393-1.341-0.885
			C64.37,143.935,64.295,143.049,64.485,141.867z M65.287,141.996c-0.165,1.032-0.151,1.738,0.038,2.12
			c0.19,0.381,0.465,0.601,0.822,0.657c0.359,0.059,0.688-0.066,0.987-0.369c0.299-0.305,0.531-0.973,0.696-2.002
			c0.164-1.036,0.153-1.743-0.038-2.122c-0.19-0.381-0.467-0.6-0.832-0.657c-0.357-0.057-0.669,0.047-0.932,0.313
			C65.7,140.276,65.453,140.963,65.287,141.996z"/>
		<path fill="#FF0000" d="M72.373,142.568c-0.321-0.136-0.554-0.32-0.699-0.55c-0.145-0.229-0.208-0.496-0.19-0.803
			c0.026-0.463,0.219-0.842,0.572-1.14c0.355-0.294,0.813-0.425,1.372-0.393c0.561,0.033,1.003,0.221,1.326,0.563
			c0.323,0.344,0.472,0.745,0.443,1.208c-0.019,0.296-0.109,0.548-0.28,0.756c-0.169,0.208-0.416,0.364-0.742,0.465
			c0.387,0.149,0.676,0.372,0.865,0.667c0.189,0.296,0.273,0.641,0.25,1.034c-0.032,0.543-0.253,0.988-0.664,1.336
			c-0.41,0.349-0.934,0.502-1.568,0.466c-0.634-0.037-1.135-0.254-1.502-0.648c-0.367-0.394-0.534-0.869-0.5-1.424
			c0.022-0.415,0.149-0.754,0.378-1.02C71.661,142.821,71.974,142.648,72.373,142.568z M71.866,144.159
			c-0.014,0.223,0.028,0.442,0.122,0.656c0.093,0.214,0.242,0.385,0.445,0.511c0.206,0.128,0.43,0.197,0.671,0.212
			c0.377,0.021,0.696-0.08,0.956-0.305c0.259-0.226,0.399-0.525,0.422-0.895c0.022-0.375-0.086-0.694-0.323-0.955
			c-0.239-0.263-0.549-0.403-0.929-0.425c-0.372-0.023-0.687,0.08-0.945,0.311C72.026,143.499,71.886,143.796,71.866,144.159z
			 M72.292,141.236c-0.018,0.303,0.066,0.554,0.251,0.755c0.185,0.203,0.435,0.313,0.747,0.332c0.303,0.018,0.56-0.062,0.765-0.241
			c0.206-0.178,0.316-0.403,0.333-0.678c0.018-0.286-0.069-0.533-0.258-0.74c-0.189-0.208-0.434-0.319-0.731-0.336
			c-0.302-0.02-0.557,0.063-0.767,0.242C72.422,140.75,72.308,140.971,72.292,141.236z"/>
		<path fill="#FF0000" d="M77.849,143.078c-0.034-0.753,0.016-1.363,0.15-1.827c0.137-0.467,0.353-0.831,0.65-1.095
			c0.297-0.265,0.68-0.406,1.148-0.429c0.345-0.015,0.649,0.04,0.918,0.165c0.267,0.125,0.489,0.313,0.674,0.563
			c0.18,0.251,0.328,0.561,0.442,0.929c0.113,0.366,0.186,0.865,0.214,1.497c0.034,0.746-0.015,1.354-0.148,1.818
			c-0.134,0.466-0.351,0.832-0.647,1.097s-0.681,0.408-1.151,0.43c-0.622,0.028-1.118-0.169-1.492-0.591
			C78.158,145.125,77.905,144.271,77.849,143.078z M78.661,143.039c0.049,1.045,0.205,1.734,0.47,2.07
			c0.263,0.333,0.575,0.491,0.938,0.475c0.362-0.017,0.658-0.205,0.891-0.563c0.23-0.359,0.322-1.059,0.275-2.101
			c-0.049-1.048-0.205-1.737-0.469-2.07c-0.264-0.332-0.579-0.49-0.948-0.474c-0.363,0.017-0.646,0.182-0.848,0.497
			C78.716,141.272,78.611,141.996,78.661,143.039z"/>
		<path fill="#FF0000" d="M84.806,144.073l0.765-0.226c0.158,0.425,0.361,0.717,0.606,0.875c0.246,0.159,0.525,0.215,0.833,0.167
			c0.367-0.057,0.658-0.232,0.873-0.523c0.214-0.292,0.292-0.623,0.233-0.995c-0.057-0.354-0.219-0.628-0.49-0.823
			c-0.27-0.194-0.585-0.263-0.948-0.205c-0.146,0.022-0.327,0.08-0.536,0.172l-0.02-0.692c0.053-0.002,0.095-0.006,0.127-0.012
			c0.333-0.051,0.618-0.184,0.858-0.397c0.238-0.213,0.331-0.499,0.273-0.856c-0.044-0.284-0.178-0.503-0.399-0.659
			c-0.225-0.155-0.487-0.209-0.796-0.161c-0.304,0.048-0.543,0.182-0.716,0.401c-0.173,0.221-0.258,0.525-0.258,0.912l-0.805-0.015
			c0.017-0.532,0.17-0.968,0.465-1.308c0.295-0.337,0.691-0.545,1.196-0.626c0.346-0.053,0.68-0.028,0.993,0.073
			c0.315,0.103,0.572,0.267,0.768,0.498c0.193,0.23,0.313,0.489,0.358,0.775c0.042,0.271,0.006,0.53-0.106,0.776
			c-0.113,0.247-0.304,0.457-0.572,0.635c0.391,0.027,0.711,0.159,0.961,0.397c0.252,0.238,0.408,0.561,0.473,0.967
			c0.085,0.548-0.045,1.047-0.39,1.491c-0.347,0.446-0.828,0.718-1.447,0.814c-0.559,0.087-1.048-0.004-1.469-0.276
			C85.216,144.983,84.939,144.59,84.806,144.073z"/>
		<path fill="#FF0000" d="M95.811,142.687l0.196,0.727l-4.11,1.109c-0.055-0.181-0.073-0.362-0.053-0.548
			c0.029-0.306,0.123-0.625,0.28-0.955s0.407-0.731,0.749-1.202c0.527-0.73,0.864-1.287,1.018-1.671
			c0.149-0.386,0.188-0.721,0.11-1.005c-0.08-0.3-0.258-0.523-0.528-0.67c-0.271-0.147-0.581-0.175-0.931-0.081
			c-0.366,0.102-0.632,0.289-0.795,0.566c-0.16,0.277-0.19,0.609-0.09,0.997l-0.808,0.133c-0.102-0.594-0.019-1.09,0.249-1.487
			c0.271-0.399,0.699-0.679,1.291-0.838c0.597-0.161,1.112-0.126,1.549,0.108c0.437,0.232,0.72,0.592,0.851,1.076
			c0.066,0.245,0.08,0.5,0.044,0.767c-0.037,0.267-0.139,0.562-0.304,0.889c-0.166,0.327-0.46,0.794-0.886,1.4
			c-0.355,0.505-0.579,0.843-0.673,1.014c-0.096,0.17-0.164,0.336-0.213,0.495L95.811,142.687z"/>
		<path fill="#FF0000" d="M96.82,137.326l-0.271-0.7l3.889-1.509l0.221,0.565c-0.227,0.552-0.4,1.234-0.516,2.047
			c-0.116,0.813-0.139,1.611-0.07,2.396c0.045,0.556,0.163,1.136,0.351,1.742l-0.758,0.295c-0.174-0.47-0.3-1.071-0.38-1.802
			c-0.078-0.729-0.071-1.467,0.021-2.21c0.094-0.742,0.244-1.398,0.455-1.966L96.82,137.326z"/>
		<path fill="#FF0000" d="M107.931,138.478l-0.704,0.36l-2.264-4.443c-0.087,0.247-0.228,0.521-0.422,0.82
			c-0.193,0.301-0.381,0.547-0.559,0.739l-0.345-0.674c0.301-0.385,0.532-0.781,0.695-1.191c0.161-0.412,0.241-0.771,0.239-1.078
			l0.454-0.232L107.931,138.478z"/>
		<path fill="#FF0000" d="M110.778,135.218l0.605-0.466c0.243,0.264,0.483,0.415,0.724,0.453c0.239,0.037,0.478-0.02,0.718-0.173
			c0.205-0.131,0.355-0.291,0.452-0.481c0.096-0.19,0.144-0.396,0.146-0.613c0-0.22-0.05-0.481-0.15-0.788
			c-0.101-0.306-0.237-0.596-0.412-0.87c-0.019-0.03-0.047-0.074-0.087-0.13c-0.002,0.295-0.074,0.581-0.223,0.858
			c-0.149,0.278-0.358,0.502-0.629,0.673c-0.449,0.285-0.935,0.365-1.448,0.24c-0.519-0.125-0.943-0.453-1.278-0.98
			c-0.345-0.546-0.462-1.088-0.347-1.628c0.113-0.539,0.417-0.965,0.905-1.274c0.356-0.224,0.738-0.334,1.15-0.332
			c0.413,0.003,0.806,0.13,1.18,0.383c0.373,0.253,0.769,0.71,1.188,1.369c0.435,0.689,0.705,1.285,0.813,1.786
			c0.107,0.504,0.079,0.956-0.083,1.359c-0.164,0.4-0.446,0.729-0.847,0.983c-0.427,0.269-0.85,0.371-1.267,0.309
			C111.471,135.832,111.102,135.606,110.778,135.218z M112.008,131.109c-0.239-0.38-0.532-0.616-0.877-0.71
			c-0.345-0.092-0.662-0.047-0.947,0.134c-0.298,0.188-0.48,0.472-0.551,0.853c-0.066,0.378,0.02,0.759,0.263,1.142
			c0.217,0.342,0.497,0.553,0.843,0.636c0.344,0.083,0.671,0.025,0.978-0.169c0.309-0.196,0.496-0.464,0.559-0.805
			C112.337,131.848,112.25,131.489,112.008,131.109z"/>
		<path fill="#FF0000" d="M113.965,128.269l-0.454-0.6l3.322-2.521l0.368,0.486c-0.065,0.59-0.043,1.293,0.067,2.106
			c0.113,0.814,0.309,1.588,0.593,2.324c0.195,0.52,0.468,1.045,0.815,1.576l-0.647,0.493c-0.296-0.404-0.584-0.948-0.86-1.627
			c-0.277-0.682-0.474-1.393-0.589-2.132c-0.114-0.739-0.147-1.412-0.101-2.014L113.965,128.269z"/>
	</g>
</g>
</svg>
