<?xml version="1.0" encoding="utf-8"?>
<!-- Generator: Adobe Illustrator 15.0.0, SVG Export Plug-In . SVG Version: 6.00 Build 0)  -->
<!DOCTYPE svg PUBLIC "-//W3C//DTD SVG 1.1//EN" "http://www.w3.org/Graphics/SVG/1.1/DTD/svg11.dtd">
<svg version="1.1" id="图层_1" xmlns="http://www.w3.org/2000/svg" xmlns:xlink="http://www.w3.org/1999/xlink" x="0px" y="0px"
	 width="154px" height="154px" viewBox="0 0 154 154" enable-background="new 0 0 154 154" xml:space="preserve">
<circle fill="none" stroke="#FF0000" stroke-width="3.5" stroke-miterlimit="10" cx="77.586" cy="76.587" r="74.864"/>
<polygon fill="#FF0000" points="86.631,99.991 75.281,85.67 58.849,92.139 67.683,77.34 57.942,63.639 73.952,67.593 83.71,53.552 
	85.141,70.527 101.226,74.915 85.998,81.724 "/>
<g>
	<path fill="#FF0000" d="M13.809,94.723l4.74-1.504c-2.352-1.585-4.432-2.659-6.24-3.226c0.71-0.795,1.229-1.374,1.557-1.737
		l0.124,0.038c0.008,0.257,0.337,0.593,0.986,1.008c1.949,1.247,3.512,2.436,4.684,3.565l1.814-0.576
		c1.413,0.019,1.652-1.093,0.719-3.336c-0.298-1.873-1.004-2.582-2.118-2.125c-0.201,0.063-0.578,0.158-1.132,0.281
		c-0.7,0.119-1.335,0.218-1.905,0.293l-0.089-0.282c2.129-0.52,3.314-1.103,3.552-1.749l0.157-0.204
		c1.002-0.11,1.677,0.038,2.029,0.444c0.306,0.266,0.724,1.351,1.254,3.254c0.649,1.813,0.802,2.88,0.458,3.195
		c-0.163,0.415-1.396,0.961-3.698,1.64c1.046,0.964,1.848,1.978,2.409,3.044l-0.381,0.197c-0.903-1.215-1.949-2.178-3.138-2.89
		l-7.664,2.433c0.225-0.693,0.408-1.398,0.549-2.118c0.068-0.021,0.307,0.033,0.718,0.161
		C13.619,94.705,13.823,94.771,13.809,94.723z M19.5,98.667l7.262-2.304c0.457,0.271,0.778,0.582,0.963,0.938l-8.012,2.387
		c2.435,0.679,4.302,1.433,5.602,2.263l-0.18,0.136c-4.683-1.468-8.723-2.076-12.123-1.826c0.487-1.035,0.827-1.712,1.019-2.033
		c0.083,0.025,0.166,0.051,0.247,0.077c0.225,0.239,0.65,0.415,1.277,0.526c0.846,0.096,1.712,0.262,2.6,0.497
		c0.203-0.53,0.33-0.83,0.381-0.898c0.068-0.021,0.191,0.018,0.369,0.116C19.235,98.648,19.434,98.688,19.5,98.667z M26.684,91.57
		l2.017-0.64l-1.68-5.295l-1.703-0.47l1.221-2.098l0.202-0.063l2.463,7.766l6.153-1.952c0.538,0.296,0.873,0.655,1.008,1.079
		l-6.781,2.073l1.95,6.142l0.571,0.752l-0.695,0.608l-2.33-7.342l-4.012,1.35c0.353-1.458,0.562-2.197,0.627-2.219
		c0.068-0.021,0.191,0.018,0.37,0.116C26.412,91.528,26.618,91.592,26.684,91.57z"/>
	<path fill="#FF0000" d="M13.817,63.638l0.785-4.299l-1.504-1.179l2.402-1.368l0.181,0.184l-1.186,6.484l2.186,0.399l0.4-2.185
		c0.008-0.048-0.177-0.208-0.559-0.479c-0.319-0.209-0.475-0.337-0.467-0.386c0.175-0.168,0.818-0.553,1.932-1.153
		c0.406,0.526,0.679,0.802,0.816,0.827l6.87,1.256c0.476,0.539,0.618,0.941,0.424,1.207l-0.521-0.095l-0.199,1.093l1.411-1.248
		l0.104,0.019l0.414,0.678l0.625,0.114l0.413-2.259l-1.31-1.068l2.257-1.168l0.104,0.019l-0.826,4.517
		c1.665,0.305,2.95,0.54,3.851,0.705c0.892,0.213,1.408,0.333,1.547,0.358c0.572,0.406,0.995,1.036,1.268,1.889
		c-1.198-0.118-2.141,0.538-2.833,1.967l-0.312-0.058c0.156-0.472,0.306-0.896,0.448-1.273c0.254-0.605,0.39-0.957,0.408-1.055
		c-0.078-0.365-0.354-0.617-0.831-0.754c-1.526-0.279-2.774-0.507-3.747-0.686L27.21,70.98c0.148-0.021,0.309-0.119,0.483-0.288
		c1.037-0.964,1.885-1.487,2.545-1.567c0.85,0.056,1.443,0.339,1.78,0.853c0.128,0.475-0.269,0.679-1.188,0.611
		c-1.006,0.017-2.267,0.44-3.78,1.267l-0.547,2.987l0.152,0.932l-1.029,0.339l2.118-11.585l-2.394-0.438l-1.413,7.724l0.729,0.133
		c0.423,0.429,0.564,0.831,0.423,1.206c-3.806-0.744-7.335-1.44-10.588-2.086l1.072-1.159l0.399-2.186
		c-1.04-0.19-1.769-0.323-2.186-0.399l-0.879,4.809l-0.055,0.894l-0.796,0.23l1.08-5.901c-1.146-0.009-2.349,0.298-3.61,0.92
		l-0.195-0.111c0.5-0.761,1.117-1.401,1.857-1.919c0.826-0.199,1.506,0,2.042,0.6l0.479-2.623c-1.011-0.736-2.003-1.395-2.974-1.974
		c-0.328-0.16-0.519-0.294-0.57-0.405c0.906-0.638,1.446-1.041,1.619-1.21c0.062,0.062,0.114,0.171,0.156,0.329
		C12.094,61.691,12.719,62.584,13.817,63.638z M14.321,64.407l-0.359,1.967c0.208,0.038,0.551,0.126,1.027,0.263
		c0.557,0.102,0.937,0.171,1.146,0.21l0.373-2.041L14.321,64.407z M16.585,67.908l-0.373,2.04c-0.062,0.341,0.119,0.523,0.543,0.551
		l3.644,0.667C19.721,69.788,18.448,68.701,16.585,67.908z M17.132,64.921l-0.387,2.113c2.028,0.672,3.421,2.082,4.176,4.227
		L22.56,62.3l-1.666-0.305c-0.338,2.248-0.638,3.297-0.898,3.148c-0.253,0.206-0.933,0.206-2.044,0.003
		C17.613,65.035,17.34,64.959,17.132,64.921z M17.771,61.424l-0.453,2.478c1.171,0.265,1.801,0.355,1.887,0.27
		c0.079-0.035,0.207-0.339,0.381-0.909c0.099-0.534,0.153-1.026,0.163-1.476L17.771,61.424z M23.184,62.414l-1.639,8.961l1.77,0.323
		l1.639-8.961L23.184,62.414z"/>
	<path fill="#FF0000" d="M23.87,35.676l2.192,0.111l0.122,0.188l-5.093,6.547l-0.425,0.89l-0.987-0.11l4.775-6.139L23.87,35.676z
		 M25.474,38.612l1.775-0.214c0.081,0.126,0.129,0.351,0.145,0.676l0.03,0.305l2.886,2.15c0.152,0.494,0.079,0.876-0.22,1.144
		l-0.668-0.52l-2.183,2.806l0.835,0.65c0.097,0.451-0.019,0.829-0.348,1.136l-5.171-4.21l1.312-0.48l1.911-2.455
		c0.056,0.043-0.02-0.203-0.229-0.74C25.525,38.778,25.499,38.695,25.474,38.612z M26.415,39.814l-1.819,2.338
		c-0.357,0.348-0.285,0.655,0.221,0.922l1.921,1.495l2.183-2.806L26.415,39.814z M25.628,31.694l1.713-0.825l0.084,0.065
		l0.251,1.228l3.674,2.858l1-1.286l-0.562-1l1.904-0.208l0.213,1.104l6.393,4.879c0.182,0.456,0.11,0.836-0.219,1.144l-1.003-0.779
		l-1.045,1.345l5.345,4.157l0.946-2.078c-1.133-0.38-1.927-0.624-2.382-0.728c-0.142-0.046-0.241-0.093-0.297-0.136l-0.03-0.306
		c2.034,0.144,3.448,0.337,4.242,0.578c0.592,0.273,1.032,0.742,1.321,1.404c0.177,0.575-0.029,0.728-0.622,0.455
		c-0.197-0.091-0.408-0.224-0.63-0.397c-0.532-0.35-0.925-0.593-1.177-0.728c-1.029,2.703-1.616,4.718-1.755,6.047l-0.007,0.182
		l-1.654-0.63l1.583-2.897l-5.428-4.223l-0.956,1.228l1.002,0.779c0.243,0.377,0.17,0.758-0.219,1.143
		c-3.395-2.641-6.4-4.979-9.019-7.016l1.737-0.337l0.773-0.994L25.628,31.694z M31.462,41.77l1.904-0.207l0.084,1.098l7.812,5.984
		c0.521,0.592,0.678,1.31,0.472,2.15c-0.871-0.49-1.646-0.468-2.329,0.064l-0.251-0.195c0.979-0.801,1.319-1.35,1.017-1.65
		l-3.258-2.534l-1.637,2.104l3.592,2.795c0.181,0.454,0.151,0.838-0.091,1.149l-4.046-3.242l-0.637,0.818l-0.295,0.896l-0.978-0.293
		l1.727-2.221c-0.784-1.173-1.741-2.354-2.87-3.547l1.646-0.221c0.025,0.083,0.022,0.143-0.007,0.181
		c-0.066,0.201-0.032,0.445,0.099,0.734c0.025,0.083,0.172,0.355,0.44,0.812c0.213,0.416,0.519,0.999,0.919,1.747l0.683-0.876
		l-0.221-0.922l1.51-0.045l-4.259-3.314l-3.32,4.268c-0.334,0.429-0.274,0.757,0.176,0.981l8.602,6.691
		c0.121,0.533,0.076,0.936-0.136,1.208c-4.509-3.508-8.169-6.386-10.978-8.634l1.562-0.286l3.502-4.501L31.462,41.77z
		 M30.229,47.662l-0.037-0.124c0.724-0.125,1.441-0.13,2.154-0.013c0.562,0.312,0.921,0.655,1.078,1.026
		c0.123,0.533-0.054,0.646-0.531,0.337c-0.084-0.003-0.183-0.048-0.295-0.136C31.955,48.316,31.166,47.953,30.229,47.662z
		 M31.306,36.112l-0.637,0.819c-0.327,0.308-0.267,0.575,0.184,0.799l5.177,4.028l0.955-1.228L31.306,36.112z M32.898,34.065
		l-1.046,1.346l5.678,4.417l1.047-1.344L32.898,34.065z"/>
	<path fill="#FF0000" d="M41.302,18.468l0.045-0.254c1.284-0.282,2.202-0.239,2.751,0.127c0.757,0.816,0.956,1.54,0.596,2.172
		c-0.134,0.062-0.38-0.057-0.736-0.359C43.022,19.188,42.137,18.627,41.302,18.468z M45.872,17.057l0.289,0.099
		c-0.012,3.269,0.017,5.51,0.087,6.72c-0.046,0.254,0.235,0.981,0.841,2.176c0.327,0.705,0.519,1.121,0.579,1.249
		c-0.094,0.742-0.533,0.79-1.322,0.144c-0.104-0.107-0.221-0.48-0.354-1.119c-0.205-0.914-0.441-1.544-0.708-1.887
		c-0.252-0.193-0.812-0.284-1.676-0.274l-0.111-0.415c0.029,0.064,0.087,0.076,0.179,0.034c1.074-0.264,1.59-0.502,1.546-0.715
		C45.421,21.733,45.638,19.729,45.872,17.057z M48.755,17.472l5.715-2.641c0.045-0.021,0.099-0.317,0.16-0.89
		c0.061-0.338,0.1-0.551,0.115-0.636c1.4,0.442,2.232,0.833,2.501,1.175c0.014,0.15-0.068,0.265-0.248,0.347
		c-0.777,0.438-1.386,1.651-1.826,3.641l-0.29-0.098c0-0.233,0.017-0.551,0.048-0.956c0.064-1.505,0.022-2.185-0.127-2.04
		l-4.168,1.926c0.909,0.204,1.512,0.391,1.81,0.563c0.044,0.213-0.031,0.403-0.225,0.57c2.51,2.726,5.35,3.278,8.516,1.659
		l0.134,0.288c-0.808,0.606-1.168,1.355-1.082,2.248c-2.702,0.395-5.284-0.898-7.748-3.879c0.582,3.618-0.227,6.516-2.427,8.698
		l0.58,0.197l6.388-2.951c0.043-0.021,0.046-0.254,0.002-0.7c-0.028-0.296-0.021-0.457,0.024-0.478
		c0.373-0.016,1.013,0.192,1.922,0.627c0.06,0.13-0.015,0.319-0.227,0.571l-0.045,0.254l2.375,4.963
		c-0.182,0.551-0.481,0.962-0.9,1.231l-2.795-6.05l-6.389,2.952c-0.149,0.147-0.179,0.316-0.09,0.508l2.551,5.697
		c-0.271,0.591-0.563,0.96-0.876,1.104l-3.127-7.297c-0.435,0.357-0.951,0.83-1.55,1.415c-0.134,0.062-0.225,0.104-0.269,0.125
		l-0.245-0.353c3.965-3.308,5.128-7.266,3.49-11.87l-1.68,0.777c-0.083,2.292-0.231,4.032-0.444,5.217l-0.359-0.067
		c0.176-3.033-0.112-5.894-0.862-8.576c1.297,0.1,1.983,0.172,2.058,0.214c0.059,0.13-0.025,0.362-0.25,0.698
		c-0.12,0.212-0.187,0.36-0.203,0.443c-0.001,0.234-0.002,0.467-0.002,0.7C48.719,17.101,48.741,17.324,48.755,17.472z
		 M51.351,41.099l-0.245-0.354c2.29-2.223,3.573-4.099,3.847-5.623c0.335-1.63-0.224-4.015-1.674-7.153
		c1.163-0.07,1.895-0.019,2.192,0.153c-0.015,0.086-0.053,0.181-0.113,0.285c-0.271,0.358-0.301,0.762-0.094,1.209
		C57.216,34.076,55.911,37.902,51.351,41.099z M56.999,32.662l-0.133-0.289c2.327-0.376,4.364-0.501,6.108-0.375
		c1.266,0.503,1.786,1.39,1.557,2.662c-0.091,0.042-0.299-0.057-0.626-0.294C62.12,33.326,59.817,32.758,56.999,32.662z"/>
	<path fill="#FF0000" d="M74.547,8.006l1.96,1.131c-0.056,0.141-0.364,0.481-0.927,1.025l-0.155,4.229l1.184,0.043l0.868-1.451
		l1.258,2.058l-0.003,0.105L75.4,15.025l-0.187,5.075l3.104-1.792l0.206,0.431l-3.361,2.734l-0.322,8.776
		c-0.102,1.407-0.705,2.339-1.808,2.793c-0.049-0.002-0.096-0.11-0.136-0.323c-0.06-1.061-0.674-1.79-1.847-2.186l0.013-0.316
		c1.806,0.559,2.699,0.451,2.68-0.326l0.284-7.718c-1.067,0.808-1.782,1.416-2.143,1.827c-0.356,0.27-0.532,0.37-0.531,0.298
		c-0.242-0.149-0.467-0.722-0.677-1.719c-0.05-0.002,0.177-0.135,0.682-0.399c1.054-0.454,1.962-0.95,2.722-1.488l0.21-5.71
		l-1.776-0.065l-0.971,0.177l-0.264-0.857l3.034,0.112L74.547,8.006z M86.636,29.944l1.411,1.958l-0.005,0.106l-11.324-0.417
		c-0.099-0.003-0.371,0.021-0.817,0.076l-0.421-0.651l10.139,0.373L86.636,29.944z M85.054,28.615l0.098-2.644l-5.033-0.185
		l-0.159,2.323c-0.309,0.342-0.713,0.574-1.211,0.696c0.409-8.455,0.714-14.726,0.913-18.812l1.431,1.429l4.144,0.153
		c0.05,0.001,0.233-0.272,0.551-0.827c0.16-0.347,0.266-0.52,0.314-0.518c-0.002,0.071,0.091,0.214,0.281,0.434
		c0.62,0.589,1.023,1.027,1.211,1.315c-0.005,0.142-0.186,0.347-0.541,0.616l-0.234,0.309c-0.186,5.075-0.344,10.046-0.474,14.911
		c-0.053,0.069-0.104,0.139-0.156,0.206C85.679,28.426,85.301,28.624,85.054,28.615z M85.404,19.099l-5.032-0.185l-0.304,6.235
		l5.107,0.188L85.404,19.099z M80.729,13.209l-0.26,5.073l4.959,0.183l0.229-6.239l-4.145-0.152
		C80.922,11.983,80.661,12.36,80.729,13.209z"/>
	<path fill="#FF0000" d="M103.785,28.784l-3.015-1.589l-0.704-0.252l0.083-0.793l5.045,2.66l1.776-3.369l-2.03-1.071l-0.396,0.749
		c-0.81,0.051-1.263,0.012-1.36-0.12c0.493-0.937,2.12-3.864,4.885-8.788c0.271,0.543,0.517,1.031,0.735,1.464l4.586,2.418
		c-0.034,0.062,0.137-0.048,0.508-0.33c0.339-0.22,0.531-0.319,0.575-0.295c0.218,0.434,0.363,1.109,0.439,2.025
		c-0.111,0.103-0.323,0.188-0.641,0.261l-0.296,0.083l-3.19,6.212c-0.547,0.19-0.995,0.193-1.345,0.009l0.543-1.029l-2.03-1.071
		l-1.777,3.369l3.276,1.728l1.345-0.965l0.439,2.504l-0.05,0.094l-4.782-2.521c-0.979,3.232-0.394,6.251,1.754,9.059l-0.099,0.187
		c-0.732-0.306-1.371-0.364-1.918-0.174l-0.049,0.094c-1.176-2.534-1.203-5.658-0.082-9.372l-0.13-0.069l-4.937,9.358
		c-0.436,0.088-0.934,0.025-1.491-0.188l5.147-9.127c-3.906,2.964-7.254,4.548-10.041,4.753l-0.444,0.842
		c-0.481,0.064-0.935,0.025-1.36-0.12c1.172-2.013,3.793-6.771,7.862-14.274c-2.114,1.678-3.875,2.902-5.285,3.672l-0.082-0.163
		c4.453-3.472,8.066-7.149,10.84-11.03c0.719,1.177,1.065,1.839,1.045,1.987c-0.066,0.125-0.164,0.153-0.295,0.083
		c-0.405,0.026-0.767,0.236-1.084,0.626c-1.051,1.041-2.195,2.151-3.432,3.333c0.238,0.604,0.385,0.962,0.441,1.069
		c-0.034,0.063-0.111,0.103-0.23,0.118c-0.438,0.089-0.733,0.331-0.887,0.729c-0.23,0.437-0.763,1.392-1.596,2.867
		c-2.084,3.846-3.811,7.122-5.181,9.828C97.484,33.637,100.456,31.814,103.785,28.784z M113.291,20.759l-4.651-2.453
		c-0.352-0.185-0.58-0.066-0.689,0.354l-2.715,5.147l5.045,2.66L113.291,20.759z"/>
	<path fill="#FF0000" d="M130.312,39.436l3.68,5.2l2.153-0.254l-1.003,2.796l-0.086,0.062l-5.391-7.618
		c-1.321,0.33-2.816,0.662-4.481,0.993l3.422,4.838c0.028,0.039,0.431-0.003,1.207-0.128c0.171-0.001,0.3-0.002,0.387-0.002
		c-0.062,0.526-0.222,1.275-0.483,2.247c-0.116,0.083-0.331,0.083-0.646,0.003c-0.286-0.039-0.487-0.017-0.602,0.064
		c-3.974,2.812-7.156,5.092-9.545,6.844c-0.201,0.202-0.331,0.325-0.39,0.366c-0.747,0.408-1.665,0.271-2.753-0.411
		c-0.028-0.04,0.016-0.101,0.131-0.182c0.834-0.652,0.997-1.705,0.486-3.158l0.302-0.123c0.626,1.25,1.01,1.977,1.153,2.179
		c0.172,0.242,0.4,0.261,0.688,0.057l3.196-2.261l-3.68-5.2l-4.664,3.3c-0.43,0.002-0.918-0.198-1.461-0.599l11.011-7.519
		c-2.586,0.256-5.267,0.066-8.048-0.566l0.045-0.304c4.647,0.341,9.298-0.168,13.955-1.526l-3.037-4.293L125,33.577l0.562-0.852
		l3.979,5.622c1.264-0.411,2.729-0.965,4.397-1.661c0.052,1.417,0.033,2.185-0.053,2.306c-0.087,0.001-0.202-0.039-0.343-0.12
		c-0.346-0.119-0.618-0.139-0.818-0.057c-0.173,0.001-0.433,0.063-0.775,0.187C131.603,39.126,131.058,39.271,130.312,39.436z
		 M125.019,48.625l-3.68-5.199l-2.764,1.955l3.68,5.2L125.019,48.625z M124.018,41.531l-2.246,1.588l3.679,5.2l2.938-2.078
		l-3.252-4.595C124.852,41.123,124.478,41.083,124.018,41.531z"/>
	<path fill="#FF0000" d="M143.866,61.608l0.307,2.201c-0.07,0.01,0.156,0.102,0.681,0.279c0.446,0.137,0.673,0.229,0.68,0.279
		c-0.562,0.576-1.094,1.099-1.597,1.569c-0.071,0.009-0.156-0.08-0.252-0.264c-0.32-0.255-0.516-0.377-0.584-0.367
		c-0.447-0.138-1.224-0.353-2.335-0.646c-1.632-0.471-2.854-0.799-3.662-0.984c-1.445,1.896-3.099,3.049-4.966,3.459
		c-2.571,0.458-4.222-0.134-4.948-1.777c-0.008-0.05,0.06-0.083,0.198-0.103c0.888-0.273,1.524-0.812,1.912-1.613l0.22,0.044
		c-0.07,0.01-0.102,0.039-0.094,0.088c-0.214,1.026-0.163,1.642,0.151,1.848c1.65,1.116,4.104,0.325,7.359-2.373l6.628,0.795
		l-0.307-2.201c-0.055-0.392-0.285-0.509-0.69-0.352l-20.643,2.88c-0.468-0.284-0.84-0.656-1.119-1.115l24.219-3.305
		C144.785,60.283,144.399,60.835,143.866,61.608z M134.639,74.338l0.839-0.118l-0.461-3.3c-1.853,0.507-3.43,1.201-4.73,2.081
		c1.106,0.792,2.696,1.718,4.767,2.774c-0.506,0.47-1.008,0.938-1.513,1.409c-0.07,0.009-0.15-0.054-0.24-0.191
		c-0.034-0.245-0.176-0.499-0.428-0.763c-0.675-0.754-1.342-1.458-2.004-2.113c-0.418-0.441-0.714-0.774-0.886-0.998
		c-2.074,1.485-3.488,3.602-4.243,6.35l-0.104,0.015c-0.122-0.88-0.563-1.492-1.323-1.834c-0.076-0.04-0.15-0.055-0.221-0.044
		c2.059-3.628,5.68-6.003,10.864-7.125l-0.215-1.54l-10.27,1.432l2.63,2.774l-0.398,0.206c-2.786-2.104-4.325-3.186-4.618-3.244
		l-0.222-0.044c0.436-0.46,0.878-0.87,1.324-1.231c0.071-0.01,0.145,0.004,0.22,0.044c0.405,0.342,0.782,0.49,1.131,0.441
		l21.272-2.969l-0.537,0.748c-0.428,0.508-0.604,0.781-0.525,0.82l0.645,4.622c0.006,0.048,0.453,0.185,1.339,0.411
		c-0.064,0.058-0.478,0.665-1.242,1.818c-0.07,0.01-0.266-0.112-0.585-0.367c-0.393-0.244-0.582-0.343-0.574-0.293
		c-2.58,0.408-5.507,0.868-8.782,1.375C135.065,75.101,134.762,74.719,134.639,74.338z M140.193,73.562l-0.738-5.282l-4.086,0.571
		l0.736,5.281L140.193,73.562z M144.804,72.919l-0.655-4.695c-0.062-0.44-0.335-0.603-0.815-0.484l-3.248,0.453l0.736,5.282
		L144.804,72.919z"/>
	<path fill="#FF0000" d="M124.042,87.249l-2.958,8.776c2.442-0.113,4.337-0.372,5.684-0.775l0.123,0.28
		c-1.897,0.888-3.826,1.553-5.788,1.997c-2.011,0.164-3.086-0.384-3.231-1.644c0.051-0.14,0.467-0.146,1.245-0.021
		c0.648,0.076,1.155,0.129,1.52,0.156c1.379-6.696,1.969-10.08,1.769-10.152l-0.024-0.244c0.999-0.06,1.746-0.051,2.243,0.025
		l-0.052,0.139c-0.201,0.557,0.069,1.258,0.812,2.106c2.973,3.179,5.851,5.692,8.633,7.542c-1.399,0.754-2.166,1.105-2.298,1.058
		c-0.05-0.07-0.058-0.151-0.023-0.244c0.067-0.396-0.098-0.771-0.493-1.124C129.137,93.166,126.748,90.541,124.042,87.249z
		 M128.519,104.078l-0.274-0.178c0.187-0.932,0.06-1.712-0.387-2.347c3.382-2.083,8.299-2.4,14.752-0.953
		c-0.2,0.137-0.367,0.286-0.5,0.449c-0.7,0.691-1.069,0.978-1.101,0.862c-0.066-0.025-0.165-0.167-0.297-0.424
		c-0.181-0.329-0.314-0.481-0.396-0.459C135.337,100.063,131.406,101.08,128.519,104.078z M131.77,86.113l0.374-0.102
		c2.869,4.086,6.582,7.612,11.133,10.577c-0.549,0.273-0.999,0.477-1.348,0.614c-0.583,0.365-0.908,0.537-0.974,0.514
		c-0.05-0.072-0.083-0.188-0.099-0.352c-0.048-0.49-0.187-0.83-0.418-1.019C136.353,92.922,133.464,89.51,131.77,86.113z"/>
	<path fill="#FF0000" d="M108.849,111.596l0.286,0.312c-2.325,1.554-3.208,2.455-2.645,2.706c5.18,5.587,9.502,10.235,12.967,13.95
		l7.979-7.301l0.347-0.606l0.829,0.247l-8.578,7.85c-0.048-0.052,0.005,0.187,0.155,0.719c0.188,0.496,0.264,0.763,0.227,0.797
		c-0.758,0.12-1.522,0.053-2.29-0.199c-0.048-0.053-0.051-0.24-0.013-0.562c-0.008-0.376-0.037-0.59-0.084-0.641
		c-8.357-8.987-12.676-13.595-12.949-13.821c-0.652-0.933-0.617-2.064,0.105-3.396C106.017,112.706,107.238,112.688,108.849,111.596
		z M115.585,118.627l-4.484-4.79c0.017-0.494,0.141-0.942,0.374-1.347l1.286,1.406l3.606-3.301l-2-2.186
		c0.151-0.712,0.318-1.152,0.5-1.318l7.659,8.48l-1.895,0.013l-3.277,3c-0.036,0.034,0.051,0.239,0.264,0.618
		c0.176,0.413,0.271,0.661,0.281,0.747c-0.938-0.002-1.678-0.043-2.219-0.121c-0.048-0.052-0.076-0.267-0.084-0.64
		C115.624,118.78,115.622,118.594,115.585,118.627z M116.761,118.267l3.388-3.1c0.184-0.167,0.159-0.339-0.067-0.513l-3.285-3.59
		l-3.606,3.3L116.761,118.267z M119.752,124.279l-2.45-0.484l-0.071-0.077l7.923-7.251l0.223-0.634l0.899,0.324l-6.884,6.3
		L119.752,124.279z"/>
</g>
<g>
	<path fill="#FF0000" d="M25.551,113.463l-5.294,3.819l-0.521-0.724l3.734-2.694l-0.976-1.354l0.529-0.383
		c0.626,0.952,1.341,1.219,2.143,0.8L25.551,113.463z"/>
	<path fill="#FF0000" d="M30.188,119.037l-4.837,4.385l-0.6-0.661l3.412-3.095l-1.12-1.236l0.482-0.438
		c0.729,0.877,1.469,1.062,2.218,0.557L30.188,119.037z"/>
	<path fill="#FF0000" d="M34.387,127.7c-1.473,1.538-2.795,1.817-3.968,0.84c-1.146-1.086-1.022-2.432,0.374-4.038
		c1.481-1.627,2.828-1.934,4.039-0.921C35.94,124.633,35.792,126.006,34.387,127.7z M33.692,127.081
		c1.122-1.3,1.333-2.276,0.635-2.931c-0.735-0.654-1.671-0.322-2.81,0.996c-1.157,1.3-1.379,2.269-0.663,2.905
		C31.569,128.688,32.515,128.364,33.692,127.081z"/>
	<path fill="#FF0000" d="M41.167,128.566l-3.773,5.328l-0.728-0.516l2.662-3.759l-1.362-0.965l0.377-0.533
		c0.901,0.698,1.663,0.719,2.286,0.063L41.167,128.566z"/>
	<path fill="#FF0000" d="M47.173,136.076c-1.09,1.829-2.315,2.398-3.679,1.709c-1.361-0.801-1.542-2.14-0.543-4.019
		c1.078-1.918,2.321-2.52,3.729-1.805C47.998,132.737,48.162,134.108,47.173,136.076z M46.356,135.629
		c0.802-1.519,0.787-2.519-0.041-2.999c-0.862-0.472-1.7,0.062-2.513,1.603c-0.835,1.527-0.834,2.52,0.006,2.979
		S45.498,137.144,46.356,135.629z"/>
	<path fill="#FF0000" d="M54.574,137.389c-0.252,0.629-0.691,0.961-1.318,0.996c0.556,0.562,0.711,1.183,0.467,1.866
		c-0.549,1.162-1.529,1.484-2.94,0.973c-0.616-0.272-1.078-0.614-1.387-1.024c-0.331-0.497-0.359-1.055-0.083-1.674
		c0.255-0.705,0.812-1.055,1.674-1.049c-0.496-0.433-0.622-0.952-0.379-1.559c0.494-1.026,1.361-1.316,2.605-0.871
		C54.396,135.573,54.849,136.354,54.574,137.389z M51.955,138.294c-0.883-0.301-1.476-0.108-1.777,0.577
		c-0.301,0.818-0.006,1.404,0.883,1.761c0.841,0.336,1.426,0.128,1.756-0.626C53.088,139.256,52.801,138.686,51.955,138.294z
		 M52.223,137.62c0.73,0.267,1.245,0.095,1.545-0.515c0.153-0.59-0.14-1.046-0.875-1.366c-0.706-0.256-1.188-0.098-1.444,0.477
		C51.229,136.831,51.488,137.3,52.223,137.62z"/>
	<path fill="#FF0000" d="M61.571,141.219c-0.622,2.036-1.679,2.881-3.165,2.535c-1.513-0.453-2.008-1.711-1.485-3.774
		c0.592-2.119,1.655-2.999,3.193-2.64C61.577,137.78,62.063,139.073,61.571,141.219z M60.67,140.979
		c0.417-1.666,0.166-2.634-0.752-2.904c-0.951-0.252-1.638,0.465-2.061,2.154c-0.448,1.683-0.21,2.647,0.715,2.894
		S60.197,142.655,60.67,140.979z"/>
	<path fill="#FF0000" d="M68.926,144.02l-1.036-0.149l-0.229,1.58l-0.845-0.123l0.228-1.579l-3.035-0.437l0.113-0.79l3.741-3.639
		l0.729,0.104l-0.605,4.2l1.037,0.15L68.926,144.02z M67.528,140.116l-2.613,2.629l2.228,0.321l0.425-2.944L67.528,140.116z"/>
	<path fill="#FF0000" d="M73.427,140.33l-0.329,1.768c0.396-0.253,0.84-0.372,1.331-0.356c1.444,0.168,2.197,0.893,2.261,2.177
		c-0.175,1.422-1.052,2.132-2.63,2.13c-1.37-0.093-2.101-0.696-2.195-1.812l0.893,0.028c0.078,0.752,0.571,1.143,1.478,1.172
		c0.854-0.021,1.349-0.502,1.481-1.44c-0.023-0.896-0.512-1.396-1.466-1.498c-0.544,0.007-0.99,0.198-1.338,0.573l-0.736-0.06
		l0.616-3.501l3.607,0.116l-0.025,0.797L73.427,140.33z"/>
	<path fill="#FF0000" d="M81.464,142.821l-0.048-0.688c0.154-0.011,0.31-0.021,0.464-0.032c0.853-0.06,1.266-0.439,1.244-1.142
		c-0.098-0.647-0.548-0.955-1.35-0.924c-0.878,0.062-1.298,0.552-1.259,1.47l-0.853,0.061c-0.072-1.401,0.628-2.165,2.098-2.292
		c1.345-0.047,2.095,0.471,2.247,1.551c0.022,0.677-0.229,1.155-0.755,1.435l0.003,0.036c0.764,0.165,1.186,0.632,1.267,1.402
		c-0.013,1.31-0.805,2.043-2.375,2.202c-0.544,0.014-0.975-0.028-1.293-0.127c-0.69-0.218-1.082-0.821-1.177-1.809l0.89-0.062
		c0.095,0.988,0.619,1.436,1.573,1.345c0.927-0.09,1.401-0.547,1.421-1.373c-0.082-0.794-0.64-1.154-1.671-1.083
		C81.71,142.805,81.566,142.814,81.464,142.821z"/>
	<path fill="#FF0000" d="M91.529,139.777l-0.843,0.138c-0.255-0.595-0.704-0.853-1.346-0.772c-1.014,0.215-1.435,1.092-1.262,2.632
		l0.044,0.029c0.199-0.547,0.692-0.897,1.48-1.051c1.425-0.108,2.263,0.453,2.517,1.685c0.102,0.621-0.041,1.196-0.427,1.724
		c-0.3,0.416-0.846,0.689-1.637,0.818c-0.795,0.105-1.441-0.083-1.939-0.565c-0.445-0.467-0.73-1.18-0.861-2.139
		c-0.318-2.275,0.336-3.569,1.963-3.885C90.456,138.263,91.225,138.725,91.529,139.777z M88.416,143.115
		c0.203,0.923,0.766,1.321,1.689,1.194c0.834-0.185,1.201-0.747,1.101-1.686c-0.221-0.871-0.754-1.25-1.601-1.136
		C88.694,141.687,88.297,142.229,88.416,143.115z"/>
	<path fill="#FF0000" d="M99.779,141.139l-1.018,0.252l0.385,1.549l-0.829,0.206l-0.384-1.549l-2.976,0.737l-0.192-0.774
		l2.093-4.779l0.717-0.178l1.021,4.119l1.017-0.253L99.779,141.139z M97.013,138.05l-1.43,3.419l2.185-0.542l-0.716-2.887
		L97.013,138.05z"/>
	<path fill="#FF0000" d="M102.677,137.587l-0.849,0.276c-0.472-1.448,0.046-2.443,1.557-2.987c1.334-0.333,2.237,0.06,2.711,1.177
		c0.333,0.858-0.044,1.744-1.135,2.658l-0.576,0.608c-0.553,0.562-0.794,1.073-0.726,1.533l3.616-1.179l0.236,0.725l-4.539,1.479
		c-0.359-1.104-0.109-2.087,0.752-2.953l0.729-0.771c0.734-0.671,0.982-1.286,0.745-1.845c-0.305-0.689-0.869-0.912-1.688-0.671
		C102.648,135.917,102.371,136.567,102.677,137.587z"/>
</g>
</svg>
