<?xml version="1.0" encoding="utf-8"?>
<!-- Generator: Adobe Illustrator 13.0.0, SVG Export Plug-In . SVG Version: 6.00 Build 14948)  -->
<!DOCTYPE svg PUBLIC "-//W3C//DTD SVG 1.1//EN" "http://www.w3.org/Graphics/SVG/1.1/DTD/svg11.dtd">
<svg version="1.1" id="图层_1" xmlns="http://www.w3.org/2000/svg" xmlns:xlink="http://www.w3.org/1999/xlink" x="0px" y="0px"
	 width="154px" height="154px" viewBox="0 0 154 154" enable-background="new 0 0 154 154" xml:space="preserve">
<g>
	<defs>
		<rect id="SVGID_1_" width="154" height="154"/>
	</defs>
	<clipPath id="SVGID_2_">
		<use xlink:href="#SVGID_1_"  overflow="visible"/>
	</clipPath>
	<circle clip-path="url(#SVGID_2_)" fill="none" stroke="#FF0000" stroke-width="3.5" cx="77" cy="76.555" r="74.25"/>
</g>
<g>
	<path fill="#FF0000" d="M28.673,81.67l-16.728,1.335c-0.561,0.045-1.392,0.237-2.494,0.575l-0.208-0.266l1.835-1.745
		c0.649,0.263,1.128,0.38,1.439,0.355c0.313-0.025,5.577-0.445,15.793-1.261L28.673,81.67z M11.839,86.399l0.374-0.03l1.352,7.51
		c0.02,0.25,0.175,0.613,0.464,1.092l-0.831,1.383l-1.344-7.416c-0.015-0.188-0.237-0.607-0.666-1.264L11.839,86.399z M16.642,93.54
		l-0.841,0.066l-0.882-3.974c-0.148-0.301-0.524-0.678-1.125-1.133l0.759-1.095c0.539,0.459,0.933,0.678,1.181,0.658
		c0.25-0.021,0.969-0.045,2.157-0.078l0.075,0.935l-2.344,0.093L16.642,93.54z M19.124,94c-0.389-0.157-0.723-0.225-1.003-0.202
		s-0.683,0.07-1.211,0.144c-0.526,0.074-1.246,0.304-2.155,0.689l-0.295-0.164l1.297-1.421c1.677-0.195,3.268-0.291,4.774-0.286
		l0.03,0.373L19.124,94z M15.471,78.867l1.219-1.226c0.413,0.47,0.713,0.695,0.9,0.681s1.596-0.033,4.228-0.056l0.074,0.935
		l-4.321,0.063l1.24,6.108l-0.935,0.074l-1.094-5.462C16.697,79.68,16.258,79.308,15.471,78.867z M22.19,85.291
		c-0.248,0.02-0.838,0.099-1.768,0.235c-0.93,0.137-1.502,0.229-1.718,0.278c-0.215,0.049-0.872,0.273-1.969,0.674l-0.124-0.366
		l1.219-1.226c3.034-0.492,5.365-0.742,6.994-0.746l0.022,0.28l-1.514,1.062C22.822,85.335,22.44,85.271,22.19,85.291z
		 M18.496,93.203l-0.564-3.528c-0.086-0.307-0.313-0.789-0.68-1.45l0.666-1.088l0.374-0.029l1.053,6.123L18.496,93.203z
		 M26.668,87.19c-1.25,0.038-3.122,0.155-5.615,0.354l1.337,7.322l-0.748,0.061l-1.277-6.575c-0.03-0.374-0.438-0.779-1.226-1.22
		l1.032-1.211c0.534,0.397,0.894,0.588,1.081,0.572c0.187-0.015,0.811-0.064,1.869-0.149c1.061-0.084,2.467-0.133,4.22-0.148
		c1.756-0.014,3.149,0.188,4.187,0.606l-0.071,0.288l-2.158,2.429l-0.388-0.156l0.777-2.037
		C28.926,87.199,27.92,87.154,26.668,87.19z M32.065,93.531l0.03,0.374l-1.708,0.982c-0.642-0.198-1.119-0.286-1.432-0.262
		c-0.311,0.025-1.431,0.13-3.36,0.315c-1.928,0.187-3,0.303-3.217,0.351c-0.215,0.05-0.933,0.278-2.155,0.689l-0.123-0.366
		l1.406-1.241l8.302-0.851L32.065,93.531z M21.039,89.709l1.578-1.442c0.414,0.47,0.786,0.8,1.114,0.992
		c0.33,0.194,0.96,0.629,1.891,1.308l-0.258,0.303c-1.05-0.605-1.862-0.948-2.433-1.028C22.359,89.761,21.729,89.717,21.039,89.709z
		 M22.643,85.066l-0.784-5.109c-0.081-0.243-0.308-0.729-0.68-1.451l0.658-1.181l0.367-0.123l1.367,7.696L22.643,85.066z
		 M21.759,92.85l-0.295-0.165c1.042-1.086,1.655-1.651,1.84-1.698c0.184-0.046,0.566,0.033,1.147,0.237l0.03,0.374
		C23.561,91.858,22.654,92.276,21.759,92.85z M24.197,88.047l0.752-1.189l0.28-0.022l0.784,5.11c0.02,0.25,0.143,0.616,0.37,1.1
		l-0.745,1.281l-0.899-5.383C24.653,88.637,24.473,88.339,24.197,88.047z M24.726,79.352l-0.303-0.258
		c1.042-1.085,1.77-1.802,2.18-2.149c0.412-0.346,0.722-0.589,0.929-0.732c0.209-0.142,0.865,0.025,1.968,0.502l0.037,0.467
		C27.824,77.694,26.22,78.418,24.726,79.352z M28.888,91.434c-0.518-0.208-0.901-0.304-1.151-0.284
		c-0.248,0.021-1.028,0.082-2.336,0.187l-0.075-0.935c1.746-0.139,3.493-0.246,5.241-0.324l0.03,0.374L28.888,91.434z
		 M30.321,84.642l-1.133,1.126l-2.353-8.276l0.646-0.146C29.039,81.923,29.983,84.355,30.321,84.642z"/>
</g>
<g>
	<path fill="#FF0000" d="M15.111,55.866l0.452,0.122l-1.999,11.394c-0.079,0.291-0.082,0.787-0.014,1.488l-1.3,0.862l1.93-11.133
		c0.063-0.231,0.03-0.831-0.098-1.798L15.111,55.866z M29.127,66.912l-12.492-3.364c-0.663-0.179-1.517-0.252-2.561-0.224
		l-0.201-0.334l2.459-1.202c0.434,0.552,0.772,0.861,1.014,0.926s4.254,1.146,12.039,3.242L29.127,66.912z M17.496,69.001l2.3-0.966
		c0.571,0.527,0.984,0.794,1.241,0.801c0.257,0.008,2.717,0.607,7.379,1.8l-0.258,0.957l-7.945-1.86
		c-0.845-0.228-1.729-0.31-2.652-0.248L17.496,69.001z M22.598,58.349l-0.89,6.192l-0.905-0.244l0.574-3.574
		c0.018-0.306-0.046-0.789-0.192-1.451l0.962-1.046L22.598,58.349z M31.133,57.664l0.452,0.122l-3.378,16.15
		c-0.094,0.348-0.112,0.778-0.056,1.291l-1.324,0.949l3.378-16.15c0.004-0.247-0.053-0.76-0.168-1.537L31.133,57.664z"/>
</g>
<g>
	<path fill="#FF0000" d="M26.499,35.922c0.073-0.239,0.177-0.712,0.31-1.416l1.338-0.58l0.24,0.146l-5.863,11.307
		c-0.104,0.294-0.229,0.681-0.375,1.163l-1.418,0.531L26.499,35.922z M24.6,40.865l12.335,10.038l-0.568,0.938L24.031,41.803
		L24.6,40.865z M31.197,41.013c0.073-0.24-0.031-0.731-0.314-1.473l1.465-0.609c0.242,0.931,0.49,1.455,0.746,1.574
		c0.256,0.12,2.504,1.749,6.741,4.885l-0.568,0.938l-7.159-5.191l-2.99,6.205c-0.159,0.261-0.284,0.649-0.377,1.163l-1.385,0.658
		L31.197,41.013z M42.707,40.288l0.367,0.117l-8.25,14.886c-0.137,0.344-0.277,0.758-0.423,1.24l-1.497,0.482l8.154-14.729
		c0.105-0.292,0.197-0.807,0.277-1.543L42.707,40.288z"/>
</g>
<g>
	<path fill="#FF0000" d="M57.833,18.147c-0.544,1.406-1.6,3.318-3.168,5.736l-0.342-0.45c1.373-2.52,2.263-4.355,2.67-5.502
		c0.406-1.146,0.755-2.385,1.043-3.716c0.287-1.329,0.372-2.356,0.253-3.08l0.245-0.141l1.504,2.083
		c-0.443,0.208-0.785,0.753-1.026,1.637C58.769,15.598,58.376,16.741,57.833,18.147z M61.271,33.634l-0.261,0.043l-1.396-2.505
		c0.182-0.705,0.238-1.271,0.168-1.699c-0.07-0.427-0.324-1.972-0.762-4.635s-0.69-4.207-0.761-4.635
		c-0.07-0.427-0.277-1.321-0.62-2.683l0.262-0.043l1.542,1.772c-0.157,0.499-0.196,0.979-0.121,1.438
		c0.075,0.461,0.572,3.485,1.49,9.072L61.271,33.634z M62.068,16.185c-0.232,0.038-0.587,0.232-1.066,0.581l-1.483-0.87
		l10.422-2.928c0.22-0.103,0.56-0.396,1.017-0.876l1.539,0.659l0.151,0.38L62.068,16.185z M70.153,16.983l0.135,0.282l-5.368,1.591
		c-0.28,0.113-0.601,0.336-0.963,0.664l-1.571-0.856l5.456-1.605c0.163-0.093,0.508-0.353,1.034-0.778L70.153,16.983z
		 M71.155,20.363l0.136,0.281l-5.717,1.648c-0.28,0.114-0.63,0.341-1.05,0.679l-1.571-0.856l5.804-1.663
		c0.221-0.103,0.623-0.371,1.209-0.806L71.155,20.363z M66.057,32.848l-0.348,0.057l-1.265-1.717
		c0.235-0.377,0.335-0.678,0.297-0.91c-0.038-0.229-0.143-0.87-0.316-1.923c-0.172-1.05-0.313-1.721-0.419-2.007
		c-0.106-0.286-0.42-0.926-0.941-1.921l0.333-0.155l1.564,1.363C65.536,28.781,65.902,31.184,66.057,32.848z M63.696,9.233
		l0.125-0.324c1.079,0.769,1.788,1.361,2.125,1.778c0.336,0.417,0.518,0.708,0.545,0.872c0.027,0.165-0.068,0.669-0.287,1.516
		l-0.348,0.057C65.327,11.734,64.608,10.435,63.696,9.233z M64.379,26.439l-0.233-0.873l5.891-1.677
		c0.221-0.103,0.51-0.522,0.866-1.256l1.119,0.829c-0.356,0.734-0.51,1.248-0.461,1.544s0.159,1.51,0.33,3.642l-0.957,0.158
		l-0.403-4.086L64.379,26.439z M65.011,30.285l5.559-1.521c0.209-0.169,0.606-0.47,1.192-0.905l1.118,0.829l0.136,0.281
		l-7.843,2.301L65.011,30.285z"/>
</g>
<g>
	<path fill="#FF0000" d="M111.447,42.533c0.256,0.014,0.512-0.049,0.764-0.186s1.595-1.236,4.026-3.297
		c2.431-2.062,3.755-3.184,3.969-3.365s0.646-0.663,1.294-1.443l0.371,0.146l-0.233,2.044c-0.392,0.022-0.712,0.103-0.964,0.24
		c-0.253,0.137-1.5,1.156-3.74,3.056c-2.24,1.9-3.468,2.939-3.682,3.121c-0.215,0.183-1.07,0.791-2.566,1.83l-0.285-0.336
		L111.447,42.533z M118.477,44.302c-1.684,0.044-3.705-0.165-6.063-0.627l0.301-0.37c2.473,0.211,4.459,0.258,5.957,0.141
		c1.499-0.117,3.066-0.37,4.703-0.759l0.598,0.995C121.992,44.052,120.16,44.258,118.477,44.302z M116.682,48.708
		c0.305-0.027,0.582-0.11,0.835-0.247c0.252-0.137,1.583-1.226,3.99-3.268c2.407-2.039,3.72-3.172,3.94-3.397
		c0.219-0.225,0.61-0.729,1.174-1.515l0.299,0.208l-0.361,2.037c-0.354,0.068-0.635,0.173-0.844,0.311
		c-0.21,0.14-1.613,1.312-4.211,3.514c-2.6,2.203-4.531,3.764-5.799,4.685l-0.229-0.269L116.682,48.708z M127.097,33.594
		c-0.249,0.094-0.771,0.229-1.563,0.402c-0.797,0.173-1.885,0.387-3.27,0.637c-1.385,0.252-3.447,0.309-6.186,0.17l0.058-0.512
		c2.464-0.088,4.434-0.279,5.909-0.568c1.475-0.289,2.805-0.629,3.99-1.019s2.111-0.866,2.779-1.433l0.242,0.14l-0.904,2.267
		C127.695,33.526,127.344,33.499,127.097,33.594z M119.876,38.85c5.398,5.111,8.15,7.682,8.255,7.707
		c0.104,0.027,0.402,0.137,0.898,0.335l0.039,1.351l-0.158,0.249l-7.813-7.332c-0.191-0.226-0.614-0.481-1.269-0.771L119.876,38.85z
		 M124.43,53.789l-0.286,0.242l-2.349-2.045l2.25-8.944l0.441,0.665c-0.444,1.99-0.787,3.856-1.029,5.601
		C123.215,51.051,123.538,52.545,124.43,53.789z M124.529,38.249c0.219-0.032,0.395-0.065,0.528-0.103
		c0.132-0.036,0.659-0.502,1.581-1.396c0.92-0.896,1.646-1.802,2.183-2.717l0.386,0.02l-0.404,1.843
		c-2.148,2.203-3.807,3.726-4.979,4.565l-0.227-0.268L124.529,38.249z M129.071,42.012c0.151,0.178,0.53,0.432,1.14,0.764
		l0.196,1.102l-0.286,0.242l-5.51-4.902l0.716-0.607L129.071,42.012z M128.518,35.56l4.086,3.804
		c0.273,0.229,0.824,0.299,1.654,0.212l-0.162,1.405c-0.686-0.035-1.074-0.012-1.17,0.069s-1.148,0.819-3.159,2.217l-0.769-0.616
		l3.303-2.339l-4.498-4.146L128.518,35.56z"/>
</g>
<g>
	<path fill="#FF0000" d="M81.336,13.22c0,0.283-0.176,1.616-0.526,3.998c-0.35,2.383-0.954,4.596-1.813,6.64
		c-0.858,2.044-2.397,4.076-4.617,6.098l-0.319-0.412c2.133-2.345,3.537-4.519,4.209-6.52c0.672-2.002,1.186-4.209,1.539-6.622
		c0.354-2.414,0.535-3.809,0.547-4.185c0.01-0.376-0.057-1.294-0.199-2.756l0.369-0.055l0.934,2.271
		C81.379,12.423,81.336,12.937,81.336,13.22z M80.813,20.942l6.717,0.071c0.245-0.034,0.685-0.176,1.318-0.422l1.175,0.883
		l-0.051,0.466l-6.806-0.081c-0.307,0.029-0.709,0.111-1.208,0.246L80.813,20.942z M90.541,28.415l1.725-15.844l-11.268-0.002
		l0.102-0.932l10.719,0.036c0.246-0.035,0.674-0.335,1.279-0.898l1.057,1.152c-0.613,0.626-0.932,1.047-0.956,1.264
		c-0.023,0.218-0.62,5.701-1.792,16.449c-0.188,1.173-0.522,2.018-1.002,2.531l-3.078-3.447l0.131-0.362l2.621,1.794
		C90.318,29.617,90.473,29.037,90.541,28.415z M81.57,16.498l6.447,0.043c0.245-0.035,0.686-0.177,1.318-0.423l1.176,0.883
		l-0.051,0.466l-6.627-0.062c-0.307,0.03-0.709,0.111-1.208,0.246L81.57,16.498z M87.037,12.19
		c-1.076,9.879-1.803,15.993-2.179,18.34l-0.45-0.049l-0.623-2.614c0.373-0.65,0.58-1.162,0.621-1.535
		c0.041-0.372,0.559-5.126,1.553-14.259L87.037,12.19z"/>
</g>
<g>
	<defs>
		<rect id="SVGID_3_" width="154" height="154"/>
	</defs>
	<clipPath id="SVGID_4_">
		<use xlink:href="#SVGID_3_"  overflow="visible"/>
	</clipPath>
	<polygon clip-path="url(#SVGID_4_)" fill="#FF0000" points="84.37,101.506 73.79,85.618 56.121,90.934 66.599,76.288 
		57.641,61.182 73.968,66.679 85.338,52.905 85.361,70.701 101.729,76.656 85.287,82.429 	"/>
</g>
<g>
	<path fill="#FF0000" d="M42.25,32.876l-0.765,0.649l-4.776-6.04c-0.373-0.426-0.951-0.937-1.736-1.532l0.244-0.285l1.698,0.528
		L42.25,32.876z M41.035,18.625l0.297-0.208l1.86,0.758c-0.497,0.347-1.204,1.262-2.124,2.744c-0.92,1.484-2.236,3.165-3.947,5.047
		l-0.524-0.434c1.689-2.019,2.866-3.663,3.532-4.929C40.793,20.339,41.096,19.347,41.035,18.625z M38.486,36.996l-1.559-0.169
		l13.463-11.473c0.197-0.138,0.363-0.483,0.496-1.034l1.45,0.016l0.215,0.307l-13.388,11.42
		C38.915,36.238,38.689,36.549,38.486,36.996z M38.411,28.812l6.253-5.63c0.126-0.241,0.323-0.646,0.59-1.214l1.547-0.166
		l0.215,0.307l-8.121,7.394L38.411,28.812z M44.081,37.316c0.168,0.188,0.742,0.931,1.724,2.227l6.922-6.099l0.462,0.821
		c-4.354,3.806-6.595,5.773-6.726,5.904c-0.131,0.129-0.252,0.537-0.361,1.225l-1.281-0.248c0.074-0.738,0.059-1.185-0.049-1.338
		c-0.107-0.154-0.393-0.507-0.854-1.062c-0.461-0.554-0.799-0.929-1.009-1.125c-0.211-0.196-0.801-0.564-1.771-1.107l0.19-0.362
		l2.347,0.189C43.777,36.804,43.912,37.13,44.081,37.316z M42.809,25.279l0.817-0.572l3.116,4.456l-0.818,0.572L42.809,25.279z
		 M46.963,32.727c0.136,0.248,1.064,1.601,2.783,4.06l-0.764,0.649l-3.116-4.456c-0.322-0.461-0.895-1.014-1.716-1.661l0.063-0.386
		l2.521,0.754C46.75,32.132,46.826,32.479,46.963,32.727z M52.811,32.298c0.541,0.88,1.105,1.953,1.697,3.218l-0.299,0.208
		l-1.563-0.967c-0.074-0.634-0.17-1.062-0.289-1.285c-0.117-0.221-0.407-0.687-0.865-1.396c-0.459-0.708-0.76-1.165-0.902-1.371
		c-0.143-0.204-0.594-0.69-1.352-1.458l0.244-0.285l2.189,0.756c-0.068,0.431-0.031,0.748,0.111,0.952
		C51.928,30.877,52.268,31.419,52.811,32.298z"/>
</g>
<g>
	<path fill="#FF0000" d="M94.953,29.953l0.343-0.23l1.003,2.156c0.294-0.26,0.604-0.656,0.932-1.189l8.09-13.184
		c0.621-1.012,1.038-1.966,1.252-2.863l0.318-0.023l0.291,2.488c-0.409,0.117-0.686,0.295-0.832,0.534s-3.082,5.021-8.801,14.343
		c-0.41,0.556-0.998,1.295-1.766,2.217l-0.367-0.225L94.953,29.953z M96.573,25.007l-0.415-1.465l9.084,1.505l-0.172,0.443
		C100.155,25.043,97.322,24.881,96.573,25.007z M98.062,32.3l10.308,4.784c0.243,0.15,0.715,0.258,1.419,0.322l0.587,1.35
		l-0.221,0.194l-10.6-4.964c-0.196-0.121-0.539-0.221-1.028-0.301L98.062,32.3z M99.811,18.414c3.785,1.736,5.723,2.615,5.814,2.633
		c0.089,0.019,0.395,0.041,0.918,0.068l0.636,1.27l-0.22,0.195l-5.533-2.516c-0.197-0.121-0.539-0.221-1.029-0.301L99.811,18.414z
		 M102.838,30.281c0.408-0.336,0.681-0.59,0.822-0.762c0.137-0.171,1.023-1.697,2.658-4.582c1.635-2.883,2.51-4.417,2.625-4.604
		c0.113-0.187,0.367-0.929,0.761-2.228l0.366,0.225l-0.148,2.219c-3.76,6.566-6.137,10.497-7.133,11.792l-0.221-0.136
		L102.838,30.281z M103.818,30.002l4.578,1.93c0.194,0.12,0.643,0.213,1.346,0.277l0.44,0.93l-0.245,0.398l-6.561-2.815
		L103.818,30.002z M111.338,27.138l-0.122,0.364l-4.872-2.109l0.441-0.719l2.814,1.178c0.245,0.15,0.597,0.184,1.053,0.096
		L111.338,27.138z M109.481,20.278l5.313,2.38c0.245,0.15,0.742,0.053,1.494-0.293l0.415,1.465
		c-0.801,0.316-1.249,0.553-1.348,0.713c-0.098,0.16-2.076,2.943-5.932,8.35l-0.906-0.336l6.276-8.908l-5.754-2.65L109.481,20.278z"
		/>
</g>
<g>
	<path fill="#FF0000" d="M128.207,57.09c2.904-0.753,4.447-1.153,4.628-1.2c0.182-0.047,0.643-0.259,1.386-0.635l0.201,0.405
		l-0.435,0.938l-10.073,2.611l-3.13,0.629l-0.089-0.343l1.705-1.268c0.544,0.102,0.922,0.128,1.133,0.073
		S125.303,57.842,128.207,57.09z M125.967,66.006l9.801-2.54l-2.664-6.913l0.817-0.212l2.553,6.483
		c0.134,0.271,0.54,0.594,1.219,0.967l-0.731,1.29c-0.692-0.433-1.161-0.616-1.402-0.554c-0.242,0.063-3.57,0.926-9.982,2.588
		c-0.982,0.193-1.896,0.277-2.743,0.253l2.059-4.015l0.386-0.008l-0.716,2.842C125.015,66.191,125.481,66.132,125.967,66.006z
		 M134.775,55.341c2.646,0.871,4.547,1.354,5.703,1.453c1.154,0.097,2.224,0.049,3.207-0.145l0.089,0.343l-1.889,1.681
		c-0.361-0.396-0.977-0.648-1.843-0.759c-0.869-0.11-2.687-0.647-5.454-1.609c-2.768-0.964-5.618-2.62-8.553-4.975l0.387-0.375
		C129.343,53.007,132.128,54.469,134.775,55.341z M128.046,57.59l1.343,3.682c0.209,0.313,0.509,0.723,0.9,1.232l-0.393,1.477
		l-0.362,0.095l-2.305-6.274L128.046,57.59z M130.95,56.836l1.342,3.683c0.21,0.313,0.473,0.702,0.788,1.171l-0.347,1.28
		l-0.362,0.094l-2.238-6.016L130.95,56.836z M134.762,50.993l0.687-1.462l5.367,15.1c0.118,0.213,0.411,0.595,0.878,1.147
		l-0.527,1.327l-0.363,0.094l-5.322-14.927C135.406,51.984,135.166,51.559,134.762,50.993z"/>
</g>
<g>
	<path fill="#FF0000" d="M123.387,73.412l0.039-0.343l2.322-0.521c0.408,0.277,0.768,0.435,1.079,0.47
		c0.311,0.035,2.935,0.331,7.872,0.887c4.938,0.557,7.5,0.845,7.687,0.867c0.186,0.021,0.912-0.015,2.181-0.103l0.157,0.278
		l-2.165,0.799l-16.303-1.837L123.387,73.412z M126.082,86.746c-1.061,0.75-1.766,1.856-2.119,3.322l-0.467-0.052l0.201-3.452
		c7.077-3.082,10.783-4.721,11.12-4.914l0.109,0.707C130.09,84.533,127.142,85.998,126.082,86.746z M123.706,79.789l1.224-0.816
		l2.881,4.58l-0.495,0.205C125.386,81.338,124.185,80.018,123.706,79.789z M125.148,80.387l-0.453-1.007l17.234,1.942
		c0.311,0.035,0.976-0.007,1.996-0.122l0.156,0.278l-1.792,0.84L125.148,80.387z M130.586,84.04
		c0.851,1.368,1.491,2.253,1.918,2.647c0.428,0.396,0.969,0.746,1.627,1.053l-0.132,0.333l-2.107,0.284
		c-0.011-0.467-0.161-0.945-0.451-1.441c-0.29-0.497-0.774-1.361-1.452-2.596L130.586,84.04z M134.987,78.889
		c-0.604,0.048-1.303-0.031-2.096-0.236c-0.796-0.205-1.688-0.653-2.68-1.343l2.747-1.776l0.354,0.214l-1.208,1.513
		c0.408,0.277,0.857,0.474,1.349,0.587c0.49,0.111,1.035,0.16,1.636,0.141c0.599-0.02,1.468-0.342,2.608-0.966l4.17,1.512
		l-0.211-3.151l0.838,0.094l0.156,2.798c0.036,0.234,0.34,0.616,0.909,1.146l-1.131,0.828c-0.453-0.457-0.767-0.738-0.943-0.846
		c-0.176-0.106-1.434-0.668-3.772-1.685C136.499,78.452,135.59,78.84,134.987,78.889z M135.757,86.707l-0.916,0.593l-0.279-0.032
		l-0.03-6.432l0.932,0.104l-0.101,4.246C135.398,85.42,135.529,85.928,135.757,86.707z M142.338,81.89l0.027,4.781
		c0.098,0.241,0.422,0.712,0.973,1.413l-1.308,0.721c-0.434-0.629-0.775-0.942-1.026-0.941c-0.252,0.001-2.25-0.413-5.992-1.24
		l0.004-0.868l6.463,1.251l0.021-5.211L142.338,81.89z M139.199,81.275l-0.129,1.983c0.029,0.292,0.202,0.718,0.517,1.274
		l-0.88,1.116l-0.373-0.042l0.008-4.254L139.199,81.275z"/>
</g>
<g>
	<path fill="#FF0000" d="M118.243,103.825c-0.206,0.006-0.789-0.384-1.746-1.164l0.169-0.396c2.074,0.075,4.363-0.191,6.867-0.803
		l0.004,0.467C120.213,103.188,118.449,103.82,118.243,103.825z M120.526,92.986l1.75-0.279c-0.04,0.729,0.468,1.849,1.522,3.357
		s2.099,2.764,3.133,3.766c1.033,1.002,2.062,1.815,3.087,2.439l-0.101,0.236l-2.475,0.064c0.02-0.365-0.49-1.082-1.53-2.146
		c-1.039-1.067-2.488-3.088-4.345-6.059l-2.541,8.815l-0.723-0.216c1.477-5.846,2.205-8.864,2.186-9.06
		C120.472,93.71,120.484,93.404,120.526,92.986z M125.535,107.874c-1.57,0.417-2.78,1.381-3.627,2.888l-0.432-0.185l1.446-3.866
		l13.757-0.943l-0.573,1.342c-0.53-0.352-0.878-0.53-1.044-0.539s-1.403,0.102-3.709,0.332
		C129.047,107.131,127.107,107.454,125.535,107.874z M130.029,97.23c-0.755-1.256-1.567-3.254-2.437-5.991l0.565-0.131
		c0.96,2.525,1.899,4.421,2.821,5.687c0.921,1.266,1.763,2.355,2.526,3.273s1.547,1.549,2.353,1.893l-0.169,0.396l-2.406-0.095
		c0.077-0.34-0.257-0.949-1.003-1.828S130.783,98.486,130.029,97.23z"/>
</g>
<g>
	<path fill="#FF0000" d="M104.378,114.678l0.245-0.223l5.02,0.514l0.066,0.32l-3.456,0.6c0.297,0.572,0.563,1.008,0.793,1.306
		c0.232,0.296,3.745,4.196,10.542,11.702l6.026-6.596c0.204-0.186,0.403-0.535,0.603-1.052l1.486,0.045l-7.184,7.896
		c-0.162,0.147-0.176,0.622-0.039,1.428l-1.486-0.045c-0.01-0.668-0.131-1.127-0.361-1.381c-0.23-0.256-2.004-2.213-5.316-5.872
		c-3.314-3.66-5.162-5.741-5.541-6.24C105.398,116.58,104.932,115.778,104.378,114.678z M111.35,117.345l4.499-5.214l0.63,0.695
		l-3.163,3.623c-0.12,0.277-0.34,0.688-0.661,1.231l-1.053-0.058L111.35,117.345z M116.344,120.283
		c-0.121,0.193-0.154,0.646-0.104,1.358l-1.238-0.017c-0.01-0.668-0.108-1.104-0.297-1.312c-0.189-0.208-1.041-1.271-2.555-3.188
		l0.671-0.607l2.712,3.361l3.46-4.398l0.63,0.695L116.344,120.283z M119.193,116.438l-2.893-3.071l-1.827-2.14l0.245-0.223
		l1.744,0.823c0.131,0.471,0.333,0.837,0.604,1.099c0.272,0.258,0.755,0.749,1.446,1.473c0.691,0.721,1.1,1.133,1.225,1.23
		c0.125,0.096,0.564,0.438,1.314,1.022l-0.305,0.276L119.193,116.438z M121.879,118.053c0.205-0.184,0.406-0.492,0.604-0.926
		l1.484-0.08l-5.842,6.555c-0.12,0.193-0.32,0.586-0.601,1.177l-1.236,0.108l-0.313-0.224L121.879,118.053z"/>
</g>
<g>
	<path fill="#FF0000" d="M15.74,108.81c0.342-0.191,0.736-0.23,1.183-0.117c0.447,0.114,1.09,0.208,1.931,0.282
		s1.456,0.078,1.847,0.01c0.391-0.066,0.685-0.188,0.882-0.363c0.197-0.174,0.309-0.396,0.338-0.662
		c0.028-0.268-0.043-0.508-0.214-0.723s-0.401-0.377-0.688-0.484c-0.288-0.108-0.62-0.118-0.997-0.027l-0.307-0.688
		c0.615-0.152,1.127-0.166,1.534-0.041c0.407,0.123,0.741,0.363,1.005,0.721c0.163,0.204,0.286,0.404,0.367,0.6
		c0.081,0.196,0.121,0.426,0.122,0.689c0,0.264-0.08,0.533-0.242,0.811c-0.163,0.275-0.423,0.508-0.783,0.695
		c-0.36,0.188-0.874,0.28-1.542,0.279c-0.668,0-1.789-0.109-3.36-0.33l1.533,2.357l-0.589,0.383l-2.151-3.307L15.74,108.81z"/>
</g>
<g>
	<path fill="#FF0000" d="M34.87,126.12c-0.476,0.063-1.014,0.057-1.618-0.012l0.453-0.589c0.785,0.046,1.526-0.04,2.222-0.261
		l0.372,0.286l-4.099,5.323l-0.619-0.477L34.87,126.12z"/>
</g>
<g>
	<path fill="#FF0000" d="M25.434,114.064c-0.473-0.078-0.988-0.237-1.545-0.479l0.603-0.432c0.739,0.27,1.474,0.4,2.204,0.39
		l0.273,0.381l-5.458,3.917l-0.455-0.635L25.434,114.064z"/>
</g>
<g>
	<path fill="#FF0000" d="M26.957,119.899c0.486-0.488,0.929-0.824,1.328-1.006c0.397-0.183,0.8-0.264,1.207-0.242
		c0.406,0.021,0.777,0.185,1.112,0.494c0.334,0.309,0.498,0.717,0.492,1.224c-0.008,0.507-0.167,1.007-0.479,1.499
		c-0.313,0.49-0.734,0.996-1.266,1.516c-0.532,0.52-1.039,0.875-1.519,1.07c-0.481,0.193-0.946,0.209-1.394,0.041
		c-0.45-0.166-0.762-0.48-0.937-0.943c-0.177-0.463-0.208-0.89-0.093-1.281c0.112-0.392,0.277-0.762,0.494-1.111
		C26.117,120.81,26.469,120.39,26.957,119.899z M27.718,120.284c-0.543,0.474-0.957,0.959-1.241,1.459
		c-0.285,0.5-0.396,0.938-0.334,1.313c0.061,0.375,0.255,0.616,0.582,0.723s0.688,0.05,1.085-0.168
		c0.396-0.22,0.768-0.515,1.112-0.888s0.643-0.727,0.897-1.059c0.253-0.332,0.423-0.689,0.51-1.071
		c0.085-0.381,0.013-0.687-0.217-0.917c-0.231-0.23-0.552-0.305-0.962-0.225C28.738,119.534,28.261,119.811,27.718,120.284z"/>
</g>
<g>
	<path fill="#FF0000" d="M38.456,130.726c0.409-0.556,0.798-0.952,1.166-1.192c0.366-0.238,0.752-0.377,1.157-0.416
		s0.795,0.068,1.172,0.324c0.377,0.257,0.599,0.637,0.667,1.139c0.067,0.503-0.018,1.021-0.253,1.553
		c-0.236,0.532-0.579,1.094-1.028,1.686s-0.898,1.02-1.345,1.283c-0.446,0.262-0.904,0.346-1.372,0.246
		c-0.469-0.098-0.824-0.363-1.065-0.795c-0.242-0.432-0.335-0.85-0.281-1.254s0.163-0.795,0.326-1.172
		C37.76,131.749,38.046,131.281,38.456,130.726z M39.266,130.994c-0.468,0.548-0.805,1.09-1.012,1.626
		c-0.208,0.536-0.254,0.985-0.138,1.347c0.116,0.363,0.343,0.573,0.683,0.631c0.338,0.057,0.688-0.053,1.048-0.327
		c0.36-0.274,0.683-0.622,0.969-1.042s0.529-0.813,0.731-1.18c0.202-0.365,0.317-0.744,0.346-1.134
		c0.029-0.39-0.088-0.681-0.349-0.876c-0.262-0.193-0.59-0.219-0.985-0.079C40.164,130.102,39.733,130.445,39.266,130.994z"/>
</g>
<g>
	<path fill="#FF0000" d="M44.472,137.223l0.685,0.199c-0.054,0.35-0.022,0.676,0.093,0.977c0.116,0.302,0.334,0.523,0.657,0.662
		c0.322,0.142,0.636,0.133,0.943-0.022c0.306-0.156,0.523-0.398,0.652-0.727c0.129-0.328,0.124-0.634-0.014-0.917
		c-0.14-0.283-0.437-0.578-0.896-0.886l0.22-0.458c0.516,0.19,0.935,0.232,1.26,0.129c0.324-0.104,0.556-0.331,0.697-0.684
		c0.14-0.351,0.106-0.67-0.102-0.959c-0.208-0.287-0.499-0.449-0.872-0.484c-0.374-0.034-0.784,0.172-1.231,0.622l-0.582-0.41
		c0.344-0.354,0.706-0.614,1.088-0.777c0.382-0.163,0.795-0.166,1.241-0.011c0.445,0.157,0.789,0.388,1.033,0.692
		c0.243,0.306,0.354,0.646,0.33,1.025s-0.173,0.734-0.446,1.064c-0.275,0.33-0.703,0.528-1.284,0.596
		c0.26,0.299,0.412,0.632,0.452,0.998s-0.08,0.764-0.357,1.193c-0.279,0.429-0.662,0.7-1.149,0.813s-0.953,0.056-1.392-0.171
		c-0.441-0.226-0.76-0.553-0.958-0.98C44.339,138.279,44.316,137.784,44.472,137.223z"/>
</g>
<g>
	<path fill="#FF0000" d="M52.465,138.968c0.258-0.641,0.535-1.122,0.831-1.445c0.295-0.322,0.635-0.553,1.017-0.692
		c0.382-0.139,0.788-0.132,1.216,0.022s0.738,0.467,0.93,0.936c0.19,0.471,0.237,0.993,0.143,1.567
		c-0.096,0.574-0.288,1.204-0.576,1.89c-0.289,0.685-0.616,1.21-0.982,1.576s-0.79,0.561-1.268,0.582
		c-0.478,0.021-0.889-0.146-1.229-0.505c-0.342-0.357-0.537-0.739-0.585-1.144c-0.049-0.404-0.041-0.81,0.022-1.217
		C52.047,140.132,52.207,139.608,52.465,138.968z M53.317,139.024c-0.316,0.648-0.508,1.258-0.574,1.828
		c-0.068,0.571,0,1.017,0.203,1.339c0.202,0.322,0.475,0.469,0.817,0.439c0.343-0.028,0.654-0.222,0.935-0.577
		c0.279-0.356,0.506-0.773,0.678-1.251s0.31-0.919,0.414-1.324s0.122-0.8,0.053-1.185s-0.256-0.639-0.557-0.762
		c-0.303-0.121-0.627-0.065-0.974,0.169C53.963,137.937,53.632,138.378,53.317,139.024z"/>
</g>
<g>
	<path fill="#FF0000" d="M59.823,141.344c0.188-0.664,0.411-1.173,0.671-1.526c0.259-0.352,0.571-0.618,0.937-0.798
		c0.364-0.179,0.769-0.216,1.212-0.109c0.442,0.107,0.784,0.386,1.025,0.831c0.24,0.447,0.343,0.961,0.31,1.542
		c-0.034,0.582-0.156,1.229-0.369,1.94c-0.212,0.712-0.481,1.27-0.807,1.674c-0.326,0.403-0.725,0.643-1.198,0.715
		c-0.473,0.073-0.899-0.05-1.276-0.369c-0.379-0.319-0.614-0.677-0.705-1.075c-0.092-0.396-0.128-0.8-0.109-1.212
		C59.532,142.546,59.635,142.009,59.823,141.344z M60.675,141.309c-0.244,0.679-0.369,1.304-0.374,1.879
		c-0.006,0.575,0.11,1.011,0.346,1.31c0.236,0.298,0.522,0.415,0.86,0.349c0.337-0.065,0.626-0.291,0.867-0.675
		c0.24-0.384,0.42-0.822,0.54-1.316c0.12-0.493,0.209-0.946,0.269-1.361c0.06-0.414,0.035-0.809-0.075-1.184
		c-0.111-0.375-0.323-0.606-0.635-0.696c-0.313-0.089-0.631,0.002-0.95,0.272C61.202,140.156,60.919,140.631,60.675,141.309z"/>
</g>
<g>
	<path fill="#FF0000" d="M68.706,146.909c0.604-0.942,1.103-1.8,1.494-2.567c-0.655,0.082-1.191-0.021-1.612-0.309
		c-0.42-0.288-0.668-0.668-0.743-1.139c-0.075-0.472-0.055-0.895,0.063-1.269c0.117-0.373,0.29-0.68,0.52-0.921
		c0.229-0.239,0.502-0.406,0.818-0.5c0.316-0.093,0.598-0.136,0.845-0.128c0.247,0.009,0.499,0.07,0.756,0.183
		c0.256,0.113,0.485,0.277,0.687,0.492c0.201,0.216,0.337,0.436,0.407,0.659c0.071,0.223,0.1,0.511,0.088,0.862
		s-0.157,0.796-0.436,1.333c-0.279,0.538-0.955,1.648-2.028,3.332L68.706,146.909z M68.638,142.53
		c0.028,0.34,0.161,0.624,0.401,0.854c0.239,0.229,0.503,0.337,0.791,0.319c0.287-0.016,0.517-0.086,0.691-0.211
		c0.173-0.124,0.343-0.339,0.51-0.646c0.117-0.387,0.154-0.718,0.112-0.993c-0.043-0.275-0.172-0.507-0.387-0.696
		c-0.215-0.189-0.453-0.289-0.713-0.298c-0.155-0.031-0.359,0.001-0.609,0.097s-0.453,0.297-0.606,0.604
		C68.673,141.866,68.611,142.191,68.638,142.53z"/>
</g>
<g>
	<path fill="#FF0000" d="M75.498,144.75c0.009-0.378,0.066-0.7,0.172-0.967c0.105-0.265,0.267-0.598,0.483-0.998l1.487-2.569
		l0.897-0.04l-1.522,2.648c0.693-0.213,1.254-0.213,1.681,0.003c0.426,0.216,0.719,0.47,0.875,0.763s0.249,0.615,0.278,0.965
		c0.028,0.351-0.008,0.697-0.11,1.041c-0.102,0.344-0.297,0.658-0.583,0.945c-0.287,0.286-0.697,0.455-1.229,0.505
		c-0.532,0.05-0.992-0.027-1.379-0.231c-0.388-0.204-0.662-0.504-0.822-0.902C75.564,145.516,75.489,145.129,75.498,144.75z
		 M76.766,145.983c0.245,0.237,0.563,0.358,0.955,0.367s0.71-0.135,0.958-0.434c0.247-0.298,0.358-0.72,0.334-1.267
		c-0.024-0.546-0.204-0.916-0.538-1.109c-0.336-0.193-0.703-0.255-1.104-0.186c-0.4,0.07-0.685,0.279-0.852,0.625
		c-0.167,0.348-0.229,0.708-0.187,1.084C76.376,145.439,76.521,145.746,76.766,145.983z"/>
</g>
<g>
	<path fill="#FF0000" d="M86.548,145.023l-2.999,0.237l-0.052-0.661l2.795-4.806l0.584-0.046l0.359,4.557l0.935-0.074l0.052,0.662
		l-0.935,0.073l0.117,1.48l-0.74,0.058L86.548,145.023z M86.495,144.363l-0.242-3.078l-1.938,3.25L86.495,144.363z"/>
</g>
<g>
	<path fill="#FF0000" d="M92.365,143.127c0.296,0.664,0.669,0.998,1.119,1.001c0.449,0.003,0.795-0.1,1.036-0.313
		c0.242-0.212,0.398-0.463,0.468-0.753c0.07-0.289,0.071-0.598,0.003-0.931c-0.07-0.331-0.207-0.599-0.412-0.802
		c-0.206-0.203-0.444-0.322-0.714-0.355c-0.27-0.034-0.559,0.014-0.866,0.145c-0.309,0.132-0.541,0.355-0.699,0.672l-0.668,0.033
		c0.025-0.162,0.084-1.307,0.176-3.436l3.043-0.512l0.117,0.694l-2.466,0.414c-0.013,0.715-0.048,1.289-0.107,1.722
		c0.355-0.244,0.7-0.389,1.037-0.432c0.335-0.043,0.67-0.02,1.002,0.068c0.331,0.09,0.588,0.245,0.771,0.465
		c0.183,0.221,0.326,0.447,0.432,0.68c0.104,0.234,0.175,0.494,0.21,0.777c0.033,0.285,0.024,0.584-0.028,0.896
		c-0.054,0.313-0.167,0.582-0.34,0.809c-0.173,0.229-0.397,0.424-0.673,0.589c-0.276,0.165-0.609,0.269-0.998,0.307
		c-0.39,0.04-0.78-0.041-1.17-0.239s-0.701-0.596-0.932-1.191L92.365,143.127z"/>
</g>
<g>
	<path fill="#FF0000" d="M100.194,141.155c-0.117-0.289-0.159-0.602-0.127-0.938c0.032-0.336,0.183-0.656,0.452-0.963
		c-0.358-0.051-0.628-0.16-0.807-0.326c-0.181-0.165-0.33-0.379-0.449-0.641c-0.12-0.26-0.177-0.503-0.171-0.731
		c0.006-0.228,0.06-0.459,0.16-0.697c0.101-0.236,0.24-0.427,0.422-0.571c0.18-0.143,0.392-0.264,0.633-0.361
		c0.24-0.098,0.468-0.162,0.681-0.192c0.213-0.029,0.46-0.011,0.74,0.058c0.281,0.07,0.528,0.229,0.742,0.479
		s0.345,0.591,0.394,1.021c0.048,0.431-0.114,0.848-0.484,1.25c0.459-0.045,0.824,0.024,1.097,0.209
		c0.271,0.186,0.481,0.458,0.628,0.82s0.21,0.674,0.189,0.935s-0.068,0.491-0.143,0.69c-0.073,0.198-0.208,0.387-0.403,0.563
		c-0.195,0.179-0.468,0.337-0.817,0.479c-0.35,0.142-0.668,0.223-0.956,0.24s-0.551-0.022-0.788-0.123
		c-0.237-0.1-0.433-0.252-0.586-0.458C100.447,141.692,100.312,141.445,100.194,141.155z M99.904,137.943
		c0.098,0.242,0.274,0.437,0.532,0.585c0.256,0.149,0.566,0.149,0.928,0.003c0.362-0.146,0.59-0.365,0.683-0.656
		c0.093-0.29,0.072-0.583-0.063-0.881c-0.134-0.296-0.334-0.476-0.597-0.537c-0.265-0.062-0.566-0.009-0.906,0.156
		c-0.34,0.166-0.546,0.369-0.617,0.608C99.793,137.462,99.807,137.703,99.904,137.943z M100.922,140.818
		c0.104,0.295,0.257,0.528,0.454,0.701c0.195,0.174,0.451,0.232,0.766,0.174c0.314-0.056,0.612-0.185,0.897-0.385
		c0.284-0.199,0.433-0.456,0.446-0.771c0.013-0.314-0.053-0.597-0.197-0.848c-0.143-0.251-0.385-0.413-0.724-0.486
		s-0.661-0.034-0.964,0.116c-0.305,0.152-0.52,0.366-0.646,0.642C100.827,140.239,100.816,140.524,100.922,140.818z"/>
</g>
</svg>
