<?xml version="1.0" encoding="utf-8"?>
<!-- Generator: Adobe Illustrator 15.0.0, SVG Export Plug-In . SVG Version: 6.00 Build 0)  -->
<!DOCTYPE svg PUBLIC "-//W3C//DTD SVG 1.1//EN" "http://www.w3.org/Graphics/SVG/1.1/DTD/svg11.dtd">
<svg version="1.1" id="图层_1" xmlns="http://www.w3.org/2000/svg" xmlns:xlink="http://www.w3.org/1999/xlink" x="0px" y="0px"
	 width="154px" height="154px" viewBox="0 0 154 154" enable-background="new 0 0 154 154" xml:space="preserve">
<g>
	<circle fill="none" stroke="#FF0000" stroke-width="3.5" stroke-miterlimit="10" cx="75.745" cy="77" r="74.745"/>
	<polygon fill="#FF0000" points="98.077,92.216 79.752,86.869 69.652,102.312 68.241,84.36 51.661,78.568 67.695,72.264 
		67.527,54.402 79.004,68.007 95.361,62.026 86.497,77.028 	"/>
	<g>
		<path fill="#FF0000" d="M32.916,111.644c0.031-0.146,0.092-0.266,0.146-0.318c0.07-0.073,0.154-0.061,0.25,0.034l7.796,7.712
			c0.298,0.294,0.477,0.4,0.758,0.501l-0.299,0.878c-0.225-0.329-0.408-0.546-0.677-0.812l-4.694-4.645
			c-2.295,1.282-5.655,3.394-9.664,6.178l0.204-1.396c0.012-0.165,0.072-0.284,0.125-0.338c0.071-0.072,0.163-0.088,0.293-0.065
			c0.279,0.062,0.416,0.021,0.877-0.234c2.249-1.256,5.312-2.951,7.924-4.381l-2.073-2.052l-1.407,0.598L32.916,111.644z
			 M29.655,124.618c1.738-3.256,2.827-4.912,3.555-5.686l0.089-0.091c0.764-0.771,1.599-1.117,1.84-0.879
			c0.096,0.095,0.074,0.251-0.281,0.609c-0.16,0.162-0.962,0.896-1.122,1.058c-1.243,1.257-2.579,2.991-3.84,4.977L29.655,124.618z
			 M33.009,126.337c0.759-2.804,2.028-5.277,2.952-6.211c0.64-0.647,1.404-0.92,1.653-0.673c0.105,0.104-0.179,0.392-0.533,0.751
			c-1.421,1.437-3.017,3.837-3.834,6.084L33.009,126.337z M38.027,113.716c-0.139-4.294,0.013-6.099,1.255-7.356
			c0.498-0.502,1.023-0.765,1.187-0.604c0.067,0.067,0.061,0.132-0.479,1.195c-0.866,1.702-1.389,3.708-1.698,6.635L38.027,113.716z
			 M39.934,114.536c0.023-0.12,0.047-0.202,0.101-0.257c0.054-0.054,0.154-0.06,0.323,0.001c0.281,0.1,0.528,0.061,0.802-0.024
			c1.807-0.559,4.642-1.235,7.32-1.428l-0.128,0.265c-3.508,0.722-5.975,1.622-8.673,2.967L39.934,114.536z"/>
		<path fill="#FF0000" d="M25.712,89.68c0.603-0.716,2.56-2.601,3.893-3.073c0.714-0.253,1.224-0.177,1.287,0.002
			c0.067,0.19-0.253,0.419-1.125,0.758c-0.424,0.165-0.839,0.354-1.287,0.601l2.436,2.401c0.329,0.326,0.823,0.582,1.102,0.611
			c0.08,0,0.113,0.018,0.122,0.043c0.01,0.025-0.029,0.067-0.092,0.118l-0.979,0.864l-1.557-2.041l-6.234,2.216l0.397,1.119
			l1.333-0.474c0.286-0.103,0.446-0.102,0.69,0.055c0.136,0.082,0.215,0.153,0.232,0.204c0.027,0.076-0.059,0.136-0.32,0.229
			c-0.119,0.041-0.243,0.07-0.409,0.13c-0.795,0.254-2.036,0.681-3.036,1.035l-3.76,1.336c-0.571,0.202-1.709,0.622-2.438,0.908
			l0.693-0.99l-0.38-1.069l-1.642,0.583c-1.071,0.38-2.866,1.062-3.852,1.454l0.493-1.249c0.06-0.136,0.084-0.216,0.155-0.242
			c0.071-0.025,0.1-0.021,0.673,0.235l3.95-1.403l-0.33-0.93l-1.141,0.032l0.713-1.084c0.049-0.088,0.111-0.14,0.183-0.166
			c0.048-0.016,0.128-0.016,0.218,0.011l0.585,0.136l3.521-1.251c1.189-0.423,2.085-0.77,2.904-1.104
			c0.095-0.034,0.162-0.071,0.233-0.097c0.286-0.102,0.403-0.072,0.68,0.102c0.14,0.094,0.215,0.152,0.232,0.204
			c0.028,0.076-0.086,0.131-0.276,0.198l-0.929,0.33l0.402,1.132l6.045-2.146l-0.931-1.261c-0.641,0.385-1.349,0.881-2.183,1.548
			L25.712,89.68z M13.585,98.014c0.139-0.136,0.216-0.221,0.288-0.247c0.095-0.032,0.141,0.023,0.182,0.137l1.895,5.33
			c0.096,0.268,0.321,0.603,0.564,0.76l-0.753,0.669c-0.065-0.334-0.132-0.67-0.235-0.963l-1.592-4.478l-1.442-0.061L13.585,98.014z
			 M16.356,98.046c0.054-0.076,0.092-0.118,0.14-0.135s0.104-0.009,0.193,0.017l0.461,0.166l0.69-0.245
			c0.357-0.127,2.028-0.778,2.267-0.862c0.31-0.11,0.423-0.094,0.689,0.056c0.112,0.089,0.187,0.148,0.21,0.212
			c0.036,0.102-0.012,0.119-0.582,0.322l0.962,2.709c0.738-0.262,0.81-0.287,1.091-0.102c0.14,0.094,0.215,0.153,0.228,0.192
			c0.023,0.064-0.044,0.102-0.21,0.161c-0.571,0.202-1.479,0.511-2.051,0.714l-1.452,0.515c-0.547,0.195-1.399,0.512-2.133,0.787
			l0.594-0.971l-0.891-2.505l-0.811,0.058L16.356,98.046z M22.129,90.609l-5.949,2.112l0.402,1.132l5.949-2.111L22.129,90.609z
			 M22.753,92.364l-5.949,2.113l0.397,1.12l5.949-2.114L22.753,92.364z M19.9,97.761l-2.855,1.016l0.963,2.709l2.856-1.014
			L19.9,97.761z M21.998,95.368c0.073-0.097,0.111-0.14,0.159-0.156c0.071-0.025,0.128-0.017,0.193,0.018l0.376,0.153l8.567-3.043
			c1.237-0.44,1.673-0.494,2.376-0.099c0.038,0.028,0.07,0.047,0.08,0.071c0.018,0.051-0.021,0.093-0.136,0.148
			c-0.548,0.267-0.774,0.533-0.997,1.643l-0.398,0.085c0.062-0.652,0.063-1.025-0.004-1.217c-0.086-0.242-0.309-0.19-0.666-0.063
			l-8.828,3.136l1.515,4.262l5.854-2.079c0.643-0.229,3.751-1.361,4.465-1.615c0.286-0.102,0.395-0.097,0.671,0.077
			c0.131,0.068,0.206,0.127,0.225,0.179c0.031,0.088-0.103,0.165-0.459,0.292l-0.215,0.076c-1.294,0.431-3.273,1.12-4.512,1.559
			l-4.188,1.487c-0.881,0.312-2.371,0.871-3.17,1.185l0.76-1.102l-1.419-3.994l-0.933,0.016L21.998,95.368z M27.538,94.819
			c0.124-0.102,0.206-0.174,0.254-0.19c0.096-0.034,0.138,0.009,0.169,0.098l0.507,1.425l1.356-0.482
			c1.213-0.43,1.918-0.709,2.504-0.946c0.071-0.025,0.139-0.063,0.21-0.088c0.285-0.103,0.403-0.072,0.655,0.11
			c0.137,0.081,0.216,0.153,0.233,0.203c0.032,0.09-0.103,0.166-0.459,0.292c-0.833,0.297-2.155,0.724-2.987,1.019l-1.31,0.466
			l0.149,0.42c0.095,0.266,0.354,0.618,0.574,0.784l-0.755,0.669c-0.065-0.335-0.135-0.683-0.239-0.976l-0.397-1.119
			c-1.769,0.228-3.074,0.476-4.21,0.749l0.555-0.927c0.049-0.089,0.088-0.132,0.136-0.148c0.023-0.009,0.057,0.009,0.103,0.063
			c0.125,0.2,0.678,0.246,3.345,0.06l-0.204-0.573l-1.148-0.064L27.538,94.819z M24.798,99.175c0.653-0.877,1.43-1.483,1.905-1.651
			c0.453-0.161,0.911-0.152,0.975,0.026c0.036,0.102-0.012,0.19-0.536,0.376c-0.548,0.194-1.46,0.72-2.174,1.273L24.798,99.175z"/>
		<path fill="#FF0000" d="M25.031,66.579c0.853-0.386,3.431-1.242,4.837-1.094c0.754,0.079,1.181,0.369,1.16,0.558
			c-0.021,0.201-0.409,0.27-1.341,0.197c-0.453-0.034-0.91-0.041-1.421-0.013l1.159,3.218c0.157,0.438,0.492,0.881,0.73,1.028
			c0.072,0.034,0.095,0.063,0.092,0.09c-0.002,0.027-0.056,0.049-0.134,0.067l-1.257,0.357l-0.521-2.513l-6.58-0.692l-0.124,1.181
			l1.406,0.149c0.302,0.03,0.446,0.101,0.599,0.347c0.087,0.132,0.127,0.231,0.122,0.285c-0.009,0.08-0.112,0.096-0.389,0.068
			c-0.126-0.014-0.249-0.041-0.425-0.059c-0.826-0.115-2.131-0.267-3.186-0.377l-3.967-0.417c-0.603-0.064-1.81-0.178-2.591-0.232
			l1.052-0.596l0.119-1.129l-1.732-0.182c-1.13-0.12-3.043-0.28-4.102-0.352l0.984-0.914c0.112-0.098,0.169-0.159,0.245-0.15
			c0.075,0.008,0.099,0.023,0.505,0.501l4.169,0.438l0.104-0.979l-1.043-0.464l1.111-0.67c0.082-0.06,0.16-0.079,0.236-0.07
			c0.05,0.005,0.122,0.039,0.191,0.102l0.469,0.375l3.716,0.393c1.256,0.132,2.213,0.204,3.097,0.257
			c0.1,0.011,0.177,0.006,0.252,0.014c0.302,0.031,0.396,0.109,0.569,0.386c0.086,0.145,0.128,0.23,0.122,0.284
			c-0.008,0.081-0.135,0.081-0.336,0.06l-0.979-0.103l-0.126,1.195l6.378,0.671l-0.295-1.538c-0.743,0.071-1.596,0.211-2.638,0.456
			L25.031,66.579z M10.496,68.864c0.185-0.062,0.29-0.105,0.366-0.097c0.101,0.011,0.118,0.079,0.105,0.201l-0.592,5.628
			c-0.03,0.282,0.03,0.683,0.181,0.929l-0.968,0.279c0.085-0.331,0.171-0.662,0.204-0.971l0.497-4.729l-1.274-0.678L10.496,68.864z
			 M12.982,70.091c0.081-0.047,0.134-0.068,0.185-0.062c0.05,0.005,0.097,0.037,0.167,0.099l0.345,0.35l0.728,0.075
			c0.377,0.04,2.165,0.175,2.416,0.2c0.326,0.035,0.422,0.1,0.599,0.349c0.062,0.13,0.104,0.215,0.098,0.282
			c-0.012,0.107-0.062,0.103-0.665,0.039l-0.301,2.861c0.778,0.081,0.854,0.089,1.026,0.379c0.087,0.145,0.129,0.23,0.124,0.271
			c-0.007,0.066-0.084,0.072-0.259,0.055c-0.604-0.064-1.556-0.179-2.159-0.242l-1.531-0.161c-0.578-0.061-1.483-0.143-2.264-0.211
			l0.954-0.619l0.278-2.646l-0.756-0.297L12.982,70.091z M16.302,71.363l-3.014-0.316l-0.301,2.86l3.014,0.317L16.302,71.363z
			 M21.203,67.724l-6.277-0.66l-0.124,1.182l6.277,0.66L21.203,67.724z M21.398,65.87l-6.278-0.661l-0.125,1.195l6.278,0.661
			L21.398,65.87z M19.226,70.11c0.108-0.058,0.161-0.078,0.212-0.074c0.075,0.009,0.122,0.04,0.167,0.1l0.272,0.301l9.041,0.952
			c1.306,0.138,1.722,0.276,2.187,0.936c0.021,0.044,0.043,0.073,0.04,0.1c-0.006,0.054-0.059,0.076-0.186,0.076
			c-0.609,0.004-0.93,0.146-1.609,1.053l-0.396-0.097c0.339-0.561,0.501-0.898,0.523-1.099c0.025-0.255-0.197-0.307-0.574-0.346
			l-9.315-0.981l-0.474,4.5l6.178,0.651c0.678,0.071,3.97,0.39,4.724,0.47c0.302,0.031,0.397,0.082,0.571,0.358
			c0.09,0.118,0.131,0.204,0.125,0.258c-0.01,0.094-0.163,0.104-0.54,0.064l-0.226-0.023c-1.354-0.169-3.437-0.402-4.742-0.539
			l-4.42-0.466c-0.929-0.099-2.514-0.237-3.37-0.301l1.161-0.666l0.444-4.218l-0.849-0.388L19.226,70.11z M24.46,72.006
			c0.156-0.039,0.261-0.068,0.312-0.062c0.101,0.011,0.12,0.066,0.109,0.161l-0.158,1.504l1.432,0.151
			c1.28,0.134,2.037,0.187,2.668,0.226c0.075,0.009,0.152,0.003,0.228,0.012c0.301,0.03,0.395,0.109,0.543,0.383
			c0.088,0.131,0.128,0.229,0.122,0.284c-0.01,0.094-0.162,0.105-0.539,0.065c-0.879-0.093-2.256-0.278-3.136-0.371l-1.38-0.146
			l-0.047,0.443c-0.03,0.281,0.052,0.711,0.178,0.955l-0.968,0.278c0.085-0.33,0.173-0.673,0.205-0.982l0.124-1.183
			c-1.692-0.559-2.978-0.897-4.12-1.14l0.901-0.598c0.082-0.06,0.135-0.081,0.185-0.075c0.025,0.002,0.048,0.032,0.065,0.102
			c0.026,0.233,0.505,0.515,2.991,1.496l0.064-0.604l-1.009-0.554L24.46,72.006z M20.109,74.752
			c0.967-0.509,1.929-0.721,2.431-0.667c0.478,0.051,0.888,0.256,0.867,0.444c-0.011,0.107-0.093,0.167-0.646,0.107
			c-0.578-0.061-1.627,0.02-2.51,0.212L20.109,74.752z"/>
		<path fill="#FF0000" d="M16.066,46.109c0.903-0.792,1.73-1.169,2.697-0.573c0.431,0.266,0.768,0.633,0.668,0.794
			c-0.035,0.058-0.1,0.064-0.443-0.004c-1.008-0.241-1.693-0.283-2.742-0.026L16.066,46.109z M24.126,38.196
			c0.064-0.008,0.144,0.009,0.165,0.021c0.064,0.04,0.064,0.088,0.029,0.193c-0.178,0.383-0.082,0.854,1.234,2.952l-0.229,0.033
			l-1.823-2.142l-2.555,4.138c1.086,1.464,1.74,2.423,2.366,3.571l-0.25,0.021c-1.358-1.887-3.225-4.054-5.233-6.041l1.271-0.278
			c0.078-0.031,0.156-0.015,0.2,0.012c0.043,0.027,0.064,0.089,0.064,0.184c-0.005,0.393,0.017,0.454,0.261,0.779l0.963,1.277
			l2.392-3.874l-0.497-0.83L24.126,38.196z M18.749,43.639l3.203,3.993c0.754,0.941,1.191,1.339,1.686,1.645
			c0.193,0.119,1.167,0.608,1.382,0.741c0.752,0.464,0.867,0.806,0.697,1.081c-0.085,0.139-0.299,0.102-0.644-0.111
			c-0.3-0.186-1.647-1.271-1.992-1.483c-0.751-0.466-1.094-0.295-1.983,0.426l-0.273-0.232c0.292-0.327,0.498-0.565,0.626-0.771
			c0.326-0.53,0.146-0.815-0.407-1.602l-2.572-3.668L18.749,43.639z M30.074,40.915c-0.219,0.739-0.11,0.996,0.285,1.51
			c0.028,0.049,0.051,0.11,0.029,0.145c-0.015,0.023-0.051,0.033-0.086,0.043c-2.583,0.771-3.861,0.823-6.328,0.204
			c1.974,2.234,2.562,4.359,1.895,7.028l-0.286-0.114c0.021-3.542-0.536-4.998-3.297-7.544l1.184-0.332
			c0.072-0.019,0.129-0.015,0.15-0.003c0.043,0.026,0.072,0.077,0.087,0.149l0.073,0.505c2.546,0.492,4.493-0.066,6.058-1.736
			L30.074,40.915z M30.609,44.229c0.107-0.028,0.208,0.002,0.272,0.042c0.063,0.039,0.136,0.115,0.179,0.238l0.231,0.587l1.74,1.074
			c0.773,0.478,1.36,0.823,2.006,1.174l0.192,0.12c0.302,0.186,0.395,0.321,0.432,0.6c0.029,0.192,0.045,0.313,0.009,0.37
			c-0.05,0.08-0.192,0.023-0.493-0.162c-0.215-0.132-1.662-1.059-1.984-1.256l-2.686-1.658l-2.98,4.827l3.073,1.896
			c0.666,0.411,1.231,0.744,1.74,1.026c0.064,0.04,0.136,0.067,0.179,0.095c0.451,0.278,0.41,0.826,0.354,0.917
			c-0.057,0.092-0.178,0.049-0.5-0.15l-0.236-0.146c-0.859-0.578-1.39-0.922-2.293-1.479l-1.826-1.128
			c-0.795-0.489-1.296-0.783-2.069-1.213l1.149-0.18l2.81-4.552l-0.625-0.862L30.609,44.229z M30.827,48.254
			c0.071-0.02,0.128-0.016,0.172,0.01c0.043,0.027,0.071,0.077,0.086,0.148l0.138,0.451c4.121,3.083,4.936,4.84,4.026,9.342
			L34.897,58.1c0.236-3.409-0.258-5.303-1.772-6.84c-0.638-0.648-1.941-1.66-3.575-2.668L30.827,48.254z M34.05,50.243
			c1.694-1.351,3.47-2.112,4.356-2.104c0.421-0.01,0.851,0.16,1.151,0.346c0.387,0.239,0.624,0.528,0.553,0.643
			c-0.085,0.139-0.192,0.168-0.528,0.134c-1.2-0.121-3.378,0.232-5.281,1.153L34.05,50.243z"/>
		<path fill="#FF0000" d="M41.938,25.015c0.126,0.07,0.188,0.119,0.23,0.183c0.04,0.063,0.02,0.107-0.071,0.166l-1.842,1.183
			l2.564,3.995l0.812-2.262l0.292,0.231L43.243,31.2l4.704,7.331c0.736,1.147,0.803,1.376,0.464,2.523
			c-0.021,0.043-0.029,0.079-0.052,0.095c-0.035,0.021-0.098-0.028-0.191-0.148c-0.529-0.65-0.829-0.817-2.323-0.819l-0.132-0.305
			c0.837-0.147,1.33-0.254,1.568-0.407c0.318-0.204,0.201-0.488-0.182-1.084l-4.077-6.354c-0.433,1.779-0.437,2.622-0.355,2.899
			c0.048,0.149,0.053,0.207,0.029,0.222c-0.022,0.014-0.059,0.007-0.134-0.035l-1.109-0.728l1.105-3.08l-2.837-4.421l-0.875,0.562
			c-0.239,0.153-0.514,0.45-0.612,0.723l-0.822-0.581c0.312-0.141,0.623-0.28,0.884-0.448l1.126-0.723l-1.173-1.829
			c-0.56-0.87-1.509-2.301-2.036-3.072l1.411,0.323c0.109,0.021,0.171,0.041,0.212,0.104c0.027,0.043,0.034,0.128,0.029,0.222
			l-0.023,0.614l2.114,3.294l0.808-0.518l-0.25-1.341L41.938,25.015z M45.668,19.319c0.098,0.026,0.162,0.075,0.188,0.119
			c0.041,0.062,0.06,0.142,0.032,0.249l-0.111,0.702l4.568,7.118c1.037,1.615,1.905,2.919,2.553,3.853l0.055,0.086
			c0.231,0.361,0.218,0.49,0.102,0.834c-0.048,0.15-0.077,0.23-0.122,0.26c-0.068,0.043-0.148-0.055-0.257-0.226l-0.873-1.36
			l-3.422,2.198l0.764,1.19c0.19,0.296,0.186,0.39,0.103,0.685c-0.049,0.149-0.101,0.243-0.146,0.272
			c-0.091,0.059-0.209-0.076-0.44-0.437l-0.109-0.17c-0.781-1.269-1.998-3.189-2.775-4.399l-4.173-6.504
			c-0.572-0.892-1.307-2.011-1.753-2.654l1.585,0.691l3.069-1.971l-0.266-1.09L45.668,19.319z M47.93,24.918l-3.001-4.675
			l-3.421,2.198l3,4.675L47.93,24.918z M51.503,30.486l-3.273-5.1l-3.422,2.197l3.272,5.1L51.503,30.486z M56.167,34.303
			c0.125,0.07,0.214,0.134,0.241,0.176c0.04,0.064,0.009,0.114-0.082,0.173l-5.969,3.832c-0.227,0.147-0.479,0.43-0.566,0.695
			l-0.824-0.611c0.3-0.133,0.589-0.258,0.839-0.419l5.127-3.293l-0.301-1.367L56.167,34.303z"/>
		<path fill="#FF0000" d="M65.47,10.22c0.08,0.092,0.129,0.162,0.139,0.237c0.012,0.101-0.021,0.155-0.106,0.242
			c-0.145,0.146-0.184,0.277-0.243,0.895c-0.133,1.34-0.336,2.993-0.6,4.705l0.562,0.465c0.044,0.02,0.08,0.092,0.089,0.167
			c0.013,0.1-0.009,0.153-0.268,0.694l1.229,9.896c0.193,1.554,0.365,2.829,0.545,3.952l0.013,0.1
			c0.075,0.602-0.407,0.992-0.435,0.996c-0.107,0.014-0.172-0.183-0.231-0.658l-0.019-0.15c-0.156-1.482-0.321-2.911-0.482-4.214
			l-1.221-9.82c-0.329,1.949-0.726,3.905-1.208,5.391l-0.176-0.207c0.81-4.222,1.499-9.853,1.494-13.617L65.47,10.22z M76.45,27.934
			c-0.097-0.014-0.19-0.002-0.271,0.008c-0.402,0.051-0.699,0.291-0.865,0.82c-0.031,0.079-0.055,0.108-0.095,0.113
			c-0.026,0.004-0.054,0.006-0.1-0.038c-1.728-1.847-2.748-3.933-3.696-7.173l-0.469,0.059l0.532,4.284
			c0.088,0.702,0.563,4.204,0.66,4.98c0.068,0.551-0.332,1.059-0.492,1.078c-0.081,0.011-0.106-0.089-0.132-0.289l-0.012-0.1
			c-0.166-1.658-0.398-3.537-0.66-5.642l-0.523-4.209c-0.507,3.37-1.707,6.751-3.184,8.994l-0.139-0.237
			c1.271-2.473,2.274-5.904,2.582-8.69l-2.346,0.293c-0.281,0.035-0.658,0.184-0.864,0.387l-0.49-0.881
			c0.341,0.009,0.683,0.018,0.991-0.021l3.378-0.42l-0.438-3.534l-1.703,0.213l0.088,0.701c0.033,0.276,0.022,0.404-0.164,0.656
			c-0.115,0.167-0.187,0.253-0.254,0.261c-0.066,0.008-0.096-0.115-0.13-0.39c-0.05-0.401-0.275-2.435-0.331-2.886l-0.451-3.632
			c-0.074-0.603-0.237-1.803-0.361-2.575l0.932,1.028l3.834-0.478L71.6,9.482l0.946,1.154c0.079,0.093,0.116,0.164,0.125,0.239
			s-0.009,0.154-0.066,0.237l-0.329,0.524l0.401,3.232c0.05,0.4,0.322,2.376,0.379,2.826c0.08,0.652-0.418,1.019-0.418,1.019
			c-0.081,0.01-0.113-0.138-0.145-0.389l-0.114-0.927l-1.931,0.24l0.438,3.532l3.043-0.379l0.342-1.416l0.892,1.262
			c0.112,0.14,0.168,0.261,0.181,0.36c0.016,0.125-0.046,0.184-0.166,0.199l-3.512,0.437c1.4,4.048,2.985,5.734,4.75,6.022
			L76.45,27.934z M72.311,16.849l-0.71-5.713l-4.263,0.531l0.709,5.712L72.311,16.849z"/>
		<path fill="#FF0000" d="M102.36,17.868c0.038,0.227,0.049,0.363,0.017,0.459s-0.104,0.098-0.245,0.051l-6.525-2.211
			c-0.797,1.09-1.671,2.286-2.285,3.091l4.785,1.621l0.755-0.971l0.47,1.146c0.074,0.159,0.093,0.271,0.069,0.344
			c-0.024,0.072-0.088,0.131-0.217,0.22l-0.486,0.343l-3.735,11.05c-0.573,1.698-0.751,2.012-1.656,2.372
			c-0.08,0.025-0.127,0.036-0.166,0.023c-0.051-0.018-0.052-0.099-0.005-0.321c0.178-0.82,0.026-1.218-0.945-2.266l0.164-0.319
			c0.673,0.415,1.089,0.663,1.37,0.758c0.409,0.139,0.508-0.068,0.661-0.522l1.236-3.66l-5.002-1.694l-0.688,2.033
			c-0.178,0.526-0.984,2.998-1.105,3.358c-0.121,0.359-0.205,0.437-0.55,0.613c-0.156,0.081-0.257,0.126-0.32,0.104
			c-0.077-0.025-0.042-0.174,0.063-0.484l0.072-0.216c0.503-1.402,1.243-3.551,1.704-4.915l2.458-7.271
			c-1.889,2.212-3.92,4.297-5.595,5.623l-0.035-0.359c2.854-2.498,5.966-6.43,8.316-9.925l-3.058-1.036
			c-0.269-0.091-0.672-0.121-0.946-0.027l-0.059-1.007c0.303,0.157,0.606,0.312,0.901,0.413l3.48,1.179
			c1.158-1.74,1.778-2.73,2.375-3.78l0.539,1.275c0.062,0.153,0.076,0.238,0.06,0.286c-0.024,0.071-0.091,0.103-0.235,0.106
			c-0.322,0.024-0.523,0.196-0.805,0.608c-0.31,0.454-0.741,1.055-1.243,1.738l5.041,1.707l1.087-1.232L102.36,17.868z M95.8,28.548
			l1.1-3.252l-5.003-1.695l-1.1,3.254L95.8,28.548z M97.077,24.77l1.107-3.277l-5.003-1.694l-1.107,3.276L97.077,24.77z"/>
		<path fill="#FF0000" d="M121.537,28.247c-0.024,0.083-0.04,0.139-0.075,0.175c-0.054,0.055-0.091,0.053-0.164,0.051
			c-0.578-0.103-1.187,0.115-2.301,0.793l-3.144,1.91c-1.254,3.396-1.875,4.343-3.039,5.536c-1.604,1.646-3.335,1.371-3.402,1.305
			c-0.039-0.037-0.006-0.111,0.072-0.21c0.468-0.674,0.586-1.122,0.277-2.163l0.275-0.261c0.246,0.521,0.492,0.867,0.725,1.094
			c0.562,0.547,1.104,0.299,1.81-0.424c1.005-1.032,1.802-2.159,2.935-5.004l5.083-3.512l-1.597-1.555l-10.667,10.942
			c-1.269,1.303-2.493,2.578-3.214,3.356l-0.106,0.108c-0.247,0.253-0.355,0.288-0.681,0.253c-0.157-0.012-0.251-0.032-0.289-0.07
			c-0.068-0.065,0.018-0.193,0.283-0.464l0.157-0.163c0.989-0.976,2.498-2.503,3.45-3.481l9.414-9.658
			c0.688-0.704,1.796-1.881,2.377-2.515l-0.183,1.444l1.326,1.291l1.087-0.458L121.537,28.247z M113.312,47.522
			c-0.514-0.499-0.902-0.525-1.537-0.262c-0.072,0.035-0.109,0.035-0.129,0.016c-0.019-0.019-0.031-0.064-0.024-0.129
			c0.241-3.325,1.532-5.946,4.944-10.414l-0.812-0.791l-6.523,6.691l2.541,0.219l-0.188,0.31c-3.405,0.28-3.842,0.42-4.51,0.756
			c-0.055,0.018-0.081,0.026-0.101,0.007c-0.02-0.018-0.021-0.056-0.006-0.11l0.568-1.492c0.558,0.085,1.356-0.229,1.974-0.863
			l10.4-10.671c1.163-1.194,2.467-2.569,2.969-3.104l-0.22,1.619l2.497,2.431l1.115-0.429l-0.342,1.57
			c-0.014,0.093-0.048,0.165-0.101,0.219c-0.035,0.035-0.107,0.072-0.208,0.079l-0.755,0.077l-3.35,3.436
			c-0.388,0.398-2.067,2.218-2.366,2.525c-0.265,0.271-0.355,0.288-0.763,0.279c-0.131-0.021-0.215-0.032-0.253-0.07
			c-0.087-0.084-0.034-0.139,0.494-0.681l-1.858-1.809c-1.334,1.872-2.07,3.131-2.646,4.262c1.678-0.27,3.462-0.648,4.581-1.004
			l-0.522,1.465c-0.041,0.102-0.057,0.156-0.093,0.192c-0.035,0.036-0.062,0.045-0.092,0.017c-0.019-0.019-0.07-0.14-0.08-0.149
			c-0.213-0.207-0.746-0.338-1.603-0.292l-2.359,0.138c-1.178,2.659-1.147,4.487-0.433,5.746L113.312,47.522z M119.017,38.342
			l2.82-2.894l-2.875-2.798l-2.821,2.895L119.017,38.342z M122.225,35.051l2.697-2.768l-2.875-2.798l-2.697,2.767L122.225,35.051z"
			/>
		<path fill="#FF0000" d="M126.421,59.529c-1.477,2.291-3.613,4.32-4.535,4.741c-0.161,0.073-0.304,0.125-0.423,0.169
			c-1.044,0.38-1.534,0.213-1.622-0.028c-0.061-0.164,0.244-0.361,1.075-0.735c0.323-0.147,0.68-0.35,1.094-0.614l-2.5-4.205
			c-0.85-1.445-1.094-1.673-1.556-1.834c-0.091-0.025-0.123-0.042-0.132-0.067c-0.015-0.039,0.023-0.081,0.109-0.14l1.528-1.118
			c0.539,0.594,0.987,0.791,2.208,0.821c3.415,0.078,7.108-0.189,10.051-0.6l-0.551,1.293c-0.044,0.103-0.077,0.156-0.148,0.183
			c-0.047,0.018-0.137-0.008-0.245-0.083c-0.409-0.239-0.523-0.256-1.058-0.247c-3.891,0.094-7.363,0.008-9.935-0.263l2.637,5.981
			c1.023-0.732,2.311-1.849,3.724-3.282L126.421,59.529z M137.598,53.317c-0.043,0.102-0.104,0.154-0.152,0.172
			s-0.109-0.005-0.217-0.079c-0.405-0.299-0.49-0.312-0.959-0.27c-4.156,0.32-9.449,0.106-11.888-0.83l0.271-0.215
			c4.005,0.812,9.23,0.619,13.652-0.157L137.598,53.317z M130.475,63.571c-0.017-0.195-0.029-0.377-0.08-0.518
			c-0.139-0.379-0.436-0.53-0.938-0.578c-0.085-0.011-0.117-0.028-0.132-0.066c-0.009-0.025,0.001-0.072,0.039-0.114
			c2.804-3.148,5.347-4.95,10.574-7.717l-0.294,1.185c-0.023,0.081-0.062,0.123-0.109,0.141c-0.048,0.017-0.1,0.022-0.189-0.003
			l-0.628-0.175c-3.968,1.949-7.744,5.379-7.911,7.725L130.475,63.571z"/>
		<path fill="#FF0000" d="M141.745,88.825c-0.082,0.061-0.161,0.093-0.212,0.089c-0.05-0.006-0.096-0.051-0.165-0.126l-0.479-0.549
			l-17.321-1.689c-1.91-0.188-2.132-0.249-2.924-1.249c-0.047-0.045-0.042-0.085-0.04-0.113c0.004-0.04,0.057-0.062,0.21-0.074
			c0.92-0.06,1.315-0.211,2.015-1.677l0.352,0.049c-0.286,0.854-0.439,1.396-0.474,1.744c-0.055,0.564,0.22,0.606,0.849,0.667
			l17.823,1.739l0.775-7.998c0.026-0.283-0.036-0.682-0.19-0.928l0.967-0.285c-0.107,0.328-0.165,0.661-0.195,0.972l-0.774,7.999
			l1.138,0.571L141.745,88.825z M133.25,84.048c-0.079,0.033-0.132,0.054-0.183,0.05c-0.05-0.005-0.098-0.037-0.144-0.082
			l-0.486-0.482l-4.274-0.416c-0.93-0.092-1.583-0.155-2.267-0.181c-0.101-0.01-0.177-0.004-0.228-0.009
			c-0.276-0.027-0.345-0.102-0.524-0.35c-0.087-0.145-0.154-0.232-0.149-0.286c0.008-0.08,0.135-0.082,0.36-0.061l1.358,0.133
			l0.381-3.938l-1.76-0.172c-0.527-0.052-0.739-0.493-0.726-0.627c0.008-0.081,0.111-0.098,0.338-0.076
			c0.251,0.024,2.458,0.294,2.936,0.341l4.701,0.46c1.056,0.103,1.786,0.16,2.567,0.209l-1.339,0.724l-0.337,3.482l1.12,0.489
			L133.25,84.048z M127.267,82.418l5.631,0.55l0.382-3.938l-5.631-0.549L127.267,82.418z M137.25,86.242
			c-0.079,0.034-0.157,0.053-0.208,0.048c-0.05-0.005-0.071-0.048-0.064-0.115l0.791-8.174c0.027-0.281-0.035-0.681-0.189-0.927
			l0.967-0.286c-0.083,0.331-0.165,0.662-0.195,0.972l-0.685,7.072l1.329,0.686L137.25,86.242z"/>
	</g>
	<g>
		<path fill="#FF0000" d="M55.25,142.128l-0.687-0.19l1.097-3.934c-0.205,0.096-0.461,0.176-0.768,0.244
			c-0.309,0.066-0.578,0.105-0.812,0.117l0.166-0.596c0.429-0.057,0.819-0.159,1.171-0.311c0.352-0.15,0.617-0.318,0.797-0.502
			l0.441,0.123L55.25,142.128z"/>
		<path fill="#FF0000" d="M62.618,143.73l-0.7-0.125l0.72-4.02c-0.194,0.115-0.441,0.221-0.741,0.316
			c-0.301,0.096-0.565,0.159-0.797,0.192l0.109-0.61c0.422-0.094,0.801-0.234,1.136-0.417c0.336-0.184,0.584-0.376,0.747-0.575
			l0.451,0.082L62.618,143.73z"/>
		<path fill="#FF0000" d="M67.621,141.854c0.052-0.615,0.165-1.104,0.338-1.467c0.172-0.361,0.406-0.633,0.701-0.812
			s0.651-0.252,1.072-0.215c0.31,0.025,0.577,0.105,0.802,0.238c0.224,0.133,0.402,0.311,0.537,0.535s0.23,0.493,0.292,0.805
			c0.062,0.311,0.07,0.725,0.025,1.24c-0.054,0.609-0.165,1.096-0.337,1.459c-0.171,0.363-0.404,0.634-0.698,0.814
			c-0.296,0.182-0.654,0.254-1.077,0.217c-0.557-0.048-0.979-0.266-1.266-0.652C67.666,143.551,67.537,142.83,67.621,141.854z
			 M68.35,141.916c-0.074,0.854-0.011,1.432,0.187,1.732c0.198,0.303,0.459,0.467,0.785,0.494c0.326,0.029,0.612-0.09,0.858-0.355
			c0.246-0.264,0.406-0.822,0.479-1.674c0.074-0.855,0.012-1.434-0.186-1.733c-0.198-0.3-0.463-0.466-0.793-0.493
			c-0.326-0.028-0.598,0.074-0.812,0.305C68.596,140.488,68.423,141.062,68.35,141.916z"/>
		<path fill="#FF0000" d="M74.896,142.316c-0.007-0.617,0.059-1.113,0.196-1.492c0.137-0.377,0.344-0.67,0.619-0.877
			s0.625-0.312,1.047-0.316c0.311-0.004,0.584,0.051,0.82,0.16c0.235,0.111,0.432,0.271,0.587,0.481
			c0.154,0.21,0.277,0.47,0.368,0.772c0.09,0.305,0.138,0.715,0.143,1.232c0.008,0.611-0.059,1.107-0.194,1.484
			c-0.136,0.378-0.341,0.67-0.616,0.879c-0.277,0.209-0.627,0.314-1.053,0.318c-0.559,0.006-0.999-0.17-1.321-0.526
			C75.104,144.002,74.905,143.297,74.896,142.316z M75.627,142.309c0.009,0.857,0.127,1.426,0.352,1.707
			c0.226,0.281,0.502,0.42,0.829,0.416c0.327-0.002,0.601-0.147,0.821-0.436c0.219-0.287,0.324-0.857,0.315-1.711
			c-0.009-0.859-0.126-1.43-0.352-1.709c-0.227-0.28-0.505-0.418-0.837-0.415c-0.328,0.003-0.588,0.132-0.779,0.382
			C75.734,140.863,75.617,141.452,75.627,142.309z"/>
		<path fill="#FF0000" d="M82.207,142.064c-0.07-0.613-0.056-1.115,0.042-1.504c0.098-0.39,0.272-0.701,0.526-0.936
			s0.589-0.376,1.009-0.424c0.309-0.035,0.587-0.01,0.833,0.076c0.245,0.086,0.456,0.225,0.632,0.418
			c0.177,0.193,0.325,0.438,0.445,0.73c0.122,0.293,0.211,0.697,0.271,1.211c0.068,0.607,0.055,1.107-0.041,1.496
			s-0.271,0.703-0.524,0.938c-0.253,0.235-0.591,0.377-1.013,0.426c-0.555,0.063-1.012-0.066-1.369-0.389
			C82.588,143.719,82.318,143.037,82.207,142.064z M82.935,141.981c0.097,0.851,0.272,1.405,0.525,1.663
			c0.253,0.255,0.542,0.365,0.868,0.328c0.324-0.037,0.581-0.211,0.77-0.518c0.189-0.309,0.236-0.887,0.139-1.736
			c-0.097-0.853-0.271-1.406-0.525-1.662c-0.253-0.256-0.545-0.365-0.875-0.327c-0.324,0.036-0.569,0.19-0.736,0.46
			C82.893,140.533,82.837,141.131,82.935,141.981z"/>
		<path fill="#FF0000" d="M89.43,141.055c-0.136-0.603-0.177-1.103-0.122-1.5c0.055-0.398,0.194-0.729,0.421-0.988
			s0.545-0.438,0.956-0.531c0.304-0.067,0.582-0.072,0.836-0.016c0.254,0.059,0.479,0.174,0.675,0.348
			c0.196,0.174,0.37,0.398,0.522,0.678c0.152,0.277,0.285,0.669,0.4,1.174c0.136,0.596,0.177,1.094,0.123,1.492
			c-0.053,0.398-0.192,0.727-0.419,0.988c-0.226,0.262-0.546,0.439-0.96,0.533c-0.545,0.124-1.013,0.046-1.403-0.236
			C89.99,142.658,89.646,142.01,89.43,141.055z M90.145,140.893c0.189,0.836,0.424,1.367,0.703,1.595
			c0.28,0.227,0.58,0.304,0.898,0.231c0.319-0.071,0.555-0.271,0.71-0.599c0.154-0.326,0.138-0.907-0.052-1.739
			c-0.189-0.838-0.425-1.369-0.705-1.597c-0.279-0.226-0.581-0.302-0.904-0.229c-0.32,0.072-0.547,0.252-0.682,0.538
			C89.944,139.457,89.955,140.057,90.145,140.893z"/>
		<path fill="#FF0000" d="M96.508,139.248c-0.203-0.582-0.301-1.074-0.293-1.475c0.008-0.402,0.109-0.746,0.305-1.031
			c0.195-0.283,0.491-0.496,0.889-0.636c0.294-0.103,0.57-0.142,0.829-0.112s0.495,0.117,0.71,0.268s0.413,0.354,0.597,0.613
			c0.184,0.258,0.361,0.632,0.532,1.12c0.203,0.577,0.301,1.067,0.294,1.468s-0.108,0.745-0.304,1.031
			c-0.193,0.285-0.49,0.498-0.892,0.639c-0.527,0.186-1.001,0.162-1.423-0.073C97.248,140.777,96.834,140.173,96.508,139.248z
			 M97.199,139.006c0.283,0.809,0.578,1.309,0.882,1.502s0.61,0.236,0.92,0.129c0.309-0.108,0.521-0.334,0.636-0.677
			c0.116-0.343,0.031-0.917-0.251-1.724c-0.285-0.811-0.579-1.311-0.884-1.504c-0.303-0.192-0.611-0.233-0.926-0.123
			c-0.308,0.107-0.513,0.312-0.614,0.611C96.836,137.604,96.915,138.197,97.199,139.006z"/>
		<path fill="#FF0000" d="M103.343,136.629c-0.271-0.555-0.427-1.03-0.465-1.431c-0.039-0.399,0.021-0.753,0.182-1.058
			c0.16-0.307,0.43-0.551,0.809-0.738c0.279-0.137,0.55-0.206,0.81-0.209c0.26,0,0.506,0.061,0.736,0.184s0.453,0.303,0.665,0.537
			c0.212,0.236,0.433,0.587,0.659,1.051c0.27,0.551,0.425,1.023,0.465,1.424c0.04,0.398-0.021,0.752-0.18,1.059
			c-0.159,0.309-0.429,0.555-0.811,0.74c-0.502,0.246-0.977,0.277-1.421,0.094C104.258,138.061,103.775,137.51,103.343,136.629z
			 M104,136.307c0.378,0.77,0.729,1.232,1.053,1.39c0.326,0.157,0.635,0.163,0.928,0.019c0.295-0.144,0.479-0.393,0.553-0.746
			c0.075-0.354-0.076-0.914-0.451-1.682c-0.378-0.771-0.729-1.234-1.054-1.391c-0.324-0.154-0.636-0.16-0.935-0.014
			c-0.293,0.143-0.473,0.371-0.538,0.68C103.475,134.957,103.624,135.537,104,136.307z"/>
		<path fill="#FF0000" d="M108.789,131.559l-0.334-0.518l3.157-2.031l0.27,0.418c-0.119,0.498-0.173,1.092-0.16,1.781
			c0.013,0.688,0.103,1.347,0.271,1.975c0.117,0.443,0.299,0.895,0.547,1.354l-0.614,0.396c-0.216-0.35-0.409-0.814-0.58-1.396
			c-0.17-0.582-0.267-1.188-0.29-1.814c-0.021-0.627,0.019-1.193,0.121-1.701L108.789,131.559z"/>
		<path fill="#FF0000" d="M116.531,128.227c-0.291,0.111-0.549,0.141-0.771,0.09c-0.225-0.05-0.417-0.172-0.575-0.367
			c-0.239-0.295-0.323-0.637-0.251-1.029c0.071-0.393,0.303-0.748,0.693-1.066c0.393-0.318,0.793-0.473,1.198-0.463
			c0.406,0.011,0.729,0.164,0.969,0.459c0.153,0.188,0.231,0.395,0.235,0.623c0.003,0.227-0.076,0.471-0.236,0.727
			c0.341-0.144,0.657-0.184,0.948-0.121c0.292,0.064,0.539,0.221,0.742,0.471c0.282,0.346,0.382,0.748,0.302,1.205
			s-0.342,0.865-0.786,1.227c-0.443,0.361-0.897,0.535-1.362,0.518c-0.464-0.014-0.841-0.197-1.128-0.552
			c-0.214-0.263-0.319-0.544-0.316-0.843C116.197,128.805,116.31,128.514,116.531,128.227z M115.736,127.473
			c0.154,0.191,0.351,0.293,0.587,0.303s0.464-0.074,0.683-0.252c0.212-0.174,0.338-0.375,0.375-0.605
			c0.038-0.232-0.014-0.436-0.156-0.61c-0.148-0.183-0.344-0.278-0.585-0.288c-0.24-0.01-0.465,0.069-0.675,0.238
			c-0.21,0.172-0.335,0.375-0.376,0.609C115.549,127.102,115.598,127.305,115.736,127.473z M117.078,129.487
			c0.116,0.142,0.265,0.249,0.447,0.319c0.183,0.072,0.377,0.085,0.584,0.038c0.205-0.048,0.394-0.14,0.563-0.278
			c0.264-0.215,0.42-0.468,0.468-0.761c0.047-0.292-0.025-0.556-0.217-0.792c-0.195-0.239-0.444-0.365-0.748-0.377
			c-0.305-0.014-0.59,0.09-0.855,0.306c-0.26,0.21-0.412,0.463-0.457,0.757C116.818,128.992,116.891,129.255,117.078,129.487z"/>
		<path fill="#FF0000" d="M125.423,123.098l0.436,0.436l-2.707,2.711c-0.112-0.104-0.198-0.229-0.256-0.373
			c-0.098-0.234-0.15-0.508-0.16-0.822c-0.011-0.312,0.023-0.719,0.099-1.217c0.116-0.774,0.156-1.336,0.12-1.686
			c-0.036-0.349-0.139-0.607-0.311-0.779c-0.181-0.18-0.402-0.26-0.669-0.238c-0.266,0.018-0.514,0.143-0.742,0.373
			c-0.242,0.242-0.371,0.502-0.385,0.777c-0.015,0.277,0.094,0.531,0.323,0.766l-0.565,0.469c-0.312-0.382-0.442-0.779-0.395-1.193
			c0.049-0.413,0.268-0.814,0.657-1.205c0.393-0.395,0.803-0.607,1.228-0.641c0.426-0.033,0.784,0.096,1.074,0.385
			c0.148,0.148,0.26,0.326,0.336,0.537c0.075,0.209,0.114,0.471,0.117,0.783c0.002,0.314-0.04,0.789-0.126,1.426
			c-0.073,0.531-0.112,0.879-0.116,1.046c-0.004,0.168,0.008,0.32,0.033,0.458L125.423,123.098z"/>
		<path fill="#FF0000" d="M130.31,117.459l0.475,0.393l-2.443,2.953c-0.122-0.094-0.218-0.211-0.289-0.348
			c-0.119-0.225-0.198-0.494-0.236-0.805s-0.044-0.717-0.015-1.221c0.042-0.782,0.03-1.345-0.038-1.688
			c-0.068-0.346-0.196-0.594-0.382-0.748c-0.196-0.162-0.426-0.221-0.688-0.176c-0.263,0.043-0.498,0.19-0.704,0.439
			c-0.219,0.266-0.322,0.535-0.311,0.812s0.143,0.521,0.393,0.73l-0.519,0.521c-0.346-0.353-0.515-0.735-0.504-1.151
			c0.009-0.416,0.19-0.838,0.541-1.262c0.354-0.428,0.743-0.68,1.163-0.752c0.421-0.073,0.789,0.021,1.105,0.283
			c0.161,0.133,0.289,0.301,0.384,0.502c0.096,0.201,0.159,0.459,0.19,0.77c0.031,0.312,0.034,0.789,0.008,1.432
			c-0.023,0.535-0.03,0.885-0.019,1.053c0.012,0.166,0.037,0.318,0.076,0.453L130.31,117.459z"/>
		<path fill="#FF0000" d="M131.938,109.559l-0.362,0.609c-0.242-0.093-0.444-0.123-0.604-0.092c-0.26,0.053-0.471,0.195-0.631,0.428
			c-0.13,0.186-0.197,0.381-0.201,0.588c-0.008,0.268,0.068,0.535,0.227,0.803s0.45,0.551,0.877,0.854
			c-0.097-0.273-0.12-0.546-0.072-0.814c0.049-0.269,0.149-0.514,0.305-0.736c0.271-0.391,0.631-0.633,1.079-0.729
			c0.448-0.094,0.878,0.002,1.287,0.287c0.269,0.186,0.474,0.424,0.615,0.713c0.142,0.29,0.195,0.59,0.161,0.9
			s-0.15,0.609-0.349,0.895c-0.339,0.486-0.775,0.771-1.312,0.855c-0.535,0.083-1.174-0.132-1.914-0.647
			c-0.828-0.575-1.312-1.163-1.452-1.765c-0.121-0.525-0.008-1.037,0.342-1.541c0.26-0.373,0.567-0.614,0.924-0.723
			C131.212,109.336,131.573,109.373,131.938,109.559z M132.128,113.229c0.181,0.126,0.384,0.203,0.609,0.233
			c0.225,0.03,0.434-0.002,0.628-0.097c0.193-0.094,0.35-0.225,0.467-0.393c0.171-0.248,0.229-0.521,0.173-0.824
			c-0.056-0.301-0.237-0.561-0.546-0.773c-0.296-0.205-0.59-0.281-0.883-0.224c-0.292,0.058-0.531,0.218-0.716,0.485
			c-0.184,0.264-0.254,0.547-0.212,0.85S131.852,113.037,132.128,113.229z"/>
	</g>
</g>
</svg>
