<?xml version="1.0" encoding="UTF-8"?>
<svg width="31px" height="31px" viewBox="0 0 31 31" version="1.1" xmlns="http://www.w3.org/2000/svg" xmlns:xlink="http://www.w3.org/1999/xlink">
    <!-- Generator: Sketch 49.3 (51167) - http://www.bohemiancoding.com/sketch -->
    <title>icon在线客服@2x</title>
    <desc>Created with Sketch.</desc>
    <defs></defs>
    <g id="商城已确认-最终版" stroke="none" stroke-width="1" fill="none" fill-rule="evenodd">
        <g id="020-积分兑换" transform="translate(-322.000000, -579.000000)">
            <g id="icon-在线帮助" transform="translate(312.000000, 569.000000)">
                <g id="icon在线客服" transform="translate(10.000000, 10.000000)">
                    <path d="M5.5,16.5 L5.5,12.1 C5.5,6.7980664 9.9771525,2.5 15.5,2.5 C21.0228475,2.5 25.5,6.7980664 25.5,12.1 L25.5,16.9 C25.5,22.2019336 21.0228475,26.5 15.5,26.5 L13.8333333,26.5" id="Rectangle-2" stroke="#552E20" stroke-width="2"></path>
                    <rect id="Rectangle-3" fill="#552E20" x="10.5" y="25" width="7" height="3" rx="1.5"></rect>
                    <path d="M25,12 L26,12 C27.1045695,12 28,12.8954305 28,14 L28,18 C28,19.1045695 27.1045695,20 26,20 L25,20 C24.4477153,20 24,19.5522847 24,19 L24,13 C24,12.4477153 24.4477153,12 25,12 Z" id="Rectangle" stroke="#552E20" stroke-width="2" fill="#FFFFFF"></path>
                    <path d="M4,12 L5,12 C6.1045695,12 7,12.8954305 7,14 L7,18 C7,19.1045695 6.1045695,20 5,20 L4,20 C3.44771525,20 3,19.5522847 3,19 L3,13 C3,12.4477153 3.44771525,12 4,12 Z" id="Rectangle" stroke="#552E20" stroke-width="2" fill="#FFFFFF" transform="translate(5.000000, 16.000000) scale(-1, 1) translate(-5.000000, -16.000000) "></path>
                </g>
            </g>
        </g>
    </g>
</svg>