<?xml version="1.0" encoding="utf-8"?>
<!-- Generator: Adobe Illustrator 15.0.0, SVG Export Plug-In . SVG Version: 6.00 Build 0)  -->
<!DOCTYPE svg PUBLIC "-//W3C//DTD SVG 1.1//EN" "http://www.w3.org/Graphics/SVG/1.1/DTD/svg11.dtd">
<svg version="1.1" id="图层_1" xmlns="http://www.w3.org/2000/svg" xmlns:xlink="http://www.w3.org/1999/xlink" x="0px" y="0px"
	 width="154px" height="154px" viewBox="0 0 154 154" enable-background="new 0 0 154 154" xml:space="preserve">
<g>
	<circle fill="none" stroke="#E6211A" stroke-width="3.5" stroke-miterlimit="10" cx="77" cy="77.28" r="74.744"/>
	<polygon fill="#E6211A" points="96.803,103.737 78.361,91.038 61.427,104.524 66.462,84.007 50.124,71.454 70.303,70.333 
		76.69,50.375 84.468,69.752 104.889,69.109 89.494,82.558 	"/>
</g>
<g>
	<g>
		<path fill="#E6211A" d="M36.18,104.293l-11.562,7.387c-1.664,1.064-3.286,2.129-4.869,3.197l0.077-2.08l0.927,0.169l6.655-4.253
			c-2.081-0.812-4.151-1.18-6.211-1.104l0.845-1.978c0.369,0.329,1.125,0.72,2.271,1.17c1.173,0.491,2.371,1.022,3.595,1.593
			l7.237-4.624c0.721-0.461,0.915-0.95,0.583-1.472l-1.381-2.161c-0.307-0.48-0.964-0.44-1.974,0.12
			c-1.007,0.559-2.052,1.156-3.132,1.789l-0.192-0.301c1.694-1.137,2.731-1.898,3.11-2.281c0.381-0.385,0.579-0.807,0.595-1.269
			c0.873-0.22,1.651,0.017,2.329,0.71L37,101.908C37.563,102.789,37.289,103.584,36.18,104.293z M28.008,114.418
			c-2.883,1.842-4.922,3.174-6.117,3.993l-0.089-1.972l1.094,0.062l12.644-8.079c1.164-0.744,2.566-1.667,4.203-2.77l1.114,0.641
			c-1.91,1.165-3.56,2.189-4.946,3.076c2.5,1.223,4.195,1.857,5.085,1.908l-1.038,1.678c-0.361-0.445-1.849-1.553-4.464-3.32
			l-6.987,4.465l2.033,3.182l0.511,0.435l-0.358,0.905L28.008,114.418z"/>
	</g>
</g>
<g>
	<g>
		<path fill="#E6211A" d="M17.422,102.07l-4.098-12.826l-1.851-0.605l1.592-2.154l4.228,13.234c0.174,0.543,0.434,1.033,0.781,1.472
			L17.422,102.07z M12.042,96.908l-0.325-0.045c0.314-1.397,0.622-2.219,0.922-2.465c0.303-0.246,0.516-0.389,0.641-0.429
			c0.314-0.101,0.637-0.116,0.969-0.048c0.333,0.069,0.514,0.148,0.542,0.238c0.058,0.182-0.148,0.396-0.622,0.647
			C13.489,95.275,12.781,95.976,12.042,96.908z M17.96,88.511c2.32-0.741,3.975-1.294,4.962-1.66l1.099,0.845l-0.94,0.301
			l0.954,2.986l6.864-2.192c1.176-0.425,2.126-0.155,2.849,0.81c-0.752,0.241-1.226,1.141-1.418,2.697l-0.47,0.15
			c-0.025-0.938-0.104-1.624-0.242-2.055c-0.137-0.429-0.582-0.524-1.334-0.284l-5.924,1.893l0.954,2.986l0.659-0.21l1.005,0.875
			c-1.331,0.376-2.669,0.778-4.018,1.209c-1.348,0.431-2.64,0.869-3.88,1.314l0.478-1.424l-2.189-6.855l-1.158-0.378l0.97-1.507
			L17.96,88.511z M20.143,96.64l4.607-1.472l-2.233-6.992l-4.607,1.473L20.143,96.64z M25.424,88.52l-0.326-0.045
			c1.313-2.813,2.203-4.407,2.67-4.78c0.468-0.374,0.828-0.602,1.078-0.681c0.313-0.101,0.651-0.121,1.016-0.063
			c0.364,0.059,0.561,0.132,0.589,0.223c0.058,0.181-0.285,0.516-1.027,1.001C28.413,84.898,27.079,86.346,25.424,88.52z
			 M27.991,92.337l0.52,0.657c2.575,0.923,4.748,1.998,6.523,3.227l-0.218,0.293c-3.012-1.431-5.651-2.233-7.918-2.406
			L27.991,92.337z"/>
	</g>
</g>
<g>
	<g>
		<path fill="#E6211A" d="M11.247,75.716l0.732,0.819c0.739-1.036,1.27-1.634,1.591-1.792c0.322-0.159,0.614-0.245,0.876-0.259
			c0.33-0.016,0.646,0.063,0.951,0.238c0.306,0.176,0.459,0.287,0.462,0.333c0.007,0.143-0.249,0.274-0.771,0.396
			c-0.715,0.179-1.682,0.608-2.9,1.287c0.558,0.591,1.117,1.24,1.679,1.948c0.563,0.71,1.131,1.525,1.705,2.447l-0.387,0.162
			c-1.341-1.787-2.748-3.226-4.22-4.318c-1.471-1.091-2.711-1.825-3.718-2.203l1.417-1.283l0.328,0.625l1.646,1.272l-0.275-5.479
			l-1.124-0.728l1.71-1.37l0.434,0.763c1.843,1.288,3.588,2.877,5.23,4.768c1.644,1.892,2.883,4.576,3.715,8.053l-0.39,0.092
			c-0.708-2.294-1.737-4.407-3.086-6.338c-1.347-1.93-3.313-3.686-5.898-5.269L11.247,75.716z M16.971,73.573l1.517-1.289
			l0.331,0.697c0.205,0.132,0.652,0.491,1.339,1.074l-0.278-5.551l-1.021-0.662l1.615-1.294l0.532,0.759
			c3.538,2.2,5.923,4.436,7.156,6.703c1.234,2.269,2.042,4.606,2.427,7.013l-0.395,0.02c-0.66-2.63-1.7-4.991-3.123-7.085
			c-1.422-2.092-3.622-3.92-6.601-5.483l0.296,5.907c1.793,1.575,3.305,3.473,4.536,5.693l-0.387,0.162
			c-1.058-1.373-2.19-2.612-3.398-3.718C20.309,75.416,18.793,74.434,16.971,73.573z M22.109,75.527
			c0.878-0.9,1.526-1.432,1.946-1.596c0.421-0.164,0.729-0.251,0.926-0.261c0.395-0.021,0.745,0.069,1.051,0.269
			c0.307,0.198,0.462,0.346,0.467,0.439c0.01,0.19-0.28,0.324-0.87,0.401c-0.915,0.142-1.986,0.456-3.214,0.945L22.109,75.527z"/>
	</g>
</g>
<g>
	<g>
		<path fill="#E6211A" d="M14.205,50.203c0.617,0.822,1.235,1.644,1.852,2.466l1.043-2.957l-0.832-1.501l2.195-0.586l-2.18,6.182
			l2.793,0.985l1.138-3.226l-0.878-1.367l2.194-0.586l-1.896,5.375l2.606,0.919l1.753-4.972l-0.947-1.468l2.313-0.62l-4.621,13.104
			c-0.205,0.582-0.302,1.152-0.289,1.711l-1.052,0.309l2.513-7.123l-2.607-0.919l-1.066,3.024c-0.205,0.582-0.302,1.153-0.289,1.711
			l-1.051,0.309l1.848-5.241l-2.793-0.985l-1.374,3.897c-0.205,0.583-0.302,1.153-0.289,1.711l-1.052,0.309l1.564-4.435
			c-0.979-0.194-2.254-0.139-3.824,0.163l-0.209-0.3c1.155-0.902,1.889-1.348,2.199-1.339c0.311,0.009,0.56,0.046,0.746,0.111
			c0.434,0.153,0.853,0.452,1.254,0.896l0.971-2.755c-1.035-0.818-2.229-1.692-3.576-2.621l1.802-0.952L14.205,50.203z
			 M24.568,56.729c0.341,0.222,0.682,0.442,1.022,0.662l1.517-4.3l-0.879-1.367l2.195-0.586l-2.108,5.98
			c1.54-0.212,3.016-0.686,4.427-1.423c1.411-0.736,2.557-2.056,3.438-3.962l0.372,0.131c-0.16,0.649,0.18,1.271,1.016,1.869
			c-1.329,1.395-2.789,2.367-4.377,2.914c-1.588,0.548-3.253,0.817-4.994,0.807l-0.096,0.269c2.463,1.726,3.928,3.362,4.393,4.912
			c0.464,1.549,0.567,3.285,0.309,5.208L30.5,67.811c-0.009-1.563-0.244-3.07-0.709-4.519c-0.467-1.449-1.814-2.969-4.045-4.562
			l-1.326,3.763c-0.206,0.583-0.302,1.153-0.289,1.711l-1.052,0.31l2.156-6.115c-0.884-0.462-1.775-0.901-2.674-1.32l1.569-1.185
			L24.568,56.729z"/>
	</g>
</g>
<g>
	<g>
		<path fill="#E6211A" d="M26.328,32.721c1.631,2.775,2.566,5.125,2.806,7.052c0.239,1.928,0.112,3.704-0.384,5.33l-0.395-0.143
			c0.393-1.709,0.281-3.686-0.338-5.928c-0.619-2.242-1.912-4.704-3.877-7.385l1.988-0.387l0.002,0.927
			c1.73,0.696,3.727,0.996,5.989,0.898c2.262-0.098,4.015-0.741,5.259-1.931l0.305,0.252c-0.404,0.9-0.358,1.617,0.137,2.151
			c-1.232,0.458-2.832,0.658-4.796,0.602C31.062,34.103,28.829,33.625,26.328,32.721z M33.5,43.397
			c1.923-0.563,3.172-0.808,3.749-0.73c0.577,0.079,0.993,0.222,1.246,0.432c0.151,0.126,0.326,0.379,0.523,0.759
			c0.197,0.381,0.266,0.607,0.205,0.68c-0.061,0.074-0.246,0.042-0.561-0.095c-0.578-0.232-1.24-0.413-1.989-0.541
			c-0.749-0.127-1.696-0.172-2.839-0.135c1.225,1.513,2.104,2.951,2.637,4.319c0.531,1.367,0.817,2.748,0.86,4.14l-0.364-0.024
			c-0.387-2.111-1.275-4.129-2.669-6.059c-1.393-1.927-3.071-3.768-5.036-5.523l2.004-0.559l0.045,0.872L33.5,43.397z
			 M33.101,35.379l1.957-0.504l0.244,0.943c1.438,0.948,2.946,1.705,4.525,2.275c1.58,0.571,2.934,0.847,4.062,0.826
			c1.13-0.02,2.006-0.202,2.634-0.545l0.305,0.252c-0.385,0.668-0.385,1.287,0.001,1.853c-2.915,0.112-6.382-1.068-10.402-3.542
			c2.3,2.279,3.713,4.286,4.24,6.02c0.526,1.734,0.579,3.475,0.155,5.222l-0.319-0.079c0.251-2.26-0.261-4.398-1.538-6.416
			C37.688,39.667,35.734,37.566,33.101,35.379z"/>
	</g>
</g>
<g>
	<g>
		<path fill="#E6211A" d="M43.564,18.172l-0.283,0.759c1.217,0.87,2.75,1.6,4.602,2.188c1.852,0.589,3.896,0.612,6.134,0.068
			l0.157,0.251c-0.5,0.545-0.679,1.2-0.537,1.965c-2.61-0.232-4.773-0.761-6.494-1.588c-1.722-0.826-3.001-1.597-3.841-2.315
			c0.343,2.969,0.324,5.385-0.051,7.248c-0.377,1.865-1.062,3.613-2.06,5.244l-0.27-0.297c0.874-2.097,1.394-4.246,1.561-6.445
			c0.166-2.199-0.141-4.685-0.92-7.457L43.564,18.172z M43.158,28.551l6.043-3.774l0.106-1.579l2.142,0.873l-6.104,3.813
			c-0.443,0.277-0.834,0.638-1.172,1.082L43.158,28.551z M53.666,28.157c1.568,2.512,2.773,4.397,3.615,5.656l-0.592,1.068
			L55.8,33.458l-5.802,3.624l0.68,1.088l-0.593,1.068c-0.832-1.42-1.646-2.771-2.449-4.056c-0.802-1.284-1.643-2.583-2.519-3.897
			l1.325,0.104l5.68-3.548l0.082-1.214l1.578,0.644L53.666,28.157z M46.756,31.891l2.929,4.688l5.801-3.624l-2.928-4.688
			L46.756,31.891z"/>
	</g>
</g>
<g>
	<g>
		<path fill="#E6211A" d="M103.271,34.97c-0.376,0.621-0.761,1.254-1.152,1.9c-0.392,0.645-0.704,1.206-0.938,1.682l-1.108-0.096
			l0.666-1.097l-6.092-3.695l-0.666,1.097l-1.058-0.18c1.2-1.889,2.552-4.068,4.054-6.545c1.502-2.476,2.471-4.12,2.908-4.933
			l0.443,1.192l5.422,3.289l1.121-0.475l0.127,1.578l-0.795,0.211l-1.024,1.688c-0.307,0.506-0.577,0.997-0.81,1.471l-1.108-0.095
			l0.563-0.929l-5.543-3.362l-1.434,2.363l5.969,3.622l1.122-0.475l0.126,1.577L103.271,34.97z M96.54,30.542l-1.587,2.615
			l6.092,3.695l1.587-2.615L96.54,30.542z M107.963,29.158l1.848-1.535l-10.66-6.467c-0.588,0.876-1.019,1.403-1.294,1.583
			c-0.275,0.179-0.502,0.254-0.677,0.224c-0.178-0.03-0.307-0.069-0.388-0.118c-0.121-0.074-0.21-0.204-0.263-0.392
			c-0.054-0.186-0.047-0.335,0.022-0.448l0.275-0.179c0.183-0.12,0.461-0.259,0.836-0.417c0.298-0.126,0.629-0.349,0.989-0.67
			c0.36-0.318,0.717-0.68,1.073-1.081l0.243,0.147l-0.512,0.844l5.057,3.067c0.197-0.417,0.354-0.86,0.473-1.329
			c0.117-0.467,0.189-1,0.22-1.598l0.163-0.133c0.639,1.236,0.823,2.078,0.551,2.527c-0.274,0.451-0.601,0.715-0.98,0.791
			l5.057,3.067l1.224-0.644l0.072,2.354c-0.55-0.103-0.986-0.116-1.308-0.043c-0.324,0.074-0.971,0.316-1.941,0.727L107.963,29.158z
			 M100.021,24.803l-1.434,2.362l5.543,3.363l1.434-2.363L100.021,24.803z M104.751,14.395l0.492,1.8l-0.804,0.089l-1.326,0.812
			l2.803,1.701l1.12-0.475l0.096,1.904l-3.352-2.033c0.173,0.723,0.236,1.26,0.188,1.615s-0.142,0.646-0.277,0.871
			c-0.103,0.168-0.235,0.318-0.399,0.45c-0.162,0.132-0.352,0.19-0.565,0.177s-0.248-0.209-0.104-0.583
			c0.145-0.375,0.329-0.841,0.555-1.396c0.226-0.557,0.325-0.995,0.3-1.318l-0.913-0.555c-1.075,0.58-2.366,1.105-3.873,1.576
			l0.032-0.327c1.08-0.499,2.141-1.126,3.182-1.88C102.943,16.069,103.894,15.26,104.751,14.395z M110.67,18.101l0.431,1.763
			l-0.804,0.089l-1.274,0.728l3.289,1.995l1.233-0.521l0.104,2.025l-3.777-2.291c0.254,0.771,0.381,1.387,0.38,1.848
			c-0.002,0.46-0.119,0.814-0.35,1.057c-0.232,0.246-0.49,0.396-0.775,0.455c-0.285,0.057-0.301-0.26-0.047-0.953
			c0.219-0.636,0.354-1.131,0.402-1.487c0.049-0.355,0.076-0.723,0.085-1.103l-1.096-0.666c-0.755,0.235-1.472,0.455-2.149,0.659
			l-0.081-0.28c1.073-0.579,1.964-1.155,2.673-1.727C109.621,19.12,110.207,18.59,110.67,18.101z"/>
	</g>
</g>
<g>
	<g>
		<path fill="#E6211A" d="M120.361,58.084c0.168,0.813,0.344,1.415,0.527,1.801c0.184,0.387,0.542,0.452,1.077,0.198l3.121-1.482
			l-2.812-5.921l-5.083,2.413l-1.261-0.584c1.031-0.438,4.904-2.25,11.623-5.439c-2.354-0.355-4.463-0.957-6.323-1.81l0.176-0.32
			c1.877,0.58,3.724,0.979,5.54,1.195c1.813,0.216,3.984,0.224,6.512,0.023l-1.681-3.54c-0.265-0.559-0.598-1.031-1-1.418
			l0.527-0.96l2.75,5.793c1.709-0.234,3.071-0.512,4.084-0.835l-0.485,2.201l-0.661-0.474c-0.976,0.095-1.781,0.161-2.418,0.201
			l2.598,5.471l2.036,0.374l-1.349,2.454l-3.882-8.174c-1.414,0.093-2.718,0.108-3.912,0.045l2.628,5.535l1.136,0.091l-0.639,1.645
			l-0.9-0.283L121.77,61.28c-0.95,0.451-1.889,0.318-2.813-0.399c0.733-0.297,1.054-1.158,0.958-2.585L120.361,58.084z
			 M125.753,51.028l-2.942,1.397l2.812,5.921l2.942-1.396L125.753,51.028z M129.408,49.293l-3.12,1.481l2.812,5.922l3.121-1.482
			L129.408,49.293z"/>
	</g>
</g>
<g>
	<g>
		<path fill="#E6211A" d="M135.236,65.55l6.221,0.243l-0.361-2.467l-15.236,2.226c-1.759,0.256-3.318,0.507-4.679,0.755
			l-0.741-0.973c1.636-0.191,5.398-0.716,11.292-1.577c5.893-0.86,9.423-1.4,10.588-1.618l-0.627,1.172l0.351,2.397l0.971,0.506
			l-1.136,1.102l-0.57-0.492l-6.021-0.921c-0.881,0.8-1.703,1.437-2.465,1.908c-0.764,0.472-1.627,0.813-2.594,1.026
			c-0.966,0.213-1.812,0.229-2.536,0.047c-0.726-0.183-1.316-0.697-1.772-1.542c0.789-0.068,1.4-0.661,1.836-1.78l0.391-0.057
			c-0.093,0.733-0.118,1.241-0.077,1.523c0.069,0.469,0.26,0.754,0.574,0.853c0.313,0.098,0.729,0.109,1.251,0.033
			c0.455-0.066,1.067-0.204,1.836-0.413C132.498,67.293,133.665,66.643,135.236,65.55z M123.238,70.831
			c0.418,0.13,0.887,0.158,1.408,0.082c11.459-1.674,17.643-2.601,18.548-2.78l-0.735,1.115l0.711,4.864l1.156,0.407l-1.202,1.328
			l-0.679-0.549c-4.038,0.59-6.867,1.026-8.487,1.312l-0.838-0.958l0.879-0.129l-0.453-3.102c-1.465,0.453-2.962,1.128-4.493,2.023
			c1.415,1.042,2.898,1.857,4.447,2.447l-1.593,1.384c-0.097-0.658-1.201-1.839-3.312-3.547c-1.375,1.064-2.272,2.096-2.69,3.093
			c-0.421,0.997-0.629,1.735-0.625,2.214l-0.39,0.058c-0.161-0.649-0.689-1.076-1.585-1.281c0.617-1.242,1.731-2.497,3.342-3.763
			c1.61-1.269,3.889-2.285,6.837-3.051l-0.206-1.41l-8.889,1.298l2.149,2.423l-0.272,0.184c-1.522-1.314-3.008-2.153-4.458-2.518
			L123.238,70.831z M137.575,69.96l-3.711,0.542l0.721,4.936l3.711-0.542L137.575,69.96z M141.873,69.333l-3.712,0.542l0.721,4.935
			l3.712-0.542L141.873,69.333z"/>
	</g>
</g>
<g>
	<g>
		<path fill="#E6211A" d="M125.354,83.541l-1.236,8.318c1.386-0.291,3.007-0.781,4.863-1.474l0.255,0.261
			c-2.244,1.396-3.823,2.22-4.734,2.473c-0.912,0.251-1.594,0.339-2.049,0.261c-0.389-0.067-0.743-0.236-1.063-0.509
			c-0.319-0.272-0.473-0.455-0.456-0.549c0.017-0.095,0.265-0.171,0.741-0.233c0.811-0.053,1.456-0.11,1.934-0.173
			c0.322-4.571,0.438-7.179,0.348-7.82c-0.089-0.643-0.266-1.155-0.535-1.538l2.176-0.42c-0.064,0.374,0.275,0.915,1.022,1.622
			c0.745,0.707,2.041,1.714,3.886,3.021c1.844,1.306,3.517,2.258,5.017,2.854l-1.92,1.26l-0.354-0.856
			C129.914,87.679,127.282,85.513,125.354,83.541z M142.927,93.734l-0.475-0.733c-2.083,0.074-4.173,0.473-6.267,1.195
			c-2.096,0.724-3.637,1.818-4.624,3.287l-0.293-0.05c0.13-0.75-0.166-1.355-0.888-1.817c1.652-1.064,3.6-1.897,5.841-2.498
			c2.24-0.602,4.783-0.826,7.629-0.671L142.927,93.734z M143.739,89.029l-1.738,1.363l-0.45-0.873
			c-4.273-2.328-7.33-4.93-9.17-7.802l0.327-0.16c1.971,2.123,3.967,3.805,5.99,5.047C140.721,87.846,142.401,88.654,143.739,89.029
			z"/>
	</g>
</g>
<g>
	<g>
		<path fill="#E6211A" d="M137.918,105.447l-5.55,9.794l0.613,0.921l-1.714,0.421l-0.234-0.788l-14.857-8.418
			c-1.34-0.705-1.969-1.662-1.89-2.873c0.688,0.391,1.728,0.023,3.119-1.099l0.43,0.243c-0.734,0.895-1.212,1.537-1.435,1.932
			c-0.223,0.392,0.01,0.783,0.696,1.172l14.687,8.321l4.461-7.873c0.305-0.537,0.5-1.082,0.585-1.634L137.918,105.447z
			 M122.531,105.572c-0.688-0.389-1.358-0.742-2.011-1.057l0.012-1.223l1.546,0.876l2.353-4.152l-1.46-0.827l-0.074-1.271
			c0.721,0.463,1.997,1.214,3.83,2.252c1.832,1.038,3.275,1.828,4.328,2.371l-1.299,0.492l-2.283,4.029l0.613,0.92l-1.714,0.422
			l-0.234-0.788L122.531,105.572z M129.24,102.741l-4.294-2.433l-2.354,4.152l4.294,2.434L129.24,102.741z M134.463,101.934
			l-4.53,7.996l0.659,1.438l-2.299,0.253l4.531-7.996c0.328-0.58,0.512-1.103,0.55-1.572L134.463,101.934z"/>
	</g>
</g>
<g>
	<g>
		<path fill="#E6211A" d="M41.142,137.398l-0.568-0.43l2.312-3.056c-0.22,0.008-0.482-0.018-0.788-0.076
			c-0.305-0.058-0.566-0.125-0.785-0.204l0.351-0.464c0.414,0.115,0.806,0.172,1.18,0.173c0.373,0.001,0.673-0.046,0.899-0.141
			l0.366,0.276L41.142,137.398z"/>
	</g>
</g>
<g>
	<g>
		<path fill="#E6211A" d="M47.572,137.889c0.218-0.537,0.457-0.943,0.721-1.217c0.263-0.274,0.56-0.447,0.89-0.521
			c0.329-0.072,0.689-0.03,1.081,0.128c0.288,0.116,0.521,0.269,0.699,0.454c0.178,0.188,0.3,0.4,0.367,0.643
			c0.066,0.242,0.087,0.513,0.06,0.811c-0.026,0.298-0.131,0.672-0.313,1.121c-0.215,0.533-0.454,0.937-0.716,1.211
			s-0.559,0.449-0.889,0.523s-0.691,0.031-1.085-0.128c-0.519-0.21-0.862-0.531-1.03-0.965
			C47.155,139.427,47.228,138.74,47.572,137.889z M48.25,138.162c-0.302,0.745-0.399,1.282-0.293,1.613
			c0.107,0.33,0.313,0.557,0.615,0.68s0.608,0.102,0.914-0.063c0.308-0.164,0.611-0.617,0.912-1.359
			c0.303-0.748,0.4-1.286,0.293-1.615c-0.106-0.329-0.314-0.556-0.622-0.681c-0.303-0.123-0.589-0.112-0.858,0.03
			C48.872,136.953,48.552,137.418,48.25,138.162z"/>
	</g>
</g>
<g>
	<g>
		<path fill="#E6211A" d="M56.133,144.192l-0.67-0.243l1.309-3.602c-0.208,0.072-0.466,0.125-0.775,0.16
			c-0.308,0.034-0.578,0.047-0.81,0.035l0.198-0.545c0.429-0.014,0.82-0.074,1.178-0.184c0.356-0.109,0.629-0.243,0.818-0.4
			l0.431,0.157L56.133,144.192z"/>
	</g>
</g>
<g>
	<g>
		<path fill="#E6211A" d="M61.776,143.028c0.157-0.558,0.353-0.986,0.584-1.288c0.232-0.302,0.508-0.506,0.827-0.614
			c0.32-0.108,0.683-0.106,1.089,0.009c0.299,0.085,0.547,0.21,0.745,0.376c0.197,0.166,0.342,0.365,0.435,0.599
			s0.143,0.499,0.148,0.798c0.005,0.3-0.057,0.683-0.189,1.149c-0.156,0.553-0.35,0.98-0.581,1.282
			c-0.23,0.301-0.505,0.507-0.825,0.616c-0.321,0.109-0.685,0.106-1.094-0.009c-0.538-0.152-0.914-0.435-1.129-0.848
			C61.529,144.603,61.526,143.913,61.776,143.028z M62.48,143.228c-0.219,0.773-0.257,1.317-0.115,1.635
			c0.142,0.316,0.37,0.52,0.685,0.608c0.315,0.089,0.616,0.035,0.902-0.161c0.287-0.196,0.541-0.681,0.759-1.451
			c0.219-0.776,0.257-1.322,0.115-1.638s-0.373-0.519-0.693-0.608c-0.314-0.089-0.598-0.048-0.849,0.124
			C62.967,141.957,62.699,142.454,62.48,143.228z"/>
	</g>
</g>
<g>
	<g>
		<path fill="#E6211A" d="M73.13,144.305l-0.699-0.119c-0.007-0.244-0.054-0.432-0.143-0.563c-0.147-0.211-0.358-0.35-0.633-0.414
			c-0.22-0.053-0.427-0.049-0.618,0.016c-0.25,0.082-0.469,0.238-0.655,0.465c-0.188,0.229-0.341,0.58-0.46,1.055
			c0.219-0.174,0.46-0.285,0.727-0.332c0.265-0.045,0.53-0.037,0.795,0.025c0.461,0.111,0.82,0.348,1.076,0.713
			c0.256,0.363,0.329,0.773,0.221,1.229c-0.071,0.299-0.214,0.559-0.428,0.779c-0.214,0.219-0.471,0.365-0.771,0.439
			c-0.299,0.072-0.618,0.068-0.956-0.014c-0.577-0.137-1.005-0.43-1.283-0.875c-0.279-0.445-0.32-1.078-0.123-1.902
			c0.22-0.92,0.581-1.541,1.083-1.863c0.438-0.279,0.955-0.35,1.55-0.207c0.444,0.107,0.782,0.299,1.016,0.576
			C73.061,143.59,73.162,143.922,73.13,144.305z M69.812,145.684c-0.048,0.201-0.043,0.406,0.014,0.613
			c0.058,0.209,0.166,0.383,0.325,0.521c0.159,0.141,0.338,0.234,0.538,0.283c0.293,0.07,0.568,0.029,0.826-0.119
			s0.427-0.395,0.509-0.736c0.079-0.33,0.036-0.613-0.126-0.854c-0.162-0.238-0.401-0.396-0.716-0.471
			c-0.313-0.074-0.602-0.043-0.865,0.094C70.054,145.152,69.885,145.375,69.812,145.684z"/>
	</g>
</g>
<g>
	<g>
		<path fill="#E6211A" d="M77.16,145.468c0.009-0.579,0.087-1.044,0.234-1.395s0.361-0.619,0.643-0.806
			c0.281-0.187,0.633-0.277,1.055-0.271c0.312,0.006,0.583,0.063,0.816,0.173c0.232,0.109,0.424,0.266,0.573,0.467
			c0.149,0.202,0.266,0.447,0.348,0.734c0.082,0.288,0.119,0.674,0.111,1.159c-0.01,0.574-0.087,1.037-0.232,1.388
			s-0.359,0.619-0.641,0.808s-0.634,0.278-1.059,0.271c-0.559-0.01-0.995-0.186-1.309-0.53
			C77.325,147.054,77.145,146.387,77.16,145.468z M77.892,145.48c-0.014,0.803,0.089,1.34,0.308,1.609s0.491,0.407,0.818,0.413
			c0.327,0.005,0.604-0.124,0.831-0.388c0.227-0.263,0.347-0.796,0.36-1.597c0.014-0.806-0.09-1.344-0.308-1.612
			s-0.493-0.405-0.825-0.411c-0.327-0.005-0.59,0.107-0.789,0.338C78.037,144.127,77.905,144.677,77.892,145.48z"/>
	</g>
</g>
<g>
	<g>
		<path fill="#E6211A" d="M85.382,146.256l0.688-0.199c0.138,0.321,0.317,0.539,0.536,0.654c0.22,0.115,0.468,0.148,0.746,0.1
			c0.33-0.057,0.592-0.201,0.786-0.434c0.193-0.232,0.266-0.491,0.217-0.775c-0.047-0.273-0.19-0.479-0.432-0.619
			s-0.523-0.183-0.849-0.127c-0.133,0.023-0.294,0.074-0.483,0.151l-0.012-0.533c0.047-0.004,0.086-0.008,0.113-0.013
			c0.299-0.052,0.557-0.164,0.773-0.336c0.217-0.174,0.301-0.397,0.254-0.672c-0.038-0.217-0.156-0.382-0.354-0.494
			c-0.199-0.113-0.437-0.145-0.711-0.098c-0.272,0.047-0.488,0.158-0.646,0.334c-0.156,0.177-0.236,0.414-0.238,0.713l-0.72,0.016
			c0.018-0.412,0.159-0.754,0.426-1.023c0.267-0.271,0.626-0.446,1.078-0.524c0.312-0.054,0.608-0.046,0.891,0.021
			c0.281,0.067,0.509,0.187,0.682,0.358s0.277,0.367,0.315,0.586c0.036,0.209,0.003,0.41-0.101,0.604
			c-0.103,0.193-0.275,0.364-0.518,0.51c0.349,0.008,0.635,0.1,0.857,0.275c0.224,0.174,0.361,0.418,0.415,0.729
			c0.073,0.422-0.048,0.811-0.36,1.166c-0.313,0.355-0.748,0.581-1.305,0.678c-0.501,0.086-0.939,0.031-1.314-0.164
			C85.743,146.943,85.497,146.648,85.382,146.256z"/>
	</g>
</g>
<g>
	<g>
		<path fill="#E6211A" d="M92.837,144.025l0.669-0.155c0.098,0.259,0.236,0.438,0.416,0.534c0.181,0.097,0.397,0.126,0.65,0.088
			c0.216-0.033,0.399-0.104,0.549-0.212c0.151-0.108,0.268-0.241,0.351-0.396s0.143-0.357,0.176-0.606
			c0.034-0.248,0.033-0.496-0.005-0.742c-0.004-0.026-0.011-0.065-0.021-0.118c-0.112,0.211-0.281,0.394-0.507,0.549
			c-0.226,0.154-0.481,0.253-0.765,0.296c-0.475,0.072-0.898-0.012-1.271-0.253c-0.373-0.24-0.596-0.599-0.667-1.074
			c-0.075-0.491,0.036-0.912,0.334-1.264c0.298-0.351,0.704-0.566,1.221-0.645c0.372-0.057,0.726-0.023,1.061,0.099
			c0.335,0.123,0.606,0.329,0.814,0.618c0.208,0.29,0.356,0.731,0.446,1.326c0.094,0.618,0.09,1.123-0.014,1.514
			c-0.104,0.391-0.298,0.706-0.583,0.944c-0.285,0.24-0.639,0.391-1.062,0.455c-0.447,0.068-0.83,0.019-1.146-0.148
			S92.952,144.397,92.837,144.025z M95.395,141.452c-0.052-0.342-0.2-0.597-0.445-0.764c-0.246-0.168-0.52-0.229-0.822-0.183
			c-0.313,0.047-0.569,0.196-0.769,0.447s-0.272,0.548-0.221,0.891c0.047,0.309,0.195,0.542,0.444,0.702
			c0.25,0.158,0.536,0.214,0.859,0.165c0.326-0.05,0.579-0.187,0.76-0.411S95.446,141.793,95.395,141.452z"/>
	</g>
</g>
<g>
	<g>
		<path fill="#E6211A" d="M103.95,140.749l0.291,0.499l-3.314,1.926c-0.076-0.122-0.123-0.256-0.138-0.402
			c-0.026-0.24,0-0.506,0.078-0.799s0.223-0.662,0.433-1.108c0.325-0.694,0.52-1.207,0.584-1.539
			c0.063-0.332,0.037-0.596-0.077-0.792c-0.12-0.206-0.308-0.329-0.564-0.369s-0.524,0.021-0.806,0.184
			c-0.296,0.173-0.49,0.386-0.58,0.639c-0.091,0.254-0.061,0.514,0.093,0.781l-0.664,0.313c-0.188-0.424-0.202-0.822-0.041-1.194
			c0.161-0.374,0.48-0.699,0.956-0.976c0.481-0.28,0.927-0.389,1.339-0.326c0.411,0.063,0.714,0.26,0.907,0.593
			c0.099,0.17,0.154,0.36,0.167,0.571s-0.022,0.463-0.108,0.754c-0.085,0.292-0.256,0.725-0.516,1.297
			c-0.217,0.477-0.351,0.792-0.4,0.946c-0.052,0.154-0.084,0.298-0.097,0.433L103.95,140.749z"/>
	</g>
</g>
<g>
	<g>
		<path fill="#E6211A" d="M34.446,132.971l-0.531-0.475l2.553-2.855c-0.22-0.012-0.479-0.059-0.779-0.141
			c-0.299-0.084-0.554-0.172-0.766-0.268l0.387-0.434c0.402,0.146,0.79,0.236,1.162,0.268c0.371,0.031,0.674,0.008,0.908-0.066
			l0.342,0.305L34.446,132.971z"/>
	</g>
</g>
<g>
	<g>
		<path fill="#E6211A" d="M107.592,137.803l0.614-0.37c0.216,0.275,0.445,0.44,0.687,0.495c0.241,0.054,0.49,0.021,0.746-0.096
			c0.305-0.141,0.521-0.348,0.648-0.622c0.127-0.274,0.131-0.544,0.01-0.807c-0.116-0.251-0.309-0.413-0.578-0.485
			c-0.269-0.074-0.553-0.042-0.852,0.096c-0.122,0.057-0.266,0.146-0.429,0.271l-0.148-0.513c0.044-0.017,0.081-0.03,0.106-0.042
			c0.275-0.127,0.496-0.302,0.66-0.524c0.164-0.224,0.188-0.461,0.072-0.714c-0.093-0.199-0.249-0.329-0.471-0.387
			c-0.221-0.058-0.458-0.027-0.711,0.09c-0.252,0.115-0.432,0.278-0.537,0.489c-0.106,0.211-0.122,0.461-0.047,0.75l-0.691,0.2
			c-0.089-0.402-0.04-0.769,0.146-1.1c0.188-0.33,0.49-0.591,0.906-0.783c0.288-0.132,0.576-0.201,0.867-0.209
			c0.289-0.007,0.539,0.05,0.75,0.171c0.212,0.121,0.363,0.282,0.457,0.484c0.088,0.192,0.107,0.396,0.059,0.609
			c-0.05,0.214-0.173,0.423-0.369,0.626c0.339-0.082,0.639-0.068,0.899,0.043c0.261,0.112,0.457,0.312,0.589,0.599
			c0.18,0.389,0.163,0.795-0.048,1.22c-0.211,0.424-0.573,0.754-1.085,0.99c-0.463,0.213-0.899,0.273-1.313,0.182
			C108.119,138.375,107.807,138.153,107.592,137.803z"/>
	</g>
</g>
<g>
	<g>
		<path fill="#E6211A" d="M116.933,133.804l-0.576-1.021l-2.189,1.237l-0.271-0.479l0.742-4.064l0.506-0.286l1.562,2.763
			l0.682-0.385l0.271,0.479l-0.682,0.386l0.577,1.02L116.933,133.804z M116.085,132.304l-1.086-1.922l-0.494,2.815L116.085,132.304z
			"/>
	</g>
</g>
<g>
	<g>
		<path fill="#E6211A" d="M58.222,11.197c1.319,0.118,2.099,0.324,2.339,0.617c0.24,0.295,0.377,0.539,0.409,0.734
			c0.031,0.194,0.018,0.48-0.041,0.855c-0.059,0.377-0.135,0.573-0.229,0.588c-0.141,0.023-0.318-0.181-0.533-0.612
			c-0.445-0.66-1.125-1.282-2.038-1.868L58.222,11.197z M62.811,11.446l0.243,0.161c-0.817,2.067-1.395,3.546-1.729,4.434
			c-0.337,0.89-0.514,1.651-0.528,2.286c-0.018,0.638,0.05,1.41,0.198,2.318c0.106,0.649,0.041,0.994-0.192,1.032
			c-0.048,0.008-0.229-0.078-0.548-0.261c-0.318-0.181-0.505-0.434-0.558-0.76c-0.043-0.259-0.039-0.525,0.014-0.802
			c0.081-0.68,0.123-1.235,0.123-1.671c0.002-0.433-0.526-0.796-1.586-1.091l0.022-0.304c0.725,0.016,1.166-0.006,1.325-0.066
			c0.158-0.059,0.373-0.211,0.647-0.456C60.515,16.023,61.372,14.417,62.811,11.446z M66.152,22.604l1.964,0.979l-0.591,0.797
			c0.141,2.045,0.021,3.515-0.362,4.41c-0.384,0.897-1.068,1.708-2.057,2.437c-0.988,0.728-2.369,1.403-4.145,2.028l-0.118-0.281
			c1.119-0.518,2.19-1.175,3.215-1.976c1.024-0.802,1.689-1.592,1.994-2.376c0.305-0.783,0.456-1.625,0.454-2.524
			C66.503,25.196,66.385,24.032,66.152,22.604z M62.786,28.954c-0.219-1.63-0.421-3.014-0.606-4.15
			c-0.186-1.136-0.409-2.35-0.667-3.643l1.079,0.424l7.454-1.219l0.278-0.945l1.301,0.888l-0.451,0.773
			c0.36,2.208,0.66,3.894,0.898,5.055l-0.873,0.842l-0.987-6.039l-7.524,1.229l0.987,6.04L62.786,28.954z M66.396,13.062l1.62,0.635
			l-0.429,0.471l-0.007,0.401c1.564,2.211,3.697,3.33,6.396,3.354l0.048,0.292c-0.822,0.27-1.27,0.775-1.34,1.52
			c-2.343-1.083-4.088-2.632-5.235-4.645c-0.341,2.923-2.272,4.939-5.797,6.049l-0.118-0.281c2.133-1.081,3.537-2.279,4.214-3.589
			C66.424,15.958,66.64,14.556,66.396,13.062z M69.496,14.355l0.695-2.814l-5.203,0.851c-0.564,1.56-1.287,2.878-2.17,3.955
			l-0.172-0.172c0.59-1.097,1.033-2.219,1.326-3.367s0.485-2.33,0.576-3.545l1.495,0.756L65.544,10.5l-0.512,1.284l4.992-0.816
			l0.388-1.164l1.521,1.352c-0.636,0.239-1.367,1.358-2.194,3.36L69.496,14.355z M67.951,28.311l-0.063-0.39
			c1.845,0.099,3.31,0.226,4.394,0.382c1.084,0.157,1.755,0.43,2.013,0.821c0.255,0.392,0.406,0.8,0.452,1.227
			c0.045,0.426-0.002,0.65-0.142,0.673c-0.142,0.023-0.403-0.101-0.784-0.372c-0.705-0.485-1.521-0.918-2.45-1.3
			C70.441,28.971,69.302,28.624,67.951,28.311z"/>
	</g>
</g>
<g>
	<g>
		<path fill="#E6211A" d="M90.057,14.447l1.389,1.471l-0.704,0.268c-0.556,0.632-1.454,1.667-2.694,3.104l3.569,0.681l1.326-1.254
			l1.082,2.316l-12.948-2.468c-0.397,2.336-0.917,4.432-1.561,6.284c-0.643,1.854-1.879,3.644-3.707,5.373l-0.154-0.331
			c1.489-1.726,2.549-3.801,3.182-6.227c0.631-2.425,1.097-4.681,1.398-6.768l1.022,1.099l6.369,1.214
			C88.909,17.042,89.72,15.455,90.057,14.447z M79.813,11.49l7.56,1.44c0.161-1.107-0.065-2.457-0.681-4.049l0.267-0.25
			c0.844,0.898,1.357,1.564,1.54,2.002c0.183,0.437,0.25,0.785,0.2,1.043c-0.086,0.453-0.389,0.897-0.907,1.334l4.83,0.921
			l1.415-1.338l1.133,2.426l-13.158-2.508c-0.606-0.115-1.185-0.125-1.734-0.028L79.813,11.49z M83.755,13.648l0.194-0.265
			c0.772,1.019,1.242,1.794,1.406,2.328c0.163,0.533,0.215,0.962,0.153,1.285c-0.062,0.324-0.22,0.646-0.474,0.965
			c-0.255,0.32-0.428,0.471-0.521,0.453c-0.14-0.026-0.206-0.44-0.198-1.243C84.325,16.103,84.139,14.927,83.755,13.648z"/>
	</g>
</g>
<g>
	<g>
		<path fill="#E6211A" d="M107.135,36.496c1.357,0.68,2.311,1.121,2.861,1.322l4.826-4.521l-0.243-0.261
			c-0.423-0.45-0.885-0.8-1.386-1.046l0.211-1.074l1.851,1.976l4.394-4.117l-0.341-0.364c-0.423-0.451-0.884-0.799-1.385-1.045
			l0.21-1.075l3.068,3.275l1.449-0.187l-0.469,2.1l-1.899-2.028l-4.394,4.117l0.486,0.521l1.449-0.187L117.355,36l-1.899-2.027
			l-4.538,4.252l3.006,1.187l-0.24,0.321c-2.051-0.552-4.15-1.059-6.295-1.521l-0.966,0.124L107.135,36.496z M115.486,38.336
			c1.568-1.404,3.074-2.782,4.516-4.132c1.44-1.351,2.912-2.761,4.417-4.236l-0.015,1.283l4.043,4.315l0.989-0.243l-0.134,1.59
			l-0.822-0.011l-3.385,3.172c-1.538,1.44-2.722,2.582-3.553,3.426l-1.066-0.271l0.865-0.81l-1.754-1.872l-3.098,2.901l1.412,1.508
			l1.449-0.186l-0.469,2.1l-2.824-3.016l-2.953,2.766l2.045,2.185l1.57-0.201l-0.492,2.218l-6.625-7.071
			c-0.422-0.45-0.885-0.799-1.385-1.045l0.209-1.075l4.093,4.367l2.953-2.768l-1.071-1.143c-0.424-0.451-0.885-0.801-1.385-1.047
			l0.209-1.075l2.68,2.86l3.098-2.902L117.201,38l-0.721,0.675L115.486,38.336z M120.658,34.76l-3.025,2.836l1.803,1.924
			l3.025-2.836L120.658,34.76z M123.045,37.309l-3.025,2.834l1.754,1.872l3.025-2.835L123.045,37.309z M123.972,31.656l-2.881,2.699
			l1.803,1.924l2.881-2.699L123.972,31.656z M126.359,34.203l-2.881,2.7l1.753,1.872l2.881-2.7L126.359,34.203z"/>
	</g>
</g>
<g>
	<g>
		<path fill="#E6211A" d="M120.11,128.348c-0.372-0.443-0.617-0.846-0.736-1.207s-0.133-0.704-0.043-1.029s0.296-0.624,0.619-0.895
			c0.238-0.201,0.481-0.335,0.729-0.405c0.249-0.069,0.495-0.078,0.74-0.023s0.494,0.163,0.744,0.327
			c0.25,0.163,0.531,0.431,0.844,0.803c0.369,0.439,0.613,0.84,0.733,1.2c0.12,0.359,0.136,0.703,0.046,1.029
			s-0.297,0.626-0.621,0.899c-0.429,0.359-0.874,0.512-1.336,0.457C121.274,129.438,120.701,129.053,120.11,128.348z
			 M120.671,127.877c0.517,0.616,0.945,0.955,1.287,1.015c0.342,0.062,0.639-0.014,0.889-0.224c0.25-0.211,0.375-0.49,0.373-0.838
			c0-0.348-0.258-0.828-0.773-1.442c-0.518-0.618-0.947-0.956-1.289-1.016c-0.341-0.06-0.639,0.017-0.893,0.23
			c-0.25,0.21-0.375,0.468-0.375,0.772C119.894,126.761,120.154,127.262,120.671,127.877z"/>
	</g>
</g>
</svg>
