<?xml version="1.0" encoding="UTF-8"?>
<svg width="38px" height="28px" viewBox="0 0 38 28" version="1.1" xmlns="http://www.w3.org/2000/svg" xmlns:xlink="http://www.w3.org/1999/xlink">
    <!-- Generator: Sketch 52.5 (67469) - http://www.bohemiancoding.com/sketch -->
    <title>免限额标签@2x</title>
    <desc>Created with Sketch.</desc>
    <defs>
        <linearGradient x1="42.0553021%" y1="63.6908044%" x2="0%" y2="129.450849%" id="linearGradient-1">
            <stop stop-color="#CFB370" offset="0%"></stop>
            <stop stop-color="#F4F1D6" offset="100%"></stop>
        </linearGradient>
        <linearGradient x1="140.36392%" y1="50%" x2="0%" y2="-20.1420549%" id="linearGradient-2">
            <stop stop-color="#CFB370" offset="0%"></stop>
            <stop stop-color="#F4F1D6" offset="100%"></stop>
        </linearGradient>
    </defs>
    <g id="商城最终版" stroke="none" stroke-width="1" fill="none" fill-rule="evenodd">
        <g id="01-免限额专区" transform="translate(-201.000000, -434.000000)">
            <g id="商品" transform="translate(0.000000, 379.000000)">
                <g id="免限额标签" transform="translate(201.000000, 55.000000)">
                    <path d="M1,0 L37,-4.4408921e-16 C37.5522847,-5.45542273e-16 38,0.44771525 38,1 L38,20 L1.19363303,27.2644145 C0.651800808,27.3713551 0.125866542,27.0188058 0.0189259717,26.4769735 C0.00633864868,26.4131978 2.00636239e-15,26.3483466 1.99840144e-15,26.2833405 L0,1 C-6.76353751e-17,0.44771525 0.44771525,1.01453063e-16 1,0 Z" id="矩形" fill="url(#linearGradient-1)" fill-rule="nonzero" transform="translate(19.000000, 13.641765) scale(-1, 1) translate(-19.000000, -13.641765) "></path>
                    <path d="M1,0 L37,-7.77156117e-16 C37.5522847,3.04560999e-15 38,0.44771525 38,1 L38,20 L1.19363303,27.2644145 C0.651800808,27.3713551 0.125866542,27.0188058 0.0189259717,26.4769735 C0.00633864868,26.4131978 -6.43133259e-15,26.3483466 -6.43929354e-15,26.2833405 L-7.10542736e-15,1 C-7.17306273e-15,0.44771525 0.44771525,1.01453063e-16 1,0 Z" id="矩形" fill="url(#linearGradient-2)" fill-rule="nonzero"></path>
                    <path d="M4.28433012,10.6204823 C4.08503751,10.7644159 3.8746731,10.9083494 3.66430868,11.0412111 L3,10.2329689 C4.30647374,9.45794212 5.41365488,8.39504823 6.34368703,7.02214362 L7.40658092,7.25465166 C7.25157556,7.49823151 7.08549839,7.73073955 6.91942122,7.96324759 L10.6174062,7.96324759 L10.6174062,8.76041801 C10.218821,9.25864952 9.83130761,9.69045016 9.44379421,10.0447481 L11.979239,10.0447481 L11.979239,13.5987996 L9.47700965,13.5987996 L9.47700965,15.6138692 C9.47700965,15.9460236 9.60987138,16.1121008 9.88666667,16.1121008 L11.569582,16.1121008 C11.7245874,16.1121008 11.8353055,16.0345981 11.9017363,15.9017363 C11.9903108,15.746731 12.0456699,15.2927867 12.0678135,14.5288317 L13.0642765,14.8499143 C12.975702,15.9570954 12.8428403,16.6103323 12.6435477,16.8317685 C12.4553269,17.0310611 12.1674598,17.1307074 11.7688746,17.1307074 L9.56558414,17.1307074 C8.80162915,17.1307074 8.42518757,16.6989068 8.42518757,15.8353055 L8.42518757,13.5987996 L8.03767417,13.5987996 C7.9712433,13.7980922 7.89374062,13.986313 7.80516613,14.163462 C7.22943194,15.4256484 5.86759914,16.4885423 3.69752412,17.33 L3.03321543,16.510686 C4.93756699,15.80209 6.17760986,14.9274169 6.77548767,13.8977385 C6.81977492,13.7870204 6.87513398,13.6873741 6.91942122,13.5987996 L4.28433012,13.5987996 L4.28433012,10.6204823 Z M8.12624866,10.0447481 C8.50269025,9.71259378 8.87913183,9.3361522 9.25557342,8.91542337 L6.15546624,8.91542337 C5.77902465,9.32508039 5.40258307,9.70152197 5.00399786,10.0447481 L8.12624866,10.0447481 Z M10.9717042,12.6134084 L10.9717042,11.0190675 L8.51376206,11.0190675 C8.49161844,11.5948017 8.42518757,12.1262487 8.32554126,12.6134084 L10.9717042,12.6134084 Z M7.24050375,12.6134084 C7.35122186,12.1262487 7.42872454,11.5948017 7.46193998,11.0190675 L5.30293676,11.0190675 L5.30293676,12.6134084 L7.24050375,12.6134084 Z M14.1041751,7.45394427 L17.7025138,7.45394427 L17.7025138,8.28433012 C17.3703595,9.23650589 16.9828461,10.2329689 16.5399736,11.284791 C17.2374977,12.3033976 17.6139393,13.1891426 17.6582265,13.9530975 C17.6582265,14.4624009 17.5475084,14.8388424 17.3260722,15.0602787 C16.9939179,15.337074 16.4292555,15.4810075 15.6099414,15.4920793 L15.2667153,14.4291854 C15.4881515,14.4624009 15.6763723,14.4845445 15.8313777,14.4845445 C16.1413884,14.4624009 16.340681,14.4181136 16.4513991,14.3516827 C16.5510454,14.2741801 16.6064045,14.1413183 16.6064045,13.9530975 C16.6064045,13.2002144 16.2299629,12.3698285 15.4770797,11.4397964 C15.9753112,10.3326152 16.3628246,9.32508039 16.6506917,8.43933548 L15.1338536,8.43933548 L15.1338536,17.3078564 L14.1041751,17.3078564 L14.1041751,7.45394427 Z M19.1086338,10.4211897 L19.1086338,11.4287245 L22.0426638,11.4287245 L22.0426638,10.4211897 L19.1086338,10.4211897 Z M22.0426638,9.46901393 L22.0426638,8.43933548 L19.1086338,8.43933548 L19.1086338,9.46901393 L22.0426638,9.46901393 Z M20.1493841,12.3919721 L19.1086338,12.3919721 L19.1086338,15.8353055 C19.7065116,15.6581565 20.2933177,15.4367203 20.8690518,15.1709968 L21.1126317,16.1453162 C20.3043895,16.4774705 19.2857828,16.8096249 18.0568118,17.1307074 L17.8021601,16.2117471 C17.9793091,16.1453162 18.0789554,16.0456699 18.0789554,15.9017363 L18.0789554,7.44287245 L23.0723423,7.44287245 L23.0723423,12.3919721 L21.0904881,12.3919721 C21.2012062,12.9566345 21.4004988,13.4770096 21.6662223,13.9641693 C22.153382,13.6763023 22.618398,13.2666452 23.0612705,12.7351983 L23.736651,13.4105788 C23.2716349,13.9641693 22.740188,14.39597 22.153382,14.7059807 C22.618398,15.3149303 23.2384195,15.8463773 24.0023745,16.2892497 L23.4155685,17.2192819 C21.5997914,16.0345981 20.5036821,14.4291854 20.1493841,12.3919721 Z M25.8505153,11.6833762 C25.6180072,11.9048124 25.3744274,12.1262487 25.1087039,12.3255413 L24.5551133,11.5948017 C25.4297864,10.9526367 26.0165924,10.1554662 26.3266031,9.22543408 L27.2677071,9.35829582 C27.2012762,9.55758842 27.1237736,9.75688103 27.0462709,9.94510182 L28.6738272,9.94510182 L28.6738272,8.95971061 L25.6622945,8.95971061 L25.6622945,10.0447481 L24.7544059,10.0447481 L24.7544059,8.0739657 L26.7141165,8.0739657 C26.5812548,7.75288317 26.4262494,7.45394427 26.2712441,7.17714898 L27.334138,7 C27.4669997,7.31001072 27.5998615,7.67538049 27.7327232,8.0739657 L29.5817157,8.0739657 L29.5817157,10.0336763 L29.0391969,10.0336763 L29.0391969,10.6426259 C28.7734735,11.1740729 28.4634627,11.6501608 28.1202366,12.048746 C28.7845453,12.4362594 29.3713513,12.8237728 29.9027982,13.2112862 L29.2606332,13.8534512 C28.7734735,13.454866 28.1977393,13.0562808 27.5334306,12.6466238 C27.0130555,13.1005681 26.4262494,13.4659378 25.7730126,13.7316613 L29.0391969,13.7316613 L29.0391969,17.2303537 L28.1091648,17.2303537 L28.1091648,16.6767631 L26.3819622,16.6767631 L26.3819622,17.2303537 L25.45193,17.2303537 L25.45193,13.8534512 C25.2526374,13.9198821 25.0644167,13.9752412 24.8761959,14.0306002 L24.4886825,13.2445016 C25.3522837,13.045209 26.1051669,12.690911 26.747332,12.1816077 C26.4483931,12.0044587 26.1494542,11.8383816 25.8505153,11.6833762 Z M27.3452098,11.6058735 C27.5887896,11.3401501 27.7991541,11.052283 27.9984467,10.7422722 L26.6144702,10.7422722 C26.5258958,10.8640622 26.4483931,10.9747803 26.3708904,11.0854984 C26.7141165,11.2626474 27.0351991,11.4287245 27.3452098,11.6058735 Z M26.3819622,15.80209 L28.1091648,15.80209 L28.1091648,14.5952626 L26.3819622,14.5952626 L26.3819622,15.80209 Z M29.8363673,7.46501608 L34.7633234,7.46501608 L34.7633234,8.41719185 L32.792541,8.41719185 C32.7482537,8.77148982 32.6818229,9.12578778 32.615392,9.46901393 L34.4311691,9.46901393 L34.4311691,14.7834834 L33.5011369,14.7834834 L33.5011369,10.343687 L30.9767639,10.343687 L30.9767639,14.7945552 L30.0467318,14.7945552 L30.0467318,9.46901393 L31.6410726,9.46901393 C31.7075035,9.13685959 31.7517907,8.78256163 31.796078,8.41719185 L29.8363673,8.41719185 L29.8363673,7.46501608 Z M33.0361208,14.8720579 C33.7447168,15.4477921 34.3425946,16.0345981 34.8297543,16.6103323 L34.1543738,17.2857128 C33.7336449,16.7321222 33.1579108,16.1342444 32.4050276,15.4920793 L33.0361208,14.8720579 Z M31.7517907,10.9194212 L32.6707511,10.9194212 L32.6707511,12.8902036 C32.6375356,14.0859593 32.4160994,15.0492069 31.9953706,15.7688746 C31.5857135,16.4442551 30.9214049,16.9646302 30.0135163,17.3189282 L29.4820694,16.4996141 C30.3456707,16.1453162 30.9324767,15.6913719 31.2424874,15.1488532 C31.5524981,14.573119 31.7185753,13.8202358 31.7517907,12.8902036 L31.7517907,10.9194212 Z" id="免限额" fill="#795A15"></path>
                </g>
            </g>
        </g>
    </g>
</svg>