<?xml version="1.0" encoding="utf-8"?>
<!-- Generator: Adobe Illustrator 14.0.0, SVG Export Plug-In . SVG Version: 6.00 Build 43363)  -->
<!DOCTYPE svg PUBLIC "-//W3C//DTD SVG 1.1//EN" "http://www.w3.org/Graphics/SVG/1.1/DTD/svg11.dtd">
<svg version="1.1" id="图层_1" xmlns="http://www.w3.org/2000/svg" xmlns:xlink="http://www.w3.org/1999/xlink" x="0px" y="0px"
	 width="154px" height="154px" viewBox="0 0 154 154" enable-background="new 0 0 154 154" xml:space="preserve">
<g>
	<circle fill="none" stroke="#E6211A" stroke-width="3.5" stroke-miterlimit="10" cx="77" cy="77.28" r="74.744"/>
	<polygon fill="#E6211A" points="99.569,101.421 79.853,90.809 64.49,106.061 67.259,85.116 49.649,74.419 69.586,71.104 
		73.759,50.57 83.603,68.983 103.832,66.117 89.995,81.164 	"/>
</g>
<g>
	<g enable-background="new    ">
		<path fill="#E6211A" d="M31.503,125.051l-0.073-1.562l-6.986-7.802l-1.815,0.19l0.546-2.498l8.744,9.768
			c3.94-3.59,6.843-5.997,8.706-7.221c1.865-1.223,4.204-2.138,7.017-2.742l-0.005,0.29c-3.433,1.098-6.787,3.096-10.064,5.998
			C34.297,122.374,32.274,124.233,31.503,125.051z M25.347,122.91c-0.077-1.27-0.039-2.115,0.112-2.538
			c0.152-0.423,0.415-0.722,0.788-0.896c0.374-0.176,0.713-0.24,1.018-0.195c0.307,0.046,0.225,0.373-0.245,0.984
			c-0.468,0.61-0.905,1.479-1.31,2.606L25.347,122.91z"/>
	</g>
</g>
<g>
	<g enable-background="new    ">
		<path fill="#E6211A" d="M17.128,86.156l0.919,0.321c7.256-2.15,11.477-3.426,12.662-3.827l0.946,0.761l-1.893,0.562l3.139,10.588
			l1.514-0.449l0.945,0.76c-1.337,0.349-3.9,1.082-7.686,2.204c-3.785,1.122-6.301,1.894-7.551,2.312l0.474-1.18l-0.911-3.073
			l-4.448,1.318l1.053,3.552c0.108,0.365,0.331,0.769,0.668,1.214l-0.669,0.867l-3.767-12.706l-1.629-0.633l1.508-1.858l1.539,5.191
			l4.448-1.318l-0.891-3.005l-1.184-0.17L17.128,86.156z M14.975,95.563l4.448-1.318l-0.77-2.596l-4.448,1.318L14.975,95.563z
			 M18.958,90.592l5.678-1.683c0.567-0.168,0.812-0.39,0.73-0.663s-0.162-0.546-0.243-0.819s-0.214-0.493-0.401-0.66
			c-0.187-0.168-0.221-0.344-0.104-0.527c0.118-0.183,0.323-0.355,0.618-0.518c0.297-0.162,0.486-0.154,0.572,0.018
			c0.086,0.172,0.182,0.441,0.29,0.806l0.425,1.434c0.257,0.866-0.125,1.426-1.149,1.679l-6.151,1.823l0.769,2.596
			c2.714-0.804,4.839-1.101,6.378-0.887c1.539,0.213,2.976,0.717,4.308,1.51l-0.243,0.221c-1.481-0.601-2.961-0.905-4.44-0.913
			c-1.478-0.008-3.39,0.313-5.738,0.958l0.911,3.073l11.167-3.31l-3.139-10.588l-11.167,3.31L18.958,90.592z"/>
	</g>
</g>
<g>
	<g enable-background="new    ">
		<path fill="#E6211A" d="M27.255,69.159c0.774,0.155,2.423,0.464,4.95,0.923l0.646,1.292c-2.764-0.603-4.598-0.997-5.502-1.179
			l-9.29-1.868c1.684,1.309,3.045,2.551,4.083,3.729l-0.332,0.151c-1.471-1.361-3.212-2.632-5.225-3.813
			c-2.01-1.179-3.983-2.133-5.919-2.861l1.47-1.304l0.441,0.815c1.694,0.922,3.195,1.806,4.501,2.649l0.888-0.911l0.483,0.605
			L27.255,69.159z M16.45,60.809c-2.258-0.454-3.907-0.76-4.95-0.923l1.401-1.462l0.55,0.765l3.194,0.643l0.436-2.166l-1.075-1.16
			l2.104-0.958l-0.885,4.4l4.259,0.856l0.632-3.144l-1.075-1.161l2.105-0.957l-1.882,9.36c-0.122,0.605-0.138,1.184-0.047,1.734
			l-0.996,0.453l1.067-5.309l-4.259-0.855l-0.379,1.886c-0.122,0.606-0.137,1.184-0.046,1.735L15.607,65L16.45,60.809z
			 M26.418,62.813c-1.806-0.362-3.23-0.624-4.273-0.786l1.401-1.462l0.551,0.765l2.517,0.506l0.478-2.375l-0.91-0.982l1.883-0.856
			l-0.871,4.33l5.226,1.051l0.66-3.283l-1.076-1.161l2.106-0.957l-1.924,9.57c-0.122,0.605-0.138,1.184-0.047,1.734l-0.998,0.454
			l1.082-5.379l-5.226-1.051l-0.352,1.746c-0.122,0.605-0.137,1.185-0.046,1.735l-0.998,0.453L26.418,62.813z"/>
	</g>
</g>
<g>
	<g enable-background="new    ">
		<path fill="#E6211A" d="M20.89,38.889l-0.127-0.302c1.089-0.244,1.944-0.347,2.567-0.307c0.621,0.04,1.11,0.231,1.464,0.574
			c0.355,0.344,0.569,0.752,0.636,1.221c0.068,0.472-0.363,0.44-1.295-0.094C23.203,39.448,22.121,39.084,20.89,38.889z
			 M32.664,38.789c3.117,2.734,5.186,4.518,6.207,5.349l-0.26,1.194c-2.145-1.943-4.331-3.893-6.558-5.846l-0.658,0.75
			c-0.313,0.357-0.568,0.797-0.764,1.321l-1.091-0.104l2.067-2.357l-4.823-4.23l-0.611,0.696c-0.251,0.287-0.474,0.69-0.67,1.213
			l-1.092-0.104l4.557-5.196l-0.339-0.961l1.595-0.022l0.07,0.819c0.512,0.514,1.61,1.507,3.292,2.982
			c1.683,1.476,3.17,2.576,4.461,3.297c1.292,0.723,2.3,1.022,3.021,0.896l-2.432-3.365l0.336-0.084
			c0.531,0.593,1.236,1.337,2.113,2.232c0.877,0.897,1.619,1.5,2.223,1.807c0.604,0.309,0.456,0.528-0.443,0.654
			c-0.9,0.128-1.954,0.009-3.166-0.358c-1.209-0.366-2.485-1.058-3.825-2.076c-1.34-1.017-2.48-1.938-3.42-2.762
			c-0.938-0.824-1.938-1.731-2.995-2.722l-2.067,2.357l4.823,4.23l0.705-0.803l-0.3-1.305l1.967,0.302L32.664,38.789z
			 M34.679,47.569c0.758,0.035,1.636-0.017,2.632-0.155c0.996-0.137,2.219-0.959,3.671-2.466c1.452-1.506,2.83-3.3,4.129-5.382
			l0.298,0.261c-0.379,0.933-0.263,1.697,0.349,2.296c-1.41,1.607-2.619,2.884-3.625,3.833c-1.009,0.949-1.967,1.592-2.877,1.932
			c-0.909,0.34-1.829,0.466-2.759,0.376c-0.928-0.087-1.496-0.064-1.702,0.071c-0.206,0.136-0.183,0.708,0.068,1.718
			c0.25,1.011,0.488,1.741,0.708,2.185l-1.77-0.226c-0.16-1.214-0.096-2.484,0.192-3.812l-5.938-5.207l-0.376,0.429
			c-0.408,0.464-0.709,0.958-0.905,1.48l-1.09-0.104l1.879-2.143l-0.413-1.026l1.717-0.01l0.096,0.938L34.679,47.569z"/>
	</g>
</g>
<g>
	<g enable-background="new    ">
		<path fill="#E6211A" d="M44.508,17.326l1.264,0.152l9.219-4.504l0.059-1.018l1.437,0.506l-0.125,0.72
			c0.376,0.77,0.701,1.435,0.975,1.996c0.275,0.563,0.577,1.128,0.909,1.698l-0.808,0.944l-0.347-0.71l-9.283,4.535l0.217,0.443
			l-0.744,0.913c-0.536-1.202-1.047-2.307-1.539-3.313C45.251,18.684,44.839,17.897,44.508,17.326z M46.075,18.098l1.43,2.927
			l2.497-1.22l-1.431-2.927L46.075,18.098z M46.862,24.415l5.697-2.784c-0.275-0.671-0.557-1.302-0.846-1.894l1.819-0.009
			l-0.275,0.574l0.198,0.892l4.097-2.002l0.419-1.414l1.933,1.034l-6.209,3.034c0.161,0.654,0.307,1.278,0.438,1.873l3.393-1.658
			l-0.028-1.195l1.608,0.533l-0.122,1.049l4.376,8.958l1.28-0.625l0.396-1.623l2.147,1.148l-12.932,6.318
			c-0.641,0.313-1.173,0.684-1.599,1.11l-1.073-0.573l3.393-1.658l-3.986-8.16c-0.317-0.649-0.715-1.408-1.19-2.275l1.328,0.122
			l2.305-1.126l-0.631-1.779L49.47,23.91c-0.599,0.292-1.109,0.651-1.535,1.08L46.862,24.415z M49.468,16.44l1.43,2.927l2.497-1.22
			l-1.43-2.927L49.468,16.44z M51.428,25.81l0.866,1.773l6.53-3.19l-0.866-1.773L51.428,25.81z M52.598,28.205l0.867,1.773
			l6.53-3.19l-0.867-1.773L52.598,28.205z M52.797,14.813l1.43,2.927l2.561-1.251l-1.43-2.927L52.797,14.813z M53.768,30.599
			l0.91,1.861l6.53-3.19l-0.91-1.861L53.768,30.599z M54.981,33.083l0.954,1.951l6.53-3.19l-0.954-1.951L54.981,33.083z"/>
	</g>
</g>
<g>
	<g enable-background="new    ">
		<path fill="#E6211A" d="M101.782,35.94c0.563,0.611,1.022,1.035,1.378,1.271c0.356,0.236,0.698,0.109,1.026-0.385l1.914-2.876
			l-5.457-3.631l-3.117,4.685l-1.381,0.148c0.659-0.906,3.048-4.453,7.167-10.646c-2.202,0.906-4.319,1.476-6.354,1.702
			l-0.014-0.364c1.908-0.469,3.696-1.078,5.365-1.826c1.665-0.748,3.531-1.859,5.596-3.331l-3.263-2.171
			c-0.515-0.343-1.043-0.576-1.588-0.7l-0.041-1.095l5.339,3.552c1.346-1.081,2.369-2.02,3.072-2.818l0.718,2.139l-0.813-0.066
			c-0.788,0.583-1.443,1.055-1.97,1.417l5.042,3.354l1.938-0.726l0.106,2.798l-7.533-5.012c-1.165,0.807-2.275,1.491-3.332,2.051
			l5.101,3.394l1.022-0.506l0.297,1.739l-0.917,0.22l-6.452,9.698c-0.582,0.876-1.455,1.244-2.616,1.104
			c0.476-0.632,0.307-1.534-0.509-2.709L101.782,35.94z M102.775,27.114l-1.804,2.713l5.457,3.631l1.804-2.713L102.775,27.114z
			 M105.017,23.745l-1.914,2.877l5.457,3.631l1.914-2.877L105.017,23.745z"/>
	</g>
</g>
<g>
	<g enable-background="new    ">
		<path fill="#E6211A" d="M125.23,41.54l5.804-2.251l-1.312-2.121l-13.096,8.101c-1.511,0.935-2.842,1.786-3.992,2.553l-1.065-0.597
			c1.424-0.826,4.667-2.804,9.733-5.937c5.063-3.133,8.088-5.032,9.07-5.695l-0.109,1.324l1.274,2.061l1.093,0.079l-0.604,1.462
			l-0.721-0.226l-5.89,1.549c-0.489,1.084-0.99,1.996-1.502,2.73c-0.513,0.737-1.169,1.394-1.972,1.974
			c-0.802,0.58-1.571,0.93-2.31,1.051c-0.737,0.121-1.483-0.115-2.237-0.71c0.695-0.375,1.021-1.164,0.976-2.363l0.336-0.208
			c0.388,1.378,0.855,2.041,1.4,1.983c0.544-0.058,1.283-0.458,2.215-1.203C123.256,44.352,124.224,43.167,125.23,41.54z
			 M116.322,51.155c0.435-0.047,0.876-0.208,1.324-0.486c9.85-6.092,15.153-9.401,15.912-9.927l-0.23,1.316l2.587,4.181l1.224-0.086
			l-0.576,1.695l-0.841-0.233c-3.471,2.147-5.894,3.672-7.267,4.578l-1.149-0.546l0.756-0.467l-1.649-2.666
			c-1.163,0.999-2.27,2.212-3.317,3.644c1.712,0.393,3.397,0.552,5.054,0.477l-0.911,1.905c-0.351-0.566-1.834-1.211-4.45-1.94
			c-0.838,1.523-1.251,2.827-1.238,3.908c0.011,1.082,0.113,1.842,0.309,2.28l-0.336,0.208c-0.405-0.531-1.06-0.714-1.963-0.545
			c0.072-1.384,0.596-2.978,1.568-4.782c0.974-1.804,2.66-3.642,5.061-5.517l-0.75-1.212l-7.639,4.726l2.935,1.368l-0.177,0.277
			c-1.92-0.6-3.615-0.778-5.091-0.537L116.322,51.155z M129.131,44.655l-3.189,1.973l2.624,4.241l3.189-1.973L129.131,44.655z
			 M132.824,42.37l-3.189,1.973l2.624,4.241l3.189-1.973L132.824,42.37z"/>
	</g>
</g>
<g>
	<g enable-background="new    ">
		<path fill="#E6211A" d="M124.809,68.974l1.291,8.311c1.236-0.69,2.637-1.64,4.205-2.852l0.321,0.173
			c-1.729,1.999-3.097,3.329-4.105,3.99c-1.009,0.658-1.882,0.833-2.619,0.522c-0.738-0.31-0.743-0.609-0.019-0.896
			c0.727-0.287,1.309-0.53,1.746-0.732c-1.05-4.461-1.714-6.986-1.99-7.571c-0.275-0.588-0.598-1.024-0.968-1.311l1.952-1.047
			c0.05,0.377,0.536,0.793,1.458,1.246c0.922,0.454,2.458,1.03,4.608,1.73c2.147,0.699,4.028,1.111,5.638,1.235l-1.46,1.773
			l-0.592-0.712C130.393,71.571,127.237,70.284,124.809,68.974z M143.995,68.754l-1.254,1.818l-0.689-0.7
			c-4.771-0.954-8.463-2.529-11.073-4.726l0.265-0.25c2.512,1.441,4.918,2.456,7.22,3.041
			C140.761,68.52,142.606,68.793,143.995,68.754z M144.617,73.487l-0.671-0.558c-1.968,0.689-3.845,1.691-5.629,3.002
			c-1.786,1.313-2.933,2.817-3.439,4.512l-0.294,0.038c-0.099-0.753-0.562-1.243-1.388-1.47c1.262-1.507,2.873-2.881,4.836-4.12
			c1.96-1.241,4.321-2.21,7.084-2.907L144.617,73.487z"/>
	</g>
</g>
<g>
	<g enable-background="new    ">
		<path fill="#E6211A" d="M142.188,93.903l-2.806,10.901l0.832,0.729l-1.545,0.853l-0.433-0.699l-16.537-4.257
			c-1.478-0.332-2.335-1.092-2.573-2.281c0.766,0.197,1.674-0.428,2.725-1.873l0.478,0.122c-0.476,1.056-0.769,1.801-0.881,2.238
			c-0.112,0.437,0.214,0.754,0.978,0.95l16.348,4.208l2.255-8.763c0.153-0.599,0.2-1.175,0.139-1.729L142.188,93.903z
			 M127.364,98.033c-0.764-0.196-1.504-0.363-2.216-0.497l-0.307-1.183l1.72,0.442l1.189-4.622l-1.624-0.418l-0.402-1.208
			c0.815,0.259,2.242,0.651,4.282,1.176c2.039,0.525,3.64,0.912,4.799,1.162l-1.127,0.813l-1.154,4.484l0.832,0.729l-1.546,0.853
			l-0.431-0.699L127.364,98.033z M133.105,93.552l-4.78-1.23l-1.189,4.623l4.78,1.229L133.105,93.552z M137.936,91.411l-2.29,8.9
			l1.011,1.218l-2.152,0.843l2.29-8.9c0.166-0.645,0.206-1.198,0.121-1.661L137.936,91.411z"/>
	</g>
</g>
<g>
	<g enable-background="new    ">
		<path fill="#E6211A" d="M49.197,138.99l0.734,0.152c-0.031,0.31,0.03,0.567,0.183,0.771c0.151,0.203,0.365,0.344,0.639,0.422
			c0.33,0.093,0.639,0.066,0.927-0.079c0.287-0.146,0.48-0.393,0.578-0.739c0.093-0.33,0.057-0.621-0.108-0.874
			c-0.166-0.253-0.426-0.429-0.781-0.529c-0.222-0.063-0.433-0.076-0.634-0.042c-0.201,0.034-0.373,0.104-0.512,0.212l-0.623-0.253
			l1.223-2.268l2.774,0.783l-0.156,0.553l-2.227-0.628l-0.658,1.181c0.392-0.103,0.771-0.102,1.138,0.002
			c0.487,0.138,0.858,0.396,1.113,0.775c0.255,0.38,0.319,0.794,0.192,1.241c-0.12,0.427-0.372,0.754-0.754,0.981
			c-0.465,0.28-1.007,0.334-1.626,0.159c-0.508-0.144-0.888-0.381-1.142-0.712C49.224,139.77,49.131,139.399,49.197,138.99z"/>
	</g>
</g>
<g>
	<g enable-background="new    ">
		<path fill="#E6211A" d="M56.568,139.933c0.18-0.551,0.393-0.972,0.636-1.263c0.244-0.292,0.528-0.484,0.852-0.58
			c0.324-0.096,0.687-0.077,1.087,0.054c0.296,0.097,0.538,0.232,0.729,0.406c0.189,0.173,0.327,0.378,0.41,0.615
			c0.083,0.237,0.121,0.505,0.115,0.805c-0.006,0.299-0.085,0.679-0.236,1.14c-0.179,0.546-0.39,0.965-0.631,1.258
			c-0.244,0.291-0.528,0.485-0.852,0.581c-0.324,0.098-0.688,0.079-1.092-0.053c-0.531-0.174-0.896-0.472-1.093-0.893
			C56.256,141.496,56.281,140.807,56.568,139.933z M57.264,140.16c-0.25,0.764-0.312,1.307-0.182,1.629
			c0.129,0.322,0.348,0.534,0.659,0.637c0.311,0.102,0.613,0.06,0.909-0.124c0.295-0.185,0.567-0.658,0.816-1.42
			c0.251-0.766,0.312-1.31,0.183-1.63c-0.13-0.322-0.352-0.534-0.668-0.638c-0.311-0.102-0.595-0.072-0.853,0.089
			C57.802,138.911,57.514,139.396,57.264,140.16z"/>
	</g>
</g>
<g>
	<g enable-background="new    ">
		<path fill="#E6211A" d="M65.552,145.068l-0.691-0.169l0.908-3.722c-0.199,0.093-0.451,0.174-0.754,0.242
			c-0.302,0.068-0.57,0.109-0.802,0.124l0.138-0.564c0.425-0.06,0.808-0.163,1.151-0.311c0.342-0.147,0.599-0.31,0.77-0.486
			l0.446,0.108L65.552,145.068z"/>
	</g>
</g>
<g>
	<g enable-background="new    ">
		<path fill="#E6211A" d="M71.521,143.824c0.068-0.574,0.193-1.029,0.375-1.363s0.421-0.58,0.72-0.736
			c0.3-0.158,0.658-0.213,1.077-0.163c0.31,0.036,0.574,0.121,0.795,0.254c0.22,0.132,0.395,0.307,0.523,0.522
			c0.129,0.217,0.219,0.471,0.271,0.766c0.054,0.295,0.052,0.682-0.006,1.164c-0.067,0.57-0.191,1.023-0.371,1.357
			c-0.181,0.334-0.42,0.58-0.719,0.738c-0.3,0.158-0.659,0.213-1.081,0.164c-0.555-0.066-0.972-0.285-1.248-0.66
			C71.526,145.418,71.413,144.736,71.521,143.824z M72.248,143.91c-0.094,0.799-0.047,1.342,0.144,1.633
			c0.189,0.29,0.446,0.455,0.771,0.493s0.614-0.062,0.866-0.302c0.254-0.238,0.427-0.756,0.521-1.553
			c0.095-0.8,0.048-1.346-0.144-1.635c-0.189-0.289-0.45-0.453-0.78-0.492c-0.325-0.037-0.598,0.047-0.818,0.257
			C72.529,142.579,72.343,143.111,72.248,143.91z"/>
	</g>
</g>
<g>
	<g enable-background="new    ">
		<path fill="#E6211A" d="M78.539,144.395c-0.006-0.579,0.059-1.046,0.196-1.4c0.137-0.354,0.344-0.629,0.619-0.823
			c0.276-0.195,0.625-0.295,1.047-0.3c0.312-0.004,0.585,0.047,0.82,0.149c0.236,0.104,0.432,0.253,0.587,0.45
			c0.155,0.198,0.277,0.439,0.368,0.725c0.09,0.285,0.139,0.671,0.144,1.156c0.007,0.574-0.058,1.039-0.193,1.394
			c-0.136,0.354-0.342,0.629-0.618,0.825c-0.274,0.195-0.625,0.296-1.05,0.301c-0.559,0.006-1-0.157-1.323-0.493
			C78.749,145.976,78.55,145.314,78.539,144.395z M79.27,144.387c0.01,0.804,0.128,1.337,0.354,1.601
			c0.226,0.263,0.502,0.394,0.829,0.39s0.6-0.141,0.82-0.41c0.22-0.27,0.325-0.806,0.315-1.607c-0.009-0.806-0.126-1.34-0.353-1.603
			s-0.505-0.392-0.837-0.388c-0.327,0.004-0.587,0.123-0.779,0.359C79.378,143.03,79.261,143.582,79.27,144.387z"/>
	</g>
</g>
<g>
	<g enable-background="new    ">
		<path fill="#E6211A" d="M86.474,143.431c-0.067-0.574-0.052-1.046,0.048-1.412c0.099-0.366,0.275-0.661,0.529-0.884
			c0.253-0.224,0.59-0.358,1.009-0.408c0.309-0.036,0.586-0.016,0.832,0.063c0.245,0.077,0.455,0.206,0.631,0.387
			c0.175,0.18,0.322,0.406,0.442,0.68c0.119,0.274,0.208,0.653,0.264,1.135c0.067,0.571,0.052,1.039-0.045,1.407
			c-0.099,0.365-0.274,0.66-0.527,0.885c-0.254,0.225-0.592,0.361-1.014,0.41c-0.556,0.065-1.011-0.053-1.367-0.351
			C86.849,144.98,86.582,144.345,86.474,143.431z M87.201,143.346c0.094,0.799,0.267,1.316,0.52,1.556
			c0.252,0.237,0.541,0.337,0.865,0.299c0.325-0.038,0.582-0.202,0.772-0.493c0.19-0.292,0.238-0.835,0.145-1.632
			c-0.094-0.8-0.267-1.318-0.519-1.556c-0.252-0.238-0.544-0.337-0.873-0.299c-0.325,0.038-0.57,0.186-0.737,0.44
			C87.165,141.986,87.108,142.548,87.201,143.346z"/>
	</g>
</g>
<g>
	<g enable-background="new    ">
		<path fill="#E6211A" d="M93.669,142.806l0.681-0.223c0.149,0.317,0.335,0.529,0.558,0.636c0.223,0.107,0.473,0.133,0.749,0.075
			c0.328-0.067,0.585-0.221,0.771-0.459c0.186-0.238,0.25-0.5,0.191-0.783c-0.057-0.271-0.207-0.472-0.452-0.604
			c-0.246-0.132-0.53-0.165-0.854-0.098c-0.131,0.027-0.291,0.084-0.478,0.167l-0.03-0.532c0.048-0.005,0.086-0.011,0.114-0.017
			c0.297-0.062,0.551-0.183,0.761-0.362c0.211-0.181,0.287-0.406,0.23-0.68c-0.044-0.216-0.168-0.377-0.37-0.482
			s-0.44-0.129-0.714-0.072c-0.271,0.056-0.482,0.174-0.633,0.355c-0.151,0.182-0.223,0.421-0.215,0.72l-0.719,0.039
			c0.004-0.411,0.134-0.757,0.391-1.037c0.257-0.279,0.61-0.466,1.06-0.56c0.311-0.063,0.606-0.066,0.892-0.008
			c0.283,0.058,0.515,0.17,0.692,0.335c0.179,0.165,0.291,0.357,0.336,0.575c0.043,0.207,0.017,0.41-0.08,0.606
			c-0.097,0.197-0.264,0.374-0.501,0.526c0.349-0.003,0.639,0.078,0.867,0.245c0.229,0.169,0.375,0.406,0.438,0.716
			c0.087,0.419-0.021,0.812-0.321,1.177c-0.302,0.366-0.729,0.606-1.281,0.722c-0.498,0.104-0.938,0.063-1.318-0.119
			C94.052,143.48,93.798,143.195,93.669,142.806z"/>
	</g>
</g>
<g>
	<g enable-background="new    ">
		<path fill="#E6211A" d="M100.592,139.922c-0.213-0.537-0.319-0.998-0.318-1.377c0.002-0.38,0.097-0.71,0.285-0.991
			c0.188-0.28,0.478-0.498,0.87-0.653c0.289-0.114,0.563-0.166,0.819-0.153c0.257,0.011,0.494,0.082,0.709,0.211
			c0.216,0.129,0.416,0.311,0.603,0.544c0.187,0.234,0.368,0.577,0.547,1.028c0.212,0.535,0.317,0.991,0.317,1.371
			c0,0.379-0.094,0.709-0.281,0.991c-0.188,0.282-0.479,0.501-0.874,0.657c-0.52,0.206-0.99,0.209-1.411,0.013
			C101.351,141.323,100.93,140.777,100.592,139.922z M101.271,139.652c0.296,0.748,0.596,1.204,0.901,1.37
			c0.305,0.165,0.61,0.187,0.914,0.066s0.51-0.345,0.619-0.676c0.108-0.331,0.016-0.868-0.279-1.614
			c-0.297-0.749-0.597-1.205-0.902-1.37c-0.305-0.164-0.611-0.186-0.92-0.063c-0.304,0.12-0.504,0.326-0.6,0.614
			C100.886,138.349,100.975,138.905,101.271,139.652z"/>
	</g>
</g>
<g>
	<g enable-background="new    ">
		<path fill="#E6211A" d="M108.368,136.219c-0.301,0.074-0.555,0.074-0.764,0.002c-0.209-0.071-0.374-0.21-0.495-0.413
			c-0.183-0.305-0.206-0.64-0.07-1.005c0.136-0.363,0.421-0.674,0.853-0.932c0.435-0.26,0.849-0.362,1.24-0.308
			c0.393,0.055,0.68,0.235,0.861,0.541c0.117,0.195,0.158,0.4,0.124,0.618c-0.036,0.216-0.153,0.438-0.353,0.663
			c0.355-0.099,0.669-0.103,0.94-0.009c0.271,0.091,0.485,0.268,0.641,0.527c0.215,0.36,0.244,0.752,0.089,1.177
			c-0.154,0.424-0.477,0.783-0.969,1.077c-0.49,0.293-0.961,0.405-1.408,0.341c-0.448-0.066-0.781-0.282-1.001-0.649
			c-0.163-0.273-0.218-0.551-0.163-0.834C107.946,136.733,108.105,136.468,108.368,136.219z M107.723,135.418
			c0.119,0.198,0.293,0.316,0.52,0.352s0.461-0.019,0.703-0.163c0.236-0.142,0.391-0.319,0.467-0.534s0.06-0.413-0.049-0.596
			c-0.113-0.189-0.286-0.302-0.518-0.337c-0.232-0.037-0.464,0.013-0.695,0.151c-0.232,0.139-0.389,0.318-0.467,0.536
			C107.605,135.045,107.619,135.242,107.723,135.418z M108.686,137.477c0.088,0.148,0.215,0.266,0.379,0.354
			c0.166,0.088,0.352,0.121,0.56,0.1s0.406-0.09,0.595-0.201c0.291-0.175,0.485-0.397,0.58-0.671
			c0.096-0.271,0.07-0.529-0.076-0.774c-0.148-0.248-0.369-0.396-0.662-0.441c-0.292-0.045-0.586,0.021-0.88,0.196
			c-0.287,0.172-0.479,0.394-0.571,0.667C108.517,136.979,108.543,137.236,108.686,137.477z"/>
	</g>
</g>
<g>
	<g enable-background="new    ">
		<path fill="#E6211A" d="M43.446,137.045l0.682-0.954l-2.047-1.462l0.32-0.448l3.998-1.044l0.473,0.338l-1.844,2.582l0.637,0.455
			l-0.32,0.448l-0.637-0.455l-0.682,0.954L43.446,137.045z M44.448,135.643l1.283-1.797l-2.759,0.741L44.448,135.643z"/>
	</g>
</g>
<g>
	<g enable-background="new    ">
		<path fill="#E6211A" d="M115.932,130.145l-0.582,0.405c-0.176-0.171-0.342-0.272-0.496-0.303c-0.253-0.049-0.501,0-0.742,0.146
			c-0.194,0.117-0.338,0.266-0.43,0.445c-0.121,0.233-0.168,0.497-0.143,0.791c0.025,0.293,0.162,0.652,0.409,1.074
			c0.034-0.277,0.129-0.525,0.287-0.744c0.157-0.22,0.352-0.4,0.585-0.54c0.406-0.244,0.829-0.325,1.268-0.243
			c0.438,0.081,0.776,0.321,1.018,0.722c0.158,0.265,0.238,0.55,0.239,0.856s-0.079,0.591-0.242,0.853
			c-0.162,0.262-0.394,0.482-0.691,0.662c-0.509,0.305-1.019,0.396-1.529,0.272s-0.984-0.548-1.42-1.272
			c-0.487-0.812-0.664-1.508-0.53-2.09c0.117-0.507,0.438-0.917,0.962-1.232c0.391-0.234,0.768-0.334,1.128-0.3
			C115.384,129.682,115.687,129.848,115.932,130.145z M114.527,133.45c0.106,0.178,0.254,0.321,0.44,0.43s0.386,0.157,0.598,0.146
			c0.212-0.011,0.405-0.07,0.582-0.176c0.257-0.155,0.426-0.376,0.506-0.662c0.08-0.287,0.029-0.581-0.151-0.883
			c-0.175-0.29-0.404-0.464-0.688-0.521c-0.283-0.057-0.563-0.002-0.842,0.165c-0.275,0.166-0.46,0.39-0.552,0.672
			C114.329,132.903,114.365,133.18,114.527,133.45z"/>
	</g>
</g>
<g>
	<g enable-background="new    ">
		<path fill="#E6211A" d="M119.594,128.485c-0.338-0.47-0.553-0.891-0.644-1.259c-0.092-0.368-0.081-0.713,0.033-1.03
			s0.343-0.6,0.685-0.846c0.253-0.182,0.505-0.299,0.758-0.35c0.252-0.052,0.499-0.041,0.739,0.032
			c0.24,0.071,0.479,0.199,0.717,0.381c0.238,0.182,0.498,0.469,0.782,0.863c0.336,0.467,0.549,0.883,0.642,1.251
			c0.093,0.369,0.082,0.711-0.03,1.031c-0.114,0.318-0.343,0.602-0.688,0.85c-0.454,0.326-0.909,0.445-1.365,0.357
			C120.675,129.658,120.132,129.231,119.594,128.485z M120.189,128.058c0.469,0.652,0.872,1.021,1.208,1.107
			s0.637,0.033,0.902-0.158c0.266-0.19,0.411-0.459,0.436-0.806c0.024-0.348-0.196-0.847-0.665-1.497
			c-0.471-0.654-0.873-1.023-1.209-1.109c-0.336-0.085-0.639-0.03-0.908,0.164c-0.266,0.19-0.408,0.438-0.431,0.741
			C119.498,126.887,119.719,127.405,120.189,128.058z"/>
	</g>
</g>
<g>
	<g enable-background="new    ">
		<path fill="#E6211A" d="M78.724,12.202c0.023-1.052,0.027-2.271,0.012-3.653l1.684,1.224l-0.658,0.775l-0.42,18.159l2.92,0.067
			l0.379-16.382c0.02-0.92,0.025-2.171,0.014-3.752l1.754,1.225l-0.729,0.675L83.351,24.75c1.891-3.708,3.211-7.332,3.957-10.869
			l1.67,1.717l-0.793,0.475c-1.813,4.436-3.43,7.591-4.852,9.467l-0.074,3.256l3.348,0.077l1.176-1.553l1.518,2.207l-14.603-0.337
			c-0.616-0.014-1.189,0.071-1.716,0.257l-0.62-0.903l5.982,0.138L78.724,12.202z M73.911,13.869
			c2.088,4.195,3.192,6.805,3.312,7.827c0.119,1.024-0.043,1.875-0.486,2.556c-0.444,0.681-0.73,0.198-0.858-1.452
			c-0.129-1.647-0.857-4.562-2.186-8.739L73.911,13.869z"/>
	</g>
</g>
<g>
	<g enable-background="new    ">
		<path fill="#E6211A" d="M124.734,123.776c-0.402-0.415-0.676-0.8-0.82-1.151c-0.144-0.352-0.183-0.693-0.116-1.023
			c0.066-0.331,0.251-0.644,0.555-0.937c0.223-0.217,0.456-0.369,0.698-0.457c0.241-0.088,0.487-0.112,0.735-0.075
			c0.249,0.036,0.503,0.127,0.765,0.271c0.262,0.146,0.562,0.392,0.899,0.74c0.4,0.413,0.672,0.795,0.817,1.146
			c0.145,0.351,0.185,0.691,0.119,1.024c-0.065,0.332-0.251,0.646-0.556,0.941c-0.401,0.389-0.835,0.572-1.3,0.551
			C125.973,124.78,125.375,124.437,124.734,123.776z M125.26,123.267c0.56,0.577,1.012,0.884,1.357,0.921
			c0.345,0.035,0.635-0.061,0.87-0.287c0.234-0.228,0.339-0.515,0.313-0.862c-0.026-0.347-0.318-0.809-0.876-1.384
			c-0.561-0.579-1.014-0.886-1.357-0.922c-0.345-0.034-0.637,0.063-0.875,0.295c-0.235,0.228-0.341,0.493-0.318,0.796
			C124.405,122.209,124.701,122.689,125.26,123.267z"/>
	</g>
</g>
</svg>
