<?xml version="1.0" encoding="UTF-8"?>
<svg width="14px" height="18px" viewBox="0 0 14 18" version="1.1" xmlns="http://www.w3.org/2000/svg" xmlns:xlink="http://www.w3.org/1999/xlink" style="background: #B1B1B1;">
    <!-- Generator: Sketch 52.2 (67145) - http://www.bohemiancoding.com/sketch -->
    <title>订单 (1)</title>
    <desc>Created with Sketch.</desc>
    <g id="Page-1" stroke="none" stroke-width="1" fill="none" fill-rule="evenodd">
        <g id="02-01-确认支付" transform="translate(-15.000000, -82.000000)">
            <rect fill="#F2F3F4" x="0" y="0" width="375" height="667"></rect>
            <g id="订单-(1)" transform="translate(15.000000, 82.000000)" fill="#B1B1B1" fill-rule="nonzero">
                <path d="M13.9204082,17.9870813 L0,17.9870813 L0,1.85382775 L13.9816327,1.85382775 L13.9204082,17.9870813 Z M1.2244898,16.6952153 L12.7,16.6952153 L12.7510204,3.14569378 L1.2244898,3.14569378 L1.2244898,16.6952153 Z" id="形状"></path>
                <path d="M3.65714286,6.92009569 L10.2102041,6.92009569 L10.2102041,8.24210526 L3.65714286,8.24210526 L3.65714286,6.92009569 Z M3.74489796,9.56411483 L8.78367347,9.56411483 L8.78367347,10.8861244 L3.74489796,10.8861244 L3.74489796,9.56411483 Z M3.74489796,12.2318182 L7.3877551,12.2318182 L7.3877551,13.5538278 L3.74489796,13.5538278 L3.74489796,12.2318182 Z M4.99863265,0.0772966507 L4.99863265,4.92179426 L3.67210204,4.92179426 L3.67210204,0.0772966507 L4.99863265,0.0772966507 Z M10.3077959,0.00422009569 L10.3077959,4.8487177 L8.98126531,4.8487177 L8.98126531,0.00422009569 L10.3077959,0.00422009569 Z" id="形状"></path>
            </g>
        </g>
    </g>
</svg>