<?xml version="1.0" encoding="UTF-8"?>
<svg width="13px" height="19px" viewBox="0 0 13 19" version="1.1" xmlns="http://www.w3.org/2000/svg" xmlns:xlink="http://www.w3.org/1999/xlink">
    <!-- Generator: Sketch 52.2 (67145) - http://www.bohemiancoding.com/sketch -->
    <title>地点icon@2x</title>
    <desc>Created with Sketch.</desc>
    <defs>
        <polygon id="path-1" points="0 0.0185440926 12.9972389 0.0185440926 12.9972389 18.9768575 0 18.9768575"></polygon>
    </defs>
    <g id="下单" stroke="none" stroke-width="1" fill="none" fill-rule="evenodd">
        <g id="我的订单-代发货" transform="translate(-24.000000, -133.000000)">
            <g id="part1" transform="translate(0.000000, 116.000000)">
                <g id="分组-4" transform="translate(24.000000, 15.000000)">
                    <g id="地点icon" transform="translate(0.000000, 2.000000)">
                        <g id="分组">
                            <mask id="mask-2" fill="white">
                                <use xlink:href="#path-1"></use>
                            </mask>
                            <g id="Clip-2"></g>
                            <path d="M0.821889134,6.82325177 C0.821889134,7.86123959 0.90690781,8.20981206 1.52205722,9.68984495 C1.83079903,10.4331647 3.20963493,12.7016066 5.6585649,16.4951706 L5.65856714,16.4951691 C5.95810163,16.959169 6.57706855,17.0924946 7.04106845,16.7929601 C7.16036771,16.7159466 7.26189745,16.614409 7.33890163,16.4951037 C9.78738734,12.7015799 11.1660068,10.4331603 11.4747601,9.68984495 C12.0899095,8.20937235 12.1749944,7.86123959 12.1749944,6.82325177 C12.1749944,3.5465039 9.63257844,0.880324848 6.50741375,0.880324848 C3.36423888,0.880324848 0.821889134,3.5465039 0.821889134,6.82325177 Z" id="Fill-1" stroke="#888888" stroke-width="1.5" mask="url(#mask-2)"></path>
                        </g>
                        <path d="M6.50006427,4.95729967 C5.09766846,4.95729967 3.95716631,6.09786884 3.95716631,7.50024422 C3.95716631,8.9026196 5.09766846,10.0426746 6.50006427,10.0426746 C7.90233154,10.0426746 9.04283369,8.90210545 9.04283369,7.49975578 C9.04283369,6.0973804 7.90233154,4.95729967 6.50006427,4.95729967" id="Fill-3" stroke="#888888" stroke-width="1.5"></path>
                    </g>
                </g>
            </g>
        </g>
    </g>
</svg>