<?xml version="1.0" encoding="UTF-8"?>
<svg width="375px" height="90px" viewBox="0 0 375 90" version="1.1" xmlns="http://www.w3.org/2000/svg" xmlns:xlink="http://www.w3.org/1999/xlink">
    <!-- Generator: Sketch 52.5 (67469) - http://www.bohemiancoding.com/sketch -->
    <title>个人中心-背景@2x</title>
    <desc>Created with Sketch.</desc>
    <defs>
        <linearGradient x1="100%" y1="100%" x2="84.2276037%" y2="4.67320867%" id="linearGradient-1">
            <stop stop-color="#EFC1AD" offset="0%"></stop>
            <stop stop-color="#D49377" offset="100%"></stop>
        </linearGradient>
        <path d="M375,90 L1.77635684e-15,90 L0,0 L375,0 L375,90 Z" id="path-2"></path>
        <linearGradient x1="92.5366724%" y1="88.6565637%" x2="82.8838283%" y2="68.9277605%" id="linearGradient-4">
            <stop stop-color="#FFFFFF" stop-opacity="0.314000226" offset="0%"></stop>
            <stop stop-color="#F6CFBD" offset="100%"></stop>
        </linearGradient>
        <linearGradient x1="67.340625%" y1="-11.9197402%" x2="60.1364583%" y2="50%" id="linearGradient-5">
            <stop stop-color="#D8A189" stop-opacity="0" offset="0%"></stop>
            <stop stop-color="#DAA38B" stop-opacity="0.521130874" offset="29.4911945%"></stop>
            <stop stop-color="#DBA58D" offset="100%"></stop>
        </linearGradient>
        <linearGradient x1="102.876736%" y1="42.0806548%" x2="88.402726%" y2="104.014851%" id="linearGradient-6">
            <stop stop-color="#C7643B" stop-opacity="0.199133832" offset="0%"></stop>
            <stop stop-color="#DBA58D" offset="100%"></stop>
        </linearGradient>
        <linearGradient x1="0%" y1="106.373941%" x2="88.1388846%" y2="24.1936453%" id="linearGradient-7">
            <stop stop-color="#FFE6D9" stop-opacity="0" offset="0%"></stop>
            <stop stop-color="#F4CBB5" stop-opacity="0.450237772" offset="100%"></stop>
        </linearGradient>
        <path d="M71.0756436,82.7863761 C80.2346669,77.0836224 87.6976969,72.0282619 85.2876707,67.1436862 C82.9819119,62.4709365 75.3829384,63.9120154 70.006574,56.1651406 C63.625812,46.9361455 65.2300764,34.7396003 73.5899371,28.924314 C81.9497977,23.1083657 93.8996207,25.8746812 100.280383,35.1036762 C109.168179,47.9582061 127.292869,82.7863761 71.0756436,82.7863761 M59.8886877,76.801629 C54.1328695,76.801629 49.4672384,73.8704864 49.4672384,70.2548809 C49.4672384,66.6392755 54.1328695,63.7081329 59.8886877,63.7081329 C65.6445059,63.7081329 70.310137,66.6392755 70.310137,70.2548809 C70.310137,73.8704864 65.6445059,76.801629 59.8886877,76.801629 M19.3458711,35.1030143 C25.7259732,25.8746812 37.6751362,23.1083657 46.034337,28.923652 C54.3928778,34.7396003 55.9971422,46.9341596 49.6163802,56.1624928 C44.2413356,63.9087057 36.6423621,62.4676267 34.3372632,67.1397145 C31.9272371,72.0242902 39.3896072,77.0796506 48.5479705,82.7817424 C-7.66397552,82.7817424 10.4593947,47.9562202 19.3458711,35.1030143 M116.088755,54.551953 L82.5853002,11.1633638 C71.0921416,-3.72138606 48.6845738,-3.72138606 37.1914152,11.1633638 L3.68796032,54.551953 C-5.19785622,66.0594017 2.97854682,82.7863761 17.4895175,82.7863761 L102.287198,82.7863761 C116.798829,82.7863761 124.974572,66.0594017 116.088755,54.551953" id="path-8"></path>
        <filter x="-1.7%" y="-2.4%" width="103.3%" height="104.8%" filterUnits="objectBoundingBox" id="filter-9">
            <feGaussianBlur stdDeviation="2" in="SourceAlpha" result="shadowBlurInner1"></feGaussianBlur>
            <feOffset dx="0" dy="0" in="shadowBlurInner1" result="shadowOffsetInner1"></feOffset>
            <feComposite in="shadowOffsetInner1" in2="SourceAlpha" operator="arithmetic" k2="-1" k3="1" result="shadowInnerInner1"></feComposite>
            <feColorMatrix values="0 0 0 0 1   0 0 0 0 1   0 0 0 0 1  0 0 0 0.0947690217 0" type="matrix" in="shadowInnerInner1"></feColorMatrix>
        </filter>
        <linearGradient x1="168.148495%" y1="-41.5393728%" x2="13.40135%" y2="131.762606%" id="linearGradient-10">
            <stop stop-color="#F7E3D8" stop-opacity="0.594004755" offset="0%"></stop>
            <stop stop-color="#EBC2B0" stop-opacity="0.484488225" offset="100%"></stop>
        </linearGradient>
        <path d="M79.4000666,39.5277951 C81.8041535,39.5277951 83.7528959,41.4825521 83.7528959,43.894059 C83.7528959,46.3055659 81.8041535,48.2603229 79.4000666,48.2603229 C76.9959798,48.2603229 75.0472374,46.3055659 75.0472374,43.894059 C75.0472374,41.4825521 76.9959798,39.5277951 79.4000666,39.5277951 Z M41.4546934,48.2605877 C39.0506065,48.2605877 37.1018641,46.3058307 37.1018641,43.8943238 C37.1018641,41.4828169 39.0506065,39.5280599 41.4546934,39.5280599 C43.8587802,39.5280599 45.8075226,41.4828169 45.8075226,43.8943238 C45.8075226,46.3058307 43.8587802,48.2605877 41.4546934,48.2605877 Z" id="path-11"></path>
        <filter x="-2.1%" y="-11.5%" width="104.3%" height="122.9%" filterUnits="objectBoundingBox" id="filter-12">
            <feGaussianBlur stdDeviation="1" in="SourceAlpha" result="shadowBlurInner1"></feGaussianBlur>
            <feOffset dx="0" dy="0" in="shadowBlurInner1" result="shadowOffsetInner1"></feOffset>
            <feComposite in="shadowOffsetInner1" in2="SourceAlpha" operator="arithmetic" k2="-1" k3="1" result="shadowInnerInner1"></feComposite>
            <feColorMatrix values="0 0 0 0 1   0 0 0 0 1   0 0 0 0 1  0 0 0 0.0947690217 0" type="matrix" in="shadowInnerInner1"></feColorMatrix>
        </filter>
    </defs>
    <g id="V1.1.0-2019-01-14-陶雪" stroke="none" stroke-width="1" fill="none" fill-rule="evenodd">
        <g id="03待付款" transform="translate(0.000000, -64.000000)">
            <g id="代付款">
                <g id="上部底子" transform="translate(0.000000, 64.000000)">
                    <g id="Group-2">
                        <g id="代发货">
                            <g id="上部底子">
                                <mask id="mask-3" fill="white">
                                    <use xlink:href="#path-2"></use>
                                </mask>
                                <use id="Combined-Shape" fill="url(#linearGradient-1)" xlink:href="#path-2"></use>
                                <circle id="Oval" fill="url(#linearGradient-4)" opacity="0.360832556" mask="url(#mask-3)" cx="90.5" cy="-158.5" r="261.5"></circle>
                                <rect id="Rectangle-12" fill="url(#linearGradient-5)" mask="url(#mask-3)" x="0" y="-30" width="375" height="172"></rect>
                                <circle id="Oval" fill="url(#linearGradient-6)" mask="url(#mask-3)" cx="23.5" cy="-77.5" r="157.5"></circle>
                                <g id="Page-1" opacity="0.810405344" mask="url(#mask-3)">
                                    <g transform="translate(221.000000, 12.194444)">
                                        <g id="Fill-1">
                                            <use fill="url(#linearGradient-7)" fill-rule="evenodd" xlink:href="#path-8"></use>
                                            <use fill="black" fill-opacity="1" filter="url(#filter-9)" xlink:href="#path-8"></use>
                                        </g>
                                        <g id="Combined-Shape" opacity="0.679744112">
                                            <use fill="url(#linearGradient-10)" fill-rule="evenodd" xlink:href="#path-11"></use>
                                            <use fill="black" fill-opacity="1" filter="url(#filter-12)" xlink:href="#path-11"></use>
                                        </g>
                                    </g>
                                </g>
                            </g>
                        </g>
                    </g>
                </g>
            </g>
        </g>
    </g>
</svg>