<?xml version="1.0" encoding="UTF-8"?>
<svg width="16px" height="16px" viewBox="0 0 16 16" version="1.1" xmlns="http://www.w3.org/2000/svg" xmlns:xlink="http://www.w3.org/1999/xlink">
    <!-- Generator: Sketch 52.2 (67145) - http://www.bohemiancoding.com/sketch -->
    <title>加号@2x</title>
    <desc>Created with Sketch.</desc>
    <g id="Page-2" stroke="none" stroke-width="1" fill="none" fill-rule="evenodd">
        <g id="添加收货地址" transform="translate(-132.000000, -117.000000)" fill="#fc7f0c">
            <g id="1" transform="translate(0.000000, 74.000000)">
                <g id="box2" transform="translate(15.000000, 40.000000)">
                    <g id="Group" transform="translate(117.000000, 0.000000)">
                        <g id="加号" transform="translate(0.000000, 3.000000)">
                            <path d="M8.75,7 L14.25,7 C14.6642136,7 15,7.33578644 15,7.75 C15,8.16421356 14.6642136,8.5 14.25,8.5 L8.75,8.5 L8.75,14 C8.75,14.4142136 8.41421356,14.75 8,14.75 C7.58578644,14.75 7.25,14.4142136 7.25,14 L7.25,8.5 L1.75,8.5 C1.33578644,8.5 1,8.16421356 1,7.75 C1,7.33578644 1.33578644,7 1.75,7 L7.25,7 L7.25,1.5 C7.25,1.08578644 7.58578644,0.75 8,0.75 C8.41421356,0.75 8.75,1.08578644 8.75,1.5 L8.75,7 Z" id="Combined-Shape"></path>
                        </g>
                    </g>
                </g>
            </g>
        </g>
    </g>
</svg>