<?xml version="1.0" encoding="UTF-8"?>
<svg width="154px" height="154px" viewBox="0 0 154 154" version="1.1" xmlns="http://www.w3.org/2000/svg" xmlns:xlink="http://www.w3.org/1999/xlink">
    <!-- Generator: Sketch 52.5 (67469) - http://www.bohemiancoding.com/sketch -->
    <title>弹窗@2x</title>
    <desc>Created with Sketch.</desc>
    <defs>
        <linearGradient x1="50%" y1="63.2608442%" x2="50%" y2="-38.1559002%" id="linearGradient-1">
            <stop stop-color="#FFFFFD" offset="0%"></stop>
            <stop stop-color="#D9F1FE" offset="100%"></stop>
        </linearGradient>
        <circle id="path-2" cx="67" cy="67" r="67"></circle>
        <linearGradient x1="50%" y1="0%" x2="50%" y2="77.3444981%" id="linearGradient-4">
            <stop stop-color="#FFFFFD" offset="0%"></stop>
            <stop stop-color="#E3F5FF" offset="100%"></stop>
        </linearGradient>
        <rect id="path-5" x="50.0576647" y="4.55802182" width="75.6" height="95.4" rx="6"></rect>
        <filter x="-26.5%" y="-19.9%" width="152.9%" height="141.9%" filterUnits="objectBoundingBox" id="filter-6">
            <feOffset dx="0" dy="1" in="SourceAlpha" result="shadowOffsetOuter1"></feOffset>
            <feGaussianBlur stdDeviation="6.5" in="shadowOffsetOuter1" result="shadowBlurOuter1"></feGaussianBlur>
            <feColorMatrix values="0 0 0 0 0.764705882   0 0 0 0 0.88627451   0 0 0 0 0.960784314  0 0 0 1 0" type="matrix" in="shadowBlurOuter1"></feColorMatrix>
        </filter>
        <rect id="path-7" x="40.4576647" y="12.9580218" width="75.6" height="95.4" rx="6"></rect>
        <filter x="-32.4%" y="-24.6%" width="164.8%" height="151.4%" filterUnits="objectBoundingBox" id="filter-8">
            <feOffset dx="0" dy="1" in="SourceAlpha" result="shadowOffsetOuter1"></feOffset>
            <feGaussianBlur stdDeviation="8" in="shadowOffsetOuter1" result="shadowBlurOuter1"></feGaussianBlur>
            <feColorMatrix values="0 0 0 0 0.763880566   0 0 0 0 0.884655791   0 0 0 0 0.960140306  0 0 0 1 0" type="matrix" in="shadowBlurOuter1"></feColorMatrix>
        </filter>
        <linearGradient x1="50%" y1="4.3624509%" x2="50%" y2="96.6492075%" id="linearGradient-9">
            <stop stop-color="#B9DBEF" offset="0%"></stop>
            <stop stop-color="#9FC9E2" offset="100%"></stop>
        </linearGradient>
        <path d="M16.4223504,8.3113556 L80.0223504,8.3113556 C83.3360589,8.3113556 86.0223504,10.9976471 86.0223504,14.3113556 L86.0223504,88.7113556 C86.0223504,92.0250641 83.3360589,94.7113556 80.0223504,94.7113556 L16.4223504,94.7113556 C13.1086419,94.7113556 10.4223504,92.0250641 10.4223504,88.7113556 L10.4223504,14.3113556 C10.4223504,10.9976471 13.1086419,8.3113556 16.4223504,8.3113556 Z" id="path-10"></path>
        <filter x="-63.3%" y="-233.3%" width="221.7%" height="586.7%" filterUnits="objectBoundingBox" id="filter-12">
            <feOffset dx="0" dy="1" in="SourceAlpha" result="shadowOffsetOuter1"></feOffset>
            <feGaussianBlur stdDeviation="8.5" in="shadowOffsetOuter1" result="shadowBlurOuter1"></feGaussianBlur>
            <feColorMatrix values="0 0 0 0 0   0 0 0 0 0   0 0 0 0 0  0 0 0 0.200520833 0" type="matrix" in="shadowBlurOuter1" result="shadowMatrixOuter1"></feColorMatrix>
            <feMerge>
                <feMergeNode in="shadowMatrixOuter1"></feMergeNode>
                <feMergeNode in="SourceGraphic"></feMergeNode>
            </feMerge>
        </filter>
        <linearGradient x1="50%" y1="0%" x2="50%" y2="98.1146134%" id="linearGradient-13">
            <stop stop-color="#B9BED8" offset="0%"></stop>
            <stop stop-color="#B9BED8" offset="48.9453125%"></stop>
            <stop stop-color="#CFD4EA" offset="54.1275289%"></stop>
            <stop stop-color="#C4C9E1" offset="100%"></stop>
        </linearGradient>
        <path d="M8.44131803,0 L40.5,-7.10542736e-15 C44.6421356,-4.18736986e-15 48,3.35786438 48,7.5 L48,7.5 C48,11.6421356 44.6421356,15 40.5,15 L8.44131803,15 L0,7.53890991 L8.44131803,0 Z" id="path-14"></path>
        <linearGradient x1="50%" y1="0%" x2="50%" y2="100%" id="linearGradient-16">
            <stop stop-color="#72DAC8" offset="1.59636922%"></stop>
            <stop stop-color="#5DC9B6" offset="46.827567%"></stop>
            <stop stop-color="#9FDDD2" offset="56.7215402%"></stop>
            <stop stop-color="#9FDBD2" offset="100%"></stop>
        </linearGradient>
        <linearGradient x1="50%" y1="0%" x2="50%" y2="96.655979%" id="linearGradient-17">
            <stop stop-color="#E7A988" offset="0%"></stop>
            <stop stop-color="#E7A988" offset="44.8857478%"></stop>
            <stop stop-color="#FFBEA4" offset="50.952854%"></stop>
            <stop stop-color="#FFBEA4" offset="100%"></stop>
        </linearGradient>
        <linearGradient x1="18.3787301%" y1="-4.10714286%" x2="18.3787303%" y2="100%" id="linearGradient-18">
            <stop stop-color="#E46565" offset="0%"></stop>
            <stop stop-color="#E66B6B" offset="51.0532804%"></stop>
            <stop stop-color="#F27E7E" offset="51.5611599%"></stop>
            <stop stop-color="#F27F7F" offset="100%"></stop>
        </linearGradient>
        <linearGradient x1="50%" y1="0%" x2="50%" y2="100%" id="linearGradient-19">
            <stop stop-color="#000000" offset="0%"></stop>
            <stop stop-color="#000000" stop-opacity="0" offset="100%"></stop>
        </linearGradient>
        <filter x="-25.8%" y="-17.6%" width="151.5%" height="135.2%" filterUnits="objectBoundingBox" id="filter-20">
            <feGaussianBlur stdDeviation="0.669642857" in="SourceGraphic"></feGaussianBlur>
        </filter>
        <linearGradient x1="50%" y1="0%" x2="50%" y2="100%" id="linearGradient-21">
            <stop stop-color="#FFFFFF" offset="0%"></stop>
            <stop stop-color="#FFE8E8" offset="100%"></stop>
        </linearGradient>
    </defs>
    <g id="2019-01-11需求" stroke="none" stroke-width="1" fill="none" fill-rule="evenodd">
        <g id="04授权弹窗" transform="translate(-111.000000, -133.000000)">
            <g id="收取那" transform="translate(103.000000, 133.000000)">
                <g id="Rectangle" transform="translate(18.000000, 14.000000)">
                    <mask id="mask-3" fill="white">
                        <use xlink:href="#path-2"></use>
                    </mask>
                    <use id="Mask" fill="url(#linearGradient-1)" xlink:href="#path-2"></use>
                    <path d="M30.9784067,-7.47002379 L103.103967,-7.47002379 C106.417676,-7.47002379 109.103967,-4.78373229 109.103967,-1.47002379 L109.103967,-1.45208657 C109.103967,1.86162193 106.417676,4.54791343 103.103967,4.54791343 L30.9784067,4.54791343 C27.6646982,4.54791343 24.9784067,1.86162193 24.9784067,-1.45208657 L24.9784067,-1.47002379 C24.9784067,-4.78373229 27.6646982,-7.47002379 30.9784067,-7.47002379 Z" fill="#A0CAE3" opacity="0.654808408" mask="url(#mask-3)" transform="translate(67.041187, -1.461055) rotate(-45.000000) translate(-67.041187, 1.461055) "></path>
                    <path d="M88.0636085,-18.8870642 L160.189169,-18.8870642 C163.502878,-18.8870642 166.189169,-16.2007727 166.189169,-12.8870642 L166.189169,-12.8691269 C166.189169,-9.55541843 163.502878,-6.86912693 160.189169,-6.86912693 L88.0636085,-6.86912693 C84.7499,-6.86912693 82.0636085,-9.55541843 82.0636085,-12.8691269 L82.0636085,-12.8870642 C82.0636085,-16.2007727 84.7499,-18.8870642 88.0636085,-18.8870642 Z" id="Rectangle-Copy" fill="#9FC9E2" opacity="0.654808408" mask="url(#mask-3)" transform="translate(124.126389, -12.878096) rotate(-45.000000) translate(-124.126389, 12.878096) "></path>
                </g>
                <g id="Group-5" transform="translate(0.000000, 16.000000)">
                    <g id="Group-4" transform="translate(10.000000, 4.000000)">
                        <path d="M7.16729441,27.8754461 L3.15730686,30.1860172 L5.46738744,26.1701559 C5.89357394,25.4292701 5.89357394,24.5176326 5.46738744,23.7767468 L3.15730686,19.7608854 L7.16729441,22.0714565 C7.90894764,22.4988002 8.82206502,22.4988002 9.56371825,22.0714565 L13.5737058,19.7608854 L11.2636252,23.7767468 C10.8374387,24.5176326 10.8374387,25.4292701 11.2636252,26.1701559 L13.5737058,30.1860172 L9.56371825,27.8754461 C8.82206502,27.4481025 7.90894764,27.4481025 7.16729441,27.8754461 Z" id="Star" fill="#F27F7F" transform="translate(8.365506, 24.973451) rotate(-315.000000) translate(-8.365506, -24.973451) "></path>
                        <path d="M18.591345,48.230284 L16.6008634,49.3772076 L17.7482712,47.3825452 C18.1744577,46.6416594 18.1744577,45.730022 17.7482712,44.9891362 L16.6008634,42.9944738 L18.591345,44.1413974 C19.3329983,44.568741 20.2461156,44.568741 20.9877689,44.1413974 L22.9782505,42.9944738 L21.8308427,44.9891362 C21.4046562,45.730022 21.4046562,46.6416594 21.8308427,47.3825452 L22.9782505,49.3772076 L20.9877689,48.230284 C20.2461156,47.8029404 19.3329983,47.8029404 18.591345,48.230284 Z" id="Star" fill="#F27F7F" transform="translate(19.789557, 46.185841) rotate(-315.000000) translate(-19.789557, -46.185841) "></path>
                        <path d="M30.6166615,18.1417884 L28.6261799,19.288712 L29.7735877,17.2940497 C30.1997742,16.5531639 30.1997742,15.6415264 29.7735877,14.9006406 L28.6261799,12.9059782 L30.6166615,14.0529019 C31.3583147,14.4802455 32.2714321,14.4802455 33.0130853,14.0529019 L35.003567,12.9059782 L33.8561591,14.9006406 C33.4299726,15.6415264 33.4299726,16.5531639 33.8561591,17.2940497 L35.003567,19.288712 L33.0130853,18.1417884 C32.2714321,17.7144448 31.3583147,17.7144448 30.6166615,18.1417884 Z" id="Star" fill="#F27F7F" transform="translate(31.814873, 16.097345) rotate(-315.000000) translate(-31.814873, -16.097345) "></path>
                        <path d="M85.4821678,12.8161742 L80.0904131,15.9229252 L83.1960066,10.5241382 C83.6221931,9.78325236 83.6221931,8.87161489 83.1960066,8.13072909 L80.0904131,2.73194206 L85.4821678,5.83869308 C86.2238211,6.26603669 87.1369384,6.26603669 87.8785917,5.83869308 L93.2703464,2.73194206 L90.1647529,8.13072909 C89.7385664,8.87161489 89.7385664,9.78325236 90.1647529,10.5241382 L93.2703464,15.9229252 L87.8785917,12.8161742 C87.1369384,12.3888306 86.2238211,12.3888306 85.4821678,12.8161742 Z" id="Star-Copy-2" fill="#FFFFFF" transform="translate(86.680380, 9.327434) rotate(-315.000000) translate(-86.680380, -9.327434) "></path>
                        <path d="M49.255902,6.26435246 L47.424855,7.31940916 L48.4804729,5.48431516 C48.9066594,4.74342936 48.9066594,3.83179188 48.4804729,3.09090608 L47.424855,1.25581208 L49.255902,2.31086878 C49.9975552,2.73821239 50.9106726,2.73821239 51.6523258,2.31086878 L53.4833728,1.25581208 L52.4277549,3.09090608 C52.0015684,3.83179188 52.0015684,4.74342936 52.4277549,5.48431516 L53.4833728,7.31940916 L51.6523258,6.26435246 C50.9106726,5.83700885 49.9975552,5.83700885 49.255902,6.26435246 Z" id="Star-Copy" fill="#EE5555" transform="translate(50.454114, 4.287611) rotate(-315.000000) translate(-50.454114, -4.287611) "></path>
                        <path d="M27.0090666,64.0718939 L23.8493973,65.8925082 L25.6699315,62.727678 C26.096118,61.9867922 26.096118,61.0751547 25.6699315,60.3342689 L23.8493973,57.1694387 L27.0090666,58.990053 C27.7507198,59.4173966 28.6638372,59.4173966 29.4054904,58.990053 L32.5651597,57.1694387 L30.7446255,60.3342689 C30.318439,61.0751547 30.318439,61.9867922 30.7446255,62.727678 L32.5651597,65.8925082 L29.4054904,64.0718939 C28.6638372,63.6445503 27.7507198,63.6445503 27.0090666,64.0718939 Z" id="Star-Copy-3" fill="#FFFFFF" transform="translate(28.207278, 61.530973) rotate(-315.000000) translate(-28.207278, -61.530973) "></path>
                    </g>
                    <g id="Group-18">
                        <g id="Mask" transform="translate(87.857665, 52.258022) rotate(-353.000000) translate(-87.857665, -52.258022) ">
                            <use fill="black" fill-opacity="1" filter="url(#filter-6)" xlink:href="#path-5"></use>
                            <use fill="url(#linearGradient-4)" fill-rule="evenodd" xlink:href="#path-5"></use>
                        </g>
                        <g id="Mask" transform="translate(78.257665, 60.658022) rotate(-15.000000) translate(-78.257665, -60.658022) ">
                            <use fill="black" fill-opacity="1" filter="url(#filter-8)" xlink:href="#path-7"></use>
                            <use fill="url(#linearGradient-4)" fill-rule="evenodd" xlink:href="#path-7"></use>
                        </g>
                        <g id="Group-2" transform="translate(74.735613, 79.225840) rotate(-15.000000) translate(-74.735613, -79.225840) translate(13.735613, 20.225840)">
                            <g id="Rectangle-4" transform="translate(25.200000, 0.000000)">
                                <mask id="mask-11" fill="white">
                                    <use xlink:href="#path-10"></use>
                                </mask>
                                <use id="Mask" fill="url(#linearGradient-9)" transform="translate(48.222350, 51.511356) rotate(-345.000000) translate(-48.222350, -51.511356) " xlink:href="#path-10"></use>
                                <rect fill="#FFFFFF" opacity="0.105865036" mask="url(#mask-11)" transform="translate(9.312045, 23.712045) rotate(-45.000000) translate(-9.312045, -23.712045) " x="-41.6879546" y="-7.18795462" width="102" height="61.8"></rect>
                            </g>
                            <g id="Group" style="mix-blend-mode: overlay;" transform="translate(74.122827, 50.029809) rotate(15.000000) translate(-74.122827, -50.029809) translate(48.622827, 23.029809)">
                                <text id="授权" font-family="FZZZHONGJW--GB1-0, FZZhengHeiS-DB-GB" font-size="15" font-weight="normal" fill="#FFFFFF">
                                    <tspan x="10" y="13">授权</tspan>
                                </text>
                                <path d="M6.3,23.1 L44.7,23.1" id="Line-2" stroke="#FFFFFF" stroke-linecap="square"></path>
                                <path d="M0.3,29.1 L50.7,29.1" id="Line-2" stroke="#FFFFFF" stroke-linecap="square"></path>
                                <path d="M0.3,35.1 L50.7,35.1" id="Line-2" stroke="#FFFFFF" stroke-linecap="square"></path>
                                <path d="M0.3,41.1 L50.7,41.1" id="Line-2" stroke="#FFFFFF" stroke-linecap="square"></path>
                                <path d="M0.3,47.1 L50.7,47.1" id="Line-2" stroke="#FFFFFF" stroke-linecap="square"></path>
                                <path d="M0.3,53.1 L32.7,53.1" id="Line-2" stroke="#FFFFFF" stroke-linecap="square"></path>
                            </g>
                        </g>
                        <g id="Group-3" filter="url(#filter-12)" transform="translate(106.090192, 68.909808) rotate(-60.000000) translate(-106.090192, -68.909808) translate(76.090192, 61.409808)">
                            <g id="Rectangle-5" transform="translate(12.000000, 0.000000)">
                                <mask id="mask-15" fill="white">
                                    <use xlink:href="#path-14"></use>
                                </mask>
                                <use id="Mask" fill="url(#linearGradient-13)" xlink:href="#path-14"></use>
                                <path d="M17.0899667,0 L49.1486486,-7.10542736e-15 C53.2907843,-4.18736986e-15 56.6486486,3.35786438 56.6486486,7.5 L56.6486486,7.5 C56.6486486,11.6421356 53.2907843,15 49.1486486,15 L17.0899667,15 L8.64864865,7.53890991 L17.0899667,0 Z" fill="url(#linearGradient-16)" mask="url(#mask-15)"></path>
                                <path d="M25.7386153,0 L57.7972973,0 C61.9394329,-7.6089797e-16 65.2972973,3.35786438 65.2972973,7.5 L65.2972973,7.5 C65.2972973,11.6421356 61.9394329,15 57.7972973,15 L25.7386153,15 L17.2972973,7.53890991 L25.7386153,0 Z" fill="url(#linearGradient-17)" mask="url(#mask-15)"></path>
                                <path d="M38.7115883,0 L43.0945946,2.66453526e-15 C47.2367302,1.90363729e-15 50.5945946,3.35786438 50.5945946,7.5 L50.5945946,7.5 C50.5945946,11.6421356 47.2367302,15 43.0945946,15 L38.7115883,15 L30.2702703,7.53890991 L38.7115883,0 Z" fill="url(#linearGradient-18)" mask="url(#mask-15)"></path>
                                <path d="M-9.60694981,7.19467047 L37.9799228,7.19467047 C38.5716564,7.19467047 39.0513514,7.67436538 39.0513514,8.26609904 L39.0513514,8.26609904 C39.0513514,8.8578327 38.5716564,9.33752761 37.9799228,9.33752761 L-9.60694981,9.33752761 C-10.1986835,9.33752761 -10.6783784,8.8578327 -10.6783784,8.26609904 L-10.6783784,8.26609904 C-10.6783784,7.67436538 -10.1986835,7.19467047 -9.60694981,7.19467047 Z" id="Rectangle-3" fill="#C97861" style="mix-blend-mode: multiply;" opacity="0.516587409" mask="url(#mask-15)"></path>
                            </g>
                            <polygon id="Triangle" fill="url(#linearGradient-19)" style="mix-blend-mode: multiply;" opacity="0.547271286" filter="url(#filter-20)" transform="translate(6.900000, 9.460770) rotate(-75.000000) translate(-6.900000, -9.460770) " points="6.9 3.76076952 10.8 15.1607695 3 15.1607695"></polygon>
                            <path d="M2.7,6.6 L50.1,6.6 C50.5970563,6.6 51,7.00294373 51,7.5 L51,7.5 C51,7.99705627 50.5970563,8.4 50.1,8.4 L2.7,8.4 C2.20294373,8.4 1.8,7.99705627 1.8,7.5 L1.8,7.5 C1.8,7.00294373 2.20294373,6.6 2.7,6.6 Z" id="Rectangle-3" fill="url(#linearGradient-21)"></path>
                        </g>
                    </g>
                </g>
            </g>
        </g>
    </g>
</svg>