<?xml version="1.0" encoding="UTF-8"?>
<svg width="16px" height="17px" viewBox="0 0 16 17" version="1.1" xmlns="http://www.w3.org/2000/svg" xmlns:xlink="http://www.w3.org/1999/xlink">
    <!-- Generator: Sketch 49.3 (51167) - http://www.bohemiancoding.com/sketch -->
    <title>规则叉@2x</title>
    <desc>Created with Sketch.</desc>
    <defs></defs>
    <g id="商城已确认" stroke="none" stroke-width="1" fill="none" fill-rule="evenodd">
        <g id="035-商品详情选购" transform="translate(-344.000000, -242.000000)" fill="#0E0324">
            <g id="浮层" transform="translate(0.000000, 209.000000)">
                <g id="筛选叉" transform="translate(342.000000, 32.000000)">
                    <path d="M9.33333333,9.33333333 L9.33333333,3.83333333 C9.33333333,3.55719096 9.55719096,3.33333333 9.83333333,3.33333333 L10.1666667,3.33333333 C10.442809,3.33333333 10.6666667,3.55719096 10.6666667,3.83333333 L10.6666667,9.33333333 L16.1666667,9.33333333 C16.442809,9.33333333 16.6666667,9.55719096 16.6666667,9.83333333 L16.6666667,10.1666667 C16.6666667,10.442809 16.442809,10.6666667 16.1666667,10.6666667 L10.6666667,10.6666667 L10.6666667,16.1666667 C10.6666667,16.442809 10.442809,16.6666667 10.1666667,16.6666667 L9.83333333,16.6666667 C9.55719096,16.6666667 9.33333333,16.442809 9.33333333,16.1666667 L9.33333333,10.6666667 L3.83333333,10.6666667 C3.55719096,10.6666667 3.33333333,10.442809 3.33333333,10.1666667 L3.33333333,9.83333333 C3.33333333,9.55719096 3.55719096,9.33333333 3.83333333,9.33333333 L9.33333333,9.33333333 Z" id="Combined-Shape" transform="translate(10.000000, 10.000000) rotate(45.000000) translate(-10.000000, -10.000000) "></path>
                </g>
            </g>
        </g>
    </g>
</svg>