<?xml version="1.0" encoding="UTF-8"?>
<svg width="26px" height="27px" viewBox="0 0 26 27" version="1.1" xmlns="http://www.w3.org/2000/svg" xmlns:xlink="http://www.w3.org/1999/xlink">
    <!-- Generator: Sketch 49.3 (51167) - http://www.bohemiancoding.com/sketch -->
    <title>icon添加购物车@2x</title>
    <desc>Created with Sketch.</desc>
    <defs></defs>
    <g id="商城已确认-最终版" stroke="none" stroke-width="1" fill="none" fill-rule="evenodd">
        <g id="031-商城-商品列表" transform="translate(-335.000000, -272.000000)">
            <g id="icon添加购物车" transform="translate(335.000000, 272.000000)">
                <g id="icon购物车" transform="translate(1.000000, 3.000000)">
                    <g transform="translate(0.500000, 0.000000)">
                        <path d="M0,2 L2.1468389,2 C3.18721357,2 4.05384106,2.79761811 4.13997304,3.83442124 L4.83208035,12.1655788 C4.91821232,13.2023819 5.78483982,14 6.82521449,14 L18.5618502,14 C19.616169,14 20.4894239,13.1815446 20.5576574,12.1294361 L20.9978738,5.34162807 C21.0336166,4.79050114 20.6158152,4.31474923 20.0646883,4.27900645 C20.0431439,4.27760921 20.0215599,4.27691004 19.9999702,4.27691004 L9.4705008,4.27691004" id="Path-3" stroke="#552E20" stroke-width="1.5" stroke-linecap="round" stroke-linejoin="round"></path>
                        <circle id="Oval-2" stroke="#FD9F21" stroke-width="1.5" fill="#FD9F21" cx="17.5" cy="5.5" r="5.5"></circle>
                        <path d="M14.5833333,5.5 L20.4166667,5.5" id="Line" stroke="#FFFFFF" stroke-width="1.5" stroke-linecap="round" stroke-linejoin="round"></path>
                        <path d="M14.5833333,5.5 L20.4166667,5.5" id="Line" stroke="#FFFFFF" stroke-width="1.5" stroke-linecap="round" stroke-linejoin="round" transform="translate(17.500000, 5.500000) rotate(90.000000) translate(-17.500000, -5.500000) "></path>
                        <circle id="Oval-5" stroke="#552E20" stroke-width="1.5" cx="7.5" cy="19.5" r="1.5"></circle>
                        <circle id="Oval-5" stroke="#552E20" stroke-width="1.5" cx="16.5" cy="19.5" r="1.5"></circle>
                    </g>
                </g>
            </g>
        </g>
    </g>
</svg>