<?xml version="1.0" encoding="UTF-8"?>
<svg width="92px" height="96px" viewBox="0 0 92 96" version="1.1" xmlns="http://www.w3.org/2000/svg" xmlns:xlink="http://www.w3.org/1999/xlink">
    <!-- Generator: Sketch 52.5 (67469) - http://www.bohemiancoding.com/sketch -->
    <title>logo</title>
    <desc>Created with Sketch.</desc>
    <defs>
        <polygon id="path-1" points="2.38821185e-05 0.462798855 89.6469296 0.462798855 89.6469296 62.2333572 2.38821185e-05 62.2333572"></polygon>
        <linearGradient x1="0%" y1="0%" x2="100%" y2="100%" id="linearGradient-3">
            <stop stop-color="#F6C97C" offset="0%"></stop>
            <stop stop-color="#EE9C2E" offset="100%"></stop>
        </linearGradient>
    </defs>
    <g id="商城最终版" stroke="none" stroke-width="1" fill="none" fill-rule="evenodd">
        <g id="关于" transform="translate(-142.000000, -113.000000)">
            <g id="list" transform="translate(0.000000, 74.000000)">
                <g id="logo" transform="translate(142.000000, 39.000000)">
                    <g id="Group-4" transform="translate(1.000000, 74.500000)" fill="#343535">
                        <path d="M40.168441,7.47441583 L38.8973622,7.47441583 L38.8973622,11.4158707 C38.8973622,11.6503923 38.8922761,11.9354426 38.8922761,11.9354426 L41.0733218,11.9354426 L41.0733218,8.34683609 C41.0733218,7.86500085 40.6682041,7.47441583 40.168441,7.47441583 Z M34.161112,8.34683609 L34.161112,11.9354426 L36.3472437,11.9354426 L36.3472437,11.4158707 L36.3472437,7.47441583 L35.0657716,7.47441583 C34.5662297,7.47441583 34.161112,7.86500085 34.161112,8.34683609 Z M35.102701,4.92303428 L32.5275944,4.97100461 L33.2352235,0.00341122292 L35.9273101,0.00341122292 L35.6964461,1.28347262 L41.6434055,1.31737165 C42.6604012,1.31737165 43.2428684,2.43433396 42.6365187,3.22126045 C41.9191597,4.1520979 41.1715053,5.12259082 40.9923867,5.356686 L41.5027642,5.356686 C42.7802559,5.356686 43.8158269,6.35510831 43.8158269,7.58677298 L43.8158269,11.9354426 L44.9800979,11.9354426 L44.9800979,14.0504008 L39.3528984,14.0504008 C40.0202812,15.9246546 41.903238,16.6305646 45,17.7419836 L45,20 C41.4775549,19.1218233 39.0183225,17.9443118 37.622303,16.070058 C36.2859896,17.9443118 33.7655031,19.1218233 30.0626125,20 L30.0626125,17.7419836 C33.3413679,16.6883421 35.3138841,15.982219 35.9828147,14.0504008 L30.1534987,14.0504008 L30.1534987,11.9354426 L31.428779,11.9354426 L31.428779,7.58677298 C31.428779,6.35510831 32.46435,5.356686 33.7418417,5.356686 L37.8651082,5.356686 C38.4971095,4.4490875 39.1293319,3.47859458 39.1293319,3.47859458 L35.3718212,3.44469555 L35.102701,4.92303428 Z M24,5.40828074 L24,2.98588607 L25.963892,2.98588607 L25.963892,0 L28.6051177,0 L28.6051177,2.98588607 L30.244827,2.98588607 L30.244827,5.40828074 L28.6051177,5.40828074 L28.6051177,17.534965 C28.6051177,19.2320484 27.6944874,20.0513815 25.8727847,19.993604 L24,19.993604 L24,17.4759082 L24.9619333,17.4759082 C25.4809351,17.4759082 25.963892,17.2426659 25.963892,16.5977315 L25.963892,5.40828074 L24,5.40828074 Z" id="Fill-14"></path>
                        <polygon id="Fill-16" points="30 10.4206446 24.0029549 12 24 9.57915137 30 8"></polygon>
                        <path d="M16.1686621,7.47441583 L14.8975833,7.47441583 L14.8975833,11.4158707 C14.8975833,11.6503923 14.8922761,11.9354426 14.8922761,11.9354426 L17.0735429,11.9354426 L17.0735429,8.34683609 C17.0735429,7.86500085 16.6684252,7.47441583 16.1686621,7.47441583 Z M10.161112,8.34683609 L10.161112,11.9354426 L12.3472437,11.9354426 L12.3472437,11.4158707 L12.3472437,7.47441583 L11.0659927,7.47441583 C10.5662297,7.47441583 10.161112,7.86500085 10.161112,8.34683609 Z M11.102701,4.92303428 L8.52759438,4.97100461 L9.2352235,0.00341122292 L11.9275312,0.00341122292 L11.6964461,1.28347262 L17.6434055,1.31737165 C18.6604012,1.31737165 19.2430896,2.43433396 18.6367399,3.22126045 C17.9193808,4.1520979 17.1717264,5.12259082 16.9923867,5.356686 L17.5029853,5.356686 C18.780477,5.356686 19.8158269,6.35510831 19.8158269,7.58677298 L19.8158269,11.9354426 L20.9800979,11.9354426 L20.9800979,14.0504008 L15.3528984,14.0504008 C16.0205023,15.9246546 17.903238,16.6305646 21,17.7419836 L21,20 C17.477776,19.1218233 15.0185437,17.9443118 13.622303,16.070058 C12.2859896,17.9443118 9.76572421,19.1218233 6.06261254,20 L6.06261254,17.7419836 C9.34158901,16.6883421 11.3141052,15.982219 11.9830359,14.0504008 L6.15371979,14.0504008 L6.15371979,11.9354426 L7.42900016,11.9354426 L7.42900016,7.58677298 C7.42900016,6.35510831 8.46435002,5.356686 9.74184173,5.356686 L13.8651082,5.356686 C14.4973306,4.4490875 15.1293319,3.47859458 15.1293319,3.47859458 L11.3720423,3.44469555 L11.102701,4.92303428 Z M0,5.40828074 L0,2.98588607 L1.96411309,2.98588607 L1.96411309,0 L4.60533881,0 L4.60533881,2.98588607 L6.24482704,2.98588607 L6.24482704,5.40828074 L4.60533881,5.40828074 L4.60533881,17.534965 C4.60533881,19.2320484 3.69448744,20.0513815 1.87300584,19.993604 L0,19.993604 L0,17.4759082 L0.962154478,17.4759082 C1.48115622,17.4759082 1.96411309,17.2426659 1.96411309,16.5977315 L1.96411309,5.40828074 L0,5.40828074 Z" id="Fill-18"></path>
                        <polygon id="Fill-20" points="7 10.4206446 1.00295494 12 1 9.57915137 7 8"></polygon>
                        <path d="M50.8224917,6.37225389 C50.8224917,6.99886846 51.3031857,7.72048934 51.9848614,7.72048934 L61.2389862,7.72048934 C61.9851773,7.72048934 62.6644473,7.36095988 62.6644473,6.42157177 L62.6644473,5.95678815 L50.8224917,5.95678815 L50.8224917,6.37225389 Z M50.8224917,3.23747305 L50.8224917,3.85981767 L62.6644473,3.85981767 L62.6644473,3.23747305 C62.6644473,2.61085847 62.144388,2.1027349 61.5022963,2.1027349 L51.9848614,2.1027349 C51.3429884,2.1027349 50.8224917,2.61085847 50.8224917,3.23747305 Z M48,7.29264075 L48,2.50496381 C48,1.12150131 49.1490292,0 50.5659612,0 L62.8260637,0 C64.2432143,0 65.3920249,1.12150131 65.3920249,2.50496381 L65.3920249,6.82871112 C65.3920249,8.94361536 64.1994751,9.79760456 62.2557043,9.79760456 L53.3038175,9.79760456 C53.1485432,10.0732296 53.0391952,10.4560302 52.8727675,10.787805 L64.9732219,10.787805 C65.5405195,10.787805 66,11.2365764 66,11.7901749 L66,17.2166357 C66,19.0021136 64.9784706,20 62.7687653,20 L60.2312347,20 L60.2312347,17.5392301 L61.8469613,17.5392301 C62.7974145,17.5392301 63.1775083,17.1009202 63.1775083,16.2403126 L63.1775083,13.9251478 C63.1775083,13.3715493 62.7180278,12.922778 62.1509489,12.922778 L51.2312347,12.922778 C51.2312347,12.922778 49.8057736,11.7780055 50.5659612,9.79760456 L50.5659612,9.58410726 C49.1490292,9.58410726 48,8.67610325 48,7.29264075 Z" id="Fill-22"></path>
                        <path d="M80.2442264,1.53531218 L89,1.53531218 L89,17.1569004 C89,19.1826595 88.2265888,20 86.2445571,19.9940293 L84.6073417,19.9940293 L84.6073417,17.6083248 L85.0251337,17.6083248 C85.8937882,17.6083248 86.2694703,17.0679802 86.2694703,16.2327277 L86.2694703,3.66960935 L80.0788734,3.66960935 L80.2442264,1.53531218 Z M69,9.26603548 L69,7.37461617 C69.6514909,6.22888946 69.9473626,4.25153531 69.8889379,1.44255374 L71.7556633,1.44255374 C71.7556633,2.18824633 71.7250179,2.66270044 71.6668136,3.29260491 L72.6443808,3.29260491 L72.6443808,0 L75.1332745,0 L75.1332745,3.29260491 L76.7332304,3.29260491 L76.7332304,5.6154043 L75.1332745,5.6154043 L75.1332745,20 L72.6443808,20 L72.6443808,5.6154043 L71.4888938,5.6154043 C71.2514468,7.22065848 70.4222565,8.17788298 69,9.26603548 Z" id="Fill-24"></path>
                        <polygon id="Fill-26" points="47 16 50.8892138 10.0008755 54 10 50.1107862 15.9991245"></polygon>
                        <polygon id="Fill-28" points="50 20 53.8890977 14.0010943 57 14 53.1106934 19.9991246"></polygon>
                        <polygon id="Fill-30" points="55 20 58.8890977 14.0010943 62 14 58.1106934 19.9991246"></polygon>
                        <polygon id="Fill-32" points="77 20 78.4411085 5.00085709 81 5 79.5588915 19.9991429"></polygon>
                        <polygon id="Fill-34" points="81 20 82.4411085 5.00085709 85 5 83.5588915 19.9991429"></polygon>
                        <polygon id="Fill-36" points="79.9349174 4 77 4 77.065321 0 80 0"></polygon>
                        <polygon id="Fill-38" points="77 12.4083064 69.0002273 15 69 12.5912787 77 10"></polygon>
                    </g>
                    <g id="Group" transform="translate(1.000000, 0.500000)">
                        <g id="Group-3">
                            <mask id="mask-2" fill="white">
                                <use xlink:href="#path-1"></use>
                            </mask>
                            <g id="Clip-2"></g>
                            <path d="M2.76039513,41.1665261 L27.8359928,8.79233858 C36.4380258,-2.3138461 53.2089277,-2.3138461 61.8109606,8.79233858 L86.8865583,41.1665261 C93.537131,49.7527538 87.4175175,62.2335054 76.5568089,62.2335054 L13.0901446,62.2335054 C2.22943593,62.2335054 -3.89017752,49.7527538 2.76039513,41.1665261" id="Fill-1" fill="url(#linearGradient-3)" mask="url(#mask-2)"></path>
                        </g>
                        <path d="M37.0817924,42.3518113 C41.8482474,35.5406867 40.6502244,26.5391553 34.4052218,22.2467788 C28.1602191,17.9539136 19.2337158,19.9962738 14.4667678,26.8078869 C7.82784731,36.294601 -5.71178383,62 36.2836034,62 C29.4415614,57.7911746 23.8660711,54.0597141 25.6665566,50.4543133 C27.3891459,47.005754 33.065704,48.0694425 37.0817924,42.3518113" id="Fill-4" fill="#651915"></path>
                        <path d="M52.9182076,42.3518113 C48.1517526,35.5406867 49.3497756,26.5391553 55.5947782,22.2467788 C61.8397809,17.9539136 70.7662842,19.9962738 75.5332322,26.8078869 C82.1721527,36.294601 95.7117838,62 53.7163966,62 C60.5584386,57.7911746 66.1339289,54.0597141 64.3334434,50.4543133 C62.6108541,47.005754 56.934296,48.0694425 52.9182076,42.3518113" id="Fill-6" fill="#651915"></path>
                        <path d="M53,53 C53,55.7613751 49.4184397,58 45,58 C40.5815603,58 37,55.7613751 37,53 C37,50.2386249 40.5815603,48 45,48 C49.4184397,48 53,50.2386249 53,53" id="Fill-8" fill="#651915"></path>
                        <path d="M63,33.5 C63,35.4330655 61.4325349,37 59.5,37 C57.5669345,37 56,35.4330655 56,33.5 C56,31.5669345 57.5669345,30 59.5,30 C61.4325349,30 63,31.5669345 63,33.5" id="Fill-10" fill="#FBE8D1"></path>
                        <path d="M35,33.5 C35,35.4330655 33.4325349,37 31.5,37 C29.5669345,37 28,35.4330655 28,33.5 C28,31.5669345 29.5669345,30 31.5,30 C33.4325349,30 35,31.5669345 35,33.5" id="Fill-12" fill="#FBE8D1"></path>
                    </g>
                </g>
            </g>
        </g>
    </g>
</svg>