<?xml version="1.0" encoding="UTF-8"?>
<svg width="31px" height="32px" viewBox="0 0 31 32" version="1.1" xmlns="http://www.w3.org/2000/svg" xmlns:xlink="http://www.w3.org/1999/xlink">
    <!-- Generator: Sketch 49.3 (51167) - http://www.bohemiancoding.com/sketch -->
    <title>2-icon-代发货@2x</title>
    <desc>Created with Sketch.</desc>
    <defs>
        <rect id="path-1" x="3.5" y="11" width="24" height="1.5" rx="0.75"></rect>
    </defs>
    <g id="商城已确认" stroke="none" stroke-width="1" fill="none" fill-rule="evenodd">
        <g id="001-登录注册-已登录" transform="translate(-125.000000, -241.000000)">
            <g id="part1" transform="translate(0.000000, 177.500000)">
                <g id="2-icon-代发货" transform="translate(125.000000, 64.500000)">
                    <path d="M6.94151844,5.5 L24.0584816,5.5 C24.9193424,5.5 25.6836201,6.05086019 25.9558482,6.86754447 L27.5,11.5 L27.5,22 C27.5,23.1045695 26.6045695,24 25.5,24 L5.5,24 C4.3954305,24 3.5,23.1045695 3.5,22 L3.5,11.5 L5.04415184,6.86754447 C5.31637994,6.05086019 6.08065762,5.5 6.94151844,5.5 Z" id="Rectangle-10" stroke="#552E20" stroke-width="1.5"></path>
                    <g id="Rectangle-19">
                        <use fill="#D8D8D8" fill-rule="evenodd" xlink:href="#path-1"></use>
                        <rect stroke="#552E20" stroke-width="1" x="4" y="11.5" width="23" height="1" rx="0.5"></rect>
                    </g>
                    <polyline id="Rectangle-21" stroke="#552E20" stroke-width="1.5" stroke-linecap="round" stroke-linejoin="round" points="18.5 15.5 18.5 19.5 15.5 18 12.5 19.5 12.5 12.5"></polyline>
                </g>
            </g>
        </g>
    </g>
</svg>