<?xml version="1.0" encoding="UTF-8"?>
<svg width="30px" height="32px" viewBox="0 0 30 32" version="1.1" xmlns="http://www.w3.org/2000/svg" xmlns:xlink="http://www.w3.org/1999/xlink">
    <!-- Generator: Sketch 49.3 (51167) - http://www.bohemiancoding.com/sketch -->
    <title>3-icon -待收货@2x</title>
    <desc>Created with Sketch.</desc>
    <defs></defs>
    <g id="商城已确认" stroke="none" stroke-width="1" fill="none" fill-rule="evenodd">
        <g id="001-登录注册-已登录" transform="translate(-221.000000, -241.000000)" stroke="#552E20">
            <g id="part1" transform="translate(0.000000, 177.500000)">
                <g id="3-icon--待收货" transform="translate(221.000000, 64.500000)">
                    <path d="M10,9.22627395 L10,7 C10,5.8954305 10.8954305,5 12,5 L24.5,5 C25.6045695,5 26.5,5.8954305 26.5,7 L26.5,21 C26.5,22.1045695 25.6045695,23 24.5,23 L4.5,23 C3.3954305,23 2.5,22.1045695 2.5,21 L2.5,15.273726 C2.5,14.4966769 2.95008019,13.7899626 3.65422907,13.4613598 L8.84577093,11.0386402 C9.54991981,10.7100374 10,10.0033231 10,9.22627395 Z" id="Rectangle-22" stroke-width="1.5"></path>
                    <rect id="Rectangle-23" x="8" y="15" width="4" height="1" rx="0.5"></rect>
                    <rect id="Rectangle-23" transform="translate(12.000000, 13.250000) rotate(90.000000) translate(-12.000000, -13.250000) " x="10" y="13" width="4" height="1" rx="0.5"></rect>
                    <circle id="Oval-6" stroke-width="1.5" fill="#FFFFFF" cx="10" cy="22.5" r="2.5"></circle>
                    <circle id="Oval-6" stroke-width="1.5" fill="#FFFFFF" cx="20" cy="22.5" r="2.5"></circle>
                </g>
            </g>
        </g>
    </g>
</svg>