<?xml version="1.0" encoding="UTF-8"?>
<svg width="375px" height="165px" viewBox="0 0 375 165" version="1.1" xmlns="http://www.w3.org/2000/svg" xmlns:xlink="http://www.w3.org/1999/xlink">
    <!-- Generator: Sketch 49.3 (51167) - http://www.bohemiancoding.com/sketch -->
    <title>个人中心-背景@2x</title>
    <desc>Created with Sketch.</desc>
    <defs>
        <linearGradient x1="100%" y1="100%" x2="84.2276037%" y2="4.67320867%" id="linearGradient-1">
            <stop stop-color="#EFC1AD" offset="0%"></stop>
            <stop stop-color="#D49377" offset="100%"></stop>
        </linearGradient>
        <path d="M375,164 L1.77635684e-15,164 L0,0 L375,0 L375,164 Z" id="path-2"></path>
        <linearGradient x1="92.5366724%" y1="88.6565637%" x2="82.8838283%" y2="68.9277605%" id="linearGradient-4">
            <stop stop-color="#FFFFFF" stop-opacity="0.314000226" offset="0%"></stop>
            <stop stop-color="#F6CFBD" offset="100%"></stop>
        </linearGradient>
        <linearGradient x1="67.340625%" y1="-11.9197402%" x2="60.1364583%" y2="50%" id="linearGradient-5">
            <stop stop-color="#D8A189" stop-opacity="0" offset="0%"></stop>
            <stop stop-color="#DAA38B" stop-opacity="0.521130874" offset="29.4911945%"></stop>
            <stop stop-color="#DBA58D" offset="100%"></stop>
        </linearGradient>
        <linearGradient x1="102.876736%" y1="42.0806548%" x2="88.402726%" y2="104.014851%" id="linearGradient-6">
            <stop stop-color="#C7643B" stop-opacity="0.199133832" offset="0%"></stop>
            <stop stop-color="#DBA58D" offset="100%"></stop>
        </linearGradient>
        <linearGradient x1="0%" y1="106.373941%" x2="88.1388846%" y2="24.1936453%" id="linearGradient-7">
            <stop stop-color="#FFE6D9" stop-opacity="0" offset="0%"></stop>
            <stop stop-color="#F4CBB5" stop-opacity="0.450237772" offset="100%"></stop>
        </linearGradient>
        <path d="M95.2761731,110.97429 C107.55375,103.329807 117.557865,96.5531481 114.32725,90.0054244 C111.236404,83.7416512 101.050058,85.6734028 93.8430962,75.2887963 C85.28975,62.9174228 87.44025,46.5680787 98.6465577,38.7727469 C109.852865,30.9765278 125.871481,34.6847454 134.424827,47.0561188 C146.338827,64.2874846 170.634788,110.97429 95.2761731,110.97429 M80.2801731,102.951798 C72.5645577,102.951798 66.3103269,99.0226312 66.3103269,94.1759491 C66.3103269,89.329267 72.5645577,85.4001003 80.2801731,85.4001003 C87.9957885,85.4001003 94.2500192,89.329267 94.2500192,94.1759491 C94.2500192,99.0226312 87.9957885,102.951798 80.2801731,102.951798 M25.9329423,47.0552315 C34.4854038,34.6847454 50.5031346,30.9765278 61.7085577,38.7718596 C72.9130962,46.5680787 75.0635962,62.9147608 66.51025,75.2852469 C59.3050577,85.668966 49.1187115,83.7372145 46.02875,90.0001003 C42.7981346,96.5478241 52.8013654,103.324483 65.0780577,110.968079 C-10.2734808,110.968079 14.0207115,64.2848225 25.9329423,47.0552315 M155.615788,73.1263349 L110.70475,14.964375 C95.2982885,-4.98847994 65.2611731,-4.98847994 49.8547115,14.964375 L4.94367308,73.1263349 C-6.96767308,88.5519522 3.99271154,110.97429 23.4445192,110.97429 L137.114942,110.97429 C156.567635,110.97429 167.527135,88.5519522 155.615788,73.1263349" id="path-8"></path>
        <filter x="-1.2%" y="-1.8%" width="102.5%" height="103.6%" filterUnits="objectBoundingBox" id="filter-9">
            <feGaussianBlur stdDeviation="2" in="SourceAlpha" result="shadowBlurInner1"></feGaussianBlur>
            <feOffset dx="0" dy="0" in="shadowBlurInner1" result="shadowOffsetInner1"></feOffset>
            <feComposite in="shadowOffsetInner1" in2="SourceAlpha" operator="arithmetic" k2="-1" k3="1" result="shadowInnerInner1"></feComposite>
            <feColorMatrix values="0 0 0 0 1   0 0 0 0 1   0 0 0 0 1  0 0 0 0.0947690217 0" type="matrix" in="shadowInnerInner1"></feColorMatrix>
        </filter>
        <linearGradient x1="168.148495%" y1="-41.5393728%" x2="13.40135%" y2="131.762606%" id="linearGradient-10">
            <stop stop-color="#F7E3D8" stop-opacity="0.594004755" offset="0%"></stop>
            <stop stop-color="#EBC2B0" stop-opacity="0.484488225" offset="100%"></stop>
        </linearGradient>
        <path d="M106.434977,52.9866049 C109.657631,52.9866049 112.2699,55.6069367 112.2699,58.839537 C112.2699,62.0721373 109.657631,64.6924691 106.434977,64.6924691 C103.212323,64.6924691 100.600054,62.0721373 100.600054,58.839537 C100.600054,55.6069367 103.212323,52.9866049 106.434977,52.9866049 Z M55.5695923,64.6928241 C52.3469385,64.6928241 49.7346692,62.0724923 49.7346692,58.839892 C49.7346692,55.6072917 52.3469385,52.9869599 55.5695923,52.9869599 C58.7922462,52.9869599 61.4045154,55.6072917 61.4045154,58.839892 C61.4045154,62.0724923 58.7922462,64.6928241 55.5695923,64.6928241 Z" id="path-11"></path>
        <filter x="-1.6%" y="-8.5%" width="103.2%" height="117.1%" filterUnits="objectBoundingBox" id="filter-12">
            <feGaussianBlur stdDeviation="1" in="SourceAlpha" result="shadowBlurInner1"></feGaussianBlur>
            <feOffset dx="0" dy="0" in="shadowBlurInner1" result="shadowOffsetInner1"></feOffset>
            <feComposite in="shadowOffsetInner1" in2="SourceAlpha" operator="arithmetic" k2="-1" k3="1" result="shadowInnerInner1"></feComposite>
            <feColorMatrix values="0 0 0 0 1   0 0 0 0 1   0 0 0 0 1  0 0 0 0.0947690217 0" type="matrix" in="shadowInnerInner1"></feColorMatrix>
        </filter>
    </defs>
    <g id="商城已确认-最终版" stroke="none" stroke-width="1" fill="none" fill-rule="evenodd">
        <g id="001-已登录" transform="translate(0.000000, -64.000000)">
            <g id="Group-2" transform="translate(0.000000, 49.000000)">
                <g id="上部底子" transform="translate(0.000000, 15.500000)">
                    <g id="Group-2">
                        <g id="个人中心-背景">
                            <g id="上部底子">
                                <mask id="mask-3" fill="white">
                                    <use xlink:href="#path-2"></use>
                                </mask>
                                <use id="Combined-Shape" fill="url(#linearGradient-1)" xlink:href="#path-2"></use>
                                <circle id="Oval" fill="url(#linearGradient-4)" opacity="0.360832556" mask="url(#mask-3)" cx="90.5" cy="-128.5" r="261.5"></circle>
                                <rect id="Rectangle-12" fill="url(#linearGradient-5)" mask="url(#mask-3)" x="0" y="0" width="375" height="172"></rect>
                                <circle id="Oval" fill="url(#linearGradient-6)" mask="url(#mask-3)" cx="23.5" cy="-47.5" r="157.5"></circle>
                                <path d="M26,56.5 C24.8954305,56.5 24,55.6045695 24,54.5 C24,53.3954305 24.8954305,52.5 26,52.5 C27.1045695,52.5 28,53.3954305 28,54.5 C28,55.6045695 27.1045695,56.5 26,56.5 Z M36,56.5 C34.8954305,56.5 34,55.6045695 34,54.5 C34,53.3954305 34.8954305,52.5 36,52.5 C37.1045695,52.5 38,53.3954305 38,54.5 C38,55.6045695 37.1045695,56.5 36,56.5 Z M46,56.5 C44.8954305,56.5 44,55.6045695 44,54.5 C44,53.3954305 44.8954305,52.5 46,52.5 C47.1045695,52.5 48,53.3954305 48,54.5 C48,55.6045695 47.1045695,56.5 46,56.5 Z M56,56.5 C54.8954305,56.5 54,55.6045695 54,54.5 C54,53.3954305 54.8954305,52.5 56,52.5 C57.1045695,52.5 58,53.3954305 58,54.5 C58,55.6045695 57.1045695,56.5 56,56.5 Z M66,56.5 C64.8954305,56.5 64,55.6045695 64,54.5 C64,53.3954305 64.8954305,52.5 66,52.5 C67.1045695,52.5 68,53.3954305 68,54.5 C68,55.6045695 67.1045695,56.5 66,56.5 Z M76,56.5 C74.8954305,56.5 74,55.6045695 74,54.5 C74,53.3954305 74.8954305,52.5 76,52.5 C77.1045695,52.5 78,53.3954305 78,54.5 C78,55.6045695 77.1045695,56.5 76,56.5 Z M86,56.5 C84.8954305,56.5 84,55.6045695 84,54.5 C84,53.3954305 84.8954305,52.5 86,52.5 C87.1045695,52.5 88,53.3954305 88,54.5 C88,55.6045695 87.1045695,56.5 86,56.5 Z M96,56.5 C94.8954305,56.5 94,55.6045695 94,54.5 C94,53.3954305 94.8954305,52.5 96,52.5 C97.1045695,52.5 98,53.3954305 98,54.5 C98,55.6045695 97.1045695,56.5 96,56.5 Z M26,66.5 C24.8954305,66.5 24,65.6045695 24,64.5 C24,63.3954305 24.8954305,62.5 26,62.5 C27.1045695,62.5 28,63.3954305 28,64.5 C28,65.6045695 27.1045695,66.5 26,66.5 Z M36,66.5 C34.8954305,66.5 34,65.6045695 34,64.5 C34,63.3954305 34.8954305,62.5 36,62.5 C37.1045695,62.5 38,63.3954305 38,64.5 C38,65.6045695 37.1045695,66.5 36,66.5 Z M46,66.5 C44.8954305,66.5 44,65.6045695 44,64.5 C44,63.3954305 44.8954305,62.5 46,62.5 C47.1045695,62.5 48,63.3954305 48,64.5 C48,65.6045695 47.1045695,66.5 46,66.5 Z M56,66.5 C54.8954305,66.5 54,65.6045695 54,64.5 C54,63.3954305 54.8954305,62.5 56,62.5 C57.1045695,62.5 58,63.3954305 58,64.5 C58,65.6045695 57.1045695,66.5 56,66.5 Z M66,66.5 C64.8954305,66.5 64,65.6045695 64,64.5 C64,63.3954305 64.8954305,62.5 66,62.5 C67.1045695,62.5 68,63.3954305 68,64.5 C68,65.6045695 67.1045695,66.5 66,66.5 Z M76,66.5 C74.8954305,66.5 74,65.6045695 74,64.5 C74,63.3954305 74.8954305,62.5 76,62.5 C77.1045695,62.5 78,63.3954305 78,64.5 C78,65.6045695 77.1045695,66.5 76,66.5 Z M86,66.5 C84.8954305,66.5 84,65.6045695 84,64.5 C84,63.3954305 84.8954305,62.5 86,62.5 C87.1045695,62.5 88,63.3954305 88,64.5 C88,65.6045695 87.1045695,66.5 86,66.5 Z M96,66.5 C94.8954305,66.5 94,65.6045695 94,64.5 C94,63.3954305 94.8954305,62.5 96,62.5 C97.1045695,62.5 98,63.3954305 98,64.5 C98,65.6045695 97.1045695,66.5 96,66.5 Z M26,76.5 C24.8954305,76.5 24,75.6045695 24,74.5 C24,73.3954305 24.8954305,72.5 26,72.5 C27.1045695,72.5 28,73.3954305 28,74.5 C28,75.6045695 27.1045695,76.5 26,76.5 Z M36,76.5 C34.8954305,76.5 34,75.6045695 34,74.5 C34,73.3954305 34.8954305,72.5 36,72.5 C37.1045695,72.5 38,73.3954305 38,74.5 C38,75.6045695 37.1045695,76.5 36,76.5 Z M46,76.5 C44.8954305,76.5 44,75.6045695 44,74.5 C44,73.3954305 44.8954305,72.5 46,72.5 C47.1045695,72.5 48,73.3954305 48,74.5 C48,75.6045695 47.1045695,76.5 46,76.5 Z M56,76.5 C54.8954305,76.5 54,75.6045695 54,74.5 C54,73.3954305 54.8954305,72.5 56,72.5 C57.1045695,72.5 58,73.3954305 58,74.5 C58,75.6045695 57.1045695,76.5 56,76.5 Z M66,76.5 C64.8954305,76.5 64,75.6045695 64,74.5 C64,73.3954305 64.8954305,72.5 66,72.5 C67.1045695,72.5 68,73.3954305 68,74.5 C68,75.6045695 67.1045695,76.5 66,76.5 Z M76,76.5 C74.8954305,76.5 74,75.6045695 74,74.5 C74,73.3954305 74.8954305,72.5 76,72.5 C77.1045695,72.5 78,73.3954305 78,74.5 C78,75.6045695 77.1045695,76.5 76,76.5 Z M86,76.5 C84.8954305,76.5 84,75.6045695 84,74.5 C84,73.3954305 84.8954305,72.5 86,72.5 C87.1045695,72.5 88,73.3954305 88,74.5 C88,75.6045695 87.1045695,76.5 86,76.5 Z M96,76.5 C94.8954305,76.5 94,75.6045695 94,74.5 C94,73.3954305 94.8954305,72.5 96,72.5 C97.1045695,72.5 98,73.3954305 98,74.5 C98,75.6045695 97.1045695,76.5 96,76.5 Z M26,86.5 C24.8954305,86.5 24,85.6045695 24,84.5 C24,83.3954305 24.8954305,82.5 26,82.5 C27.1045695,82.5 28,83.3954305 28,84.5 C28,85.6045695 27.1045695,86.5 26,86.5 Z M36,86.5 C34.8954305,86.5 34,85.6045695 34,84.5 C34,83.3954305 34.8954305,82.5 36,82.5 C37.1045695,82.5 38,83.3954305 38,84.5 C38,85.6045695 37.1045695,86.5 36,86.5 Z M46,86.5 C44.8954305,86.5 44,85.6045695 44,84.5 C44,83.3954305 44.8954305,82.5 46,82.5 C47.1045695,82.5 48,83.3954305 48,84.5 C48,85.6045695 47.1045695,86.5 46,86.5 Z M56,86.5 C54.8954305,86.5 54,85.6045695 54,84.5 C54,83.3954305 54.8954305,82.5 56,82.5 C57.1045695,82.5 58,83.3954305 58,84.5 C58,85.6045695 57.1045695,86.5 56,86.5 Z M66,86.5 C64.8954305,86.5 64,85.6045695 64,84.5 C64,83.3954305 64.8954305,82.5 66,82.5 C67.1045695,82.5 68,83.3954305 68,84.5 C68,85.6045695 67.1045695,86.5 66,86.5 Z M76,86.5 C74.8954305,86.5 74,85.6045695 74,84.5 C74,83.3954305 74.8954305,82.5 76,82.5 C77.1045695,82.5 78,83.3954305 78,84.5 C78,85.6045695 77.1045695,86.5 76,86.5 Z M86,86.5 C84.8954305,86.5 84,85.6045695 84,84.5 C84,83.3954305 84.8954305,82.5 86,82.5 C87.1045695,82.5 88,83.3954305 88,84.5 C88,85.6045695 87.1045695,86.5 86,86.5 Z M96,86.5 C94.8954305,86.5 94,85.6045695 94,84.5 C94,83.3954305 94.8954305,82.5 96,82.5 C97.1045695,82.5 98,83.3954305 98,84.5 C98,85.6045695 97.1045695,86.5 96,86.5 Z" id="一堆圆点" fill="#FFE6D9" opacity="0.166225091" mask="url(#mask-3)"></path>
                                <g id="Page-1" opacity="0.810405344" mask="url(#mask-3)">
                                    <g transform="translate(193.500000, 54.194444)">
                                        <g id="Fill-1">
                                            <use fill="url(#linearGradient-7)" fill-rule="evenodd" xlink:href="#path-8"></use>
                                            <use fill="black" fill-opacity="1" filter="url(#filter-9)" xlink:href="#path-8"></use>
                                        </g>
                                        <g id="Combined-Shape" opacity="0.679744112">
                                            <use fill="url(#linearGradient-10)" fill-rule="evenodd" xlink:href="#path-11"></use>
                                            <use fill="black" fill-opacity="1" filter="url(#filter-12)" xlink:href="#path-11"></use>
                                        </g>
                                    </g>
                                </g>
                            </g>
                        </g>
                    </g>
                </g>
            </g>
        </g>
    </g>
</svg>