<?xml version="1.0" encoding="UTF-8"?>
<svg width="20px" height="21px" viewBox="0 0 20 21" version="1.1" xmlns="http://www.w3.org/2000/svg" xmlns:xlink="http://www.w3.org/1999/xlink">
    <!-- Generator: Sketch 49.3 (51167) - http://www.bohemiancoding.com/sketch -->
    <title>icon-设置@2x</title>
    <desc>Created with Sketch.</desc>
    <defs></defs>
    <g id="商城已确认" stroke="none" stroke-width="1" fill="none" fill-rule="evenodd">
        <g id="001-登录注册-已登录" transform="translate(-18.000000, -38.000000)" fill-rule="nonzero" stroke="#FFFFFF" stroke-width="1.5">
            <g id="Group-2">
                <g id="icon-设置" transform="translate(18.000000, 38.000000)">
                    <path d="M10.1092226,19.3154793 C9.71480167,19.3154793 9.31713,19.2883899 8.92487621,19.2342112 C8.44753972,19.1671486 8.05304091,18.8280997 7.91498522,18.3662684 C7.47201357,16.9328553 6.0012028,16.0811346 4.53748498,16.4104173 C4.07029877,16.5171684 3.58328829,16.3465463 3.28487341,15.9715698 C2.79492787,15.3458347 2.39415862,14.6551551 2.09402556,13.9192806 C1.91473903,13.4725851 2.00974356,12.9625163 2.33782971,12.6103232 C3.35478503,11.5080417 3.35478503,9.80957111 2.33782971,8.70728957 C2.00991681,8.35370027 1.91500384,7.84285759 2.09402556,7.39508142 C2.39449859,6.65970892 2.79524544,5.96943251 3.28487341,5.3438758 C3.58376059,4.9695646 4.0703449,4.79909172 4.53748498,4.90502832 C5.24202296,5.05979851 5.97894111,4.94702068 6.60494422,4.5886247 C7.23270774,4.22763433 7.70041092,3.64223101 7.91390164,2.95026078 C8.06126771,2.48107323 8.44702006,2.14733243 8.92379263,2.08231798 C9.71029058,1.97288003 10.5081547,1.97288003 11.2946526,2.08231798 C11.7703416,2.14733243 12.1582611,2.48107323 12.3045436,2.95026078 C12.518711,3.6418727 12.9862364,4.2270534 13.613501,4.5886247 C14.2396141,4.94896947 14.9779507,5.06184606 15.6831274,4.90502832 C16.1479807,4.80100521 16.643174,4.97329348 16.9335718,5.34495937 C17.4233676,5.9702027 17.8244672,6.66009406 18.1255032,7.39508142 C18.304293,7.8339289 18.210022,8.34862657 17.8795319,8.70620599 C16.8630973,9.80869096 16.8630973,11.5067547 17.8795319,12.6092396 C18.210022,12.9668191 18.304293,13.4815167 18.1255032,13.9225313 C17.8248798,14.6577219 17.4237483,15.3476681 16.9335718,15.9726534 C16.6353254,16.3465576 16.1497894,16.5173787 15.6831274,16.4125845 C14.9780672,16.255974 14.239933,16.3684332 13.613501,16.7279045 C12.9860236,17.0897355 12.5184713,17.6753372 12.3045436,18.367352 C12.1582611,18.8365395 11.7714252,19.1691968 11.2946526,19.2352948 C10.9013152,19.2883899 10.5036436,19.3154793 10.1092226,19.3154793 Z" id="Shape"></path>
                    <path d="M10.1111111,13.4837077 C8.51445088,13.4821365 7.22049402,12.1881796 7.21892276,10.5915194 C7.22101754,8.9952302 8.51482134,7.70185143 10.1111111,7.70028114 C11.7074009,7.70185143 13.0012047,8.9952302 13.0032995,10.5915194 C13.0017282,12.1881796 11.7077713,13.4821365 10.1111111,13.4837077 Z" id="Shape"></path>
                </g>
            </g>
        </g>
    </g>
</svg>