<?xml version="1.0" encoding="utf-8"?>
<!-- Generator: Adobe Illustrator 14.0.0, SVG Export Plug-In . SVG Version: 6.00 Build 43363)  -->
<!DOCTYPE svg PUBLIC "-//W3C//DTD SVG 1.1//EN" "http://www.w3.org/Graphics/SVG/1.1/DTD/svg11.dtd">
<svg version="1.1" id="图层_1" xmlns="http://www.w3.org/2000/svg" xmlns:xlink="http://www.w3.org/1999/xlink" x="0px" y="0px"
	 width="154px" height="154px" viewBox="0 0 154 154" enable-background="new 0 0 154 154" xml:space="preserve">
<circle fill="none" stroke="#FF0000" stroke-width="3.5" cx="77.409" cy="77.454" r="74.25"/>
<g>
	<path fill="#FF0000" d="M26.85,115.251l0.563-0.337l-2.278-3.8c-0.299,0.882-0.844,1.782-1.632,2.7
		c-0.13-1.068-0.178-1.998-0.14-2.785c0.479-0.158,1.013-0.225,1.604-0.196l-2.278-3.8l-0.563,0.338l-0.928-1.547l2.955-1.771
		c-0.028,0.91,0.516,1.283,1.631,1.125l-2.392,1.434l4.725,7.881l1.688-1.013l0.928,1.548l-2.955,1.771L26.85,115.251z
		 M34.363,113.424l-0.704,0.422l-2.194-3.658c-1.143,0.432-2.429,0.947-3.855,1.547l-0.843-1.406
		c0.433-0.132,0.563-0.179,0.394-0.141c1.689-0.693,2.842-1.163,3.461-1.406l-4.05-6.754l0.704-0.422l1.772,2.955
		c2.419-1.388,4.456-2.035,6.106-1.94c-0.028-0.685-0.065-1.331-0.112-1.941c-0.112-1.144-0.2-1.983-0.267-2.519
		c0.047-0.027,0.15-0.121,0.31-0.281c0.6-0.486,1.107-0.918,1.52-1.293c0.149,0.676,0.078,2.79-0.213,6.344
		c1.679,0.779,3.933,2.201,6.766,4.266l0.337,0.563c-2.897-1.96-5.335-3.209-7.314-3.744c-0.122,0.967-0.244,1.932-0.367,2.897
		c0.788-0.28,1.252-0.464,1.393-0.548l0.886,1.477c-0.619,0.244-1.584,0.602-2.898,1.069c-1.267,0.44-2.246,0.772-2.94,0.997
		L34.363,113.424z M29.892,105.967l1.519,2.533c0.264-0.094,0.526-0.188,0.788-0.281c1.502-0.58,2.6-0.984,3.292-1.209
		c0.039-0.469-0.023-1.262-0.182-2.377c-0.046-0.291-0.088-0.521-0.126-0.689C33.673,104.082,31.909,104.758,29.892,105.967z"/>
</g>
<g>
	<path fill="#FF0000" d="M18.623,93.059l-4.136,0.627l-0.246-1.623l0.973-0.147l-0.344-2.271l-0.974,0.148l-0.245-1.623l5.353-0.811
		c0.558,0.026,0.746-0.196,0.563-0.667l-0.184-1.216l1.622-0.246l0.319,2.108c0.256,0.957-0.273,1.481-1.588,1.568l-4.056,0.614
		l0.345,2.271l1.784-0.271c1.353-0.205,2.815,0.32,4.388,1.575l0.11,0.729C21.195,93.056,19.968,92.801,18.623,93.059z
		 M25.184,96.379l-4.866,0.737l0.319,2.108l-0.812,0.123l-0.319-2.108l-4.38,0.663l-0.246-1.621l4.38-0.664l-0.271-1.784
		l0.812-0.123l0.271,1.784l4.298-0.651c-0.538-0.637-1.093-1.19-1.661-1.656l0.068-0.094c0.978,0.238,1.914,0.761,2.81,1.565
		l7.057-1.069c0.863-0.131,1.674,0.466,2.428,1.789c-0.217,0.032-0.246,0.203-0.088,0.512l0.284,0.786l-0.218,0.198
		c-0.655-1.394-1.348-1.952-2.079-1.676l-6.245,0.946c0.485,0.646,0.89,1.305,1.211,1.974c-0.734-0.108-1.438-0.002-2.108,0.319
		C25.783,97.781,25.569,97.096,25.184,96.379z M24.293,92.697l-0.811,0.123l-0.688-4.542l-0.648,0.099l-0.246-1.622l3.244-0.492
		c1.119-0.28,2.503,0.091,4.151,1.113c0.764-1.166,1.174-2.473,1.23-3.921c0.76,0.272,1.607,0.2,2.539-0.218
		c-0.204,1.579-1.021,3.307-2.45,5.184c0.553,0.358,1.775,1.501,3.672,3.425c0.07,0.102,0.163,0.17,0.28,0.207l0.11,0.73
		c-1.652-1.409-3.22-2.637-4.706-3.685c-1.434,1.49-3.367,2.418-5.801,2.787L24.293,92.697z M25.39,87.885l-1.785,0.271l0.517,3.406
		c1.969-0.519,3.522-1.584,4.66-3.195C27.71,87.865,26.579,87.704,25.39,87.885z"/>
</g>
<g>
	<path fill="#FF0000" d="M15.873,71.995l0.021-1.477l0.82,0.012l0.013-0.82l-4.266-0.063l0.021-1.477l4.266,0.063l0.012-0.821
		l-0.82-0.012l0.022-1.477l10.335,0.152l-0.022,1.477l-0.984-0.015l-0.012,0.82l5.003,0.074c-0.05-0.274-0.155-0.548-0.315-0.825
		c-0.33,0.105-0.876,0.151-1.643,0.14c-0.656-0.01-1.229-0.072-1.721-0.189c0.164,0.002,0.385-0.048,0.659-0.154
		c1.593-0.414,2.585-0.946,2.977-1.598c0.759,0.45,1.604,0.599,2.537,0.448c0.219-0.051,0.272,0.004,0.161,0.166
		c-0.502,0.649-1.41,1.046-2.725,1.19c1.244,0.894,2.015,2.438,2.311,4.629c-0.763-0.229-1.42-0.185-1.971,0.135
		c0.175-0.763,0.188-1.583,0.036-2.461l-5.331-0.079l-0.013,0.82l0.984,0.015l-0.021,1.477L15.873,71.995z M13.412,71.958
		l0.82,0.012l-0.108,7.382l-0.82-0.013L13.412,71.958z M19.796,73.037l-0.021,1.477l-0.492-0.007l-0.036,2.461l0.492,0.007
		l-0.022,1.477l-4.757-0.07l0.021-1.477l0.656,0.01l0.036-2.461l-0.656-0.01l0.021-1.477L19.796,73.037z M16.457,76.926l1.969,0.029
		l0.036-2.461l-1.969-0.029L16.457,76.926z M24.426,70.645l0.012-0.82l-6.89-0.102l-0.013,0.82L24.426,70.645z M24.459,68.348
		l0.013-0.82l-6.891-0.102l-0.012,0.82L24.459,68.348z M32.111,77.977l-0.022,1.476l-11.729-0.172l0.022-1.477l0.492,0.007
		l0.053-3.609l-0.492-0.007l0.021-1.477l9.761,0.144c0.767-0.042,1.387,0.595,1.859,1.915c-0.274-0.004-0.305,0.214-0.092,0.655
		l0.152,0.823l-0.248,0.079c-0.47-1.484-0.98-2.148-1.529-1.992l-4.347-0.064l-0.018,1.148l4.676,0.069l-0.02,1.313l-4.676-0.069
		l-0.017,1.148L32.111,77.977z M25.192,74.265l-3.445-0.051l-0.053,3.609l3.444,0.051l0.024-1.641l-2.938-1.028l0.256-0.652
		l2.692,1.024L25.192,74.265z M23.687,76.212c0.381,0.169,0.762,0.394,1.139,0.673c-0.438,0.158-1.124,0.285-2.057,0.38
		c-0.273,0.051-0.52,0.075-0.739,0.071C22.195,77.229,22.748,76.854,23.687,76.212z"/>
</g>
<g>
	<path fill="#FF0000" d="M35.367,32.11l-0.526-0.629l5.281-4.426c-0.568-0.167-1.441-0.612-2.619-1.337l0.01-0.115
		c0.707-0.093,1.574-0.249,2.604-0.469c0.176,0.638,0.304,1.173,0.383,1.605l4.904-4.109l0.526,0.629L35.367,32.11z M49.556,39.591
		l-4.689-5.596l-1.635,1.37l0.633,0.754l-1.258,1.054l-4.32-5.155l1.258-1.054l0.422,0.503l4.526-3.793l-0.526-0.629l1.258-1.054
		l4.32,5.156L48.286,32.2l-0.527-0.629l-1.635,1.37l4.742,5.659c0.611,0.559,0.434,1.456-0.527,2.69
		c-0.219-0.175-0.461-0.08-0.725,0.286l-0.597,0.821l-0.273-0.199c0.585-0.918,0.909-1.511,0.972-1.778
		C49.82,40.119,49.767,39.842,49.556,39.591z M45.019,28.302l-4.526,3.793l2.213,2.641l4.526-3.793L45.019,28.302z M43.28,37.466
		l1.383-1.159c1.377,1.559,1.801,4.021,1.271,7.391l-0.503,0.421C45.865,41.828,45.147,39.611,43.28,37.466z M47.993,32.873
		l0.127-0.105c2.434,1.457,4.471,1.676,6.113,0.655c0.039,0.897,0.467,1.536,1.287,1.919l-0.01,0.115
		C53.286,36.464,50.781,35.604,47.993,32.873z"/>
</g>
<g>
	<path fill="#FF0000" d="M66.06,32.292l-1.482-19.878l1.555-0.116l0.061,0.818l9.325-0.696l-0.049-0.655l1.555-0.116l1.3,17.424
		c0.086,1.146-0.727,2.028-2.435,2.649c-0.071-0.214-0.184-0.261-0.34-0.139l-1.133,0.249l-0.094-0.157
		c1.804-0.792,2.625-1.567,2.459-2.322l-0.323-4.335c-0.209,0.894-0.541,1.576-1,2.049c-0.109,0.008-0.463-0.706-1.063-2.142
		c-0.267-0.638-0.47-1.144-0.607-1.518c-0.818,2.255-1.646,4.018-2.485,5.286l-0.49,0.037c1.061-1.942,1.855-4.169,2.382-6.676
		c-0.063-0.104-0.223-0.395-0.477-0.869c-0.859-1.964-1.506-3.644-1.939-5.038c0.037,1.971-0.063,3.953-0.297,5.945
		c0.878,1.47,1.354,2.34,1.43,2.608c-0.221,0.73-0.471,1.407-0.755,2.031c-0.109,0.008-0.302-0.36-0.575-1.109
		c-0.275-0.747-0.483-1.334-0.625-1.763c-0.773,2.143-1.521,3.871-2.245,5.186l-0.327,0.024l0.231,3.108L66.06,32.292z
		 M76.445,24.855l-0.866-11.616l-9.325,0.696l0.109,1.473c0.621,0.996,1.31,2.123,2.063,3.383c0.376,0.63,0.685,1.1,0.927,1.411
		c0.042-1.648,0.022-3.375-0.057-5.178l1.473-0.11c0.667,1.595,1.287,2.92,1.859,3.974c0.385,0.74,0.636,1.187,0.758,1.342
		c0.167-1.438,0.221-3.278,0.164-5.523l1.473-0.11c0.031,2.63-0.175,5.003-0.621,7.121c0.368,0.521,0.863,1.28,1.486,2.274
		C76.075,24.307,76.262,24.595,76.445,24.855z M66.412,16.062l0.928,12.434c0.553-1.411,1.141-3.458,1.763-6.137
		c0.058,0.051-0.536-1.303-1.783-4.062C66.98,17.446,66.678,16.699,66.412,16.062z"/>
</g>
<g>
	<path fill="#FF0000" d="M86.833,25.632l0.08,0.017c-1.573,2.247-3.647,3.527-6.223,3.84c0.399-0.589,0.503-1.375,0.313-2.363
		C82.288,27.666,84.231,27.168,86.833,25.632z M86.366,11.473l1.929,0.394c-0.834,2.454-2.354,4.433-4.557,5.937
		c1.167,0.294,2.236,0.12,3.203-0.521c0.107-0.256,0.233-0.732,0.375-1.43l1.93,0.393c-0.353,2.552-2.441,4.86-6.266,6.929
		c1.125,0.229,2.659-0.045,4.604-0.821l0.064,0.097c-1.926,1.784-3.893,2.669-5.897,2.65c0.27-0.502,0.358-1.21,0.265-2.122
		l0.467,0.179c2.129-1.688,3.545-3.436,4.248-5.247c-1.537,0.972-2.826,1.547-3.867,1.725c0.355-0.652,0.434-1.306,0.232-1.962
		l0.321,0.065C84.944,16.541,85.927,14.453,86.366,11.473z M89.041,19.72l-0.482-0.099c0.936-1.036,1.741-2.938,2.416-5.703
		c0.099-0.482,0.224-0.959,0.375-1.431l1.93,0.393l-0.554,1.896l2.091,0.426l0.195-0.965l1.93,0.393
		c-0.609,2.723-1.99,4.842-4.141,6.356c0.608,1.129,1.805,2.098,3.595,2.908c-0.065,0.043-0.136,0.112-0.21,0.208
		c-0.496,0.515-0.771,1.045-0.826,1.591c-0.311-0.118-0.6-0.345-0.866-0.679l-1.718,8.439l-1.607-0.327l0.262-1.286l-3.216-0.654
		l-0.262,1.286l-1.607-0.327l1.685-8.279l-0.935,0.479l-0.644-0.131c1.816-0.97,3.503-2.133,5.063-3.49
		c-0.042-0.063-0.096-0.214-0.159-0.451c-0.264-1.169-0.325-2.103-0.184-2.8C90.547,18.352,89.836,19.101,89.041,19.72z
		 M91.593,31.037l1.097-5.386l-3.216-0.654l-1.096,5.386L91.593,31.037z M92.853,24.848l0.131-0.643l0.804,0.163
		c-0.845-0.785-1.496-1.698-1.953-2.741c-0.915,0.651-1.872,1.238-2.87,1.76l0.805,0.164l-0.131,0.643L92.853,24.848z
		 M94.619,16.166l-2.33-0.475l-0.891,1.494c-0.002,0.558,0.285,1.48,0.859,2.77C93.301,18.941,94.089,17.678,94.619,16.166z"/>
</g>
<g>
	<path fill="#FF0000" d="M126.725,37.987l2.779-2.036l0.97,1.323l-2.778,2.036l2.036,2.778l-0.661,0.486l-2.037-2.779l-2.779,2.036
		l0.484,0.661l0.662-0.484l0.97,1.323l-2.249,1.649c-1.842,1.281-3.904,1.844-6.188,1.687c-0.049,1.322,0.155,2.665,0.611,4.026
		c-0.711,0.047-1.367,0.494-1.967,1.34l-0.115-0.018c-0.361-1.973-0.406-3.838-0.135-5.596c-1.212-0.267-3.064-0.806-5.561-1.621
		l-0.437-0.595c2.017,0.622,4.096,1.1,6.235,1.431c0.864-2.058,2.592-4.002,5.184-5.833l-0.242-0.331l0.661-0.484l1.115,1.521
		l2.779-2.036l-1.552-2.118l-0.529,0.389l-0.97-1.324l-3.309,2.425c0.99,0.427,2.049,0.669,3.175,0.725l-0.018,0.114
		c-1.045,0.426-2.449,0.405-4.216-0.063l-5.889,4.314c-0.837,0.614-2.045,0.447-3.62-0.498c0.124-0.295,0.094-0.476-0.093-0.543
		l-0.798-0.533l0.102-0.278c1.584,1.143,2.687,1.353,3.307,0.627l5.096-3.733c-0.785-0.238-1.438-0.574-1.958-1.006
		c0.604-0.377,1.036-0.896,1.297-1.561c0.528,0.629,1.19,1.161,1.983,1.596l3.971-2.908l-1.357-1.854l0.661-0.484l1.358,1.853
		l3.176-2.327l0.969,1.322l-3.176,2.328l0.971,1.323l0.529-0.388L126.725,37.987z M121.96,44.53l2.117-1.552l-2.134-2.911
		c-2.176,1.934-3.444,3.812-3.803,5.635C119.64,45.62,120.912,45.23,121.96,44.53z"/>
</g>
<g>
	<path fill="#FF0000" d="M134.394,91.762l-0.041,0.159c-3.79-0.42-7.179,0.227-10.165,1.938c-0.339-0.652-0.943-1.148-1.816-1.488
		c-0.197-0.107-0.29-0.189-0.276-0.241c-0.039-0.066,0.034-0.132,0.22-0.197c1.266-0.519,2.482-0.853,3.65-1.001
		c-1.09-2.544-1.447-5.631-1.07-9.262c0.846,0.444,1.64,0.538,2.385,0.28c-0.19,0.515-0.354,1.038-0.491,1.567
		c2.206,2.381,5.624,4.341,10.253,5.882l-0.536,2.064c-4.046-1.39-7.32-3.906-9.819-7.55c-0.701,2.7-0.822,5.012-0.361,6.94
		C128.436,90.555,131.125,90.856,134.394,91.762z M142.513,93.785l-0.041,0.159c-4.071-0.209-7.244,0.916-9.521,3.376
		c-0.406-0.614-1.061-0.925-1.962-0.933l-0.396-0.104c-0.054-0.014,0-0.114,0.161-0.297
		C133.362,93.557,137.281,92.821,142.513,93.785z M142.617,88.812l-0.536,2.064c-2.447-0.805-5.069-3.321-7.87-7.552l0.104-0.397
		C136.226,85.571,138.994,87.532,142.617,88.812z"/>
</g>
<g>
	<path fill="#FF0000" d="M117.635,105.825l14.063,7.796l5.091-9.184l0.789,0.438l-5.091,9.184l0.717,0.397l-0.836,1.507
		l-15.424-8.552c-1.174-0.589-1.443-1.738-0.809-3.449c0.145,0.079,0.282,0,0.414-0.239l0.334-0.94l0.256,0.047
		C116.625,104.546,116.791,105.545,117.635,105.825z M124.402,100.385l-1.363-0.756l0.836-1.506l7.461,4.137l-0.835,1.506
		l-0.79-0.438l-1.75,3.157l0.79,0.438l-0.835,1.507l-7.246-4.018l0.835-1.507l1.147,0.637L124.402,100.385z M123.441,103.979
		l3.73,2.068l1.75-3.157l-3.73-2.068L123.441,103.979z M128.874,110.931l5.091-9.184l0.789,0.438l-5.091,9.184L128.874,110.931z"/>
</g>
<polygon fill="#FF0000" points="93.811,99.696 78.545,88.233 63.652,99.128 68.658,81.831 55.183,70.567 72.408,70.317 
	78.545,53.542 84.492,70.317 101.908,70.485 88.324,81.401 "/>
<g>
	<path fill="#FF0000" d="M27.278,45.524l-4.538-2.954l0.896-1.375l16.43,10.696l-0.895,1.375l-4.193-2.73
		c1.083,1.945,1.49,3.775,1.221,5.493c-0.842-0.612-1.641-0.937-2.4-0.975c1.227-1.682,1.391-3.337,0.492-4.966l-6.324-4.117
		l-2.059,3.163l-0.688-0.447L27.278,45.524z M39.827,48.8l-14.85-9.667l0.896-1.375l6.875,4.475l-2.562-5.387l0.884-0.305
		l2.709,6.364l6.6,4.296c0.229,0.149,0.485,0.056,0.771-0.281l0.717-1.1c0.178-0.275,0.16-0.547-0.055-0.818l-2.783-2.791
		l0.223-0.344l2.341,1.817l0.269-0.413l1.307,0.851c0.718,0.6,0.877,1.257,0.477,1.975l-1.521,2.337
		C41.462,49.244,40.698,49.366,39.827,48.8z"/>
</g>
<g>
	<path fill="#FF0000" d="M104.691,18.438l-0.055-0.226c2.033,0.345,3.691,0.461,4.979,0.349c0.64,0.84,1.169,1.548,1.586,2.122
		c-0.15,0.037-0.969-0.143-2.457-0.539c-0.094-0.058-0.164-0.101-0.21-0.129l-2.052,3.361l2.1,1.282l-0.428,0.7l-2.1-1.283
		l-0.6,0.98c0.026,0.272,0.125,0.686,0.301,1.24c0.365,1.186,0.565,1.852,0.603,2.002c-0.331,0.439-0.837,0.899-1.516,1.381
		l-0.07-0.042c-0.039-0.985,0.046-2.278,0.255-3.882L99,35.627l-1.4-0.854l4.66-7.631c-0.254,0.103-0.471,0.193-0.649,0.276
		c-1.546,0.852-2.713,1.452-3.503,1.801l-0.42-0.256c2.739-1.338,4.967-3.31,6.687-5.912l-1.96-1.197l0.428-0.7l2.24,1.368
		l1.881-3.08C106.178,19.153,105.42,18.82,104.691,18.438z M103.785,29.996l4.908,2.035l6.327-10.36l1.4,0.855l-6.242,10.221
		l1.711,0.661l-0.428,0.699l-1.711-0.66l-3.891,6.371l-1.4-0.855l3.806-6.23l-4.908-2.037L103.785,29.996z M108.531,25.686
		l0.113-0.027c0.197,1.146,0.418,2.307,0.662,3.48c-0.396,0.334-0.949,0.767-1.656,1.295l-0.07-0.043
		C107.924,28.358,108.241,26.791,108.531,25.686z M111.471,20.56l0.112-0.027c0.052,0.546,0.127,1.104,0.226,1.676
		c0.16,0.997,0.277,1.646,0.351,1.944c-0.511,0.521-1.017,0.982-1.517,1.381l-0.139-0.086
		C110.761,23.555,111.083,21.926,111.471,20.56z"/>
</g>
<g>
	<path fill="#FF0000" d="M133.877,47.179l0.772-0.276l1.38,3.863c0.257-0.092,0.713-0.198,1.368-0.315
		c0.584-0.151,1.041-0.255,1.368-0.313l0.718,2.008c-0.226,0.022-0.553,0.08-0.982,0.177c-0.81,0.172-1.413,0.272-1.81,0.298
		l2.648,7.416l-0.772,0.276l-2.76-7.726c-0.468-0.007-1.203-0.035-2.207-0.082c-0.641-0.004-1.012,0.013-1.114,0.049l1.932,5.408
		l0.617-0.221l0.607,1.699l-11.355,4.057c-0.875,0.313-1.909-0.307-3.102-1.854c0.271-0.214,0.34-0.354,0.199-0.419l-0.695-0.972
		l0.1-0.21c1.379,1.424,2.343,2.008,2.891,1.755l9.965-3.56l-1.986-5.562l-2.472,0.883l1.711,4.79l-0.772,0.275l-1.711-4.789
		l-2.472,0.883l1.71,4.789l-0.771,0.276l-1.711-4.79l-5.485,1.959l-0.606-1.699l10.429-3.725c-0.472-0.181-1.012-0.395-1.622-0.641
		c-0.752-0.313-1.293-0.527-1.623-0.641l-0.221-0.617c3.138,1.145,6.19,1.563,9.16,1.258L133.877,47.179z"/>
</g>
<g>
	<path fill="#FF0000" d="M124.377,67.89l-0.055-1.64l20.086-0.68l0.056,1.64l-0.656,0.022l0.056,1.64l0.656-0.022l0.055,1.64
		l-3.115,0.105c-0.984,0.033-2.215-0.745-3.69-2.337c-0.056,0.002-0.107,0.086-0.155,0.251c-0.389,1.491-1.293,2.26-2.713,2.309
		l-5.657,0.191c-1.26-0.013-2.076-0.723-2.452-2.134c0.164-0.006,0.241-0.145,0.232-0.418l-0.104-0.653L124.377,67.89z
		 M126.734,72.079l17.873-0.605l0.057,1.64l-0.656,0.022l0.11,3.279l0.656-0.022l0.056,1.64l-9.347,0.316l-0.056-1.64l0.656-0.021
		l-0.061-1.805c-1.091,0.146-2.445,0.521-4.066,1.123l3.199,2.354l-0.471,0.672l-3.455-2.674c-1.612,0.876-2.753,1.953-3.42,3.234
		c-0.4-0.479-1.305-0.558-2.717-0.236c0.302-0.776,1.172-1.736,2.611-2.879c0.16-0.115,0.268-0.173,0.322-0.175
		c-1.795-1.307-2.973-2.965-3.533-4.97c0.768,0.028,1.472-0.16,2.115-0.563C126.625,71.262,126.669,71.698,126.734,72.079z
		 M136.006,74.391l-0.033-0.982l-8.936,0.302c0.132,0.651,0.568,1.458,1.313,2.418C130.068,75.194,132.621,74.615,136.006,74.391z
		 M140.912,68.972l2.049-0.069l-0.055-1.64l-15.823,0.536c0.312,1.138,1.013,1.661,2.104,1.57l6.148-0.208
		c0.82-0.028,1.573-0.41,2.261-1.144c0.052-0.057,0.105-0.086,0.161-0.088l0.251,0.156C139.124,68.704,140.092,69,140.912,68.972z
		 M139.498,73.288l-2.623,0.089l0.111,3.279l6.23-0.211l-0.111-3.279l-2.705,0.092l0.089,2.623l-0.901,0.03L139.498,73.288z"/>
</g>
<g>
	<path fill="#FF0000" d="M16.931,53.925l0.392-1.079c0.168,0.179,0.338,0.355,0.505,0.532c1.927,2.387,4.314,4.066,7.159,5.041
		c3.151,1.26,6.321,1.42,9.512,0.483l-0.448,1.233c-3.624,1.012-6.765,1.008-9.419-0.013C21.663,59.162,19.096,57.097,16.931,53.925
		z"/>
</g>
<g>
	<path fill="#FF0000" d="M58.769,35.321l-1.103,0.321c0.044-0.241,0.088-0.482,0.132-0.722c0.792-2.963,0.739-5.882-0.151-8.754
		c-0.841-3.288-2.58-5.941-5.219-7.966l1.26-0.366c2.955,2.331,4.803,4.869,5.545,7.616C60.207,28.411,60.053,31.701,58.769,35.321z
		"/>
</g>
<g>
	<path fill="#FF0000" d="M39.683,124.713c-0.477,0.064-1.019,0.063-1.625-0.003l0.451-0.594c0.79,0.042,1.534-0.051,2.231-0.277
		l0.376,0.286l-4.083,5.376l-0.625-0.475L39.683,124.713z"/>
</g>
<g>
	<path fill="#FF0000" d="M58.25,135.738c-0.438,0.199-0.957,0.354-1.557,0.466l0.261-0.699c0.769-0.188,1.454-0.489,2.057-0.907
		l0.442,0.164l-2.361,6.325l-0.736-0.274L58.25,135.738z"/>
</g>
<g>
	<path fill="#FF0000" d="M45.964,129.245c-0.478,0.064-1.019,0.063-1.626-0.003l0.451-0.594c0.791,0.041,1.534-0.051,2.232-0.276
		l0.375,0.285l-4.083,5.376l-0.625-0.475L45.964,129.245z"/>
</g>
<g>
	<path fill="#FF0000" d="M49.267,133.523c0.323-0.614,0.648-1.067,0.977-1.359c0.329-0.293,0.691-0.489,1.087-0.59
		c0.396-0.1,0.801-0.053,1.214,0.146s0.691,0.542,0.834,1.03c0.143,0.489,0.137,1.017-0.016,1.581
		c-0.156,0.563-0.411,1.174-0.768,1.829c-0.357,0.656-0.739,1.148-1.142,1.478c-0.404,0.328-0.847,0.479-1.326,0.452
		c-0.481-0.025-0.874-0.235-1.178-0.628c-0.307-0.393-0.462-0.794-0.469-1.204c-0.007-0.409,0.042-0.813,0.146-1.213
		C48.73,134.646,48.944,134.138,49.267,133.523z M50.112,133.667c-0.382,0.615-0.635,1.205-0.76,1.769
		c-0.125,0.564-0.103,1.018,0.067,1.359c0.169,0.342,0.427,0.517,0.772,0.522s0.677-0.155,0.992-0.482
		c0.316-0.327,0.585-0.722,0.805-1.182c0.221-0.46,0.403-0.888,0.549-1.282s0.202-0.787,0.172-1.18
		c-0.03-0.391-0.19-0.663-0.479-0.816c-0.289-0.152-0.619-0.129-0.99,0.07C50.87,132.645,50.493,133.052,50.112,133.667z"/>
</g>
<g>
	<path fill="#FF0000" d="M62.657,138.98c0.227-0.655,0.483-1.151,0.765-1.489c0.282-0.338,0.612-0.585,0.989-0.743
		c0.377-0.157,0.785-0.17,1.222-0.035s0.764,0.434,0.977,0.896c0.212,0.463,0.285,0.985,0.217,1.566
		c-0.071,0.58-0.234,1.222-0.49,1.922c-0.256,0.702-0.561,1.244-0.912,1.63c-0.352,0.385-0.766,0.6-1.246,0.644
		s-0.898-0.105-1.257-0.449c-0.36-0.344-0.575-0.717-0.642-1.121s-0.078-0.811-0.034-1.223
		C62.292,140.168,62.428,139.635,62.657,138.98z M63.513,138.998c-0.287,0.664-0.45,1.285-0.49,1.86
		c-0.041,0.577,0.048,1.021,0.266,1.335c0.219,0.314,0.499,0.448,0.842,0.403c0.341-0.045,0.646-0.254,0.91-0.624
		c0.264-0.37,0.472-0.799,0.622-1.287c0.15-0.488,0.269-0.938,0.354-1.349c0.086-0.411,0.085-0.81-0.003-1.192
		c-0.087-0.382-0.286-0.628-0.594-0.737c-0.309-0.108-0.631-0.036-0.969,0.216S63.8,138.333,63.513,138.998z"/>
</g>
<g>
	<path fill="#FF0000" d="M68.974,144.648c0.085-0.385,0.318-0.707,0.702-0.966c0.382-0.26,0.882-0.682,1.5-1.264
		c0.617-0.582,1.03-1.042,1.239-1.381c0.211-0.339,0.315-0.641,0.315-0.905c0.001-0.264-0.09-0.496-0.272-0.695
		s-0.41-0.307-0.686-0.321c-0.276-0.016-0.551,0.049-0.823,0.192c-0.273,0.145-0.501,0.389-0.686,0.731l-0.719-0.228
		c0.296-0.564,0.625-0.958,0.991-1.181c0.364-0.224,0.768-0.314,1.212-0.274c0.263,0.014,0.495,0.055,0.696,0.125
		c0.201,0.069,0.4,0.192,0.6,0.368c0.197,0.175,0.347,0.416,0.446,0.722c0.099,0.307,0.099,0.657,0.001,1.052
		c-0.1,0.396-0.372,0.844-0.818,1.346c-0.446,0.502-1.277,1.271-2.49,2.305l2.795,0.421l-0.105,0.698l-3.921-0.59L68.974,144.648z"
		/>
</g>
<g>
	<path fill="#FF0000" d="M76.563,141.989c0.058-0.69,0.182-1.235,0.371-1.633s0.446-0.72,0.772-0.967
		c0.325-0.246,0.717-0.359,1.175-0.338c0.457,0.021,0.848,0.229,1.169,0.624c0.322,0.395,0.522,0.883,0.602,1.462
		c0.076,0.58,0.079,1.241,0.006,1.984c-0.074,0.743-0.234,1.345-0.478,1.805c-0.244,0.461-0.592,0.772-1.046,0.935
		c-0.452,0.162-0.896,0.122-1.329-0.121c-0.435-0.242-0.735-0.551-0.9-0.926c-0.167-0.374-0.278-0.766-0.339-1.175
		C76.505,143.231,76.504,142.681,76.563,141.989z M77.396,141.793c-0.112,0.715-0.115,1.356-0.011,1.924
		c0.104,0.569,0.303,0.978,0.591,1.226c0.29,0.25,0.596,0.311,0.916,0.181c0.32-0.129,0.563-0.406,0.727-0.831
		c0.162-0.424,0.257-0.892,0.28-1.401s0.025-0.975,0.006-1.395c-0.019-0.42-0.119-0.804-0.3-1.154
		c-0.181-0.348-0.435-0.536-0.76-0.564c-0.326-0.028-0.621,0.122-0.885,0.45C77.696,140.556,77.509,141.077,77.396,141.793z"/>
</g>
<g>
	<path fill="#FF0000" d="M83.719,141.753c-0.017-0.692,0.048-1.247,0.192-1.663c0.145-0.415,0.366-0.763,0.663-1.044
		c0.298-0.28,0.675-0.434,1.132-0.462c0.457-0.027,0.867,0.136,1.23,0.494c0.362,0.358,0.613,0.821,0.754,1.389
		c0.14,0.568,0.213,1.225,0.22,1.973c0.007,0.746-0.087,1.362-0.279,1.846c-0.193,0.483-0.507,0.832-0.939,1.041
		c-0.433,0.211-0.878,0.219-1.335,0.024c-0.458-0.195-0.79-0.47-0.995-0.825c-0.205-0.354-0.359-0.73-0.463-1.13
		C83.795,142.993,83.735,142.447,83.719,141.753z M84.527,141.468c-0.034,0.724,0.031,1.362,0.196,1.915s0.405,0.938,0.72,1.155
		s0.625,0.244,0.93,0.08c0.305-0.163,0.515-0.464,0.632-0.903c0.117-0.44,0.16-0.915,0.129-1.425
		c-0.031-0.509-0.08-0.972-0.145-1.387s-0.206-0.786-0.422-1.114c-0.217-0.327-0.489-0.487-0.816-0.481
		c-0.328,0.008-0.604,0.189-0.832,0.544S84.562,140.746,84.527,141.468z"/>
</g>
<g>
	<path fill="#FF0000" d="M91.076,141.872c-0.083-0.302-0.088-0.619-0.016-0.951c0.074-0.331,0.262-0.634,0.568-0.907
		c-0.352-0.094-0.607-0.234-0.766-0.422c-0.16-0.187-0.283-0.418-0.371-0.692c-0.089-0.274-0.115-0.523-0.082-0.751
		c0.033-0.225,0.114-0.45,0.243-0.676c0.129-0.224,0.292-0.398,0.489-0.52c0.198-0.12,0.424-0.216,0.676-0.284
		s0.486-0.104,0.702-0.11c0.216-0.004,0.46,0.045,0.731,0.147s0.5,0.291,0.683,0.566c0.183,0.276,0.272,0.632,0.269,1.067
		c-0.004,0.435-0.215,0.83-0.633,1.188c0.464,0.01,0.819,0.122,1.068,0.34c0.249,0.217,0.425,0.516,0.527,0.894
		c0.103,0.379,0.129,0.697,0.076,0.956c-0.052,0.258-0.127,0.481-0.224,0.671c-0.099,0.189-0.255,0.359-0.471,0.514
		c-0.217,0.154-0.507,0.279-0.873,0.379s-0.694,0.143-0.983,0.125c-0.289-0.017-0.546-0.089-0.771-0.217
		c-0.225-0.129-0.401-0.305-0.529-0.527C91.263,142.438,91.158,142.176,91.076,141.872z M91.172,138.633
		c0.068,0.253,0.223,0.47,0.461,0.648s0.547,0.218,0.926,0.115c0.379-0.104,0.633-0.295,0.76-0.572
		c0.128-0.279,0.143-0.574,0.044-0.887s-0.275-0.516-0.531-0.608c-0.256-0.094-0.563-0.077-0.923,0.047
		c-0.359,0.125-0.589,0.303-0.689,0.533C91.119,138.14,91.104,138.382,91.172,138.633z M91.842,141.624
		c0.069,0.307,0.191,0.558,0.367,0.754c0.175,0.196,0.423,0.285,0.743,0.266c0.32-0.018,0.634-0.11,0.941-0.275
		c0.308-0.164,0.487-0.403,0.538-0.716c0.051-0.312,0.021-0.601-0.094-0.869c-0.112-0.267-0.334-0.458-0.663-0.572
		c-0.329-0.113-0.655-0.113-0.977,0.001s-0.562,0.302-0.722,0.562C91.816,141.034,91.771,141.318,91.842,141.624z"/>
</g>
<g>
	<path fill="#FF0000" d="M100.444,139.364l-2.846,1.019l-0.226-0.629l1.446-5.395l0.555-0.198l1.547,4.323l0.887-0.317l0.226,0.629
		l-0.887,0.317l0.502,1.404l-0.702,0.251L100.444,139.364z M100.219,138.735l-1.045-2.919l-1.024,3.659L100.219,138.735z"/>
</g>
<g>
	<path fill="#FF0000" d="M104.359,137.065c-0.115-0.291-0.156-0.606-0.121-0.944c0.035-0.337,0.189-0.658,0.462-0.965
		c-0.359-0.054-0.629-0.165-0.808-0.333c-0.18-0.168-0.328-0.383-0.446-0.646c-0.119-0.263-0.174-0.507-0.166-0.736
		c0.008-0.228,0.063-0.461,0.166-0.7c0.103-0.237,0.245-0.428,0.428-0.57c0.183-0.142,0.396-0.263,0.64-0.359
		c0.242-0.096,0.471-0.158,0.686-0.187c0.213-0.028,0.461-0.007,0.743,0.063c0.281,0.071,0.528,0.234,0.741,0.486
		c0.213,0.254,0.342,0.597,0.388,1.03c0.045,0.433-0.121,0.849-0.496,1.252c0.462-0.042,0.829,0.029,1.101,0.218
		c0.271,0.188,0.479,0.464,0.624,0.828c0.145,0.365,0.206,0.68,0.183,0.941c-0.022,0.263-0.071,0.493-0.146,0.691
		c-0.077,0.2-0.213,0.388-0.41,0.564c-0.197,0.178-0.473,0.335-0.825,0.475c-0.354,0.141-0.674,0.219-0.963,0.235
		c-0.289,0.015-0.553-0.027-0.79-0.131c-0.238-0.103-0.434-0.257-0.586-0.464S104.476,137.357,104.359,137.065z M104.092,133.836
		c0.097,0.243,0.273,0.441,0.531,0.592c0.256,0.152,0.567,0.155,0.932,0.01c0.365-0.145,0.596-0.362,0.691-0.653
		s0.076-0.587-0.057-0.886c-0.133-0.3-0.331-0.48-0.596-0.545s-0.568-0.014-0.912,0.15c-0.342,0.164-0.551,0.366-0.624,0.606
		C103.984,133.352,103.996,133.593,104.092,133.836z M105.093,136.732c0.104,0.297,0.254,0.532,0.45,0.708
		c0.195,0.175,0.452,0.236,0.768,0.181c0.317-0.054,0.618-0.182,0.905-0.38s0.438-0.454,0.454-0.771
		c0.016-0.315-0.047-0.601-0.19-0.854c-0.143-0.252-0.384-0.417-0.724-0.494c-0.341-0.075-0.664-0.038-0.97,0.111
		c-0.307,0.15-0.524,0.362-0.654,0.639C105.002,136.149,104.989,136.436,105.093,136.732z"/>
</g>
<g>
	<path fill="#FF0000" d="M111.135,133.108l0.502-0.511c0.285,0.214,0.588,0.341,0.908,0.381c0.322,0.041,0.621-0.047,0.899-0.266
		s0.421-0.501,0.429-0.846c0.007-0.346-0.104-0.652-0.334-0.924c-0.229-0.271-0.502-0.411-0.817-0.423
		c-0.317-0.013-0.721,0.11-1.21,0.372l-0.301-0.414c0.413-0.365,0.65-0.717,0.713-1.053c0.063-0.337-0.029-0.651-0.273-0.941
		c-0.244-0.291-0.543-0.414-0.897-0.367c-0.354,0.049-0.635,0.229-0.844,0.542c-0.208,0.314-0.22,0.775-0.035,1.385l-0.641,0.32
		c-0.15-0.472-0.206-0.917-0.169-1.332c0.037-0.416,0.23-0.782,0.58-1.103c0.35-0.319,0.718-0.515,1.104-0.585
		c0.386-0.071,0.74-0.006,1.064,0.194c0.324,0.201,0.568,0.502,0.729,0.901c0.162,0.4,0.135,0.874-0.082,1.421
		c0.388-0.09,0.754-0.064,1.098,0.074c0.344,0.138,0.639,0.433,0.887,0.883c0.248,0.452,0.306,0.92,0.173,1.404
		c-0.133,0.485-0.404,0.868-0.813,1.15c-0.409,0.283-0.851,0.409-1.324,0.382C112.006,133.729,111.558,133.513,111.135,133.108z"/>
</g>
<g>
	<path fill="#FF0000" d="M116.692,127.963c-0.198-0.243-0.332-0.531-0.4-0.864c-0.068-0.331-0.02-0.685,0.149-1.059
		c-0.359,0.057-0.65,0.032-0.871-0.074c-0.222-0.106-0.429-0.266-0.621-0.481c-0.192-0.215-0.318-0.432-0.38-0.652
		c-0.062-0.22-0.079-0.459-0.053-0.717c0.025-0.257,0.104-0.482,0.235-0.674c0.132-0.189,0.299-0.369,0.501-0.535
		c0.203-0.165,0.402-0.293,0.598-0.386c0.195-0.091,0.438-0.146,0.728-0.163c0.29-0.017,0.574,0.063,0.854,0.24
		c0.28,0.179,0.507,0.465,0.68,0.865c0.175,0.398,0.142,0.846-0.094,1.343c0.427-0.18,0.799-0.221,1.114-0.124
		c0.315,0.098,0.598,0.298,0.846,0.602s0.4,0.585,0.458,0.842s0.08,0.492,0.068,0.705c-0.013,0.213-0.086,0.433-0.221,0.66
		c-0.135,0.229-0.351,0.462-0.644,0.701c-0.295,0.24-0.576,0.412-0.847,0.515c-0.271,0.103-0.535,0.143-0.793,0.115
		c-0.258-0.026-0.49-0.114-0.698-0.267C117.094,128.404,116.891,128.206,116.692,127.963z M115.462,124.964
		c0.166,0.203,0.394,0.339,0.685,0.404c0.291,0.067,0.589-0.023,0.893-0.271c0.305-0.248,0.458-0.525,0.461-0.832
		c0.004-0.306-0.104-0.582-0.32-0.827s-0.461-0.358-0.732-0.34c-0.272,0.019-0.546,0.159-0.824,0.418
		c-0.277,0.26-0.414,0.517-0.412,0.769C115.213,124.534,115.298,124.762,115.462,124.964z M117.291,127.424
		c0.188,0.252,0.402,0.431,0.643,0.539s0.503,0.089,0.787-0.06c0.285-0.146,0.534-0.359,0.748-0.636
		c0.214-0.275,0.28-0.564,0.2-0.871c-0.081-0.307-0.227-0.559-0.439-0.757c-0.212-0.198-0.492-0.282-0.839-0.253
		c-0.348,0.03-0.645,0.163-0.891,0.398c-0.247,0.235-0.392,0.505-0.432,0.807C117.028,126.895,117.103,127.172,117.291,127.424z"/>
</g>
</svg>
