<?xml version="1.0" encoding="utf-8"?>
<!-- Generator: Adobe Illustrator 15.0.0, SVG Export Plug-In . SVG Version: 6.00 Build 0)  -->
<!DOCTYPE svg PUBLIC "-//W3C//DTD SVG 1.1//EN" "http://www.w3.org/Graphics/SVG/1.1/DTD/svg11.dtd">
<svg version="1.1" id="图层_1" xmlns="http://www.w3.org/2000/svg" xmlns:xlink="http://www.w3.org/1999/xlink" x="0px" y="0px"
	 width="154px" height="154px" viewBox="0 0 154 154" enable-background="new 0 0 154 154" xml:space="preserve">
<circle fill="none" stroke="#FF0000" stroke-width="3.5" stroke-miterlimit="10" cx="76.888" cy="76.891" r="75.112"/>
<polygon fill="#FF0000" points="95.85,92.453 78.633,84.395 66.347,98.051 67.693,80.174 52.269,71.951 69.002,68.194 
	71.561,50.595 80.776,65.729 97.779,62.339 86.773,75.744 "/>
<g>
	<path fill="#FF0000" d="M26.185,120.537l0.659-2.624l0.081-0.087l6.295,5.877l0.847,0.305l-0.375,1.107l-5.69-5.312L26.185,120.537
		z M35.522,113.059l-0.889,0.951l3.021,2.82l0.646-0.691c0.539-0.04,0.941,0.068,1.209,0.318l-5.432,5.618
		c0.014-0.419-0.002-0.973-0.049-1.664l-2.669-2.491c-0.033-0.031-0.278,0.063-0.736,0.284c-0.281,0.167-0.44,0.237-0.474,0.204
		c-0.019,0.089-0.025-0.509-0.017-1.798c0.108-0.116,0.397-0.223,0.867-0.323l0.263-0.079c0.249-0.2,0.814-0.806,1.696-1.817
		c0.539-0.578,0.981-1.083,1.323-1.519C34.996,112.782,35.409,112.844,35.522,113.059z M31.645,117.212l2.769,2.586
		c0.256,0.13,0.476,0.063,0.656-0.198l2.101-2.249l-3.022-2.822L31.645,117.212z M34.452,129.55l-0.212,0.126
		c0.232-2.268,0.474-3.501,0.722-3.699c0.506-0.608,1.081-0.99,1.726-1.143c0.592-0.095,0.636,0.161,0.13,0.77
		C35.935,126.615,35.146,127.932,34.452,129.55z M44.624,101.794l-1.616,1.73l4.684,4.373l1.374-1.472
		c0.33-0.016,0.759,0.061,1.29,0.232l-9.765,10.158c-0.053,0.058-0.049-0.316,0.012-1.123c-0.013-0.12-0.043-0.257-0.09-0.407
		l-4.431-4.137c0.054-0.059-0.148,0.023-0.605,0.244c-0.369,0.193-0.571,0.276-0.605,0.245c0.204-1.431,0.317-2.189,0.336-2.278
		c0.055-0.059,0.246-0.095,0.575-0.111c0.418-0.043,0.608-0.08,0.575-0.111c0.788-0.777,1.892-1.958,3.312-3.548
		c0.862-0.925,2.111-2.295,3.746-4.115C44.053,101.533,44.457,101.637,44.624,101.794z M49.716,117.237l-0.142,0.354
		c-3.88,1.127-7.748,2.915-11.604,5.363l2.367,2.209l0.847,0.305l-0.475,1.015l-3.173-2.961c-0.033-0.031-0.278,0.063-0.736,0.283
		c-0.262,0.079-0.437,0.132-0.524,0.158c0.137-1.492,0.222-2.222,0.255-2.191c0.088-0.026,0.209-0.021,0.363,0.015
		c0.31,0.072,0.666,0.028,1.069-0.136c0.143-0.084,0.257-0.139,0.343-0.164c1.306-0.726,2.432-1.295,3.38-1.703
		c0.015-0.42-0.008-0.765-0.068-1.037c-0.159-0.906-0.193-1.477-0.099-1.712c0.298-0.588,0.815-1.076,1.555-1.464
		c0.491-0.188,0.535,0.067,0.13,0.77c-0.741,1.467-1.076,2.397-1.002,2.789c1.866-1.931,3.471-3.617,4.817-5.059
		c1.811-1.872,3.443-3.589,4.898-5.146c0.33-0.016,0.786,0.033,1.371,0.146c-2.671,2.795-4.699,4.899-6.079,6.31
		c-1.271,1.297-2.394,2.465-3.363,3.502c0.875-0.264,1.574-0.475,2.099-0.632C47.153,117.761,48.412,117.421,49.716,117.237z
		 M36.465,110.536l2.014,1.879l2.747-2.942l-2.015-1.88L36.465,110.536z M39.234,113.121l1.51,1.41
		c0.283,0.37,0.632,0.266,1.049-0.316l2.101-2.251l-1.914-1.786L39.234,113.121z M41.629,109.04l3.07-3.288l-2.014-1.881
		l-3.07,3.289L41.629,109.04z M44.298,111.531l3.07-3.288l-1.914-1.786l-3.07,3.288L44.298,111.531z"/>
	<path fill="#FF0000" d="M15.667,101.503l1.842-0.81l-0.997-2.27c0.073-0.032-0.145-0.037-0.653-0.015
		c-0.417,0.032-0.634,0.028-0.653-0.014c0.285-0.727,0.587-1.312,0.91-1.755c0.072-0.032,0.208-0.018,0.408,0.047
		c0.363,0.041,0.581,0.045,0.653,0.014l2.276-1.001l-0.222-0.504l-1.578-0.059l1.235-1.897l0.217-0.097l0.998,2.271l3.686-1.621
		c0.672,0.156,0.992,0.393,0.958,0.709l-0.759,0.333l1.109,2.523l3.035-1.335l-0.915-2.081l-1.497-0.17l0.991-1.864l0.352-0.081
		l1.72,3.911L31.6,94.5l-1.469-3.342l-1.441-0.043l1.071-1.977l0.217-0.096l2.273,5.171l4.011-1.763
		c0.309,0.116,0.627,0.354,0.958,0.708l-4.553,2.001l1.386,3.153l0.358,0.521l-0.593,0.711l-1.802-4.099l-2.818,1.238l0.97,2.208
		l0.358,0.52l-0.62,0.648l-1.358-3.091l-3.034,1.335l0.914,2.081l0.305,0.693l-0.54,0.538l-1.33-3.026l-2.818,1.239l1.275,2.899
		l0.44,0.71l-0.62,0.647l-1.747-3.973l-2.818,1.239l0.942,2.144l0.438,0.41l-0.701,0.759l-1.331-3.026
		c-0.434,0.189-1.806,0.793-4.118,1.811c0.154-1.222,0.258-1.869,0.311-1.942c0.072-0.033,0.209-0.017,0.408,0.046
		C15.069,101.616,15.45,101.599,15.667,101.503z M17.051,97.885l1.109,2.522l2.818-1.237l-1.108-2.524L17.051,97.885z
		 M28.448,104.689l-0.638-1.45l-0.544-0.062c-0.507,0.023-0.779-0.008-0.817-0.094c0.267-0.569,0.661-1.143,1.183-1.723
		c0.073-0.033,0.219,0.005,0.436,0.109c0.238,0.146,0.428,0.188,0.572,0.124c3.979-1.347,6.692-2.038,8.142-2.072
		c1.274-1.615,1.64-3.229,1.102-4.85c-0.269-1.788-1.441-4.457-3.52-8.009l0.353-0.08c0.367,0.642,1.149,0.85,2.344,0.626
		c1.461,3.321,2.259,5.829,2.401,7.521c0.122,1.653-0.409,3.189-1.593,4.613c2.211,0.132,4.164,0.553,5.857,1.263l-0.298,0.207
		c-2.145-0.563-4.222-0.778-6.233-0.647c-1.835,1.71-3.6,3.087-5.296,4.133l-0.11-0.25c1.299-0.772,2.703-1.991,4.212-3.658
		c-2.334,0.574-4.865,1.387-7.595,2.436l0.665,1.513c0.11,0.054,0.383,0.085,0.817,0.093l0.436,0.109
		c-0.051,0.275-0.474,0.785-1.266,1.534c-0.071,0.032-0.171,0.001-0.3-0.093c-0.146-0.137-0.309-0.216-0.492-0.236
		c-1.214-0.018-3.688,0.142-7.42,0.478l1.109,2.522l0.494,0.536l-0.729,0.696l-1.497-3.405c-0.018-0.042-0.272-0.031-0.761,0.033
		c-0.325,0.042-0.498,0.044-0.517,0.001c0.465-0.905,0.876-1.538,1.235-1.897c0.091,0.011,0.236,0.047,0.436,0.109
		c0.365,0.242,0.666,0.336,0.9,0.282c0.254-0.011,0.717-0.039,1.386-0.083C23.918,104.976,25.767,104.864,28.448,104.689z
		 M20.52,96.361l1.108,2.522l2.818-1.239l-1.108-2.522L20.52,96.361z"/>
	<path fill="#FF0000" d="M16.003,77.655l-0.046-4.615c0.079,0-0.159-0.137-0.715-0.406c-0.476-0.225-0.714-0.359-0.714-0.405
		c0.705-0.513,1.452-0.979,2.236-1.4c0.08,0.046,0.16,0.113,0.238,0.204c0.399,0.318,0.638,0.476,0.715,0.475l8.76-0.155
		c0.478,0.364,0.719,0.751,0.722,1.164l-2.249,0.022L25,77.565l11.247-0.111c0.555,0.408,0.876,0.842,0.96,1.299l-12.195-0.016
		l0.046,4.614l1.894-0.019c0.238,0.182,0.479,0.594,0.723,1.233c-3.156-0.015-7.459-0.018-12.906-0.01
		c-0.001-0.092,0.429-0.579,1.288-1.46l-0.043-4.271l-6.866,0.069c0.464-0.97,0.813-1.594,1.047-1.871
		c0.16,0.045,0.397,0.18,0.715,0.405l0.476,0.271L16.003,77.655z M16.713,77.648l7.577-0.074l-0.049-5.03l-7.577,0.076
		L16.713,77.648z M16.725,78.819l0.038,3.857c-0.072,0.598,0.363,0.847,1.31,0.744l6.275-0.062l-0.045-4.615L16.725,78.819z"/>
	<path fill="#FF0000" d="M12.28,56.619l2-1.107c0.074,0.029,0.121,0.124,0.139,0.281c0.151,0.461,0.3,0.722,0.445,0.78l4.373,1.818
		l0.449-1.082l-1.349-1.381l2.58-0.345l0.192,0.155l-1.216,2.926l4.373,1.817l-0.96-2.936l0.355,0.073l1.698,3.316
		c7.07,2.938,10.859,4.514,11.37,4.727c0.568,0.484,0.93,1.257,1.088,2.316c-0.018,0.043-0.1,0.033-0.245-0.026
		c-1.111-0.412-2.123-0.137-3.036,0.826l-0.328-0.136c0.767-1.024,1.139-1.814,1.114-2.372c-0.13-0.104-1.431-0.67-3.909-1.7
		c-1.239-0.514-2.953-1.227-5.139-2.135c0.521,1.013,0.956,1.814,1.307,2.408c0.334,0.636,0.465,0.938,0.392,0.909
		c-0.867,0.236-1.529,0.284-1.983,0.145c-0.082-0.829-0.498-2.195-1.246-4.099l-5.248-2.182l-0.819,1.972l0.063,0.773l-1.116-0.092
		l1.217-2.926L12.28,56.619z M25.024,48.787l1.546-0.326c0.591,0.842,0.521,1.833-0.209,2.972c-0.589,0.799-1.357,1.002-2.305,0.607
		c-0.601-0.2-1.41-0.512-2.432-0.936c-0.509-0.212-1.057-0.439-1.64-0.682c-0.657-0.273-1.267-0.551-1.833-0.837l-0.898,2.163
		c-0.142,0.34,0.089,0.609,0.689,0.809c3.043,1.314,5.023,2.413,5.94,3.29c1.209,1.001,2.124,2.401,2.743,4.198l-0.355-0.072
		c-1.116-2.453-4.305-4.649-9.57-6.588c-0.438-0.183-0.875-0.364-1.312-0.546l1.105-0.81l1.057-2.544
		c-0.366-0.352-0.733-0.703-1.1-1.054c0.234-0.151,0.958-0.348,2.168-0.592c0.074,0.031,0.175,0.198,0.306,0.501
		c0.187,0.376,0.316,0.578,0.388,0.608c0.711,0.346,1.359,0.64,1.942,0.881c0.656,0.273,1.167,0.484,1.53,0.637
		c0.892,0.322,1.384,0.477,1.474,0.464C25.275,50.757,25.528,50.04,25.024,48.787z M40.534,54.04l0.219,0.092
		c-0.317,0.763-0.082,1.531,0.707,2.307l0.192,0.155c-1.533,0.807-3.381,1.455-5.552,1.944c1.648,3.023,2.424,5.683,2.325,7.979
		l-0.464-0.118c-0.638-3.199-1.737-5.795-3.302-7.787c-2.156,0.049-4.772-0.343-7.846-1.173l0.143,0.581l-1.037-0.281l1.85-4.453
		c0.018-0.042-0.157-0.239-0.523-0.591c-0.368-0.35-0.542-0.548-0.524-0.59c1.339-0.339,2.125-0.485,2.36-0.437
		c0.074,0.03,0.092,0.088,0.057,0.173c0.095,0.389,0.308,0.7,0.636,0.937c2.453,1.914,4.249,3.457,5.386,4.624
		C37.443,57.058,39.233,55.937,40.534,54.04z M28.396,53.322l-1.533,3.688c2.31,0.612,4.651,0.84,7.025,0.683
		C32.712,56.409,30.881,54.951,28.396,53.322z"/>
	<path fill="#FF0000" d="M29.712,31.218l2.25,0.602l0.119,0.217l-5.471,5.439l-0.468,0.8l-1.01-0.331l5.129-5.101L29.712,31.218z
		 M31.254,34.526l1.833,0.182c0.079,0.146,0.12,0.382,0.124,0.712l0.021,0.313l2.887,2.807c0.139,0.529,0.05,0.896-0.266,1.1
		l-0.668-0.672L32.84,41.3l0.835,0.839c0.084,0.475-0.05,0.829-0.399,1.064l-5.162-5.387l1.366-0.188l2.052-2.04
		c0.056,0.056-0.014-0.209-0.208-0.795C31.301,34.706,31.277,34.616,31.254,34.526z M32.179,35.946l-1.954,1.942
		c-0.38,0.269-0.317,0.594,0.194,0.977l1.92,1.93l2.345-2.331L32.179,35.946z M31.661,27.61l1.792-0.445l0.084,0.083l0.214,1.29
		l3.673,3.694l1.075-1.068l-0.542-1.132l1.965,0.217l0.179,1.157l6.394,6.332c0.171,0.499,0.083,0.864-0.266,1.101l-1.001-1.008
		l-1.124,1.117l5.342,5.373l1.048-1.877c-1.15-0.634-1.958-1.058-2.423-1.265c-0.143-0.079-0.243-0.146-0.298-0.202l-0.021-0.314
		c2.084,0.6,3.531,1.108,4.338,1.53c0.599,0.405,1.034,0.976,1.308,1.705c0.161,0.618-0.057,0.725-0.655,0.317
		c-0.2-0.136-0.412-0.316-0.633-0.538c-0.534-0.472-0.93-0.803-1.184-0.994c-1.156,2.485-1.83,4.38-2.021,5.684l-0.015,0.181
		l-1.677-1.002l1.732-2.558l-5.427-5.457l-1.025,1.021l1.001,1.007c0.236,0.433,0.147,0.8-0.266,1.1
		c-3.395-3.413-6.4-6.435-9.017-9.066l1.797,0.049l0.831-0.826L31.661,27.61z M37.296,39.039l1.964,0.218l0.047,1.121l7.812,7.759
		c0.514,0.713,0.648,1.468,0.407,2.267c-0.878-0.688-1.676-0.839-2.396-0.456l-0.25-0.252c1.035-0.586,1.404-1.062,1.104-1.431
		l-3.256-3.274l-1.758,1.749l3.59,3.609c0.17,0.498,0.126,0.877-0.134,1.135l-4.042-4.161l-0.684,0.68l-0.336,0.835l-0.996-0.513
		l1.856-1.847c-0.764-1.354-1.705-2.755-2.823-4.204l1.7,0.145c0.023,0.089,0.018,0.149-0.014,0.181
		c-0.074,0.188-0.049,0.44,0.075,0.762c0.023,0.089,0.165,0.395,0.424,0.914c0.203,0.465,0.497,1.119,0.882,1.961l0.732-0.729
		l-0.193-0.977l1.553,0.292l-4.257-4.281l-3.566,3.546c-0.359,0.356-0.31,0.699,0.145,1.024l8.599,8.647
		c0.106,0.562,0.044,0.957-0.183,1.183c-4.509-4.532-8.166-8.243-10.972-11.129l1.617,0.062l3.76-3.741L37.296,39.039z
		 M35.817,44.684l-0.035-0.132c0.748,0.035,1.485,0.19,2.215,0.469c0.566,0.439,0.923,0.863,1.071,1.271
		c0.105,0.563-0.08,0.638-0.558,0.222c-0.088-0.022-0.188-0.091-0.3-0.204C37.566,45.728,36.768,45.186,35.817,44.684z
		 M37.339,33.319l-0.684,0.68c-0.348,0.236-0.296,0.518,0.158,0.844l5.177,5.204l1.025-1.02L37.339,33.319z M39.048,31.619
		l-1.124,1.116l5.677,5.709l1.124-1.116L39.048,31.619z"/>
	<path fill="#FF0000" d="M44.228,18.859l0.037-0.271c1.225-0.161,2.105-0.012,2.644,0.45c0.747,0.972,0.957,1.781,0.627,2.429
		c-0.127,0.054-0.367-0.105-0.716-0.474C45.896,19.837,45.032,19.127,44.228,18.859z M48.575,17.839l0.281,0.141
		c0.072,3.555,0.159,5.996,0.256,7.319c-0.037,0.271,0.251,1.094,0.865,2.462c0.331,0.804,0.526,1.277,0.585,1.422
		c-0.07,0.798-0.49,0.801-1.263,0.009c-0.103-0.128-0.226-0.548-0.369-1.257c-0.221-1.018-0.463-1.729-0.729-2.133
		c-0.247-0.238-0.786-0.401-1.615-0.487l-0.117-0.464c0.031,0.073,0.087,0.093,0.173,0.058c1.023-0.166,1.512-0.367,1.465-0.604
		C48.264,22.875,48.42,20.72,48.575,17.839z M51.353,18.614l5.415-2.227c0.042-0.018,0.086-0.334,0.13-0.95
		c0.05-0.361,0.081-0.587,0.094-0.679c1.354,0.639,2.164,1.158,2.43,1.561c0.018,0.164-0.059,0.28-0.229,0.35
		c-0.733,0.388-1.287,1.641-1.657,3.755l-0.281-0.14c-0.005-0.254,0.002-0.598,0.021-1.033c0.024-1.631-0.034-2.375-0.174-2.233
		l-3.95,1.626c0.879,0.323,1.462,0.596,1.751,0.814c0.048,0.238-0.019,0.438-0.202,0.596c2.479,3.249,5.218,4.171,8.215,2.766
		l0.135,0.328c-0.76,0.568-1.086,1.343-0.98,2.322c-2.582,0.126-5.092-1.572-7.534-5.092c0.653,4-0.048,7.062-2.103,9.188
		l0.562,0.281l6.051-2.49c0.042-0.018,0.038-0.272-0.015-0.763c-0.036-0.325-0.032-0.499,0.01-0.517
		c0.358,0.025,0.978,0.324,1.86,0.898c0.061,0.147-0.007,0.346-0.202,0.596l-0.037,0.271l2.407,5.668
		c-0.16,0.578-0.437,0.991-0.832,1.236l-2.839-6.896l-6.051,2.49c-0.14,0.144-0.165,0.324-0.075,0.543l2.595,6.486
		c-0.245,0.612-0.516,0.98-0.812,1.103l-3.188-8.29c-0.408,0.34-0.891,0.795-1.45,1.365c-0.128,0.052-0.213,0.087-0.255,0.104
		L49.92,31.24c3.718-3.15,4.732-7.325,3.041-12.519l-1.593,0.655c-0.02,2.485-0.117,4.36-0.292,5.625l-0.345-0.113
		c0.09-3.28-0.26-6.424-1.049-9.427c1.247,0.255,1.907,0.412,1.979,0.467c0.06,0.146-0.015,0.389-0.221,0.73
		c-0.11,0.217-0.172,0.37-0.184,0.459c0.005,0.254,0.01,0.508,0.016,0.762C51.308,18.208,51.335,18.453,51.353,18.614z
		 M54.454,44.61l-0.244-0.412c2.14-2.161,3.322-4.056,3.545-5.684c0.279-1.735-0.318-4.393-1.791-7.97
		c1.114,0.054,1.817,0.192,2.106,0.413c-0.012,0.091-0.045,0.19-0.101,0.298c-0.25,0.359-0.268,0.795-0.059,1.305
		C59.899,37.632,58.746,41.646,54.454,44.61z M59.654,36.068l-0.136-0.328c2.224-0.147,4.173-0.055,5.851,0.28
		c1.227,0.688,1.748,1.713,1.562,3.069c-0.086,0.036-0.289-0.095-0.607-0.391C64.584,37.367,62.36,36.49,59.654,36.068z"/>
	<path fill="#FF0000" d="M70.675,10.35l1.882,1.148c-0.043,0.159-0.312,0.559-0.804,1.199l0.088,4.735l1.102-0.021l0.727-1.671
		l1.281,2.226l0.002,0.118l-3.099,0.059l0.106,5.683l2.783-2.185l0.216,0.47l-2.971,3.253l0.183,9.825
		c-0.017,1.578-0.526,2.653-1.524,3.226c-0.046,0.001-0.094-0.117-0.145-0.353c-0.115-1.182-0.726-1.96-1.834-2.333l-0.006-0.355
		c1.708,0.519,2.532,0.347,2.47-0.521l-0.161-8.642c-0.946,0.966-1.577,1.687-1.889,2.167c-0.316,0.322-0.474,0.443-0.476,0.363
		c-0.233-0.152-0.474-0.777-0.724-1.881c-0.046,0.002,0.158-0.16,0.611-0.485c0.954-0.568,1.77-1.176,2.446-1.82l-0.119-6.394
		l-1.653,0.031l-0.891,0.254l-0.293-0.942l2.824-0.052L70.675,10.35z M83.106,34.155l1.418,2.105l0.002,0.118l-10.537,0.195
		c-0.093,0.003-0.344,0.047-0.756,0.134l-0.427-0.703l9.436-0.176L83.106,34.155z M81.564,32.764l-0.055-2.96l-4.683,0.088
		l-0.02,2.605c-0.269,0.4-0.632,0.684-1.087,0.849c-0.085-9.471-0.147-16.495-0.186-21.074l1.406,1.513l3.857-0.071
		c0.045-0.001,0.2-0.319,0.465-0.956c0.13-0.396,0.217-0.597,0.264-0.598c0.002,0.08,0.097,0.235,0.284,0.469
		c0.608,0.621,1.008,1.088,1.197,1.399c0.003,0.158-0.154,0.397-0.469,0.719l-0.2,0.358c0.106,5.683,0.232,11.246,0.381,16.69
		c-0.046,0.08-0.09,0.16-0.134,0.239C82.134,32.517,81.795,32.759,81.564,32.764z M76.701,15.803l0.038,5.683l4.614-0.086
		l-0.131-6.983l-3.856,0.071C76.813,14.42,76.592,14.857,76.701,15.803z M81.366,22.11l-4.683,0.087l0.061,6.985l4.752-0.089
		L81.366,22.11z"/>
	<path fill="#FF0000" d="M96.281,29.659L93.332,28.5l-0.685-0.142l0.047-0.872l4.937,1.94l1.559-3.967l-1.987-0.781l-0.347,0.881
		c-0.771,0.206-1.207,0.248-1.306,0.123c0.433-1.102,1.868-4.565,4.306-10.393c0.283,0.536,0.537,1.019,0.766,1.445l4.487,1.764
		c-0.029,0.073,0.128-0.077,0.473-0.449c0.314-0.3,0.494-0.442,0.537-0.426c0.226,0.428,0.394,1.131,0.504,2.106
		c-0.101,0.132-0.301,0.263-0.601,0.4l-0.279,0.145l-2.794,7.298c-0.516,0.305-0.944,0.392-1.286,0.258l0.477-1.213l-1.987-0.78
		l-1.559,3.967l3.205,1.26l1.247-1.291l0.523,2.623l-0.043,0.109l-4.68-1.839c-0.803,3.672-0.117,6.823,2.055,9.458l-0.086,0.221
		c-0.713-0.195-1.327-0.14-1.842,0.166l-0.043,0.111c-1.23-2.519-1.387-5.888-0.469-10.106l-0.129-0.051l-4.33,11.02
		c-0.415,0.175-0.893,0.199-1.435,0.071l4.544-10.809c-3.614,3.923-6.75,6.253-9.408,6.988l-0.39,0.993
		c-0.458,0.157-0.893,0.199-1.307,0.123c1.038-2.393,3.347-8.014,6.926-16.87c-1.951,2.203-3.585,3.851-4.903,4.943l-0.084-0.161
		c4.115-4.573,7.419-9.212,9.909-13.915c0.736,1.139,1.098,1.789,1.083,1.952c-0.058,0.148-0.15,0.195-0.279,0.146
		c-0.386,0.103-0.723,0.396-1.01,0.874c-0.963,1.319-2.01,2.73-3.145,4.234c0.254,0.609,0.408,0.969,0.467,1.074
		c-0.029,0.074-0.102,0.131-0.215,0.17c-0.416,0.177-0.688,0.494-0.818,0.951c-0.202,0.515-0.671,1.644-1.406,3.391
		c-1.834,4.538-3.35,8.395-4.547,11.569C90.457,36.064,93.224,33.546,96.281,29.659z M105.041,19.236l-4.553-1.789
		c-0.343-0.136-0.557,0.034-0.645,0.51l-2.381,6.061l4.936,1.94L105.041,19.236z"/>
	<path fill="#FF0000" d="M119.48,31.726l4.311,4.063l2.163-0.889l-0.714,3.067l-0.082,0.087l-6.315-5.954
		c-1.31,0.719-2.794,1.49-4.451,2.313l4.009,3.779c0.034,0.031,0.438-0.13,1.214-0.484c0.175-0.051,0.306-0.089,0.395-0.116
		c-0.005,0.54-0.087,1.329-0.247,2.371c-0.109,0.116-0.328,0.18-0.656,0.194c-0.297,0.046-0.5,0.127-0.607,0.241
		c-3.735,3.964-6.725,7.167-8.965,9.609c-0.182,0.261-0.301,0.422-0.355,0.479c-0.717,0.626-1.665,0.763-2.846,0.408
		c-0.034-0.031,0.004-0.104,0.111-0.219c0.778-0.894,0.83-1.984,0.152-3.274l0.293-0.211c0.773,1.054,1.243,1.659,1.411,1.817
		c0.2,0.189,0.437,0.141,0.707-0.146l3.005-3.188l-4.311-4.063l-4.387,4.652c-0.438,0.129-0.955,0.075-1.551-0.161l10.383-10.714
		c-2.603,1.02-5.352,1.627-8.25,1.822l0.012-0.312c4.767-1.039,9.442-2.922,14.032-5.647l-3.559-3.354l-0.945-0.403l0.48-1.012
		l4.661,4.395c1.242-0.781,2.673-1.765,4.294-2.948c0.206,1.389,0.271,2.155,0.198,2.301c-0.089,0.026-0.21,0.021-0.363-0.017
		c-0.363-0.017-0.643,0.045-0.839,0.187c-0.176,0.052-0.432,0.189-0.769,0.414C120.761,31.036,120.222,31.342,119.48,31.726z
		 M115.098,42.4l-4.311-4.063l-2.599,2.757l4.31,4.064L115.098,42.4z M113.305,35.666l-2.111,2.24l4.311,4.062l2.761-2.927
		l-3.81-3.592C114.107,35.016,113.725,35.086,113.305,35.666z"/>
	<path fill="#FF0000" d="M135.264,46.718l0.793,1.909c-0.072,0.03,0.189,0.044,0.789,0.046c0.508-0.014,0.77,0.002,0.788,0.045
		c-0.48,0.696-0.941,1.334-1.383,1.918c-0.073,0.029-0.183-0.025-0.324-0.164c-0.397-0.133-0.634-0.185-0.706-0.154
		c-0.508,0.011-1.387,0.055-2.639,0.127c-1.852,0.073-3.23,0.149-4.137,0.229c-1.15,2.168-2.683,3.725-4.598,4.67
		c-2.662,1.206-4.557,1.174-5.683-0.1c-0.018-0.042,0.045-0.093,0.192-0.153c0.893-0.521,1.464-1.206,1.71-2.055l0.245-0.028
		c-0.073,0.031-0.101,0.067-0.083,0.11c-0.013,1,0.172,1.545,0.552,1.636c2.007,0.51,4.473-0.964,7.396-4.418l7.277-1.309
		l-0.793-1.908c-0.142-0.34-0.413-0.376-0.815-0.108l-21.537,8.952c-0.561-0.115-1.038-0.34-1.434-0.673l25.281-10.435
		C135.971,45.231,135.674,45.852,135.264,46.718z M128.049,61.132l0.875-0.363l-1.19-2.862c-1.88,1.028-3.426,2.144-4.636,3.344
		c1.354,0.381,3.255,0.735,5.698,1.063c-0.442,0.581-0.885,1.161-1.325,1.745c-0.074,0.029-0.174-0.004-0.299-0.102
		c-0.088-0.212-0.294-0.399-0.619-0.562c-0.884-0.479-1.748-0.914-2.595-1.309c-0.542-0.272-0.929-0.485-1.161-0.636
		c-1.911,1.987-2.981,4.348-3.213,7.079l-0.109,0.046c-0.316-0.765-0.918-1.185-1.807-1.264c-0.09-0.013-0.172-0.004-0.245,0.027
		c1.442-3.933,4.827-7.204,10.152-9.815l-0.556-1.335l-10.714,4.453l3.407,1.718l-0.385,0.309c-3.433-1.061-5.312-1.571-5.639-1.536
		l-0.245,0.028c0.369-0.553,0.757-1.062,1.16-1.526c0.073-0.031,0.155-0.041,0.245-0.027c0.506,0.187,0.94,0.205,1.305,0.054
		l22.193-9.226l-0.418,0.846c-0.352,0.595-0.483,0.896-0.393,0.908l1.667,4.007c0.017,0.043,0.524,0.031,1.522-0.035
		c-0.056,0.071-0.373,0.751-0.948,2.035c-0.073,0.03-0.31-0.021-0.705-0.154c-0.472-0.103-0.696-0.134-0.679-0.092
		c-2.68,1.163-5.724,2.479-9.131,3.945C128.668,61.694,128.262,61.44,128.049,61.132z M133.844,58.724l-1.904-4.581l-4.264,1.772
		l1.903,4.58L133.844,58.724z M138.653,56.723l-1.692-4.069c-0.158-0.383-0.484-0.447-0.977-0.192l-3.389,1.409l1.903,4.58
		L138.653,56.723z"/>
	<path fill="#FF0000" d="M119.606,72.242l0.146,8.612c2.534-0.848,4.438-1.654,5.709-2.42l0.234,0.209
		c-1.671,1.36-3.46,2.534-5.364,3.525c-2.061,0.76-3.4,0.607-4.021-0.455c0.002-0.138,0.438-0.271,1.307-0.399
		c0.712-0.13,1.266-0.24,1.661-0.327c-1.039-6.304-1.677-9.456-1.914-9.458l-0.116-0.207c1.03-0.358,1.823-0.578,2.375-0.664
		l-0.001,0.137c-0.006,0.552,0.54,1.084,1.641,1.602c4.32,1.882,8.293,3.209,11.917,3.982c-1.195,1.09-1.873,1.635-2.03,1.633
		c-0.079-0.047-0.117-0.117-0.116-0.209c-0.076-0.368-0.389-0.647-0.938-0.837C127.186,75.88,123.688,74.305,119.606,72.242z
		 M127.338,68.879l0.357-0.204c4.549,2.711,9.778,4.673,15.686,5.883c-0.478,0.408-0.877,0.725-1.193,0.952
		c-0.479,0.499-0.76,0.75-0.837,0.749c-0.079-0.047-0.158-0.141-0.233-0.279c-0.233-0.415-0.508-0.671-0.821-0.766
		C134.708,73.455,130.391,71.344,127.338,68.879z M130.596,85.651l-0.354-0.072c-0.149-0.874-0.575-1.521-1.281-1.941
		c2.792-2.864,7.862-4.649,15.211-5.352c-0.161,0.181-0.281,0.364-0.36,0.547c-0.482,0.821-0.764,1.187-0.841,1.094
		c-0.079-0.002-0.235-0.096-0.471-0.281c-0.313-0.233-0.511-0.327-0.589-0.282C136.298,80.039,132.527,82.136,130.596,85.651z"/>
	<path fill="#FF0000" d="M115.647,94.431l0.437,0.184c-1.436,2.187-1.818,3.295-1.146,3.329c7.873,3.27,14.437,5.986,19.691,8.152
		l3.906-9.268l0.023-0.662l0.924-0.061l-4.201,9.967c-0.074-0.032,0.101,0.166,0.521,0.593c0.438,0.383,0.647,0.597,0.63,0.639
		c-0.668,0.366-1.438,0.564-2.307,0.597c-0.074-0.03-0.174-0.198-0.303-0.501c-0.203-0.335-0.341-0.517-0.412-0.547
		c-12.69-5.25-19.229-7.932-19.609-8.042c-1.108-0.617-1.66-1.648-1.652-3.089C113.495,96.388,114.662,95.959,115.647,94.431z
		 M125.765,98.472l-6.791-2.789c-0.239-0.449-0.351-0.895-0.335-1.336l1.964,0.827l1.766-4.188l-3.054-1.289
		c-0.223-0.691-0.29-1.145-0.2-1.354l11.756,5.03l-1.817,0.654l-1.605,3.809c-0.018,0.041,0.174,0.197,0.574,0.467
		c0.383,0.311,0.601,0.502,0.656,0.576c-0.904,0.315-1.637,0.53-2.199,0.643c-0.072-0.031-0.21-0.214-0.411-0.547
		C125.883,98.597,125.783,98.429,125.765,98.472z M126.712,97.75l1.659-3.937c0.089-0.212-0.021-0.358-0.329-0.437l-5.019-2.116
		l-1.767,4.188L126.712,97.75z M132.697,102.142l-2.607,0.396l-0.109-0.047l3.88-9.203l-0.113-0.646l1.034-0.013l-3.372,7.997
		L132.697,102.142z"/>
</g>
</svg>
