<?xml version="1.0" encoding="utf-8"?>
<!-- Generator: Adobe Illustrator 14.0.0, SVG Export Plug-In . SVG Version: 6.00 Build 43363)  -->
<!DOCTYPE svg PUBLIC "-//W3C//DTD SVG 1.1//EN" "http://www.w3.org/Graphics/SVG/1.1/DTD/svg11.dtd">
<svg version="1.1" id="图层_1" xmlns="http://www.w3.org/2000/svg" xmlns:xlink="http://www.w3.org/1999/xlink" x="0px" y="0px"
	 width="154px" height="154px" viewBox="0 0 154 154" enable-background="new 0 0 154 154" xml:space="preserve">
<circle fill="none" stroke="#FF0000" stroke-width="3.5" cx="76.993" cy="77.764" r="74.25"/>
<polygon fill="#FF0000" points="93.811,99.603 78.546,88.141 63.653,99.034 68.659,81.737 55.184,70.474 72.409,70.224 
	78.546,53.449 84.492,70.224 101.908,70.392 88.325,81.308 "/>
<g>
	<path fill="#FF0000" d="M34.331,113.56c-1.416,0.103-2.55,0.387-3.4,0.854l-0.126-0.269l1.437-2.024
		c0.259,0.271,1.085,0.434,2.476,0.485c1.392,0.052,3.276,0.325,5.651,0.819l-0.276,0.524
		C37.668,113.588,35.749,113.457,34.331,113.56z M42.729,105.453c-0.304-0.227-0.716-0.566-1.237-1.021
		c-0.52-0.454-0.879-0.671-1.08-0.653c-0.199,0.018-1.357,0.954-3.476,2.809l-0.324-0.338l3.403-4.037l0.266,0.006
		c1.481,1.004,2.568,1.868,3.259,2.59l1.815,1.896c0.772,1.077,0.727,2.115-0.135,3.113l-11.444,10.957
		c-0.677,0.647-1.268,1.43-1.775,2.348l-0.324-0.338l0.45-2.378c0.4-0.124,0.747-0.304,1.04-0.541
		c0.293-0.235,4.051-3.813,11.274-10.728c0.587-0.563,0.558-1.227-0.09-1.992L42.729,105.453z M35.45,123.066
		c0.356-0.082,0.657-0.219,0.904-0.412c0.249-0.193,2.122-1.965,5.62-5.314c3.499-3.35,5.407-5.176,5.722-5.479
		c0.316-0.303,1.059-0.928,2.229-1.875l0.259,0.271l-0.977,2.233c-0.4,0.124-0.69,0.228-0.869,0.313
		c-0.178,0.085-2.073,1.854-5.686,5.313c-3.611,3.457-5.563,5.326-5.858,5.607c-0.293,0.281-0.759,0.902-1.4,1.859l-0.259-0.271
		L35.45,123.066z M45.786,123.424l-5.015-4.154l0.677-0.648c2.129,1.77,3.234,2.701,3.321,2.791
		c0.087,0.092,0.394,0.229,0.919,0.418L45.786,123.424z M44.97,115.25l0.474-0.453c3.997,1.191,6.459,1.818,7.386,1.884l0.095,1.727
		L44.97,115.25z"/>
</g>
<g>
	<path fill="#FF0000" d="M27.233,107.378l-0.387,1.55c-5.979-9.873-9.033-14.867-9.158-14.979c-0.124-0.112-0.355-0.296-0.689-0.55
		l0.218-1.466l0.252-0.125l8.847,14.559C26.482,106.703,26.789,107.04,27.233,107.378z M19.076,100.581
		c0.157-0.391,0.291-0.648,0.403-0.773c0.113-0.124,0.7-0.171,1.762-0.136l0.207,0.42c-1.039,0.861-1.981,1.987-2.828,3.38
		l-0.334-0.254C18.656,101.851,18.92,100.972,19.076,100.581z M21.096,95.562l0.679-1.38c0.585,0.339,0.991,0.453,1.214,0.343
		c0.225-0.11,1.359-0.565,3.404-1.364l0.456,0.925l-3.572,1.447l4.489,6.776l-0.841,0.414l-4.156-6.313
		C22.575,96.156,22.018,95.875,21.096,95.562z M30.626,100.689c-2.824-4.601-4.39-6.998-4.697-7.196l0.51-1.087l5.028,7.869
		L30.626,100.689z M26.079,103.976l0.68-1.589c2.189-1.357,3.983-2.382,5.384-3.072l0.125,0.252l-1.058,1.671
		c-0.419-0.002-0.67,0.018-0.754,0.06c-0.084,0.041-0.54,0.317-1.368,0.83c-0.827,0.512-1.318,0.824-1.473,0.935
		c-0.153,0.112-0.567,0.473-1.243,1.083L26.079,103.976z M34.898,94.09l-3.616,1.781c-0.728,0.359-1.485,0.873-2.272,1.539
		l-0.293-0.17l0.851-2.092c0.308,0.058,0.608,0.031,0.902-0.078c0.295-0.109,1.984-0.926,5.066-2.444
		c1.092-0.469,2.016-0.715,2.771-0.739l0.082,0.378l-1.663,4.896l-0.377-0.127l0.398-3.646
		C36.132,93.551,35.516,93.785,34.898,94.09z M30.333,93.309l-0.461-0.087c-0.042-2.347-0.02-3.962,0.069-4.842
		s0.176-1.376,0.26-1.487c0.086-0.11,0.659-0.359,1.723-0.744l0.207,0.42C31.283,88.52,30.684,90.768,30.333,93.309z M36.443,98.815
		c1.103,0.467,2.656,1.392,4.659,2.772l-0.337,0.375c-1.95-1.129-3.532-1.899-4.746-2.312c-1.212-0.412-2.198-0.536-2.954-0.374
		l-0.25-0.295l1.519-1.584C34.64,97.875,35.343,98.349,36.443,98.815z"/>
</g>
<g>
	<path fill="#FF0000" d="M25.157,67.313c0.057,1.547,0.101,2.677,0.131,3.392l-0.13,2.935c-0.06,1.364-0.682,2.019-1.87,1.967
		l-7.306-0.324c-0.813,0.024-1.724,0.103-2.731,0.235l0.016-0.355l2.127-1.42c0.177,0.245,0.39,0.404,0.636,0.473
		c0.248,0.071,2.619,0.206,7.114,0.405c0.688,0.03,1.048-0.369,1.085-1.2l0.126-2.846c-0.033-0.654-0.099-1.281-0.198-1.88
		l-3.267-0.412l0.016-0.355L25.157,67.313z M16.737,80.482c-1.299-1.007-2.415-1.621-3.343-1.841l0.016-0.355l2.283-0.701
		c0.16,0.603,0.845,1.419,2.049,2.452c1.207,1.034,2.664,2.747,4.371,5.14l-0.391,0.339C19.701,83.169,18.039,81.491,16.737,80.482z
		 M19.494,73.343c-0.794-1.134-1.431-1.903-1.915-2.313c-0.481-0.407-1.092-0.774-1.828-1.105l0.105-0.263l1.994-0.535
		c0.108,0.421,0.383,0.879,0.831,1.373c0.448,0.496,1.005,1.337,1.671,2.525c0.667,1.188,1.269,2.804,1.803,4.846l-0.382,0.162
		C21.049,76.041,20.288,74.479,19.494,73.343z M21.616,80.521c-1.467-0.064-2.295-0.102-2.482-0.109
		c-0.188-0.009-0.722,0.088-1.607,0.285l0.016-0.355l1.752-1.438c0.359,0.372,0.632,0.563,0.819,0.571
		c0.188,0.008,0.983,0.043,2.389,0.105c1.404,0.063,2.854,0.187,4.347,0.37l-0.016,0.356l-1.725,0.814
		c-0.365-0.253-0.669-0.4-0.919-0.441C23.942,80.64,23.084,80.586,21.616,80.521z M26.02,75.369
		c0.359,0.373,0.665,0.564,0.913,0.575c0.251,0.012,1.438,0.063,3.56,0.158c2.124,0.094,4.12,0.212,5.99,0.354l-0.016,0.355
		l-2.295,0.968c-0.365-0.252-0.638-0.413-0.823-0.481c-0.185-0.066-1.322-0.147-3.415-0.24c-2.091-0.093-3.324-0.147-3.699-0.164
		s-1.13,0.1-2.268,0.346l0.016-0.356L26.02,75.369z M29.739,84.623l-0.988,1.114l-0.777-16.34c0.01-0.236-0.128-0.63-0.418-1.178
		l0.804-1.212l0.379-0.072l0.767,16.607C29.496,83.781,29.573,84.141,29.739,84.623z"/>
</g>
<g>
	<path fill="#FF0000" d="M21.346,58.537c0.48,0.23,1.171,0.725,2.075,1.482l-0.136,0.329l-2.005-0.058
		c-0.617-0.96-1.7-1.857-3.25-2.691l0.17-0.41C19.818,57.857,20.866,58.307,21.346,58.537z M20.673,49.976
		c0.127,0.021,0.498,0.351,1.112,0.989l-0.204,0.494c-1.071-0.186-2.167-0.157-3.282,0.088l-0.157-0.354
		C19.702,50.361,20.546,49.956,20.673,49.976z M24.789,44.308c0.078,0.225,0.713,1.099,1.91,2.619l-0.43,0.304l-2.052-1.907
		l-4.04,12.972l-0.78-0.322l3.802-12.395c0.137-0.33-0.011-0.872-0.443-1.629l1.964-0.825
		C24.689,43.689,24.713,44.084,24.789,44.308z M22.469,57.412l2.23-7.362c0.091-0.219,0.076-0.675-0.044-1.366l1.343-0.795
		l0.173,0.072l-2.366,7.69c-0.068,0.165-0.106,0.503-0.114,1.013L22.469,57.412z M27.873,59.066
		c-0.243-0.229-0.432-0.387-0.565-0.475c-0.132-0.087-0.465-0.225-0.997-0.412c-0.532-0.187-0.88-0.281-1.047-0.288
		c-0.167-0.004-0.557-0.004-1.166-0.001l-0.038-0.399l1.395-0.677c1.894,0.655,3.31,1.24,4.246,1.754l-0.136,0.33L27.873,59.066z
		 M28.474,49.875c0.146,0.06,0.79,0.422,1.935,1.088l-0.374,0.905l-2.064-1.142l-2.026,6.868l-0.78-0.322l1.943-6.421
		c0.056-0.297-0.098-0.746-0.459-1.346l1.516-0.723C28.227,49.453,28.33,49.815,28.474,49.875z M28.717,58.74l-0.678-0.568
		l1.859-5.975c0.09-0.219,0.087-0.701-0.01-1.449l1.414-0.475L28.717,58.74z M35.545,64.065c-0.222-0.284-0.407-0.489-0.557-0.616
		c-0.151-0.125-0.95-0.44-2.4-0.942c-1.448-0.502-2.261-0.79-2.434-0.861c-0.174-0.071-0.865-0.196-2.076-0.376l0.136-0.33
		l1.794-0.414l5.214,1.865l2.739,1.228l-0.136,0.329L35.545,64.065z M37.091,51.605c1.659,0.814,3.077,1.593,4.258,2.336
		l-0.103,0.247l-2.091-0.093c-0.349-0.465-0.595-0.728-0.74-0.787c-0.144-0.06-1.743-0.816-4.793-2.27L30.43,61.47l-0.78-0.321
		l3.008-9.737c0.136-0.329,0.018-0.86-0.356-1.593l1.395-0.676c0.201,0.662,0.402,1.033,0.604,1.117
		C34.503,50.343,35.434,50.792,37.091,51.605z M31.448,56.305l0.374-0.905l5.806,2.398l-0.374,0.905L31.448,56.305z M34.543,54.213
		l1.135-0.784l0.26,0.107l-1.433,5.188c-0.091,0.22-0.141,0.585-0.148,1.095l-1.222,0.747c1.035-3.487,1.563-5.293,1.578-5.416
		C34.731,55.029,34.674,54.717,34.543,54.213z M39.428,53.438l-3.125,10.267l-0.678-0.569l2.195-7.279
		c-0.002-0.321-0.021-0.684-0.059-1.084L39.428,53.438z"/>
</g>
<g>
	<path fill="#FF0000" d="M52.253,38.193l1.528-0.308l0.271,0.297l-8.392,9.425c-0.395,0.36-0.588,0.896-0.577,1.613l-1.334-0.143
		c-0.055-0.674-0.149-1.108-0.285-1.302c-0.135-0.192-1.871-1.939-5.204-5.24c-3.333-3.3-5.134-5.077-5.404-5.33
		c-0.27-0.25-0.942-0.703-2.018-1.352l0.063-0.329l2.668,0.282c0.187,0.558,0.38,0.945,0.583,1.168s3.638,3.68,10.306,10.37
		l6.954-7.567C51.54,39.57,51.822,39.041,52.253,38.193z M33.133,42.729l11.609-12.767c0.174-0.16,0.392-0.583,0.648-1.271
		l1.398-0.053l0.336,0.237L35.582,41.581c-0.263,0.24-0.524,0.66-0.782,1.257L33.133,42.729z M38.805,36.332
		c-2.322-2.413-3.594-3.742-3.82-3.989c-0.225-0.247-0.809-0.667-1.75-1.258l0.195-0.314l2.606,0.612
		c0.277,0.746,0.539,1.23,0.786,1.456c0.249,0.228,1.511,1.524,3.787,3.886s3.934,4.202,4.974,5.517l-0.263,0.24l-1.674-0.646
		c-0.412-0.802-0.741-1.317-0.988-1.545C42.409,40.063,41.126,38.743,38.805,36.332z M47.243,37.193l-0.588,0.808l-7.464-9.633
		c-0.542-0.594-1.374-1.374-2.498-2.342l0.062-0.328l2.539,0.538c0.096,0.546,0.269,1,0.519,1.361
		C40.063,27.959,42.538,31.157,47.243,37.193z M47.903,36.728l0.271,0.296l-3.536,4.313l-0.677-0.741l2.031-2.396
		c0.175-0.248,0.367-0.741,0.579-1.479L47.903,36.728z"/>
</g>
<g>
	<path fill="#FF0000" d="M48.803,22.036c1.178,0.073,1.958,0.159,2.338,0.259c0.379,0.102,0.622,0.233,0.729,0.394
		c0.106,0.161,0.355,0.713,0.745,1.654l-0.295,0.141c-1.011-0.856-2.204-1.522-3.574-1.997L48.803,22.036z M51.311,29.941
		l-1.147-0.511l2.951-2.15c0.169-0.15,0.313-0.607,0.431-1.37l1.345,0.735c-0.304,0.499-0.451,0.887-0.438,1.162
		c0.01,0.278,0.098,1.153,0.26,2.628c0.716,0.363,1.219,0.724,1.509,1.078c0.29,0.356,0.513,0.76,0.67,1.215
		c0.156,0.455,0.157,1.213,0.001,2.274l-0.516,0.246c-0.013-0.909-0.067-1.589-0.16-2.04c-0.094-0.447-0.279-0.834-0.556-1.163
		c-0.277-0.326-0.766-0.781-1.465-1.364l-0.489-2.73l-1.75,1.259C51.71,29.326,51.496,29.571,51.311,29.941z M53.679,20.131
		l-1.368-0.404l5.601-3.415c0.218-0.174,0.446-0.706,0.684-1.597l1.574,0.836c-0.451,0.569-0.698,0.969-0.738,1.199
		c-0.041,0.231-0.391,1.422-1.052,3.571l-0.386-0.239l0.436-3.064l-3.917,2.399C54.267,19.534,53.989,19.771,53.679,20.131z
		 M59.224,34.208c2.089-0.292,4.196-0.612,6.323-0.955c2.125-0.345,4.044-0.998,5.756-1.956l0.206,0.431l-2.68,2.339
		c-4.248,0.191-7.433,0.463-9.559,0.806c-2.126,0.345-3.767,1.075-4.92,2.19l-1.042-0.667C55.161,35.229,57.134,34.5,59.224,34.208z
		 M55.758,23.161c0.17,0.484,0.311,0.841,0.42,1.069c0.11,0.23,1.222,2.558,3.333,6.981l0.964,2.398l-0.294,0.141l-1.642-1.545
		c-0.023-0.553-0.078-0.95-0.163-1.193c-0.084-0.24-0.621-1.396-1.609-3.465c-0.987-2.068-1.548-3.21-1.682-3.43
		c-0.135-0.217-0.494-0.752-1.081-1.602l0.294-0.141L55.758,23.161z M67.43,31.136l-3.467-1.203l0.024-0.328l2.104,0.053
		c-0.099-0.586-0.299-1.196-0.602-1.829l-3.58-7.499l-6.443,3.923l-0.37-0.776l5.969-3.59c0.169-0.15,0.349-0.66,0.537-1.527
		l1.377,0.613c-0.201,0.59-0.239,1.013-0.115,1.271c0.123,0.259,1.365,2.859,3.724,7.801C66.955,29.07,67.236,30.101,67.43,31.136z
		 M55.775,19.978l0.056-0.45c1.78,0.068,2.771,0.124,2.973,0.168c0.203,0.046,0.38,0.419,0.535,1.121l-0.18,0.19
		C58.215,20.543,57.085,20.199,55.775,19.978z M61.245,23.293l1.213,0.268l0.196,0.224l-2.567,1.438
		c-0.415,0.268-0.791,0.554-1.129,0.855l-1.368-0.405l2.83-1.457C60.54,24.089,60.814,23.782,61.245,23.293z M61.644,29.241
		c-0.109-0.229-1.262-2.643-3.456-7.24l0.686-0.646l3.539,7.413l1.375,3.26l-0.295,0.141l-1.485-1.407
		C61.874,29.978,61.754,29.472,61.644,29.241z M62.782,25.946l1.213,0.268l0.197,0.224l-2.789,1.542
		c-0.562,0.34-1.012,0.66-1.349,0.963l-1.368-0.405l3.124-1.597C62.028,26.766,62.352,26.435,62.782,25.946z"/>
</g>
<g>
	<path fill="#FF0000" d="M72.09,26.604l-1.063-1.274l7.559-3.596l0.328,0.297C74.661,24.58,72.387,26.105,72.09,26.604z
		 M72.808,19.556l-1.155-0.99l5.602-0.502c0.228-0.056,0.628-0.235,1.203-0.537l1.076,0.796l0.073,0.385l-5.521,0.6
		C73.801,19.363,73.375,19.446,72.808,19.556z M77.388,13.577c-0.303,0.693-0.459,1.213-0.47,1.563
		c-0.01,0.351-0.174,5.84-0.491,16.468c-0.034,1.146-0.203,2.096-0.507,2.852l-3.539-3.45l0.182-0.376l2.664,1.512
		c0.186-0.567,0.289-1.169,0.308-1.806l0.487-16.325c0.025-0.826-0.065-1.658-0.265-2.493l0.345-0.181L77.388,13.577z
		 M82.727,30.505c-1.115,1.4-3.079,2.885-5.891,4.458l-0.155-0.482c2.649-1.832,4.474-3.369,5.472-4.614
		c0.996-1.244,1.989-3.317,2.979-6.218l-3.311,0.284c-0.228,0.058-0.57,0.174-1.026,0.352l-1.156-0.99l5.354-0.605
		c0.225,0.007,0.6-0.3,1.127-0.922l0.896,1.173c-0.525,0.558-0.848,0.947-0.967,1.166c-0.12,0.221-0.425,0.991-0.914,2.313
		C84.642,27.744,83.84,29.105,82.727,30.505z M81.585,19.053c-0.347,1.2-1.361,2.604-3.045,4.209l-0.242-0.39
		c1.407-1.805,2.24-3.261,2.5-4.369c0.258-1.106,0.403-2.138,0.432-3.092s-0.081-2.041-0.327-3.259l0.339,0.01l0.955,2.035
		C82.136,16.236,81.931,17.854,81.585,19.053z M79.331,25.101l1.532-0.241c-0.018,0.573,0.014,0.941,0.094,1.102
		c0.079,0.162,0.742,1.073,1.992,2.735c1.248,1.661,2.313,2.856,3.195,3.583c0.881,0.727,2.164,1.242,3.848,1.547l-0.014,0.478
		l-3.899,0.171C82.131,28.688,79.881,25.563,79.331,25.101z M81.52,14.178l3.142-0.289c0.283-0.054,0.632-0.394,1.047-1.02
		l1.067,1.083c-0.521,0.431-0.786,0.836-0.798,1.218c-0.012,0.382-0.054,1.783-0.125,4.201c-0.077,0.636,0.195,0.961,0.816,0.98
		L88.2,20.11l0.779-0.55l0.735,0.882l-0.011,0.382l-2.042,0.322l-1.695,0.045c-0.674-0.083-1.026-0.604-1.054-1.56l0.146-4.869
		l-3.311,0.283L81.52,14.178z"/>
</g>
<g>
	<path fill="#FF0000" d="M95.191,34.386c-1.133,0.739-3.139,1.164-6.016,1.272l-0.083-0.537c2.682-0.247,4.556-0.736,5.623-1.467
		c1.066-0.73,1.899-1.578,2.498-2.548c0.597-0.969,1.042-1.94,1.336-2.919l0.36,0.028l0.494,2.212
		c-0.437,0.181-0.71,0.337-0.817,0.466c-0.109,0.13-0.419,0.559-0.93,1.287C97.146,32.911,96.323,33.646,95.191,34.386z
		 M93.541,25.153l-0.49-0.179l-0.578-3.258l0.425-0.15l0.902,1.852l5.13-3.932l0.343,0.328L93.541,25.153z M93.859,29.89
		c0.098-0.269,0.293-0.808,0.586-1.616c0.293-0.808,0.485-1.381,0.578-1.72c0.091-0.34,0.207-1.127,0.348-2.364l0.328,0.118
		l0.574,1.733c-1.086,2.994-1.987,5.309-2.703,6.943l-0.409-0.147l0.029-2.124C93.538,30.434,93.762,30.16,93.859,29.89z
		 M95.865,25.893l6.56,1.566c0.272,0.099,0.745-0.102,1.422-0.602l0.541,1.313c-0.61,0.322-0.983,0.627-1.118,0.915
		c-0.137,0.29-0.427,1.05-0.871,2.275c-0.445,1.229-0.989,2.471-1.63,3.728l-0.327-0.119l-0.183-1.795
		c0.392-0.398,0.671-0.787,0.841-1.168c0.167-0.378,0.621-1.585,1.359-3.621l-6.888-1.685L95.865,25.893z M98.614,17.036
		c0.294,0.378,0.462,0.643,0.5,0.792s-0.16,0.652-0.595,1.51l-0.408-0.147c-0.254-1.175-0.778-2.449-1.576-3.823l0.294-0.3
		C97.724,16.001,98.318,16.658,98.614,17.036z M100.76,24.011c0.854-0.57,1.525-1.189,2.016-1.859
		c0.489-0.669,0.844-1.302,1.061-1.901l0.69,2.18c-0.371,0.003-0.826,0.277-1.364,0.827c-0.54,0.55-1.253,1.069-2.14,1.56
		c-0.888,0.492-2.128,0.891-3.719,1.191l-0.115-0.448C98.713,25.098,99.904,24.583,100.76,24.011z M101.839,39.541l-0.409-0.148
		c-0.843-1.932-2.067-3.831-3.672-5.7l0.244-0.419c1.682,1.49,2.819,2.563,3.415,3.219c0.596,0.656,0.934,1.083,1.016,1.283
		C102.515,37.973,102.316,38.562,101.839,39.541z M104.716,18.334c-0.502,0.021-1.137,0.367-1.903,1.036
		c-0.768,0.671-2.105,1.507-4.011,2.508l-0.344-0.327c2.112-1.401,3.533-2.512,4.263-3.331c0.729-0.818,1.213-1.557,1.451-2.216
		l0.328,0.118L104.716,18.334z M103.673,20.699c-0.273-0.1-0.563-0.066-0.866,0.092l-0.656-1.253l5.889,1.119
		c0.239,0.021,0.675-0.161,1.308-0.542l0.607,1.645c-0.546,0.141-0.981,0.321-1.308,0.541c-0.327,0.222-1.154,0.8-2.482,1.74
		l-0.262-0.298l2.122-2.278L103.673,20.699z M106.063,27.255c0.595,0.825,1.761,1.654,3.496,2.487l-0.163,0.449l-3.648-0.918
		l-2.872-6.63l0.522-0.419C104.578,24.753,105.467,26.429,106.063,27.255z"/>
</g>
<g>
	<path fill="#FF0000" d="M107.119,45.364l-0.178-0.191l0.842-2.09c0.57-0.053,0.904-0.146,1.002-0.276
		c0.099-0.133,1.076-1.101,2.935-2.904c1.856-1.805,2.822-2.74,2.894-2.806c0.071-0.066,0.41-0.58,1.02-1.542l0.237,0.255
		l-0.214,1.625C111.086,41.836,108.241,44.478,107.119,45.364z M108.862,43.388l4.099,3.556c0.111,0.213,0.5,0.445,1.173,0.693
		l-0.131,1.428l-5.781-5.083L108.862,43.388z M111.281,41.141l4.359,3.551c0.197,0.213,0.663,0.335,1.398,0.365l-0.048,1.232
		c-0.649-0.032-1.043,0.018-1.186,0.15s-0.89,0.708-2.241,1.726l-0.593-0.639l2.384-1.857l-4.715-3.934L111.281,41.141z
		 M115.718,31.793l0.237,0.255c-1.139,1.058-1.892,1.698-2.259,1.92c-0.368,0.224-1.05,0.56-2.045,1.008l-0.236-0.255l1.055-1.574
		C113.307,33.003,114.39,32.551,115.718,31.793z M118.142,44.389l-5.688-4.694l0.641-0.595l3.992,3.299
		c0.166,0.083,0.623,0.292,1.375,0.624L118.142,44.389z M120.152,29.576c1.603-0.461,2.714-0.978,3.33-1.551l0.166,0.321
		l-1.163,2.031c-0.554-0.12-1.462-0.028-2.726,0.275c-1.265,0.304-3.5,0.44-6.708,0.412l0.106-0.456
		C116.216,30.381,118.547,30.037,120.152,29.576z M113.881,33.382l0.758-0.468l10.153,8.504c0.284,0.212,0.864,0.267,1.742,0.164
		l-0.333,1.497c-0.601-0.076-2.063,0.253-4.386,0.985l-0.023-0.453l2.786-1.281L113.881,33.382z M114.66,37.646l0.64-0.595
		l4.373,3.423c0.156,0.168,0.623,0.291,1.397,0.363l-0.107,1.169c-0.791,0.1-1.245,0.206-1.362,0.315
		c-0.119,0.11-0.712,0.542-1.779,1.296l-0.592-0.638l2.17-1.659L114.66,37.646z M119.699,34.51c-0.096,0.089-0.495,0.181-1.197,0.28
		l-0.237-0.255c0.727-0.834,1.359-1.818,1.897-2.951l0.38,0.124C120.074,33.486,119.794,34.422,119.699,34.51z M119.571,30.234
		l2.843,2.347c0.204,0.125,0.54,0.25,1.007,0.372l0.142,1.293l-0.095,0.325l-4.656-3.871L119.571,30.234z M121.055,37.11
		c-0.123,0.153-0.564,0.344-1.321,0.575l-0.118-0.128c0.56-0.917,1.043-1.919,1.446-3.007l0.202-0.068
		C121.246,36.081,121.177,36.956,121.055,37.11z M125.737,34.305c0.968-0.386,1.787-0.93,2.46-1.632l0.237,0.255l-0.783,2.153
		c-0.602-0.078-1.314,0.011-2.14,0.264c-0.826,0.252-2.271,0.506-4.332,0.758l0.048-0.52
		C123.266,35.117,124.77,34.688,125.737,34.305z M125.352,36.029l0.261-0.004c-0.128,1.86-0.239,2.834-0.333,2.922
		c-0.096,0.089-0.617,0.335-1.565,0.741l-0.118-0.127C124.26,38.469,124.845,37.291,125.352,36.029z M129.652,39.518l-0.154,0.262
		l-5.308-4.572l0.937-0.276c2.329,2.032,3.548,3.059,3.654,3.079s0.353,0.047,0.741,0.083L129.652,39.518z"/>
</g>
<g>
	<path fill="#FF0000" d="M124.935,67.901l-0.319,1.396l-0.36,0.178l-6.324-10.964c-0.101-0.205-0.342-0.466-0.724-0.785l0.37-1.517
		c4.326,7.382,6.563,11.146,6.713,11.296C124.437,67.655,124.652,67.785,124.935,67.901z M118.856,51.766l0.589-1.529l6.134,5.821
		l-0.284,0.332C121.871,53.704,119.725,52.162,118.856,51.766z M138.096,54.149l0.417,0.842l-17.03,8.428l-0.417-0.842
		L138.096,54.149z M121.975,53.08l11.083-5.485l0.417,0.843l-10.813,5.351L121.975,53.08z M128.067,63.352
		c0.146,0.147,0.379,0.24,0.696,0.274l-0.281,1.472l-0.36,0.178l-4-6.496c-0.127-0.256-0.381-0.543-0.763-0.861l0.319-1.396
		C126.455,60.926,127.917,63.202,128.067,63.352z M129.241,53.485l-2.396-3.48c-0.102-0.205-0.343-0.467-0.725-0.785l0.409-1.439
		c1.562,2.399,2.389,3.657,2.482,3.77c0.093,0.111,0.335,0.262,0.729,0.449l-0.229,1.352L129.241,53.485z M137.796,49.917
		l-0.987,1.631c-4.851,2.591-8.202,4.28-10.054,5.07l-0.151-0.306l1.514-1.701c0.581-0.034,0.917-0.073,1.007-0.118
		c0.091-0.044,1.194-0.608,3.315-1.688c2.118-1.081,3.264-1.678,3.431-1.793c0.168-0.115,0.759-0.583,1.774-1.403L137.796,49.917z
		 M132.865,62.167l-0.712,0.829l-4.379-7.261l0.812-0.401C131.116,59.54,132.542,61.818,132.865,62.167z M134.646,49.333
		c0.093,0.112,0.322,0.237,0.689,0.374l-0.319,1.396l-0.231,0.211l-2.761-4.444c-0.126-0.255-0.41-0.526-0.852-0.816l0.499-1.484
		C133.562,47.633,134.553,49.22,134.646,49.333z M140.21,59.104c-0.18,0.089-2.809,1.2-7.886,3.331l-0.108-0.899l7.668-3.318
		l-4.09-6.452l0.812-0.401l3.824,5.916c0.151,0.307,0.628,0.515,1.432,0.625l-0.461,1.562
		C140.787,59.135,140.391,59.015,140.21,59.104z M133.16,55.736c-0.102-0.205-0.343-0.466-0.726-0.785l0.41-1.44
		c1.651,2.737,2.541,4.155,2.664,4.253c0.122,0.097,0.352,0.254,0.683,0.472l-0.214,1.153l-0.285,0.332L133.16,55.736z"/>
</g>
<g>
	<path fill="#FF0000" d="M126.64,81.496l-0.008,0.342l-5.159,1.24c-0.068-2.678,0.469-4.813,1.614-6.408
		c1.146-1.593,3.204-2.866,6.178-3.817l0.09,0.428c-2.716,1.356-4.475,2.681-5.276,3.971c-0.801,1.288-1.223,2.702-1.26,4.239
		L126.64,81.496z M130.117,70.91l-0.014,0.513c-2.211-0.055-3.701-0.148-4.468-0.28c-0.769-0.135-1.683-0.469-2.741-1.007
		l0.009-0.341l2.321-0.37C126.147,70.072,127.777,70.567,130.117,70.91z M128.114,84.947c-0.45,0.559-0.76,0.879-0.929,0.961
		c-0.17,0.08-0.755,0.023-1.756-0.172l0.009-0.34c1.293-0.824,2.595-1.959,3.905-3.406l0.5,0.098
		C129.14,83.436,128.563,84.389,128.114,84.947z M129.022,78.652c-0.349,0.504-0.623,0.797-0.826,0.877s-0.806,0.051-1.808-0.086
		l0.008-0.342c1.086-0.602,2.251-1.569,3.49-2.904l0.398,0.181C129.79,77.39,129.369,78.148,129.022,78.652z M132.586,72.764
		c0.531,0.183,0.863,0.276,0.998,0.28c0.134,0.003,0.67,0.016,1.608,0.039c0.938,0.022,1.574,0.023,1.911,0.004
		c0.335-0.021,1.11-0.187,2.324-0.499l-0.008,0.342L137.785,74c-3.219,0.035-5.632-0.024-7.237-0.177l0.011-0.427L132.586,72.764z
		 M132.766,73.622l0.537,6.843c0.058,0.342,0.249,0.744,0.573,1.209l-0.831,1.09l-0.502-0.012l-0.682-9.153L132.766,73.622z
		 M137.892,73.747l0.929,7.279c-0.006,0.227,0.319,0.605,0.978,1.135l-1.43,0.904c-0.525-0.525-0.921-0.791-1.188-0.797
		c-0.269-0.008-1.64-0.156-4.112-0.443l0.024-1.023l4.814,0.545l-0.92-7.622L137.892,73.747z M141.444,80.621
		c-0.794-0.447-1.949-1.201-3.464-2.262l0.213-0.507c1.784,1.068,3.157,1.785,4.121,2.15c0.962,0.363,1.911,0.613,2.848,0.752
		l-0.011,0.428l-2.433,0.793C142.662,81.518,142.238,81.066,141.444,80.621z M143.924,73.808l0.293,0.349
		c-1.029,1-1.768,1.665-2.211,1.995c-0.444,0.331-0.751,0.522-0.919,0.574c-0.169,0.053-0.753-0.074-1.75-0.383l0.01-0.427
		C140.83,75.553,142.355,74.85,143.924,73.808z"/>
</g>
<g>
	<path fill="#FF0000" d="M119.855,100.027c-0.219-0.002-0.844-0.416-1.873-1.238l0.17-0.391c2.2,0.152,4.621-0.029,7.264-0.553
		l0.014,0.471C121.932,99.459,120.074,100.029,119.855,100.027z M122.058,89.209l1.851-0.219c-0.028,0.732,0.532,1.877,1.681,3.436
		c1.147,1.557,2.279,2.859,3.396,3.904c1.115,1.047,2.223,1.902,3.321,2.568l-0.103,0.234l-2.621-0.025
		c0.014-0.367-0.541-1.107-1.664-2.217c-1.124-1.113-2.699-3.199-4.728-6.256l-2.516,8.771l-0.771-0.242
		c1.448-5.826,2.159-8.838,2.136-9.033C122.016,89.934,122.022,89.627,122.058,89.209z M127.667,104.371
		c-1.657,0.361-2.92,1.285-3.788,2.77l-0.461-0.201l1.456-3.834l14.563-0.439l-0.581,1.33c-0.569-0.373-0.942-0.568-1.117-0.582
		c-0.177-0.016-1.485,0.051-3.926,0.197C131.373,103.754,129.324,104.008,127.667,104.371z M132.217,93.83
		c-0.826-1.291-1.727-3.33-2.704-6.117l0.597-0.111c1.068,2.578,2.104,4.52,3.105,5.828c1.002,1.305,1.916,2.434,2.744,3.387
		c0.827,0.951,1.67,1.615,2.531,1.99l-0.171,0.391l-2.553-0.184c0.075-0.34-0.291-0.965-1.1-1.877S133.041,95.121,132.217,93.83z"/>
</g>
<g>
	<path fill="#FF0000" d="M105.935,111.591l0.252-0.229l5.294,0.629l0.076,0.339l-3.628,0.573c0.323,0.61,0.612,1.075,0.86,1.393
		c0.248,0.316,4.019,4.498,11.311,12.544l6.222-6.86c0.212-0.191,0.415-0.559,0.616-1.102l1.564,0.074l-7.416,8.214
		c-0.168,0.152-0.174,0.654-0.017,1.508l-1.564-0.074c-0.022-0.704-0.159-1.192-0.405-1.464c-0.248-0.274-2.15-2.373-5.705-6.295
		c-3.557-3.924-5.537-6.154-5.945-6.688C107.043,113.618,106.536,112.765,105.935,111.591z M113.32,114.53l4.642-5.428l0.675,0.745
		l-3.263,3.771c-0.121,0.29-0.345,0.72-0.674,1.289l-1.109-0.079L113.32,114.53z M118.632,117.722
		c-0.124,0.201-0.15,0.68-0.083,1.433l-1.305-0.039c-0.022-0.705-0.135-1.167-0.338-1.39c-0.202-0.224-1.117-1.361-2.746-3.413
		l0.695-0.63l2.916,3.598l3.563-4.585l0.675,0.745L118.632,117.722z M121.562,113.71l-3.101-3.295l-1.963-2.292l0.254-0.229
		l1.852,0.899c0.146,0.499,0.365,0.89,0.656,1.169c0.291,0.278,0.807,0.806,1.549,1.582c0.74,0.773,1.178,1.215,1.311,1.32
		c0.135,0.104,0.602,0.473,1.403,1.104l-0.316,0.286L121.562,113.71z M124.418,115.463c0.211-0.191,0.418-0.514,0.619-0.968
		l1.561-0.058l-6.028,6.82c-0.124,0.2-0.327,0.612-0.611,1.232l-1.3,0.091l-0.332-0.24L124.418,115.463z"/>
</g>
<rect x="40.892" y="82.782" fill="#FF0000" width="24.468" height="1.846"/>
<rect x="93.912" y="84.757" fill="#FF0000" width="24.467" height="1.846"/>
</svg>
