<?xml version="1.0" encoding="utf-8"?>
<!-- Generator: Adobe Illustrator 13.0.0, SVG Export Plug-In . SVG Version: 6.00 Build 14948)  -->
<!DOCTYPE svg PUBLIC "-//W3C//DTD SVG 1.1//EN" "http://www.w3.org/Graphics/SVG/1.1/DTD/svg11.dtd">
<svg version="1.1" id="图层_1" xmlns="http://www.w3.org/2000/svg" xmlns:xlink="http://www.w3.org/1999/xlink" x="0px" y="0px"
	 width="154px" height="154px" viewBox="0 0 154 154" enable-background="new 0 0 154 154" xml:space="preserve">
<g>
	<defs>
		<rect id="SVGID_1_" width="154" height="154"/>
	</defs>
	<clipPath id="SVGID_2_">
		<use xlink:href="#SVGID_1_"  overflow="visible"/>
	</clipPath>
	<circle clip-path="url(#SVGID_2_)" fill="none" stroke="#FF0000" stroke-width="3.5" cx="77" cy="76.555" r="74.25"/>
</g>
<g>
	<path fill="#FF0000" d="M11.251,76.665l0.28-0.022l2.054,11.593c0.03,0.373,0.19,0.8,0.479,1.278l-0.932,1.297
		c-1.32-7.92-2.035-11.954-2.141-12.103c-0.105-0.147-0.267-0.401-0.484-0.761L11.251,76.665z M13.454,91.302
		c0.118-0.104,0.739-0.167,1.865-0.196l0.124,0.367c-1.128,0.78-2.228,1.934-3.298,3.46l-0.303-0.258
		C12.799,92.529,13.337,91.405,13.454,91.302z M14.467,79.842c0.222,0.014,4.787-0.336,13.695-1.047
		c1.063-0.021,1.985,0.124,2.762,0.438l-3.387,4.69l-0.311-0.352l1.415-3.498c-0.513-0.147-1.019-0.201-1.518-0.161L14.6,80.912
		c-0.622,0.05-1.39,0.269-2.299,0.654l-0.202-0.173l1.555-1.723C13.977,79.771,14.248,79.828,14.467,79.842z M23.3,88.588
		c-0.455-0.213-0.744-0.301-0.867-0.26c-0.121,0.042-0.928,0.153-2.418,0.334c-1.49,0.182-2.313,0.278-2.469,0.291
		c-0.155,0.013-0.843,0.225-2.065,0.635l-0.03-0.373l1.873-1.278c3.854-0.433,6.342-0.662,7.469-0.69l0.03,0.374L23.3,88.588z
		 M17.36,88.404l-0.65-3.429c-0.086-0.306-0.492-0.681-1.218-1.125l0.946-1.11c0.539,0.46,0.9,0.681,1.087,0.666
		c0.187-0.016,1.498-0.087,3.933-0.221l0.075,0.936l-4.026,0.227l0.796,4.075L17.36,88.404z M20.671,92.184l0.037,0.468
		c-0.94,0.766-1.851,1.935-2.729,3.509l-0.404-0.344c0.755-2.317,1.226-3.498,1.41-3.545C19.17,92.226,19.732,92.197,20.671,92.184z
		 M18.59,90.845l0.149-0.482l11.539,1.995l0.044,0.561l-2.624,2.467l-0.303-0.258l0.887-1.857L18.59,90.845z M20.804,83.238
		l0.983-0.643l1.072,5.182l-0.935,0.074C21.539,85.375,21.167,83.837,20.804,83.238z"/>
</g>
<g>
	<path fill="#FF0000" d="M13.461,61.994c0.295,0.111,2.275,0.691,5.939,1.739l0.015,1.029l-6.856-1.939
		c-0.422-0.113-1.209-0.2-2.357-0.262l-0.02-0.285l2.322-1.053C12.849,61.628,13.168,61.884,13.461,61.994z M13.027,71.899
		l2.715-15.49c0.049-0.42-0.015-0.904-0.192-1.45l1.119-0.91l0.362,0.097L14.27,69.81c-0.018,0.308,0.001,0.716,0.058,1.228
		L13.027,71.899z M28.546,74.121c-0.315-0.272-0.601-0.472-0.857-0.604c-0.256-0.13-1.741-0.563-4.457-1.294
		s-4.276-1.12-4.686-1.168c-0.407-0.047-1.292-0.068-2.653-0.062l0.117-0.436l2.229-0.705c7.183,1.934,11.458,3.117,12.831,3.548
		l-0.094,0.348L28.546,74.121z M33.546,62.042l-3.944,2.387l-0.291-0.358l2.149-2.217c-0.75-0.576-1.934-1.111-3.547-1.608
		c-1.614-0.496-4.012-1.205-7.195-2.124l-1.942,12.621L17.87,70.5l1.893-12.075c0.003-0.247-0.175-0.668-0.534-1.263l1.119-0.91
		c0.359,0.595,0.688,0.931,0.989,1.012c0.303,0.082,1.114,0.316,2.433,0.702c1.32,0.388,2.968,0.878,4.944,1.471
		C30.689,60.031,32.3,60.899,33.546,62.042z M19.484,67.392l-0.202-0.334c0.822-0.647,1.415-1.048,1.779-1.198
		c0.364-0.149,0.626-0.219,0.784-0.209c0.159,0.013,0.561,0.261,1.207,0.745l-0.117,0.435
		C21.863,66.727,20.713,66.915,19.484,67.392z M23.775,64.072l-0.23,0.498c-1.143-0.804-1.98-1.356-2.516-1.657
		c-0.534-0.298-1.042-0.513-1.525-0.644l1.595-0.875c0.209,0.429,0.485,0.783,0.831,1.063S22.891,63.275,23.775,64.072z
		 M23.271,61.979l0.891-0.786l0.318-0.101l-0.984,6.54c-0.063,0.232-0.034,0.612,0.082,1.14l-1.233,0.974l1.075-6.516
		C23.423,62.984,23.373,62.566,23.271,61.979z M32.001,67.779l-2.383,0.197c-0.36-0.345-0.69-0.559-0.993-0.64
		c-0.301-0.081-2.021-0.544-5.16-1.389l0.258-0.957l5.975,1.609l2.397,0.832L32.001,67.779z M27.726,60.941L26.3,68.761
		c-0.033,0.364-0.022,0.803,0.034,1.314l-1.301,0.862l1.474-7.994c0.003-0.247-0.01-0.686-0.034-1.314l0.867-0.699L27.726,60.941z"
		/>
</g>
<g>
	<path fill="#FF0000" d="M20.928,44.574c0.527-0.144,0.852-0.196,0.975-0.159c0.123,0.04,0.537,0.379,1.244,1.021l-0.236,0.391
		c-1.407-0.211-2.918-0.128-4.534,0.247l-0.099-0.38C19.518,45.092,20.402,44.719,20.928,44.574z M26.16,42.452
		c-0.195-0.402-0.351-0.657-0.469-0.765c-0.117-0.106-0.598-0.398-1.443-0.875c-0.844-0.475-1.354-0.749-1.53-0.821
		c-0.177-0.07-0.786-0.208-1.831-0.415l0.189-0.313l2.136-0.631c0.087,0.339,0.265,0.588,0.532,0.75s0.842,0.51,1.723,1.044
		c0.883,0.535,1.801,1.163,2.752,1.881l-0.189,0.313L26.16,42.452z M24.654,41.86c-0.104,0.294-0.175,0.713-0.215,1.26l-1.577,0.434
		l4.489-9.04c0.073-0.24,0.145-0.66,0.215-1.259l1.352-0.784l0.32,0.194L24.654,41.86z M29.473,38.793l-0.444,0.372
		c-1.587-1.602-2.808-2.751-3.665-3.449c-0.856-0.696-1.664-1.204-2.422-1.521l0.189-0.313l2.188-0.172
		c0.023,0.442,0.35,0.96,0.977,1.554S27.98,37.034,29.473,38.793z M23.318,51.848l1.318-3.264c0.052-0.324-0.038-0.841-0.266-1.55
		l1.418-0.531c0.121,0.644,0.31,1.026,0.566,1.145c0.256,0.12,2.742,1.715,7.459,4.786l-0.28,1.006l-7.924-5.014l-0.659,1.631
		c-0.158,0.262-0.256,0.666-0.295,1.211L23.318,51.848z M32.22,45.748c-0.841-1.327-1.673-2.456-2.499-3.383
		c-0.825-0.928-1.801-1.733-2.923-2.413l0.223-0.186l2.267-0.123c0.068,0.612,0.545,1.363,1.429,2.255
		c0.884,0.893,1.702,2.047,2.451,3.462c0.751,1.417,1.589,3.833,2.517,7.244l-0.51,0.118C34.044,49.402,33.059,47.077,32.22,45.748z
		 M34.732,34.816l-5.259,11.032c-0.041,0.189-0.108,0.541-0.2,1.055l-1.498,0.482l5.148-10.671c0.074-0.24,0.15-0.728,0.229-1.464
		l1.13-0.599L34.732,34.816z M32.426,45.499c3.441,1.801,5.902,3.221,7.391,4.264l-0.142,0.234l-2.092,0.016
		c-0.376-0.583-0.657-0.933-0.846-1.046c-0.187-0.113-0.95-0.54-2.292-1.283c-1.342-0.74-2.52-1.239-3.532-1.498l0.062-0.283
		L32.426,45.499z M34.813,53.68l-1.69,0.259l-1.449-6.115l0.512-0.119C33.604,51.274,34.48,53.265,34.813,53.68z M33.504,46.794
		l-0.707-0.643l2.234-4.954c0.072-0.24-0.016-0.757-0.266-1.551l1.563-0.229c0.091,0.696,0.25,1.097,0.479,1.199
		c0.229,0.104,1.634,1.044,4.212,2.819l-0.715,0.637l-4.314-2.829L33.504,46.794z M41.479,42.859l-3.182,6.518l-0.802-0.486
		l2.427-4.729c0.105-0.292,0.176-0.712,0.215-1.26l1.021-0.237L41.479,42.859z"/>
</g>
<g>
	<path fill="#FF0000" d="M56.285,19.06l-1.38-0.786l5.629-1.634c0.221-0.103,0.595-0.366,1.121-0.792l1.261,0.603l0.152,0.38
		l-5.526,1.718C57.262,18.663,56.843,18.833,56.285,19.06z M56.962,26.442l-1.342-1.096l7.009-5.203l0.397,0.239
		C59.186,23.849,57.165,25.869,56.962,26.442z M59.773,12.005c-0.173,0.772-0.228,1.337-0.168,1.699s0.991,6.031,2.795,17.01
		c0.194,1.184,0.211,2.193,0.051,3.03l-4.31-2.837l0.109-0.423l3.028,1.022c0.076-0.62,0.062-1.259-0.047-1.917l-2.771-16.862
		c-0.141-0.854-0.397-1.689-0.77-2.506l0.316-0.254L59.773,12.005z M65.162,16.791c-0.114,1.302-0.872,2.945-2.273,4.93
		l-0.326-0.351c1.079-2.135,1.641-3.797,1.683-4.986c0.043-1.188-0.016-2.276-0.178-3.262c-0.162-0.986-0.491-2.08-0.986-3.281
		l0.349-0.057l1.384,1.899C65.159,13.788,65.274,15.49,65.162,16.791z M68.62,28.325c-0.859,1.661-2.57,3.578-5.131,5.755
		l-0.255-0.464c2.344-2.411,3.9-4.354,4.671-5.832c0.771-1.476,1.371-3.803,1.803-6.98l-3.329,0.952
		c-0.222,0.104-0.548,0.292-0.979,0.566l-1.38-0.786l5.353-1.689c0.231-0.038,0.556-0.428,0.969-1.171l1.152,1.025
		c-0.426,0.678-0.678,1.142-0.755,1.391c-0.079,0.25-0.236,1.102-0.474,2.558C70.026,25.106,69.479,26.665,68.62,28.325z
		 M64.066,23.452l1.518-0.553c0.098,0.592,0.203,0.963,0.317,1.112c0.113,0.15,0.975,0.954,2.585,2.411
		c1.609,1.457,2.938,2.472,3.985,3.042c1.046,0.57,2.462,0.844,4.246,0.821l0.08,0.494l-3.953,0.954
		C67.647,26.577,64.722,23.818,64.066,23.452z M64.118,11.797l3.154-0.923c0.278-0.112,0.567-0.532,0.865-1.256l1.31,0.898
		c-0.445,0.546-0.637,1.017-0.571,1.411c0.064,0.395,0.302,1.841,0.712,4.339c0.05,0.667,0.394,0.948,1.032,0.843l1.518-0.553
		l0.686-0.721l0.93,0.759l0.064,0.395l-2.023,0.737l-1.724,0.385c-0.707,0.049-1.171-0.416-1.391-1.393l-0.827-5.028l-3.328,0.952
		L64.118,11.797z"/>
</g>
<g>
	<path fill="#FF0000" d="M111.447,42.533c0.256,0.014,0.512-0.049,0.764-0.186s1.595-1.236,4.026-3.297
		c2.431-2.062,3.755-3.184,3.969-3.365s0.646-0.663,1.294-1.443l0.371,0.146l-0.233,2.044c-0.392,0.022-0.712,0.103-0.964,0.24
		c-0.253,0.137-1.5,1.156-3.74,3.056c-2.24,1.9-3.468,2.939-3.682,3.121c-0.215,0.183-1.07,0.791-2.566,1.83l-0.285-0.336
		L111.447,42.533z M118.477,44.302c-1.684,0.044-3.705-0.165-6.063-0.627l0.301-0.37c2.473,0.211,4.459,0.258,5.957,0.141
		c1.499-0.117,3.066-0.37,4.703-0.759l0.598,0.995C121.992,44.052,120.16,44.258,118.477,44.302z M116.682,48.708
		c0.305-0.027,0.582-0.11,0.835-0.247c0.252-0.137,1.583-1.226,3.99-3.268c2.407-2.039,3.72-3.172,3.94-3.397
		c0.219-0.225,0.61-0.729,1.174-1.515l0.299,0.208l-0.361,2.037c-0.354,0.068-0.635,0.173-0.844,0.311
		c-0.21,0.14-1.613,1.312-4.211,3.514c-2.6,2.203-4.531,3.764-5.799,4.685l-0.229-0.269L116.682,48.708z M127.097,33.594
		c-0.249,0.094-0.771,0.229-1.563,0.402c-0.797,0.173-1.885,0.387-3.27,0.637c-1.385,0.252-3.447,0.309-6.186,0.17l0.058-0.512
		c2.464-0.088,4.434-0.279,5.909-0.568c1.475-0.289,2.805-0.629,3.99-1.019s2.111-0.866,2.779-1.433l0.242,0.14l-0.904,2.267
		C127.695,33.526,127.344,33.499,127.097,33.594z M119.876,38.85c5.398,5.111,8.15,7.682,8.255,7.707
		c0.104,0.027,0.402,0.137,0.898,0.335l0.039,1.351l-0.158,0.249l-7.813-7.332c-0.191-0.226-0.614-0.481-1.269-0.771L119.876,38.85z
		 M124.43,53.789l-0.286,0.242l-2.349-2.045l2.25-8.944l0.441,0.665c-0.444,1.99-0.787,3.856-1.029,5.601
		C123.215,51.051,123.538,52.545,124.43,53.789z M124.529,38.249c0.219-0.032,0.395-0.065,0.528-0.103
		c0.132-0.036,0.659-0.502,1.581-1.396c0.92-0.896,1.646-1.802,2.183-2.717l0.386,0.02l-0.404,1.843
		c-2.148,2.203-3.807,3.726-4.979,4.565l-0.227-0.268L124.529,38.249z M129.071,42.012c0.151,0.178,0.53,0.432,1.14,0.764
		l0.196,1.102l-0.286,0.242l-5.51-4.902l0.716-0.607L129.071,42.012z M128.518,35.56l4.086,3.804
		c0.273,0.229,0.824,0.299,1.654,0.212l-0.162,1.405c-0.686-0.035-1.074-0.012-1.17,0.069s-1.148,0.819-3.159,2.217l-0.769-0.616
		l3.303-2.339l-4.498-4.146L128.518,35.56z"/>
</g>
<g>
	<path fill="#FF0000" d="M82.357,28.467c-0.955,0.964-2.866,1.824-5.734,2.582l-0.218-0.496c2.636-0.844,4.398-1.736,5.29-2.677
		c0.888-0.94,1.513-1.941,1.871-3.003c0.356-1.061,0.561-2.092,0.61-3.093l0.369-0.054l1.055,2.001
		c-0.394,0.272-0.63,0.482-0.706,0.63c-0.077,0.149-0.28,0.63-0.61,1.442C83.951,26.612,83.31,27.502,82.357,28.467z M78.37,20.017
		l-0.539-0.059l-1.402-2.981l0.39-0.241l1.375,1.564l4.172-4.921l0.428,0.235L78.37,20.017z M81.43,11.108
		c0.392,0.294,0.627,0.508,0.703,0.642c0.076,0.135,0.004,0.661-0.218,1.58l-0.448-0.049c-0.553-1.065-1.401-2.164-2.55-3.296
		l0.22-0.354C80.273,10.321,81.037,10.814,81.43,11.108z M79.885,24.473c0.029-0.28,0.091-0.839,0.182-1.678
		c0.092-0.839,0.141-1.431,0.148-1.776c0.006-0.344-0.076-1.123-0.246-2.337l0.359,0.039l1.016,1.525
		c-0.339,3.107-0.662,5.524-0.972,7.25l-0.448-0.049l-0.506-2.035C79.697,25.064,79.854,24.752,79.885,24.473z M80.895,20.197
		l6.997,0.008c0.298,0.032,0.724-0.267,1.278-0.898l0.877,1.133c-0.535,0.445-0.832,0.821-0.896,1.128
		c-0.064,0.309-0.165,1.1-0.304,2.372c-0.139,1.274-0.372,2.585-0.7,3.932l-0.359-0.039l-0.636-1.672
		c0.293-0.471,0.477-0.906,0.552-1.308c0.073-0.4,0.226-1.657,0.456-3.77l-7.355-0.047L80.895,20.197z M85.347,17.287
		c0.716-0.738,1.236-1.483,1.561-2.235c0.323-0.75,0.521-1.436,0.588-2.058l1.243,1.928c-0.372,0.086-0.761,0.452-1.164,1.099
		c-0.404,0.648-0.991,1.307-1.76,1.978c-0.771,0.671-1.917,1.332-3.441,1.983l-0.23-0.402C83.561,18.79,84.63,18.026,85.347,17.287z
		 M87.898,10.964c-0.501,0.134-1.053,0.608-1.654,1.423c-0.605,0.815-1.74,1.917-3.404,3.307l-0.43-0.234
		c1.773-1.818,2.924-3.202,3.451-4.151c0.526-0.947,0.828-1.764,0.902-2.448l0.359,0.039L87.898,10.964z M90.345,31.883
		l-0.449-0.049c-1.334-1.654-3.046-3.191-5.132-4.614l0.141-0.456c2.068,1.043,3.483,1.811,4.248,2.302s1.213,0.823,1.346,0.995
		C90.63,30.231,90.579,30.838,90.345,31.883z M87.444,13.46c-0.3-0.032-0.583,0.063-0.849,0.285l-0.977-1.05l6.209-0.267
		c0.245-0.035,0.638-0.308,1.179-0.814l1.025,1.433c-0.515,0.259-0.907,0.529-1.18,0.813c-0.274,0.286-0.96,1.027-2.06,2.228
		l-0.339-0.226l1.562-2.658L87.444,13.46z M91.501,19.184c0.806,0.653,2.188,1.182,4.144,1.582l-0.051,0.467l-3.902-0.048
		l-4.56-5.684l0.42-0.521C89.376,17.129,90.692,18.529,91.501,19.184z"/>
</g>
<g>
	<defs>
		<rect id="SVGID_3_" width="154" height="154"/>
	</defs>
	<clipPath id="SVGID_4_">
		<use xlink:href="#SVGID_3_"  overflow="visible"/>
	</clipPath>
	<polygon clip-path="url(#SVGID_4_)" fill="#FF0000" points="84.37,101.506 73.79,85.618 56.121,90.934 66.599,76.288 
		57.641,61.182 73.968,66.679 85.338,52.905 85.361,70.701 101.729,76.656 85.287,82.429 	"/>
</g>
<g>
	<path fill="#FF0000" d="M46.039,19.13l0.236,0.179l-9.803,7.998c-0.248,0.174-0.517,0.476-0.806,0.907l-1.504-0.092l9.579-7.842
		c0.212-0.223,0.519-0.629,0.922-1.216L46.039,19.13z M41.258,32.883c0.693,0.356,1.084,0.598,1.172,0.725
		c0.09,0.128,0.223,0.742,0.398,1.837l-0.371,0.26c-1.515-1.533-3.213-2.747-5.096-3.645l0.137-0.438
		C39.314,32.109,40.567,32.528,41.258,32.883z M38.985,24.406l9.187,13.138l-0.818,0.572l-9.025-12.908L38.985,24.406z
		 M50.255,36.087l-9.294-13.292l0.818-0.572l9.133,13.061L50.255,36.087z M55.209,31.136l1.451,0.016l0.215,0.307L43.779,41.874
		c-0.248,0.174-0.518,0.476-0.806,0.906l-1.632-0.117l13-10.234C54.554,32.206,54.844,31.775,55.209,31.136z M47.233,23.214
		l0.352-0.131l1.757,1.403c-0.268,0.569-0.426,1.347-0.474,2.333c-0.048,0.988-0.351,2.667-0.907,5.038L47.49,31.5
		c0.286-2.334,0.411-4.006,0.374-5.009C47.826,25.488,47.617,24.396,47.233,23.214z"/>
</g>
<g>
	<path fill="#FF0000" d="M94.953,29.953l0.343-0.23l1.003,2.156c0.294-0.26,0.604-0.656,0.932-1.189l8.09-13.184
		c0.621-1.012,1.038-1.966,1.252-2.863l0.318-0.023l0.291,2.488c-0.409,0.117-0.686,0.295-0.832,0.534s-3.082,5.021-8.801,14.343
		c-0.41,0.556-0.998,1.295-1.766,2.217l-0.367-0.225L94.953,29.953z M96.573,25.007l-0.415-1.465l9.084,1.505l-0.172,0.443
		C100.155,25.043,97.322,24.881,96.573,25.007z M98.062,32.3l10.308,4.784c0.243,0.15,0.715,0.258,1.419,0.322l0.587,1.35
		l-0.221,0.194l-10.6-4.964c-0.196-0.121-0.539-0.221-1.028-0.301L98.062,32.3z M99.811,18.414c3.785,1.736,5.723,2.615,5.814,2.633
		c0.089,0.019,0.395,0.041,0.918,0.068l0.636,1.27l-0.22,0.195l-5.533-2.516c-0.197-0.121-0.539-0.221-1.029-0.301L99.811,18.414z
		 M102.838,30.281c0.408-0.336,0.681-0.59,0.822-0.762c0.137-0.171,1.023-1.697,2.658-4.582c1.635-2.883,2.51-4.417,2.625-4.604
		c0.113-0.187,0.367-0.929,0.761-2.228l0.366,0.225l-0.148,2.219c-3.76,6.566-6.137,10.497-7.133,11.792l-0.221-0.136
		L102.838,30.281z M103.818,30.002l4.578,1.93c0.194,0.12,0.643,0.213,1.346,0.277l0.44,0.93l-0.245,0.398l-6.561-2.815
		L103.818,30.002z M111.338,27.138l-0.122,0.364l-4.872-2.109l0.441-0.719l2.814,1.178c0.245,0.15,0.597,0.184,1.053,0.096
		L111.338,27.138z M109.481,20.278l5.313,2.38c0.245,0.15,0.742,0.053,1.494-0.293l0.415,1.465
		c-0.801,0.316-1.249,0.553-1.348,0.713c-0.098,0.16-2.076,2.943-5.932,8.35l-0.906-0.336l6.276-8.908l-5.754-2.65L109.481,20.278z"
		/>
</g>
<g>
	<path fill="#FF0000" d="M128.207,57.09c2.904-0.753,4.447-1.153,4.628-1.2c0.182-0.047,0.643-0.259,1.386-0.635l0.201,0.405
		l-0.435,0.938l-10.073,2.611l-3.13,0.629l-0.089-0.343l1.705-1.268c0.544,0.102,0.922,0.128,1.133,0.073
		S125.303,57.842,128.207,57.09z M125.967,66.006l9.801-2.54l-2.664-6.913l0.817-0.212l2.553,6.483
		c0.134,0.271,0.54,0.594,1.219,0.967l-0.731,1.29c-0.692-0.433-1.161-0.616-1.402-0.554c-0.242,0.063-3.57,0.926-9.982,2.588
		c-0.982,0.193-1.896,0.277-2.743,0.253l2.059-4.015l0.386-0.008l-0.716,2.842C125.015,66.191,125.481,66.132,125.967,66.006z
		 M134.775,55.341c2.646,0.871,4.547,1.354,5.703,1.453c1.154,0.097,2.224,0.049,3.207-0.145l0.089,0.343l-1.889,1.681
		c-0.361-0.396-0.977-0.648-1.843-0.759c-0.869-0.11-2.687-0.647-5.454-1.609c-2.768-0.964-5.618-2.62-8.553-4.975l0.387-0.375
		C129.343,53.007,132.128,54.469,134.775,55.341z M128.046,57.59l1.343,3.682c0.209,0.313,0.509,0.723,0.9,1.232l-0.393,1.477
		l-0.362,0.095l-2.305-6.274L128.046,57.59z M130.95,56.836l1.342,3.683c0.21,0.313,0.473,0.702,0.788,1.171l-0.347,1.28
		l-0.362,0.094l-2.238-6.016L130.95,56.836z M134.762,50.993l0.687-1.462l5.367,15.1c0.118,0.213,0.411,0.595,0.878,1.147
		l-0.527,1.327l-0.363,0.094l-5.322-14.927C135.406,51.984,135.166,51.559,134.762,50.993z"/>
</g>
<g>
	<path fill="#FF0000" d="M123.387,73.412l0.039-0.343l2.322-0.521c0.408,0.277,0.768,0.435,1.079,0.47
		c0.311,0.035,2.935,0.331,7.872,0.887c4.938,0.557,7.5,0.845,7.687,0.867c0.186,0.021,0.912-0.015,2.181-0.103l0.157,0.278
		l-2.165,0.799l-16.303-1.837L123.387,73.412z M126.082,86.746c-1.061,0.75-1.766,1.856-2.119,3.322l-0.467-0.052l0.201-3.452
		c7.077-3.082,10.783-4.721,11.12-4.914l0.109,0.707C130.09,84.533,127.142,85.998,126.082,86.746z M123.706,79.789l1.224-0.816
		l2.881,4.58l-0.495,0.205C125.386,81.338,124.185,80.018,123.706,79.789z M125.148,80.387l-0.453-1.007l17.234,1.942
		c0.311,0.035,0.976-0.007,1.996-0.122l0.156,0.278l-1.792,0.84L125.148,80.387z M130.586,84.04
		c0.851,1.368,1.491,2.253,1.918,2.647c0.428,0.396,0.969,0.746,1.627,1.053l-0.132,0.333l-2.107,0.284
		c-0.011-0.467-0.161-0.945-0.451-1.441c-0.29-0.497-0.774-1.361-1.452-2.596L130.586,84.04z M134.987,78.889
		c-0.604,0.048-1.303-0.031-2.096-0.236c-0.796-0.205-1.688-0.653-2.68-1.343l2.747-1.776l0.354,0.214l-1.208,1.513
		c0.408,0.277,0.857,0.474,1.349,0.587c0.49,0.111,1.035,0.16,1.636,0.141c0.599-0.02,1.468-0.342,2.608-0.966l4.17,1.512
		l-0.211-3.151l0.838,0.094l0.156,2.798c0.036,0.234,0.34,0.616,0.909,1.146l-1.131,0.828c-0.453-0.457-0.767-0.738-0.943-0.846
		c-0.176-0.106-1.434-0.668-3.772-1.685C136.499,78.452,135.59,78.84,134.987,78.889z M135.757,86.707l-0.916,0.593l-0.279-0.032
		l-0.03-6.432l0.932,0.104l-0.101,4.246C135.398,85.42,135.529,85.928,135.757,86.707z M142.338,81.89l0.027,4.781
		c0.098,0.241,0.422,0.712,0.973,1.413l-1.308,0.721c-0.434-0.629-0.775-0.942-1.026-0.941c-0.252,0.001-2.25-0.413-5.992-1.24
		l0.004-0.868l6.463,1.251l0.021-5.211L142.338,81.89z M139.199,81.275l-0.129,1.983c0.029,0.292,0.202,0.718,0.517,1.274
		l-0.88,1.116l-0.373-0.042l0.008-4.254L139.199,81.275z"/>
</g>
<g>
	<path fill="#FF0000" d="M118.243,103.825c-0.206,0.006-0.789-0.384-1.746-1.164l0.169-0.396c2.074,0.075,4.363-0.191,6.867-0.803
		l0.004,0.467C120.213,103.188,118.449,103.82,118.243,103.825z M120.526,92.986l1.75-0.279c-0.04,0.729,0.468,1.849,1.522,3.357
		s2.099,2.764,3.133,3.766c1.033,1.002,2.062,1.815,3.087,2.439l-0.101,0.236l-2.475,0.064c0.02-0.365-0.49-1.082-1.53-2.146
		c-1.039-1.067-2.488-3.088-4.345-6.059l-2.541,8.815l-0.723-0.216c1.477-5.846,2.205-8.864,2.186-9.06
		C120.472,93.71,120.484,93.404,120.526,92.986z M125.535,107.874c-1.57,0.417-2.78,1.381-3.627,2.888l-0.432-0.185l1.446-3.866
		l13.757-0.943l-0.573,1.342c-0.53-0.352-0.878-0.53-1.044-0.539s-1.403,0.102-3.709,0.332
		C129.047,107.131,127.107,107.454,125.535,107.874z M130.029,97.23c-0.755-1.256-1.567-3.254-2.437-5.991l0.565-0.131
		c0.96,2.525,1.899,4.421,2.821,5.687c0.921,1.266,1.763,2.355,2.526,3.273s1.547,1.549,2.353,1.893l-0.169,0.396l-2.406-0.095
		c0.077-0.34-0.257-0.949-1.003-1.828S130.783,98.486,130.029,97.23z"/>
</g>
<g>
	<path fill="#FF0000" d="M104.378,114.678l0.245-0.223l5.02,0.514l0.066,0.32l-3.456,0.6c0.297,0.572,0.563,1.008,0.793,1.306
		c0.232,0.296,3.745,4.196,10.542,11.702l6.026-6.596c0.204-0.186,0.403-0.535,0.603-1.052l1.486,0.045l-7.184,7.896
		c-0.162,0.147-0.176,0.622-0.039,1.428l-1.486-0.045c-0.01-0.668-0.131-1.127-0.361-1.381c-0.23-0.256-2.004-2.213-5.316-5.872
		c-3.314-3.66-5.162-5.741-5.541-6.24C105.398,116.58,104.932,115.778,104.378,114.678z M111.35,117.345l4.499-5.214l0.63,0.695
		l-3.163,3.623c-0.12,0.277-0.34,0.688-0.661,1.231l-1.053-0.058L111.35,117.345z M116.344,120.283
		c-0.121,0.193-0.154,0.646-0.104,1.358l-1.238-0.017c-0.01-0.668-0.108-1.104-0.297-1.312c-0.189-0.208-1.041-1.271-2.555-3.188
		l0.671-0.607l2.712,3.361l3.46-4.398l0.63,0.695L116.344,120.283z M119.193,116.438l-2.893-3.071l-1.827-2.14l0.245-0.223
		l1.744,0.823c0.131,0.471,0.333,0.837,0.604,1.099c0.272,0.258,0.755,0.749,1.446,1.473c0.691,0.721,1.1,1.133,1.225,1.23
		c0.125,0.096,0.564,0.438,1.314,1.022l-0.305,0.276L119.193,116.438z M121.879,118.053c0.205-0.184,0.406-0.492,0.604-0.926
		l1.484-0.08l-5.842,6.555c-0.12,0.193-0.32,0.586-0.601,1.177l-1.236,0.108l-0.313-0.224L121.879,118.053z"/>
</g>
<g>
	<path fill="#FF0000" d="M18.302,110.313l-1.64-2.521l0.557-0.362l5.556,0.161l0.319,0.49l-3.831,2.492l0.511,0.786l-0.557,0.362
		l-0.511-0.787l-1.245,0.81l-0.405-0.622L18.302,110.313z M18.859,109.95l2.587-1.683l-3.779-0.151L18.859,109.95z"/>
</g>
<g>
	<path fill="#FF0000" d="M34.87,126.12c-0.476,0.063-1.014,0.057-1.618-0.012l0.453-0.589c0.785,0.046,1.526-0.04,2.222-0.261
		l0.372,0.286l-4.099,5.323l-0.619-0.477L34.87,126.12z"/>
</g>
<g>
	<path fill="#FF0000" d="M25.434,114.064c-0.473-0.078-0.988-0.237-1.545-0.479l0.603-0.432c0.739,0.27,1.474,0.4,2.204,0.39
		l0.273,0.381l-5.458,3.917l-0.455-0.635L25.434,114.064z"/>
</g>
<g>
	<path fill="#FF0000" d="M26.957,119.899c0.486-0.488,0.929-0.824,1.328-1.006c0.397-0.183,0.8-0.264,1.207-0.242
		c0.406,0.021,0.777,0.185,1.112,0.494c0.334,0.309,0.498,0.717,0.492,1.224c-0.008,0.507-0.167,1.007-0.479,1.499
		c-0.313,0.49-0.734,0.996-1.266,1.516c-0.532,0.52-1.039,0.875-1.519,1.07c-0.481,0.193-0.946,0.209-1.394,0.041
		c-0.45-0.166-0.762-0.48-0.937-0.943c-0.177-0.463-0.208-0.89-0.093-1.281c0.112-0.392,0.277-0.762,0.494-1.111
		C26.117,120.81,26.469,120.39,26.957,119.899z M27.718,120.284c-0.543,0.474-0.957,0.959-1.241,1.459
		c-0.285,0.5-0.396,0.938-0.334,1.313c0.061,0.375,0.255,0.616,0.582,0.723s0.688,0.05,1.085-0.168
		c0.396-0.22,0.768-0.515,1.112-0.888s0.643-0.727,0.897-1.059c0.253-0.332,0.423-0.689,0.51-1.071
		c0.085-0.381,0.013-0.687-0.217-0.917c-0.231-0.23-0.552-0.305-0.962-0.225C28.738,119.534,28.261,119.811,27.718,120.284z"/>
</g>
<g>
	<path fill="#FF0000" d="M38.456,130.726c0.409-0.556,0.798-0.952,1.166-1.192c0.366-0.238,0.752-0.377,1.157-0.416
		s0.795,0.068,1.172,0.324c0.377,0.257,0.599,0.637,0.667,1.139c0.067,0.503-0.018,1.021-0.253,1.553
		c-0.236,0.532-0.579,1.094-1.028,1.686s-0.898,1.02-1.345,1.283c-0.446,0.262-0.904,0.346-1.372,0.246
		c-0.469-0.098-0.824-0.363-1.065-0.795c-0.242-0.432-0.335-0.85-0.281-1.254s0.163-0.795,0.326-1.172
		C37.76,131.749,38.046,131.281,38.456,130.726z M39.266,130.994c-0.468,0.548-0.805,1.09-1.012,1.626
		c-0.208,0.536-0.254,0.985-0.138,1.347c0.116,0.363,0.343,0.573,0.683,0.631c0.338,0.057,0.688-0.053,1.048-0.327
		c0.36-0.274,0.683-0.622,0.969-1.042s0.529-0.813,0.731-1.18c0.202-0.365,0.317-0.744,0.346-1.134
		c0.029-0.39-0.088-0.681-0.349-0.876c-0.262-0.193-0.59-0.219-0.985-0.079C40.164,130.102,39.733,130.445,39.266,130.994z"/>
</g>
<g>
	<path fill="#FF0000" d="M44.472,137.223l0.685,0.199c-0.054,0.35-0.022,0.676,0.093,0.977c0.116,0.302,0.334,0.523,0.657,0.662
		c0.322,0.142,0.636,0.133,0.943-0.022c0.306-0.156,0.523-0.398,0.652-0.727c0.129-0.328,0.124-0.634-0.014-0.917
		c-0.14-0.283-0.437-0.578-0.896-0.886l0.22-0.458c0.516,0.19,0.935,0.232,1.26,0.129c0.324-0.104,0.556-0.331,0.697-0.684
		c0.14-0.351,0.106-0.67-0.102-0.959c-0.208-0.287-0.499-0.449-0.872-0.484c-0.374-0.034-0.784,0.172-1.231,0.622l-0.582-0.41
		c0.344-0.354,0.706-0.614,1.088-0.777c0.382-0.163,0.795-0.166,1.241-0.011c0.445,0.157,0.789,0.388,1.033,0.692
		c0.243,0.306,0.354,0.646,0.33,1.025s-0.173,0.734-0.446,1.064c-0.275,0.33-0.703,0.528-1.284,0.596
		c0.26,0.299,0.412,0.632,0.452,0.998s-0.08,0.764-0.357,1.193c-0.279,0.429-0.662,0.7-1.149,0.813s-0.953,0.056-1.392-0.171
		c-0.441-0.226-0.76-0.553-0.958-0.98C44.339,138.279,44.316,137.784,44.472,137.223z"/>
</g>
<g>
	<path fill="#FF0000" d="M52.465,138.968c0.258-0.641,0.535-1.122,0.831-1.445c0.295-0.322,0.635-0.553,1.017-0.692
		c0.382-0.139,0.788-0.132,1.216,0.022s0.738,0.467,0.93,0.936c0.19,0.471,0.237,0.993,0.143,1.567
		c-0.096,0.574-0.288,1.204-0.576,1.89c-0.289,0.685-0.616,1.21-0.982,1.576s-0.79,0.561-1.268,0.582
		c-0.478,0.021-0.889-0.146-1.229-0.505c-0.342-0.357-0.537-0.739-0.585-1.144c-0.049-0.404-0.041-0.81,0.022-1.217
		C52.047,140.132,52.207,139.608,52.465,138.968z M53.317,139.024c-0.316,0.648-0.508,1.258-0.574,1.828
		c-0.068,0.571,0,1.017,0.203,1.339c0.202,0.322,0.475,0.469,0.817,0.439c0.343-0.028,0.654-0.222,0.935-0.577
		c0.279-0.356,0.506-0.773,0.678-1.251s0.31-0.919,0.414-1.324s0.122-0.8,0.053-1.185s-0.256-0.639-0.557-0.762
		c-0.303-0.121-0.627-0.065-0.974,0.169C53.963,137.937,53.632,138.378,53.317,139.024z"/>
</g>
<g>
	<path fill="#FF0000" d="M59.823,141.344c0.188-0.664,0.411-1.173,0.671-1.526c0.259-0.352,0.571-0.618,0.937-0.798
		c0.364-0.179,0.769-0.216,1.212-0.109c0.442,0.107,0.784,0.386,1.025,0.831c0.24,0.447,0.343,0.961,0.31,1.542
		c-0.034,0.582-0.156,1.229-0.369,1.94c-0.212,0.712-0.481,1.27-0.807,1.674c-0.326,0.403-0.725,0.643-1.198,0.715
		c-0.473,0.073-0.899-0.05-1.276-0.369c-0.379-0.319-0.614-0.677-0.705-1.075c-0.092-0.396-0.128-0.8-0.109-1.212
		C59.532,142.546,59.635,142.009,59.823,141.344z M60.675,141.309c-0.244,0.679-0.369,1.304-0.374,1.879
		c-0.006,0.575,0.11,1.011,0.346,1.31c0.236,0.298,0.522,0.415,0.86,0.349c0.337-0.065,0.626-0.291,0.867-0.675
		c0.24-0.384,0.42-0.822,0.54-1.316c0.12-0.493,0.209-0.946,0.269-1.361c0.06-0.414,0.035-0.809-0.075-1.184
		c-0.111-0.375-0.323-0.606-0.635-0.696c-0.313-0.089-0.631,0.002-0.95,0.272C61.202,140.156,60.919,140.631,60.675,141.309z"/>
</g>
<g>
	<path fill="#FF0000" d="M68.381,144.944c0.158,0.709,0.458,1.11,0.897,1.203c0.439,0.094,0.799,0.061,1.078-0.101
		c0.279-0.159,0.481-0.374,0.608-0.644s0.188-0.572,0.188-0.912c-0.002-0.338-0.083-0.629-0.245-0.868
		c-0.161-0.24-0.371-0.404-0.628-0.49c-0.258-0.087-0.55-0.097-0.878-0.029c-0.328,0.066-0.601,0.239-0.818,0.519l-0.661-0.101
		c0.057-0.154,0.342-1.264,0.855-3.332l3.084,0.104l-0.023,0.703l-2.499-0.085c-0.154,0.698-0.303,1.254-0.447,1.666
		c0.396-0.169,0.763-0.241,1.102-0.217c0.337,0.024,0.661,0.114,0.968,0.267c0.308,0.154,0.529,0.357,0.664,0.609
		c0.134,0.252,0.23,0.502,0.287,0.752c0.057,0.25,0.073,0.518,0.051,0.803c-0.023,0.286-0.091,0.577-0.206,0.872
		c-0.115,0.297-0.279,0.538-0.493,0.727c-0.215,0.188-0.475,0.335-0.777,0.442c-0.304,0.106-0.649,0.142-1.039,0.102
		c-0.39-0.039-0.756-0.194-1.099-0.467c-0.342-0.271-0.568-0.723-0.677-1.352L68.381,144.944z"/>
</g>
<g>
	<path fill="#FF0000" d="M75.395,143.308c-0.005-0.69,0.068-1.241,0.219-1.653c0.151-0.409,0.377-0.752,0.678-1.027
		c0.301-0.271,0.679-0.42,1.134-0.441c0.455-0.02,0.86,0.152,1.216,0.513c0.354,0.362,0.597,0.827,0.727,1.396
		c0.13,0.567,0.192,1.223,0.187,1.966s-0.109,1.354-0.31,1.832c-0.2,0.478-0.517,0.819-0.951,1.021
		c-0.435,0.202-0.878,0.203-1.329,0c-0.452-0.2-0.777-0.479-0.977-0.836c-0.198-0.355-0.345-0.732-0.441-1.133
		C75.45,144.543,75.399,143.998,75.395,143.308z M76.203,143.037c-0.045,0.719,0.009,1.354,0.164,1.908s0.387,0.94,0.697,1.162
		c0.31,0.219,0.617,0.252,0.923,0.096c0.306-0.157,0.521-0.455,0.645-0.891c0.123-0.436,0.175-0.907,0.151-1.414
		c-0.022-0.508-0.063-0.968-0.12-1.383c-0.058-0.414-0.191-0.786-0.402-1.116c-0.21-0.328-0.479-0.492-0.804-0.491
		c-0.326,0.002-0.604,0.178-0.837,0.525C76.389,141.783,76.249,142.318,76.203,143.037z"/>
</g>
<g>
	<path fill="#FF0000" d="M86.862,140.572l-3.349,0.265l-0.056-0.701l4.167-0.329l0.052,0.662c-1.065,2.069-1.714,4.106-1.947,6.109
		l-0.856,0.068C85.185,144.637,85.848,142.611,86.862,140.572z"/>
</g>
<g>
	<path fill="#FF0000" d="M93.074,144.989c0.405-1.044,0.723-1.983,0.953-2.813c-0.625,0.211-1.171,0.216-1.641,0.018
		c-0.469-0.199-0.787-0.521-0.955-0.969s-0.231-0.865-0.19-1.256c0.04-0.389,0.148-0.723,0.326-1.005
		c0.177-0.28,0.412-0.497,0.702-0.653c0.291-0.153,0.558-0.252,0.803-0.293c0.243-0.041,0.503-0.031,0.777,0.027
		c0.273,0.061,0.53,0.176,0.771,0.347s0.417,0.36,0.531,0.565c0.113,0.205,0.199,0.48,0.257,0.828
		c0.059,0.346,0.004,0.811-0.162,1.393s-0.607,1.806-1.324,3.669L93.074,144.989z M92.138,140.709
		c0.095,0.328,0.282,0.582,0.563,0.758c0.28,0.178,0.559,0.23,0.838,0.156c0.277-0.072,0.489-0.188,0.636-0.344
		c0.145-0.156,0.269-0.402,0.371-0.736c0.037-0.402,0.009-0.734-0.088-0.995c-0.098-0.261-0.27-0.462-0.518-0.606
		c-0.249-0.143-0.502-0.193-0.758-0.15c-0.159,0.002-0.352,0.073-0.578,0.217c-0.228,0.145-0.386,0.381-0.474,0.713
		C92.041,140.053,92.043,140.383,92.138,140.709z"/>
</g>
<g>
	<path fill="#FF0000" d="M101.036,142.711c-0.123-0.371-0.086-0.766,0.11-1.183s0.411-1.03,0.644-1.842
		c0.233-0.812,0.354-1.415,0.362-1.812s-0.056-0.708-0.19-0.936c-0.133-0.226-0.329-0.378-0.586-0.457
		c-0.256-0.078-0.506-0.054-0.75,0.072c-0.243,0.127-0.445,0.322-0.606,0.583c-0.161,0.263-0.233,0.587-0.217,0.974l-0.731,0.17
		c-0.032-0.633,0.051-1.138,0.25-1.514c0.198-0.375,0.498-0.658,0.899-0.85c0.231-0.121,0.45-0.203,0.659-0.246
		c0.207-0.041,0.44-0.037,0.699,0.012c0.259,0.05,0.509,0.181,0.75,0.392c0.239,0.213,0.418,0.512,0.533,0.9
		c0.115,0.39,0.109,0.911-0.018,1.567c-0.128,0.656-0.449,1.734-0.964,3.235l2.606-1.057l0.264,0.651l-3.656,1.482L101.036,142.711z
		"/>
</g>
</svg>
