<?xml version="1.0" encoding="utf-8"?>
<!-- Generator: Adobe Illustrator 15.0.0, SVG Export Plug-In . SVG Version: 6.00 Build 0)  -->
<!DOCTYPE svg PUBLIC "-//W3C//DTD SVG 1.1//EN" "http://www.w3.org/Graphics/SVG/1.1/DTD/svg11.dtd">
<svg version="1.1" id="图层_1" xmlns="http://www.w3.org/2000/svg" xmlns:xlink="http://www.w3.org/1999/xlink" x="0px" y="0px"
	 width="154px" height="154px" viewBox="0 0 154 154" enable-background="new 0 0 154 154" xml:space="preserve">
<g>
	<circle fill="none" stroke="#FF0000" stroke-width="3.5" stroke-miterlimit="10" cx="77.255" cy="76.744" r="74.745"/>
	<polygon fill="#FF0000" points="94.767,94.425 78.269,84.822 64.749,97.381 67.702,79.618 53.003,70.003 70.081,67.745 
		74.22,50.368 82.083,66.335 99.4,64.468 87.185,76.896 	"/>
	<g>
		<path fill="#FF0000" d="M27.123,120.072c0.003-0.122,0.021-0.186,0.083-0.241c0.042-0.037,0.13-0.02,0.21,0.028
			c0.139,0.116,0.264,0.173,0.471,0.155c1.898-4.378,1.827-7.847-0.02-10.935l0.282-0.225c0.61,0.604,1.323,0.783,1.952,0.488
			c0.074-0.041,0.119-0.033,0.143-0.007c0.023,0.027,0.059,0.067,0.053,0.145c0.424,3.991-0.055,7.088-2.093,10.515
			c0.086-0.028,0.205-0.062,0.335-0.081c4.491-1.117,9.429-1.77,13.437-0.884l-0.122,0.322c-4.439-0.289-10.074,0.457-14.729,2.269
			L27.123,120.072z M39.604,100.088c0.032-0.172,0.08-0.285,0.142-0.341c0.062-0.055,0.163-0.025,0.281,0.108l9.092,10.268
			c0.249,0.281,0.675,0.595,1.022,0.694l-0.437,1.053c-0.254-0.369-0.509-0.74-0.782-1.049l-4.119-4.651l-6.017,5.332l2.995,3.382
			c0.249,0.279,0.675,0.595,1.021,0.692l-0.436,1.056c-0.254-0.371-0.509-0.742-0.781-1.05l-3.255-3.676l-3.174,2.813l1.799,2.03
			c0.249,0.281,0.675,0.596,1.021,0.694l-0.436,1.054c-0.254-0.37-0.509-0.741-0.781-1.049l-4.155-4.692l-1.423,0.401l0.47-1.896
			c0.036-0.127,0.075-0.209,0.095-0.228c0.062-0.055,0.13-0.02,0.213,0.074l2.663,3.008l3.175-2.812l-2.628-2.969l-1.636,0.496
			l0.526-2.042c0.044-0.158,0.083-0.24,0.124-0.277c0.083-0.073,0.151-0.038,0.258,0.081l3.812,4.306l6.017-5.332l-0.923-1.043
			c-2.267,0.912-4.308,1.742-6.198,2.534l0.167-1.65c0.015-0.108,0.033-0.172,0.074-0.209s0.098-0.015,0.178,0.034
			c0.299,0.212,0.554,0.249,0.954,0.157c0.767-0.18,2.764-0.685,4.601-1.119l-2.356-2.66l-1.609,0.399L39.604,100.088z
			 M43.027,113.446c0.034-1.843,0.411-3.299,1.013-4c0.142-0.174,0.288-0.303,0.433-0.431c0.602-0.533,1.108-0.672,1.286-0.472
			c0.13,0.146,0.074,0.459-0.264,0.83c-1.23,1.329-1.802,2.48-2.167,3.949L43.027,113.446z"/>
		<path fill="#FF0000" d="M18.101,88.532c0.082-0.104,0.149-0.164,0.202-0.182c0.079-0.027,0.148,0.006,0.189,0.124l1.626,4.746
			c1.571-0.462,3.042-0.872,3.943-1.066c1.131-2.859,2.465-4.865,3.131-5.489c0.511-0.476,1.079-0.784,1.578-0.954
			c0.708-0.243,1.308-0.203,1.401,0.066c0.064,0.187-0.012,0.308-0.716,0.735c-0.988,0.622-3.708,3.12-4.84,5.547
			c4.085-0.739,7.738,0.086,10.146,1.979l-0.3,0.234c-4.577-2.149-7.352-2.294-14.069-0.26l1.071,3.125
			c0.122,0.355,0.395,0.81,0.677,1.034l-0.809,0.805c-0.092-0.439-0.185-0.881-0.317-1.27l-1.205-3.514
			c-1.854,0.578-4.141,1.344-7.073,2.365l0.72-1.831c0.05-0.111,0.085-0.18,0.137-0.198c0.053-0.018,0.149,0.006,0.225,0.056
			l0.695,0.404c1.422-0.47,3.27-1.064,5.024-1.589l-1.001-2.923l-1.829-0.204L18.101,88.532z M16.688,104.417
			c0.172-0.437,1.312-3.355,2.781-3.858c0.629-0.216,1.436-0.172,1.523,0.082c0.064,0.187-0.053,0.358-0.668,0.701
			c-0.939,0.511-2.465,1.787-3.312,3.077L16.688,104.417z M32.544,82.871c0.456,0.73,1.25,1.081,2.048,1.016
			c0.143-0.012,0.233-0.005,0.279,0.131c0.865,2.609,1.553,4.96,1.914,6.61c0.494,2.209,0.065,3.526-2.689,5.752
			c-0.232,0.175-0.367,0.296-0.338,0.381c0.075,0.219,4.231,0.287,5.215,0.252c0.143-0.012,0.239,0.013,0.256,0.063
			c0.012,0.033-0.003,0.076-0.044,0.128l-0.518,1.141l-5.004-1.175l-7.842,2.686l0.462,1.352c0.104,0.304,0.418,0.706,0.677,0.863
			l-0.803,0.82c-0.058-0.337-0.167-0.828-0.259-1.099l-0.48-1.403l-1.508-0.125l0.926-1.656c0.05-0.111,0.117-0.172,0.196-0.199
			c0.052-0.018,0.143-0.012,0.218,0.038l0.791,0.428l7.429-2.524c2.757-2.474,2.881-3.309,1.642-6.923
			c-0.718-2.095-1.727-4.354-2.937-6.431L32.544,82.871z"/>
		<path fill="#FF0000" d="M28.083,67.071c0.924-0.568,3.729-1.877,5.278-1.779c0.83,0.052,1.308,0.405,1.292,0.654
			c-0.017,0.267-0.441,0.384-1.467,0.354c-0.499-0.013-1,0.009-1.561,0.081l1.379,4.167c0.187,0.566,0.567,1.127,0.834,1.305
			c0.082,0.041,0.107,0.079,0.104,0.114c-0.002,0.036-0.06,0.068-0.145,0.099l-1.368,0.558l-0.656-3.281l-7.249-0.457l-0.099,1.569
			l1.55,0.098c0.332,0.02,0.494,0.102,0.668,0.417c0.101,0.168,0.148,0.296,0.144,0.368c-0.007,0.106-0.12,0.135-0.424,0.116
			c-0.139-0.008-0.276-0.035-0.47-0.047c-0.911-0.094-2.348-0.202-3.511-0.276l-4.372-0.275c-0.665-0.042-1.994-0.107-2.854-0.125
			l1.137-0.859l0.094-1.498l-1.909-0.121c-1.246-0.078-3.352-0.158-4.517-0.177l1.052-1.276c0.119-0.136,0.18-0.221,0.263-0.215
			c0.083,0.005,0.11,0.024,0.572,0.627l4.593,0.289l0.081-1.302l-1.16-0.538l1.199-0.962c0.088-0.084,0.174-0.115,0.256-0.109
			c0.056,0.003,0.137,0.043,0.215,0.121l0.526,0.463l4.096,0.257c1.383,0.088,2.437,0.119,3.409,0.126
			c0.11,0.007,0.194-0.005,0.277-0.001c0.332,0.021,0.437,0.117,0.637,0.47c0.1,0.185,0.148,0.296,0.144,0.368
			c-0.007,0.106-0.146,0.116-0.367,0.102l-1.079-0.068l-0.1,1.585l7.028,0.443l-0.374-2.01c-0.815,0.146-1.747,0.392-2.883,0.786
			L28.083,67.071z M12.19,71.097c0.2-0.095,0.315-0.159,0.398-0.153c0.111,0.007,0.133,0.098,0.123,0.258l-0.468,7.47
			c-0.023,0.373,0.055,0.898,0.229,1.214l-1.056,0.435c0.083-0.443,0.167-0.885,0.192-1.295l0.394-6.274l-1.422-0.805L12.19,71.097z
			 M14.961,72.542c0.088-0.065,0.145-0.097,0.2-0.094c0.056,0.003,0.109,0.042,0.187,0.119l0.389,0.437l0.803,0.05
			c0.415,0.026,2.384,0.078,2.661,0.096c0.36,0.023,0.466,0.101,0.668,0.418c0.073,0.165,0.122,0.276,0.116,0.364
			c-0.009,0.142-0.064,0.14-0.729,0.097l-0.238,3.796c0.858,0.054,0.941,0.06,1.14,0.431c0.1,0.185,0.148,0.296,0.145,0.349
			c-0.006,0.089-0.09,0.102-0.284,0.09c-0.664-0.042-1.714-0.127-2.379-0.168l-1.688-0.106c-0.636-0.04-1.634-0.085-2.492-0.121
			l1.027-0.884l0.22-3.511l-0.839-0.339L14.961,72.542z M18.648,73.991l-3.321-0.208l-0.238,3.796l3.321,0.209L18.648,73.991z
			 M23.915,68.848l-6.917-0.437l-0.099,1.57l6.917,0.436L23.915,68.848z M24.069,66.388l-6.917-0.436l-0.099,1.586l6.917,0.437
			L24.069,66.388z M21.82,72.133c0.117-0.082,0.174-0.113,0.229-0.11c0.083,0.005,0.137,0.044,0.188,0.118l0.31,0.378l9.961,0.628
			c1.439,0.09,1.902,0.245,2.432,1.083c0.024,0.055,0.05,0.092,0.047,0.127c-0.004,0.072-0.061,0.104-0.201,0.114
			c-0.67,0.047-1.017,0.257-1.733,1.501l-0.438-0.1c0.354-0.765,0.521-1.221,0.538-1.488c0.021-0.338-0.226-0.39-0.641-0.416
			l-10.266-0.647l-0.374,5.972l6.807,0.429c0.747,0.047,4.374,0.239,5.204,0.291c0.332,0.021,0.439,0.082,0.639,0.435
			c0.102,0.149,0.151,0.261,0.146,0.332c-0.007,0.124-0.176,0.149-0.591,0.123l-0.249-0.016c-1.492-0.13-3.788-0.293-5.226-0.383
			l-4.87-0.307c-1.024-0.064-2.77-0.139-3.712-0.162l1.254-0.959l0.351-5.597l-0.945-0.454L21.82,72.133z M27.631,74.272
			c0.17-0.061,0.285-0.108,0.34-0.104c0.111,0.007,0.134,0.08,0.126,0.205l-0.125,1.997l1.577,0.1
			c1.411,0.089,2.243,0.105,2.938,0.113c0.083,0.006,0.167-0.007,0.25-0.002c0.332,0.021,0.437,0.117,0.609,0.468
			c0.101,0.167,0.148,0.295,0.144,0.367c-0.008,0.125-0.176,0.15-0.591,0.124c-0.968-0.061-2.487-0.21-3.455-0.271l-1.521-0.096
			l-0.038,0.588c-0.023,0.375,0.081,0.937,0.228,1.25l-1.056,0.435c0.083-0.442,0.167-0.902,0.193-1.312l0.098-1.568
			c-1.877-0.619-3.3-0.978-4.562-1.218l0.97-0.852c0.089-0.084,0.146-0.116,0.202-0.113c0.028,0.001,0.053,0.039,0.075,0.13
			c0.037,0.307,0.571,0.645,3.334,1.768l0.05-0.803l-1.125-0.661L27.631,74.272z M22.94,78.199c1.046-0.74,2.096-1.085,2.649-1.05
			c0.526,0.033,0.983,0.277,0.967,0.526c-0.008,0.143-0.097,0.226-0.706,0.188c-0.636-0.04-1.787,0.138-2.75,0.453L22.94,78.199z"/>
		<path fill="#FF0000" d="M14.447,53.403c1.02-1.189,1.96-1.842,3.079-1.291c0.497,0.246,0.891,0.64,0.78,0.864
			c-0.04,0.08-0.113,0.104-0.508,0.088c-1.16-0.094-1.946-0.004-3.143,0.542L14.447,53.403z M23.528,41.705
			c0.074-0.023,0.164-0.019,0.189-0.006c0.075,0.037,0.076,0.098,0.037,0.238c-0.195,0.521-0.078,1.097,1.469,3.475l-0.261,0.091
			l-2.128-2.326l-2.848,5.768c1.271,1.624,2.038,2.7,2.777,4.021l-0.286,0.078c-1.591-2.101-3.771-4.452-6.108-6.542l1.45-0.62
			c0.089-0.055,0.18-0.05,0.229-0.026c0.05,0.025,0.076,0.098,0.078,0.218c0.001,0.499,0.027,0.572,0.312,0.932l1.127,1.413
			l2.666-5.4l-0.585-0.946L23.528,41.705z M17.472,49.716l3.745,4.378c0.881,1.033,1.39,1.443,1.962,1.726
			c0.223,0.11,1.348,0.525,1.597,0.648c0.87,0.43,1.009,0.837,0.819,1.221c-0.095,0.193-0.341,0.19-0.739-0.005
			c-0.348-0.171-1.912-1.262-2.31-1.458c-0.871-0.43-1.259-0.143-2.265,0.955l-0.316-0.236c0.328-0.476,0.56-0.821,0.702-1.109
			c0.364-0.738,0.152-1.061-0.496-1.938l-3.017-4.1L17.472,49.716z M30.392,43.897c-0.236,0.979-0.107,1.282,0.355,1.849
			c0.034,0.057,0.06,0.129,0.036,0.177c-0.016,0.033-0.056,0.052-0.097,0.072c-2.943,1.517-4.407,1.851-7.245,1.587
			c2.303,2.412,3.017,4.975,2.303,8.488l-0.33-0.083c-0.044-4.486-0.709-6.208-3.919-8.848l1.351-0.669
			c0.081-0.039,0.147-0.047,0.171-0.035c0.05,0.025,0.084,0.081,0.102,0.169l0.094,0.625c2.925,0.088,5.145-1.028,6.905-3.467
			L30.392,43.897z M31.068,47.977c0.122-0.06,0.237-0.043,0.312-0.005c0.075,0.037,0.159,0.118,0.21,0.263l0.276,0.694l2.014,0.994
			c0.895,0.442,1.574,0.757,2.319,1.065l0.224,0.11c0.348,0.171,0.458,0.325,0.505,0.667c0.038,0.238,0.057,0.387,0.017,0.467
			c-0.055,0.112-0.22,0.071-0.568-0.102c-0.249-0.123-1.924-0.989-2.296-1.172l-3.108-1.534l-3.321,6.729l3.555,1.754
			c0.771,0.38,1.425,0.683,2.012,0.933c0.075,0.038,0.157,0.058,0.207,0.083c0.522,0.258,0.486,0.958,0.422,1.085
			c-0.063,0.128-0.203,0.099-0.576-0.084l-0.273-0.135c-0.996-0.552-1.609-0.875-2.653-1.39l-2.114-1.042
			c-0.919-0.454-1.499-0.72-2.393-1.102l1.313-0.468l3.131-6.346l-0.732-0.959L31.068,47.977z M31.393,53.02
			c0.081-0.04,0.147-0.047,0.196-0.022c0.05,0.024,0.084,0.081,0.102,0.169l0.167,0.541c4.778,3.035,5.745,5.086,4.788,10.97
			l-0.403-0.059c0.205-4.362-0.396-6.652-2.16-8.279c-0.744-0.686-2.257-1.691-4.146-2.624L31.393,53.02z M35.123,54.859
			c1.915-2.063,3.934-3.399,4.949-3.575c0.483-0.101,0.978,0.023,1.326,0.196c0.448,0.221,0.725,0.537,0.646,0.697
			c-0.095,0.192-0.217,0.252-0.603,0.281c-1.377,0.097-3.864,1.002-6.027,2.564L35.123,54.859z"/>
		<path fill="#FF0000" d="M36.524,31.206c0.159,0.045,0.24,0.084,0.295,0.147c0.055,0.062,0.033,0.119-0.074,0.213l-2.176,1.905
			l3.434,3.921l0.834-2.868l0.376,0.186l-0.644,3.33l6.301,7.195c0.986,1.126,1.084,1.374,0.75,2.808
			c-0.022,0.056-0.031,0.1-0.058,0.124c-0.04,0.036-0.121-0.003-0.245-0.117c-0.697-0.605-1.078-0.714-2.912-0.288l-0.183-0.318
			c1.017-0.411,1.615-0.677,1.896-0.924c0.376-0.329,0.21-0.626-0.301-1.211l-5.461-6.236c-0.403,2.197-0.348,3.181-0.228,3.48
			c0.069,0.161,0.079,0.226,0.052,0.249c-0.027,0.024-0.072,0.026-0.167-0.001l-1.414-0.531l1.136-3.906l-3.799-4.338l-1.034,0.906
			c-0.282,0.247-0.598,0.67-0.699,1.017l-1.052-0.442c0.372-0.253,0.745-0.504,1.054-0.776l1.33-1.164l-1.571-1.793
			c-0.749-0.855-2.018-2.25-2.721-2.999L31,28.746c0.135-0.008,0.212-0.002,0.267,0.061c0.037,0.042,0.051,0.14,0.052,0.249
			l0.017,0.724l2.831,3.233l0.954-0.835l-0.403-1.489L36.524,31.206z M40.693,23.5c0.122,0.004,0.204,0.043,0.241,0.085
			c0.055,0.062,0.083,0.148,0.057,0.281l-0.086,0.851l6.119,6.986c1.388,1.586,2.548,2.856,3.41,3.758l0.073,0.084
			c0.311,0.355,0.303,0.508,0.185,0.943c-0.048,0.19-0.079,0.29-0.132,0.337c-0.081,0.07-0.185-0.023-0.332-0.189l-1.168-1.335
			l-4.043,3.542l1.023,1.167c0.256,0.293,0.256,0.402,0.175,0.769c-0.048,0.19-0.106,0.313-0.159,0.36
			c-0.108,0.095-0.263-0.028-0.573-0.382l-0.146-0.167c-1.051-1.254-2.682-3.143-3.723-4.332l-5.59-6.382
			c-0.767-0.876-1.749-1.969-2.342-2.592l1.995,0.353l3.626-3.176l-0.405-1.194L40.693,23.5z M43.871,29.377l-4.018-4.588
			L35.81,28.33l4.019,4.588L43.871,29.377z M48.657,34.842l-4.383-5.005l-4.043,3.541l4.384,5.005L48.657,34.842z M54.657,37.954
			c0.159,0.045,0.272,0.093,0.309,0.135c0.055,0.062,0.019,0.13-0.088,0.225l-7.052,6.176c-0.269,0.235-0.559,0.636-0.646,0.971
			l-1.057-0.476c0.359-0.24,0.705-0.47,1-0.727l6.058-5.306l-0.466-1.508L54.657,37.954z"/>
		<path fill="#FF0000" d="M53.271,13.955c0.12,0.077,0.197,0.139,0.224,0.218c0.035,0.104,0.002,0.175-0.09,0.293
			c-0.159,0.199-0.183,0.353-0.141,1.04c0.087,1.492,0.144,3.344,0.134,5.278l0.812,0.341c0.06,0.009,0.12,0.076,0.146,0.156
			c0.035,0.104,0.02,0.168-0.21,0.83l3.487,10.381c0.547,1.629,1.014,2.963,1.463,4.13l0.035,0.104
			c0.212,0.631-0.334,1.193-0.368,1.205c-0.135,0.045-0.257-0.148-0.425-0.646l-0.053-0.158c-0.487-1.562-0.973-3.065-1.432-4.432
			l-3.461-10.302c-0.049,2.21-0.184,4.448-0.519,6.198l-0.266-0.174c0.23-4.814,0.033-11.123-0.698-15.206L53.271,13.955z
			 M70.819,29.998c-0.127,0.014-0.246,0.054-0.347,0.088c-0.508,0.171-0.844,0.517-0.956,1.139c-0.024,0.096-0.049,0.134-0.1,0.151
			c-0.034,0.012-0.068,0.022-0.136-0.013c-2.578-1.503-4.295-3.472-6.139-6.712l-0.592,0.198l1.51,4.494
			c0.248,0.737,1.534,4.398,1.808,5.212c0.194,0.579-0.223,1.245-0.426,1.313c-0.102,0.034-0.154-0.065-0.225-0.276l-0.035-0.104
			c-0.532-1.751-1.194-3.723-1.936-5.931l-1.483-4.415c-0.004,3.803-0.898,7.818-2.368,10.679l-0.224-0.217
			c1.162-3.051,1.792-7.064,1.652-10.175l-2.965,0.995c-0.355,0.119-0.811,0.389-1.037,0.67l-0.801-0.814
			c0.44-0.09,0.882-0.179,1.271-0.31l4.269-1.432l-1.245-3.706l-2.151,0.722l0.247,0.735c0.097,0.289,0.107,0.432-0.084,0.759
			c-0.116,0.215-0.191,0.328-0.276,0.356c-0.084,0.027-0.146-0.098-0.243-0.387c-0.141-0.42-0.822-2.561-0.981-3.033l-1.28-3.811
			c-0.212-0.631-0.653-1.887-0.961-2.69l1.396,0.847l4.845-1.625l0.197-1.323l1.441,0.978c0.12,0.078,0.18,0.145,0.207,0.224
			c0.026,0.079,0.02,0.169-0.039,0.277l-0.323,0.664l1.139,3.39c0.141,0.42,0.873,2.486,1.032,2.958
			c0.229,0.683-0.343,1.226-0.343,1.226c-0.101,0.035-0.171-0.118-0.259-0.38l-0.327-0.973l-2.44,0.819l1.246,3.705L66.2,22.98
			l0.167-1.634l1.392,1.112c0.171,0.118,0.267,0.231,0.302,0.337c0.044,0.131-0.023,0.211-0.175,0.263l-4.438,1.489
			c2.583,3.986,4.948,5.358,7.276,5.162L70.819,29.998z M63.354,19.169l-2.013-5.992l-5.387,1.808l2.013,5.992L63.354,19.169z"/>
		<path fill="#FF0000" d="M90.057,13.614c0.128,0.231,0.189,0.374,0.182,0.485c-0.008,0.11-0.099,0.132-0.295,0.119l-9.092-0.625
			c-0.632,1.374-1.326,2.882-1.826,3.905l6.668,0.457l0.622-1.235l0.999,1.096c0.151,0.149,0.215,0.265,0.209,0.348
			c-0.005,0.083-0.064,0.162-0.199,0.292l-0.5,0.494l-0.875,12.778c-0.135,1.964-0.251,2.344-1.279,2.969
			c-0.093,0.049-0.148,0.073-0.201,0.069c-0.071-0.004-0.102-0.09-0.12-0.341c-0.062-0.921-0.395-1.306-2.001-2.166l0.098-0.382
			c1.003,0.263,1.619,0.416,2.012,0.444c0.57,0.039,0.623-0.208,0.659-0.734l0.29-4.231l-6.97-0.478l-0.161,2.35
			c-0.042,0.609-0.201,3.46-0.23,3.875c-0.028,0.415-0.107,0.521-0.485,0.801c-0.169,0.126-0.282,0.202-0.371,0.196
			c-0.107-0.007-0.113-0.173-0.088-0.533l0.017-0.249c0.147-1.63,0.336-4.119,0.444-5.695l0.577-8.408
			c-1.629,2.862-3.484,5.625-5.152,7.483l-0.171-0.373c2.76-3.422,5.344-8.442,7.111-12.794l-4.261-0.292
			c-0.374-0.026-0.898,0.049-1.215,0.223l-0.429-1.059c0.442,0.086,0.884,0.171,1.294,0.2l4.849,0.333
			c0.865-2.163,1.308-3.384,1.699-4.664l1.135,1.218c0.133,0.148,0.181,0.235,0.177,0.29c-0.006,0.083-0.08,0.134-0.263,0.177
			c-0.401,0.111-0.597,0.348-0.812,0.861c-0.235,0.567-0.573,1.322-0.973,2.185l7.023,0.482l0.951-1.603L90.057,13.614z
			 M85.448,26.747l0.258-3.762l-6.971-0.479l-0.257,3.762L85.448,26.747z M85.748,22.376l0.26-3.789l-6.971-0.479l-0.26,3.789
			L85.748,22.376z"/>
		<path fill="#FF0000" d="M105.628,16.629c0.011,0.099,0.018,0.165-0.008,0.214c-0.037,0.074-0.081,0.083-0.17,0.101
			c-0.736,0.034-1.357,0.435-2.362,1.483l-2.837,2.951c0.113,4.12-0.179,5.34-0.998,6.975c-1.131,2.255-3.319,2.399-3.432,2.343
			c-0.063-0.033-0.059-0.123-0.013-0.255c0.238-0.873,0.166-1.405-0.691-2.486l0.202-0.364c0.54,0.519,0.998,0.841,1.38,1.033
			c0.927,0.464,1.455,0.047,1.952-0.945c0.708-1.412,1.124-2.879,1.126-6.352l4.387-5.245l-2.635-1.32l-7.516,14.998
			c-0.895,1.785-1.748,3.529-2.238,4.584l-0.074,0.149c-0.174,0.347-0.287,0.414-0.69,0.46c-0.193,0.027-0.313,0.028-0.378-0.003
			c-0.111-0.056-0.069-0.221,0.117-0.593l0.112-0.223c0.715-1.347,1.787-3.446,2.458-4.785l6.634-13.237
			c0.484-0.968,1.248-2.569,1.638-3.428l0.467,1.659l2.188,1.097l1.077-0.794L105.628,16.629z M104.952,40.296
			c-0.847-0.424-1.322-0.353-1.951,0.107c-0.069,0.059-0.114,0.067-0.146,0.052c-0.032-0.016-0.067-0.065-0.091-0.139
			c-1.284-3.775-0.986-7.038,0.961-12.917l-1.342-0.671l-4.596,9.172l3.126-0.418l-0.078,0.395c-3.918,1.2-4.372,1.469-5.008,2.019
			c-0.057,0.034-0.085,0.05-0.116,0.034c-0.032-0.016-0.052-0.056-0.059-0.123l-0.03-1.813c0.704-0.05,1.505-0.61,1.939-1.479
			l7.33-14.625c0.82-1.637,1.72-3.511,2.064-4.239l0.503,1.865l4.119,2.064l1.125-0.77l0.334,1.842
			c0.026,0.107,0.021,0.197-0.016,0.271c-0.025,0.05-0.094,0.109-0.211,0.143l-0.86,0.282l-2.36,4.711
			c-0.273,0.545-1.411,3.014-1.623,3.436c-0.186,0.372-0.287,0.415-0.774,0.511c-0.166,0.01-0.27,0.019-0.334-0.013
			c-0.144-0.07-0.106-0.146,0.267-0.89l-3.065-1.537c-0.703,2.44-0.983,4.035-1.133,5.45c1.868-0.739,3.811-1.626,4.975-2.314
			l0.07,1.772c-0.002,0.124,0.005,0.188-0.02,0.238c-0.024,0.049-0.053,0.066-0.101,0.042c-0.032-0.016-0.15-0.138-0.167-0.146
			c-0.351-0.176-1.047-0.183-2.044,0.092l-2.74,0.766c-0.145,3.277,0.754,5.31,2.199,6.531L104.952,40.296z M107.399,28.558
			l1.987-3.966l-4.742-2.375l-1.987,3.966L107.399,28.558z M109.66,24.047l1.9-3.793l-4.741-2.376l-1.901,3.792L109.66,24.047z"/>
		<path fill="#FF0000" d="M118.035,42.589c0.017,0.104-0.012,0.198-0.053,0.235c-0.042,0.036-0.141,0.05-0.262,0.038l-0.562-0.058
			c-2.468,1.851-3.896,2.614-5.611,2.751c-2.741,0.221-5.877-1.414-7.384-2.73l0.323-0.304c2.429,1.537,4.934,2.228,6.642,2.168
			c1.972-0.051,3.287-0.693,6.82-3.725L118.035,42.589z M123.094,44.072c-0.016,0.109-0.044,0.204-0.107,0.258
			c-0.062,0.054-0.16,0.068-0.303,0.073l-0.756,0.017l-2.83,2.447c-0.881,0.762-1.405,1.215-1.905,1.696l-0.085,0.072
			c-0.293,0.254-0.981-0.118-1.005-0.145c-0.07-0.082,0.022-0.186,0.211-0.349c0.252-0.217,1.407-1.17,1.659-1.388l3.795-3.282
			l-5.237-6.052l-4.465,3.863c-0.211,0.181-1.151,1.042-1.298,1.169c-0.315,0.272-0.983-0.119-0.995-0.132
			c-0.069-0.082,0.003-0.167,0.212-0.35c0.231-0.199,1.974-1.659,2.33-1.968l3.313-2.865c0.733-0.634,1.183-1.046,1.567-1.449
			l-0.109,1.441l5.026,5.808l1.154-0.359L123.094,44.072z M114.401,45.591c1.196,2.909,1.274,4.777,0.996,5.727
			c-0.14,0.474-0.404,0.846-0.698,1.099c-0.419,0.363-0.906,0.478-1.059,0.302c-0.117-0.135-0.061-0.325,0.257-1.143
			c0.444-1.14,0.738-3.213,0.14-5.812L114.401,45.591z M126.942,44.453c-0.074,0.253-0.145,0.384-0.207,0.438
			c-0.104,0.092-0.185,0.042-0.313-0.106l-9.562-11.052c-0.245-0.283-0.681-0.616-0.993-0.724l0.428-1.03
			c0.238,0.361,0.501,0.748,0.77,1.058l4.278,4.945l2.075-1.795l-2.746-3.175c-0.233-0.269-0.657-0.589-0.958-0.682l0.439-1.018
			c0.227,0.347,0.477,0.721,0.733,1.019l2.993,3.458l1.845-1.596l-3.472-4.013c-0.233-0.27-0.656-0.588-0.958-0.683l0.439-1.018
			c0.228,0.347,0.478,0.721,0.734,1.019l3.718,4.295c1.194-1.033,1.53-1.323,2.585-2.306l0.115,1.53
			c0.01,0.18-0.007,0.289-0.07,0.344c-0.083,0.072-0.116,0.077-0.897,0.02l-1.195,1.034l3.344,3.864l1.519-0.321l-0.373,1.644
			c-0.054,0.235-0.121,0.412-0.184,0.466c-0.084,0.073-0.196,0.028-0.337-0.134l-4.43-5.12l-1.846,1.596l2.643,3.053l1.354-0.298
			l-0.326,1.488c-0.054,0.235-0.121,0.411-0.184,0.465c-0.084,0.073-0.196,0.027-0.336-0.134l-3.612-4.175l-2.076,1.796l3.847,4.445
			l1.719-0.259L126.942,44.453z"/>
		<path fill="#FF0000" d="M140.048,52.842c-0.087,0.179-0.17,0.282-0.249,0.308c-0.079,0.025-0.154-0.024-0.278-0.135
			c-0.339-0.32-0.551-0.344-1.191-0.34c-1.928-0.004-3.538-0.018-4.985-0.067l-0.427,1.005c-0.03,0.086-0.093,0.163-0.146,0.179
			c-0.079,0.026-0.148-0.007-0.282-0.057l-0.593-0.293l-10.215,3.367c-1.633,0.539-2.971,0.998-4.138,1.44l-0.185,0.06
			c-0.421,0.14-0.522,0.097-0.84-0.155c-0.155-0.119-0.247-0.22-0.275-0.305c-0.039-0.118,0.108-0.205,0.556-0.352l0.237-0.078
			c1.564-0.479,3.07-0.957,4.439-1.407l10.479-3.454c-2.381-0.137-4.36-0.387-6.693-0.821l0.17-0.282
			c5.093,0.483,10.119,0.5,15.415-0.08L140.048,52.842z M132.971,66.7c-0.134,0.213-0.264,0.351-0.343,0.376
			c-0.105,0.035-0.191-0.049-0.259-0.252l-1.672-5.071l-9.137,3.012l0.867,2.629l1.757,0.191l-1.147,1.656
			c-0.16,0.222-0.27,0.333-0.349,0.359c-0.104,0.035-0.186-0.032-0.253-0.236l-2.729-8.275c-0.117-0.356-0.385-0.813-0.664-1.041
			l0.817-0.796c0.087,0.441,0.175,0.883,0.303,1.273l1.131,3.425l9.136-3.011l-1.354-4.104c-0.117-0.356-0.385-0.813-0.664-1.041
			l0.817-0.795c0.087,0.44,0.174,0.882,0.303,1.271l1.477,4.477l7.478-2.465c-1.007-1.547-1.637-2.75-2.244-4.147l0.331-0.147
			c1.815,2.672,3.6,5.073,5.958,7.267l-0.949,1.103c-0.146,0.18-0.255,0.291-0.334,0.316c-0.079,0.027-0.122-0.015-0.145-0.083
			s-0.044-0.4-0.066-0.468c-0.056-0.169-0.182-0.373-0.301-0.559c-0.694-0.954-1.266-1.8-1.771-2.537l-7.688,2.534l1.097,3.323
			l1.707,0.133L132.971,66.7z"/>
		<path fill="#FF0000" d="M128.795,81.881c-2.54,1.995-5.614,3.321-6.729,3.346c-0.195,0.003-0.36-0.01-0.498-0.021
			c-1.217-0.091-1.628-0.553-1.603-0.891c0.018-0.23,0.412-0.31,1.414-0.323c0.391-0.007,0.839-0.062,1.375-0.165l-0.521-6.417
			c-0.169-2.198-0.306-2.604-0.689-3.043c-0.078-0.077-0.104-0.115-0.101-0.151c0.005-0.053,0.062-0.084,0.175-0.112l2.043-0.545
			c0.259,1.004,0.612,1.478,1.812,2.16c3.361,1.901,7.16,3.531,10.278,4.59l-1.151,1.274c-0.092,0.101-0.15,0.15-0.233,0.144
			c-0.056-0.005-0.133-0.082-0.205-0.23c-0.297-0.506-0.401-0.586-0.938-0.858c-3.914-1.942-7.328-3.883-9.76-5.572l-0.173,8.642
			c1.36-0.347,3.163-1.018,5.238-2.008L128.795,81.881z M142.816,80.268c-0.091,0.1-0.177,0.129-0.231,0.126
			c-0.056-0.005-0.106-0.062-0.179-0.211c-0.264-0.576-0.342-0.636-0.828-0.834c-4.285-1.809-9.45-4.867-11.438-7.292l0.371-0.116
			c3.604,3.102,8.893,5.631,13.654,7.029L142.816,80.268z M130.938,88.921c0.074-0.245,0.146-0.473,0.161-0.669
			c0.04-0.534-0.185-0.873-0.661-1.195c-0.079-0.06-0.104-0.098-0.101-0.15c0.003-0.036,0.035-0.087,0.093-0.119
			c4.261-2.332,7.633-3.169,14.126-3.756l-0.846,1.279c-0.062,0.085-0.119,0.117-0.176,0.112c-0.055-0.005-0.108-0.026-0.187-0.104
			l-0.543-0.543c-4.857,0.262-10.218,2.421-11.479,5.174L130.938,88.921z"/>
		<path fill="#FF0000" d="M133.128,113.103c-0.115,0.042-0.214,0.051-0.263,0.025c-0.05-0.024-0.074-0.098-0.108-0.215l-0.22-0.853
			l-17.019-8.666c-1.877-0.956-2.075-1.117-2.39-2.641c-0.024-0.072-0.001-0.121,0.016-0.153c0.024-0.047,0.09-0.054,0.254-0.01
			c0.979,0.277,1.463,0.243,2.92-1.278l0.338,0.191c-0.724,0.934-1.153,1.536-1.364,1.951c-0.34,0.668-0.076,0.822,0.541,1.138
			l17.514,8.917l4.815-9.473c0.17-0.335,0.306-0.847,0.271-1.206l1.141,0.02c-0.276,0.361-0.504,0.746-0.69,1.112l-4.815,9.474
			l0.886,1.133L133.128,113.103z M126.764,104.029c-0.099,0.01-0.164,0.017-0.214-0.009c-0.049-0.025-0.082-0.082-0.107-0.155
			l-0.26-0.772l-4.199-2.139c-0.914-0.467-1.557-0.793-2.248-1.084c-0.099-0.051-0.181-0.072-0.229-0.098
			c-0.272-0.139-0.307-0.256-0.366-0.627c-0.018-0.209-0.043-0.343-0.011-0.407c0.048-0.095,0.18-0.048,0.402,0.065l1.334,0.68
			l2.371-4.666l-1.729-0.881c-0.52-0.263-0.516-0.882-0.435-1.042c0.049-0.096,0.164-0.077,0.387,0.036
			c0.247,0.126,2.388,1.296,2.857,1.535l4.619,2.353c1.037,0.528,1.762,0.876,2.544,1.235l-1.745,0.373l-2.097,4.125l0.91,1.022
			L126.764,104.029z M121.408,99.76l5.534,2.817l2.371-4.665l-5.533-2.817L121.408,99.76z M129.787,108.234
			c-0.099,0.01-0.188,0.005-0.238-0.021c-0.049-0.025-0.05-0.086-0.009-0.166l4.921-9.68c0.17-0.335,0.306-0.846,0.271-1.205
			l1.141,0.02c-0.252,0.373-0.504,0.746-0.689,1.112l-4.258,8.374l1.027,1.345L129.787,108.234z"/>
	</g>
	<g>
		<path fill="#FF0000" d="M40.01,133.474l-0.808-0.483l2.002-3.347c-0.476,0.127-0.958,0.144-1.445,0.049l0.482-0.806
			c0.256,0.05,0.571,0.043,0.945-0.021c0.374-0.064,0.69-0.21,0.952-0.438l0.655,0.393L40.01,133.474z"/>
		<path fill="#FF0000" d="M47.031,137.123l-0.851-0.401l1.665-3.526c-0.462,0.172-0.939,0.235-1.435,0.19l0.401-0.85
			c0.26,0.024,0.573-0.013,0.938-0.113s0.668-0.276,0.904-0.528l0.69,0.326L47.031,137.123z"/>
		<path fill="#FF0000" d="M55.433,134.709c0.447,0.162,0.733,0.463,0.859,0.905c0.15,0.524,0.053,1.268-0.295,2.231
			c-0.347,0.961-0.746,1.597-1.2,1.908c-0.375,0.257-0.786,0.305-1.233,0.143c-0.449-0.161-0.743-0.482-0.881-0.961
			c-0.139-0.479-0.032-1.206,0.319-2.182c0.345-0.956,0.743-1.59,1.197-1.901C54.575,134.597,54.986,134.549,55.433,134.709z
			 M55.142,135.517c-0.107-0.038-0.217-0.035-0.327,0.01c-0.111,0.045-0.225,0.156-0.341,0.333c-0.151,0.229-0.334,0.643-0.55,1.239
			c-0.215,0.596-0.335,1.015-0.36,1.258c-0.025,0.242-0.011,0.416,0.046,0.52s0.139,0.175,0.245,0.214
			c0.106,0.038,0.216,0.035,0.328-0.01c0.11-0.045,0.224-0.156,0.34-0.333c0.15-0.228,0.333-0.64,0.549-1.235
			c0.214-0.596,0.335-1.016,0.359-1.259c0.026-0.242,0.011-0.416-0.044-0.521C55.331,135.627,55.249,135.556,55.142,135.517z"/>
		<path fill="#FF0000" d="M62.508,136.868c0.461,0.116,0.776,0.387,0.945,0.814c0.203,0.506,0.181,1.256-0.067,2.249
			c-0.247,0.991-0.581,1.664-1.001,2.02c-0.348,0.293-0.751,0.383-1.213,0.267c-0.464-0.115-0.788-0.404-0.975-0.867
			c-0.185-0.463-0.152-1.196,0.098-2.202c0.247-0.986,0.58-1.657,1-2.013C61.643,136.843,62.046,136.754,62.508,136.868z
			 M62.299,137.701c-0.11-0.027-0.219-0.014-0.324,0.042c-0.105,0.057-0.207,0.178-0.306,0.366
			c-0.127,0.244-0.268,0.674-0.421,1.288c-0.153,0.615-0.23,1.044-0.232,1.288c-0.001,0.244,0.032,0.415,0.099,0.513
			s0.155,0.16,0.266,0.188s0.219,0.013,0.324-0.042c0.106-0.056,0.208-0.179,0.306-0.366c0.127-0.242,0.268-0.67,0.421-1.284
			c0.153-0.615,0.23-1.045,0.231-1.288c0.001-0.244-0.031-0.416-0.098-0.515S62.411,137.729,62.299,137.701z"/>
		<path fill="#FF0000" d="M69.728,138.266c0.472,0.064,0.814,0.3,1.029,0.705c0.257,0.481,0.316,1.229,0.178,2.244
			c-0.138,1.012-0.396,1.718-0.774,2.117c-0.313,0.329-0.705,0.461-1.176,0.397c-0.474-0.064-0.828-0.316-1.063-0.757
			c-0.235-0.439-0.283-1.173-0.144-2.199c0.138-1.008,0.396-1.711,0.774-2.11C68.866,138.334,69.257,138.202,69.728,138.266z
			 M69.613,139.116c-0.113-0.016-0.219,0.011-0.318,0.077c-0.1,0.067-0.188,0.2-0.264,0.397c-0.1,0.257-0.193,0.698-0.278,1.326
			c-0.086,0.628-0.115,1.062-0.09,1.306c0.024,0.242,0.076,0.409,0.153,0.498c0.076,0.091,0.171,0.143,0.284,0.158
			c0.112,0.015,0.219-0.011,0.317-0.077c0.101-0.067,0.188-0.199,0.264-0.397c0.101-0.255,0.192-0.695,0.278-1.323
			c0.086-0.627,0.115-1.062,0.091-1.305c-0.026-0.243-0.077-0.409-0.154-0.501C69.82,139.185,69.725,139.132,69.613,139.116z"/>
		<path fill="#FF0000" d="M77.046,138.832c0.476,0.009,0.844,0.202,1.106,0.58c0.312,0.446,0.459,1.183,0.441,2.206
			c-0.018,1.021-0.191,1.753-0.52,2.194c-0.273,0.363-0.647,0.541-1.123,0.533c-0.478-0.009-0.858-0.217-1.144-0.626
			c-0.286-0.408-0.42-1.131-0.402-2.167c0.018-1.017,0.191-1.745,0.52-2.187C76.198,139.002,76.571,138.824,77.046,138.832z
			 M77.032,139.69c-0.113-0.002-0.216,0.036-0.307,0.115c-0.091,0.078-0.162,0.22-0.215,0.425c-0.069,0.267-0.109,0.717-0.12,1.351
			c-0.011,0.633,0.011,1.068,0.064,1.307c0.055,0.238,0.124,0.396,0.212,0.477c0.087,0.08,0.187,0.121,0.301,0.123
			s0.216-0.036,0.307-0.114c0.09-0.078,0.161-0.22,0.215-0.426c0.069-0.264,0.109-0.712,0.12-1.346s-0.011-1.069-0.065-1.308
			c-0.054-0.237-0.124-0.397-0.21-0.479C77.246,139.734,77.146,139.692,77.032,139.69z"/>
		<path fill="#FF0000" d="M84.372,138.506c0.473-0.052,0.863,0.094,1.17,0.436c0.364,0.405,0.603,1.117,0.713,2.135
			c0.11,1.016,0.03,1.763-0.241,2.241c-0.224,0.396-0.573,0.618-1.046,0.67c-0.475,0.051-0.878-0.108-1.213-0.479
			c-0.334-0.369-0.559-1.069-0.67-2.1c-0.109-1.011-0.029-1.755,0.242-2.234C83.552,138.78,83.899,138.557,84.372,138.506z
			 M84.466,139.358c-0.113,0.013-0.21,0.063-0.29,0.152c-0.081,0.089-0.134,0.238-0.161,0.449c-0.034,0.273-0.019,0.725,0.051,1.354
			c0.068,0.63,0.145,1.06,0.228,1.289s0.173,0.378,0.269,0.447c0.097,0.068,0.201,0.097,0.314,0.084s0.21-0.062,0.29-0.152
			c0.079-0.088,0.134-0.238,0.159-0.448c0.036-0.271,0.02-0.722-0.049-1.351c-0.068-0.63-0.144-1.06-0.227-1.289
			c-0.084-0.229-0.174-0.379-0.27-0.448C84.684,139.375,84.578,139.347,84.466,139.358z"/>
		<path fill="#FF0000" d="M91.589,137.251c0.462-0.111,0.867-0.017,1.215,0.283c0.414,0.354,0.741,1.029,0.981,2.025
			c0.24,0.993,0.256,1.744,0.048,2.254c-0.172,0.421-0.489,0.687-0.951,0.798c-0.464,0.112-0.886,0.006-1.265-0.317
			c-0.379-0.324-0.689-0.99-0.934-1.998c-0.238-0.987-0.254-1.736-0.046-2.246C90.81,137.629,91.127,137.363,91.589,137.251z
			 M91.79,138.086c-0.111,0.026-0.2,0.089-0.269,0.188c-0.067,0.099-0.102,0.254-0.101,0.466c0,0.275,0.074,0.722,0.223,1.337
			c0.148,0.616,0.278,1.032,0.392,1.249c0.111,0.217,0.22,0.353,0.324,0.408c0.104,0.056,0.211,0.07,0.321,0.044
			c0.11-0.027,0.2-0.089,0.269-0.188c0.067-0.099,0.102-0.253,0.101-0.465c0.001-0.273-0.073-0.718-0.222-1.334
			s-0.278-1.031-0.392-1.249c-0.111-0.217-0.22-0.353-0.324-0.41C92.009,138.074,91.901,138.059,91.79,138.086z"/>
		<path fill="#FF0000" d="M98.74,137.712c-0.268-0.02-0.488-0.102-0.662-0.247c-0.173-0.146-0.303-0.328-0.386-0.549
			c-0.144-0.376-0.142-0.732,0.004-1.069c0.146-0.336,0.438-0.588,0.879-0.755c0.436-0.166,0.82-0.172,1.155-0.019
			c0.334,0.154,0.573,0.42,0.716,0.796c0.089,0.234,0.112,0.464,0.072,0.688c-0.042,0.224-0.144,0.423-0.308,0.596
			c0.297,0.016,0.553,0.105,0.767,0.271c0.216,0.165,0.376,0.389,0.484,0.671c0.176,0.467,0.185,0.896,0.025,1.29
			c-0.159,0.395-0.463,0.677-0.911,0.848c-0.418,0.158-0.812,0.17-1.18,0.034c-0.437-0.16-0.748-0.488-0.938-0.983
			c-0.104-0.273-0.137-0.548-0.101-0.822C98.395,138.187,98.521,137.937,98.74,137.712z M98.551,136.669
			c0.073,0.192,0.181,0.324,0.319,0.394c0.141,0.07,0.293,0.074,0.458,0.012c0.168-0.063,0.28-0.168,0.339-0.315
			s0.051-0.317-0.021-0.51c-0.069-0.182-0.175-0.308-0.314-0.379c-0.141-0.072-0.292-0.077-0.455-0.015
			c-0.169,0.064-0.283,0.171-0.341,0.319C98.477,136.322,98.482,136.487,98.551,136.669z M99.291,138.861
			c0.102,0.267,0.242,0.45,0.424,0.553c0.181,0.102,0.364,0.117,0.55,0.047c0.181-0.069,0.304-0.197,0.368-0.387
			c0.064-0.188,0.045-0.418-0.058-0.688c-0.09-0.237-0.223-0.403-0.398-0.501s-0.356-0.111-0.542-0.04
			c-0.215,0.081-0.343,0.224-0.387,0.427C99.205,138.475,99.219,138.671,99.291,138.861z"/>
		<path fill="#FF0000" d="M107.292,132.534l-0.756,0.521c-0.115-0.173-0.237-0.281-0.366-0.324c-0.129-0.044-0.259-0.03-0.392,0.038
			c-0.176,0.093-0.278,0.258-0.31,0.496c-0.03,0.237,0.083,0.64,0.34,1.206c0.066-0.378,0.253-0.648,0.562-0.81
			c0.347-0.183,0.722-0.192,1.123-0.031c0.4,0.161,0.722,0.473,0.963,0.934c0.257,0.489,0.332,0.95,0.227,1.383
			c-0.107,0.433-0.365,0.756-0.773,0.971c-0.439,0.229-0.898,0.231-1.378,0.004c-0.479-0.227-0.942-0.769-1.391-1.623
			c-0.459-0.876-0.643-1.585-0.551-2.127c0.092-0.541,0.373-0.936,0.843-1.182c0.331-0.173,0.657-0.215,0.98-0.125
			C106.738,131.955,107.03,132.178,107.292,132.534z M106.45,135.523c0.156,0.298,0.339,0.495,0.548,0.592
			c0.21,0.097,0.395,0.104,0.555,0.02c0.154-0.081,0.249-0.214,0.281-0.4c0.034-0.187-0.029-0.432-0.188-0.733
			c-0.163-0.312-0.337-0.51-0.523-0.597s-0.363-0.087-0.529,0c-0.16,0.084-0.26,0.225-0.298,0.42
			C106.258,135.021,106.309,135.254,106.45,135.523z"/>
		<path fill="#FF0000" d="M112.459,132.525l0.688-0.608c0.166,0.196,0.34,0.314,0.521,0.355c0.181,0.041,0.346,0.011,0.496-0.09
			c0.16-0.108,0.252-0.267,0.271-0.476c0.021-0.209-0.047-0.427-0.2-0.655c-0.145-0.216-0.312-0.352-0.503-0.407
			c-0.191-0.055-0.362-0.031-0.514,0.07c-0.101,0.067-0.205,0.169-0.315,0.306l-0.385-0.759c0.216-0.135,0.343-0.294,0.383-0.476
			c0.038-0.182-0.001-0.361-0.121-0.539c-0.102-0.15-0.223-0.243-0.364-0.278c-0.142-0.034-0.28-0.007-0.415,0.085
			c-0.135,0.089-0.214,0.217-0.24,0.382c-0.025,0.165,0.018,0.353,0.128,0.562l-0.81,0.35c-0.132-0.305-0.202-0.572-0.211-0.803
			c-0.007-0.229,0.048-0.451,0.166-0.666c0.119-0.214,0.289-0.396,0.515-0.547c0.383-0.258,0.78-0.33,1.192-0.217
			c0.339,0.092,0.602,0.276,0.788,0.554c0.265,0.393,0.279,0.839,0.047,1.335c0.27-0.102,0.539-0.104,0.809-0.006
			c0.269,0.098,0.493,0.281,0.676,0.553c0.264,0.394,0.359,0.816,0.284,1.269c-0.074,0.453-0.307,0.81-0.695,1.071
			c-0.369,0.248-0.753,0.337-1.153,0.267C113.097,133.088,112.751,132.877,112.459,132.525z"/>
		<path fill="#FF0000" d="M121.164,127.897l-0.691-0.839l-1.55,1.278l-0.577-0.699l-0.538-4l0.61-0.503l2.179,2.643l0.471-0.388
			l0.578,0.702l-0.47,0.388l0.69,0.839L121.164,127.897z M119.894,126.356l-1.173-1.423l0.303,2.141L119.894,126.356z"/>
		<path fill="#FF0000" d="M122.629,120.787l-0.672-0.688l2.299-2.251l0.526,0.537c0.011,0.392,0.106,0.875,0.286,1.451
			s0.431,1.132,0.751,1.665c0.321,0.532,0.648,0.969,0.983,1.308l-0.648,0.635c-0.511-0.544-0.943-1.187-1.298-1.926
			c-0.354-0.739-0.587-1.482-0.698-2.229L122.629,120.787z"/>
	</g>
</g>
</svg>
