<?xml version="1.0" encoding="utf-8"?>
<!-- Generator: Adobe Illustrator 15.0.0, SVG Export Plug-In . SVG Version: 6.00 Build 0)  -->
<!DOCTYPE svg PUBLIC "-//W3C//DTD SVG 1.1//EN" "http://www.w3.org/Graphics/SVG/1.1/DTD/svg11.dtd">
<svg version="1.1" id="图层_1" xmlns="http://www.w3.org/2000/svg" xmlns:xlink="http://www.w3.org/1999/xlink" x="0px" y="0px"
	 width="154px" height="154px" viewBox="0 0 154 154" enable-background="new 0 0 154 154" xml:space="preserve">
<circle fill="none" stroke="#FF0000" stroke-width="3.5" stroke-miterlimit="10" cx="77" cy="77.002" r="75.112"/>
<polygon fill="#FF0000" points="89.765,99.286 75.813,86.375 59.957,95.646 66.676,79.028 54.48,66.504 71.563,68.014 
	79.354,52.025 83.53,69.244 100.76,71.186 86.198,80.609 "/>
<g>
	<path fill="#FF0000" d="M28.226,119.059l5.002-4.345l-2.803-3.228l-1.961,0.681l0.716-3.034l0.183,0.027l4.411,5.08l10.915-9.476
		l-3.813-4.393l-1.961,0.497l0.533-2.878l0.137-0.025l9.924,11.431l0.872,0.637l-0.361,0.869l-4.502-5.186
		c-2.789,2.42-5.047,4.413-6.776,5.976c-1.879,1.631-3.578,3.105-5.094,4.422c-3.032,2.633-5.306,4.606-6.822,5.923
		c-0.251-1.639-0.347-2.483-0.287-2.534c0.061-0.054,0.244-0.088,0.547-0.104C27.817,119.259,28.197,119.146,28.226,119.059z"/>
	<path fill="#FF0000" d="M16.524,100.259l-1.977-5.36l-1.768-0.268l1.552-2.06l0.113-0.042l2.828,7.667
		c2.93,0.052,5.265,0.229,7.001,0.533l-0.27,0.312c-3.065-0.191-6.87-0.062-11.413,0.386c0.582-1.206,0.859-1.732,0.83-1.581
		C13.709,100.164,14.743,100.303,16.524,100.259z M15.653,106.6h-0.386c0.296-1.288,0.698-2.17,1.209-2.642
		c1.099-0.734,1.951-0.86,2.557-0.376c0.031,0.084-0.165,0.25-0.586,0.5C17.214,104.915,16.284,105.754,15.653,106.6z
		 M17.283,93.961l1.237-1.519c0.091,0.014,0.228,0.034,0.408,0.062c0.41,0.179,0.727,0.228,0.953,0.145
		c0.467-0.126,1.2-0.347,2.193-0.668c1.057-0.39,1.771-0.652,2.147-0.792l-0.276-0.748L22.11,90.34l1.574-1.997l0.25-0.021
		l0.965,2.617l6.172-2.062l-0.23-0.625l-1.609-0.185l1.349-1.913l0.272,0.041l0.896,2.43c1.674-0.568,3.039-0.812,4.096-0.731
		c0.438,0.029,1.187,0.318,2.247,0.871c-1.371,0.46-2.053,1.395-2.046,2.809l-0.339,0.124c-0.127-1.273-0.328-2.049-0.601-2.327
		c-0.305-0.357-1.299-0.275-2.988,0.253l2,5.423l0.431,0.124c0.257,0,0.393,0.021,0.408,0.062c0.045,0.124-0.252,0.589-0.898,1.393
		l-0.136-0.021c-0.392-0.139-0.71-0.187-0.952-0.145c-0.166,0.015-1.492,0.363-3.981,1.043c-0.467,0.126-0.979,0.244-1.538,0.355
		l0.437,1.185l0.34,0.229l-0.812,0.582l-0.69-1.869l-7.146,1.856l0.831-1.228l-1.632-4.425L17.283,93.961z M17.986,102.481
		l0.044-0.229c7.724-1.337,12.205-2.188,13.439-2.549c1.086-0.307,2.593-0.861,4.521-1.667c1.852-0.777,2.96-1.139,3.324-1.084
		c0.273,0.514,0.141,0.963-0.4,1.351c-0.211,0.125-0.866,0.318-1.967,0.585c-1.958,0.486-3.12,0.82-3.482,1.001
		c-0.406,0.291-0.613,0.888-0.625,1.787l-0.226,0.084c0.061-0.068,0.075-0.145,0.044-0.229c-0.124-0.804-0.503-1.136-1.138-0.997
		c-2.519,0.362-5.115,0.754-7.785,1.173C20.251,102.236,18.334,102.495,17.986,102.481z M21.724,98.343l4.681-1.232l-1.839-4.985
		l-5.155,1.688l1.586,4.301C21.12,98.447,21.362,98.522,21.724,98.343z M21.083,97.304l-0.159-0.083
		c0.539-1.096,1.033-1.844,1.482-2.246c0.979-0.597,1.825-0.744,2.534-0.439c0.229,0.153,0.01,0.374-0.652,0.665
		C22.963,95.784,21.895,96.485,21.083,97.304z M21.922,105.845l-0.385,0.001c0.417-1.192,0.902-2.079,1.458-2.662
		c1.008-0.75,2.012-0.93,3.009-0.544c0.061,0.167-0.193,0.402-0.766,0.709C23.899,104.125,22.794,104.957,21.922,105.845z
		 M27.105,96.923l6.356-1.564l-2.023-5.486c-0.331,0.029-2.396,0.697-6.195,2.003L27.105,96.923z M27.527,95.28l-0.294-0.103
		c0.688-1.15,1.372-1.97,2.047-2.455c1.31-0.625,2.111-0.66,2.4-0.106c0.046,0.125-0.263,0.334-0.925,0.625
		C29.34,93.812,28.263,94.49,27.527,95.28z"/>
	<path fill="#FF0000" d="M13.485,79.223l-0.07-6.381l-1.938-0.94l2.392-1.604l0.122,0.067l0.099,9.058l8.464,2.858l-0.044-4.05
		c-3.291,0.083-5.378,0.152-6.262,0.207c0.634-0.923,1.109-1.522,1.426-1.8c0.081-0.001,0.242,0.089,0.485,0.269
		c0.324,0.226,0.485,0.316,0.485,0.27l3.854-0.042l-0.033-3.019l-1.696-0.874l2.032-1.464l0.241-0.002l0.059,5.353
		c4.658-0.052,7.75-0.108,9.274-0.171l2.41-0.027c0.725,0.221,1.373,0.786,1.946,1.694c0,0.046-0.041,0.07-0.12,0.07
		c-1.285,0.014-2.202,0.734-2.747,2.157l-0.361,0.004c0.152-0.688,0.267-1.26,0.342-1.719c-0.005-0.458-0.008-0.777-0.01-0.96
		c-0.082-0.045-1.004-0.059-2.771-0.039c-2.006,0.022-4.657,0.051-7.95,0.088l0.047,4.186c0.082,0.091,0.406,0.339,0.971,0.744
		c-0.397,0.324-0.957,0.628-1.676,0.911c-0.245-0.363-0.489-0.613-0.731-0.748c-1.854-0.71-4.393-1.574-7.618-2.591l0.044,4.047
		l0.369,0.683l-0.958,0.561l-0.061-5.49c-0.16-0.043-0.764-0.197-1.812-0.46c-1.369-0.351-2.616-0.68-3.745-0.988
		c0.952-1.062,1.469-1.617,1.547-1.665c0.162,0.044,0.242,0.135,0.244,0.272c0.165,0.274,0.448,0.477,0.85,0.609
		c0.565,0.177,1.048,0.331,1.451,0.464C12.682,78.98,13.165,79.136,13.485,79.223z M34.763,86.057l-0.24,0.071
		c-2.673-2.075-6.024-3.776-10.055-5.104c1.197-0.744,1.875-1.164,2.034-1.259c0.082,0.047,0.122,0.092,0.122,0.137
		c0.003,0.274,0.248,0.546,0.732,0.815C30.992,82.735,33.46,84.517,34.763,86.057z M25.252,75.593l-0.363-0.065
		c2.066-2.125,4.217-3.706,6.453-4.737c1.843-0.294,2.81-0.053,2.899,0.723c-0.08,0.093-0.359,0.187-0.84,0.284
		C30.68,72.468,27.962,73.734,25.252,75.593z"/>
	<path fill="#FF0000" d="M11.833,58.875l1.805-1.048l0.113,0.043l0.545,0.951l3.837,1.432l0.563-1.51l-0.981-0.815l2.021-0.593
		l0.544,0.952l8.351,3.116c0.337,0.476,0.448,0.866,0.334,1.172l-1.016-0.378l-0.563,1.51l5.644,2.105l-0.33-2.217
		c-0.575-0.064-1.342-0.077-2.301-0.036c-0.091,0.017-0.259,0.004-0.5-0.037l-0.088-0.108c1.721-0.704,3.11-0.982,4.17-0.837
		c1.337,0.549,1.749,1.051,1.236,1.509c-0.693-0.208-1.336-0.324-1.928-0.346c0.864,4.114,1.432,6.27,1.7,6.47l0.153,0.281
		l-2.188,0.005l0.097-3.704l-5.981-2.231l-0.563,1.51l2.031,0.758c0.321,0.52,0.396,0.896,0.222,1.13
		c-6.361-2.474-8.498-3.295-6.408-2.466c-1.053-0.393-2.105-0.786-3.16-1.179c-0.887-0.381-1.931-0.796-3.136-1.246l1.295-0.712
		l0.466-1.249L11.833,58.875z M18.438,49.444l2.771-0.536l0.088,0.108l-1.372,3.676l18.282,6.823l0.662-1.773l-1.212-1.574
		l2.659-0.579l0.113,0.041l-3.111,8.339l-0.103,1.309l-1.187,0.08L37.84,60.5l-18.283-6.822l-0.637,1.707l-0.054,1.178l-1.188,0.08
		l2.107-5.647L18.438,49.444z M18.491,61.359l-0.392,1.05c-0.039,0.335,0.13,0.572,0.506,0.713l7.223,2.695l0.563-1.511
		L18.491,61.359z M19.374,58.995l-0.563,1.511l7.9,2.947l0.563-1.51L19.374,58.995z"/>
	<path fill="#FF0000" d="M20.522,37.907l2.142-0.487c0.093,0.14,0.17,0.357,0.235,0.655c0.158,0.439,0.297,0.708,0.419,0.812
		l3.411,2.869l0.496-0.59l-0.837-1.438l2.562,0.324l0.047,0.13l-1.714,2.038l2.396,2.017c1.336-0.34,2.341-0.411,3.013-0.212
		c0.796,0.548,1.245,1.139,1.343,1.771c-0.151,0.179-0.516,0.115-1.099-0.191c-0.978-0.458-1.88-0.758-2.704-0.903l12.166,10.239
		c0.158,0.56,0.086,1.08-0.212,1.561c-2.46-2.191-4.564-4.053-6.317-5.589c-1.781-1.5-3.532-2.973-5.253-4.421
		c1.792,2.486,3.126,4.83,4.001,7.031l-0.412-0.072c-1.926-3.573-4.535-6.96-7.826-10.157l-0.903,1.072l-0.175,0.77l-1.146-0.323
		l1.896-2.252L20.522,37.907z M27.928,29.667l2.521,0.747c0.032,0.088-0.074,0.275-0.314,0.56c-0.331,0.271-0.543,0.459-0.634,0.566
		c-0.061,0.071-0.194,0.418-0.4,1.037c-0.209,0.374-0.418,0.81-0.626,1.305c1.542,1.909,2.654,3.333,3.334,4.271l2.797-3.325
		l-0.886-1.754l2.654,0.401l0.184,0.155L33.58,37.17c2.268,1.42,4.782,1.492,7.54,0.208l0.14,0.208
		c-0.361,0.43-0.369,1.064-0.027,1.902l0.047,0.131c-2.492,0.468-5.18-0.205-8.061-2.02l-0.947,1.126
		c2.072,3.149,3.338,6.321,3.798,9.517l-0.366-0.125c-0.639-2.857-2.008-5.721-4.109-8.588l-1.399,1.662l-0.22,0.823l-1.055-0.429
		l2.21-2.628c-1.204-1.563-2.297-2.817-3.283-3.77c-0.416,0.994-0.938,1.929-1.569,2.801l-0.414-0.257
		c1.131-2.589,1.804-5.137,2.022-7.642C27.885,29.845,27.898,29.703,27.928,29.667z M43.127,54.822l-0.369-0.31
		c0.131-2.027-0.39-3.9-1.566-5.623c-0.772-1.076-2.94-3.054-6.502-5.93l2.189-0.356c0.062,0.053,0.093,0.141,0.094,0.263
		c0.096,0.387,0.205,0.631,0.327,0.734c0.032,0.088,0.263,0.312,0.692,0.673c2.182,1.897,3.583,3.29,4.2,4.176
		C43.185,50.139,43.496,52.263,43.127,54.822z M37.312,40.219l1.914-0.405c0.062,0.053,0.124,0.166,0.187,0.341
		c0.218,0.366,0.357,0.575,0.418,0.625l8.387,7.058c0.309,0.505,0.254,1.008-0.167,1.508L37.312,40.219z"/>
	<path fill="#FF0000" d="M41.573,19.942l2.042,1.165l0.065,0.242l-6.527,3.901l-0.634,0.659l-0.903-0.583l6.12-3.656L41.573,19.942z
		 M42.317,23.567l1.732,0.648c0.044,0.162,0.03,0.403-0.041,0.727l-0.051,0.312l2.16,3.479c0.014,0.553-0.155,0.889-0.507,1.006
		l-0.494-0.828l-2.797,1.672l0.618,1.033c-0.026,0.485-0.236,0.797-0.627,0.937l-3.776-6.583l1.365,0.166l2.447-1.463
		c0.042,0.07,0.035-0.206-0.021-0.829C42.322,23.753,42.319,23.66,42.317,23.567z M42.89,25.189l-2.331,1.393
		c-0.429,0.166-0.441,0.499-0.033,1.002l1.421,2.378l2.797-1.672L42.89,25.189z M47.143,29.524l1.853,0.717l-0.209,1.106
		l5.805,9.582c0.336,0.828,0.296,1.6-0.118,2.316c-0.695-0.896-1.433-1.248-2.216-1.061l-0.186-0.311
		c1.135-0.305,1.6-0.674,1.392-1.111l-2.41-4.032l-2.098,1.254l2.657,4.445c0.053,0.531-0.076,0.888-0.387,1.074l-2.97-5.103
		l-0.816,0.488l-0.514,0.729l-0.847-0.756l2.214-1.324c-0.432-1.517-1.026-3.127-1.779-4.83l1.612,0.58
		c0.002,0.093-0.017,0.15-0.055,0.173c-0.115,0.162-0.147,0.417-0.1,0.76c0.002,0.094,0.07,0.429,0.203,1.002
		c0.092,0.507,0.228,1.221,0.409,2.142l0.875-0.524l0.034-1.001l1.437,0.684l-3.151-5.273l-4.254,2.543
		c-0.428,0.256-0.458,0.603-0.092,1.037l6.365,10.65c-0.025,0.576-0.173,0.945-0.445,1.108c-3.337-5.583-6.037-10.145-8.099-13.684
		l1.55,0.477l4.487-2.683L47.143,29.524z M44.278,16.923l1.834,0.025l0.062,0.104l-0.085,1.312l2.719,4.55l1.282-0.767l-0.269-1.243
		l1.853,0.718l-0.089,1.174l4.755,7.824c0.053,0.53-0.116,0.865-0.507,1.005l-0.742-1.241l-1.34,0.8l3.955,6.618l1.439-1.562
		c-0.97-0.917-1.657-1.537-2.059-1.857c-0.121-0.114-0.202-0.206-0.244-0.275l0.052-0.312c1.881,1.121,3.167,1.991,3.853,2.608
		c0.487,0.551,0.78,1.219,0.879,2.001c0.016,0.644-0.219,0.692-0.706,0.141c-0.163-0.183-0.327-0.414-0.491-0.688
		c-0.41-0.598-0.718-1.023-0.92-1.275c-1.682,2.127-2.764,3.803-3.245,5.026l-0.055,0.173l-1.396-1.411l2.255-2.049l-4.017-6.72
		l-1.224,0.73l0.742,1.241c0.13,0.483-0.039,0.819-0.507,1.004c-2.512-4.203-4.737-7.926-6.674-11.167l1.729,0.51l0.991-0.592
		L44.278,16.923z M44.433,34.652l-0.003-0.139c0.716,0.228,1.395,0.57,2.038,1.027c0.448,0.574,0.697,1.081,0.748,1.517
		c-0.025,0.577-0.221,0.602-0.59,0.072c-0.08-0.044-0.16-0.137-0.243-0.275C45.891,36.12,45.24,35.386,44.433,34.652z
		 M48.479,23.953l-0.816,0.489c-0.39,0.141-0.403,0.428-0.037,0.864l3.831,6.409l1.224-0.73L48.479,23.953z M50.52,22.734
		l-1.34,0.802l4.202,7.03l1.34-0.801L50.52,22.734z"/>
	<path fill="#FF0000" d="M55.058,12.456l0.083-0.264c1.218,0.071,2.048,0.388,2.491,0.951c0.559,1.113,0.624,1.96,0.191,2.544
		c-0.132,0.029-0.338-0.174-0.614-0.609C56.511,13.749,55.794,12.876,55.058,12.456z M59.458,12.263l0.249,0.194
		c-0.542,3.562-0.878,6.016-1.01,7.356c-0.083,0.263,0.056,1.138,0.417,2.62c0.183,0.866,0.291,1.375,0.324,1.531
		c-0.205,0.783-0.614,0.706-1.229-0.231c-0.078-0.147-0.125-0.589-0.142-1.325c-0.04-1.057-0.153-1.813-0.341-2.267
		c-0.199-0.285-0.695-0.548-1.486-0.793l-0.033-0.485c0.017,0.078,0.068,0.108,0.157,0.09c1.024,0.029,1.533-0.079,1.528-0.324
		C58.29,17.231,58.812,15.109,59.458,12.263z M62.024,13.567l5.646-1.195c0.043-0.009,0.141-0.317,0.29-0.923
		c0.11-0.351,0.18-0.572,0.208-0.66c1.207,0.896,1.904,1.567,2.093,2.02c-0.011,0.168-0.105,0.269-0.282,0.306
		c-0.781,0.248-1.534,1.392-2.257,3.433l-0.249-0.194c0.038-0.254,0.104-0.595,0.199-1.026c0.304-1.623,0.375-2.376,0.215-2.263
		l-4.118,0.872c0.798,0.489,1.317,0.872,1.561,1.147c0.005,0.246-0.094,0.432-0.299,0.556c1.851,3.714,4.353,5.153,7.508,4.32
		l0.074,0.354c-0.836,0.423-1.286,1.134-1.352,2.134c-2.531-0.368-4.679-2.538-6.446-6.516c-0.055,4.117-1.263,7.039-3.626,8.771
		l0.499,0.387l6.31-1.336c0.043-0.01,0.083-0.264,0.116-0.764c0.022-0.332,0.055-0.504,0.1-0.514
		c0.343,0.094,0.894,0.509,1.653,1.252c0.033,0.158-0.066,0.342-0.299,0.555l-0.083,0.263l1.364,6.114
		c-0.255,0.547-0.595,0.907-1.021,1.079l-1.572-7.425l-6.31,1.336c-0.161,0.117-0.216,0.293-0.166,0.528l1.405,6.966
		c-0.344,0.566-0.67,0.882-0.98,0.946l-1.671-8.879c-0.455,0.261-1.002,0.623-1.644,1.085c-0.133,0.028-0.222,0.047-0.266,0.058
		l-0.166-0.458c4.155-2.438,5.859-6.412,5.11-11.917l-1.661,0.353c-0.448,2.476-0.866,4.328-1.252,5.56l-0.316-0.181
		c0.652-3.257,0.853-6.46,0.604-9.608c1.167,0.492,1.782,0.772,1.843,0.841c0.034,0.158-0.08,0.386-0.339,0.688
		c-0.144,0.196-0.23,0.337-0.258,0.423c-0.039,0.255-0.078,0.509-0.116,0.764C62.052,13.151,62.035,13.401,62.024,13.567z
		 M60.563,40.103l-0.165-0.458c2.45-1.75,3.925-3.417,4.423-5.001c0.57-1.678,0.448-4.444-0.368-8.293
		c1.073,0.265,1.733,0.537,1.977,0.812c-0.028,0.088-0.078,0.182-0.15,0.277c-0.305,0.312-0.398,0.743-0.281,1.292
		C67.057,34.172,65.246,37.959,60.563,40.103z M67.088,32.565l-0.075-0.354c2.187,0.277,4.066,0.74,5.639,1.393
		c1.074,0.921,1.404,2.042,0.989,3.361c-0.089,0.019-0.264-0.151-0.523-0.506C71.655,34.798,69.646,33.5,67.088,32.565z"/>
	<path fill="#FF0000" d="M79.657,8.587l1.691,1.398c-0.063,0.155-0.377,0.524-0.942,1.108l-0.524,4.791l1.079,0.118l0.927-1.596
		l0.965,2.409l-0.014,0.12l-3.037-0.334l-0.63,5.747l3.003-1.851l0.15,0.501L79,23.905l-1.09,9.938
		c-0.22,1.592-0.857,2.612-1.907,3.063c-0.045-0.006-0.078-0.13-0.096-0.375c0.042-1.207-0.456-2.07-1.492-2.587l0.04-0.359
		c1.603,0.74,2.43,0.67,2.482-0.212l0.96-8.741c-1.05,0.855-1.76,1.504-2.127,1.948c-0.35,0.286-0.52,0.389-0.512,0.307
		c-0.208-0.183-0.362-0.845-0.464-1.989c-0.046-0.005,0.174-0.141,0.66-0.412c1.006-0.454,1.881-0.964,2.626-1.53l0.71-6.465
		l-1.62-0.178l-0.904,0.143l-0.165-0.988l2.767,0.304L79.657,8.587z M88.732,34.183l1.113,2.303l-0.014,0.119l-10.325-1.133
		c-0.09-0.01-0.342,0.003-0.756,0.039l-0.326-0.763l9.246,1.015L88.732,34.183z M87.405,32.583l0.329-2.993l-4.59-0.504
		l-0.356,2.627c-0.314,0.37-0.705,0.609-1.172,0.72c1.141-9.569,1.988-16.666,2.542-21.292l1.179,1.705l3.779,0.415
		c0.045,0.005,0.237-0.296,0.578-0.906c0.178-0.383,0.29-0.574,0.335-0.569c-0.009,0.081,0.064,0.249,0.218,0.508
		c0.514,0.704,0.845,1.226,0.989,1.563c-0.018,0.161-0.202,0.383-0.551,0.666l-0.242,0.337c-0.631,5.748-1.227,11.378-1.785,16.891
		c-0.055,0.075-0.108,0.151-0.162,0.225C87.993,32.405,87.63,32.608,87.405,32.583z M88.589,21.808l-4.59-0.504l-0.843,7.057
		l4.656,0.51L88.589,21.808z M84.844,14.853l-0.698,5.739l4.521,0.497l0.775-7.064l-3.779-0.415
		C85.132,13.471,84.857,13.884,84.844,14.853z"/>
	<path fill="#FF0000" d="M100.576,30.175l-2.812-1.361l-0.663-0.187l0.123-0.877l4.705,2.279l1.891-3.903l-1.896-0.918l-0.419,0.868
		c-0.781,0.157-1.215,0.17-1.302,0.039c0.525-1.084,2.249-4.487,5.172-10.21c0.231,0.56,0.44,1.062,0.627,1.509l4.277,2.072
		c-0.034,0.073,0.135-0.069,0.508-0.424c0.337-0.282,0.526-0.414,0.567-0.394c0.185,0.448,0.29,1.167,0.312,2.159
		c-0.112,0.125-0.321,0.246-0.629,0.365l-0.288,0.128l-3.405,7.184c-0.536,0.276-0.967,0.335-1.293,0.177l0.577-1.193l-1.894-0.917
		l-1.891,3.903l3.056,1.48l1.347-1.222l0.285,2.681l-0.053,0.108l-4.461-2.16c-1.116,3.654-0.717,6.879,1.196,9.681l-0.105,0.216
		c-0.687-0.241-1.298-0.227-1.834,0.05l-0.053,0.108c-0.993-2.623-0.85-6.033,0.43-10.231l-0.122-0.06l-5.251,10.84
		c-0.425,0.15-0.899,0.145-1.424-0.02L101.3,31.33c-3.916,3.724-7.22,5.872-9.91,6.442l-0.473,0.976
		c-0.466,0.129-0.899,0.144-1.302,0.039c1.236-2.346,4.013-7.871,8.331-16.577c-2.122,2.096-3.882,3.654-5.279,4.67l-0.069-0.168
		c4.469-4.347,8.142-8.815,11.017-13.4c0.627,1.197,0.927,1.877,0.897,2.041c-0.07,0.146-0.166,0.187-0.288,0.128
		c-0.391,0.078-0.749,0.352-1.075,0.817c-1.067,1.269-2.228,2.625-3.479,4.07c0.196,0.63,0.318,1.002,0.365,1.113
		c-0.035,0.073-0.111,0.126-0.227,0.157c-0.426,0.151-0.724,0.453-0.893,0.907c-0.244,0.506-0.809,1.615-1.688,3.331
		c-2.212,4.461-4.05,8.256-5.514,11.383C94.258,36.263,97.212,33.9,100.576,30.175z M110.149,20.225l-4.339-2.103
		c-0.326-0.158-0.554,0-0.682,0.474l-2.888,5.962l4.705,2.278L110.149,20.225z"/>
	<path fill="#FF0000" d="M104.28,42.999l0.388-0.294c0.247,0.584,0.533,1.037,0.854,1.355s0.569,0.454,0.748,0.403
		c0.113-0.114,0.694-0.668,1.744-1.664c1.13-1.14,2.6-2.623,4.409-4.449l-1.881-1.863c-4.093,3.744-7.489,5.917-10.19,6.521
		l0.025-0.314c1.653-0.51,3.848-1.953,6.584-4.328c2.477-2.18,6.822-6.467,13.032-12.863c0.047,0.275,0.127,0.804,0.237,1.593
		l1.496,1.482c-0.058,0.057,0.164-0.007,0.664-0.188c0.468-0.216,0.718-0.307,0.751-0.275c-0.132,1.225-0.239,1.912-0.319,2.058
		c-0.058,0.058-0.234,0.107-0.532,0.151c-0.477,0.095-0.697,0.157-0.665,0.189c-3.109,3.138-7.236,7.302-12.379,12.492
		c-1.552,1.628-2.44,2.558-2.665,2.786c-0.79,0.345-1.7,0.46-2.732,0.345c-0.032-0.033,0.01-0.105,0.122-0.22
		C104.901,44.913,105.002,43.943,104.28,42.999z M113.344,53.337l-0.388,0.295c-0.529-0.752-1.291-0.885-2.283-0.397
		c-0.035-2.409,0.143-4.324,0.533-5.747c-2.258,0.477-4.604,0.467-7.045-0.027l0.291-0.391c2.626,0.113,5.031-0.158,7.216-0.82
		c0.972-2.201,2.464-4.512,4.476-6.926l-0.097-0.097l-0.422-0.249l0.399-0.79l3.28,3.249c0.031,0.031,0.282-0.06,0.749-0.274
		l0.666-0.188c-0.06,0.509-0.205,1.267-0.44,2.276c-0.057,0.058-0.207,0.08-0.447,0.065c-0.541,0.031-0.839,0.075-0.895,0.132
		c-2.922,1.853-5.071,3.058-6.45,3.613C112.11,49.629,112.396,51.72,113.344,53.337z M116.918,33.816L115.085,32
		c-0.508,0.514-1.346,1.324-2.507,2.434c-0.792,0.799-1.302,1.312-1.526,1.539l1.881,1.864L116.918,33.816z M118.989,42.143
		l-2.557-2.533c-1.697,2.163-2.902,4.247-3.616,6.253C114.656,44.972,116.712,43.731,118.989,42.143z M123.48,38.285
		c-0.661,0.475-0.615,0.974,0.142,1.496c0.257,0.255,0.583,0.409,0.979,0.461c0.152,0.04,0.261,0.09,0.326,0.153
		c-0.253,0.768-0.516,1.355-0.79,1.761c-0.459-0.116-1.043-0.524-1.75-1.224c-1.271-1.033-1.204-2.098,0.201-3.192l3.477-3.51
		l-1.303-1.29c-0.289-0.286-0.66-0.201-1.112,0.254c-3.094,3.378-5.832,4.793-8.215,4.239l0.291-0.39
		c1.321-0.047,2.525-0.491,3.616-1.334c1.041-0.665,2.886-2.398,5.535-5.199l0.021,1.039c0.023,0.363,0.084,0.591,0.181,0.688
		l1.351,1.337c-0.058,0.057,0.148-0.021,0.616-0.236c0.436-0.248,0.67-0.354,0.702-0.323c-0.042,0.298-0.116,1.017-0.223,2.154
		c-0.146,0.083-0.413,0.159-0.799,0.227l-0.446,0.065L123.48,38.285z M121.496,29.195l-1.446-1.434
		c-0.29-0.286-0.617-0.213-0.979,0.217c-1.244,1.255-2.403,2.425-3.477,3.507l1.833,1.817L121.496,29.195z"/>
	<path fill="#FF0000" d="M116.832,59.861l0.218-0.102c0.219,0.846,0.388,1.393,0.504,1.638c0.152,0.328,0.278,0.594,0.374,0.799
		c0.482,0.273,3.804-1.061,9.964-4.002l-1.297-2.766c-6.452,3.077-11.479,3.513-15.089,1.307l0.27-0.277
		c2.529,0.662,4.662,0.86,6.4,0.596c1.758-0.225,4.399-1.115,7.929-2.67l-0.289-0.615l-0.536-0.574l0.729-0.717l2.481,5.286
		c0.695-0.027,1.1-0.017,1.212,0.031c-0.035,0.116-0.434,0.777-1.196,1.986c-0.186-0.015-0.525-0.079-1.023-0.195
		c-3.165,1.384-5.484,2.398-6.956,3.04c-1.348,0.532-2.258,0.859-2.732,0.983c-1.283,0.102-2.278-0.131-2.988-0.697
		c-0.02-0.042,0.044-0.096,0.188-0.164C116.176,62.243,116.789,61.28,116.832,59.861z M121.173,47.848l0.022-0.236
		c5.314-0.393,10.772-1.332,16.378-2.812c-0.301,1.44-0.533,2.175-0.696,2.202c-0.073,0.034-0.128,0.01-0.166-0.072
		c-0.282-0.219-0.751-0.273-1.408-0.164c-1.632,0.116-3.554,0.367-5.767,0.757c-0.089,0.191-0.192,0.439-0.314,0.747
		c-0.088,0.192-0.122,0.307-0.103,0.349c-0.073,0.035-0.201,0.044-0.385,0.03c-0.479-0.074-0.937-0.01-1.372,0.195
		c-1.455,0.682-2.7,1.24-3.736,1.678c-1.091,0.512-2.218,1.042-3.381,1.587c-2.254,1.058-4.688,2.201-7.305,3.43
		c-0.644-0.049-1.107-0.282-1.392-0.698c0.8-0.376,2.517-1.157,5.153-2.343c1.398-0.607,3.009-1.337,4.827-2.191
		c1.907-0.846,3.854-1.709,5.837-2.589C124.8,47.92,122.735,47.965,121.173,47.848z M122.618,52.344l0.132-0.285
		c4.472-0.3,9.496-1.409,15.073-3.326c-0.123,0.307-0.219,0.577-0.287,0.81c-0.146,0.819-0.268,1.225-0.358,1.218
		c-0.093-0.006-0.194-0.034-0.305-0.082c-0.314-0.102-0.875-0.065-1.677,0.113C130.318,51.93,126.126,52.448,122.618,52.344z
		 M131.586,60.961l-0.327,0.154c-0.436-0.546-1.063-0.751-1.886-0.615c1.399-3.257,4.992-6.468,10.78-9.634
		c-0.09,0.942-0.163,1.45-0.215,1.524c-0.073,0.035-0.257,0.021-0.552-0.041c-0.295-0.062-0.47-0.054-0.522,0.021
		C134.297,55.114,131.869,57.978,131.586,60.961z"/>
	<path fill="#FF0000" d="M140.19,71.418l0.444,5.821l2.233,0.782l-2.644,1.769l-0.12,0.009l-0.65-8.529
		c-1.476-0.342-3.12-0.761-4.928-1.259l0.412,5.417c0.004,0.043,0.418,0.195,1.242,0.45c0.166,0.078,0.292,0.137,0.377,0.176
		c-0.375,0.392-0.979,0.915-1.813,1.568c-0.162,0.013-0.369-0.085-0.627-0.292c-0.254-0.163-0.462-0.237-0.621-0.225
		c-5.524,0.421-9.968,0.782-13.327,1.083c-0.315,0.069-0.514,0.106-0.595,0.114c-0.968-0.018-1.772-0.546-2.416-1.587
		c-0.004-0.044,0.075-0.073,0.235-0.085c1.197-0.138,1.984-0.9,2.361-2.291l0.365,0.039c-0.144,1.282-0.207,2.035-0.189,2.263
		c0.021,0.27,0.231,0.39,0.631,0.359l4.444-0.339l-0.443-5.821l-6.486,0.494c-0.416-0.195-0.769-0.577-1.054-1.145l15.148-0.951
		c-2.652-0.979-5.132-2.356-7.441-4.131l0.225-0.222c4.29,2.397,9.091,4.119,14.407,5.167l-0.366-4.807l-0.434-0.92l1.056-0.42
		l0.48,6.296c1.468,0.251,3.217,0.48,5.247,0.689c-0.8,1.151-1.276,1.754-1.433,1.812c-0.084-0.04-0.172-0.123-0.261-0.253
		c-0.261-0.252-0.514-0.392-0.757-0.418c-0.169-0.079-0.455-0.147-0.861-0.207C141.625,71.762,141.011,71.627,140.19,71.418z
		 M129.57,76.313l-0.443-5.822l-3.845,0.293l0.444,5.822L129.57,76.313z M132.85,70.207l-3.122,0.238l0.443,5.822l4.084-0.311
		l-0.393-5.145C133.899,70.263,133.563,70.061,132.85,70.207z"/>
	<path fill="#FF0000" d="M127.746,96.643l0.924,0.272l0.868-2.929c-2.144-0.399-4.075-0.524-5.795-0.372
		c0.833,1.143,2.116,2.61,3.848,4.398c-0.72,0.163-1.438,0.328-2.156,0.494c-0.077-0.024-0.136-0.111-0.173-0.265
		c0.064-0.218,0.019-0.489-0.135-0.818c-0.397-0.922-0.808-1.798-1.23-2.631c-0.257-0.548-0.43-0.954-0.519-1.216
		c-2.774,0.311-5.116,1.434-7.029,3.368l-0.116-0.033c0.231-0.782,0.021-1.481-0.634-2.101c-0.062-0.066-0.134-0.11-0.212-0.133
		c3.634-2.087,8.39-2.447,14.267-1.083l0.405-1.366l-11.317-3.355l1.614,3.453l-0.5-0.007c-2.051-2.969-3.218-4.542-3.501-4.72
		l-0.212-0.134c0.643-0.188,1.272-0.331,1.887-0.432c0.078,0.022,0.149,0.067,0.212,0.134c0.283,0.461,0.616,0.748,1,0.862
		l23.445,6.949l-0.867,0.381c-0.654,0.229-0.95,0.379-0.886,0.444l-1.215,4.102c-0.013,0.043,0.397,0.354,1.231,0.932
		c-0.091,0.02-0.771,0.338-2.041,0.952c-0.078-0.022-0.232-0.21-0.462-0.562c-0.31-0.375-0.469-0.54-0.481-0.496
		c-2.862-0.802-6.108-1.717-9.739-2.745C127.88,97.461,127.719,97.011,127.746,96.643z M142.593,90.208l-0.578,1.953
		c-0.078-0.023,0.121,0.152,0.596,0.531c0.411,0.31,0.61,0.486,0.597,0.531c-0.821,0.227-1.592,0.424-2.31,0.589
		c-0.078-0.023-0.13-0.134-0.154-0.329c-0.231-0.352-0.386-0.538-0.462-0.562c-0.41-0.31-1.136-0.832-2.175-1.565
		c-1.514-1.11-2.656-1.92-3.425-2.431c-2.285,0.927-4.486,1.148-6.604,0.662c-2.876-0.758-4.357-1.977-4.445-3.654
		c0.014-0.043,0.096-0.042,0.25,0.004c1.039,0.166,1.925,0.004,2.657-0.486l0.212,0.132c-0.078-0.022-0.122-0.013-0.136,0.031
		c-0.643,0.753-0.841,1.284-0.597,1.594c1.27,1.651,4.156,2.081,8.663,1.292l6.6,3.587l0.579-1.954
		c0.104-0.348-0.089-0.547-0.577-0.597l-22.751-6.742c-0.372-0.44-0.609-0.914-0.712-1.415l26.659,7.973
		C144.095,89.521,143.467,89.806,142.593,90.208z M133.866,98.456l1.39-4.687l-4.504-1.335l-1.39,4.687L133.866,98.456z
		 M138.948,99.962l1.234-4.165c0.116-0.392-0.103-0.646-0.654-0.761l-3.579-1.061l-1.39,4.686L138.948,99.962z"/>
	<path fill="#FF0000" d="M115.292,97.802l-4.744,7.041c2.59,0.796,4.632,1.255,6.125,1.378l0.077,0.306
		c-2.161,0.123-4.315,0.027-6.463-0.284c-2.146-0.589-3.175-1.493-3.093-2.715c0.078-0.109,0.518,0.037,1.314,0.44
		c0.667,0.311,1.189,0.545,1.568,0.705c2.696-5.697,3.944-8.615,3.748-8.755l0.021-0.235c1.061,0.312,1.846,0.596,2.354,0.85
		l-0.079,0.111c-0.316,0.441-0.162,1.189,0.463,2.251c2.537,4.04,5.098,7.432,7.681,10.172c-1.611,0.182-2.483,0.227-2.613,0.133
		c-0.04-0.085-0.032-0.163,0.021-0.235c0.146-0.343,0.042-0.751-0.31-1.224C119.552,105.163,117.527,101.851,115.292,97.802z
		 M116.873,115.048l-0.254-0.267c0.369-0.793,0.379-1.564,0.028-2.317c3.944-0.684,9.179,0.837,15.7,4.558
		c-0.237,0.052-0.44,0.13-0.61,0.231c-0.866,0.382-1.307,0.512-1.318,0.393c-0.065-0.048-0.143-0.215-0.233-0.502
		c-0.13-0.372-0.241-0.562-0.332-0.571C124.795,113.842,120.469,113.334,116.873,115.048z M123.634,99.598l0.413,0.045
		c2.259,4.845,5.509,9.479,9.748,13.906c-0.628,0.051-1.141,0.074-1.532,0.072c-0.682,0.124-1.057,0.162-1.121,0.116
		c-0.039-0.084-0.053-0.205-0.038-0.361c0.042-0.471-0.043-0.838-0.25-1.099C127.19,107.598,124.785,103.372,123.634,99.598z"/>
	<path fill="#FF0000" d="M101.079,112.789l0.28,0.391c-2.341,1.085-3.233,1.821-2.675,2.212c5.087,7.024,9.332,12.875,12.734,17.549
		l8.06-5.771l0.356-0.552l0.821,0.448l-8.665,6.207c-0.047-0.065,0.001,0.195,0.145,0.785c0.18,0.561,0.252,0.857,0.215,0.883
		c-0.759-0.05-1.52-0.296-2.281-0.736c-0.048-0.065-0.048-0.262-0.005-0.59c-0.002-0.394-0.028-0.622-0.074-0.688
		c-8.21-11.308-12.45-17.111-12.721-17.41c-0.637-1.123-0.586-2.296,0.153-3.518C98.239,113.292,99.457,113.557,101.079,112.789z
		 M107.697,121.68l-4.404-6.032c0.023-0.513,0.154-0.951,0.392-1.317l1.263,1.762l3.644-2.608l-1.964-2.742
		c0.161-0.708,0.334-1.128,0.518-1.26l7.52,10.616l-1.891-0.424l-3.312,2.372c-0.037,0.025,0.049,0.262,0.255,0.706
		c0.17,0.47,0.261,0.752,0.271,0.843c-0.936-0.219-1.673-0.432-2.211-0.639c-0.048-0.065-0.072-0.295-0.075-0.687
		C107.735,121.85,107.733,121.653,107.697,121.68z M108.875,121.577l3.423-2.452c0.185-0.132,0.163-0.315-0.06-0.549l-3.227-4.506
		l-3.644,2.609L108.875,121.577z M111.773,128.538l-2.437-1.069l-0.07-0.099l8.004-5.731l0.231-0.61l0.892,0.547l-6.954,4.98
		L111.773,128.538z"/>
</g>
</svg>
