<?xml version="1.0" encoding="utf-8"?>
<!-- Generator: Adobe Illustrator 14.0.0, SVG Export Plug-In . SVG Version: 6.00 Build 43363)  -->
<!DOCTYPE svg PUBLIC "-//W3C//DTD SVG 1.1//EN" "http://www.w3.org/Graphics/SVG/1.1/DTD/svg11.dtd">
<svg version="1.1" id="图层_1" xmlns="http://www.w3.org/2000/svg" xmlns:xlink="http://www.w3.org/1999/xlink" x="0px" y="0px"
	 width="154px" height="154px" viewBox="0 0 154 154" enable-background="new 0 0 154 154" xml:space="preserve">
<polygon fill="#FF0000" points="92.85,100.389 77.487,88.891 62.529,99.859 67.542,82.463 53.977,71.156 71.295,70.883 
	77.443,54.011 83.441,70.866 100.951,71.013 87.313,82.004 "/>
<circle fill="none" stroke="#E71F19" stroke-width="3.5" cx="77.641" cy="77.556" r="74.25"/>
<g>
	<path fill="#FF0000" d="M35.959,127.414c-0.376,0.072-0.807,0.098-1.292,0.072L35,126.994c0.629-0.003,1.216-0.109,1.761-0.32
		l0.311,0.209l-3.003,4.458l-0.519-0.349L35.959,127.414z"/>
	<path fill="#FF0000" d="M42.384,131.417c-0.369,0.103-0.797,0.158-1.283,0.171l0.293-0.517c0.627-0.052,1.205-0.203,1.731-0.455
		l0.326,0.185l-2.653,4.676l-0.544-0.31L42.384,131.417z"/>
	<path fill="#FF0000" d="M47.188,135.482c0.252-0.491,0.508-0.855,0.768-1.092c0.259-0.234,0.546-0.395,0.861-0.478
		c0.314-0.083,0.636-0.047,0.967,0.106c0.33,0.153,0.554,0.426,0.672,0.813c0.117,0.388,0.117,0.808-0.001,1.258
		c-0.118,0.451-0.317,0.938-0.596,1.464c-0.279,0.524-0.579,0.92-0.897,1.185c-0.319,0.266-0.67,0.389-1.053,0.37
		c-0.382-0.017-0.697-0.182-0.943-0.49c-0.246-0.311-0.374-0.629-0.382-0.955c-0.009-0.325,0.027-0.648,0.107-0.969
		C46.769,136.379,46.935,135.975,47.188,135.482z M47.862,135.589c-0.299,0.493-0.497,0.966-0.591,1.415
		c-0.096,0.45-0.074,0.811,0.064,1.082s0.344,0.407,0.619,0.409c0.275,0.003,0.537-0.129,0.787-0.392
		c0.249-0.265,0.459-0.58,0.631-0.947c0.172-0.368,0.314-0.709,0.427-1.024c0.112-0.315,0.156-0.629,0.128-0.94
		c-0.027-0.311-0.157-0.526-0.388-0.646c-0.232-0.12-0.494-0.099-0.788,0.063C48.457,134.77,48.161,135.098,47.862,135.589z"/>
	<path fill="#FF0000" d="M54.195,138.557c0.208-0.513,0.431-0.896,0.669-1.152c0.238-0.258,0.51-0.441,0.815-0.553
		c0.306-0.108,0.63-0.103,0.973,0.022c0.343,0.124,0.59,0.375,0.741,0.752c0.15,0.376,0.187,0.795,0.108,1.254
		s-0.234,0.962-0.467,1.509c-0.233,0.549-0.497,0.967-0.792,1.26c-0.295,0.291-0.634,0.445-1.016,0.461
		c-0.383,0.016-0.71-0.119-0.982-0.408c-0.273-0.286-0.427-0.592-0.464-0.917c-0.038-0.323-0.03-0.647,0.022-0.974
		C53.856,139.484,53.986,139.066,54.195,138.557z M54.876,138.604c-0.255,0.518-0.411,1.004-0.466,1.461
		c-0.056,0.455-0.003,0.813,0.158,1.07c0.16,0.26,0.378,0.377,0.652,0.355c0.274-0.022,0.524-0.176,0.75-0.459
		c0.225-0.284,0.407-0.616,0.546-0.999c0.139-0.382,0.251-0.733,0.336-1.058c0.084-0.324,0.1-0.641,0.046-0.949
		c-0.054-0.308-0.202-0.512-0.443-0.609c-0.241-0.098-0.501-0.055-0.78,0.132C55.396,137.734,55.131,138.087,54.876,138.604z"/>
	<path fill="#FF0000" d="M61.467,140.994c0.157-0.529,0.342-0.936,0.554-1.213c0.212-0.278,0.464-0.488,0.759-0.629
		c0.294-0.139,0.617-0.162,0.971-0.072c0.353,0.091,0.623,0.316,0.81,0.677c0.187,0.359,0.264,0.772,0.23,1.237
		s-0.14,0.98-0.317,1.548c-0.179,0.567-0.401,1.01-0.665,1.33c-0.266,0.317-0.588,0.504-0.967,0.556
		c-0.38,0.055-0.719-0.05-1.017-0.31c-0.3-0.259-0.483-0.548-0.551-0.866s-0.092-0.645-0.073-0.971
		C61.221,141.952,61.309,141.523,61.467,140.994z M62.149,140.977c-0.203,0.539-0.311,1.039-0.321,1.498
		c-0.011,0.461,0.076,0.812,0.262,1.051c0.185,0.242,0.414,0.34,0.684,0.289c0.271-0.047,0.504-0.225,0.701-0.528
		c0.196-0.304,0.346-0.652,0.447-1.047c0.102-0.395,0.178-0.755,0.231-1.087c0.052-0.329,0.037-0.646-0.047-0.946
		c-0.084-0.302-0.25-0.489-0.5-0.565c-0.25-0.074-0.504-0.005-0.763,0.209C62.583,140.061,62.353,140.438,62.149,140.977z"/>
	<path fill="#FF0000" d="M68.956,142.688c0.099-0.541,0.238-0.965,0.418-1.265c0.18-0.301,0.408-0.537,0.686-0.708
		c0.277-0.17,0.596-0.23,0.957-0.179c0.36,0.052,0.654,0.246,0.879,0.583c0.225,0.338,0.347,0.74,0.364,1.205
		c0.017,0.466-0.031,0.99-0.146,1.572c-0.115,0.582-0.287,1.047-0.516,1.395c-0.229,0.346-0.528,0.566-0.899,0.661
		c-0.372,0.094-0.72,0.028-1.045-0.197c-0.326-0.226-0.541-0.493-0.644-0.802c-0.103-0.311-0.162-0.629-0.179-0.957
		C68.816,143.669,68.857,143.232,68.956,142.688z M69.632,142.598c-0.144,0.558-0.195,1.065-0.155,1.523s0.165,0.797,0.375,1.018
		c0.21,0.219,0.448,0.288,0.712,0.211c0.264-0.078,0.476-0.279,0.638-0.604c0.162-0.325,0.272-0.688,0.33-1.089
		c0.058-0.401,0.095-0.771,0.111-1.104s-0.034-0.646-0.15-0.938c-0.117-0.289-0.303-0.458-0.559-0.506
		c-0.257-0.047-0.502,0.05-0.736,0.289C69.963,141.639,69.775,142.038,69.632,142.598z"/>
	<path fill="#FF0000" d="M76.589,143.527c0.031-0.553,0.119-0.987,0.261-1.309c0.142-0.318,0.34-0.582,0.594-0.785
		c0.255-0.203,0.563-0.301,0.928-0.293c0.364,0.006,0.679,0.164,0.944,0.473c0.265,0.307,0.434,0.69,0.508,1.15
		c0.074,0.461,0.09,0.986,0.047,1.578c-0.043,0.594-0.158,1.075-0.342,1.446c-0.187,0.371-0.455,0.627-0.813,0.767
		c-0.358,0.139-0.711,0.115-1.062-0.068c-0.351-0.185-0.596-0.424-0.736-0.719s-0.238-0.604-0.294-0.929
		C76.57,144.518,76.557,144.079,76.589,143.527z M77.25,143.354c-0.075,0.571-0.064,1.082,0.031,1.531
		c0.095,0.449,0.261,0.771,0.497,0.965c0.234,0.19,0.479,0.232,0.731,0.123c0.253-0.109,0.439-0.336,0.562-0.678
		c0.121-0.341,0.186-0.714,0.195-1.119c0.008-0.406-0.002-0.775-0.025-1.111c-0.025-0.332-0.112-0.637-0.264-0.91
		c-0.15-0.273-0.356-0.42-0.615-0.437c-0.262-0.015-0.492,0.111-0.695,0.378C77.462,142.361,77.324,142.781,77.25,143.354z"/>
	<path fill="#FF0000" d="M84.268,143.407c-0.041-0.552-0.012-0.994,0.088-1.331c0.099-0.335,0.261-0.621,0.485-0.855
		c0.226-0.234,0.519-0.373,0.882-0.414c0.361-0.039,0.693,0.074,0.998,0.344c0.301,0.271,0.521,0.63,0.654,1.076
		c0.133,0.444,0.219,0.965,0.254,1.559c0.034,0.595-0.016,1.086-0.148,1.479c-0.135,0.394-0.369,0.683-0.705,0.866
		c-0.336,0.185-0.688,0.208-1.061,0.071c-0.373-0.137-0.646-0.342-0.824-0.615s-0.315-0.566-0.414-0.882
		C84.379,144.391,84.309,143.958,84.268,143.407z M84.898,143.146c0.004,0.578,0.08,1.082,0.233,1.515
		c0.152,0.435,0.359,0.729,0.619,0.89c0.258,0.16,0.506,0.17,0.742,0.027c0.233-0.143,0.391-0.391,0.466-0.744
		s0.091-0.732,0.046-1.137c-0.046-0.404-0.103-0.77-0.171-1.098c-0.066-0.328-0.195-0.617-0.38-0.869
		c-0.187-0.252-0.409-0.369-0.669-0.351c-0.262,0.021-0.475,0.175-0.641,0.466C84.979,142.139,84.898,142.572,84.898,143.146z"/>
	<path fill="#FF0000" d="M92.182,143.682c-0.063-0.24-0.063-0.494,0-0.758c0.063-0.263,0.217-0.501,0.463-0.715
		c-0.277-0.079-0.479-0.193-0.604-0.346c-0.125-0.15-0.221-0.336-0.287-0.557c-0.066-0.219-0.085-0.418-0.055-0.599
		c0.029-0.181,0.096-0.356,0.201-0.535c0.105-0.178,0.238-0.313,0.396-0.407s0.34-0.166,0.541-0.219
		c0.2-0.051,0.389-0.076,0.561-0.078c0.172,0,0.365,0.042,0.582,0.127c0.215,0.086,0.393,0.238,0.535,0.461
		c0.141,0.221,0.207,0.506,0.198,0.853c-0.008,0.346-0.181,0.659-0.519,0.938c0.369,0.014,0.65,0.108,0.847,0.283
		c0.194,0.178,0.33,0.417,0.408,0.721c0.075,0.303,0.093,0.557,0.049,0.76c-0.045,0.205-0.106,0.383-0.188,0.531
		c-0.08,0.149-0.207,0.284-0.381,0.402c-0.176,0.12-0.406,0.217-0.699,0.291s-0.555,0.104-0.785,0.087
		c-0.229-0.017-0.434-0.077-0.608-0.184c-0.178-0.104-0.315-0.247-0.416-0.425C92.322,144.135,92.242,143.924,92.182,143.682z
		 M92.299,141.104c0.053,0.203,0.17,0.377,0.358,0.522s0.433,0.181,0.735,0.104c0.301-0.078,0.508-0.228,0.612-0.446
		c0.104-0.222,0.119-0.455,0.045-0.705c-0.073-0.25-0.212-0.414-0.413-0.491c-0.203-0.077-0.447-0.068-0.734,0.025
		c-0.289,0.095-0.476,0.232-0.557,0.416C92.264,140.71,92.248,140.902,92.299,141.104z M92.793,143.493
		c0.053,0.245,0.146,0.446,0.284,0.604c0.136,0.159,0.333,0.232,0.588,0.223s0.506-0.081,0.754-0.209
		c0.245-0.127,0.392-0.313,0.437-0.563c0.043-0.247,0.023-0.479-0.063-0.693c-0.086-0.213-0.259-0.369-0.521-0.463
		c-0.262-0.096-0.52-0.1-0.776-0.014c-0.259,0.088-0.451,0.232-0.582,0.439C92.781,143.023,92.742,143.249,92.793,143.493z"/>
	<path fill="#FF0000" d="M99.879,141.602l0.486-0.299c0.178,0.221,0.389,0.377,0.629,0.473c0.238,0.094,0.488,0.082,0.744-0.032
		c0.258-0.114,0.423-0.306,0.496-0.569c0.072-0.267,0.045-0.525-0.078-0.777c-0.125-0.254-0.309-0.416-0.551-0.485
		c-0.242-0.071-0.578-0.054-1.008,0.053l-0.15-0.377c0.389-0.202,0.641-0.428,0.754-0.676s0.104-0.509-0.029-0.78
		c-0.132-0.271-0.339-0.424-0.621-0.457c-0.283-0.031-0.535,0.055-0.757,0.256s-0.319,0.557-0.296,1.063l-0.557,0.122
		c-0.023-0.395,0.018-0.747,0.127-1.063c0.108-0.314,0.33-0.56,0.662-0.738c0.332-0.18,0.653-0.26,0.967-0.238
		c0.311,0.021,0.572,0.139,0.783,0.357c0.211,0.217,0.342,0.496,0.39,0.836c0.048,0.342-0.065,0.701-0.339,1.08
		c0.316,0.008,0.596,0.099,0.834,0.271s0.408,0.458,0.514,0.854c0.104,0.396,0.057,0.77-0.139,1.117
		c-0.197,0.35-0.48,0.594-0.852,0.731c-0.373,0.138-0.736,0.151-1.097,0.038S100.127,141.994,99.879,141.602z"/>
	<path fill="#FF0000" d="M106.902,138.26c-0.121-0.219-0.187-0.463-0.193-0.732c-0.008-0.271,0.08-0.539,0.262-0.811
		c-0.287-0.004-0.514-0.063-0.673-0.178s-0.3-0.268-0.42-0.463c-0.122-0.195-0.19-0.383-0.208-0.564
		c-0.02-0.181,0-0.369,0.057-0.568c0.058-0.197,0.148-0.363,0.277-0.496c0.129-0.131,0.283-0.248,0.467-0.352
		c0.182-0.101,0.354-0.175,0.521-0.221c0.166-0.045,0.362-0.054,0.594-0.027c0.229,0.026,0.44,0.129,0.638,0.307
		c0.193,0.178,0.332,0.436,0.414,0.771c0.08,0.337-0.007,0.685-0.26,1.04c0.359-0.082,0.657-0.063,0.893,0.057
		c0.232,0.119,0.428,0.315,0.58,0.588c0.151,0.273,0.233,0.515,0.243,0.724c0.011,0.209-0.004,0.396-0.044,0.562
		c-0.037,0.166-0.126,0.328-0.263,0.488c-0.14,0.161-0.338,0.315-0.603,0.463c-0.264,0.147-0.508,0.243-0.733,0.286
		c-0.228,0.043-0.438,0.037-0.638-0.019c-0.199-0.057-0.369-0.157-0.513-0.305C107.158,138.66,107.025,138.477,106.902,138.26z
		 M106.352,135.738c0.103,0.182,0.262,0.318,0.48,0.41c0.218,0.094,0.465,0.063,0.736-0.09c0.272-0.152,0.432-0.35,0.477-0.59
		c0.045-0.238-0.002-0.471-0.137-0.693c-0.139-0.221-0.314-0.344-0.529-0.366c-0.216-0.022-0.449,0.05-0.702,0.216
		s-0.396,0.348-0.429,0.545S106.25,135.559,106.352,135.738z M107.447,137.919c0.113,0.224,0.256,0.394,0.43,0.511
		c0.174,0.118,0.382,0.139,0.625,0.063c0.244-0.077,0.469-0.209,0.674-0.396c0.206-0.188,0.299-0.406,0.277-0.656
		c-0.021-0.252-0.102-0.469-0.24-0.654c-0.14-0.184-0.348-0.288-0.623-0.313c-0.277-0.023-0.527,0.039-0.754,0.188
		c-0.227,0.151-0.377,0.343-0.449,0.573C107.313,137.469,107.334,137.695,107.447,137.919z"/>
	<path fill="#FF0000" d="M113.227,131.057c-0.061,0.379-0.188,0.791-0.379,1.237l-0.348-0.481c0.215-0.592,0.318-1.181,0.309-1.764
		l0.303-0.22l3.146,4.356l-0.506,0.365L113.227,131.057z"/>
	<path fill="#FF0000" d="M121.76,128.189l-1.8,1.598l-0.353-0.396l-0.533-4.414l0.35-0.313l2.428,2.735l0.562-0.498l0.353,0.396
		l-0.562,0.498l0.789,0.889l-0.443,0.394L121.76,128.189z M121.408,127.792l-1.641-1.847l0.33,3.01L121.408,127.792z"/>
</g>
<circle fill="none" cx="77.179" cy="77.555" r="45.666"/>
<g enable-background="new    ">
	<path fill="#E71F19" d="M38.292,103.193L25.558,112.1c-1.833,1.281-3.62,2.563-5.363,3.842l0.09-2.213l1.02,0.094l7.329-5.127
		c-2.287-0.668-4.563-0.867-6.829-0.596l0.934-2.176c0.403,0.314,1.241,0.669,2.516,1.061c1.276,0.393,2.584,0.834,3.929,1.326
		l7.97-5.576c0.794-0.555,1.009-1.092,0.645-1.613l-1.514-2.164c-0.337-0.48-1.06-0.377-2.172,0.311
		c-1.11,0.688-2.26,1.416-3.448,2.188l-0.21-0.301c1.866-1.364,3.008-2.269,3.425-2.71c0.42-0.441,0.639-0.909,0.658-1.4
		c0.961-0.313,1.815-0.136,2.559,0.537l2.104,3.007C39.815,101.471,39.513,102.339,38.292,103.193z M29.279,114.689
		c-3.175,2.221-5.421,3.822-6.737,4.803l-0.093-2.084l1.203-0.036l13.925-9.74c1.282-0.897,2.826-2.005,4.63-3.327l1.223,0.577
		c-2.104,1.412-3.92,2.651-5.447,3.72c2.746,1.064,4.609,1.582,5.589,1.555l-1.145,1.874c-0.396-0.438-2.031-1.474-4.902-3.107
		l-7.695,5.384l2.229,3.187l0.562,0.413l-0.396,0.994L29.279,114.689z"/>
</g>
<g enable-background="new    ">
	<path fill="#E71F19" d="M10.935,95.85l-0.361-0.062c0.484-1.435,0.971-2.313,1.465-2.642c0.494-0.326,1.088-0.414,1.779-0.261
		c0.693,0.154,0.615,0.449-0.235,0.892C12.734,94.22,11.851,94.911,10.935,95.85z M16.493,101.404l-3.402-13.442l-2.022-0.698
		l1.988-2.168l3.511,13.868c0.144,0.569,0.39,1.087,0.739,1.554L16.493,101.404z M18.365,87.385
		c2.674-0.677,4.583-1.186,5.727-1.525l1.155,0.92l-1.083,0.272l0.792,3.13l7.912-2.002c1.36-0.395,2.402-0.078,3.124,0.948
		c-0.867,0.22-1.483,1.132-1.844,2.737l-0.542,0.138c0.06-0.974,0.035-1.687-0.08-2.137c-0.114-0.451-0.604-0.565-1.472-0.347
		l-6.828,1.729l0.792,3.129l0.758-0.191l1.047,0.945c-1.529,0.337-3.07,0.701-4.625,1.096c-1.553,0.394-3.045,0.797-4.479,1.209
		l0.669-1.455l-1.818-7.184l-1.264-0.438l1.229-1.521L18.365,87.385z M20.055,95.887l5.311-1.345l-1.854-7.325l-5.311,1.346
		L20.055,95.887z M26.745,87.686l-0.361-0.061c1.737-2.861,2.966-4.534,3.688-5.02c0.724-0.487,1.469-0.649,2.239-0.492
		c0.771,0.158,0.551,0.58-0.66,1.265S28.805,85.499,26.745,87.686z M29.269,91.736l0.523,0.701c2.805,1.057,5.144,2.256,7.022,3.596
		l-0.271,0.296c-3.248-1.601-6.137-2.533-8.666-2.802L29.269,91.736z"/>
</g>
<g enable-background="new    ">
	<path fill="#E71F19" d="M31.571,69.481c0.337-0.995,0.557-1.77,0.655-2.326c0.102-0.554-0.405-0.896-1.516-1.021l-18.885-2.132
		l-1.316,11.665l22.551,2.546l0.536,1.241c-2.435-0.372-4.39-0.643-5.872-0.811l-13.997-1.58c-1.628-0.184-3.335-0.352-5.119-0.504
		l1.234-0.968l1.308-11.591l-1.053-0.636l1.576-1.003l0.6,0.658l19.218,2.17c1.784,0.153,2.94,0.874,3.47,2.164
		c-0.964-0.109-1.91,0.622-2.835,2.19L31.571,69.481z M14.743,75.039l0.798-7.071l-1.337-1.111l2.268-1.146L15.649,73
		c-0.061,0.535-0.005,1.033,0.167,1.495L14.743,75.039z M18.343,74.042l1.004-0.92l0.494-4.374l-1.053-0.636l1.456-0.943
		l0.712,0.671l4.109,0.464c0.964,0.109,1.93,0.194,2.898,0.254l0.439,1.083l-1.889-0.213l-0.502,4.447l1.667,0.188l0.44,1.083
		c-1.253-0.19-2.787-0.388-4.602-0.593C21.704,74.348,19.978,74.178,18.343,74.042z M20.013,73.197l5.333,0.602l0.502-4.447
		l-5.333-0.602L20.013,73.197z"/>
</g>
<g enable-background="new    ">
	<path fill="#E71F19" d="M14.706,50.256l-0.231-0.285c1.268-0.667,2.411-1.054,3.43-1.163c1.019-0.107,1.903,0.417,2.648,1.571
		l1.378-2.674c-2.091-2.287-3.654-3.808-4.692-4.564l2.131-0.717c0.083,0.814,1.004,2.444,2.762,4.89l1.513-2.935l-0.986-1.747
		l2.759-0.229l-5.68,11.022c-0.291,0.566-0.46,1.139-0.509,1.719l-1.197,0.125l2.286-4.435C18.771,50.261,16.9,50.065,14.706,50.256
		z M21.478,51.27l2.161-0.29c0.041,0.737,0.305,1.809,0.795,3.217c0.491,1.409,0.774,3.014,0.853,4.813l-0.365-0.023
		C24.208,55.978,23.062,53.406,21.478,51.27z M23.522,48.278c1.312-0.919,2.552-1.697,3.718-2.334
		c1.167-0.637,2.284-0.61,3.354,0.078c1.072,0.69,1.158,1.051,0.26,1.083c-0.897,0.033-1.849,0.134-2.859,0.301
		c-1.009,0.169-2.424,0.554-4.243,1.157L23.522,48.278z M25.628,57.37l1.365-0.452l4.1-7.956l-0.725-1.034l1.796-0.313l0.327,0.829
		l6.857,3.534l0.336-0.652l-0.92-1.63l2.592-0.15l-6.688,12.979c-0.291,0.565-0.459,1.138-0.508,1.719l-1.197,0.125l1.344-2.608
		C30.2,59.645,27.307,58.182,25.628,57.37z M27.589,57.226l7.155,3.688l1.109-2.152l-7.155-3.687L27.589,57.226z M29.135,54.226
		l7.155,3.688l1.076-2.087l-7.155-3.688L29.135,54.226z M30.647,51.291l7.155,3.687l1.109-2.152l-7.155-3.688L30.647,51.291z"/>
</g>
<g enable-background="new    ">
	<path fill="#E71F19" d="M26.478,31.23l-0.116-0.348c1.065-0.06,1.954-0.006,2.662,0.158c0.708,0.165,1.24,0.462,1.597,0.893
		c0.356,0.432,0.528,0.877,0.518,1.34c-0.012,0.462-0.498,0.324-1.461-0.414C28.715,32.122,27.648,31.58,26.478,31.23z
		 M40.572,44.11c0.791,0.292,1.726,0.452,2.805,0.48c1.081,0.03,2.227-0.452,3.438-1.448c1.212-0.993,2.287-1.937,3.224-2.833
		c0.938-0.895,1.829-1.824,2.672-2.789l0.299,0.332c-0.454,0.811-0.435,1.598,0.055,2.36c-1.721,1.452-3.142,2.634-4.262,3.545
		c-1.122,0.911-2.214,1.472-3.278,1.679c-1.065,0.208-2.121,0.133-3.169-0.227c-1.048-0.357-1.666-0.531-1.849-0.516
		c-0.184,0.015-0.186,0.469-0.007,1.361c0.179,0.893,0.512,1.974,0.998,3.241l-1.682-0.44c-0.032-1.275-0.06-2.656-0.082-4.142
		l-6.067-6.723l-0.381,0.344c-0.472,0.426-0.833,0.903-1.082,1.43L31.04,39.46l2.07-1.868l-0.225-1.453l1.94,0.507l-0.095,0.99
		L40.572,44.11z M37.154,31.233c-2.475-2.888-4.18-4.813-5.114-5.776l2.077-0.217l0.292,1.09c1.213,1.417,2.399,2.805,3.562,4.166
		l2.723-2.458l-0.32-1.669l2.403,0.691l-4.357,3.933c0.876,1.118,1.655,2.272,2.336,3.464c1.262-0.134,2.588-0.125,3.977,0.026
		c1.389,0.152,2.43,0.393,3.122,0.721c0.692,0.33,1.188,0.861,1.487,1.593c0.3,0.734-0.04,0.814-1.018,0.241
		c-0.977-0.571-2.151-1.07-3.52-1.491c-1.368-0.422-2.635-0.657-3.803-0.709c1.607,3.168,2.056,6.329,1.342,9.481l-0.333-0.151
		c0.39-4.167-1.079-8.312-4.407-12.438l-1.961,1.77c-0.472,0.426-0.833,0.904-1.082,1.43l-1.164-0.305L37.154,31.233z"/>
</g>
<g enable-background="new    ">
	<path fill="#E71F19" d="M45.269,18.543l6.286-2.461l0.33-1.57l1.827,1.445l-6.285,2.461c-0.365,0.143-0.756,0.417-1.176,0.821
		L45.269,18.543z M47.328,19.778l1.174,0.38l3.143-1.23l0.152-1.021l1.445,0.875l-0.274,0.709c0.598,1.526,1.097,2.732,1.495,3.616
		l-0.644,0.973l-0.367-0.937l-3.278,1.284l0.285,0.729l-0.685,0.87c-0.281-0.851-0.638-1.831-1.073-2.942
		C48.267,21.973,47.809,20.872,47.328,19.778z M48.747,20.783l1.182,3.02l3.279-1.284l-1.183-3.02L48.747,20.783z M54.145,40.401
		c-0.39-1.128-1.236-3.357-2.541-6.688c-1.305-3.332-2.238-5.647-2.8-6.949l1.174,0.382l5.192-2.033l0.002-1.202l1.473,0.743
		l-0.193,0.917l3.71,9.474c0.479,1.091,0.369,2.016-0.333,2.771c-0.345-0.747-1.054-1.147-2.127-1.208l-0.163-0.416
		c0.736-0.13,1.242-0.247,1.516-0.354c0.274-0.107,0.315-0.404,0.125-0.889l-3.628-9.265l-5.329,2.087l4.485,11.451L54.145,40.401z
		 M51.49,28.594l0.055-0.261c1.054,0.548,1.722,1.047,2.004,1.496c0.281,0.451,0.366,0.937,0.257,1.461
		c-0.11,0.523-0.349,0.418-0.717-0.32C52.724,30.233,52.189,29.442,51.49,28.594z M52.371,32.451l2.596-1.016
		c-0.396-2.085-0.744-3.509-1.043-4.274l1.637,0.56l-0.315,0.604c-0.012,1.045,0.011,2.037,0.063,2.977l0.547-0.214l0.247-1.178
		l1.432,1.241l-2.187,0.856c0.734,1.873,1.354,3.392,1.862,4.553l-0.63,1.208c-0.417-1.197-1.101-3.01-2.052-5.44
		c-0.547,0.214-0.962,0.496-1.244,0.847L52.371,32.451z M57.967,18.374c-1.114-2.846-1.98-4.988-2.596-6.429l1.843,0.48
		l-0.262,0.941l1.834,4.686l1.776-0.695l0.043-1.097l1.514,0.847l-0.233,0.812c1.659,4.234,2.713,6.861,3.167,7.885l-0.644,0.973
		l-0.489-1.249l-1.913,0.749l2.568,6.559l2.064-1.168c-0.481-0.691-1.167-1.504-2.057-2.436l0.124-0.29
		c1.373,0.825,2.387,1.568,3.041,2.232c0.654,0.664,0.95,1.387,0.89,2.172c-0.061,0.784-0.227,0.929-0.499,0.435
		c-0.271-0.493-0.636-1.052-1.089-1.674c-2.105,1.464-3.71,2.732-4.813,3.806l-0.234,0.812l-1.376-1.502
		c0.628-0.407,1.699-1.025,3.212-1.858l-2.65-6.767l-1.913,0.749l0.407,1.041l-0.684,0.868c-0.39-1.127-1.066-2.923-2.032-5.388
		c-0.964-2.463-1.674-4.207-2.126-5.23l1.214,0.485L57.967,18.374z M56.299,19.747l2.731,6.975l1.913-0.749l-2.731-6.975
		L56.299,19.747z M59.031,18.677l2.731,6.975l1.914-0.749l-2.732-6.975L59.031,18.677z"/>
</g>
<g enable-background="new    ">
	<path fill="#E71F19" d="M74.182,10.562l0.223,0.221c-1.152,2.175-1.969,3.729-2.447,4.665c-0.48,0.938-0.778,1.76-0.892,2.469
		c-0.116,0.71-0.167,1.585-0.157,2.628c0.011,1.044-0.243,1.327-0.761,0.846c-0.519-0.479-0.672-1.111-0.46-1.896
		s0.353-1.418,0.421-1.904c0.068-0.485-0.414-0.983-1.447-1.495l0.07-0.336c0.735,0.143,1.188,0.194,1.359,0.154
		c0.17-0.039,0.413-0.172,0.729-0.398C71.136,15.288,72.257,13.639,74.182,10.562z M75.855,23.625l1.849,1.435l-0.725,0.79
		c-0.173,2.312-0.523,3.937-1.051,4.874c-0.529,0.938-1.352,1.727-2.47,2.373c-1.12,0.644-2.629,1.162-4.534,1.555l-0.077-0.334
		c1.219-0.387,2.412-0.938,3.579-1.658c1.167-0.721,1.966-1.491,2.398-2.316c0.432-0.824,0.716-1.74,0.853-2.748
		C75.814,26.588,75.873,25.266,75.855,23.625z M69.549,9.491c1.325,0.36,2.11,0.761,2.36,1.206c0.249,0.445,0.267,1.042,0.055,1.788
		c-0.212,0.749-0.482,0.695-0.809-0.159c-0.327-0.853-0.91-1.685-1.75-2.498L69.549,9.491z M71.446,30.154
		c0.03-1.863,0.039-3.447,0.025-4.752c-0.013-1.303-0.052-2.7-0.116-4.191l1.034,0.66l7.776-0.079l0.431-1.01L81.782,22
		l-0.579,0.789c0.025,2.535,0.068,4.472,0.133,5.812l-1.02,0.793l-0.07-6.931l-7.85,0.079l0.07,6.931L71.446,30.154z M77.582,12.987
		l1.551,0.991l-0.509,0.452l-0.069,0.448c1.25,2.746,3.248,4.366,5.993,4.858l0.003,0.335c-0.879,0.159-1.412,0.649-1.599,1.47
		c-2.218-1.616-3.757-3.651-4.611-6.102c-0.801,3.213-3.079,5.137-6.839,5.771l-0.077-0.335c2.34-0.843,3.955-1.94,4.846-3.291
		S77.6,14.702,77.582,12.987z M80.537,14.969l1.145-3.03l-5.43,0.055c-0.815,1.649-1.755,3-2.821,4.054l-0.148-0.222
		c0.77-1.126,1.395-2.307,1.872-3.541c0.476-1.235,0.854-2.524,1.134-3.868l1.404,1.104l-0.582,0.453l-0.72,1.349l5.209-0.053
		l0.573-1.236l1.339,1.776c-0.685,0.157-1.602,1.284-2.754,3.382L80.537,14.969z M76.804,30.324L76.8,29.876
		c1.862,0.428,3.334,0.824,4.414,1.185c1.079,0.363,1.72,0.783,1.921,1.266c0.2,0.482,0.292,1.04,0.273,1.675
		c-0.02,0.632-0.35,0.618-0.99-0.046c-0.645-0.665-1.406-1.291-2.294-1.877C79.236,31.492,78.131,30.907,76.804,30.324z"/>
</g>
<g enable-background="new    ">
	<path fill="#E71F19" d="M92.824,22.855l2.888-0.849l-0.015,0.471l-3.258,1.428l-3.342,9.134c-0.512,1.399-1.363,2.159-2.553,2.28
		c0.354-0.822,0-1.785-1.055-2.885l0.154-0.42c0.933,0.579,1.566,0.91,1.901,0.993c0.334,0.081,0.656-0.374,0.97-1.371l2.649-7.245
		c-1.91,0.81-2.988,1.407-3.233,1.794l-0.272-2.243c0.557,0.046,1.879-0.224,3.968-0.811l1.882-5.145l-1.791-0.655l-0.834-0.066
		l-0.243-1.042l3.1,1.134c0.818-2.239,1.552-4.313,2.197-6.22l1.191,1.864l-0.888,0.509l-1.536,4.199l0.896,0.328l1.18-0.878
		l0.449,2.188l-2.756-1.008L92.824,22.855z M90.057,33.627l8.476,3.1l1.501-1.117l0.609,2.604l-8.682-3.175
		c-0.598-0.219-1.143-0.299-1.631-0.24L90.057,33.627z M93.289,31.834c0.736-1.873,1.829-4.787,3.275-8.742
		c1.445-3.953,2.429-6.71,2.945-8.267l0.825,1.373l4.41,1.612l1.073-0.797l0.457,1.952l-0.743,0.323l-3.878,10.604
		c-0.438,1.191-0.799,2.249-1.084,3.176L99.201,33.4l0.652-1.785l-4.687-1.713l-0.614,1.68L93.289,31.834z M97.626,23.183
		l-2.228,6.09l4.686,1.713l2.229-6.089L97.626,23.183z M99.969,16.778l-2.111,5.774l4.686,1.714l2.111-5.775L99.969,16.778z"/>
</g>
<g enable-background="new    ">
	<path fill="#E71F19" d="M105.896,36.99c-1.754,2.03-3.004,3.511-3.746,4.446l-1.346-0.127c1.938-2.168,3.443-3.871,4.516-5.112
		l6.436-7.443c-2.093,0.851-3.777,1.415-5.052,1.693l0.108-0.35c2.472-0.916,4.945-2.227,7.42-3.929
		c2.476-1.704,4.158-2.958,5.05-3.764l0.288,2.022l-0.883,0.124c-2.338,1.43-4.09,2.524-5.265,3.283l0.117,0.988l-0.771,0.22
		L105.896,36.99z M124.842,31.79c-2.438,2.82-4.004,4.667-4.695,5.545l-1.145-0.249l0.73-0.846l-1.887-1.631l-2.633,3.045
		l2.887,2.494l1.543-0.439l-0.315,2.386l-3.886-3.358c-0.668,1.295-1.203,2.829-1.603,4.602c-0.399,1.772-0.319,3.343,0.24,4.714
		l-0.22,0.253c-0.529-0.358-1.145-0.398-1.84-0.113c0.086-1.895,0.442-3.655,1.07-5.28c0.628-1.624,1.318-3.096,2.072-4.416
		l-0.389-0.336c-3.803,4.398-6.123,7.12-6.965,8.167l-1.344-0.127c1.256-1.379,3.588-4.04,7.001-7.987
		c-2.055,1.179-3.952,2.05-5.698,2.61c-1.746,0.561-3.422,0.834-5.029,0.826l0.109-0.35c1.717-0.191,3.648-0.783,5.805-1.78
		c2.152-0.995,3.73-1.848,4.734-2.558l-2.609-2.255l-0.868-0.455l0.141-1.06l4.44,3.838l2.632-3.045l-1.774-1.535l-0.658,0.761
		l-1.198-0.297c1.012-1.096,2.103-2.32,3.272-3.674c1.168-1.354,2.32-2.723,3.453-4.108l0.303,1.444l4.22,3.646l1.284-0.366
		l-0.116,1.819L124.842,31.79z M120.027,27.038l-4.24,4.905l4.385,3.79l4.241-4.905L120.027,27.038z"/>
</g>
<g enable-background="new    ">
	<path fill="#E71F19" d="M117.962,56.946c0.2,0.837,0.406,1.45,0.616,1.836c0.21,0.388,0.609,0.421,1.199,0.101l3.438-1.868
		l-3.223-5.931l-5.6,3.042l-1.41-0.486c1.139-0.563,5.404-2.853,12.807-6.875c-2.619-0.136-4.969-0.557-7.049-1.263l0.189-0.354
		c2.092,0.42,4.149,0.654,6.168,0.698c2.016,0.045,4.428-0.166,7.229-0.629L130.4,41.67c-0.305-0.56-0.684-1.022-1.137-1.387
		l0.569-1.062l3.151,5.803c1.894-0.417,3.399-0.846,4.52-1.287l-0.5,2.359l-0.743-0.431c-1.081,0.198-1.975,0.348-2.68,0.455
		l2.979,5.48l2.265,0.188l-1.454,2.71l-4.449-8.188c-1.566,0.238-3.015,0.386-4.342,0.439l3.013,5.544l1.263-0.019l-0.681,1.791
		l-1.003-0.207L119.58,60.16c-1.047,0.569-2.09,0.522-3.128-0.138c0.81-0.385,1.147-1.321,1.019-2.809L117.962,56.946z
		 M123.824,49.002l-3.242,1.762l3.223,5.931l3.242-1.762L123.824,49.002z M127.852,46.813l-3.438,1.869l3.223,5.931l3.438-1.869
		L127.852,46.813z"/>
</g>
<g enable-background="new    ">
	<path fill="#E71F19" d="M135.404,64.696l7.025,0.238l-0.343-2.545l-17.282,2.328c-1.994,0.269-3.765,0.531-5.31,0.79l-0.812-1.001
		c1.854-0.201,6.121-0.751,12.807-1.652c6.684-0.9,10.688-1.464,12.011-1.691l-0.739,1.21l0.334,2.472l1.084,0.521l-1.313,1.14
		l-0.633-0.507l-6.781-0.937c-1.018,0.826-1.962,1.484-2.836,1.973c-0.875,0.488-1.86,0.844-2.958,1.065
		c-1.099,0.222-2.056,0.239-2.87,0.054c-0.814-0.187-1.469-0.716-1.962-1.586c0.894-0.072,1.6-0.686,2.121-1.84l0.442-0.06
		c-0.254,1.465-0.088,2.281,0.5,2.449c0.586,0.168,1.534,0.09,2.844-0.234C132.046,66.555,133.602,65.827,135.404,64.696z
		 M121.704,70.169c0.469,0.133,0.998,0.162,1.591,0.082c12.998-1.751,20.012-2.722,21.04-2.908l-0.858,1.151l0.676,5.018
		l1.297,0.418l-1.395,1.372l-0.754-0.565c-4.58,0.617-7.789,1.074-9.629,1.371l-0.922-0.986l0.997-0.134l-0.433-3.198
		c-1.668,0.471-3.377,1.169-5.131,2.098c1.571,1.071,3.228,1.91,4.963,2.515l-1.836,1.432c-0.093-0.679-1.312-1.897-3.651-3.653
		c-1.582,1.101-2.623,2.167-3.122,3.196c-0.502,1.03-0.758,1.793-0.764,2.287l-0.443,0.06c-0.164-0.67-0.751-1.108-1.758-1.316
		c0.729-1.283,2.021-2.581,3.875-3.891c1.854-1.312,4.457-2.365,7.81-3.162l-0.196-1.455l-10.082,1.358l2.367,2.495l-0.313,0.191
		c-1.688-1.354-3.345-2.215-4.974-2.588L121.704,70.169z M137.936,69.24l-4.209,0.567l0.686,5.09l4.21-0.567L137.936,69.24z
		 M142.811,68.583l-4.209,0.567l0.686,5.09l4.21-0.567L142.811,68.583z"/>
</g>
<g enable-background="new    ">
	<path fill="#E71F19" d="M123.518,83.325l-1.713,8.487c1.573-0.191,3.418-0.57,5.537-1.141l0.278,0.29
		c-2.583,1.265-4.535,2.021-5.854,2.272c-1.317,0.248-2.312,0.084-2.981-0.495c-0.671-0.58-0.563-0.87,0.313-0.869
		c0.879,0.001,1.59-0.013,2.131-0.039c0.539-4.692,0.771-7.376,0.693-8.045c-0.076-0.67-0.257-1.213-0.545-1.63l2.469-0.264
		c-0.088,0.381,0.275,0.967,1.09,1.756c0.813,0.787,2.233,1.929,4.264,3.422c2.027,1.492,3.876,2.604,5.544,3.339l-2.214,1.149
		l-0.365-0.912C128.498,87.951,125.617,85.511,123.518,83.325z M142.93,95.22l-0.507-0.794c-2.351-0.086-4.721,0.161-7.106,0.744
		c-2.39,0.582-4.17,1.592-5.34,3.03l-0.326-0.074c0.175-0.765-0.137-1.412-0.932-1.944c1.902-0.971,4.131-1.678,6.678-2.121
		c2.549-0.445,5.424-0.479,8.625-0.097L142.93,95.22z M144.025,90.428l-2.01,1.271l-0.475-0.936
		c-4.727-2.738-8.07-5.662-10.035-8.771l0.377-0.14c2.139,2.345,4.322,4.236,6.555,5.678
		C140.671,88.97,142.534,89.936,144.025,90.428z"/>
</g>
<g enable-background="new    ">
	<path fill="#E71F19" d="M136.473,109.256l-6.438,9.641l0.645,1.047l-1.9,0.23l-0.231-0.861l-16.083-10.742
		c-1.451-0.912-2.113-2-1.984-3.269c0.744,0.497,1.901,0.241,3.473-0.769l0.464,0.311c-0.838,0.852-1.388,1.471-1.646,1.857
		c-0.258,0.386-0.016,0.828,0.729,1.324l15.897,10.619l5.176-7.748c0.354-0.528,0.586-1.08,0.697-1.649L136.473,109.256z
		 M119.521,107.462c-0.744-0.497-1.472-0.953-2.181-1.367l0.056-1.286l1.672,1.116l2.73-4.088l-1.58-1.056l-0.039-1.35
		c0.778,0.576,2.159,1.529,4.144,2.854c1.983,1.323,3.547,2.339,4.688,3.044l-1.449,0.355l-2.647,3.965l0.646,1.05l-1.901,0.229
		l-0.231-0.861L119.521,107.462z M127.006,105.314l-4.648-3.104l-2.729,4.087l4.647,3.105L127.006,105.314z M132.785,105.116
		l-5.258,7.87l0.68,1.601l-2.541-0.021l5.258-7.871c0.381-0.568,0.6-1.098,0.658-1.588L132.785,105.116z"/>
</g>
</svg>
