<?xml version="1.0" encoding="utf-8"?>
<!-- Generator: Adobe Illustrator 14.0.0, SVG Export Plug-In . SVG Version: 6.00 Build 43363)  -->
<!DOCTYPE svg PUBLIC "-//W3C//DTD SVG 1.1//EN" "http://www.w3.org/Graphics/SVG/1.1/DTD/svg11.dtd">
<svg version="1.1" id="图层_1" xmlns="http://www.w3.org/2000/svg" xmlns:xlink="http://www.w3.org/1999/xlink" x="0px" y="0px"
	 width="154px" height="154px" viewBox="0 0 154 154" enable-background="new 0 0 154 154" xml:space="preserve">
<circle fill="none" stroke="#FF0000" stroke-width="3.5" cx="77.835" cy="77.875" r="74.25"/>
<g>
	<path fill="#FF0000" d="M19.5,106.689c0.319-0.127,5.416-2.153,15.289-6.079l3.17-1.16l0.104,0.261l-2.111,2.051
		c-0.579-0.106-1.116-0.061-1.61,0.136c-0.493,0.196-3.136,1.247-7.928,3.152c-4.791,1.905-7.346,2.922-7.666,3.049
		c-0.318,0.127-0.944,0.544-1.875,1.249l-0.173-0.436l1.362-2.155C18.702,106.84,19.181,106.816,19.5,106.689z M18.146,99.863
		l0.665-1.374c0.789,0.291,1.308,0.372,1.558,0.237c0.25-0.133,1.861-0.689,4.834-1.67l0.381,0.959l-5.209,1.869l6.104,11.798
		l-0.871,0.347l-5.844-11.397C19.568,100.307,19.029,100.051,18.146,99.863z M28.641,110.016c1.43-0.634,2.904-1.154,4.425-1.558
		l0.104,0.262l-1.274,1.616c-0.557-0.047-0.942-0.045-1.158,0.006c-0.214,0.053-0.911,0.329-2.091,0.832
		c-1.177,0.503-1.921,0.831-2.229,0.988c-0.307,0.156-0.868,0.563-1.683,1.224l-0.348-0.366l0.979-1.6
		C26.121,111.119,27.213,110.651,28.641,110.016z M31.793,109.57l-0.871,0.346l-5.357-11.188c-0.161-0.405-0.485-0.882-0.972-1.43
		l0.316-1.234l0.227-0.191L31.793,109.57z"/>
</g>
<g>
	<path fill="#FF0000" d="M13.629,85.892c0.254,0.081,0.747,0.304,1.479,0.667c0.732,0.365,1.72,0.884,2.964,1.561
		c1.243,0.677,2.9,1.938,4.966,3.785l-0.361,0.373c-1.991-1.49-3.657-2.585-4.996-3.289c-1.338-0.702-2.593-1.271-3.767-1.711
		c-1.172-0.438-2.195-0.642-3.071-0.61l-0.104-0.268l2.113-1.246C13.118,85.565,13.377,85.811,13.629,85.892z M13.728,83.41
		l-0.858-5.643c-0.074-0.358-0.465-0.764-1.169-1.219l0.994-1.027c0.519,0.463,0.839,0.69,0.963,0.687
		c0.126-0.005,1.409,0.07,3.854,0.223l0.223,0.982l-4.042-0.216l0.973,6.179L13.728,83.41z M18.525,83.779
		c-0.192-0.113-0.351-0.197-0.478-0.253c-0.127-0.055-0.829-0.016-2.107,0.12c-1.275,0.136-2.407,0.402-3.396,0.797l-0.291-0.259
		l1.457-1.223c3.051-0.41,5.297-0.58,6.736-0.513l0.014,0.359L18.525,83.779z M17.282,77.879c-0.009-0.239-0.149-0.685-0.424-1.336
		l0.527-1.011l0.375-0.013l1.298,7.429l-0.937,0.033L17.282,77.879z M31.161,80.354c-0.258-0.172-0.526-0.281-0.811-0.332
		c-0.282-0.05-2-0.019-5.155,0.095c-3.153,0.113-4.886,0.191-5.198,0.231c-0.311,0.042-0.931,0.199-1.859,0.473l-0.106-0.357
		l1.544-1.406c0.32,0.169,0.604,0.265,0.854,0.285c0.253,0.022,2.08-0.029,5.482-0.151c3.405-0.122,5.888-0.15,7.455-0.088
		l0.013,0.359L31.161,80.354z M31.457,88.63c-0.193-0.173-0.433-0.284-0.716-0.334c-0.282-0.049-2.017-0.018-5.202,0.097
		c-3.186,0.113-4.919,0.176-5.2,0.186c-0.281,0.011-0.917,0.123-1.911,0.339l-0.2-0.353l1.448-1.493
		c0.32,0.229,0.622,0.368,0.905,0.417c0.283,0.051,1.894,0.022,4.828-0.083c2.937-0.105,4.544-0.163,4.825-0.173
		c0.28-0.01,1.33,0.042,3.148,0.158l0.017,0.45L31.457,88.63z M22.554,86.247c-1.082-7.527-1.656-11.334-1.723-11.422
		c-0.064-0.088-0.23-0.366-0.499-0.839l0.804-1.109l0.278-0.1l1.608,10.841c0.011,0.301,0.185,0.774,0.52,1.422L22.554,86.247z
		 M28.212,71.363l0.374-0.014l0.582,3.132l-7.299,5.755l0.064-0.813c1.58-1.318,3.003-2.599,4.271-3.846
		C27.474,74.332,28.144,72.927,28.212,71.363z M27.025,82.754c1.351,1.033,2.81,2.482,4.377,4.347l-0.466,0.106
		c-1.813-1.736-3.345-3.032-4.595-3.889c-1.25-0.855-2.639-1.646-4.165-2.372l0.146-1.177
		C24.108,80.728,25.675,81.722,27.025,82.754z"/>
</g>
<g>
	<path fill="#FF0000" d="M13.708,65.884l0.111-0.443l1.655-0.434c6.395,1.479,10.183,2.43,11.366,2.852l-0.089,0.354l-1.633,0.345
		c-0.319-0.269-0.57-0.426-0.752-0.471s-1.626-0.392-4.33-1.04c-2.704-0.646-4.18-1.001-4.422-1.063
		C15.374,65.924,14.737,65.891,13.708,65.884z M17.16,52.893c-0.787-0.197-1.62-0.218-2.497-0.061l-0.206-0.334l2.423-1.184
		c0.365,0.344,0.712,0.572,1.036,0.685c0.327,0.114,5.915,1.531,16.767,4.253c0.652,0.227,1.2,0.476,1.649,0.744
		c0.447,0.271,0.649,0.493,0.605,0.671l-4.481,2.834l-0.318-0.269l2.869-2.579c-0.379-0.284-0.902-0.509-1.57-0.677L17.16,52.893z
		 M17.442,59.09c0.121,0.031,1.568,0.427,4.343,1.185c2.772,0.759,4.865,1.409,6.276,1.951l-0.09,0.355l-1.814,0.299
		c-0.426-0.357-0.715-0.557-0.866-0.595c-0.15-0.038-2.88-0.784-8.185-2.242l-0.88,5.436l-0.818-0.206L16.2,60.57
		c0.03-0.37-0.244-0.815-0.823-1.337l1.334-1.08C17.078,58.749,17.321,59.06,17.442,59.09z M28.154,67.246
		c-1.246-0.94-3.046-1.785-5.404-2.534c-2.358-0.748-3.982-1.141-4.877-1.176l-0.023-0.289l1.857-0.854
		c0.244,0.313,0.483,0.515,0.718,0.604c0.234,0.091,1.383,0.458,3.445,1.1c2.062,0.644,3.729,1.454,4.996,2.432
		c1.269,0.979,2.607,3.027,4.016,6.145l-0.521,0.152C30.801,70.047,29.401,68.187,28.154,67.246z M21.28,59.206
		c0.819-5.324,1.233-8.064,1.239-8.22c0.007-0.154-0.051-0.5-0.175-1.033l1.063-0.771l0.273,0.068l-1.208,7.898
		c-0.06,0.237-0.026,0.622,0.097,1.155L21.28,59.206z M30.812,63.199l-0.521,0.153c-2.061-3.093-3.66-5.191-4.801-6.295
		c-1.141-1.102-2.212-1.969-3.215-2.598l0.244-0.976c1.505,0.943,2.838,2.048,4.002,3.313
		C27.688,58.065,29.117,60.198,30.812,63.199z M27.308,65.997l-0.411-0.291c2.563-2.248,3.956-3.375,4.184-3.381
		c0.228-0.005,0.765,0.224,1.615,0.688l-0.067,0.266C31.375,63.656,29.601,64.561,27.308,65.997z"/>
</g>
<g>
	<path fill="#FF0000" d="M45.934,20.237l0.236,0.322l-5.284,4.872c-0.189,0.14-0.394,0.457-0.616,0.948l-1.587-0.074l5.214-4.819
		c0.143-0.104,0.354-0.509,0.64-1.214L45.934,20.237z M43.949,30.496c-0.095-0.426-0.23-0.761-0.408-1.002
		c-0.177-0.242-0.445-0.582-0.804-1.021c-0.359-0.438-0.953-0.974-1.781-1.606l-0.035-0.345l1.883,0.477
		c1.11,1.416,2.093,2.802,2.944,4.161l-0.284,0.209L43.949,30.496z M42.909,28.037l-0.532-0.726l2.701-2.728
		c0.158-0.28,0.248-0.802,0.273-1.564l1.313,0.151c-0.063,0.709-0.015,1.17,0.142,1.384c0.158,0.216,0.588,0.851,1.289,1.905
		l-0.711,0.522l-1.407-2.066L42.909,28.037z M51.685,41.925L51.4,42.134l-1.764-1.061c-0.204-0.674-0.404-1.147-0.603-1.417
		c-0.197-0.269-0.919-1.226-2.165-2.873c-1.246-1.646-1.949-2.555-2.111-2.728c-0.162-0.169-0.756-0.705-1.78-1.605l0.225-0.289
		l1.8,0.662l5.405,7.064L51.685,41.925z M44.234,29.543l2.523-2.225c0.197-0.227,0.458-0.666,0.782-1.319l1.255,0.07l0.236,0.323
		l-4.336,3.928L44.234,29.543z M53.728,33.979c-0.742-1.107-1.9-2.736-3.479-4.885l-5.142,4.769l-0.474-0.646l4.574-4.35
		c0.284-0.209,0.378-0.774,0.285-1.697l1.563,0.34c-0.017,0.673,0.035,1.09,0.153,1.251s0.513,0.699,1.183,1.611
		c0.671,0.914,1.511,2.157,2.52,3.729c1.009,1.573,1.64,2.927,1.892,4.065l-0.272,0.076l-3.185-0.761l-0.095-0.427l2.085-0.29
		C55.005,36.017,54.469,35.09,53.728,33.979z M46.375,32.311l-0.035-0.347c1.467,0.411,2.272,0.688,2.415,0.831
		c0.142,0.144,0.295,0.527,0.461,1.148l-0.284,0.209C48.198,33.452,47.346,32.838,46.375,32.311z M59.316,33.099L48.729,18.681
		c-0.355-0.483-0.983-1.138-1.882-1.966l0.096-0.318l2.45,0.804c0.157,0.712,0.334,1.201,0.531,1.469
		c0.197,0.27,3.529,4.807,9.996,13.613L59.316,33.099z M51.633,32.169l1.385,0.1l0.178,0.241l-3.673,3.192
		c-0.19,0.14-0.415,0.43-0.676,0.868l-1.456-0.046l3.827-3.43C51.416,32.868,51.553,32.56,51.633,32.169z M48.496,30.134l2.06,0.719
		c-0.143,0.6-0.197,1.096-0.167,1.486c0.031,0.391,0.039,1.17,0.022,2.338l-0.391-0.084c-0.109-1.241-0.295-2.139-0.555-2.692
		C49.205,31.348,48.883,30.76,48.496,30.134z M52.713,29.021c-0.158-0.214-0.558-0.707-1.195-1.477
		c-0.64-0.771-1.039-1.242-1.201-1.413c-0.162-0.17-0.717-0.652-1.663-1.444l0.226-0.29l1.682,0.502
		c2.121,2.493,3.646,4.472,4.577,5.937l-0.213,0.156l-1.716-0.847C53.036,29.611,52.87,29.237,52.713,29.021z M51.569,38.043
		c-0.127-0.568-0.268-0.96-0.426-1.175c-0.157-0.215-0.65-0.887-1.479-2.015l0.711-0.522c1.104,1.504,2.185,3.027,3.241,4.563
		l-0.284,0.209L51.569,38.043z M54.068,19.843l1.681,0.501c-0.144,0.601-0.154,0.981-0.036,1.142
		c0.118,0.16,0.935,1.421,2.448,3.782l-0.711,0.522l-2.508-3.863l-4.218,4.089l-0.591-0.806l3.779-3.643
		C54.111,21.342,54.162,20.767,54.068,19.843z M53.15,29.32l3.672-3.193c0.15-0.191,0.411-0.632,0.783-1.318l1.326,0.018l0.307,0.27
		l-5.426,4.977L53.15,29.32z M57.857,36.03l-1.551-0.474l5.332-6.147l0.486,0.513C59.32,33.551,57.896,35.585,57.857,36.03z
		 M58.94,28.414l0.036-0.397c1.467,0.411,2.457,0.717,2.971,0.918c0.514,0.203,0.886,0.362,1.118,0.479
		c0.233,0.12,0.473,0.792,0.716,2.017l-0.355,0.261C62.038,30.399,60.542,29.306,58.94,28.414z"/>
</g>
<g>
	<path fill="#FF0000" d="M100.762,35.208c0.248-0.063,0.475-0.197,0.675-0.403c0.201-0.205,1.161-1.65,2.877-4.336
		c1.717-2.686,2.651-4.147,2.803-4.384s0.421-0.824,0.812-1.761l0.398,0.031l0.378,2.022c-0.367,0.137-0.65,0.307-0.85,0.514
		c-0.202,0.205-1.093,1.546-2.675,4.021c-1.582,2.476-2.449,3.831-2.601,4.068s-0.79,1.071-1.915,2.504l-0.37-0.237L100.762,35.208z
		 M108.001,34.828c-1.597,0.537-3.591,0.932-5.979,1.186l0.179-0.442c2.423-0.526,4.335-1.066,5.734-1.62
		c1.397-0.553,2.819-1.256,4.271-2.11l0.863,0.775C111.286,33.554,109.597,34.291,108.001,34.828z M113.085,22.056
		c-0.21,0.163-0.669,0.446-1.376,0.846c-0.71,0.399-1.688,0.924-2.937,1.572c-1.25,0.647-3.204,1.31-5.862,1.983l-0.095-0.505
		c2.328-0.811,4.155-1.573,5.479-2.283c1.324-0.711,2.495-1.427,3.515-2.149c1.017-0.721,1.762-1.45,2.233-2.188l0.273,0.063
		l-0.198,2.433C113.637,21.816,113.293,21.894,113.085,22.056z M107.582,39.567c0.282-0.116,0.523-0.277,0.725-0.481
		c0.201-0.206,1.151-1.638,2.852-4.297c1.699-2.659,2.621-4.128,2.766-4.408c0.143-0.279,0.368-0.876,0.677-1.792l0.347,0.11
		l0.253,2.053c-0.316,0.169-0.555,0.351-0.714,0.545c-0.16,0.195-1.156,1.728-2.99,4.597c-1.836,2.871-3.222,4.932-4.163,6.186
		l-0.297-0.19L107.582,39.567z M107.731,29.205c6.665,3.296,10.051,4.942,10.159,4.936c0.107-0.005,0.425,0.012,0.957,0.055
		l0.435,1.279l-0.077,0.284l-9.626-4.707c-0.249-0.159-0.728-0.279-1.438-0.363L107.731,29.205z M112.003,27.261
		c0.198-0.095,0.356-0.179,0.474-0.253c0.116-0.074,0.483-0.674,1.1-1.801c0.616-1.126,1.044-2.206,1.287-3.238l0.373-0.095
		l0.157,1.88c-1.404,2.738-2.542,4.682-3.414,5.829l-0.296-0.189L112.003,27.261z M117.451,29.52
		c0.195,0.125,0.633,0.257,1.313,0.394l0.513,0.995l-0.202,0.316l-6.709-3.064l0.506-0.79L117.451,29.52z M116.482,42.142
		l-0.202,0.315l-2.847-1.263l-0.482-9.21l0.616,0.506c0.162,2.033,0.385,3.917,0.667,5.655
		C114.516,39.883,115.263,41.215,116.482,42.142z M115.022,23.517l5.023,2.432c0.329,0.138,0.877,0.043,1.644-0.284l0.26,1.39
		c-0.665,0.169-1.03,0.307-1.098,0.411c-0.067,0.106-0.856,1.121-2.367,3.049l-0.916-0.363l2.468-3.207l-5.519-2.638L115.022,23.517
		z"/>
</g>
<g>
	<path fill="#FF0000" d="M64.465,22.877l-0.532,0.103l-2.218-2.437l0.302-0.344l1.774,1.09l2.536-5.932l0.479,0.099L64.465,22.877z
		 M64.767,13.462c0.46,0.167,0.748,0.302,0.86,0.408c0.113,0.106,0.197,0.63,0.257,1.573l-0.443,0.085
		c-0.841-0.855-1.975-1.655-3.406-2.398l0.106-0.402C63.43,13.052,64.305,13.298,64.767,13.462z M67.224,26.689
		c-0.054-0.275-0.159-0.828-0.319-1.656c-0.16-0.829-0.287-1.408-0.382-1.74c-0.095-0.331-0.401-1.052-0.922-2.162l0.354-0.068
		l1.419,1.159c0.592,3.069,0.993,5.474,1.207,7.215l-0.444,0.085l-1.082-1.797C67.219,27.311,67.277,26.966,67.224,26.689z
		 M70.763,29.779c-0.628,1.202-2.201,2.587-4.719,4.155l-0.355-0.409c2.271-1.584,3.693-2.956,4.268-4.117
		c0.572-1.16,0.875-2.3,0.905-3.421c0.028-1.117-0.081-2.163-0.329-3.134l0.337-0.161l1.598,1.603
		c-0.296,0.376-0.46,0.646-0.488,0.81c-0.03,0.166-0.084,0.684-0.16,1.559C71.741,27.538,71.39,28.578,70.763,29.779z
		 M66.931,22.307l6.688-2.053c0.295-0.057,0.615-0.468,0.958-1.235l1.171,0.825c-0.379,0.583-0.553,1.03-0.523,1.342
		c0.029,0.314,0.166,1.099,0.408,2.356c0.242,1.259,0.405,2.581,0.487,3.963l-0.354,0.068l-1.1-1.411
		c0.142-0.536,0.188-1.005,0.143-1.412c-0.048-0.403-0.272-1.649-0.675-3.737l-7.043,2.121L66.931,22.307z M70.905,11.42
		c-0.439,0.275-0.826,0.893-1.163,1.847c-0.337,0.958-1.097,2.346-2.279,4.164l-0.479-0.099c1.158-2.259,1.85-3.92,2.076-4.982
		c0.223-1.062,0.271-1.93,0.142-2.606l0.354-0.068L70.905,11.42z M70.328,18.215c0.467-0.917,0.745-1.782,0.834-2.595
		c0.088-0.813,0.074-1.526-0.044-2.14l1.756,1.476c-0.331,0.192-0.595,0.657-0.789,1.393c-0.196,0.739-0.563,1.541-1.101,2.408
		c-0.538,0.869-1.439,1.838-2.705,2.909l-0.338-0.317C69.064,20.177,69.861,19.133,70.328,18.215z M71.207,13.94
		c-0.297,0.057-0.539,0.233-0.728,0.522l-1.242-0.715l5.854-2.083c0.225-0.106,0.52-0.482,0.888-1.126l1.401,1.066
		c-0.415,0.399-0.711,0.774-0.888,1.126c-0.177,0.353-0.616,1.264-1.313,2.734L74.79,15.35l0.71-3.001L71.207,13.94z M76.769,18.215
		c0.963,0.388,2.438,0.485,4.426,0.292l0.089,0.461l-3.743,1.104l-6.032-4.089l0.249-0.621
		C74.133,16.878,75.804,17.828,76.769,18.215z M79.402,30.692l-0.443,0.085c-1.763-1.188-3.85-2.153-6.263-2.898l0.001-0.478
		c2.282,0.388,3.861,0.705,4.736,0.949s1.401,0.429,1.579,0.555C79.188,29.029,79.32,29.625,79.402,30.692z"/>
</g>
<polygon fill="#FF0000" points="95.902,100.701 80.638,89.24 65.745,100.133 70.751,82.836 57.275,71.572 74.501,71.322 
	80.638,54.549 86.584,71.322 104,71.49 90.417,82.406 "/>
<g>
	<path fill="#FF0000" d="M26.159,44.438c0.401,0.351,0.935,1.014,1.598,1.991l-0.223,0.286l-1.925-0.579
		c-0.332-1.101-1.13-2.26-2.4-3.479l0.279-0.358C24.87,43.375,25.759,44.089,26.159,44.438z M33.448,31.419
		c0.012,0.24,0.385,1.26,1.121,3.06l-0.5,0.186l-1.458-2.401l-7.515,11.633l-0.666-0.519l7.124-11.131
		c0.224-0.286,0.232-0.855,0.023-1.708l2.132-0.295C33.523,30.788,33.436,31.181,33.448,31.419z M27.886,35.889
		c0.118,0.054,0.386,0.473,0.803,1.258l-0.335,0.43c-0.986-0.461-2.055-0.718-3.203-0.769l-0.054-0.388
		C26.838,36.014,27.769,35.837,27.886,35.889z M27.561,43.631l4.204-6.619c0.148-0.19,0.261-0.64,0.337-1.348l1.521-0.427
		l0.147,0.115l-4.428,6.905c-0.111,0.144-0.242,0.464-0.392,0.961L27.561,43.631z M32.333,46.657
		c-0.172-0.286-0.311-0.489-0.415-0.611c-0.104-0.118-0.389-0.34-0.851-0.662c-0.463-0.32-0.773-0.505-0.935-0.555
		c-0.159-0.048-0.537-0.149-1.129-0.305l0.075-0.401l1.539-0.297c1.652,1.134,2.86,2.075,3.624,2.822l-0.224,0.286L32.333,46.657z
		 M35.468,37.826c0.124,0.097,0.647,0.619,1.571,1.568l-0.613,0.788l-1.682-1.654l-3.87,6.189l-0.666-0.519l3.665-5.774
		c0.137-0.276,0.113-0.755-0.07-1.436l1.668-0.311C35.346,37.348,35.346,37.73,35.468,37.826z M38.374,53.548
		c-0.135-0.335-0.259-0.584-0.368-0.747c-0.112-0.162-0.798-0.679-2.063-1.548c-1.263-0.869-1.97-1.362-2.118-1.478
		c-0.146-0.114-0.782-0.417-1.905-0.909l0.223-0.286l1.854,0.063l4.53,3.184l2.312,1.916l-0.224,0.286L38.374,53.548z M33.241,46.56
		l-0.498-0.733l3.46-5.358c0.148-0.189,0.279-0.663,0.394-1.419l1.501-0.096L33.241,46.56z M43.333,41.766
		c1.38,1.229,2.537,2.36,3.475,3.396l-0.167,0.215l-2-0.637c-0.208-0.545-0.373-0.866-0.497-0.963
		c-0.123-0.096-1.461-1.252-4.012-3.47l-5.99,9.369l-0.666-0.518l5.618-8.739c0.224-0.286,0.256-0.836,0.097-1.65l1.539-0.297
		c0.012,0.699,0.103,1.116,0.274,1.25C41.176,39.856,41.953,40.538,43.333,41.766z M36.562,44.89l0.613-0.787l4.955,3.859
		l-0.613,0.787L36.562,44.89z M40.141,43.65l1.316-0.47l0.222,0.173l-2.828,4.7c-0.149,0.19-0.298,0.535-0.448,1.031l-1.39,0.413
		c1.972-3.142,2.983-4.77,3.032-4.886C40.096,44.498,40.127,44.178,40.141,43.65z M45.086,44.166l-5.879,9.227l-0.498-0.733
		l4.149-6.547c0.088-0.314,0.167-0.674,0.243-1.075L45.086,44.166z"/>
</g>
<g>
	<path fill="#FF0000" d="M82.679,24.545l-0.957-1.185l8.946-2.181l0.016,0.476C85.988,23.172,83.318,24.135,82.679,24.545z
		 M83.068,17.21c4.165,0.112,6.29,0.159,6.381,0.14c0.09-0.018,0.379-0.117,0.872-0.297l1.083,0.919l-0.126,0.265l-6.077-0.142
		c-0.228-0.034-0.582,0.009-1.063,0.127L83.068,17.21z M83.13,29.729l0.225-0.346l1.769,1.589c0.168-0.354,0.299-0.84,0.391-1.459
		l2.267-15.302c0.175-1.174,0.183-2.215,0.027-3.123l0.283-0.147l1.246,2.174c-0.331,0.268-0.516,0.54-0.557,0.818
		c-0.041,0.278-0.863,5.828-2.467,16.646c-0.158,0.671-0.409,1.582-0.753,2.731l-0.426-0.063L83.13,29.729z M86.909,30.668
		l11.358,0.356c0.282,0.042,0.759-0.044,1.432-0.262l1.069,1.011l-0.126,0.266l-11.697-0.406c-0.229-0.034-0.583,0.008-1.065,0.127
		L86.909,30.668z M90.511,26.938c0.243-0.469,0.395-0.81,0.457-1.022c0.06-0.212,0.276-1.964,0.647-5.259
		c0.371-3.293,0.574-5.047,0.606-5.265c0.032-0.216-0.025-0.999-0.174-2.348l0.426,0.063l0.733,2.099
		c-0.882,7.515-1.525,12.063-1.934,13.645l-0.256-0.038L90.511,26.938z M91.303,26.296l4.968-0.022
		c0.227,0.033,0.676-0.057,1.348-0.274l0.769,0.683l-0.068,0.463l-7.14-0.015L91.303,26.296z M97.096,20.71l0.029,0.384
		l-5.309-0.029l0.124-0.834l3.052-0.022c0.284,0.042,0.619-0.065,1.005-0.325L97.096,20.71z M92.695,15.13l5.82,0.104
		c0.284,0.042,0.703-0.243,1.26-0.856l0.957,1.185c-0.612,0.605-0.933,0.999-0.96,1.185c-0.027,0.185-0.755,3.522-2.18,10.008
		l-0.965,0.046l2.276-10.656l-6.332-0.18L92.695,15.13z"/>
</g>
<g>
	<path fill="#FF0000" d="M121.003,44.214c2.554-1.574,3.911-2.411,4.07-2.509c0.159-0.099,0.538-0.435,1.137-1.013l0.313,0.327
		l-0.141,1.024l-8.857,5.462l-2.807,1.522l-0.186-0.302l1.257-1.715c0.55-0.063,0.918-0.149,1.104-0.264
		S118.449,45.789,121.003,44.214z M126.766,40.609c2.786,0.054,4.745-0.043,5.879-0.289c1.131-0.248,2.139-0.609,3.022-1.083
		l0.186,0.302l-1.31,2.163c-0.463-0.271-1.124-0.333-1.985-0.183c-0.862,0.149-2.758,0.172-5.686,0.067
		c-2.929-0.105-6.142-0.85-9.639-2.235l0.259-0.473C120.887,39.979,123.979,40.557,126.766,40.609z M121.488,53.396l8.618-5.313
		l-4.581-5.823l0.719-0.442l4.348,5.444c0.208,0.22,0.692,0.408,1.45,0.566l-0.319,1.446c-0.789-0.208-1.291-0.246-1.503-0.115
		c-0.213,0.132-3.14,1.936-8.778,5.412c-0.881,0.474-1.731,0.823-2.547,1.05l0.785-4.443l0.365-0.122l0.153,2.929
		C120.633,53.854,121.062,53.66,121.488,53.396z M120.997,44.74l2.366,3.124c0.293,0.237,0.7,0.54,1.225,0.913l0.06,1.525
		l-0.319,0.196l-4.05-5.315L120.997,44.74z M123.551,43.166l2.367,3.124c0.292,0.237,0.658,0.532,1.096,0.886l0.047,1.326
		l-0.318,0.197l-3.91-5.09L123.551,43.166z M125.473,36.458l0.227-1.598l9.574,12.85c0.177,0.169,0.569,0.447,1.178,0.838
		l-0.113,1.423l-0.32,0.197l-9.48-12.699C126.381,37.217,126.025,36.881,125.473,36.458z"/>
</g>
<g>
	<path fill="#FF0000" d="M120.882,60.264l-0.063-0.339l2.066-1.182c0.472,0.145,0.861,0.189,1.17,0.131
		c0.307-0.058,2.901-0.548,7.784-1.47c4.882-0.922,7.416-1.4,7.6-1.435c0.185-0.035,0.868-0.282,2.055-0.74l0.232,0.219
		l-1.835,1.401l-16.121,3.044L120.882,60.264z M123.064,66.265l0.93-1.142l4.101,3.529l-0.412,0.342
		C125.126,67.25,123.589,66.342,123.064,66.265z M124.619,66.41l-0.729-0.828l17.043-3.219c0.307-0.058,0.93-0.294,1.87-0.705
		l0.232,0.219l-1.466,1.332L124.619,66.41z M127.384,72.213c-0.793,1.027-1.141,2.293-1.048,3.799l-0.46,0.088l-0.825-3.358
		c5.855-5.029,8.915-7.687,9.181-7.971l0.313,0.644C130.562,68.918,128.175,71.185,127.384,72.213z M133.58,62.082
		c-0.563,0.224-1.254,0.354-2.072,0.392c-0.82,0.036-1.806-0.129-2.956-0.496l2.104-2.506l0.4,0.101l-0.709,1.803
		c0.472,0.145,0.958,0.199,1.462,0.163c0.501-0.037,1.035-0.151,1.604-0.347c0.567-0.194,1.303-0.76,2.209-1.691l4.43,0.219
		l-1.129-2.95l0.829-0.156l0.974,2.627c0.103,0.214,0.505,0.49,1.205,0.827l-0.837,1.125c-0.567-0.304-0.949-0.48-1.149-0.53
		s-1.567-0.217-4.102-0.5C134.896,61.219,134.142,61.857,133.58,62.082z M130.891,68.3c1.217,1.058,2.089,1.714,2.613,1.967
		c0.524,0.252,1.146,0.428,1.864,0.526l-0.028,0.356l-1.93,0.893c-0.147-0.442-0.434-0.856-0.855-1.245
		c-0.424-0.39-1.142-1.073-2.152-2.054L130.891,68.3z M136.618,69.326l-0.701,0.836l-0.276,0.052l-1.922-6.138l0.921-0.174
		l1.153,4.088C135.896,68.203,136.172,68.65,136.618,69.326z M141.488,62.785l1.435,4.561c0.165,0.202,0.613,0.557,1.346,1.064
		l-1.038,1.073c-0.599-0.473-1.018-0.673-1.257-0.596c-0.241,0.073-2.272,0.267-6.093,0.578l-0.252-0.831l6.545-0.707l-1.514-4.986
		L141.488,62.785z M138.309,63.122l0.461,1.934c0.113,0.271,0.404,0.626,0.869,1.065l-0.513,1.327l-0.369,0.069l-1.245-4.069
		L138.309,63.122z"/>
</g>
<g>
	<path fill="#FF0000" d="M127.561,88.919c-0.195,0.065-0.866-0.135-2.011-0.601l0.045-0.428c2.004-0.538,4.113-1.467,6.326-2.79
		l0.142,0.447C129.256,87.729,127.756,88.853,127.561,88.919z M126.552,77.887l1.591-0.783c0.176,0.71,0.99,1.63,2.443,2.762
		c1.451,1.131,2.818,2.023,4.102,2.677s2.506,1.127,3.669,1.422l-0.027,0.256l-2.345,0.79c-0.09-0.354-0.788-0.89-2.095-1.602
		c-1.308-0.714-3.287-2.217-5.936-4.511l0.167,9.173l-0.755,0.007c-0.31-6.021-0.503-9.121-0.578-9.302
		S126.636,78.298,126.552,77.887z M135.723,90.64c-1.379,0.861-2.252,2.139-2.617,3.827l-0.466-0.05l0.244-4.119l12.869-4.953
		l-0.153,1.453c-0.609-0.181-0.995-0.249-1.156-0.208c-0.162,0.039-1.311,0.51-3.447,1.408S137.101,89.776,135.723,90.64z
		 M136.883,79.146c-1.091-0.979-2.455-2.648-4.093-5.008l0.502-0.293c1.662,2.132,3.118,3.666,4.371,4.605
		c1.253,0.937,2.378,1.731,3.379,2.385c1,0.651,1.934,1.023,2.806,1.115l-0.045,0.427l-2.328,0.618
		c-0.025-0.348-0.525-0.832-1.497-1.452S137.973,80.123,136.883,79.146z"/>
</g>
<g>
	<path fill="#FF0000" d="M119.055,103.477l0.131-0.302l4.781-1.614l0.192,0.262l-2.896,1.98c0.509,0.397,0.931,0.684,1.263,0.858
		c0.334,0.173,5.148,2.267,14.445,6.278l2.749-8.5c0.109-0.253,0.146-0.655,0.113-1.207l1.37-0.575l-3.262,10.163
		c-0.087,0.201,0.098,0.639,0.555,1.316l-1.37,0.573c-0.286-0.603-0.587-0.97-0.901-1.106c-0.315-0.136-2.741-1.182-7.273-3.139
		c-4.533-1.956-7.076-3.084-7.629-3.382C120.771,104.785,120.015,104.25,119.055,103.477z M126.504,103.014l1.935-6.609l0.86,0.371
		l-1.376,4.608c0.007,0.301-0.025,0.767-0.092,1.396l-0.982,0.384L126.504,103.014z M133.268,98.937l-3.906-1.596l-2.55-1.19
		l0.13-0.303l1.93,0.026c0.313,0.373,0.649,0.623,1.005,0.747c0.354,0.123,0.997,0.37,1.927,0.741
		c0.928,0.37,1.471,0.575,1.625,0.612c0.153,0.035,0.694,0.165,1.62,0.385l-0.163,0.379L133.268,98.937z M132.268,103.618
		c-0.03,0.226,0.128,0.651,0.47,1.279l-1.134,0.497c-0.285-0.603-0.557-0.958-0.814-1.069c-0.259-0.111-1.475-0.726-3.646-1.843
		l0.359-0.832l3.86,1.936l1.326-5.438l0.86,0.371L132.268,103.618z M136.381,99.293c0.109-0.252,0.164-0.617,0.165-1.094
		l1.318-0.688l-2.599,8.387c-0.029,0.226-0.048,0.665-0.059,1.32l-1.08,0.61l-0.377-0.073L136.381,99.293z"/>
</g>
<g>
	<path fill="#FF0000" d="M33.932,120.124c-0.569,0.078-1.216,0.076-1.94-0.003l0.539-0.709c0.943,0.049,1.831-0.06,2.664-0.331
		l0.448,0.34l-4.876,6.421l-0.747-0.567L33.932,120.124z"/>
</g>
<g>
	<path fill="#FF0000" d="M53.284,134.359c0.318-0.764,0.657-1.338,1.018-1.721c0.359-0.383,0.77-0.655,1.23-0.817
		c0.46-0.16,0.947-0.146,1.459,0.045c0.513,0.191,0.88,0.571,1.102,1.137c0.222,0.566,0.271,1.194,0.148,1.882
		c-0.124,0.688-0.362,1.44-0.718,2.259c-0.355,0.817-0.757,1.443-1.201,1.878c-0.446,0.434-0.956,0.661-1.53,0.68
		c-0.574,0.02-1.063-0.188-1.469-0.623c-0.405-0.434-0.633-0.895-0.685-1.382c-0.052-0.486-0.038-0.972,0.045-1.459
		C52.764,135.75,52.964,135.125,53.284,134.359z M54.304,134.44c-0.389,0.773-0.627,1.5-0.715,2.185
		c-0.089,0.686-0.014,1.221,0.225,1.61c0.238,0.389,0.563,0.568,0.975,0.538c0.411-0.028,0.788-0.256,1.129-0.679
		c0.341-0.423,0.618-0.92,0.832-1.491c0.213-0.57,0.385-1.099,0.516-1.583c0.131-0.483,0.158-0.959,0.081-1.421
		c-0.078-0.462-0.296-0.769-0.657-0.921c-0.361-0.151-0.751-0.088-1.17,0.188C55.096,133.144,54.692,133.668,54.304,134.44z"/>
</g>
<g>
	<path fill="#FF0000" d="M41.432,125.536c-0.569,0.078-1.216,0.076-1.94-0.003l0.539-0.709c0.943,0.049,1.831-0.06,2.664-0.331
		l0.448,0.34l-4.876,6.421l-0.747-0.567L41.432,125.536z"/>
</g>
<g>
	<path fill="#FF0000" d="M45.425,130.626c0.385-0.733,0.774-1.274,1.167-1.624c0.393-0.35,0.825-0.584,1.298-0.704
		c0.473-0.119,0.957-0.062,1.45,0.174c0.493,0.236,0.825,0.647,0.996,1.23c0.17,0.584,0.164,1.214-0.02,1.888
		c-0.185,0.674-0.489,1.402-0.917,2.186s-0.881,1.371-1.364,1.764s-1.011,0.574-1.584,0.541c-0.574-0.032-1.043-0.282-1.407-0.751
		c-0.366-0.469-0.552-0.947-0.56-1.437c-0.009-0.49,0.049-0.973,0.174-1.45C44.784,131.965,45.039,131.359,45.425,130.626z
		 M46.435,130.797c-0.456,0.736-0.759,1.439-0.907,2.112c-0.149,0.675-0.122,1.215,0.08,1.624c0.203,0.408,0.511,0.616,0.923,0.623
		c0.413,0.008,0.808-0.186,1.186-0.576c0.377-0.391,0.697-0.861,0.961-1.411c0.263-0.549,0.481-1.06,0.655-1.531
		c0.173-0.47,0.242-0.94,0.206-1.408c-0.037-0.467-0.228-0.792-0.573-0.976c-0.346-0.183-0.74-0.154-1.183,0.084
		C47.339,129.576,46.89,130.063,46.435,130.797z"/>
</g>
<g>
	<path fill="#FF0000" d="M61.325,137.089c0.272-0.782,0.578-1.374,0.915-1.778c0.337-0.403,0.73-0.699,1.181-0.888
		c0.45-0.188,0.937-0.202,1.459-0.041c0.522,0.16,0.912,0.519,1.167,1.07c0.254,0.552,0.341,1.177,0.259,1.869
		c-0.084,0.693-0.278,1.46-0.585,2.297c-0.307,0.838-0.67,1.486-1.089,1.946c-0.419,0.459-0.915,0.716-1.487,0.768
		c-0.572,0.053-1.072-0.125-1.502-0.535c-0.431-0.41-0.686-0.856-0.766-1.339c-0.08-0.483-0.095-0.969-0.041-1.46
		C60.889,138.508,61.052,137.871,61.325,137.089z M62.349,137.109c-0.343,0.795-0.538,1.534-0.586,2.223
		c-0.049,0.689,0.059,1.22,0.318,1.594c0.261,0.375,0.596,0.535,1.005,0.48c0.409-0.053,0.771-0.302,1.088-0.743
		c0.315-0.443,0.563-0.955,0.742-1.537c0.18-0.583,0.32-1.12,0.422-1.612c0.103-0.49,0.102-0.965-0.003-1.423
		c-0.104-0.456-0.342-0.75-0.71-0.88c-0.369-0.131-0.755-0.044-1.158,0.257C63.063,135.768,62.691,136.316,62.349,137.109z"/>
</g>
<g>
	<path fill="#FF0000" d="M69.444,139.646c0.154-0.813,0.367-1.443,0.641-1.895c0.273-0.447,0.618-0.799,1.036-1.053
		c0.417-0.252,0.896-0.338,1.437-0.258c0.541,0.082,0.979,0.379,1.313,0.885c0.333,0.51,0.512,1.113,0.532,1.811
		c0.021,0.699-0.057,1.486-0.235,2.359c-0.18,0.873-0.442,1.568-0.788,2.086c-0.347,0.516-0.799,0.844-1.356,0.98
		c-0.559,0.137-1.08,0.035-1.565-0.307c-0.487-0.342-0.805-0.744-0.956-1.211c-0.15-0.465-0.237-0.943-0.258-1.438
		C69.224,141.115,69.29,140.461,69.444,139.646z M70.46,139.516c-0.221,0.838-0.305,1.598-0.249,2.285
		c0.054,0.689,0.238,1.197,0.552,1.529s0.669,0.439,1.065,0.326s0.718-0.414,0.964-0.898c0.247-0.484,0.416-1.027,0.507-1.629
		c0.091-0.604,0.149-1.156,0.178-1.656c0.028-0.502-0.044-0.971-0.215-1.408c-0.172-0.436-0.449-0.689-0.833-0.766
		c-0.384-0.072-0.753,0.07-1.106,0.428C70.967,138.084,70.681,138.68,70.46,139.516z"/>
</g>
<g>
	<path fill="#FF0000" d="M77.911,140.739c0.069-0.824,0.217-1.476,0.442-1.95s0.533-0.859,0.922-1.154
		c0.389-0.294,0.856-0.429,1.403-0.403c0.546,0.025,1.012,0.273,1.396,0.744c0.384,0.472,0.624,1.055,0.717,1.746
		c0.093,0.692,0.096,1.482,0.007,2.37c-0.088,0.888-0.277,1.606-0.568,2.156c-0.292,0.549-0.708,0.922-1.249,1.115
		s-1.07,0.146-1.589-0.145c-0.519-0.289-0.877-0.658-1.074-1.105c-0.198-0.447-0.333-0.914-0.405-1.403
		C77.842,142.222,77.842,141.565,77.911,140.739z M78.908,140.504c-0.134,0.854-0.139,1.62-0.013,2.298
		c0.124,0.681,0.36,1.167,0.706,1.465s0.71,0.369,1.093,0.215c0.383-0.153,0.672-0.485,0.867-0.992
		c0.194-0.508,0.308-1.064,0.336-1.674s0.03-1.164,0.007-1.666c-0.024-0.5-0.144-0.96-0.358-1.377
		c-0.216-0.416-0.519-0.641-0.907-0.675c-0.391-0.034-0.742,0.146-1.058,0.537C79.265,139.027,79.041,139.649,78.908,140.504z"/>
</g>
<g>
	<path fill="#FF0000" d="M86.522,140.436c-0.02-0.827,0.057-1.49,0.23-1.987c0.173-0.495,0.437-0.912,0.792-1.246
		c0.354-0.334,0.806-0.52,1.352-0.553c0.545-0.034,1.035,0.164,1.468,0.591c0.434,0.427,0.734,0.981,0.901,1.658
		c0.166,0.679,0.254,1.463,0.263,2.355c0.008,0.892-0.104,1.627-0.334,2.205c-0.23,0.577-0.604,0.993-1.122,1.242
		c-0.517,0.252-1.048,0.261-1.595,0.027c-0.547-0.23-0.942-0.559-1.188-0.983c-0.245-0.423-0.43-0.872-0.553-1.351
		C86.614,141.917,86.542,141.264,86.522,140.436z M87.488,140.094c-0.041,0.865,0.036,1.626,0.234,2.287
		c0.197,0.662,0.483,1.121,0.86,1.379c0.375,0.259,0.745,0.291,1.109,0.097c0.363-0.194,0.615-0.555,0.755-1.08
		s0.191-1.092,0.153-1.7c-0.037-0.608-0.095-1.161-0.172-1.657c-0.077-0.495-0.246-0.939-0.505-1.33
		c-0.259-0.39-0.584-0.582-0.975-0.574c-0.392,0.008-0.722,0.226-0.993,0.648S87.528,139.23,87.488,140.094z"/>
</g>
<g>
	<path fill="#FF0000" d="M95.321,140.644c-0.098-0.362-0.104-0.741-0.017-1.137s0.312-0.757,0.677-1.083
		c-0.419-0.111-0.725-0.281-0.914-0.504s-0.338-0.498-0.443-0.826s-0.138-0.627-0.098-0.897c0.041-0.271,0.138-0.538,0.291-0.808
		c0.154-0.268,0.35-0.475,0.585-0.619s0.505-0.26,0.806-0.341c0.302-0.081,0.582-0.125,0.84-0.13s0.549,0.053,0.873,0.176
		c0.325,0.123,0.596,0.348,0.815,0.677c0.218,0.329,0.326,0.754,0.321,1.272c-0.005,0.52-0.258,0.992-0.756,1.42
		c0.554,0.012,0.979,0.146,1.275,0.406s0.508,0.615,0.63,1.067c0.123,0.452,0.153,0.833,0.091,1.142
		c-0.062,0.309-0.151,0.574-0.268,0.801c-0.117,0.227-0.305,0.432-0.563,0.613c-0.258,0.186-0.605,0.336-1.042,0.453
		c-0.438,0.119-0.829,0.17-1.175,0.149c-0.345-0.02-0.652-0.106-0.92-0.261c-0.269-0.152-0.479-0.361-0.633-0.629
		C95.546,141.32,95.42,141.006,95.321,140.644z M95.437,136.775c0.082,0.301,0.266,0.559,0.551,0.773
		c0.284,0.215,0.653,0.26,1.105,0.137s0.755-0.35,0.907-0.684c0.152-0.332,0.171-0.684,0.053-1.059
		c-0.118-0.372-0.329-0.615-0.635-0.727s-0.673-0.091-1.102,0.057c-0.429,0.148-0.703,0.361-0.823,0.637
		C95.374,136.186,95.355,136.475,95.437,136.775z M96.236,140.348c0.083,0.365,0.229,0.666,0.439,0.9
		c0.209,0.234,0.505,0.341,0.887,0.317c0.383-0.022,0.758-0.133,1.125-0.329c0.367-0.197,0.581-0.48,0.643-0.855
		c0.061-0.373,0.023-0.717-0.112-1.037c-0.135-0.32-0.398-0.547-0.792-0.684s-0.782-0.135-1.165,0
		c-0.385,0.137-0.672,0.361-0.862,0.672S96.153,139.98,96.236,140.348z"/>
</g>
<g>
	<path fill="#FF0000" d="M104.027,140.169c-0.129-0.451-0.064-0.923,0.191-1.413c0.256-0.489,0.543-1.215,0.863-2.176
		s0.496-1.678,0.525-2.154c0.027-0.475-0.031-0.852-0.182-1.13c-0.148-0.278-0.375-0.471-0.68-0.578s-0.605-0.09-0.904,0.05
		c-0.297,0.14-0.549,0.363-0.756,0.669s-0.309,0.69-0.309,1.155l-0.885,0.168c-0.008-0.761,0.117-1.362,0.375-1.803
		s0.631-0.765,1.121-0.974c0.283-0.133,0.551-0.222,0.801-0.262c0.252-0.04,0.531-0.023,0.84,0.048
		c0.307,0.073,0.6,0.242,0.879,0.507c0.277,0.268,0.475,0.636,0.594,1.107c0.119,0.473,0.086,1.097-0.1,1.877
		c-0.186,0.781-0.625,2.059-1.316,3.832l3.178-1.137l0.283,0.794l-4.457,1.596L104.027,140.169z"/>
</g>
<g>
	<path fill="#FF0000" d="M111.417,135.046l0.732-0.442c0.266,0.332,0.579,0.57,0.938,0.713c0.359,0.143,0.733,0.13,1.119-0.041
		c0.386-0.17,0.635-0.453,0.746-0.851c0.112-0.397,0.074-0.786-0.109-1.167c-0.185-0.38-0.458-0.625-0.82-0.733
		c-0.363-0.108-0.866-0.085-1.511,0.069l-0.225-0.566c0.587-0.3,0.967-0.635,1.139-1.006s0.16-0.761-0.036-1.171
		c-0.195-0.409-0.505-0.639-0.929-0.69c-0.424-0.051-0.803,0.074-1.137,0.376c-0.334,0.301-0.486,0.831-0.453,1.591l-0.836,0.181
		c-0.033-0.592,0.033-1.123,0.199-1.592c0.168-0.47,0.501-0.837,1.001-1.104c0.499-0.266,0.982-0.381,1.45-0.348
		c0.467,0.033,0.858,0.214,1.174,0.543c0.314,0.329,0.506,0.749,0.574,1.259c0.068,0.512-0.104,1.051-0.518,1.618
		c0.476,0.013,0.892,0.15,1.248,0.412c0.355,0.263,0.609,0.691,0.762,1.286c0.152,0.596,0.08,1.154-0.218,1.676
		s-0.726,0.885-1.282,1.088c-0.559,0.205-1.106,0.221-1.646,0.048C112.24,136.022,111.786,135.64,111.417,135.046z"/>
</g>
<g>
	<path fill="#FF0000" d="M125.89,124.033c-0.236-0.291-0.396-0.635-0.479-1.031c-0.08-0.396-0.021-0.818,0.18-1.265
		c-0.429,0.068-0.776,0.038-1.041-0.089c-0.264-0.127-0.512-0.318-0.741-0.576c-0.229-0.256-0.38-0.514-0.454-0.778
		c-0.072-0.263-0.094-0.548-0.063-0.856c0.031-0.307,0.125-0.575,0.281-0.804c0.156-0.228,0.355-0.441,0.598-0.64
		c0.242-0.196,0.48-0.35,0.714-0.46c0.233-0.108,0.522-0.175,0.869-0.194s0.687,0.075,1.021,0.287
		c0.334,0.211,0.605,0.556,0.812,1.031c0.207,0.477,0.169,1.012-0.113,1.604c0.511-0.214,0.954-0.265,1.331-0.147
		c0.377,0.116,0.713,0.355,1.01,0.719s0.479,0.697,0.547,1.004c0.069,0.308,0.096,0.588,0.082,0.842
		c-0.016,0.254-0.104,0.518-0.264,0.789c-0.161,0.273-0.418,0.553-0.768,0.839c-0.352,0.286-0.689,0.491-1.012,0.613
		c-0.324,0.123-0.641,0.169-0.947,0.138s-0.586-0.137-0.834-0.318C126.37,124.56,126.127,124.324,125.89,124.033z M124.422,120.453
		c0.197,0.242,0.47,0.402,0.817,0.482c0.347,0.08,0.702-0.029,1.065-0.325s0.547-0.627,0.551-0.993s-0.123-0.695-0.383-0.988
		c-0.259-0.293-0.552-0.428-0.875-0.406c-0.324,0.023-0.652,0.19-0.983,0.5c-0.332,0.311-0.496,0.616-0.493,0.916
		C124.124,119.939,124.226,120.211,124.422,120.453z M126.604,123.39c0.226,0.301,0.481,0.515,0.768,0.645
		c0.287,0.129,0.602,0.106,0.94-0.071c0.34-0.177,0.638-0.43,0.894-0.759c0.255-0.329,0.336-0.676,0.238-1.042
		c-0.096-0.365-0.27-0.665-0.523-0.902s-0.588-0.338-1.002-0.302c-0.416,0.036-0.77,0.194-1.064,0.475
		c-0.296,0.281-0.467,0.603-0.515,0.964C126.292,122.759,126.38,123.089,126.604,123.39z"/>
</g>
<g>
	<text transform="matrix(0.8083 -0.5888 0.5888 0.8083 597.2119 170.2637)" fill="#323232" font-family="'SimHei'" font-size="12">8</text>
</g>
<g>
	<text transform="matrix(0.8083 -0.5888 0.5888 0.8083 597.2119 170.2637)" fill="#323232" font-family="'SimHei'" font-size="12">8</text>
</g>
<g>
	<text transform="matrix(0.8083 -0.5888 0.5888 0.8083 597.2119 170.2637)" fill="#323232" font-family="'SimHei'" font-size="12">8</text>
</g>
<g>
	<text transform="matrix(0.8083 -0.5888 0.5888 0.8083 597.2119 170.2637)" fill="#323232" font-family="'SimHei'" font-size="12">8</text>
</g>
<g>
	<text transform="matrix(0.8083 -0.5888 0.5888 0.8083 597.2119 170.2637)" fill="#323232" font-family="'SimHei'" font-size="12">8</text>
</g>
<g>
	<path fill="#FF0000" d="M121.193,131.063c-0.125-1.338-0.287-2.517-0.485-3.532c-0.558,0.562-1.143,0.86-1.752,0.899
		c-0.609,0.038-1.125-0.139-1.544-0.528c-0.42-0.39-0.712-0.806-0.878-1.245c-0.166-0.438-0.229-0.857-0.188-1.254
		s0.175-0.756,0.403-1.078c0.23-0.32,0.465-0.569,0.705-0.744c0.239-0.175,0.523-0.303,0.85-0.387
		c0.324-0.083,0.662-0.097,1.013-0.042c0.35,0.056,0.64,0.163,0.872,0.321c0.232,0.16,0.473,0.41,0.721,0.751
		s0.439,0.869,0.573,1.583c0.134,0.715,0.315,2.264,0.544,4.648L121.193,131.063z M117.894,126.971
		c0.277,0.301,0.614,0.473,1.01,0.512c0.396,0.039,0.725-0.055,0.984-0.282c0.26-0.227,0.426-0.464,0.498-0.71
		c0.071-0.246,0.073-0.576,0.004-0.989c-0.176-0.452-0.385-0.794-0.628-1.021c-0.244-0.228-0.538-0.353-0.88-0.374
		c-0.344-0.02-0.643,0.063-0.895,0.246c-0.17,0.086-0.338,0.266-0.506,0.541c-0.166,0.276-0.208,0.616-0.126,1.021
		S117.617,126.67,117.894,126.971z"/>
</g>
</svg>
