<?xml version="1.0" encoding="utf-8"?>
<!-- Generator: Adobe Illustrator 14.0.0, SVG Export Plug-In . SVG Version: 6.00 Build 43363)  -->
<!DOCTYPE svg PUBLIC "-//W3C//DTD SVG 1.1//EN" "http://www.w3.org/Graphics/SVG/1.1/DTD/svg11.dtd">
<svg version="1.1" id="图层_1" xmlns="http://www.w3.org/2000/svg" xmlns:xlink="http://www.w3.org/1999/xlink" x="0px" y="0px"
	 width="154px" height="154px" viewBox="0 0 154 154" enable-background="new 0 0 154 154" xml:space="preserve">
<circle fill="none" stroke="#FF0000" stroke-width="3.5" cx="77" cy="77.265" r="74.25"/>
<g>
	<path fill="#FF0000" d="M28.972,111.201c1.405-0.688,2.86-1.262,4.365-1.719l0.114,0.257l-1.214,1.661
		c-0.557-0.026-0.942-0.011-1.157,0.051c-0.212,0.06-0.898,0.36-2.059,0.905c-1.159,0.547-1.89,0.901-2.193,1.069
		c-0.301,0.168-0.847,0.596-1.636,1.285l-0.36-0.354l0.919-1.635C26.495,112.395,27.569,111.887,28.972,111.201z M18.113,101.437
		l0.613-1.396c0.8,0.261,1.321,0.322,1.565,0.181c0.245-0.144,1.834-0.759,4.771-1.847l0.415,0.944l-5.137,2.059l6.531,11.566
		l-0.857,0.378l-6.258-11.174C19.551,101.829,19.002,101.594,18.113,101.437z M19.715,108.21c0.315-0.138,5.334-2.349,15.056-6.635
		l3.126-1.274l0.113,0.257l-2.035,2.125c-0.583-0.085-1.117-0.02-1.605,0.194c-0.485,0.214-3.087,1.362-7.807,3.44
		c-4.718,2.079-7.234,3.188-7.549,3.327c-0.313,0.138-0.923,0.578-1.827,1.317l-0.19-0.429l1.282-2.205
		C18.923,108.389,19.402,108.348,19.715,108.21z M32.105,110.64l-0.858,0.378l-5.762-10.984c-0.176-0.4-0.518-0.866-1.023-1.395
		l0.27-1.245l0.22-0.199L32.105,110.64z"/>
</g>
<g>
	<path fill="#FF0000" d="M19.875,91.545l0.397,1.597c0.223,0.467,0.433,0.78,0.633,0.947l-0.744,1.407l-0.901-3.364
		c-0.084-0.293-0.392-0.661-0.927-1.106l0.677-1.042c0.534,0.444,0.893,0.645,1.077,0.6c0.186-0.042,2.936-0.136,8.252-0.281
		l0.545,1.042C28.249,91.211,25.244,91.277,19.875,91.545z M14.1,90.34c0.211-0.136,0.856-0.092,1.937,0.132l0.032,0.449
		c-0.971,0.431-2.313,1.373-4.025,2.819l-0.306-0.34C13.103,91.497,13.892,90.477,14.1,90.34z M24.889,88.113
		c2.598,1.256,4.187,2.016,4.771,2.271l-0.664,1.224l-4.276-3.211L24.889,88.113z M15.413,88.35l-0.025-0.358l1.892-1.131
		c3.986-0.349,6.98-0.311,8.985,0.114c2.005,0.429,4,1.352,5.981,2.771l-0.255,0.379c-2.021-1.117-4.047-1.842-6.08-2.176
		c-2.028-0.335-3.963-0.436-5.801-0.303C18.271,87.78,16.705,88.017,15.413,88.35z M15.641,77.23l0.466-0.032l1.945,9.967
		l-0.841,0.061c-1.013-5.34-1.538-8.056-1.576-8.143c-0.037-0.087-0.223-0.269-0.557-0.546L15.641,77.23z M28.055,85.088
		c-0.649-0.313-1.48-0.539-2.494-0.677c-1.011-0.138-2.396-0.202-4.149-0.194l0.776,2.921l-0.841,0.062l-0.55-2.397
		c-0.145-0.288-0.517-0.654-1.113-1.091l0.963-0.975c0.53,0.383,0.857,0.569,0.979,0.56c0.126-0.01,0.564-0.01,1.316-0.005
		c0.752,0.006,1.731,0.087,2.931,0.238c1.204,0.155,2.455,0.545,3.751,1.173l-1.84,1.85l-0.386-0.154L28.055,85.088z M9.832,83.972
		l-0.208-0.257l1.019-1.517c0.45,0.148,0.83,0.211,1.14,0.189c0.313-0.022,2.039-0.21,5.178-0.557
		c3.14-0.348,5.837-0.95,8.094-1.805c2.257-0.855,3.827-2.098,4.711-3.728l-4.682,0.25l0.062-0.455l6.326-0.91l0.026,0.359
		c-1.551,2.821-3.734,4.664-6.555,5.529c-2.819,0.868-5.689,1.467-8.611,1.799c-2.92,0.332-4.551,0.525-4.892,0.58
		C11.098,83.504,10.563,83.678,9.832,83.972z M11.868,80.935l-0.301-0.247c0.744-1.861,1.159-2.823,1.248-2.889
		c0.089-0.066,0.608-0.045,1.556,0.066l0.026,0.36C13.509,78.952,12.667,79.855,11.868,80.935z M22.983,78.686
		c1.426,0.619,3.341,1.984,5.75,4.096l-0.348,0.387c-2.912-2.136-5.058-3.454-6.443-3.955c-1.383-0.501-2.546-0.748-3.486-0.741
		l0.067-0.365l1.812-0.944C20.679,77.559,21.562,78.067,22.983,78.686z"/>
</g>
<g>
	<path fill="#FF0000" d="M17.168,72.72l-0.291-0.436c0.778-0.957,1.29-1.563,1.537-1.823c0.247-0.258,0.45-0.385,0.609-0.384
		c0.158,0.004,0.677,0.191,1.557,0.564l-0.095,0.447C19.407,71.357,18.299,71.901,17.168,72.72z M19.512,68.45l0.315-0.587
		l10.31,4.713l-0.095,0.447l-3.627,1.287l-0.089-0.486l1.313-1.218L19.512,68.45z M13.332,68.213
		c0.437-0.249,0.693-0.397,0.765-0.445c0.073-0.046,0.605,0.161,1.595,0.619l-0.077,0.359c-1.202,0.243-2.515,0.712-3.94,1.405
		l-0.107-0.397C12.308,68.976,12.896,68.464,13.332,68.213z M29.296,69.312c-0.426-0.401-0.807-0.637-1.144-0.709
		c-0.336-0.071-2.261-0.48-5.776-1.228c-3.515-0.747-5.425-1.152-5.731-1.218c-0.306-0.065-1.156-0.12-2.552-0.168l0.076-0.357
		l2.485-0.875c0.561,0.369,0.979,0.583,1.255,0.64c0.274,0.059,3.958,0.84,11.05,2.347l2.989,0.823l-0.076,0.357L29.296,69.312z
		 M11.737,63.995l-0.219-0.327c0.827-0.884,1.442-1.438,1.839-1.666c0.4-0.227,0.714-0.346,0.939-0.362
		c0.228-0.013,0.761,0.256,1.602,0.81l-0.077,0.357C14.524,62.905,13.164,63.302,11.737,63.995z M26.499,59.466l0.909-1.116
		l0.367,0.077l-0.536,5.682c-0.002,0.314,0.038,0.726,0.119,1.241l-1.164,0.967l0.517-5.592
		C26.75,60.546,26.68,60.128,26.499,59.466z M19.263,61.947c-0.063,0.3-0.054,0.706,0.029,1.221l-1.073,0.989l0.438-4.768
		c-0.009-0.251-0.097-0.737-0.265-1.459l0.871-0.938l0.386-0.01L19.263,61.947z M22.221,59.306l0.908-1.117l0.367,0.078
		l-0.342,4.321c0.01,0.252,0.057,0.636,0.138,1.153l-1.073,0.987l0.304-4.141C22.501,60.393,22.4,59.967,22.221,59.306z
		 M27.027,62.848l-8.07-1.713l0.209-0.984l8.07,1.713L27.027,62.848z M16.133,55.021l-0.297,3.208
		c-0.063,0.298-0.005,0.624,0.176,0.972l-1.164,0.969l0.419-4.678c-0.072-0.265-0.326-0.722-0.762-1.378l1.183-1.057
		c0.496,0.666,0.882,1.03,1.159,1.087c0.274,0.06,2.674,0.568,7.198,1.529c4.526,0.961,7.161,1.552,7.913,1.775
		c0.753,0.221,1.792,0.66,3.123,1.315l0.016,0.377l-3.986,2.519l-0.329-0.257l2.056-2.461c-0.648-0.261-1.225-0.477-1.731-0.647
		C30.602,58.126,25.61,57.035,16.133,55.021z"/>
</g>
<g>
	<path fill="#FF0000" d="M39.427,23.242c0.225,0.758,0.452,1.28,0.678,1.564c0.228,0.29,3.796,4.793,10.704,13.512
		c0.745,0.941,1.25,1.818,1.515,2.625l-5.143-0.387l-0.11-0.424l3.144-0.577c-0.235-0.579-0.558-1.129-0.973-1.652L38.632,24.51
		c-0.537-0.68-1.169-1.286-1.891-1.819l0.152-0.376L39.427,23.242z M55.086,33.211c0.055,1.869-0.511,4.375-1.691,7.522l-0.45-0.281
		c0.88-3.248,1.297-5.701,1.253-7.367c-0.044-1.665-0.648-3.989-1.814-6.978l-2.448,2.448c-0.143,0.199-0.337,0.523-0.582,0.971
		l-1.588-0.017l3.858-4.076c0.183-0.146,0.277-0.645,0.278-1.496l1.505,0.338c-0.042,0.798-0.038,1.326,0.014,1.581
		c0.054,0.257,0.331,1.079,0.83,2.466C54.752,29.715,55.03,31.343,55.086,33.211z M43.979,37.228l-1.705-0.306l3.601-7.953
		l0.464,0.017C44.665,33.881,43.881,36.628,43.979,37.228z M39.805,31.102l-1.589-0.017l4.127-4.163
		c0.144-0.195,0.344-0.608,0.596-1.235l1.395-0.084l0.317,0.257l-3.996,4.186C40.466,30.282,40.181,30.634,39.805,31.102z
		 M48.738,31.163l1.059-1.219c0.374,0.469,0.645,0.743,0.817,0.818c0.174,0.076,1.315,0.36,3.433,0.852
		c2.112,0.493,3.767,0.734,4.959,0.725c1.191-0.011,2.562-0.46,4.11-1.344l0.31,0.39l-2.993,2.754
		C53.387,32.155,49.488,31.165,48.738,31.163z M46.461,24.809c0.533,1.194,0.668,2.998,0.409,5.415l-0.456-0.15
		c-0.094-2.39-0.41-4.115-0.95-5.173c-0.541-1.061-1.121-1.983-1.741-2.767c-0.62-0.783-1.438-1.58-2.455-2.388l0.277-0.221
		l2.132,0.988C45.001,22.185,45.928,23.617,46.461,24.809z M43.124,20.952l2.308-2.34c0.19-0.234,0.24-0.741,0.147-1.52l1.58,0.151
		c-0.124,0.694-0.063,1.197,0.185,1.51c0.248,0.313,1.159,1.463,2.73,3.447c0.369,0.56,0.805,0.636,1.313,0.236l1.058-1.221
		l0.251-0.964l1.18,0.214l0.25,0.313l-1.411,1.628l-1.319,1.171c-0.594,0.386-1.228,0.207-1.892-0.541l-3.165-3.994l-2.45,2.448
		L43.124,20.952z"/>
</g>
<g>
	<path fill="#FF0000" d="M105.276,37.886c0.277-0.127,0.514-0.296,0.707-0.507c0.192-0.213,1.091-1.678,2.691-4.401
		c1.603-2.718,2.47-4.219,2.604-4.505c0.132-0.282,0.336-0.89,0.609-1.815l0.352,0.098l0.327,2.042
		c-0.31,0.181-0.54,0.372-0.692,0.57c-0.152,0.203-1.091,1.77-2.82,4.704c-1.729,2.937-3.039,5.045-3.934,6.333l-0.302-0.176
		L105.276,37.886z M114.265,40.134l-0.19,0.325l-2.892-1.16l-0.82-9.186l0.636,0.482c0.236,2.025,0.527,3.901,0.873,5.628
		C112.217,37.948,113.015,39.254,114.265,40.134z M98.3,33.779c0.249-0.071,0.467-0.216,0.66-0.427
		c0.192-0.213,1.1-1.692,2.717-4.439c1.618-2.747,2.498-4.242,2.64-4.482c0.144-0.245,0.393-0.839,0.747-1.791l0.399,0.016
		l0.452,2.008c-0.361,0.15-0.64,0.331-0.83,0.545c-0.195,0.21-1.036,1.583-2.526,4.114c-1.491,2.533-2.308,3.918-2.449,4.16
		c-0.142,0.243-0.75,1.1-1.822,2.572l-0.379-0.221L98.3,33.779z M105.521,33.134c-1.576,0.596-3.553,1.063-5.93,1.403l0.16-0.448
		c2.403-0.614,4.295-1.225,5.671-1.828s2.774-1.358,4.193-2.264l0.892,0.742C108.758,31.74,107.098,32.54,105.521,33.134z
		 M105.048,27.524c6.779,3.052,10.225,4.572,10.332,4.562c0.107-0.007,0.426-0.003,0.958,0.021l0.481,1.262l-0.066,0.288
		l-9.792-4.353c-0.254-0.148-0.736-0.25-1.452-0.309L105.048,27.524z M109.245,25.426c0.194-0.103,0.35-0.19,0.465-0.27
		c0.112-0.078,0.456-0.691,1.031-1.84c0.575-1.148,0.963-2.242,1.168-3.283l0.371-0.109l0.224,1.873
		c-1.303,2.789-2.367,4.772-3.198,5.952l-0.302-0.178L109.245,25.426z M114.771,27.485c0.201,0.117,0.646,0.233,1.326,0.346
		l0.549,0.975l-0.189,0.325l-6.817-2.818l0.478-0.809L114.771,27.485z M112.124,21.574l5.11,2.247
		c0.334,0.126,0.877,0.012,1.632-0.342l0.31,1.379c-0.658,0.192-1.019,0.343-1.082,0.45c-0.063,0.109-0.814,1.153-2.253,3.133
		l-0.931-0.329l2.352-3.297l-5.614-2.432L112.124,21.574z M110.135,20.186c-0.203,0.171-0.651,0.47-1.343,0.895
		c-0.694,0.428-1.653,0.985-2.878,1.68c-1.225,0.693-3.153,1.425-5.786,2.194l-0.111-0.501c2.296-0.895,4.093-1.722,5.392-2.482
		c1.297-0.758,2.439-1.517,3.433-2.277c0.991-0.758,1.709-1.513,2.153-2.269l0.273,0.054l-0.107,2.438
		C110.678,19.925,110.338,20.016,110.135,20.186z"/>
</g>
<g>
	<path fill="#FF0000" d="M68.127,29.46c-0.583,1.226-2.106,2.666-4.563,4.327l-0.37-0.396c2.213-1.667,3.583-3.089,4.114-4.269
		c0.53-1.182,0.79-2.33,0.779-3.452c-0.013-1.119-0.161-2.159-0.442-3.121l0.33-0.172l1.654,1.542
		c-0.281,0.387-0.435,0.661-0.457,0.826c-0.023,0.167-0.06,0.688-0.103,1.564C69.021,27.188,68.709,28.239,68.127,29.46z
		 M64.477,26.503c-0.063-0.275-0.19-0.823-0.38-1.645c-0.19-0.823-0.339-1.397-0.445-1.724c-0.108-0.327-0.441-1.037-1.001-2.127
		l0.352-0.081l1.461,1.106c0.703,3.046,1.193,5.434,1.469,7.165l-0.439,0.104l-1.147-1.755
		C64.496,27.126,64.541,26.778,64.477,26.503z M76.795,30.059l-0.441,0.101c-1.805-1.124-3.926-2.01-6.364-2.668l-0.017-0.477
		c2.296,0.306,3.884,0.565,4.768,0.777c0.883,0.212,1.416,0.377,1.598,0.496C76.52,28.405,76.672,28.996,76.795,30.059z
		 M64.023,22.135l6.61-2.298c0.292-0.066,0.596-0.488,0.911-1.267l1.201,0.781c-0.358,0.597-0.516,1.049-0.474,1.36
		c0.04,0.313,0.206,1.093,0.494,2.339c0.288,1.25,0.499,2.564,0.633,3.943l-0.352,0.081l-1.151-1.371
		c0.123-0.539,0.151-1.011,0.089-1.415c-0.061-0.402-0.332-1.639-0.81-3.709l-6.962,2.377L64.023,22.135z M61.582,22.795
		l-0.529,0.122l-2.305-2.355l0.289-0.354l1.813,1.024l2.318-6.022l0.482,0.083L61.582,22.795z M67.27,17.92
		c0.433-0.933,0.679-1.806,0.739-2.624c0.057-0.813,0.018-1.527-0.123-2.137l1.81,1.411c-0.324,0.206-0.571,0.679-0.738,1.42
		c-0.167,0.748-0.506,1.561-1.01,2.448c-0.507,0.888-1.372,1.89-2.599,3.006L65,21.139C66.079,19.929,66.837,18.854,67.27,17.92z
		 M73.706,17.685c0.976,0.351,2.455,0.394,4.434,0.131l0.104,0.456l-3.701,1.241l-6.177-3.867l0.225-0.629
		C71.023,16.446,72.728,17.333,73.706,17.685z M67.598,11.109c-0.428,0.292-0.793,0.924-1.093,1.889
		c-0.302,0.97-1.011,2.384-2.127,4.244l-0.481-0.082c1.074-2.298,1.705-3.983,1.892-5.053c0.186-1.068,0.202-1.938,0.046-2.609
		l0.352-0.081L67.598,11.109z M61.538,13.375c0.467,0.15,0.76,0.275,0.876,0.375c0.116,0.102,0.221,0.622,0.314,1.563l-0.44,0.102
		c-0.872-0.825-2.034-1.582-3.492-2.272l0.092-0.406C60.187,13.012,61.071,13.229,61.538,13.375z M67.991,13.617
		c-0.293,0.069-0.53,0.253-0.707,0.549l-1.268-0.669l5.774-2.296c0.22-0.114,0.501-0.501,0.846-1.159l1.439,1.017
		c-0.4,0.413-0.684,0.798-0.846,1.156c-0.164,0.36-0.569,1.286-1.212,2.782l-0.394-0.103l0.6-3.025L67.991,13.617z"/>
</g>
<polygon fill="#FF0000" points="95.89,99.416 80.216,88.521 65.732,99.95 70.104,82.48 56.224,71.716 73.429,70.839 78.949,53.853 
	85.505,70.397 102.916,69.928 89.74,81.334 "/>
<g>
	<path fill="#FF0000" d="M37.08,50.912c1.818-1.449,3.637-2.933,5.465-4.45c1.827-1.517,3.326-3.194,4.502-5.035l0.379,0.275
		l-1.47,3.64c-3.868,2.58-6.714,4.63-8.542,6.146c-1.827,1.519-3.034,3.11-3.62,4.775l-1.261-0.015
		C33.748,54.141,35.263,52.362,37.08,50.912z M27.849,51.525l-1.291,0.187l1.805-3.621c0.092-0.231,0.026-0.729-0.198-1.487
		l1.572-0.098c-0.064,0.626-0.031,1.06,0.101,1.305c0.133,0.245,0.596,0.989,1.391,2.237c0.827-0.076,1.452-0.036,1.877,0.123
		c0.427,0.159,0.811,0.398,1.155,0.723c0.344,0.323,0.678,1.01,0.996,2.063l-0.372,0.512c-0.411-0.816-0.758-1.401-1.042-1.757
		c-0.282-0.354-0.625-0.602-1.025-0.741c-0.4-0.138-1.053-0.275-1.961-0.408l-1.65-2.197l-1.075,2.132
		C27.952,50.742,27.86,51.083,27.849,51.525z M29.02,42.855c0.371,0.343,0.657,0.585,0.859,0.732
		c0.203,0.147,2.255,1.629,6.158,4.444l1.946,1.628l-0.211,0.293l-2.204-0.469c-0.264-0.489-0.488-0.819-0.674-0.991
		c-0.185-0.169-1.189-0.914-3.014-2.23c-1.825-1.317-2.847-2.035-3.068-2.158c-0.22-0.12-0.789-0.4-1.706-0.84l0.212-0.294
		L29.02,42.855z M22.056,45.776c1.128-0.602,1.893-0.967,2.29-1.09c0.396-0.122,0.679-0.142,0.851-0.057
		c0.168,0.085,0.643,0.446,1.417,1.078L26.4,46.002c-1.315-0.203-2.716-0.131-4.2,0.215L22.056,45.776z M36.776,41.4l1.245-0.444
		l0.281,0.09l-1.919,2.981c-0.373,0.626-0.65,1.17-0.834,1.636l-1.452,0.408l2.208-3.22C36.432,42.571,36.589,42.088,36.776,41.4z
		 M37.158,45.035c-0.202-0.145-2.33-1.682-6.385-4.608l0.355-0.976l6.537,4.72l2.708,2.177l-0.213,0.295l-1.999-0.436
		C37.695,45.573,37.362,45.182,37.158,45.035z M43.372,43.475l-3.753,0.875l-0.123-0.312l1.983-1.144
		c-0.35-0.477-0.803-0.915-1.361-1.318l-6.614-4.774l-4.278,7.211l-0.684-0.496l3.983-6.64c0.09-0.229,0.035-0.793-0.169-1.688
		l1.549-0.224c0.072,0.649,0.223,1.055,0.45,1.22c0.229,0.164,2.522,1.82,6.88,4.965C42.026,41.87,42.738,42.646,43.372,43.475z
		 M34.184,39.867l1.246-0.444l0.28,0.09l-1.758,2.76c-0.268,0.478-0.493,0.951-0.676,1.415l-1.452,0.41l1.995-2.925
		C33.875,40.987,33.997,40.553,34.184,39.867z M25.759,41.285l-1.451,0.41l3.717-6.272c0.127-0.282,0.106-0.892-0.062-1.837
		l1.83-0.133c-0.171,0.773-0.227,1.275-0.163,1.507c0.063,0.233,0.26,1.513,0.586,3.835l-0.464,0.001l-0.937-3.026l-2.594,4.396
		C26.044,40.411,25.89,40.785,25.759,41.285z M27.641,39.958l-0.145-0.44c1.686-0.945,2.633-1.457,2.839-1.533
		c0.208-0.072,0.538,0.165,0.988,0.714l-0.083,0.276C30.159,39.089,28.959,39.416,27.641,39.958z"/>
</g>
<g>
	<path fill="#FF0000" d="M80.553,28.902l0.213-0.353l1.825,1.521c0.154-0.36,0.267-0.85,0.336-1.471l1.706-15.375
		c0.13-1.178,0.103-2.218-0.087-3.121l0.278-0.159l1.322,2.128c-0.32,0.28-0.495,0.558-0.524,0.837
		c-0.032,0.28-0.651,5.857-1.856,16.725c-0.134,0.676-0.351,1.597-0.652,2.758l-0.428-0.047L80.553,28.902z M84.364,29.702
		l11.362-0.06c0.284,0.031,0.759-0.071,1.421-0.314l1.105,0.972l-0.116,0.27l-11.704,0.023c-0.229-0.025-0.582,0.03-1.06,0.166
		L84.364,29.702z M87.827,25.842c0.225-0.478,0.362-0.823,0.419-1.039c0.052-0.212,0.203-1.972,0.453-5.278
		c0.251-3.306,0.391-5.066,0.415-5.286c0.024-0.216-0.063-0.998-0.261-2.337l0.429,0.048l0.81,2.07
		c-0.605,7.543-1.086,12.112-1.434,13.707l-0.257-0.028L87.827,25.842z M88.595,25.171l4.964-0.204
		c0.229,0.027,0.673-0.08,1.335-0.323l0.796,0.655l-0.053,0.465L88.5,26.011L88.595,25.171z M79.912,23.737l-0.999-1.147l8.86-2.507
		l0.034,0.474C83.17,22.244,80.536,23.303,79.912,23.737z M89.579,13.963l5.818-0.108c0.286,0.03,0.694-0.269,1.228-0.903l1,1.15
		c-0.59,0.627-0.896,1.033-0.916,1.219c-0.02,0.187-0.627,3.549-1.813,10.079l-0.963,0.083l1.887-10.733l-6.336,0.052L89.579,13.963
		z M94.178,19.378l0.045,0.383l-5.308,0.164l0.095-0.837l3.048-0.135c0.286,0.032,0.618-0.086,0.993-0.361L94.178,19.378z
		 M80.033,16.394c4.164-0.041,6.292-0.072,6.382-0.094c0.09-0.022,0.374-0.13,0.859-0.328l1.116,0.878l-0.116,0.27l-6.077,0.08
		c-0.229-0.026-0.582,0.03-1.059,0.166L80.033,16.394z"/>
</g>
<g>
	<path fill="#FF0000" d="M119.751,51.227l8.42-5.625l-4.791-5.651l0.702-0.468l4.544,5.283c0.216,0.211,0.707,0.38,1.471,0.511
		l-0.267,1.456c-0.797-0.177-1.3-0.197-1.507-0.059c-0.209,0.138-3.067,2.049-8.573,5.729c-0.864,0.506-1.701,0.886-2.507,1.143
		l0.622-4.469l0.359-0.135l0.263,2.92C118.91,51.716,119.334,51.506,119.751,51.227z M118.93,42.069
		c2.496-1.667,3.82-2.553,3.978-2.658c0.155-0.103,0.522-0.454,1.099-1.053l0.324,0.318l-0.103,1.026l-8.651,5.781l-2.749,1.626
		l-0.197-0.295l1.192-1.757c0.548-0.083,0.911-0.183,1.094-0.305C115.098,44.63,116.437,43.737,118.93,42.069z M118.944,42.595
		l2.479,3.036c0.301,0.225,0.719,0.514,1.256,0.865l0.114,1.525l-0.313,0.208l-4.239-5.166L118.944,42.595z M121.438,40.928
		l2.48,3.036c0.301,0.226,0.679,0.508,1.128,0.845l0.097,1.324l-0.313,0.209l-4.093-4.946L121.438,40.928z M123.113,34.154
		l0.168-1.604l10.037,12.491c0.183,0.163,0.584,0.428,1.206,0.794l-0.059,1.427l-0.313,0.209l-9.938-12.346
		C124.051,34.88,123.682,34.558,123.113,34.154z M124.559,38.256c2.786-0.048,4.739-0.217,5.861-0.506
		c1.122-0.287,2.117-0.686,2.981-1.19l0.198,0.293l-1.23,2.21c-0.472-0.255-1.135-0.291-1.991-0.111
		c-0.858,0.181-2.748,0.272-5.68,0.275c-2.93,0.002-6.166-0.626-9.714-1.882l0.242-0.48
		C118.659,37.842,121.772,38.305,124.559,38.256z"/>
</g>
<g>
	<path fill="#FF0000" d="M126.367,69.821c-0.755,1.055-1.06,2.333-0.909,3.835l-0.457,0.104l-0.947-3.324
		c5.669-5.242,8.628-8.009,8.884-8.303l0.335,0.632C129.421,66.413,127.119,68.764,126.367,69.821z M129.728,65.782
		c1.254,1.012,2.15,1.637,2.684,1.87c0.533,0.233,1.16,0.385,1.884,0.458l-0.016,0.357l-1.897,0.961
		c-0.163-0.434-0.464-0.838-0.899-1.211c-0.438-0.374-1.18-1.03-2.228-1.974L129.728,65.782z M121.832,64.033l0.886-1.172
		l4.228,3.376l-0.4,0.356C123.928,64.945,122.358,64.092,121.832,64.033z M135.488,66.599l-0.669,0.861l-0.274,0.062l-2.146-6.063
		l0.915-0.208l1.302,4.042C134.726,65.501,135.019,65.94,135.488,66.599z M140.115,59.883l1.602,4.504
		c0.173,0.197,0.634,0.535,1.384,1.014l-0.998,1.113c-0.615-0.452-1.043-0.637-1.278-0.551c-0.238,0.083-2.259,0.348-6.066,0.8
		l-0.283-0.821l6.514-0.946l-1.693-4.927L140.115,59.883z M123.391,64.122l-0.759-0.8l16.913-3.839
		c0.305-0.068,0.92-0.327,1.845-0.773l0.238,0.211l-1.417,1.383L123.391,64.122z M136.951,60.335l0.532,1.917
		c0.124,0.265,0.426,0.61,0.907,1.032l-0.465,1.346l-0.366,0.082l-1.392-4.021L136.951,60.335z M119.432,58.117l-0.077-0.337
		l2.022-1.254c0.478,0.125,0.868,0.156,1.173,0.087c0.305-0.07,2.879-0.653,7.725-1.752c4.847-1.102,7.36-1.673,7.543-1.713
		c0.184-0.04,0.857-0.315,2.027-0.815l0.24,0.21l-1.782,1.467l-16.001,3.631L119.432,58.117z M132.188,59.469
		c-0.555,0.244-1.24,0.399-2.057,0.467c-0.819,0.067-1.81-0.062-2.974-0.388l2.011-2.579l0.404,0.084l-0.644,1.829
		c0.477,0.127,0.966,0.165,1.468,0.109c0.5-0.054,1.03-0.189,1.59-0.404c0.56-0.215,1.273-0.805,2.146-1.771l4.434,0.058
		l-1.236-2.907l0.822-0.186l1.069,2.59c0.11,0.208,0.522,0.47,1.234,0.782l-0.796,1.155c-0.579-0.283-0.967-0.445-1.168-0.489
		c-0.201-0.043-1.574-0.159-4.116-0.35C133.472,58.56,132.741,59.225,132.188,59.469z"/>
</g>
<g>
	<path fill="#FF0000" d="M135.335,87.954c-1.346,0.912-2.171,2.219-2.475,3.921l-0.468-0.032l0.094-4.126l12.68-5.42l-0.101,1.457
		c-0.616-0.158-1.003-0.213-1.163-0.164c-0.159,0.044-1.291,0.556-3.394,1.531C138.407,86.099,136.683,87.042,135.335,87.954z
		 M127.117,86.534c-0.193,0.072-0.872-0.103-2.032-0.526l0.028-0.429c1.983-0.61,4.058-1.615,6.221-3.02l0.156,0.442
		C128.766,85.281,127.31,86.461,127.117,86.534z M125.706,75.546l1.56-0.84c0.203,0.702,1.052,1.59,2.544,2.67
		c1.491,1.077,2.891,1.918,4.196,2.525c1.306,0.605,2.546,1.035,3.72,1.287l-0.019,0.257l-2.314,0.877
		c-0.102-0.353-0.819-0.862-2.149-1.525c-1.334-0.666-3.369-2.095-6.099-4.29l0.502,9.159l-0.754,0.037
		c-0.529-6.007-0.836-9.1-0.917-9.276C125.892,76.247,125.804,75.954,125.706,75.546z M136.076,76.426
		c-1.127-0.938-2.55-2.557-4.274-4.854l0.492-0.31c1.738,2.068,3.249,3.548,4.535,4.441c1.288,0.892,2.44,1.643,3.464,2.26
		c1.023,0.616,1.973,0.954,2.846,1.012l-0.029,0.428l-2.304,0.703c-0.038-0.346-0.557-0.813-1.549-1.396
		C138.262,78.125,137.2,77.363,136.076,76.426z"/>
</g>
<g>
	<path fill="#FF0000" d="M119.102,101.354l0.119-0.308l4.719-1.787l0.203,0.256l-2.823,2.083c0.522,0.379,0.954,0.649,1.295,0.813
		c0.339,0.161,5.227,2.077,14.663,5.746l2.437-8.595c0.101-0.257,0.122-0.66,0.068-1.212l1.35-0.622l-2.889,10.274
		c-0.079,0.204,0.12,0.634,0.604,1.295l-1.349,0.624c-0.309-0.592-0.621-0.949-0.941-1.072c-0.319-0.124-2.783-1.082-7.384-2.872
		c-4.601-1.789-7.185-2.824-7.746-3.101C120.864,102.599,120.089,102.092,119.102,101.354z M136.262,96.539
		c0.1-0.256,0.144-0.621,0.127-1.099l1.292-0.735l-2.291,8.475c-0.021,0.228-0.023,0.667-0.011,1.323l-1.058,0.648l-0.38-0.061
		L136.262,96.539z M132.311,101.012c-0.022,0.226,0.151,0.646,0.517,1.261l-1.116,0.539c-0.306-0.592-0.59-0.938-0.852-1.038
		c-0.264-0.101-1.5-0.672-3.713-1.708l0.329-0.845l3.929,1.794l1.126-5.482l0.875,0.34L132.311,101.012z M126.529,100.619
		l1.689-6.676l0.873,0.34l-1.204,4.655c0.017,0.302,0.003,0.767-0.041,1.399l-0.967,0.418L126.529,100.619z M133.139,96.298
		l-3.961-1.453l-2.593-1.096l0.12-0.307l1.929-0.046c0.327,0.361,0.672,0.599,1.031,0.711c0.359,0.109,1.01,0.332,1.951,0.67
		c0.942,0.335,1.491,0.521,1.648,0.552c0.153,0.03,0.699,0.14,1.632,0.325l-0.149,0.385L133.139,96.298z"/>
</g>
<g>
	<path fill="#FF0000" d="M34.647,121.074c-0.566,0.1-1.212,0.123-1.939,0.069l0.512-0.729c0.945,0.015,1.829-0.128,2.651-0.428
		l0.461,0.322l-4.638,6.594l-0.767-0.539L34.647,121.074z"/>
</g>
<g>
	<path fill="#FF0000" d="M54.566,134.615c0.29-0.775,0.607-1.361,0.955-1.757c0.346-0.396,0.746-0.683,1.2-0.86
		c0.453-0.178,0.94-0.181,1.46-0.01c0.52,0.172,0.9,0.539,1.143,1.097c0.243,0.558,0.316,1.184,0.218,1.874
		c-0.1,0.691-0.31,1.454-0.635,2.284s-0.704,1.471-1.132,1.92c-0.429,0.451-0.93,0.697-1.503,0.735
		c-0.574,0.041-1.07-0.148-1.491-0.568c-0.421-0.418-0.666-0.871-0.734-1.355c-0.07-0.483-0.074-0.97-0.009-1.459
		C54.098,136.025,54.276,135.391,54.566,134.615z M55.588,134.659c-0.36,0.786-0.572,1.522-0.635,2.21
		c-0.063,0.688,0.032,1.22,0.283,1.601c0.252,0.381,0.583,0.548,0.994,0.504c0.409-0.044,0.778-0.287,1.104-0.721
		c0.325-0.435,0.585-0.941,0.777-1.521c0.192-0.579,0.344-1.112,0.457-1.602c0.114-0.489,0.123-0.964,0.029-1.423
		c-0.095-0.459-0.325-0.758-0.69-0.896c-0.366-0.138-0.754-0.061-1.164,0.232C56.333,133.333,55.95,133.873,55.588,134.659z"/>
</g>
<g>
	<path fill="#FF0000" d="M42.34,126.208c-0.567,0.099-1.211,0.122-1.94,0.068l0.513-0.729c0.944,0.016,1.829-0.128,2.651-0.429
		l0.46,0.324l-4.639,6.594l-0.767-0.54L42.34,126.208z"/>
</g>
<g>
	<path fill="#FF0000" d="M46.468,131.17c0.357-0.748,0.727-1.303,1.108-1.666c0.38-0.364,0.803-0.614,1.271-0.751
		c0.468-0.136,0.954-0.097,1.455,0.122c0.5,0.217,0.848,0.615,1.04,1.192c0.191,0.576,0.208,1.208,0.049,1.888
		c-0.159,0.679-0.437,1.42-0.835,2.218c-0.397,0.797-0.832,1.402-1.298,1.812c-0.468,0.41-0.989,0.61-1.563,0.6
		c-0.575-0.011-1.053-0.245-1.434-0.698c-0.383-0.456-0.587-0.928-0.612-1.417c-0.026-0.487,0.013-0.972,0.121-1.455
		C45.877,132.53,46.11,131.918,46.468,131.17z M47.483,131.304c-0.427,0.752-0.705,1.466-0.829,2.146
		c-0.124,0.678-0.078,1.218,0.14,1.619c0.218,0.399,0.533,0.598,0.945,0.589c0.412-0.009,0.8-0.215,1.163-0.62
		c0.362-0.404,0.666-0.885,0.909-1.444c0.242-0.559,0.443-1.077,0.599-1.556c0.157-0.476,0.207-0.949,0.155-1.414
		c-0.055-0.466-0.256-0.783-0.608-0.954s-0.746-0.126-1.179,0.127C48.342,130.05,47.912,130.553,47.483,131.304z"/>
</g>
<g>
	<path fill="#FF0000" d="M62.688,137.098c0.244-0.792,0.527-1.394,0.85-1.811c0.321-0.415,0.703-0.727,1.146-0.931
		c0.443-0.204,0.929-0.236,1.458-0.095c0.527,0.141,0.93,0.484,1.205,1.026c0.276,0.542,0.384,1.164,0.328,1.86
		c-0.058,0.696-0.224,1.469-0.5,2.315c-0.277,0.849-0.616,1.51-1.018,1.986c-0.403,0.474-0.889,0.746-1.458,0.821
		c-0.569,0.074-1.076-0.088-1.521-0.482c-0.445-0.393-0.716-0.828-0.814-1.31c-0.098-0.479-0.13-0.964-0.095-1.456
		C62.304,138.53,62.442,137.889,62.688,137.098z M63.712,137.081c-0.314,0.805-0.482,1.553-0.504,2.242
		c-0.023,0.689,0.103,1.216,0.377,1.579c0.273,0.366,0.615,0.516,1.021,0.444c0.406-0.068,0.76-0.329,1.059-0.782
		c0.299-0.455,0.529-0.977,0.687-1.563c0.157-0.589,0.279-1.131,0.362-1.626c0.083-0.494,0.066-0.97-0.055-1.423
		c-0.122-0.453-0.369-0.736-0.742-0.854c-0.374-0.117-0.756-0.016-1.148,0.299C64.376,135.714,64.023,136.273,63.712,137.081z"/>
</g>
<g>
	<path fill="#FF0000" d="M70.816,139.31c0.124-0.819,0.314-1.458,0.57-1.917c0.257-0.459,0.589-0.822,0.997-1.09
		c0.409-0.267,0.884-0.372,1.427-0.311c0.544,0.061,0.992,0.341,1.346,0.836c0.352,0.496,0.553,1.094,0.598,1.791
		c0.048,0.695-0.002,1.484-0.149,2.365c-0.147,0.879-0.384,1.583-0.711,2.112c-0.328,0.529-0.767,0.873-1.321,1.03
		c-0.553,0.156-1.078,0.074-1.576-0.25c-0.498-0.321-0.832-0.714-0.999-1.173c-0.167-0.46-0.272-0.935-0.309-1.428
		C70.648,140.784,70.692,140.129,70.816,139.31z M71.826,139.141c-0.189,0.846-0.246,1.607-0.166,2.293
		c0.079,0.687,0.283,1.188,0.607,1.508c0.326,0.32,0.685,0.415,1.076,0.287c0.391-0.127,0.703-0.438,0.93-0.934
		c0.229-0.491,0.378-1.041,0.446-1.646c0.07-0.604,0.108-1.158,0.119-1.66s-0.08-0.971-0.266-1.398
		c-0.186-0.428-0.474-0.675-0.861-0.734c-0.386-0.06-0.75,0.096-1.09,0.467C72.28,137.689,72.015,138.297,71.826,139.141z"/>
</g>
<g>
	<path fill="#FF0000" d="M79.415,140.081c0.037-0.827,0.161-1.482,0.37-1.966c0.208-0.481,0.501-0.878,0.879-1.187
		c0.379-0.309,0.842-0.46,1.387-0.455c0.546,0.006,1.021,0.237,1.422,0.693c0.402,0.458,0.664,1.031,0.781,1.72
		c0.118,0.688,0.15,1.478,0.094,2.367c-0.056,0.891-0.219,1.615-0.489,2.176c-0.271,0.56-0.673,0.947-1.207,1.16
		c-0.532,0.214-1.064,0.185-1.593-0.085c-0.528-0.271-0.9-0.625-1.115-1.066c-0.213-0.439-0.366-0.9-0.454-1.388
		C79.4,141.564,79.378,140.909,79.415,140.081z M80.401,139.81c-0.103,0.858-0.078,1.623,0.072,2.297
		c0.149,0.675,0.402,1.153,0.76,1.438c0.354,0.284,0.723,0.342,1.099,0.175c0.377-0.168,0.653-0.51,0.83-1.023
		c0.178-0.515,0.27-1.076,0.274-1.686c0.008-0.608-0.011-1.163-0.054-1.665c-0.042-0.499-0.178-0.955-0.408-1.363
		c-0.229-0.408-0.541-0.622-0.931-0.642c-0.392-0.021-0.736,0.173-1.037,0.574C80.704,138.32,80.504,138.951,80.401,139.81z"/>
</g>
<g>
	<path fill="#FF0000" d="M87.945,139.487c-0.051-0.825,0.002-1.489,0.156-1.992s0.402-0.928,0.746-1.276
		c0.343-0.347,0.785-0.548,1.328-0.602c0.544-0.055,1.042,0.126,1.49,0.536c0.448,0.411,0.769,0.953,0.96,1.624
		c0.191,0.673,0.308,1.453,0.349,2.344c0.04,0.892-0.044,1.63-0.251,2.217c-0.211,0.585-0.567,1.014-1.077,1.282
		c-0.507,0.271-1.038,0.298-1.593,0.086c-0.555-0.211-0.963-0.524-1.222-0.94c-0.263-0.413-0.462-0.855-0.604-1.329
		C88.091,140.966,87.995,140.315,87.945,139.487z M88.898,139.112c-0.01,0.865,0.096,1.623,0.316,2.276
		c0.223,0.655,0.526,1.103,0.91,1.348c0.386,0.244,0.756,0.264,1.113,0.056c0.356-0.206,0.594-0.576,0.715-1.107
		c0.118-0.529,0.15-1.099,0.091-1.705c-0.06-0.604-0.136-1.155-0.231-1.648c-0.097-0.493-0.281-0.93-0.555-1.313
		c-0.272-0.38-0.604-0.559-0.993-0.537c-0.392,0.022-0.715,0.251-0.97,0.684C89.037,137.598,88.905,138.248,88.898,139.112z"/>
</g>
<g>
	<path fill="#FF0000" d="M96.174,137.201c-0.217-0.799-0.3-1.46-0.251-1.984c0.05-0.521,0.209-0.989,0.474-1.399
		c0.267-0.408,0.658-0.695,1.18-0.858c0.523-0.162,1.046-0.087,1.568,0.224c0.521,0.313,0.945,0.778,1.269,1.397
		c0.324,0.62,0.596,1.361,0.815,2.226c0.22,0.863,0.287,1.604,0.2,2.22c-0.087,0.617-0.351,1.108-0.792,1.475
		c-0.444,0.368-0.957,0.503-1.544,0.407c-0.587-0.095-1.048-0.319-1.388-0.673c-0.339-0.354-0.624-0.747-0.858-1.182
		C96.613,138.618,96.389,138.002,96.174,137.201z M97.028,136.64c0.168,0.85,0.422,1.57,0.772,2.165
		c0.35,0.596,0.735,0.974,1.164,1.135c0.425,0.162,0.793,0.104,1.1-0.171c0.307-0.274,0.466-0.685,0.476-1.228
		c0.011-0.544-0.073-1.104-0.254-1.688c-0.182-0.582-0.367-1.104-0.563-1.568c-0.192-0.462-0.462-0.854-0.808-1.174
		c-0.342-0.317-0.705-0.424-1.083-0.324s-0.647,0.39-0.81,0.865C96.86,135.13,96.863,135.791,97.028,136.64z"/>
</g>
<g>
	<path fill="#FF0000" d="M104.398,136.232c-0.141-0.432-0.202-0.819-0.188-1.161s0.065-0.785,0.152-1.324l0.671-3.499l1.002-0.4
		l-0.681,3.604c0.702-0.515,1.338-0.736,1.905-0.661c0.568,0.075,1.001,0.248,1.292,0.518c0.294,0.27,0.526,0.599,0.697,0.984
		c0.169,0.387,0.267,0.796,0.286,1.224c0.022,0.43-0.073,0.863-0.287,1.303c-0.213,0.437-0.609,0.791-1.194,1.057
		c-0.582,0.268-1.134,0.361-1.65,0.282c-0.521-0.077-0.949-0.311-1.29-0.697C104.776,137.072,104.535,136.664,104.398,136.232z
		 M106.321,137.129c0.37,0.172,0.78,0.185,1.227,0.04c0.448-0.146,0.752-0.436,0.915-0.872c0.162-0.435,0.122-0.957-0.122-1.566
		c-0.244-0.608-0.593-0.956-1.049-1.045c-0.455-0.087-0.896-0.012-1.323,0.227c-0.426,0.239-0.665,0.587-0.719,1.045
		c-0.051,0.459,0.021,0.894,0.218,1.302C105.665,136.668,105.951,136.957,106.321,137.129z"/>
</g>
<g>
	<path fill="#FF0000" d="M112.798,128.251c-0.21,0.533-0.524,1.101-0.945,1.694l-0.358-0.815c0.502-0.8,0.837-1.63,1.005-2.489
		l0.516-0.227l3.244,7.381l-0.858,0.377L112.798,128.251z"/>
</g>
<g>
	<path fill="#FF0000" d="M120.613,127.479c0.692,0.527,1.277,0.665,1.754,0.409c0.477-0.253,0.781-0.563,0.913-0.926
		c0.132-0.361,0.151-0.716,0.06-1.061c-0.094-0.346-0.27-0.672-0.533-0.982c-0.265-0.309-0.561-0.513-0.894-0.608
		c-0.336-0.097-0.654-0.085-0.957,0.036c-0.304,0.119-0.581,0.336-0.829,0.651c-0.251,0.315-0.367,0.685-0.351,1.11l-0.685,0.418
		c-0.068-0.186-0.663-1.425-1.791-3.72l2.912-2.289l0.522,0.665l-2.36,1.854c0.397,0.76,0.691,1.386,0.878,1.874
		c0.233-0.461,0.514-0.812,0.844-1.051c0.327-0.237,0.693-0.406,1.095-0.503c0.401-0.096,0.762-0.081,1.079,0.046
		c0.319,0.127,0.602,0.283,0.846,0.467c0.245,0.188,0.469,0.419,0.669,0.698c0.199,0.282,0.361,0.603,0.485,0.961
		c0.122,0.359,0.158,0.709,0.106,1.048c-0.051,0.338-0.176,0.674-0.369,1.006c-0.196,0.333-0.489,0.633-0.876,0.897
		c-0.388,0.266-0.845,0.404-1.369,0.42s-1.08-0.225-1.667-0.717L120.613,127.479z"/>
</g>
<g>
	<path fill="#FF0000" d="M128.263,123.021c-0.285-0.372-0.401-0.833-0.344-1.383c0.058-0.551,0.06-1.33,0.004-2.342
		c-0.056-1.011-0.158-1.742-0.308-2.196c-0.146-0.452-0.34-0.78-0.582-0.983c-0.241-0.202-0.523-0.299-0.846-0.288
		c-0.323,0.013-0.597,0.139-0.822,0.379s-0.378,0.541-0.457,0.901c-0.079,0.359-0.032,0.757,0.14,1.188l-0.762,0.482
		c-0.286-0.705-0.393-1.309-0.315-1.813c0.078-0.504,0.306-0.943,0.687-1.317c0.213-0.229,0.429-0.409,0.647-0.539
		c0.219-0.131,0.486-0.218,0.796-0.265c0.313-0.046,0.649,0.003,1.005,0.147c0.357,0.146,0.677,0.415,0.962,0.81
		c0.284,0.395,0.483,0.989,0.598,1.783c0.116,0.795,0.178,2.144,0.187,4.048l2.535-2.228l0.556,0.634l-3.556,3.125L128.263,123.021z
		"/>
</g>
</svg>
