<?xml version="1.0" encoding="UTF-8"?>
<svg width="17px" height="17px" viewBox="0 0 17 17" version="1.1" xmlns="http://www.w3.org/2000/svg" xmlns:xlink="http://www.w3.org/1999/xlink">
    <!-- Generator: Sketch 52.2 (67145) - http://www.bohemiancoding.com/sketch -->
    <title>icon编辑@2x</title>
    <desc>Created with Sketch.</desc>
    <g id="Page-2" stroke="none" stroke-width="1" fill="none" fill-rule="evenodd">
        <g id="管理收货地址" transform="translate(-222.000000, -180.000000)">
            <g id="Group">
                <g id="1" transform="translate(0.000000, 74.000000)">
                    <g id="box2">
                        <g id="box1">
                            <g id="icon编辑" transform="translate(220.500000, 106.000000)">
                                <path d="M15.4782609,8.80422344 L15.4782609,13.4565308 C15.4782609,14.0325258 15.0107826,14.5 14.4347826,14.5 L5.04347826,14.5 C4.46747826,14.5 4,14.0325258 4,13.4565308 L4,4.06530813 C4,3.4887914 4.46747826,3.02131721 5.04347826,3.02131721 L9.69582609,3.02131721" id="Page-1" stroke="#552E20" stroke-linecap="round" stroke-linejoin="round"></path>
                                <path d="M9.16765,8.7944 L14.79465,3.1679 C15.00615,2.9559 15.33565,2.9429 15.53115,3.1379 C15.72615,3.3334 15.71315,3.6634 15.50165,3.8749 L9.87465,9.5019 C9.66315,9.7129 9.33365,9.7259 9.13815,9.5309 C8.94315,9.3359 8.95615,9.0059 9.16765,8.7944" id="Fill-1" fill="#552E20"></path>
                            </g>
                        </g>
                    </g>
                </g>
            </g>
        </g>
    </g>
</svg>