<?xml version="1.0" encoding="utf-8"?>
<!-- Generator: Adobe Illustrator 15.0.0, SVG Export Plug-In . SVG Version: 6.00 Build 0)  -->
<!DOCTYPE svg PUBLIC "-//W3C//DTD SVG 1.1//EN" "http://www.w3.org/Graphics/SVG/1.1/DTD/svg11.dtd">
<svg version="1.1" id="图层_1" xmlns="http://www.w3.org/2000/svg" xmlns:xlink="http://www.w3.org/1999/xlink" x="0px" y="0px"
	 width="154px" height="154px" viewBox="0 0 154 154" enable-background="new 0 0 154 154" xml:space="preserve">
<g>
	<circle fill="none" stroke="#FF0000" stroke-width="3.5" stroke-miterlimit="10" cx="77.256" cy="76.701" r="74.744"/>
	<circle fill="none" stroke="#FF0000" stroke-width="2" stroke-miterlimit="10" cx="77.256" cy="75.701" r="51.078"/>
	<g>
		<path fill="#FF0000" d="M35.322,96.027l3.247-1.897l-0.31,0.066c-0.75,0.208-1.175,0.226-1.274,0.055
			c-0.101-0.172,0.044-0.62,0.432-1.346c0.027-0.054,0.032-0.095,0.015-0.124c0.184-0.184,0.318-0.301,0.405-0.352
			c0.104-0.021,0.159,0.022,0.166,0.134l0.826,1.415l9.286-5.428c0.822-0.479,1.555-0.37,2.195,0.327
			c0.184,0.315,0.111,0.588-0.219,0.818c-0.485,0.361-0.737,0.776-0.753,1.245c-0.01,0.084-0.021,0.166-0.03,0.248
			c0.077,0.529-0.013,0.524-0.27-0.016c-0.094-0.06-0.173-0.146-0.241-0.262c-0.209-0.26-0.339-0.434-0.39-0.52
			c-0.126-0.117-0.501-0.014-1.124,0.312l-4.351,2.543c0.061,0.003,0.202-0.004,0.424-0.02c2.026-0.109,3.809,0.057,5.345,0.5
			c0.227-0.707,0.621-1.226,1.182-1.554c0.596-0.271,1.082-0.286,1.456-0.045c0.27,0.265,0.217,0.62-0.159,1.07
			c-0.054,0.108-0.232,0.251-0.534,0.427c-0.962,0.64-1.484,1.386-1.567,2.239c1.507-0.306,2.964-0.295,4.374,0.031
			c0.768,0.319,0.812,0.445,0.136,0.381c-0.061-0.003-0.098-0.019-0.116-0.048c-1.772-0.152-3.65,0.312-5.631,1.394
			c-0.822,0.48-1.896,1.128-3.222,1.94c-1.126,0.657-1.992,1.163-2.598,1.519c-0.572,0.411-0.895,0.504-0.969,0.278
			c-0.341-0.683-0.441-1.103-0.301-1.261c0.087-0.052,0.19-0.073,0.31-0.066c0.224-0.016,0.464-0.099,0.724-0.251
			c0.26-0.152,0.52-0.304,0.78-0.455c3.247-1.897,5.324-3.016,6.229-3.354c-0.144-0.644-0.194-1.325-0.148-2.041
			c-2.431-0.188-5.374,0.343-8.826,1.593l1.152,1.972c0.068,0.115,0.067,0.211-0.004,0.29c-0.07,0.079-0.16,0.074-0.271-0.015
			l-1.402-2.4l-3.767,2.201c-0.33,0.23-0.553,0.247-0.67,0.046c-0.417-0.714-0.551-1.191-0.402-1.433
			c0.087-0.051,0.219-0.07,0.399-0.061C35.098,96.14,35.252,96.106,35.322,96.027z M39.365,99.07l7.338-4.289
			c0.667-0.35,1.132-0.297,1.4,0.16c0.297,0.21,0.135,0.477-0.489,0.803l-8.443,4.934l0.953,1.629
			c0.15,0.257,0.412,0.258,0.785,0.002l7.987-4.669c0.607-0.354,1.095-0.313,1.465,0.122c0.194,0.231,0.054,0.486-0.424,0.766
			l-9.091,5.313c-0.502,0.332-0.776,0.358-0.824,0.079c-0.006-0.111-0.012-0.318-0.016-0.623c0.04-0.33,0.026-0.552-0.041-0.666
			l-0.902-1.544l-0.36-0.02c-0.43,0.06-0.671,0.046-0.721-0.039c-0.048-0.584,0.106-1.212,0.468-1.884
			c0.087-0.051,0.229-0.056,0.425-0.018C39.117,99.14,39.279,99.121,39.365,99.07z"/>
		<path fill="#FF0000" d="M33.382,85.256l3.118-0.507l-0.064-0.393c-0.005-0.032-0.22-0.115-0.649-0.246
			c-0.527-0.115-0.823-0.219-0.888-0.309c-0.032-0.196,0.259-0.596,0.871-1.198c0.133-0.122,0.22-0.22,0.258-0.293l-2.301,0.374
			c-0.242,0.073-0.396,0.064-0.462-0.025c-0.065-0.09-0.042-0.262,0.069-0.514c0.049-0.009,0.094-0.049,0.132-0.122
			c0.284-0.449,0.39-0.734,0.318-0.857l-0.224-1.372c-0.005-0.032-0.167-0.09-0.486-0.173c-0.466-0.058-0.708-0.136-0.724-0.233
			c0.324-0.824,0.781-1.452,1.371-1.884c0.143-0.056,0.382,0.006,0.715,0.186c0.275,0.124,0.437,0.181,0.486,0.173l9.205-1.499
			c0.501-0.048,0.814,0.169,0.943,0.651c0.125,0.45,0.011,0.686-0.341,0.709l-1.114,0.182l0.288,1.764l1.188-0.193
			c0.392-0.097,0.68,0.125,0.87,0.663c0.163,0.376,0.068,0.576-0.282,0.6l-9.281,1.511l0.399,2.45l1.56-0.254
			c0.265-1.183,0.823-1.962,1.676-2.336c1.387-0.225,1.974,0.099,1.759,0.972c-0.077,0.147-0.459,0.294-1.148,0.438
			c-1.022,0.268-1.587,0.544-1.694,0.829l8.241-1.341c0.489-0.112,0.814,0.169,0.976,0.847c0.202,0.303,0.003,0.486-0.596,0.55
			l-6.087,0.991c3.008,1.32,4.046,1.924,3.113,1.807c-2.154-0.756-4.705-1.128-7.65-1.119l0.336,2.059
			c0.031,0.195,0.005,0.335-0.084,0.416c-0.094,0.049-0.181-0.021-0.263-0.209l-0.359-2.205l-2.82,0.459
			c0.291,0.858,0.451,1.521,0.475,1.985c0.005,0.335-0.157,0.277-0.484-0.173c-0.785-1.382-1.645-2.449-2.58-3.202
			c-0.284-0.188-0.436-0.331-0.451-0.43c0.389-0.733,0.983-1.299,1.781-1.698c0.106,0.017,0.207,0.168,0.303,0.454
			C32.857,83.9,33.052,84.472,33.382,85.256z M34.698,81.168l8.908-1.449l-0.287-1.765l-9.428,1.535l0.208,1.273
			C34.157,81.123,34.358,81.258,34.698,81.168z"/>
		<path fill="#FF0000" d="M32.296,66.938l-1.087,5.302c-0.02,0.097-0.084,0.169-0.195,0.213c-0.105,0.013-0.172-0.035-0.202-0.143
			l0.817-3.988c-0.042-0.042-0.195-0.175-0.456-0.398c-0.396-0.316-0.587-0.508-0.574-0.573c0.076-0.119,0.522-0.417,1.335-0.893
			c0.217-0.057,0.343-0.047,0.378,0.027C32.404,66.538,32.399,66.689,32.296,66.938z M45.313,73.101l-3.537-0.724l-0.18,0.875
			l4.053,0.831c0.253,0.018,0.398,0.301,0.439,0.85c0.032,0.345-0.191,0.434-0.668,0.268l-7.662-1.569
			c-0.4-0.047-0.642-0.114-0.729-0.2c-0.084-0.085-0.054-0.23,0.091-0.438c0.118-0.077,0.25-0.219,0.394-0.426
			c0.132-0.142,0.204-0.245,0.217-0.311l0.487-2.383c0.007-0.032-0.095-0.154-0.308-0.368c-0.268-0.189-0.417-0.338-0.446-0.446
			c0.326-0.339,0.797-0.647,1.418-0.926c0.147,0.03,0.281,0.125,0.401,0.285l0.064,0.064l5.601,1.146l0.29-2.17l-4.125-0.845
			l-0.101,0.487l0.664,0.135c0.498,0.069,0.712,0.4,0.641,0.993c0.081,0.354-0.145,0.46-0.679,0.317l-6.484-1.328
			c-0.645-0.098-0.839-0.273-0.583-0.525c0.207-0.262,0.445-0.55,0.715-0.867l0.08-0.389l-3.758-0.771
			c-0.449-0.058-0.594-0.223-0.436-0.494c0.263-0.79,0.548-1.053,0.852-0.789c0.127,0.127,0.194,0.175,0.201,0.142l3.389,0.694
			l0.081-0.389c0.049,0.01,0.003-0.016-0.138-0.079c-0.367-0.21-0.537-0.38-0.51-0.51c0.198-0.466,0.632-0.834,1.301-1.102
			c0.099,0.02,0.236,0.099,0.413,0.236c0.127,0.128,0.216,0.196,0.265,0.207l4.937,1.011c0.358,0.006,0.473,0.317,0.347,0.932
			c0.081,0.354-0.097,0.471-0.533,0.348l-0.294-0.061l-0.12,0.584l3.979,0.814l0.136-1.037c-0.658-0.033-1.337,0.031-2.036,0.192
			c0.587-0.86,1.688-1.36,3.302-1.503c1.277,0.262,1.822,0.728,1.634,1.399c-0.221,0.327-0.722,0.393-1.5,0.2
			c-0.289-0.092-0.531-0.159-0.727-0.2c0.257,1.743,0.601,3.062,1.031,3.961c0.071,0.15,0.104,0.242,0.097,0.274
			c-0.132,0.142-0.685,0.214-1.657,0.218c1.375,0.282,1.868,0.873,1.48,1.773c-0.063,0.055-0.22,0.074-0.473,0.055
			c-0.651-0.065-1.014,0.08-1.087,0.436c0.167-0.067,0.332,0.254,0.494,0.963C46.087,73.192,45.847,73.244,45.313,73.101z
			 M34.652,68.18l1.915,0.393c0.338,0.103,0.515,0.358,0.534,0.768c0.061,0.452-0.101,0.622-0.487,0.508l-0.516-0.105l-0.339,1.654
			l0.59,0.121c0.302,0.029,0.406,0.269,0.312,0.723c0.111,0.462-0.146,0.596-0.772,0.4l-2.873-0.589
			c-0.45-0.058-0.561-0.267-0.333-0.625c0.056-0.021,0.119-0.077,0.188-0.164c0.125-0.109,0.235-0.273,0.33-0.489l0.278-1.363
			c0.007-0.032-0.077-0.117-0.254-0.255c-0.275-0.157-0.427-0.29-0.457-0.397c0.234-0.39,0.638-0.731,1.207-1.02
			c0.147,0.031,0.285,0.11,0.413,0.237C34.514,68.102,34.604,68.17,34.652,68.18z M34.285,71.095l1.179,0.242l0.338-1.654
			l-1.99-0.408l-0.25,1.216C33.442,70.839,33.681,71.04,34.285,71.095z M35.662,65.499l-0.05,0.243
			c-0.088,0.184,0.19,0.326,0.834,0.424l4.273,0.875l0.101-0.487L35.662,65.499z M35.984,64.298l5.01,1.026l0.12-0.583l-5.011-1.026
			L35.984,64.298z M38.797,72.679l2.432,0.498l0.308-1.508c-1.053-0.351-1.755-0.545-2.106-0.584
			c-0.294-0.06-0.483-0.132-0.569-0.218c-0.092-0.052,0.036-0.297,0.379-0.733c0.125-0.109,0.201-0.229,0.228-0.358l-0.885-0.181
			l-0.429,2.091c-0.113,0.552-0.018,0.841,0.283,0.869c0.323-0.576,0.7-0.921,1.133-1.035c1.085-0.048,1.589,0.242,1.512,0.867
			c-0.095,0.218-0.442,0.282-1.038,0.193C39.456,72.458,39.041,72.492,38.797,72.679z M41.678,70.228l-1.767-0.362
			c0.042,0.042,0.085,0.085,0.127,0.127c0.215,0.45,0.766,0.884,1.651,1.302c-0.401-0.285-0.585-0.509-0.552-0.671
			c0.126-0.109,0.271-0.198,0.438-0.265C41.631,70.337,41.665,70.293,41.678,70.228z M42.889,71.439l2.432,0.498
			c0.189-0.671,0.055-1.019-0.4-1.045l-2.726-0.558l-0.09,0.438C41.921,71.174,42.183,71.395,42.889,71.439z"/>
		<path fill="#FF0000" d="M35.469,55.366c-0.199,0.031-0.065-0.178,0.402-0.627c0.413-0.365,0.757-0.576,1.033-0.636
			c0.781-0.01,1.381,0.354,1.8,1.094c0.342,0.77,0.073,1.049-0.806,0.84c-0.12,0.002-0.316-0.064-0.586-0.199
			C36.636,55.406,36.022,55.249,35.469,55.366z M39.475,51.623l1.393-2.174c0.018-0.027-0.074-0.165-0.273-0.411
			c-0.267-0.328-0.394-0.547-0.383-0.657c0.994-0.622,1.916-0.759,2.764-0.412c0.074,0.165,0.069,0.359-0.014,0.581
			c-0.071,0.112-0.148,0.279-0.23,0.5c-0.052,0.36,0.05,0.897,0.307,1.611c0.189,0.357,0.128,0.358-0.18,0.003
			c-0.839-0.734-1.365-1.169-1.577-1.305l-0.91,1.422c0.54-0.283,0.872-0.385,0.999-0.304c0.152,0.137,0.23,0.246,0.237,0.329
			c0.031,0.138,0.08,0.248,0.146,0.33c1.693,0.612,3.231,0.163,4.615-1.348c0.132-0.112,0.229-0.031,0.29,0.245l0.01,0.124
			c0.118,0.469,0.384,0.935,0.802,1.398c0.369,0.354,0.406,0.575,0.112,0.661c-1.06,0.54-2.833,0.426-5.32-0.341
			c1.272,1.64,1.833,3.414,1.684,5.323l1.874-2.927c0.018-0.028-0.04-0.124-0.173-0.287c-0.222-0.3-0.321-0.52-0.292-0.659
			c0.735-0.591,1.494-0.753,2.277-0.487c0.068,0.083,0.104,0.165,0.11,0.247c-0.029,0.139,0.008,0.222,0.11,0.248l2.723,1.744
			c0.422,0.271,0.53,0.615,0.322,1.031c0.73-0.396,1.434-0.516,2.106-0.36c0.597,0.186,0.943,0.525,1.043,1.021
			c0.039,0.498-0.212,0.749-0.752,0.757c-0.12,0.001-0.313-0.024-0.577-0.075c-1.017-0.18-2.099,0.07-3.25,0.75
			c0.854,1.176,1.156,2.47,0.908,3.883c-0.14,0.776-0.329,1.44-0.564,1.997c-0.334,0.612-0.49,0.67-0.469,0.172
			c0.21-1.91,0.146-3.248-0.195-4.017c-0.365-0.824-1.413-1.79-3.145-2.899c-0.356-0.188-0.454-0.408-0.292-0.659
			c0.782-1.033,1.308-1.206,1.583-0.519l0.073,0.165c0.773,0.653,1.386,1.183,1.839,1.591c0.096-0.056,0.246-0.196,0.449-0.42
			c0.203-0.224,0.433-0.489,0.688-0.797l-4.053-2.596l-1.849,2.885c-0.213,0.334-0.1,0.624,0.34,0.866l2.914,1.866
			c0.584,0.296,0.72,0.737,0.404,1.32c-0.046,0.443-0.325,0.461-0.838,0.053l-3.737-2.394c-0.147,0.417-0.261,0.639-0.338,0.668
			c-0.078,0.029-0.109-0.109-0.093-0.414c0.421-2.796-0.681-5.212-3.307-7.248l-0.134,0.209c1.426,2.329,1.928,3.593,1.501,3.792
			c-0.674-1.178-1.936-2.556-3.783-4.133c-0.38-0.243-0.448-0.463-0.203-0.661c0.854-0.867,1.385-0.999,1.593-0.395l0.109,0.247
			C39.114,51.118,39.317,51.405,39.475,51.623z M37.931,52.639c1.396,2.191,2.426,3.558,3.089,4.102
			c0.109,0.108,0.312,0.258,0.607,0.447c0.523,0.297,0.899,0.597,1.123,0.896c0.301,1.019-0.118,1.301-1.257,0.846
			c-0.084-0.054-0.159-0.122-0.226-0.205c-0.532-0.655-1.183-0.895-1.952-0.719c-0.27,0.143-0.266,0.046,0.008-0.29
			c0.334-0.336,0.495-0.586,0.481-0.753c0.01-0.386-0.674-1.827-2.054-4.323C37.521,52.258,37.582,52.257,37.931,52.639z"/>
		<path fill="#FF0000" d="M48.635,41.355l1.925,2.6l0.398-0.295c0.026-0.02,0.003-0.189-0.069-0.51
			c-0.138-0.521-0.182-0.832-0.133-0.931c0.08-0.059,0.5,0.037,1.26,0.284c0.086,0.062,0.186,0.083,0.294,0.063l-2.147-2.902
			c-0.235-0.262-0.341-0.433-0.318-0.513c-0.033-0.1,0.101-0.198,0.399-0.296c0.193-0.017,0.47-0.034,0.827-0.05
			c0.223,0.023,0.388-0.005,0.495-0.084l1.038-0.768c0.026-0.02-0.008-0.149-0.104-0.391c-0.162-0.441-0.191-0.731-0.087-0.871
			c0.732-0.291,1.485-0.163,2.262,0.386c0.089,0.121,0.114,0.322,0.073,0.601c0.013,0.24,0.035,0.381,0.064,0.42l7.114,9.614
			c-0.165-0.501-0.183-0.832-0.053-0.99c0.132-0.098,0.537-0.024,1.215,0.224c0.165,0.002,0.25,0.033,0.253,0.093
			c0.033,0.1-0.03,0.209-0.189,0.328l-6.147,4.547c-0.137,0.039-0.234,0.047-0.289,0.027c-0.061-0.082-0.05-0.151,0.03-0.21
			l1.517-1.122l-5.726-7.74l-1.797,1.33l0.627,0.846c1.456-0.203,2.497,0.149,3.127,1.055c0.332,0.503,0.397,0.954,0.197,1.352
			c-0.204,0.338-0.509,0.314-0.917-0.07c-0.087-0.061-0.248-0.252-0.488-0.575c-0.456-0.785-0.977-1.209-1.561-1.277l5.055,6.832
			c0.38,0.404,0.322,0.853-0.177,1.348c-0.15,0.298-0.347,0.256-0.587-0.127l-3.624-4.897c0.488,2.385,0.532,3.474,0.134,3.27
			c-0.349-1.862-1.301-4.151-2.858-6.868l-1.397,1.034c-0.106,0.079-0.217,0.068-0.333-0.034c-0.056-0.02-0.046-0.09,0.03-0.209
			l1.517-1.122l-1.744-2.358c-1.168,0.926-1.614,1.132-1.337,0.614c0.688-1.13,1.097-2.245,1.232-3.344
			c0.041-0.279,0.241-0.397,0.604-0.353c1.484,0.337,1.96,0.702,1.427,1.095l-0.118,0.088c-0.104,0.14-0.262,0.288-0.475,0.444
			C48.887,41.139,48.742,41.276,48.635,41.355z M51.997,39.804l1.969,2.66l1.476-1.092l-2.46-3.326l-1.037,0.768
			C51.625,39.05,51.643,39.381,51.997,39.804z M54.188,42.767l2.461,3.325L58.126,45l-2.461-3.325L54.188,42.767z M56.828,46.334
			l2.55,3.447l1.476-1.093l-2.549-3.446L56.828,46.334z"/>
		<path fill="#FF0000" d="M63.426,35.703l3.11-0.863l-0.562-2.03c-0.052,0.067-0.124,0.113-0.22,0.139
			c-1.537,0.531-2.276,0.709-2.221,0.538l0.39-0.264c1.282-0.824,2.414-1.762,3.394-2.814c0.113-0.083,0.239-0.248,0.377-0.495
			c0.151-0.198,0.274-0.311,0.37-0.336c0.98,0.562,1.583,1.122,1.807,1.684c-0.051,0.067-0.188,0.13-0.41,0.192
			c-0.735,0.204-1.448,0.479-2.141,0.828l0.583,2.102l1.58-0.438l0.097-0.574c0.049-0.689,0.122-1.048,0.217-1.074
			c0.128-0.036,0.487,0.204,1.075,0.716c0.091,0.08,0.19,0.13,0.3,0.151c0.227,0.198,0.337,0.35,0.333,0.455
			c0.007,0.154-0.106,0.238-0.343,0.251l-3.158,0.876l0.643,2.319l1.244-0.345l0.062-0.33c0.068-0.747,0.149-1.134,0.246-1.161
			c0.127-0.036,0.587,0.202,1.382,0.709c0.162,0.216,0.24,0.376,0.235,0.481c-0.005,0.106-0.125,0.166-0.362,0.179l-6.411,1.778
			c-0.16,0.044-0.278,0.052-0.355,0.021c-0.091-0.079-0.062-0.164,0.083-0.258l2.488-0.689l-0.643-2.32l-3.109,0.862l0.844,3.044
			c0.121,0.435,0.123,0.695,0.009,0.778c0.027,0.097,0.356,0.109,0.99,0.038l3.541-0.982l0.008-0.158
			c0.043-0.584,0.139-0.923,0.285-1.016c0.692,0.017,1.36,0.325,2.009,0.926c0.04,0.145,0,0.312-0.12,0.501l-0.036,0.244
			l0.885,3.189c0.116,0.541-0.011,0.889-0.381,1.042c0.964,0.254,1.584,0.576,1.866,0.966c0.394,0.931,0.309,1.553-0.256,1.866
			c-0.237,0.013-0.535-0.191-0.891-0.611c-0.852-0.962-1.983-1.453-3.398-1.478c-0.393,1.93-1.633,3.341-3.722,4.232
			c-0.013-0.049,0.046-0.143,0.179-0.284c0.57-0.419,1.129-1.068,1.675-1.948c0.724-0.981,0.641-2.831-0.25-5.55
			c-0.241-0.246,0.106-0.42,1.04-0.522c0.581-0.005,0.806,0.245,0.671,0.75c-0.038,0.115-0.049,0.196-0.036,0.244
			c0.196,0.831,0.342,1.727,0.438,2.689c0.331-0.04,0.657-0.104,0.976-0.193c0.333-0.04,0.649-0.075,0.95-0.107
			c-0.173-0.003-0.298-0.203-0.373-0.599l-1.086-3.914l-3.444,0.956c-0.523,0.094-0.67,0.368-0.441,0.825l1.025,3.696
			c0.135,0.484-0.082,0.882-0.648,1.194c-0.342,0.251-0.556,0.103-0.639-0.447l-1.408-5.073c-0.323,0.194-0.549-0.004-0.679-0.593
			l-0.964-3.479c-0.536,1.293-0.956,2.009-1.26,2.145c-0.033,0.009-0.014-0.048,0.055-0.172c0.411-1.363,0.575-2.942,0.489-4.741
			c-0.043-0.403-0.091-0.884-0.142-1.443c-0.063-0.346-0.068-0.553-0.018-0.62c0.146-0.092,0.571-0.106,1.276-0.042
			c0.559,0.158,0.858,0.309,0.899,0.453c0.007,0.154-0.039,0.297-0.139,0.429c-0.133,0.141-0.212,0.292-0.235,0.455
			c-0.176,0.726-0.296,1.227-0.356,1.503c0.464,0.184,0.643,0.396,0.536,0.632l-0.007,0.158L63.426,35.703z"/>
		<path fill="#FF0000" d="M84.752,29.357l-0.035,0.374c-1.549,1.618-2.461,4.225-2.733,7.826c-0.326,3.092,0.082,5.8,1.227,8.125
			l-0.036,0.374c-1.995-2.456-2.836-5.33-2.525-8.625C80.946,33.934,82.313,31.242,84.752,29.357z"/>
		<path fill="#FF0000" d="M98.746,35.202l-2.209,4.445l1.646,0.818c0.029,0.014,0.207-0.12,0.535-0.406
			c0.652-0.571,1.038-0.828,1.157-0.769c0.097,0.104,0.229,0.73,0.398,1.877c-0.023,0.269-0.071,0.441-0.146,0.516
			c-0.075,0.076-0.175,0.054-0.301-0.065l-3.423-1.701l-3.883,7.813l2.578,1.282c0.03,0.014,0.249-0.129,0.656-0.43
			c0.506-0.421,0.804-0.609,0.892-0.565c0.096,0.104,0.236,0.677,0.42,1.721c0.052,0.193,0.037,0.297-0.045,0.313
			c-0.052,0.029-0.178,0.023-0.378-0.02l-9.426-4.684c-0.097-0.104-0.178-0.201-0.244-0.289c-0.037-0.076,0.003-0.083,0.122-0.023
			l3.912,1.944l6.628-13.336c0.074-0.3,0.323-0.315,0.744-0.05c1.061,0.694,1.281,1.14,0.667,1.338
			C98.869,35.067,98.769,35.158,98.746,35.202z"/>
		<path fill="#FF0000" d="M107.841,45.356c-2.29,1.437-3.871,2.422-4.742,2.956c-1.323,0.859-2.234,1.61-2.733,2.25
			c-0.11,0.103-0.255,0.279-0.43,0.533c-0.493,0.724-0.931,1.172-1.315,1.348c-1.482,0.241-1.824-0.277-1.023-1.555
			c0.086-0.126,0.312-0.288,0.674-0.488c0.849-0.558,1.484-1.054,1.904-1.486c0.235-0.262,0.365-0.675,0.392-1.24
			c-0.022-0.024-0.016-0.052,0.022-0.087c-0.1-0.18-0.111-0.303-0.037-0.372c0.037-0.033,0.141,0.005,0.313,0.117
			c0.322,0.423,0.745,0.55,1.271,0.381c0.621-0.214,2.467-1.06,5.536-2.541c0.591-0.319,0.927-0.473,1.01-0.458
			C108.689,44.798,108.409,45.012,107.841,45.356z M110.974,45.979l2.154,2.336c-0.016,0.058,0.241,0.002,0.768-0.167
			c0.502-0.194,0.777-0.267,0.822-0.218c0.135,0.146,0.152,0.647,0.056,1.502c-0.094,0.492-0.263,0.714-0.508,0.67l-3.669-3.978
			c-0.097,0.044-0.204,0.075-0.322,0.095c-0.667,0.164-1.101,0.249-1.301,0.253c-0.005,0.365,0.036,0.778,0.12,1.24l1.649,1.788
			c0.022,0.024,0.159-0.012,0.411-0.109c0.312-0.107,0.519-0.14,0.622-0.102c0.264,0.434,0.321,1.124,0.171,2.072
			c-0.109,0.102-0.276,0.143-0.499,0.124c-0.2,0.004-0.309,0.037-0.322,0.094l-2.003,1.712c0.021,0.023,0.163,0.029,0.423,0.015
			c0.452-0.101,0.712-0.115,0.779-0.042c0.03,0.107-0.044,0.581-0.223,1.422c-0.074,0.068-0.118,0.131-0.133,0.189
			c-0.08,0.209-0.158,0.236-0.233,0.08l-1.144-1.241l-2.833,2.477c0.668-0.165,1.034-0.21,1.102-0.137
			c0.067,0.073,0.051,0.426-0.049,1.058c-0.029,0.117-0.04,0.216-0.03,0.299c-0.066,0.15-0.118,0.244-0.154,0.277
			c-0.096,0.043-0.17,0-0.223-0.132l-1.065-1.044c-0.774,0.713-1.442,1.171-2.005,1.376c-1.015,0.305-1.747,0.103-2.197-0.607
			c-0.03-0.107,0.03-0.299,0.185-0.576c0.36-0.647,0.494-1.129,0.402-1.451c-0.159-0.394-0.228-0.579-0.205-0.555
			c0.058-0.009,0.257,0.168,0.593,0.533c0.67,1.094,1.431,1.181,2.285,0.257l-2.356-2.555c-0.067-0.072-0.238-0.073-0.513,0
			c-0.311,0.106-0.471,0.119-0.479,0.036c-0.211-0.524-0.223-1.055-0.032-1.589c0.073-0.068,0.265-0.156,0.576-0.262
			c0.296-0.048,0.511-0.112,0.645-0.189c0.073-0.068,0.231-0.192,0.476-0.371c0.413-0.291,1.015-0.711,1.807-1.26l-0.944-1.022
			c-0.089-0.098-0.098-0.18-0.024-0.248c0.096-0.044,0.179-0.029,0.246,0.044l0.976,1.059l3.133-2.483
			c-1.024-0.001-1.582-0.051-1.671-0.147c-0.127-0.063,0.21-0.217,1.009-0.459c1.097-0.291,2.147-0.741,3.153-1.353
			c0.531-0.311,1.07-0.65,1.617-1.019c0.279-0.214,0.491-0.317,0.633-0.313c0.17,0.113,0.328,0.506,0.476,1.182
			c0.129,0.511,0.132,0.846,0.008,1.006c-0.075,0.068-0.271,0.114-0.589,0.138C111.962,45.72,111.44,45.819,110.974,45.979z
			 M105.429,50.284l-3.245,2.25l2.49,2.701l2.977-2.542L105.429,50.284z M105.553,42.875c0.456,0.569,0.604,1.175,0.446,1.816
			c-0.247,0.768-0.7,1.276-1.356,1.523c-0.742,0.233-1.103,0.025-1.085-0.622c-0.017-0.165,0.141-0.4,0.474-0.707
			c0.626-0.578,1.022-1.146,1.188-1.705c-0.022-0.024-0.037-0.078-0.045-0.161C105.238,42.646,105.363,42.598,105.553,42.875z
			 M105.224,51.283c0.05-0.316,0.236-0.15,0.56,0.497c0.166,0.477,0.196,0.877,0.088,1.204c-0.404,0.598-0.926,0.92-1.562,0.968
			c-0.55-0.078-0.635-0.428-0.253-1.05c0.015-0.058,0.113-0.172,0.299-0.343C104.876,52.165,105.168,51.74,105.224,51.283z
			 M107.952,48.361l-2.269,1.755l2.188,2.372l2.921-2.491l-1.784-1.935C108.783,47.82,108.43,47.92,107.952,48.361z M108.445,48.785
			c0.063-0.375,0.212-0.286,0.447,0.263c0.233,0.55,0.304,0.958,0.209,1.226c-0.307,0.554-0.688,0.881-1.139,0.983
			c-0.58,0.038-0.841-0.171-0.785-0.628c0.007-0.14,0.164-0.376,0.475-0.707C108.086,49.431,108.35,49.052,108.445,48.785z
			 M109.38,41.034c0.418,0.604,0.594,1.163,0.523,1.678c-0.329,0.752-0.822,1.254-1.481,1.5c-0.681,0.223-1.042,0.017-1.083-0.621
			c-0.055-0.131,0.104-0.367,0.473-0.708c0.589-0.543,0.949-1.078,1.08-1.603c-0.022-0.025-0.021-0.095,0.01-0.211
			C108.896,40.622,109.057,40.61,109.38,41.034z"/>
		<path fill="#FF0000" d="M105.143,62.556l0.349-0.139c2.633,0.375,5.348,0.005,8.142-1.11c3.271-1.271,5.518-2.879,6.738-4.827
			l0.349-0.139c-1.181,2.858-3.377,4.929-6.591,6.211C111.042,63.747,108.048,63.749,105.143,62.556z"/>
		<path fill="#FF0000" d="M122.202,75.865l0.042,3.326c-0.049,0.101,0.23,0.262,0.834,0.486c0.605,0.224,0.909,0.402,0.91,0.535
			c0.002,0.164-0.444,0.602-1.337,1.308c-0.3,0.169-0.499,0.222-0.601,0.156c-0.151-0.031-0.204-0.213-0.157-0.544l-0.067-5.362
			c-0.858-0.32-1.841-0.672-2.948-1.054l0.036,2.829c-0.05,0.067,0.104,0.181,0.456,0.342c0.403,0.193,0.605,0.341,0.607,0.439
			c-0.788,1.069-1.384,1.623-1.783,1.662c-0.151-0.032-0.303-0.113-0.456-0.243c-0.152-0.131-0.278-0.195-0.378-0.194l-7.746,0.1
			c-1.255-0.117-1.864-0.738-1.829-1.864c0.049-0.133,0.224-0.219,0.522-0.255c0.652-0.075,1.075-0.345,1.269-0.811
			c0.051-0.034,0.074-0.084,0.074-0.149c0.144-0.499,0.22-0.45,0.228,0.146c0.006,0.497,0.035,0.844,0.088,1.042
			c0.052,0.198,0.306,0.311,0.757,0.338l2.481-0.031l-0.04-3.178l-4.438,0.056c-0.65,0.042-0.981-0.302-0.991-1.03
			c-0.004-0.331,0.22-0.483,0.672-0.456l8.121-0.104c-0.656-0.389-1.44-1.041-2.355-1.956c-0.561-0.589-0.84-0.933-0.841-1.032
			c0.048-0.1,0.401,0.077,1.06,0.533c2.226,1.561,4.696,2.604,7.412,3.133l-0.048-3.723c-0.002-0.167,0.046-0.283,0.146-0.35
			c0.049-0.034,0.1,0.031,0.153,0.197l0.049,3.972c0.955,0.187,1.859,0.324,2.714,0.413c0.603,0.025,0.854,0.22,0.759,0.586
			c-0.285,1.129-0.529,1.711-0.729,1.748c-0.101,0.001-0.201-0.047-0.303-0.145c-0.202-0.164-0.454-0.293-0.757-0.388
			c-0.303-0.128-0.68-0.239-1.132-0.333C122.505,75.944,122.353,75.896,122.202,75.865z M115.871,74.854l-2.406,0.03l0.041,3.178
			l2.406-0.031L115.871,74.854z M117.751,74.83l-1.503,0.019l0.039,3.178l2.331-0.029l-0.034-2.73
			C118.629,74.901,118.353,74.755,117.751,74.83z"/>
		<path fill="#FF0000" d="M121.078,93.713l-0.549,1.491c-0.059,0.014,0.054,0.144,0.338,0.39c0.355,0.342,0.539,0.567,0.553,0.679
			c-0.663,0.497-1.405,0.771-2.226,0.822c-0.142-0.052-0.23-0.174-0.268-0.362c0.021-0.204-0.045-0.316-0.196-0.337l-5.013-1.842
			c-0.519-0.19-0.807-0.42-0.869-0.688c-0.979,0.627-1.603,0.874-1.874,0.739c-0.072-0.098-0.113-0.271-0.127-0.522
			c0.025-0.803-0.111-1.663-0.414-2.585c-1.735,0.067-3.166,0.547-4.294,1.438c-0.14,0.089-0.217,0.008-0.23-0.243
			c-0.097-0.318-0.218-0.574-0.36-0.768c-0.084-0.208-0.251-0.408-0.498-0.605c-0.306-0.184-0.291-0.371,0.048-0.564
			c1.134-0.324,2.086-0.521,2.859-0.59c-0.282-1.126-0.824-2.119-1.63-2.979c-0.237-0.229-0.366-0.382-0.392-0.461
			c0.596-0.311,1.386-0.355,2.373-0.134c0.046,0.018,0.112,0.129,0.197,0.337c0.166,0.272,0.338,0.459,0.515,0.56l12.85,4.72
			c0.447,0.093,0.438,0.336-0.027,0.73C121.447,93.144,121.191,93.402,121.078,93.713z M113.049,85.687l-4.166-1.529
			c-0.6-0.257-0.821-0.673-0.663-1.249c0.114-0.312,0.377-0.373,0.79-0.187l14.049,5.16c0.388,0.107,0.501,0.237,0.338,0.39
			c-0.337,0.333-0.627,0.616-0.87,0.843l-0.343,0.933l0.231,0.243c0.307,0.325,0.444,0.534,0.41,0.627
			c-0.711,0.479-1.453,0.754-2.226,0.823c-0.083-0.066-0.148-0.179-0.196-0.337c-0.12-0.256-0.251-0.481-0.393-0.674
			c-1.281-1.458-2.152-2.289-2.611-2.493c-0.047-0.018-0.193,0.017-0.438,0.104c-1.646,0.699-3.182,0.664-4.609-0.106
			c-0.884-0.502-1.317-1.066-1.299-1.694c-0.027-0.363,0.217-0.52,0.733-0.471C112.359,86.104,112.781,85.977,113.049,85.687z
			 M114.772,91.027l-6.425-2.359l0.156,1.538c1.501,0.128,3.506,0.634,6.011,1.521L114.772,91.027z M114.02,93.078l0.377-1.025
			c-1.271-0.467-2.452-0.671-3.541-0.613c0.676,0.777,1.326,1.404,1.953,1.881c0.206-0.418,0.491-0.542,0.857-0.372L114.02,93.078z
			 M121.815,90.176l0.274-0.745c0.161-0.294-0.006-0.497-0.499-0.606l-8.331-3.06c-0.369,0.569-0.324,1.026,0.137,1.372
			c1.146,0.809,2.52,1.065,4.123,0.773c0.095,0.035,0.431,0.211,1.008,0.529C119.895,89.224,120.991,89.803,121.815,90.176z
			 M117.878,92.168l-2.753-1.011l-0.754,2.051l2.755,1.011L117.878,92.168z M120.067,92.973l-1.907-0.701l-0.752,2.052l2.753,1.011
			l0.668-1.818C120.898,93.33,120.644,93.148,120.067,92.973z"/>
		<path fill="#FF0000" d="M104.168,96.965l-2.654,3.222c0.966,0.5,1.904,0.801,2.817,0.903c-0.712,0.652-2.046,0.797-4.002,0.435
			c-0.933-0.385-1.514-0.9-1.745-1.547c-0.256-0.846-0.015-1.229,0.72-1.152c0.276,0.067,0.613,0.255,1.009,0.562
			c0.21,0.141,0.371,0.262,0.483,0.361c1.147-2.655,1.772-4.268,1.878-4.839c0.069-0.38,0.125-0.596,0.168-0.646
			c0.273-0.155,1.028,0.202,2.263,1.076c0.21,0.142,0.229,0.27,0.061,0.386c-0.329,0.371-0.337,0.872-0.025,1.503
			c0.889,1.493,2.088,3.088,3.601,4.783c0.542,0.522,0.679,0.821,0.412,0.896c-1.495,0.931-2.21,0.981-2.146,0.154
			c-0.041-0.258-0.08-0.402-0.117-0.436C105.983,100.852,105.075,98.964,104.168,96.965z M112.69,108.101
			c0.429,0.424,0.149,0.663-0.836,0.718c-0.077-0.067-0.115-0.212-0.117-0.436c-0.04-0.258-0.109-0.406-0.207-0.447
			c-2.478-1.666-4.999-2.109-7.564-1.33c-0.391,0.139-0.562,0.142-0.512,0.011c0.201-0.53,0.164-1.093-0.109-1.69
			c-0.054-0.092-0.113-0.212-0.183-0.36c-0.378-0.558-0.281-0.78,0.293-0.67C106.297,103.937,109.375,105.339,112.69,108.101z
			 M114.197,105.721c-1.402,0.748-2.105,0.788-2.113,0.117c0.013-0.167,0-0.266-0.038-0.299c-1.758-2.931-2.81-5.674-3.153-8.235
			c-0.04-0.788,0.014-0.961,0.16-0.521c0.616,2.403,2.235,5.075,4.854,8.017C114.448,105.323,114.545,105.63,114.197,105.721z"/>
		<path fill="#FF0000" d="M94.154,118.434l-5.672-11.038c-0.863-1.247-0.655-2.255,0.624-3.026c0.205-0.105,0.456,0.02,0.75,0.376
			c0.446,0.504,0.864,0.74,1.257,0.707l0.501-0.003c0.022,0.044-0.099,0.135-0.364,0.271c-0.67,0.288-1.03,0.529-1.079,0.724
			c-0.131,0.181-0.07,0.515,0.183,1.006l5.637,10.972l5.785-2.972c0.148-0.076,0.272-0.085,0.378-0.025
			c0.104,0.059,0.095,0.148-0.03,0.269l-5.785,2.973c-0.052-0.03-0.071,0.149-0.059,0.537c0.043,0.372,0.042,0.626,0,0.762
			c-0.242,0.18-0.878,0.028-1.909-0.457c-0.15-0.148-0.209-0.372-0.177-0.67C94.242,118.643,94.229,118.508,94.154,118.434z
			 M94.294,111.428l-1.855-3.612c-0.356-0.55-0.208-1.021,0.447-1.413c0.247-0.241,0.461-0.152,0.638,0.264l0.412,0.803l1.987-1.021
			l-0.481-0.937c-0.258-0.432-0.102-0.851,0.471-1.257c0.227-0.285,0.447-0.146,0.664,0.421l3.024,5.887
			c0.251,0.491-0.125,0.627-1.129,0.411c-0.357-0.042-0.579-0.041-0.669,0.005l-1.369,0.703c-0.028,0.015-0.03,0.156-0.004,0.425
			c0.036,0.433,0.018,0.723-0.054,0.874c-0.784,0.064-1.493-0.192-2.126-0.769c-0.016-0.105-0.003-0.224,0.039-0.358
			C94.34,111.658,94.341,111.517,94.294,111.428z M97.562,109.749l-1.512-2.943l-1.942,0.998l1.89,3.68l1.458-0.749
			C97.756,110.522,97.791,110.194,97.562,109.749z M95.164,115.294l6.36-3.268c0.317-0.107,0.463-0.041,0.437,0.198l-4.901,2.519
			c-0.06,0.03-0.077,0.321-0.054,0.873c0.042,0.372,0.046,0.597,0.009,0.672c-0.114,0.283-0.684,0.153-1.708-0.391
			c-0.232-0.164-0.355-0.297-0.372-0.4C94.889,115.407,94.966,115.34,95.164,115.294z"/>
	</g>
	<g>
		<path fill="#FF0000" d="M20.51,115.697l11.321-7.089l0.744,0.959l-7.101,6.89l0.074,0.097l8.44-5.163l0.744,0.959l-9.685,9.199
			l-0.818-1.054l6.208-5.659l-0.074-0.097l-7.175,4.412l-0.818-1.055l6.059-5.852l-0.075-0.096l-7.026,4.604L20.51,115.697z"/>
		<path fill="#FF0000" d="M27.362,101.57l2.664,4.662l-11.407,6.516l-2.533-4.434l1.268-0.724l1.932,3.383l3.536-2.02l-1.775-3.108
			l1.268-0.724l1.775,3.107l4.069-2.324l-2.062-3.611L27.362,101.57z"/>
		<path fill="#FF0000" d="M24.625,95.294l0.495,1.162l-3.458,2.273l0.908,2.132l4.035-0.917l0.495,1.161l-13.259,2.785l-0.413-0.969
			L24.625,95.294z M20.423,99.544l-3.982,2.61l0.042,0.097l4.642-1.061L20.423,99.544z"/>
		<path fill="#FF0000" d="M22.883,89.412l1.54,5.253l-12.606,3.696L11.476,97.2l11.206-3.286l-1.2-4.092L22.883,89.412z"/>
		<path fill="#FF0000" d="M10.638,87.723l0.435,2.061l11.425-2.412l0.25,1.186l-11.425,2.411l0.435,2.061L10.33,93.33l-1.12-5.306
			L10.638,87.723z"/>
		<path fill="#FF0000" d="M21.399,78.849l0.111,1.206l-6.12,0.562l0.274,2.986l6.12-0.562l0.111,1.206l-13.083,1.2l-0.11-1.205
			l5.508-0.505l-0.274-2.988l-5.509,0.506l-0.11-1.205L21.399,78.849z"/>
		<path fill="#FF0000" d="M18.329,72.037l-0.135,6l-1.229-0.027l0.135-6L18.329,72.037z"/>
		<path fill="#FF0000" d="M22.308,65.877l-0.167,1.2l-6.087-0.852l-0.416,2.972l6.087,0.852l-0.168,1.199l-13.01-1.819l0.167-1.2
			l5.478,0.767l0.416-2.972L9.13,65.257l0.168-1.198L22.308,65.877z"/>
		<path fill="#FF0000" d="M23.998,59.131l-0.319,1.222l-4.126-0.316l-0.585,2.241l3.753,1.742l-0.32,1.223l-12.194-5.907
			l0.267-1.019L23.998,59.131z M18.074,59.922l-4.747-0.37L13.3,59.654l4.321,2L18.074,59.922z"/>
		<path fill="#FF0000" d="M26.29,53.221l-0.459,1.176l-5.985-0.305l-0.499,1.274l5.294,2.07l-0.44,1.128L11.966,53.78l0.958-2.451
			c0.306-0.784,0.831-1.314,1.57-1.59c0.741-0.276,1.731-0.171,2.971,0.313c0.955,0.374,1.63,0.827,2.026,1.358
			c0.397,0.533,0.583,1.039,0.561,1.52L26.29,53.221z M17.024,51.181c-0.667-0.261-1.246-0.328-1.737-0.199
			c-0.49,0.129-0.857,0.504-1.1,1.124l-0.422,1.08l4.221,1.65l0.537-1.373c0.153-0.392,0.133-0.795-0.063-1.211
			C18.267,51.836,17.788,51.479,17.024,51.181z"/>
		<path fill="#FF0000" d="M29.487,47.201l-0.503,0.925l-8.233-4.478l-0.05,0.092l7.63,5.588l-0.403,0.739L19.091,46.7l-0.05,0.092
			l8.233,4.479l-0.503,0.924L15.23,45.918l0.78-1.434l8.18,3.13l0.05-0.092l-7.073-5.166l0.78-1.433L29.487,47.201z"/>
		<path fill="#FF0000" d="M28.687,36.918c1.936,1.432,3.174,2.665,3.716,3.697s0.542,1.916-0.001,2.649
			c-0.543,0.734-1.392,1-2.55,0.799c-1.156-0.2-2.703-1.016-4.639-2.448c-1.936-1.429-3.159-2.661-3.67-3.693
			c-0.511-1.031-0.495-1.915,0.047-2.648c0.542-0.733,1.377-1,2.503-0.801C25.221,34.673,26.751,35.488,28.687,36.918z
			 M27.936,37.935c-1.729-1.279-2.956-1.989-3.679-2.131c-0.723-0.141-1.221-0.028-1.492,0.338
			c-0.271,0.367-0.237,0.882,0.099,1.546c0.337,0.665,1.371,1.635,3.101,2.914c1.729,1.277,2.971,1.989,3.726,2.131
			c0.754,0.143,1.267,0.031,1.538-0.336c0.271-0.366,0.223-0.882-0.146-1.547C30.715,40.185,29.666,39.213,27.936,37.935z"/>
		<path fill="#FF0000" d="M38.263,36.224l-0.899,0.961l-8.934-4.396l-0.036,0.039l6.956,6.509l-0.827,0.884l-9.592-8.977
			l0.899-0.961l8.934,4.396L34.8,34.64l-6.956-6.509l0.827-0.884L38.263,36.224z"/>
		<path fill="#FF0000" d="M35.43,21.347l2.72,7.132l3.786,4.546l-0.931,0.775l-3.785-4.546l-6.523-3.966l0.93-0.775l5.005,3.131
			l0.041-0.034L34.5,22.122L35.43,21.347z"/>
		<path fill="#FF0000" d="M45.938,16.393L42.2,18.55l2.151,3.727l2.826-1.632l0.729,1.264l-2.826,1.632l2.958,5.123l-1.048,0.605
			l-6.569-11.376l4.787-2.764L45.938,16.393z"/>
		<path fill="#FF0000" d="M53.208,25.873l-1.088,0.532l-5.773-11.802l1.088-0.531L53.208,25.873z"/>
		<path fill="#FF0000" d="M59.326,23.323l-1.225,0.48L51.93,15.99l-0.049,0.019l3.476,8.87l-1.127,0.443l-4.793-12.232l1.225-0.48
			l6.171,7.814l0.049-0.019l-3.476-8.87l1.127-0.441L59.326,23.323z"/>
		<path fill="#FF0000" d="M66.287,21.438l-1.223,0.315l-1.729-3.76l-2.243,0.577l0.301,4.128l-1.224,0.314L59.406,9.486l1.02-0.262
			L66.287,21.438z M62.717,16.646l-1.984-4.329l-0.102,0.026l0.353,4.749L62.717,16.646z"/>
		<path fill="#FF0000" d="M72.258,20.611l-1.304,0.177l-4.152-9.049l-0.052,0.007l1.283,9.44l-1.2,0.163L65.064,8.331l1.304-0.177
			l4.152,9.049l0.052-0.007L69.29,7.756l1.199-0.163L72.258,20.611z"/>
		<path fill="#FF0000" d="M78.826,15.175c0.012,1.947-0.237,3.336-0.744,4.167c-0.508,0.832-1.13,1.256-1.866,1.273
			c-0.842,0.02-1.573-0.463-2.192-1.447c-0.621-0.984-0.955-2.577-1.007-4.78c-0.056-2.406,0.192-4.204,0.744-5.396
			c0.551-1.19,1.282-1.797,2.195-1.819c0.771-0.018,1.422,0.39,1.951,1.223c0.527,0.833,0.792,2.018,0.793,3.555l-1.158,0.027
			c-0.026-1.125-0.169-1.967-0.427-2.525c-0.259-0.558-0.634-0.831-1.125-0.819c-0.562,0.013-1,0.446-1.313,1.299
			c-0.314,0.852-0.447,2.276-0.4,4.274c0.043,1.843,0.239,3.133,0.59,3.867c0.351,0.735,0.789,1.096,1.315,1.083
			c0.386-0.008,0.73-0.286,1.034-0.831c0.303-0.545,0.437-1.585,0.401-3.122L78.826,15.175z"/>
		<path fill="#FF0000" d="M81.932,20.645l-1.207-0.09l0.969-13.101L82.9,7.544L81.932,20.645z"/>
		<path fill="#FF0000" d="M88.748,21.554l-1.25-0.189l-0.117-4.136l-2.289-0.348l-1.34,3.916l-1.248-0.189l4.594-12.746l1.043,0.158
			L88.748,21.554z M87.34,15.746l-0.129-4.76l-0.105-0.015l-1.535,4.507L87.34,15.746z"/>
		<path fill="#FF0000" d="M94.66,23.155l-5.279-1.447l3.473-12.67l1.166,0.32l-3.086,11.262l4.113,1.126L94.66,23.155z"/>
		<path fill="#FF0000" d="M102.057,26.187l-5.018-2.19l5.256-12.04l1.109,0.484l-4.672,10.703l3.908,1.705L102.057,26.187z"/>
		<path fill="#FF0000" d="M107.287,29.143l-4.66-2.665l6.52-11.405l4.434,2.534l-0.725,1.267l-3.383-1.933l-2.021,3.535l3.107,1.777
			l-0.725,1.267l-3.107-1.777l-2.324,4.069l3.609,2.064L107.287,29.143z"/>
		<path fill="#FF0000" d="M112.475,32.866l-1.023-0.741l1.791-3.73l-1.875-1.358l-2.986,2.865l-1.021-0.741l9.928-9.22l0.852,0.618
			L112.475,32.866z M113.885,27.058l2.068-4.289l-0.086-0.062l-3.432,3.302L113.885,27.058z"/>
		<path fill="#FF0000" d="M119.117,33.904c-0.789,0.875-1.604,1.399-2.445,1.572c-0.84,0.173-1.586-0.035-2.238-0.622
			c-0.65-0.587-0.92-1.312-0.805-2.173c0.115-0.862,0.533-1.692,1.254-2.492l0.359-0.399l0.9,0.81l-0.309,0.343
			c-0.516,0.57-0.793,1.114-0.832,1.63c-0.041,0.516,0.098,0.915,0.41,1.196c0.416,0.375,0.869,0.491,1.355,0.343
			c0.486-0.146,0.936-0.449,1.348-0.905c0.342-0.38,0.543-0.838,0.6-1.373c0.057-0.534-0.016-1.135-0.219-1.8
			c-0.316-0.907-0.424-1.692-0.32-2.357c0.104-0.665,0.412-1.283,0.928-1.854c0.721-0.799,1.492-1.275,2.316-1.428
			c0.822-0.154,1.494,0.003,2.018,0.474c0.678,0.611,0.898,1.346,0.668,2.207c-0.232,0.86-0.656,1.631-1.273,2.316l-0.9-0.811
			c0.402-0.395,0.668-0.846,0.795-1.352c0.127-0.507,0.02-0.914-0.318-1.219c-0.312-0.282-0.672-0.382-1.078-0.299
			c-0.406,0.083-0.797,0.334-1.174,0.752c-0.309,0.342-0.504,0.702-0.582,1.079c-0.08,0.376,0.025,1.006,0.316,1.888
			c0.266,0.86,0.34,1.668,0.225,2.425C119.998,32.613,119.666,33.296,119.117,33.904z"/>
		<path fill="#FF0000" d="M118.408,38.569l-0.826-0.885l9.598-8.969l0.826,0.885L118.408,38.569z"/>
		<path fill="#FF0000" d="M122.93,44.081l-0.809-1.038l5.734-8.137l-0.031-0.042l-7.516,5.854l-0.744-0.954l10.363-8.074
			l0.809,1.037l-5.734,8.138l0.031,0.042l7.516-5.854l0.744,0.956L122.93,44.081z"/>
		<path fill="#FF0000" d="M125.998,49.25l-0.471-0.761l0.83-0.7c-0.336,0.042-0.668-0.009-1-0.155
			c-0.332-0.145-0.59-0.368-0.773-0.666c-0.389-0.627-0.311-1.449,0.234-2.468s1.752-2.107,3.625-3.267
			c2.045-1.266,3.707-1.986,4.986-2.159c1.279-0.173,2.158,0.127,2.639,0.905c0.426,0.685,0.387,1.451-0.111,2.297
			c-0.502,0.846-1.338,1.634-2.514,2.362l-0.611-0.985c0.916-0.566,1.537-1.096,1.865-1.587c0.326-0.492,0.371-0.932,0.131-1.319
			c-0.297-0.476-0.877-0.612-1.742-0.406c-0.867,0.205-2.15,0.834-3.848,1.887c-1.611,0.998-2.629,1.835-3.055,2.511
			c-0.424,0.676-0.516,1.207-0.275,1.595c0.238,0.388,0.635,0.567,1.188,0.534c0.553-0.032,1.264-0.318,2.135-0.858l0.719-0.445
			l-0.859-1.387l1.24-0.769l1.414,2.282L125.998,49.25z"/>
		<path fill="#FF0000" d="M128.33,56.12l-1.01-0.174c0.752-1.31,1.641-2.441,2.67-3.395c1.027-0.954,2.311-1.781,3.848-2.485
			c1.537-0.704,3-1.134,4.395-1.289s2.855-0.101,4.385,0.164l-0.527,0.878c-1.361-0.266-2.672-0.331-3.934-0.196
			c-1.264,0.134-2.592,0.521-3.988,1.161c-1.398,0.64-2.561,1.393-3.486,2.261S128.971,54.938,128.33,56.12z"/>
		<path fill="#FF0000" d="M134.598,60.094c-1.119,0.372-2.086,0.425-2.902,0.161c-0.816-0.266-1.363-0.813-1.641-1.646
			c-0.275-0.833-0.152-1.596,0.375-2.288c0.523-0.693,1.297-1.208,2.318-1.547l0.51-0.17l0.383,1.149l-0.438,0.146
			c-0.73,0.243-1.238,0.578-1.527,1.007c-0.291,0.429-0.367,0.844-0.234,1.243c0.176,0.532,0.514,0.855,1.01,0.967
			c0.494,0.113,1.035,0.072,1.619-0.122c0.484-0.162,0.885-0.461,1.199-0.898c0.312-0.437,0.545-0.996,0.697-1.675
			c0.172-0.945,0.467-1.68,0.887-2.208c0.416-0.527,0.992-0.913,1.721-1.155c1.021-0.339,1.926-0.373,2.717-0.099
			c0.793,0.272,1.301,0.741,1.523,1.407c0.287,0.866,0.117,1.616-0.508,2.249c-0.627,0.633-1.375,1.096-2.25,1.387l-0.385-1.148
			c0.547-0.146,1-0.407,1.361-0.785c0.357-0.378,0.467-0.785,0.322-1.217c-0.133-0.399-0.396-0.663-0.791-0.792
			c-0.393-0.128-0.855-0.103-1.389,0.075c-0.439,0.145-0.785,0.362-1.041,0.65c-0.256,0.288-0.473,0.887-0.656,1.8
			c-0.193,0.877-0.529,1.618-1.002,2.219C136,59.405,135.375,59.835,134.598,60.094z"/>
		<path fill="#FF0000" d="M132.449,67.487l-0.246-1.186l6.018-1.247l-0.609-2.938l-6.018,1.246l-0.244-1.186l12.863-2.664
			l0.244,1.186l-5.416,1.122l0.609,2.938l5.416-1.122l0.246,1.186L132.449,67.487z"/>
		<path fill="#FF0000" d="M133.131,74.431l-0.111-1.259l3.992-1.091l-0.203-2.307l-4.121-0.377l-0.111-1.259l13.471,1.457
			l0.092,1.049L133.131,74.431z M138.443,71.691l4.594-1.25l-0.01-0.104l-4.742-0.428L138.443,71.691z"/>
		<path fill="#FF0000" d="M132.986,80.418l0.035-1.314l9.6-2.645l0.002-0.053l-9.523-0.25l0.031-1.21l13.133,0.345l-0.035,1.316
			l-9.598,2.645l-0.002,0.052l9.523,0.25l-0.031,1.21L132.986,80.418z"/>
		<path fill="#FF0000" d="M131.98,86.879l0.127-0.886l1.086-0.002c-0.283-0.184-0.506-0.438-0.666-0.762s-0.215-0.66-0.166-1.007
			c0.105-0.729,0.693-1.31,1.764-1.741s2.695-0.491,4.877-0.177c2.383,0.342,4.119,0.856,5.209,1.546
			c1.092,0.688,1.574,1.483,1.443,2.387c-0.113,0.799-0.635,1.362-1.562,1.691c-0.928,0.326-2.074,0.394-3.441,0.196l0.162-1.146
			c1.066,0.152,1.883,0.146,2.449-0.021c0.568-0.168,0.883-0.477,0.947-0.927c0.08-0.557-0.279-1.033-1.074-1.432
			c-0.797-0.398-2.184-0.739-4.162-1.023c-1.875-0.269-3.193-0.281-3.951-0.036c-0.762,0.245-1.172,0.595-1.238,1.046
			c-0.064,0.451,0.125,0.843,0.57,1.172c0.443,0.33,1.172,0.567,2.186,0.714l0.838,0.12l0.23-1.616l1.445,0.208l-0.381,2.658
			L131.98,86.879z"/>
		<path fill="#FF0000" d="M130.533,93.201l0.312-1.17l5.939,1.577l0.771-2.898l-5.941-1.578l0.311-1.17l12.697,3.372l-0.311,1.17
			l-5.346-1.42l-0.771,2.899l5.348,1.42l-0.311,1.17L130.533,93.201z"/>
		<path fill="#FF0000" d="M128.039,99.703l0.465-1.174l4.059,0.812l0.852-2.154l-3.516-2.183l0.465-1.176l11.391,7.337l-0.387,0.979
			L128.039,99.703z M134.016,99.633l4.668,0.941l0.039-0.098l-4.049-2.507L134.016,99.633z"/>
		<path fill="#FF0000" d="M127.004,101.643l0.541-1.083l11.758,5.861l-0.541,1.084L127.004,101.643z"/>
		<path fill="#FF0000" d="M130.982,107.951c-1.459-0.856-2.65-1.81-3.578-2.862c-0.926-1.053-1.695-2.269-2.312-3.646l1.021-0.073
			c0.52,1.241,1.195,2.34,2.029,3.298c0.834,0.956,1.914,1.824,3.238,2.602c1.326,0.777,2.609,1.296,3.852,1.558
			c1.242,0.261,2.555,0.329,3.934,0.203l0.438,0.927c-1.549,0.108-3.008,0.016-4.379-0.28S132.439,108.806,130.982,107.951z"/>
		<path fill="#FF0000" d="M123.721,115.995c-1.518-1.222-2.438-2.291-2.762-3.209c-0.324-0.919-0.26-1.668,0.191-2.251
			c0.518-0.664,1.354-0.927,2.508-0.786c1.154,0.142,2.602,0.888,4.34,2.238c1.902,1.477,3.141,2.804,3.717,3.984
			c0.574,1.18,0.584,2.129,0.023,2.851c-0.473,0.609-1.199,0.855-2.18,0.739s-2.064-0.659-3.258-1.628l0.709-0.915
			c0.891,0.689,1.635,1.111,2.23,1.264c0.596,0.15,1.043,0.032,1.346-0.355c0.344-0.443,0.285-1.057-0.18-1.838
			c-0.463-0.782-1.482-1.784-3.061-3.01c-1.455-1.131-2.58-1.793-3.371-1.984s-1.348-0.079-1.67,0.336
			c-0.238,0.305-0.24,0.747-0.01,1.326c0.232,0.58,0.953,1.34,2.168,2.283L123.721,115.995z"/>
		<path fill="#FF0000" d="M120.221,121.678c-1.734-1.67-2.801-3.054-3.203-4.148c-0.404-1.095-0.287-1.971,0.346-2.627
			c0.633-0.657,1.51-0.811,2.631-0.461s2.549,1.36,4.281,3.031s2.785,3.05,3.156,4.141c0.373,1.089,0.242,1.963-0.391,2.62
			c-0.633,0.656-1.496,0.812-2.586,0.468C123.363,124.355,121.953,123.349,120.221,121.678z M121.098,120.769
			c1.547,1.493,2.672,2.356,3.369,2.592c0.699,0.234,1.207,0.188,1.523-0.141s0.35-0.844,0.104-1.546
			c-0.248-0.702-1.146-1.798-2.695-3.291s-2.688-2.36-3.416-2.601s-1.252-0.195-1.568,0.133s-0.336,0.847-0.059,1.554
			C118.635,118.177,119.549,119.276,121.098,120.769z"/>
		<path fill="#FF0000" d="M113.334,118.909l0.939-0.765l1.066,1.31l-0.938,0.765L113.334,118.909z"/>
		<path fill="#FF0000" d="M110.297,121.307l-0.639-2.088l0.43-0.304l0.768,1.997l0.43-0.305l0.977,1.381l-0.99,0.698
			L110.297,121.307z"/>
		<path fill="#FF0000" d="M104.566,125.069l4.637-2.909l6.984,11.126l-1.027,0.644l-6.207-9.891l-3.611,2.267L104.566,125.069z"/>
		<path fill="#FF0000" d="M105.744,137.562l1.871-0.963l-5.34-10.386l1.078-0.553l5.34,10.385l1.871-0.964l0.668,1.299l-4.82,2.479
			L105.744,137.562z"/>
		<path fill="#FF0000" d="M97,135.523c-0.844-2.199-1.127-3.888-0.846-5.066c0.281-1.178,0.961-1.974,2.043-2.389l1.67-0.642
			l4.711,12.264l-1.67,0.642c-1.213,0.465-2.289,0.33-3.23-0.405C98.738,139.188,97.846,137.722,97,135.523z M98.18,135.07
			c0.68,1.768,1.354,2.937,2.021,3.503c0.67,0.565,1.396,0.698,2.184,0.396l0.541-0.208l-3.664-9.538l-0.541,0.208
			c-0.787,0.303-1.244,0.875-1.371,1.72C97.223,131.994,97.5,133.301,98.18,135.07z"/>
		<path fill="#FF0000" d="M92.619,129.991l1.17-0.31l0.432,1.634l-1.17,0.311L92.619,129.991z"/>
	</g>
</g>
</svg>
