<?xml version="1.0" encoding="utf-8"?>
<!-- Generator: Adobe Illustrator 15.0.0, SVG Export Plug-In . SVG Version: 6.00 Build 0)  -->
<!DOCTYPE svg PUBLIC "-//W3C//DTD SVG 1.1//EN" "http://www.w3.org/Graphics/SVG/1.1/DTD/svg11.dtd">
<svg version="1.1" id="图层_1" xmlns="http://www.w3.org/2000/svg" xmlns:xlink="http://www.w3.org/1999/xlink" x="0px" y="0px"
	 width="154px" height="154px" viewBox="0 0 154 154" enable-background="new 0 0 154 154" xml:space="preserve">
<circle fill="none" stroke="#FF0000" stroke-width="3.5" stroke-miterlimit="10" cx="76.888" cy="77.001" r="75.112"/>
<polygon fill="#FF0000" points="92.727,99.354 78.492,86.756 62.846,96.377 69.193,79.613 56.724,67.363 73.836,68.493 
	81.269,52.335 85.826,69.457 103.096,71.016 88.746,80.762 "/>
<g>
	<path fill="#FF0000" d="M94.188,138.896l-1.953,0.674c-0.025-0.072-0.074,0.147-0.149,0.659c-0.054,0.424-0.104,0.645-0.149,0.66
		c-0.16-0.026-0.739-0.394-1.736-1.102c0.06-0.264,0.079-0.353,0.06-0.264c0.184-0.632,0.254-0.938,0.208-0.923
		c-0.25-0.725-0.538-1.558-0.863-2.498c-1.744-4.908-3.131-8.845-4.155-11.812c-1.126-3.258-1.713-4.958-1.763-5.104
		c0.01-1.138,0.447-1.979,1.315-2.521c0.044-0.015,0.104,0.086,0.179,0.304c0.396,0.998,1.252,1.512,2.568,1.542l0.039,0.109
		c-0.948,0.166-1.602,0.31-1.962,0.435c-0.383,0.053-0.62,0.092-0.71,0.124c-0.061,0.263,0.436,1.915,1.485,4.956
		c0.325,0.939,0.725,2.099,1.2,3.475l2.493-0.861c-1.626-5.436-1.089-9.914,1.612-13.441l0.314,0.257
		c-1.674,3.009-2.263,5.887-1.767,8.632c0.206,1.468,0.677,3.412,1.413,5.833c0.608,2.058,1.89,5.91,3.84,11.558
		C95.136,139.377,94.628,139.147,94.188,138.896z M89.716,133.147l2.423-0.838L90.52,127.4l-2.492,0.86L89.716,133.147z
		 M91.74,139.012l1.887-0.651c0.404-0.14,0.496-0.457,0.276-0.946c-0.102-0.29-0.213-0.616-0.338-0.978
		c-0.426-1.232-0.825-2.39-1.2-3.476L89.94,133.8L91.74,139.012z M98.777,138.646l-1.44-4.607l-0.741,0.256l-0.396,1.475
		l-1.774-1.21l-0.075-0.218l2.761-0.953l-1.703-5.367l-0.404,0.139l-0.021,0.373c-0.03,0.495-0.068,0.752-0.112,0.768
		c-0.625-0.353-1.134-0.663-1.528-0.931c-0.004-0.161,0.087-0.478,0.276-0.946l-2.431-6.818c0.21-0.559,0.472-0.892,0.785-1
		l0.488,1.411l2.223-0.768l-0.938-2.715c0.185-0.632,0.457-1.009,0.815-1.132l3.782,11.82c-0.369-0.197-0.808-0.45-1.318-0.76
		l-0.674,0.232l1.771,5.344l1.886-0.651c-0.12-0.931-0.271-2.094-0.451-3.49c-0.723-4.856-1.094-7.24-1.113-7.151
		c-0.485-1.697-1.098-3.471-1.838-5.321c-0.244-0.565-0.469-1.134-0.668-1.714c0.379-0.94,0.963-0.777,1.752,0.488
		c0.024,0.071,0.13,0.521,0.315,1.35c0.236,1.7,0.515,2.941,0.834,3.724c0.315,0.62,1.017,0.903,2.104,0.854l0.075,0.217
		c-0.97,0.253-1.495,0.475-1.58,0.667c0.223,2.678,0.717,7.531,1.486,14.559l-0.308-0.016l-0.519-3.467l-1.752,0.605
		c0.656,2.041,1.349,4.192,2.079,6.452c-1.212-0.311-1.854-0.494-1.924-0.551c-0.025-0.072,0.005-0.204,0.09-0.395
		C98.784,138.887,98.848,138.702,98.777,138.646z M94.681,127.664l1.685-0.582c0.52-0.1,0.622-0.457,0.306-1.078l-1.762-5.104
		l-2.291,0.791L94.681,127.664z M104.221,131.053l0.075,0.219c-1.397-0.41-2.307-0.784-2.727-1.125
		c-0.783-1.107-0.879-1.966-0.286-2.576c0.09-0.03,0.289,0.184,0.6,0.645C102.627,129.496,103.406,130.442,104.221,131.053z
		 M104.929,137.251l-0.06,0.264c-1.377-0.496-2.302-0.988-2.771-1.474c-0.744-1.283-0.817-2.148-0.219-2.598
		c0.09-0.032,0.268,0.189,0.532,0.666C103.321,135.577,104.16,136.624,104.929,137.251z"/>
	<path fill="#FF0000" d="M69.257,131.611c-1.774,1.976-3.261,4.175-4.46,6.595c-0.309-0.724-0.682-1.532-1.117-2.422
		c0.056-0.072,0.106-0.104,0.153-0.101c0.237,0.024,0.516-0.141,0.838-0.492c0.11-0.145,0.271-0.319,0.482-0.529
		c1.925-2.039,3.326-3.399,4.207-4.079l0.921-9.145c0.164-1.138,0.13-1.759-0.099-1.857c-0.134-0.091-0.886-0.205-2.258-0.343
		c-0.889-0.166-1.433,0.01-1.629,0.528c-0.234,0.438-0.664,2.318-1.285,5.644l-0.283-0.027c0.551-3.564,0.589-5.6,0.114-6.108
		l-0.13-0.129c0.327-1.353,1.574-1.88,3.74-1.586c1.798,0.181,2.771,0.472,2.92,0.871c0.261,0.258,0.264,1.412,0.01,3.465
		L69.285,142.7c-1.112-0.806-1.665-1.247-1.657-1.321c0.016-0.154,0.161-0.409,0.436-0.765l0.329-0.43L69.257,131.611z
		 M72.646,140.613l2.235-22.175c0.329-0.429,0.742-0.733,1.236-0.915l-0.588,5.137c2.707-0.807,4.403-1.52,5.086-2.143l0.071,0.007
		c0.397,1.271,0.58,2.06,0.549,2.364l-0.649,0.051c-0.574,0.018-2.283,0.153-5.126,0.406l-1.083,10.745l4.254,0.429l0.804-0.15
		l0.333,0.958l-5.459-0.55l-0.782,8.465c-1.058-0.876-1.605-1.355-1.646-1.436c0.009-0.077,0.148-0.294,0.424-0.649
		C72.573,140.875,72.688,140.694,72.646,140.613z"/>
	<path fill="#FF0000" d="M46.82,129.109l-4.134-2.39c0.038-0.066-0.201,0.062-0.716,0.384c-0.435,0.278-0.674,0.406-0.716,0.382
		c-0.106-0.858-0.152-1.727-0.141-2.603c0.08-0.043,0.18-0.074,0.3-0.092c0.479-0.166,0.74-0.282,0.777-0.348l4.193-7.396
		c0.559-0.207,1.022-0.203,1.394,0.01l-1.093,1.891l4.504,2.603l5.462-9.448c0.638-0.25,1.182-0.289,1.631-0.119l-6.044,10.174
		l4.133,2.389l0.92-1.591c0.28-0.104,0.766-0.089,1.455,0.045c-1.573,2.628-3.704,6.22-6.39,10.771
		c-0.082-0.048-0.303-0.662-0.664-1.843l-3.824-2.211l-3.335,5.769c-0.634-0.897-1.016-1.516-1.147-1.857
		c0.118-0.11,0.355-0.238,0.714-0.383l0.478-0.256L46.82,129.109z M47.165,128.513l3.679-6.366l-4.503-2.603l-3.681,6.365
		L47.165,128.513z M48.214,129.118l3.454,1.997c0.497,0.375,0.935,0.143,1.312-0.701l3.047-5.271l-4.134-2.39L48.214,129.118z"/>
	<path fill="#FF0000" d="M21.32,108.726l18.618-13.269c0.656,0.006,1.167,0.199,1.529,0.583c-5.588,3.904-8.884,6.207-9.89,6.909
		l-1.412,0.986c0.753-0.526-2.624,1.862-10.131,7.164c-0.025-1.373-0.019-2.102,0.016-2.184c0.063-0.044,0.198-0.051,0.405-0.022
		C20.969,108.826,21.258,108.769,21.32,108.726z M24.618,112.245L40.63,101.06c0.684,0.043,1.135,0.222,1.353,0.532
		c-1.443,1.008-2.638,1.842-3.579,2.5c-2.725,1.848-4.687,3.188-5.879,4.021c-1.131,0.789-4.176,2.916-9.136,6.382
		c0.003-1.335,0.021-2.044,0.056-2.126c0.064-0.044,0.243-0.053,0.54-0.029C24.436,112.314,24.646,112.283,24.618,112.245z
		 M49.545,107l-0.16,0.373c-3.718-1.576-10.861,1.706-21.433,9.844c-0.814,0.57-1.695,1.185-2.636,1.843
		c-0.024-1.374-0.033-2.121-0.026-2.243c0.127-0.088,0.397-0.103,0.811-0.044l0.311,0.044c8.979-6.273,14.363-9.6,16.152-9.98
		C44.478,106.367,46.806,106.424,49.545,107z M28.342,108.948l-0.311-0.044c0.908-1.909,1.642-3.203,2.194-3.88
		c1.239-0.634,2.009-0.736,2.307-0.309c0.055,0.079-0.138,0.271-0.577,0.578C30.503,106.425,29.3,107.643,28.342,108.948z
		 M31.157,112.979l-0.256-0.168c0.916-2.031,1.599-3.261,2.047-3.689c1.346-0.883,2.208-1.051,2.589-0.506
		c0.02,0.16-0.254,0.438-0.819,0.833C33.238,110.541,32.053,111.717,31.157,112.979z M32.944,116.338l-0.123-0.175
		c2.429-2.276,4.264-3.528,5.504-3.759c0.909-0.171,1.438-0.018,1.582,0.459c0.021,0.565-0.377,0.932-1.196,1.098l-0.229,0.073
		C37.077,114.029,35.232,114.798,32.944,116.338z"/>
	<path fill="#FF0000" d="M18.645,81.312l1.058-1.155c0.938,0.393,1.429,1.289,1.473,2.686c-0.029,1.022-0.531,1.632-1.509,1.826
		c-0.591,0.167-1.412,0.355-2.466,0.564c-0.523,0.105-1.086,0.219-1.689,0.338c-0.676,0.135-1.317,0.24-1.929,0.312l0.475,2.377
		c0.075,0.373,0.408,0.475,0.999,0.309c3.164-0.583,5.356-0.754,6.576-0.514c1.521,0.181,3.026,0.873,4.515,2.077l-0.324,0.138
		c-2.248-1.488-6.016-1.584-11.302-0.286c-0.452,0.091-0.902,0.181-1.353,0.271l0.438-1.324l-0.558-2.795
		c-0.488-0.096-0.976-0.191-1.464-0.288c0.105-0.263,0.575-0.842,1.411-1.735c0.075-0.016,0.25,0.072,0.52,0.26
		c0.357,0.219,0.573,0.32,0.648,0.307c0.761-0.104,1.442-0.216,2.042-0.335c0.676-0.135,1.202-0.24,1.577-0.315
		c0.891-0.227,1.371-0.37,1.436-0.432C19.933,82.871,19.741,82.109,18.645,81.312z M12.763,95.275l0.989-2.087
		c0.076-0.015,0.166,0.039,0.267,0.165c0.376,0.312,0.639,0.453,0.788,0.424l4.507-0.9l-0.237-1.188l-1.844-0.432l1.875-1.755
		l0.24,0.024l0.642,3.215l4.506-0.899l-2.389-1.993l0.324-0.138l3.191,1.905c7.287-1.455,11.191-2.234,11.718-2.34
		c0.723,0.099,1.439,0.562,2.151,1.387c0.009,0.048-0.062,0.086-0.212,0.115c-1.117,0.272-1.775,1.082-1.976,2.429l-0.337,0.067
		c0.047-1.317-0.091-2.209-0.418-2.678c-0.161-0.016-1.515,0.23-4.07,0.74c-1.276,0.255-3.041,0.607-5.295,1.058
		c0.977,0.581,1.77,1.027,2.377,1.342c0.619,0.361,0.891,0.549,0.815,0.563c-0.564,0.694-1.067,1.11-1.509,1.246
		c-0.524-0.67-1.611-1.615-3.261-2.836l-5.407,1.08l0.433,2.166l0.478,0.631l-0.944,0.552l-0.642-3.214L12.763,95.275z
		 M33.969,77.089l0.226-0.045c0.167,0.839,0.78,1.37,1.841,1.595l0.238,0.023c-0.781,1.562-1.904,3.168-3.372,4.816
		c2.99,1.681,5.08,3.539,6.268,5.578l-0.436,0.16c-2.277-2.402-4.592-4.024-6.946-4.862c-1.699,1.261-4.011,2.4-6.932,3.419
		l0.436,0.422l-0.986,0.343l-0.977-4.892c-0.009-0.046-0.259-0.117-0.746-0.215c-0.488-0.096-0.735-0.167-0.745-0.215
		c0.884-1.049,1.433-1.617,1.648-1.709c0.077-0.016,0.123,0.024,0.141,0.117c0.292,0.281,0.635,0.431,1.028,0.448
		c3.022,0.269,5.312,0.587,6.868,0.954C33.159,81.441,33.974,79.462,33.969,77.089z M23.849,83.324l0.811,4.053
		c2.187-0.775,4.189-1.901,6.003-3.379C29.011,83.554,26.741,83.328,23.849,83.324z"/>
	<path fill="#FF0000" d="M10.949,70.294l-0.194-0.188c0.564-1.14,1.183-1.807,1.852-2.001c1.193-0.077,1.953,0.211,2.28,0.866
		c-0.03,0.139-0.291,0.253-0.78,0.339C12.667,69.431,11.616,69.76,10.949,70.294z M14.788,64.061l1.3-5.916
		c0.011-0.045-0.215-0.267-0.678-0.66c-0.256-0.25-0.418-0.407-0.484-0.471c1.272-0.79,2.142-1.183,2.611-1.177
		c0.141,0.08,0.188,0.213,0.148,0.397c-0.108,0.852,0.57,2.047,2.035,3.584l-0.27,0.16c-0.204-0.142-0.471-0.347-0.807-0.615
		c-1.276-0.961-1.899-1.341-1.866-1.14l-0.949,4.315c0.753-0.564,1.298-0.905,1.638-1.025c0.213,0.096,0.334,0.268,0.358,0.516
		c3.975-0.245,6.255-2.055,6.839-5.428l0.336,0.074c0.021,0.979,0.449,1.704,1.285,2.18c-1.363,2.279-4.129,3.446-8.298,3.502
		c3.538,1.751,5.565,4.118,6.085,7.101l0.541-0.319l1.453-6.612c0.01-0.046-0.193-0.188-0.612-0.427
		c-0.277-0.158-0.412-0.26-0.402-0.308c0.222-0.29,0.809-0.648,1.764-1.071c0.151,0.033,0.27,0.206,0.357,0.517l0.194,0.188
		l5.85,1.213c0.367,0.471,0.539,0.945,0.51,1.426l-7.068-1.554l-1.452,6.611c0.034,0.203,0.162,0.328,0.387,0.377l6.605,1.524
		c0.347,0.563,0.483,1.007,0.412,1.332l-8.368-2.058c0.038,0.544,0.124,1.22,0.26,2.027c-0.031,0.139-0.052,0.233-0.062,0.278
		l-0.463-0.029c-0.391-4.998-3.123-8.273-8.193-9.826l-0.381,1.74c1.957,1.451,3.386,2.617,4.289,3.496l-0.285,0.229
		c-2.546-1.97-5.233-3.485-8.059-4.544c0.907-0.918,1.404-1.394,1.488-1.424c0.15,0.033,0.3,0.238,0.454,0.611
		c0.11,0.219,0.197,0.36,0.26,0.422c0.204,0.143,0.408,0.285,0.612,0.426C14.44,63.864,14.649,63.982,14.788,64.061z M12.601,65.988
		l0.271-0.16c2.856,1.99,4.839,3.325,5.942,4.005c0.193,0.188,1.008,0.417,2.438,0.682c0.824,0.181,1.311,0.288,1.46,0.321
		c0.592,0.52,0.354,0.88-0.71,1.084c-0.159,0.014-0.561-0.124-1.203-0.411c-0.931-0.397-1.632-0.602-2.101-0.607
		c-0.33,0.074-0.764,0.441-1.302,1.101l-0.433-0.169c0.075,0.017,0.123-0.021,0.143-0.114c0.448-0.971,0.565-1.505,0.351-1.601
		C16.414,69.16,14.794,67.783,12.601,65.988z M37.13,76.412l-0.465-0.029c-0.501-3.076-1.331-5.181-2.494-6.312
		c-1.217-1.24-3.658-2.263-7.325-3.068c0.674-0.922,1.181-1.443,1.521-1.563c0.064,0.063,0.125,0.15,0.178,0.258
		c0.144,0.421,0.478,0.689,1,0.804C34.686,67.729,37.212,71.031,37.13,76.412z M33.308,67.036l-0.336-0.074
		c1.143-1.985,2.32-3.6,3.533-4.841c1.242-0.651,2.348-0.506,3.316,0.437c-0.021,0.094-0.238,0.191-0.653,0.294
		C37.128,63.571,35.175,64.966,33.308,67.036z"/>
	<path fill="#FF0000" d="M18.73,41.984l2.039-0.93c0.1,0.127,0.252,0.579,0.458,1.356l3.78,2.614l0.648-0.938l-0.877-1.56
		l2.523,0.187l0.096,0.065l-1.823,2.638l4.536,3.136l-0.041-3.579l0.5,0.085l0.769,4.343l7.844,5.422
		c1.232,0.911,1.772,1.948,1.619,3.112c-0.026,0.039-0.147,0.014-0.364-0.079c-0.999-0.574-1.979-0.502-2.943,0.218l-0.284-0.196
		c1.44-1.141,1.801-1.931,1.082-2.371l-6.898-4.77c0.188,1.344,0.376,2.283,0.566,2.817c0.062,0.449,0.062,0.65-0.001,0.606
		c-0.261,0.109-0.899-0.044-1.918-0.459c-0.026,0.039-0.03-0.224-0.012-0.789c0.127-1.125,0.141-2.155,0.041-3.09l-5.104-3.528
		l-0.973,1.406l-0.337,0.894l-0.918-0.288l1.661-2.404L18.73,41.984z M42.938,45.553l-2.361-1.633l-2.756,3.986l2.037,1.496
		c0.154,0.453,0.158,0.918,0.014,1.396c-7.505-5.304-13.072-9.239-16.699-11.806l2.04-0.322l2.268-3.283
		c0.027-0.038-0.13-0.349-0.472-0.933c-0.232-0.335-0.338-0.521-0.311-0.561c0.063,0.043,0.243,0.053,0.54,0.026
		c0.855-0.158,1.464-0.229,1.823-0.212c0.127,0.087,0.222,0.355,0.284,0.802l0.161,0.372c4.536,3.136,8.991,6.188,13.365,9.154
		c0.035,0.083,0.072,0.166,0.107,0.248C43.087,44.935,43.073,45.357,42.938,45.553z M26.656,40.014l4.496,3.195l2.715-3.927
		l-5.576-3.854l-2.269,3.282C25.636,39.135,25.846,39.57,26.656,40.014z M34.434,39.673l-2.756,3.986l5.536,3.913l2.796-4.045
		L34.434,39.673z M44.965,45.048l2.511,0.003l0.096,0.065l-6.201,8.968c-0.054,0.079-0.171,0.314-0.352,0.71l-0.81-0.04l5.552-8.03
		L44.965,45.048z"/>
	<path fill="#FF0000" d="M50.564,31.597l-2.789,1.722l-0.546,0.472l-0.665-0.534l4.669-2.883l-2.174-3.519l-1.879,1.161l0.482,0.782
		c-0.325,0.741-0.566,1.116-0.729,1.125c-0.604-0.977-2.455-4.109-5.553-9.398c0.605,0.078,1.15,0.146,1.635,0.206l4.243-2.621
		c0.04,0.065,0.021-0.147-0.059-0.639c-0.04-0.425-0.041-0.65,0-0.676c0.484,0.062,1.149,0.325,1.997,0.792
		c0.041,0.156,0.02,0.394-0.062,0.714l-0.061,0.307l4.045,6.415c-0.084,0.591-0.285,0.986-0.608,1.186l-0.664-1.076l-1.88,1.161
		l2.174,3.52l3.031-1.872l-0.239-1.743l2.42,1.071l0.061,0.098L52.989,30.1c2.418,2.739,5.361,3.98,8.834,3.726l0.121,0.196
		c-0.607,0.465-0.95,0.993-1.032,1.583l0.061,0.098c-2.785-0.44-5.566-2.232-8.347-5.377l-0.121,0.076l6.036,9.774
		c-0.122,0.434-0.404,0.834-0.85,1.2l-5.734-9.827c0.838,5.153,0.709,9.015-0.385,11.58l0.542,0.88
		c-0.164,0.46-0.405,0.835-0.729,1.125c-1.247-2.2-4.265-7.267-9.054-15.203c0.521,2.831,0.799,5.09,0.835,6.776l-0.182-0.023
		c-1.038-5.929-2.643-11.24-4.814-15.931c1.373,0.052,2.119,0.132,2.24,0.236c0.082,0.131,0.061,0.233-0.061,0.308
		c-0.163,0.371-0.143,0.81,0.058,1.315c0.442,1.529,0.902,3.18,1.384,4.952c0.646,0.143,1.028,0.222,1.149,0.235
		c0.041,0.066,0.041,0.156,0,0.27c-0.122,0.436-0.042,0.836,0.24,1.202c0.28,0.457,0.884,1.479,1.811,3.068
		c2.455,4.066,4.567,7.487,6.338,10.262C51.981,39.95,51.727,36.28,50.564,31.597z M47.804,18.584l-4.305,2.658
		c-0.324,0.199-0.323,0.471-0.001,0.811l3.319,5.376l4.669-2.883L47.804,18.584z"/>
	<path fill="#FF0000" d="M67.651,14.079l6.062-0.906l0.67-2.271l2.026,2.47l0.017,0.118l-8.879,1.328
		c-0.259,1.486-0.588,3.143-0.985,4.971l5.638-0.844c0.046-0.007,0.175-0.427,0.386-1.264c0.07-0.171,0.124-0.299,0.159-0.385
		c0.435,0.338,1.022,0.893,1.762,1.666c0.024,0.159-0.063,0.372-0.263,0.643c-0.154,0.265-0.217,0.476-0.195,0.632
		c0.812,5.425,1.486,9.785,2.028,13.08c0.093,0.307,0.147,0.5,0.159,0.58c0.047,0.958-0.452,1.795-1.497,2.515
		c-0.048,0.007-0.083-0.069-0.106-0.227c-0.225-1.171-1.074-1.888-2.555-2.149l0.018-0.364c1.351,0.039,2.143,0.042,2.379,0.006
		c0.282-0.042,0.393-0.26,0.335-0.652l-0.652-4.364l-6.062,0.907l0.952,6.368c-0.177,0.428-0.553,0.807-1.128,1.134l-2.011-14.892
		c-0.846,2.7-2.12,5.261-3.822,7.685l-0.245-0.204c2.219-4.431,3.697-9.313,4.438-14.65l-5.004,0.749l-0.934,0.5l-0.512-1.009
		l6.555-0.979c0.163-1.472,0.286-3.218,0.369-5.24c1.257,0.698,1.92,1.12,1.991,1.27c-0.035,0.086-0.117,0.18-0.246,0.278
		c-0.247,0.278-0.377,0.538-0.389,0.781c-0.07,0.173-0.122,0.461-0.158,0.868C67.915,12.634,67.816,13.252,67.651,14.079z
		 M66.878,21.429l0.459,3.066l6.061-0.907l-0.6-4.009l-5.356,0.8C66.866,20.387,66.679,20.735,66.878,21.429z M73.485,24.179
		l-6.062,0.906l0.565,3.774l6.061-0.906L73.485,24.179z"/>
	<path fill="#FF0000" d="M89.441,11.749l2.055,0.592c-0.021,0.074,0.155-0.114,0.534-0.562c0.309-0.39,0.486-0.577,0.533-0.564
		c0.264,0.793,0.494,1.538,0.69,2.232c-0.021,0.074-0.134,0.122-0.338,0.142c-0.359,0.216-0.549,0.361-0.57,0.434
		c-0.31,0.389-0.83,1.076-1.559,2.061c-1.107,1.435-1.913,2.517-2.421,3.248c1.042,2.213,1.345,4.334,0.909,6.36
		c-0.695,2.75-1.916,4.152-3.662,4.205c-0.046-0.013-0.047-0.092-0.004-0.24c0.139-0.996-0.06-1.851-0.596-2.564l0.132-0.201
		c-0.021,0.075-0.009,0.118,0.038,0.131c0.805,0.633,1.364,0.833,1.679,0.604c1.679-1.189,2.032-3.957,1.062-8.303l3.519-6.279
		l-2.055-0.593c-0.365-0.105-0.566,0.076-0.602,0.544l-6.277,21.745c-0.447,0.349-0.931,0.568-1.45,0.658l7.429-25.479
		C88.676,10.292,88.994,10.901,89.441,11.749z M96.635,26.141l0.256-0.883l-3.08-0.889c-0.347,2.052-0.413,3.907-0.198,5.562
		c1.165-0.779,2.65-1.985,4.456-3.616c0.194,0.695,0.39,1.389,0.586,2.082c-0.021,0.074-0.112,0.129-0.27,0.161
		c-0.229-0.065-0.511-0.027-0.849,0.114c-0.947,0.366-1.846,0.744-2.7,1.134c-0.564,0.237-0.98,0.396-1.25,0.477
		c0.415,2.672,1.662,4.945,3.742,6.819l-0.032,0.11c-0.821-0.237-1.543-0.047-2.167,0.571c-0.066,0.059-0.11,0.126-0.132,0.201
		c-2.295-3.532-2.826-8.11-1.599-13.734l-1.437-0.415l-3.123,10.817l3.544-1.488l0.01,0.481c-3.025,1.916-4.627,3.008-4.803,3.277
		l-0.132,0.201c-0.217-0.622-0.387-1.229-0.513-1.822c0.021-0.074,0.065-0.142,0.132-0.201c0.472-0.264,0.762-0.578,0.867-0.945
		l6.467-22.407l0.426,0.84c0.261,0.634,0.426,0.921,0.493,0.859l4.312,1.245c0.046,0.014,0.356-0.375,0.931-1.166
		c0.023,0.087,0.377,0.748,1.06,1.98c-0.02,0.073-0.212,0.219-0.569,0.433c-0.38,0.29-0.548,0.439-0.502,0.453
		c-0.74,2.736-1.588,5.84-2.539,9.312C97.484,26.027,97.021,26.174,96.635,26.141z M98.323,20.291l-4.929-1.423l-1.242,4.305
		l4.93,1.423L98.323,20.291z M99.727,15.435l-4.382-1.266c-0.411-0.118-0.669,0.088-0.771,0.615l-0.988,3.422l4.929,1.422
		L99.727,15.435z"/>
	<path fill="#FF0000" d="M101.028,39.904l6.909,5.625c0.91-2.446,1.459-4.398,1.645-5.854l0.312-0.035
		c0.035,2.148-0.15,4.261-0.554,6.336c-0.684,2.037-1.641,2.931-2.868,2.686c-0.108-0.093,0.059-0.505,0.498-1.238
		c0.341-0.615,0.6-1.101,0.777-1.452c-5.638-3.426-8.531-5.05-8.681-4.876l-0.236-0.052c0.359-1.004,0.679-1.739,0.954-2.208
		l0.108,0.093c0.434,0.372,1.195,0.321,2.292-0.153c4.185-1.959,7.713-4.028,10.585-6.207c0.116,1.614,0.125,2.479,0.025,2.595
		c-0.087,0.028-0.165,0.01-0.237-0.051c-0.34-0.189-0.756-0.143-1.247,0.141C108.635,36.692,105.207,38.243,101.028,39.904z
		 M103.188,31.916l0.062-0.4c4.982-1.576,9.797-4.158,14.438-7.744c0.025,0.628,0.027,1.135,0.01,1.521
		c0.098,0.689,0.121,1.064,0.071,1.121c-0.087,0.027-0.209,0.024-0.366-0.011c-0.475-0.104-0.848-0.07-1.118,0.099
		C111.408,29.485,107.044,31.289,103.188,31.916z M118.499,40.665l-0.279,0.215c-0.786-0.471-1.563-0.585-2.337-0.34
		c-0.525-3.983,1.224-8.941,5.251-14.872c0.042,0.24,0.112,0.451,0.207,0.632c0.351,0.906,0.463,1.357,0.343,1.353
		c-0.051,0.059-0.224,0.112-0.517,0.163c-0.381,0.078-0.577,0.162-0.59,0.25C117.611,32.688,116.919,36.887,118.499,40.665z"/>
	<path fill="#FF0000" d="M125.555,53.407l-6.352,3.225c-0.492-0.127-0.9-0.349-1.228-0.665l1.854-0.917l-2.086-4.215l-2.883,1.428
		c-0.664-0.307-1.051-0.567-1.156-0.78l11.151-5.441l-0.635,1.825l1.896,3.832c0.021,0.042,0.259,0.003,0.713-0.114
		c0.476-0.077,0.758-0.11,0.847-0.102c-0.322,0.902-0.615,1.604-0.88,2.106c-0.068,0.034-0.294,0.013-0.672-0.064
		C125.723,53.404,125.532,53.365,125.555,53.407z M116.177,58.289l0.413-0.203c0.769,2.587,1.373,3.639,1.817,3.154
		c7.392-3.713,13.549-6.814,18.469-9.303l-4.616-9.324l-0.489-0.473l0.53-0.74l4.964,10.026c-0.069,0.034,0.189,0.038,0.776,0.014
		c0.562-0.068,0.857-0.081,0.879-0.038c-0.138,0.757-0.468,1.477-0.983,2.157c-0.069,0.034-0.259-0.005-0.57-0.116
		c-0.381-0.078-0.604-0.098-0.672-0.065c-11.902,5.999-18.015,9.104-18.336,9.316c-1.16,0.416-2.287,0.125-3.379-0.87
		C116.326,61.264,116.726,60.085,116.177,58.289z M125.595,52.195l-1.96-3.959c-0.105-0.213-0.286-0.229-0.538-0.052l-4.736,2.345
		l2.088,4.215L125.595,52.195z M132.665,50.682l-1.323,2.246l-0.103,0.051l-4.585-9.26l-0.562-0.358l0.635-0.791l3.982,8.046
		L132.665,50.682z"/>
</g>
</svg>
