<?xml version="1.0" encoding="utf-8"?>
<!-- Generator: Adobe Illustrator 16.0.0, SVG Export Plug-In . SVG Version: 6.00 Build 0)  -->
<!DOCTYPE svg PUBLIC "-//W3C//DTD SVG 1.1//EN" "http://www.w3.org/Graphics/SVG/1.1/DTD/svg11.dtd">
<svg version="1.1" id="图层_1" xmlns="http://www.w3.org/2000/svg" xmlns:xlink="http://www.w3.org/1999/xlink" x="0px" y="0px"
	 width="154px" height="154px" viewBox="0 0 154 154" enable-background="new 0 0 154 154" xml:space="preserve">
<g>
	<circle fill="none" stroke="#FF0000" stroke-width="3.5" stroke-miterlimit="10" cx="77" cy="76.745" r="74.744"/>
	<polygon fill="#FF0000" points="87.303,101.399 74.844,86.655 57.705,94.028 66.545,78.108 55.806,63.964 72.842,67.608 
		82.682,52.46 84.754,70.339 101.883,74.438 86.029,82.13 	"/>
	<g>
		<path fill="#FF0000" d="M13.145,100.648l1.346-2.484l0.246-0.029l4.694,10.297l0.662,0.592l-0.849,0.713l-4.173-9.152
			L13.145,100.648z M19.704,95.301l1.592-2.514l0.108-0.049l3.773,8.277l0.898-2.035c0.146-0.064,0.257-0.008,0.338,0.172
			c0.237,0.326,0.611,0.48,1.125,0.463c3.379-0.023,6.593,0.164,9.644,0.562l0.415,0.055c0.156,0.146-0.433-1.049-1.765-3.586
			c-1.145-2.131-2.117-3.885-2.917-5.254c-1.841,1.488-3.554,3.355-5.141,5.596l-0.416-0.055c1.394-2.857,2.861-5.07,4.404-6.641
			c1.411-1.295,2.634-1.66,3.669-1.105c0.194,0.238-0.146,0.637-1.019,1.197c-0.411,0.242-0.715,0.436-0.91,0.578
			c4.566,6.969,6.651,9.92,6.252,8.854l0.108-0.049l-1.698,1.994c0.02,0.045,0.01,0.023-0.031-0.066
			c-0.511-0.742-2.026-1.109-4.542-1.1c-2.826,0.096-5.58,0.348-8.26,0.756l2.485,5.453l0.77,0.543l-0.897,0.896L21.83,95.389
			L19.704,95.301z"/>
		<path fill="#FF0000" d="M9.357,77.618l2.729,0.02l-0.112-5.62l-1.681-0.928l2.221-1.672l0.119-0.003l0.166,8.282l4.035-0.007
			l-0.099-4.954c0.079-0.002-0.16-0.096-0.718-0.282c-0.477-0.187-0.718-0.306-0.718-0.355c1.013-0.809,1.714-1.341,2.104-1.596
			c0.079-0.002,0.28,0.118,0.6,0.358c0.323,0.289,0.483,0.41,0.482,0.359c4.032-0.08,7.157-0.143,9.37-0.188
			c3.32-0.114,5.138-0.151,5.456-0.108c0.873,0.18,1.637,0.83,2.293,1.951c-0.078,0.051-0.158,0.077-0.236,0.078
			c-1.107,0.072-1.962,0.779-2.568,2.123l-0.355,0.008c0.137-0.989,0.241-1.707,0.313-2.152c-0.009-0.492-0.094-0.762-0.254-0.809
			c-1.663-0.114-6.683-0.014-15.063,0.302l0.069,3.401l1.4-1.138c0.081,0.049,0.202,0.12,0.36,0.215
			c0.164,0.244,0.364,0.437,0.605,0.58c0.24,0.143,0.641,0.333,1.199,0.567c1.12,0.619,1.84,1.024,2.159,1.214l-0.041-1.996
			l-1.32-0.714l1.869-1.517l0.121,0.071l0.089,4.438l3.676-0.073l-0.047-2.366l-1.559-0.856l1.991-1.298l0.239,0.069l0.088,4.437
			l5.813-0.116c0.243,0.291,0.447,0.656,0.615,1.098l-6.405,0.127l0.059,2.959l0.134,0.736l-0.821,0.461l-0.083-4.141l-3.677,0.072
			l0.057,2.885l0.253,0.734l-0.942,0.389l-0.057-2.885c-0.078,0.053-0.314,0.107-0.708,0.164c-1.577,0.229-2.913,0.723-4.005,1.484
			l-0.36-0.215c1.318-1.406,2.447-2.242,3.391-2.508c0.713,0.035,1.271,0.195,1.671,0.484l-0.029-1.48
			c-1.672-0.558-3.582-1.111-5.729-1.661l0.136,6.803c-0.065,0.594,0.334,0.834,1.201,0.717c0.555,0.039,5.894-0.02,16.016-0.174
			c0.403,0.436,0.649,0.875,0.738,1.316c-2.296-0.002-5.417,0.012-9.374,0.041c-3.797,0.027-7.275,0.047-10.44,0.061l1.157-1.43
			l-0.088-4.436l-4.036-0.068l0.139,6.953l0.371,0.732l-1.059,0.465l-0.163-8.135c-2.609,0.053-4.27,0.086-4.982,0.1
			c0.687-1.247,1.071-1.895,1.148-1.947c0.08-0.002,0.279,0.094,0.599,0.284C9.198,77.572,9.358,77.667,9.357,77.618z"/>
		<path fill="#FF0000" d="M11.908,52.587l-0.054-0.182c3.523-0.49,6.974-0.266,10.348,0.672c1.082,0.491,1.696,1.084,1.84,1.781
			c-0.055,0.563-0.643,0.537-1.761-0.074C20.1,53.638,16.641,52.905,11.908,52.587z M12.802,57.656l-0.247-0.339
			c3.855-0.676,6.904-0.721,9.14-0.136c1.065,0.324,1.751,0.841,2.061,1.551c0.146,0.697-0.323,0.8-1.406,0.31
			C19.969,57.972,16.786,57.51,12.802,57.656z M27.87,54.251l1.469-3.635l-1.454-1.784l3.112-0.736l0.082,0.113l-6.041,14.949
			l0.025,1.206l-1.322,0.104l3.907-9.669c-4.082-3.616-7.947-6.615-11.593-8.993c1.305-0.482,2.196-0.788,2.674-0.914
			c0.128,0.105,0.173,0.203,0.135,0.295c-0.091,0.229,0.044,0.523,0.412,0.884C23.065,49.572,25.931,52.298,27.87,54.251z
			 M35.042,69.116l-0.496-0.04c-1.478-3.31-3.854-6.503-7.131-9.583c1.122-0.45,1.966-0.748,2.536-0.891
			c0.128,0.106,0.154,0.25,0.081,0.432c-0.164,0.2-0.229,0.359-0.194,0.48C32.762,63.675,34.497,66.875,35.042,69.116z
			 M29.654,56.169l-0.385-0.315c3.271-1.762,5.963-2.828,8.075-3.198c0.79-0.053,1.706,0.317,2.75,1.11
			c0.678,0.646,0.456,0.877-0.662,0.689C35.89,54.355,32.632,54.926,29.654,56.169z"/>
		<path fill="#FF0000" d="M29.137,30.565l16.021,16.191l1.841-1.82L29.309,27.057c1.669-0.205,2.549-0.296,2.64-0.275
			c0.056,0.057,0.091,0.301,0.103,0.733c0.012,0.434,0.035,0.633,0.07,0.598l12.767,12.903c-2.023-4.007-4.507-8.167-7.459-12.481
			c1.496-0.03,2.406,0.014,2.733,0.133c0.057,0.058,0.034,0.245-0.064,0.565c-0.1,0.322-0.132,0.465-0.097,0.429
			c2.356,4.345,4.139,8.146,5.348,11.398l-0.377,0.04l2.92,2.951l2.787-2.757l-0.486-1.857l2.69,0.51l0.083,0.085L41.295,51.581
			l-0.402,1.065l-1.15-0.531l4.574-4.526L26.627,29.71c1.544-0.191,2.362-0.276,2.452-0.256c0.055,0.057,0.079,0.256,0.07,0.598
			C29.106,30.428,29.102,30.6,29.137,30.565z M28.8,38.743l0.043-0.377c4.26,1.571,7.573,3.412,9.938,5.521
			c0.619,0.835,0.817,1.528,0.6,2.078c-0.26,0.368-0.744,0.125-1.453-0.732C35.758,43.04,32.715,40.876,28.8,38.743z"/>
		<path fill="#FF0000" d="M51.559,13.227l1.908,1.416l0.018,0.248l-7.707,3.036L44.971,18.5l-0.831-0.693l7.226-2.847L51.559,13.227
			z M51.58,16.916l1.692,0.864c0.012,0.167-0.053,0.403-0.195,0.715l-0.12,0.303l1.547,3.725c-0.101,0.55-0.35,0.861-0.745,0.933
			l-0.348-0.884l-3.304,1.301l0.435,1.104c-0.128,0.478-0.416,0.759-0.857,0.848l-2.603-7.008l1.406,0.339l2.89-1.139
			c0.03,0.074,0.08-0.2,0.152-0.824C51.546,17.101,51.563,17.008,51.58,16.916z M55.421,23.436l1.803,0.946l-0.452,1.071
			l4.114,10.238c0.18,0.863-0.024,1.624-0.612,2.281c-0.544-0.977-1.249-1.421-2.116-1.334l-0.131-0.331
			c1.262-0.159,1.83-0.466,1.702-0.926l-1.696-4.305l-2.477,0.976l1.87,4.747c-0.056,0.532-0.267,0.87-0.633,1.015l-2.062-5.436
			l-0.965,0.379l-0.694,0.656l-0.736-0.857l2.615-1.03c-0.137-1.56-0.425-3.231-0.863-5.016l1.579,0.78
			c-0.017,0.093-0.048,0.147-0.094,0.165c-0.155,0.146-0.242,0.395-0.264,0.742c-0.017,0.092-0.016,0.432,0.004,1.018
			c-0.009,0.515-0.016,1.239-0.018,2.176l1.032-0.407l0.247-0.989l1.373,0.86l-2.218-5.629l-5.024,1.979
			c-0.505,0.199-0.61,0.539-0.315,1.017l4.479,11.369c-0.147,0.568-0.382,0.915-0.702,1.042c-2.348-5.961-4.24-10.826-5.672-14.598
			l1.538,0.67l5.298-2.087L55.421,23.436z M51.845,18.597l-2.752,1.085c-0.488,0.107-0.57,0.438-0.247,0.989l1.001,2.538
			l3.303-1.301L51.845,18.597z M51.485,28.175l0.026-0.138c0.707,0.316,1.351,0.742,1.934,1.278
			c0.352,0.626,0.509,1.159,0.472,1.599c-0.147,0.568-0.36,0.568-0.637-0.004c-0.075-0.054-0.142-0.155-0.2-0.304
			C52.714,29.817,52.182,29.005,51.485,28.175z M55.046,10.578l1.929,0.26l0.044,0.11l-0.365,1.292l1.913,4.856l1.514-0.597
			l-0.023-1.266l1.805,0.946l-0.34,1.153l3.374,8.362c-0.056,0.532-0.303,0.843-0.746,0.932l-0.522-1.325l-1.582,0.624l2.783,7.064
			l1.847-1.365c-0.831-1.032-1.426-1.733-1.783-2.104c-0.104-0.128-0.17-0.229-0.199-0.304l0.119-0.303
			c1.751,1.351,2.925,2.377,3.518,3.077c0.398,0.608,0.567,1.307,0.507,2.096c-0.118,0.641-0.376,0.658-0.775,0.05
			c-0.132-0.202-0.257-0.452-0.373-0.745c-0.307-0.644-0.542-1.105-0.703-1.381c-2.222,1.896-3.714,3.418-4.479,4.57l-0.094,0.165
			l-1.176-1.576l2.81-1.745l-2.828-7.175l-1.444,0.569l0.522,1.324c0.036,0.496-0.213,0.808-0.747,0.932
			c-1.768-4.487-3.333-8.461-4.696-11.92l1.717,0.726l1.17-0.461L55.046,10.578z M58.003,18.084l-0.964,0.379
			c-0.442,0.091-0.517,0.375-0.221,0.852l2.696,6.844l1.445-0.569L58.003,18.084z M60.411,17.135l-1.583,0.623l2.958,7.506
			l1.583-0.623L60.411,17.135z"/>
		<path fill="#FF0000" d="M69.604,35.135l-0.058-0.478c3.043-1.089,5.033-2.332,5.964-3.727c1.034-1.469,1.612-4.142,1.736-8.016
			c1.068,0.509,1.698,0.926,1.883,1.247c-0.051,0.078-0.128,0.155-0.229,0.23c-0.402,0.224-0.611,0.614-0.629,1.166
			C77.998,31.01,75.109,34.202,69.604,35.135z M75.567,8.262l0.214,0.244c-1.486,3.275-2.471,5.541-2.955,6.79
			c-0.155,0.232-0.233,1.102-0.231,2.604c-0.028,0.87-0.043,1.383-0.049,1.541c-0.417,0.699-0.83,0.528-1.241-0.515
			c-0.045-0.159,0.018-0.593,0.188-1.3c0.229-1.02,0.303-1.771,0.221-2.248c-0.138-0.319-0.597-0.69-1.372-1.111l0.09-0.473
			c-0.002,0.08,0.045,0.12,0.144,0.124c1.076,0.271,1.644,0.29,1.7,0.054C73.056,12.733,74.153,10.829,75.567,8.262z M70.858,7.4
			l0.156-0.232c1.27,0.357,2.068,0.857,2.394,1.501c0.306,1.196,0.157,2.022-0.449,2.478c-0.148-0.005-0.313-0.247-0.495-0.728
			C72.066,8.981,71.53,7.976,70.858,7.4z M77.95,10.119l6.285,0.2c0.048,0.002,0.23-0.27,0.544-0.813
			c0.206-0.309,0.335-0.503,0.388-0.581c1.049,1.143,1.614,1.951,1.699,2.428c-0.055,0.158-0.182,0.232-0.378,0.226
			c-0.89,0.052-1.98,0.967-3.271,2.745l-0.213-0.244c0.105-0.234,0.264-0.545,0.474-0.936c0.737-1.479,1.005-2.182,0.808-2.11
			l-4.584-0.146c0.719,0.657,1.172,1.146,1.359,1.468c-0.057,0.235-0.211,0.391-0.459,0.461c1.008,3.989,3.288,5.961,6.842,5.916
			l-0.012,0.355c-0.993,0.205-1.652,0.777-1.979,1.717c-2.585-0.952-4.303-3.538-5.154-7.762c-1.112,3.923-3.141,6.429-6.086,7.521
			l0.429,0.488l7.022,0.225c0.049,0.001,0.155-0.232,0.318-0.702c0.107-0.312,0.188-0.469,0.236-0.467
			c0.339,0.17,0.816,0.699,1.431,1.588c-0.006,0.159-0.159,0.312-0.459,0.461l-0.156,0.232l-0.122,6.168
			c-0.41,0.462-0.863,0.726-1.357,0.787l0.238-7.47l-7.023-0.225c-0.2,0.074-0.303,0.229-0.311,0.466l-0.297,6.993
			c-0.508,0.458-0.935,0.682-1.279,0.672l0.504-8.887c-0.547,0.143-1.22,0.358-2.018,0.648c-0.148-0.006-0.247-0.009-0.297-0.01
			l-0.058-0.477c5.025-1.342,7.848-4.735,8.466-10.176l-1.848-0.059c-1.109,2.261-2.026,3.933-2.751,5.017l-0.288-0.247
			c1.524-2.957,2.558-5.973,3.1-9.041c1.111,0.748,1.689,1.163,1.736,1.242c-0.004,0.16-0.184,0.351-0.535,0.577
			c-0.203,0.152-0.33,0.267-0.383,0.344c-0.105,0.233-0.211,0.468-0.317,0.702C78.086,9.727,78.003,9.962,77.95,10.119z
			 M78.441,29.482l0.012-0.356c2.244,0.784,4.115,1.675,5.613,2.672c0.9,1.137,0.963,2.286,0.188,3.448
			c-0.102-0.003-0.242-0.206-0.426-0.607C82.705,32.704,80.91,30.985,78.441,29.482z"/>
		<path fill="#FF0000" d="M101.302,11.21l1.308,1.92c-0.113,0.123-0.548,0.355-1.307,0.699l-2.008,4.3l1.072,0.501l1.439-1.161
			l0.253,2.605l-0.05,0.107l-3.017-1.408l-2.409,5.16l3.652-0.652l-0.001,0.524l-4.304,1.525l-4.167,8.921
			c-0.714,1.412-1.681,2.139-2.897,2.183c-0.044-0.021-0.039-0.149,0.018-0.385c0.411-1.117,0.166-2.105-0.739-2.964l0.151-0.322
			c1.418,1.271,2.289,1.505,2.612,0.696l3.666-7.847c-1.34,0.422-2.269,0.774-2.78,1.059c-0.447,0.141-0.652,0.176-0.621,0.104
			c-0.156-0.247-0.111-0.925,0.133-2.033c-0.043-0.021,0.225-0.069,0.805-0.147c1.172-0.062,2.227-0.225,3.167-0.486l2.71-5.805
			l-1.609-0.751l-0.971-0.191l0.134-0.985l2.747,1.283L101.302,11.21z M102.771,38.477l0.438,2.561l-0.051,0.107l-10.254-4.788
			c-0.09-0.042-0.352-0.122-0.787-0.237l-0.101-0.833l9.181,4.288L102.771,38.477z M101.9,36.499l1.254-2.688l-4.557-2.128
			l-1.172,2.333c-0.436,0.234-0.91,0.316-1.424,0.252c4.105-8.559,7.15-14.903,9.137-19.039l0.689,2.023l3.752,1.752
			c0.044,0.021,0.334-0.191,0.869-0.641c0.303-0.295,0.477-0.433,0.521-0.412c-0.035,0.072-0.014,0.257,0.066,0.555
			c0.312,0.846,0.491,1.453,0.537,1.822c-0.068,0.145-0.326,0.286-0.771,0.426l-0.351,0.229c-2.41,5.16-4.747,10.223-7.013,15.188
			c-0.078,0.051-0.156,0.102-0.234,0.152C102.557,36.543,102.123,36.602,101.9,36.499z M106.417,26.825l-4.557-2.129l-3.028,6.311
			l4.623,2.159L106.417,26.825z M104.705,18.955l-2.477,5.128l4.49,2.097l2.961-6.342l-3.752-1.753
			C105.426,17.763,105.018,18.052,104.705,18.955z"/>
		<path fill="#FF0000" d="M117.139,40.941l-2.264-2.541l-0.58-0.473l0.422-0.773l3.789,4.253l3.189-2.842l-1.525-1.712l-0.709,0.632
			c-0.814-0.201-1.24-0.381-1.279-0.545c0.885-0.789,3.74-3.232,8.562-7.331c0.031,0.632,0.061,1.2,0.09,1.704l3.443,3.866
			c-0.059,0.053,0.154-0.006,0.64-0.173c0.425-0.116,0.655-0.156,0.688-0.119c0.025,0.505-0.122,1.231-0.442,2.178
			c-0.151,0.068-0.397,0.089-0.738,0.063L130.1,37.12l-5.797,5.265c-0.618,0.021-1.057-0.116-1.32-0.411l0.975-0.867l-1.523-1.712
			l-3.189,2.841l2.459,2.761l1.733-0.553l-0.651,2.659l-0.088,0.079l-3.592-4.031c-2.35,2.951-3.078,6.176-2.186,9.674l-0.178,0.158
			c-0.584-0.536-1.184-0.795-1.801-0.773l-0.088,0.079c-0.059-2.92,1.26-6.076,3.957-9.469l-0.098-0.111l-8.859,7.892
			c-0.465-0.048-0.924-0.266-1.378-0.655l8.968-7.591c-5.1,1.769-9.055,2.32-11.869,1.658l-0.797,0.71
			c-0.499-0.085-0.926-0.266-1.28-0.544c2.015-1.662,6.626-5.64,13.839-11.932c-2.79,1.031-5.04,1.716-6.751,2.052l-0.011-0.189
			c5.852-2.109,10.971-4.688,15.354-7.734c0.197,1.41,0.252,2.187,0.168,2.328c-0.119,0.106-0.227,0.103-0.326-0.008
			c-0.406-0.1-0.85-0.002-1.328,0.292c-1.477,0.722-3.074,1.483-4.793,2.289c-0.026,0.683-0.037,1.089-0.029,1.215
			c-0.06,0.053-0.152,0.069-0.275,0.047c-0.467-0.046-0.859,0.105-1.182,0.459c-0.414,0.368-1.346,1.164-2.795,2.39
			c-3.695,3.226-6.796,5.988-9.301,8.286C108.886,43.867,112.577,42.956,117.139,40.941z M129.895,35.819l-3.494-3.922
			c-0.264-0.295-0.539-0.247-0.828,0.142l-4.871,4.341l3.789,4.253L129.895,35.819z"/>
		<path fill="#FF0000" d="M137.852,55.369l2.018,6.032l2.354,0.306l-2.05,2.478l-0.111,0.038l-2.956-8.838
			c-1.507-0.017-3.196-0.075-5.064-0.178l1.878,5.611c0.015,0.046,0.453,0.108,1.312,0.185c0.18,0.043,0.316,0.076,0.408,0.098
			c-0.252,0.499-0.686,1.191-1.307,2.075c-0.152,0.05-0.379-0.005-0.68-0.162c-0.288-0.112-0.509-0.143-0.657-0.093
			c-5.175,1.73-9.331,3.146-12.466,4.247c-0.283,0.146-0.463,0.233-0.539,0.259c-0.932,0.207-1.846-0.162-2.747-1.108
			c-0.016-0.048,0.052-0.096,0.202-0.146c1.109-0.423,1.653-1.411,1.635-2.964l0.361-0.043c0.213,1.384,0.358,2.193,0.438,2.428
			c0.094,0.28,0.328,0.357,0.702,0.232l4.163-1.393l-2.018-6.032l-6.075,2.032c-0.454-0.109-0.895-0.43-1.323-0.961l14.246-4.532
			c-2.807-0.413-5.559-1.286-8.256-2.619l0.154-0.286c4.764,1.526,9.831,2.223,15.209,2.088l-1.666-4.98l-0.666-0.869l0.895-0.689
			l2.184,6.523c1.475-0.078,3.212-0.243,5.213-0.496c-0.451,1.399-0.742,2.146-0.876,2.244c-0.092-0.022-0.198-0.09-0.319-0.206
			c-0.318-0.206-0.598-0.295-0.838-0.265c-0.184-0.045-0.477-0.05-0.883-0.019C139.319,55.397,138.694,55.399,137.852,55.369z
			 M129.021,63.002l-2.018-6.033l-3.601,1.205l2.018,6.032L129.021,63.002z M130.49,55.803l-2.925,0.979l2.019,6.032l3.826-1.279
			l-1.785-5.331C131.512,55.618,131.135,55.484,130.49,55.803z"/>
		<path fill="#FF0000" d="M131.751,86.285l0.946,0.078l0.281-3.314c-2.15,0.064-4.043,0.375-5.676,0.932
			c1.025,1.025,2.545,2.291,4.561,3.797c-0.664,0.34-1.328,0.68-1.99,1.021c-0.08-0.008-0.153-0.088-0.218-0.242
			c0.021-0.246-0.075-0.525-0.287-0.84c-0.561-0.891-1.124-1.729-1.692-2.518c-0.354-0.525-0.598-0.918-0.733-1.176
			c-2.623,0.965-4.675,2.697-6.153,5.195l-0.119-0.01c0.075-0.885-0.262-1.58-1.014-2.09c-0.072-0.055-0.151-0.086-0.23-0.094
			c3.115-3.053,7.645-4.525,13.589-4.42l0.13-1.547l-11.584-0.979l2.221,3.305l-0.486,0.107c-2.549-2.689-3.979-4.096-4.286-4.221
			l-0.229-0.094c0.586-0.348,1.166-0.645,1.74-0.893c0.082,0.006,0.158,0.037,0.23,0.094c0.363,0.426,0.739,0.656,1.133,0.689
			l23.998,2.025l-0.766,0.604c-0.59,0.395-0.846,0.621-0.771,0.678l-0.393,4.643c-0.003,0.049,0.453,0.285,1.37,0.709
			c-0.083,0.043-0.681,0.537-1.792,1.482c-0.08-0.006-0.264-0.172-0.553-0.492c-0.371-0.328-0.557-0.469-0.561-0.418
			c-2.921-0.199-6.235-0.428-9.943-0.691C132.038,87.125,131.797,86.684,131.751,86.285z M144.88,76.036l-0.187,2.21
			c-0.081-0.006,0.146,0.137,0.678,0.43c0.456,0.234,0.682,0.379,0.678,0.428c-0.75,0.432-1.458,0.816-2.121,1.158
			c-0.08-0.008-0.15-0.113-0.212-0.316c-0.291-0.32-0.476-0.484-0.554-0.492c-0.456-0.236-1.256-0.625-2.402-1.166
			c-1.676-0.835-2.936-1.436-3.775-1.804c-2.031,1.511-4.119,2.251-6.259,2.218c-2.927-0.148-4.591-1.106-4.997-2.872
			c0.004-0.05,0.084-0.066,0.242-0.054c1.037-0.061,1.863-0.437,2.477-1.127l0.23,0.094c-0.08-0.007-0.12,0.015-0.125,0.063
			c-0.478,0.95-0.568,1.56-0.273,1.833c1.543,1.466,4.418,1.264,8.623-0.608l7.069,2.303l0.187-2.21
			c0.033-0.394-0.191-0.562-0.672-0.502l-23.289-1.966c-0.443-0.384-0.763-0.833-0.957-1.343l27.301,2.379
			C146.201,74.959,145.646,75.407,144.88,76.036z M138.018,86.814l0.447-5.307l-4.61-0.391l-0.448,5.307L138.018,86.814z
			 M143.219,87.252l0.398-4.717c0.035-0.441-0.224-0.662-0.779-0.658l-3.664-0.311l-0.447,5.307L143.219,87.252z"/>
		<path fill="#FF0000" d="M118.963,92.854l-4.137,8.271c2.674,0.363,4.768,0.473,6.279,0.328l0.104,0.307
			c-2.161,0.525-4.335,0.82-6.521,0.885c-2.207-0.227-3.324-0.988-3.351-2.287c0.068-0.131,0.522-0.057,1.36,0.223
			c0.697,0.203,1.244,0.354,1.641,0.453c2.198-6.484,3.191-9.781,2.982-9.893v-0.25c1.093,0.135,1.906,0.289,2.441,0.461
			l-0.069,0.131c-0.278,0.523-0.058,1.281,0.665,2.283c2.912,3.783,5.789,6.881,8.629,9.287c-1.604,0.488-2.475,0.693-2.613,0.619
			c-0.049-0.08-0.047-0.164-0.002-0.25c0.116-0.387-0.025-0.797-0.42-1.23C123.904,99.814,121.572,96.701,118.963,92.854z
			 M122.096,110.695l-0.279-0.232c0.3-0.902,0.242-1.715-0.179-2.441c3.904-1.441,9.299-0.803,16.185,1.916
			c-0.232,0.098-0.431,0.217-0.592,0.355c-0.836,0.559-1.266,0.777-1.289,0.652c-0.07-0.037-0.163-0.197-0.279-0.482
			c-0.164-0.367-0.293-0.549-0.385-0.541C129.949,107.977,125.557,108.236,122.096,110.695z M127.509,93.215l0.418-0.029
			c2.704,4.68,6.384,8.959,11.042,12.836c-0.629,0.168-1.141,0.287-1.535,0.355c-0.673,0.256-1.047,0.365-1.115,0.328
			c-0.047-0.08-0.072-0.205-0.07-0.373c0-0.502-0.119-0.873-0.35-1.107C131.798,100.975,129.002,96.971,127.509,93.215z"/>
		<path fill="#FF0000" d="M103.602,112.508l0.296,0.371c-2.451,1.355-3.384,2.201-2.795,2.543c5.38,6.635,9.87,12.158,13.468,16.572
			l8.428-6.752l0.371-0.602l0.865,0.369l-9.062,7.262c-0.049-0.062,0.004,0.199,0.157,0.787c0.192,0.555,0.269,0.848,0.23,0.879
			c-0.796,0.031-1.597-0.141-2.398-0.51c-0.051-0.062-0.052-0.262-0.009-0.602c-0.005-0.402-0.033-0.633-0.082-0.693
			c-8.682-10.678-13.167-16.156-13.451-16.434c-0.676-1.078-0.629-2.283,0.14-3.609
			C100.622,113.324,101.902,113.465,103.602,112.508z M110.6,120.887l-4.658-5.693c0.022-0.527,0.157-0.988,0.404-1.389l1.335,1.666
			l3.81-3.053l-2.076-2.592c0.165-0.74,0.344-1.188,0.536-1.342l7.954,10.045l-1.988-0.232l-3.461,2.775
			c-0.039,0.031,0.052,0.262,0.271,0.695c0.18,0.463,0.276,0.738,0.287,0.832c-0.982-0.125-1.758-0.264-2.324-0.418
			c-0.049-0.062-0.078-0.293-0.082-0.693C110.64,121.055,110.638,120.855,110.6,120.887z M111.836,120.656l3.578-2.869
			c0.193-0.154,0.17-0.34-0.066-0.555l-3.412-4.258l-3.809,3.053L111.836,120.656z M114.918,127.459l-2.564-0.834l-0.074-0.092
			l8.369-6.707l0.24-0.646l0.939,0.463l-7.272,5.826L114.918,127.459z"/>
	</g>
	<g>
		<path fill="#FF0000" d="M24.679,118.836l0.508,0.48c-0.193,0.246-0.286,0.491-0.275,0.735c0.011,0.244,0.106,0.464,0.284,0.661
			c0.215,0.236,0.479,0.363,0.79,0.38c0.312,0.017,0.603-0.097,0.871-0.34c0.256-0.232,0.386-0.494,0.391-0.786
			c0.005-0.291-0.108-0.565-0.34-0.82c-0.144-0.158-0.305-0.271-0.487-0.34c-0.181-0.068-0.356-0.091-0.527-0.068l-0.364-0.513
			l2.227-1.312l1.806,1.993l-0.428,0.389l-1.449-1.6l-1.178,0.674c0.371,0.102,0.676,0.286,0.915,0.55
			c0.317,0.351,0.476,0.745,0.472,1.186c-0.002,0.441-0.178,0.819-0.524,1.134c-0.331,0.299-0.712,0.452-1.145,0.459
			c-0.529,0.012-0.995-0.205-1.397-0.65c-0.332-0.364-0.508-0.746-0.531-1.146S24.402,119.147,24.679,118.836z"/>
		<path fill="#FF0000" d="M29.505,123.904l0.544,0.389c-0.176,0.305-0.248,0.574-0.214,0.81c0.033,0.235,0.146,0.442,0.341,0.62
			c0.229,0.211,0.491,0.316,0.783,0.316c0.291,0,0.536-0.108,0.733-0.322c0.187-0.205,0.269-0.442,0.245-0.709
			c-0.025-0.268-0.151-0.506-0.379-0.714c-0.091-0.084-0.222-0.173-0.39-0.267l0.412-0.342c0.031,0.033,0.054,0.059,0.074,0.077
			c0.209,0.191,0.443,0.313,0.7,0.367c0.258,0.054,0.481-0.022,0.671-0.229c0.149-0.164,0.212-0.354,0.19-0.573
			c-0.023-0.219-0.132-0.417-0.324-0.592c-0.191-0.175-0.399-0.267-0.626-0.272c-0.227-0.008-0.458,0.081-0.694,0.266l-0.417-0.527
			c0.333-0.244,0.683-0.352,1.044-0.322c0.363,0.03,0.703,0.189,1.018,0.479c0.218,0.199,0.379,0.425,0.485,0.678
			c0.104,0.253,0.139,0.497,0.101,0.733c-0.039,0.236-0.134,0.438-0.284,0.603c-0.144,0.157-0.322,0.257-0.532,0.302
			c-0.211,0.044-0.442,0.021-0.692-0.069c0.19,0.266,0.278,0.537,0.267,0.812c-0.013,0.275-0.126,0.53-0.341,0.765
			c-0.292,0.318-0.666,0.471-1.12,0.459c-0.457-0.012-0.878-0.195-1.267-0.552c-0.35-0.32-0.553-0.681-0.611-1.084
			C29.167,124.604,29.26,124.236,29.505,123.904z"/>
		<path fill="#FF0000" d="M35.452,127.614c0.353-0.464,0.688-0.798,1.008-1.001c0.32-0.203,0.642-0.303,0.964-0.3
			c0.324,0.004,0.642,0.124,0.957,0.363c0.229,0.175,0.401,0.372,0.51,0.589c0.11,0.217,0.161,0.449,0.153,0.694
			c-0.006,0.246-0.066,0.509-0.176,0.787c-0.108,0.278-0.311,0.612-0.608,1.001c-0.349,0.461-0.683,0.793-1.003,0.996
			c-0.318,0.204-0.64,0.305-0.963,0.303c-0.324-0.003-0.644-0.124-0.96-0.363c-0.415-0.316-0.638-0.699-0.668-1.15
			C34.63,128.99,34.891,128.351,35.452,127.614z M35.995,128.027c-0.49,0.644-0.733,1.135-0.729,1.475
			c0.004,0.339,0.126,0.601,0.369,0.785s0.529,0.232,0.856,0.145c0.329-0.089,0.738-0.454,1.225-1.097
			c0.491-0.646,0.734-1.138,0.731-1.476c-0.005-0.338-0.13-0.602-0.378-0.789c-0.242-0.184-0.507-0.238-0.794-0.161
			C36.912,127.011,36.485,127.383,35.995,128.027z"/>
		<path fill="#FF0000" d="M41.874,135.041l-0.564-0.35l2.031-3.277c-0.209,0.033-0.461,0.041-0.754,0.022
			c-0.294-0.019-0.547-0.053-0.76-0.103l0.309-0.497c0.399,0.06,0.777,0.067,1.132,0.021s0.638-0.129,0.849-0.249l0.364,0.226
			L41.874,135.041z"/>
		<path fill="#FF0000" d="M46.987,135.156c0.256-0.523,0.521-0.916,0.795-1.178c0.274-0.262,0.57-0.421,0.889-0.48
			c0.317-0.06,0.652-0.003,1.006,0.17c0.261,0.128,0.467,0.287,0.616,0.479c0.149,0.192,0.246,0.409,0.285,0.652
			c0.041,0.243,0.034,0.512-0.019,0.806c-0.053,0.295-0.188,0.661-0.402,1.101c-0.254,0.52-0.517,0.91-0.791,1.172
			c-0.272,0.262-0.568,0.424-0.887,0.483c-0.317,0.061-0.654,0.004-1.011-0.171c-0.468-0.229-0.762-0.562-0.879-0.998
			C46.447,136.666,46.582,135.988,46.987,135.156z M47.6,135.456c-0.354,0.728-0.498,1.257-0.429,1.588
			c0.069,0.332,0.241,0.565,0.515,0.699s0.563,0.126,0.868-0.025c0.304-0.15,0.634-0.588,0.989-1.312
			c0.357-0.729,0.5-1.259,0.429-1.59c-0.069-0.331-0.244-0.564-0.522-0.7c-0.273-0.135-0.544-0.135-0.812-0.004
			C48.302,134.281,47.956,134.729,47.6,135.456z"/>
		<path fill="#FF0000" d="M53.255,138.028c0.199-0.548,0.422-0.966,0.667-1.254c0.246-0.289,0.524-0.479,0.833-0.571
			c0.31-0.092,0.65-0.07,1.02,0.063c0.273,0.101,0.494,0.236,0.663,0.412c0.17,0.175,0.287,0.381,0.353,0.618
			c0.065,0.237,0.087,0.506,0.064,0.804c-0.022,0.298-0.117,0.677-0.285,1.136c-0.197,0.543-0.419,0.96-0.663,1.249
			c-0.245,0.289-0.521,0.48-0.832,0.573c-0.31,0.094-0.651,0.072-1.023-0.063c-0.49-0.179-0.817-0.479-0.979-0.901
			C52.877,139.587,52.939,138.898,53.255,138.028z M53.896,138.262c-0.276,0.761-0.364,1.302-0.26,1.625
			c0.104,0.322,0.298,0.536,0.584,0.641c0.287,0.105,0.574,0.066,0.861-0.115c0.288-0.182,0.57-0.651,0.846-1.409
			c0.278-0.762,0.366-1.305,0.262-1.626c-0.104-0.322-0.301-0.535-0.593-0.643c-0.286-0.104-0.556-0.076-0.808,0.082
			C54.471,137.021,54.173,137.502,53.896,138.262z"/>
		<path fill="#FF0000" d="M59.788,140.221c0.14-0.566,0.315-1.006,0.528-1.319c0.213-0.313,0.468-0.532,0.767-0.658
			c0.297-0.125,0.637-0.141,1.02-0.046c0.282,0.069,0.516,0.182,0.703,0.338c0.187,0.155,0.327,0.348,0.417,0.576
			c0.09,0.229,0.142,0.493,0.151,0.792c0.01,0.3-0.044,0.687-0.161,1.16c-0.138,0.562-0.313,0.999-0.525,1.313
			c-0.211,0.313-0.467,0.533-0.765,0.66c-0.298,0.125-0.64,0.141-1.024,0.047c-0.507-0.125-0.864-0.389-1.072-0.791
			C59.579,141.81,59.566,141.119,59.788,140.221z M60.45,140.383c-0.193,0.786-0.22,1.334-0.083,1.644
			c0.139,0.311,0.355,0.501,0.652,0.574c0.296,0.073,0.577,0.004,0.843-0.208c0.267-0.211,0.496-0.709,0.688-1.492
			c0.194-0.787,0.222-1.336,0.085-1.645c-0.139-0.309-0.358-0.5-0.66-0.574c-0.296-0.072-0.56-0.017-0.793,0.168
			C60.887,139.087,60.644,139.599,60.45,140.383z"/>
		<path fill="#FF0000" d="M68.694,144.435l-0.659-0.088l0.509-3.822c-0.178,0.116-0.403,0.227-0.678,0.33
			c-0.276,0.104-0.521,0.177-0.735,0.218l0.077-0.58c0.389-0.108,0.736-0.257,1.042-0.444s0.53-0.38,0.672-0.575l0.424,0.057
			L68.694,144.435z"/>
		<path fill="#FF0000" d="M76.828,144.363l-0.015,0.581l-3.574-0.091c0-0.146,0.028-0.285,0.088-0.419
			c0.097-0.219,0.248-0.434,0.454-0.644c0.206-0.21,0.501-0.451,0.887-0.724c0.6-0.425,1.004-0.763,1.218-1.014
			c0.213-0.251,0.322-0.491,0.328-0.72c0.006-0.239-0.083-0.445-0.267-0.614s-0.427-0.258-0.729-0.266
			c-0.32-0.008-0.578,0.073-0.775,0.243c-0.195,0.17-0.299,0.409-0.31,0.719l-0.681-0.082c0.058-0.463,0.243-0.811,0.554-1.047
			c0.312-0.235,0.724-0.347,1.238-0.333c0.519,0.013,0.927,0.155,1.223,0.425c0.295,0.27,0.438,0.599,0.428,0.986
			c-0.005,0.197-0.055,0.39-0.148,0.577c-0.093,0.188-0.245,0.386-0.456,0.591s-0.56,0.485-1.045,0.841
			c-0.407,0.295-0.668,0.495-0.784,0.601c-0.115,0.105-0.212,0.213-0.288,0.32L76.828,144.363z"/>
		<path fill="#FF0000" d="M80.468,143.708l0.633-0.103c0.075,0.269,0.192,0.459,0.354,0.57c0.161,0.111,0.36,0.157,0.6,0.14
			c0.203-0.017,0.378-0.072,0.525-0.169c0.146-0.096,0.264-0.22,0.352-0.369c0.087-0.149,0.153-0.347,0.201-0.594
			c0.048-0.246,0.062-0.494,0.044-0.745c-0.003-0.026-0.007-0.067-0.014-0.12c-0.117,0.202-0.287,0.372-0.507,0.509
			c-0.22,0.138-0.464,0.216-0.731,0.237c-0.446,0.033-0.835-0.085-1.168-0.356c-0.33-0.271-0.516-0.648-0.553-1.131
			c-0.037-0.498,0.093-0.912,0.393-1.24c0.299-0.329,0.692-0.512,1.178-0.549c0.351-0.027,0.677,0.034,0.981,0.185
			c0.305,0.149,0.543,0.378,0.719,0.685c0.175,0.307,0.286,0.763,0.332,1.365c0.048,0.628,0.011,1.134-0.11,1.518
			c-0.12,0.384-0.322,0.684-0.602,0.901c-0.28,0.217-0.62,0.34-1.018,0.371c-0.422,0.031-0.774-0.049-1.058-0.241
			C80.734,144.378,80.552,144.09,80.468,143.708z M83.013,141.332c-0.026-0.347-0.147-0.614-0.365-0.802
			c-0.219-0.188-0.47-0.271-0.754-0.249c-0.296,0.022-0.543,0.151-0.744,0.387c-0.202,0.236-0.289,0.529-0.263,0.877
			c0.025,0.312,0.147,0.56,0.37,0.739c0.222,0.18,0.484,0.258,0.789,0.234c0.308-0.023,0.552-0.141,0.733-0.351
			C82.962,141.956,83.04,141.678,83.013,141.332z"/>
		<path fill="#FF0000" d="M87.316,142.864l0.678-0.172c0.104,0.296,0.261,0.505,0.474,0.626s0.449,0.159,0.711,0.114
			c0.314-0.055,0.562-0.209,0.743-0.463c0.181-0.255,0.24-0.56,0.179-0.918c-0.059-0.341-0.21-0.591-0.454-0.751
			s-0.534-0.211-0.874-0.151c-0.212,0.035-0.395,0.113-0.549,0.229c-0.155,0.116-0.268,0.253-0.342,0.408l-0.627,0.033l0.086-2.583
			l2.649-0.46l0.1,0.57l-2.127,0.369L87.9,141.07c0.285-0.258,0.604-0.418,0.955-0.479c0.465-0.08,0.883-0.002,1.254,0.237
			c0.371,0.238,0.597,0.588,0.677,1.05c0.075,0.438,0.002,0.844-0.226,1.212c-0.272,0.452-0.705,0.729-1.297,0.832
			c-0.484,0.085-0.902,0.028-1.252-0.165C87.663,143.563,87.431,143.266,87.316,142.864z"/>
		<path fill="#FF0000" d="M94.311,141.642l0.604-0.215c0.121,0.251,0.271,0.416,0.451,0.497c0.179,0.08,0.383,0.09,0.614,0.029
			c0.196-0.053,0.359-0.14,0.487-0.262c0.126-0.121,0.219-0.264,0.278-0.426c0.058-0.163,0.089-0.37,0.092-0.621
			c0.002-0.251-0.029-0.498-0.093-0.74c-0.007-0.026-0.019-0.064-0.035-0.117c-0.078,0.222-0.214,0.418-0.406,0.593
			s-0.418,0.297-0.677,0.365c-0.433,0.114-0.836,0.068-1.212-0.14c-0.375-0.205-0.624-0.543-0.748-1.012
			c-0.128-0.482-0.074-0.913,0.161-1.291c0.234-0.377,0.588-0.627,1.059-0.752c0.34-0.09,0.673-0.089,0.999,0.004
			c0.325,0.092,0.603,0.273,0.83,0.543c0.228,0.271,0.42,0.698,0.574,1.283c0.161,0.609,0.217,1.113,0.166,1.512
			c-0.049,0.399-0.192,0.731-0.429,0.996c-0.237,0.264-0.549,0.447-0.934,0.549c-0.41,0.107-0.771,0.093-1.085-0.046
			S94.463,142.004,94.311,141.642z M96.385,138.845c-0.089-0.336-0.257-0.576-0.505-0.722s-0.511-0.182-0.787-0.109
			c-0.285,0.076-0.505,0.247-0.661,0.516c-0.155,0.269-0.188,0.571-0.099,0.91c0.079,0.303,0.245,0.523,0.496,0.659
			c0.25,0.137,0.523,0.166,0.818,0.089c0.298-0.079,0.517-0.238,0.659-0.479C96.447,139.469,96.474,139.181,96.385,138.845z"/>
		<path fill="#FF0000" d="M103.355,136.168l-0.608,0.263c-0.135-0.204-0.271-0.339-0.408-0.405
			c-0.227-0.104-0.464-0.112-0.713-0.025c-0.199,0.07-0.356,0.182-0.473,0.337c-0.15,0.2-0.24,0.446-0.266,0.737
			c-0.025,0.292,0.041,0.671,0.2,1.138c0.077-0.262,0.207-0.481,0.39-0.66c0.183-0.178,0.394-0.309,0.633-0.392
			c0.418-0.146,0.822-0.132,1.215,0.046c0.392,0.178,0.666,0.488,0.82,0.933c0.103,0.292,0.129,0.588,0.078,0.887
			s-0.174,0.557-0.368,0.774c-0.195,0.219-0.445,0.381-0.752,0.488c-0.521,0.183-1.01,0.157-1.462-0.078
			c-0.452-0.234-0.818-0.753-1.101-1.557c-0.314-0.899-0.36-1.617-0.139-2.153c0.192-0.467,0.559-0.795,1.098-0.982
			c0.401-0.141,0.768-0.153,1.095-0.038C102.924,135.595,103.177,135.824,103.355,136.168z M101.496,139.069
			c0.07,0.197,0.182,0.369,0.336,0.517c0.155,0.148,0.331,0.24,0.529,0.276c0.197,0.036,0.387,0.023,0.568-0.04
			c0.264-0.093,0.457-0.27,0.58-0.531c0.122-0.261,0.125-0.559,0.008-0.893c-0.113-0.322-0.296-0.543-0.549-0.661
			c-0.253-0.12-0.521-0.13-0.808-0.029c-0.283,0.099-0.491,0.276-0.623,0.53S101.392,138.77,101.496,139.069z"/>
	</g>
</g>
</svg>
