<?xml version="1.0" encoding="utf-8"?>
<!-- Generator: Adobe Illustrator 14.0.0, SVG Export Plug-In . SVG Version: 6.00 Build 43363)  -->
<!DOCTYPE svg PUBLIC "-//W3C//DTD SVG 1.1//EN" "http://www.w3.org/Graphics/SVG/1.1/DTD/svg11.dtd">
<svg version="1.1" id="图层_1" xmlns="http://www.w3.org/2000/svg" xmlns:xlink="http://www.w3.org/1999/xlink" x="0px" y="0px"
	 width="154px" height="154px" viewBox="0 0 154 154" enable-background="new 0 0 154 154" xml:space="preserve">
<circle fill="none" stroke="#FF0000" stroke-width="3.5" cx="79.562" cy="77.8" r="74.25"/>
<g>
	<path fill="#FF0000" d="M32.765,118.201l-0.63,1.765l-5.585-5.814c-0.227-0.156-0.673-0.31-1.338-0.46l0.27-1.589l0.521-0.396
		l5.728,6.001C31.959,117.863,32.303,118.027,32.765,118.201z M41.11,114.9c0.127,0.167,0.489,0.352,1.083,0.558l-0.63,1.764
		L31.003,106.61c-0.227-0.156-0.725-0.304-1.49-0.445l0.421-1.604l0.521-0.397L41.11,114.9z M50.264,105.106
		c0.211,0.135,0.687,0.252,1.419,0.351l-1.293,1.973c-0.461-0.174-0.894-0.239-1.3-0.193c-0.402,0.044-1.375,0.21-2.915,0.494
		c-1.537,0.283-3.047,0.645-4.525,1.079c-1.478,0.437-2.464,0.762-2.961,0.974c-0.495,0.214-1.361,0.66-2.599,1.34l1.832-2.777
		c0.532,0.121,1.053,0.119,1.56-0.005c0.509-0.124,1.399-0.359,2.672-0.704c1.274-0.347,3.734-0.789,7.379-1.33l-7.292-5.896
		l0.585-0.743C47.572,103.16,50.051,104.973,50.264,105.106z M41.557,99.946c0.491-1.229,0.831-1.933,1.022-2.113
		c0.192-0.179,0.907-0.607,2.144-1.288l0.238,0.312c-1.868,2.872-3.348,5.68-4.441,8.421l-0.663,0.21
		C40.502,103.021,41.069,101.174,41.557,99.946z"/>
</g>
<g>
	<path fill="#FF0000" d="M17.822,91.813c0.395-0.057,2.962-0.579,7.701-1.57l0.55,0.841l-8.854,1.869
		c-0.541,0.119-1.487,0.444-2.833,0.975l-0.172-0.225l2.111-2.039C16.931,91.823,17.43,91.871,17.822,91.813z M22.475,100.178
		l-4.946-14.109c-0.162-0.37-0.486-0.736-0.974-1.096l0.808-1.313l0.465-0.104l4.982,14.276c0.14,0.261,0.374,0.587,0.704,0.979
		L22.475,100.178z M40.829,81.708l-3.271,3.955l-0.521-0.147l1.309-2.91c-1.158-0.094-2.79,0.064-4.896,0.471
		c-2.104,0.407-5.216,1.036-9.338,1.887l4.339,11.361l-1.163,0.258l-4.111-10.887c-0.125-0.205-0.547-0.461-1.268-0.77l0.807-1.314
		c0.721,0.309,1.272,0.419,1.659,0.334c0.389-0.086,1.438-0.304,3.148-0.652c1.712-0.348,3.853-0.777,6.422-1.287
		C36.516,81.496,38.811,81.398,40.829,81.708z M30.705,88.313l-0.006,0.525c-1.726-0.083-2.971-0.114-3.739-0.091
		c-0.766,0.024-1.459,0.103-2.08,0.24l1.37-1.526c0.462,0.249,0.962,0.4,1.503,0.457C28.294,87.971,29.278,88.104,30.705,88.313z
		 M41.388,94.166c-0.503-0.064-0.935-0.086-1.295-0.064c-0.36,0.023-2.285,0.418-5.773,1.189c-3.487,0.77-5.476,1.238-5.969,1.404
		c-0.491,0.168-1.514,0.598-3.068,1.29l-0.092-0.416l2.184-1.706c9.225-2.039,14.731-3.225,16.527-3.564l0.074,0.334L41.388,94.166z
		 M27.52,93.209l-0.403-0.172c0.603-0.947,1.074-1.576,1.412-1.885c0.339-0.307,0.603-0.496,0.789-0.566
		c0.188-0.071,0.777-0.07,1.769,0.002l0.092,0.416C29.897,91.461,28.679,92.197,27.52,93.209z M29.04,86.846l0.61-1.096l0.313-0.244
		l2.273,5.877c0.049,0.221,0.279,0.521,0.687,0.896l-0.905,1.423l-2.157-5.9C29.735,87.596,29.46,87.277,29.04,86.846z
		 M42.044,87.206l-2.624,1.365c-0.591-0.101-1.08-0.11-1.469-0.024c-0.388,0.086-2.596,0.574-6.627,1.465l-0.202-0.918l7.673-1.694
		l3.176-0.527L42.044,87.206z M33.598,83.742l2.434,7.15c0.151,0.316,0.392,0.672,0.722,1.064l-1.039,1.365l-2.47-7.318
		c-0.125-0.204-0.368-0.559-0.724-1.063l0.631-1.014L33.598,83.742z"/>
</g>
<g>
	<path fill="#FF0000" d="M19.459,73.732c1.62,0.902,3.639,2.37,6.058,4.403L24.959,78.4c-3.019-2.115-5.199-3.52-6.542-4.214
		c-1.342-0.694-2.714-1.307-4.123-1.841c-1.406-0.532-2.537-0.856-3.392-0.973l0.045-0.335l2.957-0.618
		c0.452,0.517,1.087,0.972,1.902,1.366C16.624,72.183,17.841,72.83,19.459,73.732z M39.824,70.891L17.392,67.83
		c-1.195-0.163-2.411-0.186-3.646-0.071l-0.223-0.286l2.456-0.772l23.713,3.236L39.824,70.891z M15.91,67.202l-0.304-4.47
		c-0.054-0.234-0.479-0.633-1.273-1.195l1.547-0.812c0.795,0.563,1.425,0.891,1.891,0.982c0.466,0.093,3.16,0.616,8.077,1.571
		l0.13,0.954l-9.16-1.761l0.246,4.888L15.91,67.202z M16.443,70l1.044-0.965l0.514,0.07l0.327,4.303l-1.259-0.342l0.005-1.958
		C17.028,70.818,16.818,70.449,16.443,70z M19.876,64.934l1.022-0.798l0.396-0.031l0.512,3.901l-1.154-0.157l-0.178-1.557
		C20.35,65.934,20.15,65.481,19.876,64.934z M21.921,71.003l1.185-1.031l0.513,0.07l0.094,4.101
		c-0.038,0.279,0.049,0.603,0.259,0.972l-1.279,0.763l-0.116-3.934C22.53,71.654,22.312,71.341,21.921,71.003z M23.276,72.55
		l13.588,1.854l0.644,1.024L23.15,73.47L23.276,72.55z M25.781,68.549l-0.233-4.034c-0.124-0.358-0.37-0.787-0.738-1.293
		l1.163-0.863l0.513,0.07l0.449,6.277L25.781,68.549z M40.262,60.987l0.513,0.07l-0.037,3.146l-14.446,3.479l-0.166-0.704
		c5.311-1.262,8.858-2.24,10.651-2.932C38.567,63.354,39.731,62.335,40.262,60.987z M32.959,65.696l-0.675,0.163
		c-1.066-1.11-1.979-1.915-2.738-2.417c-0.758-0.5-1.636-0.933-2.631-1.296l0.034-0.25l2.655-0.318
		c0.195,0.481,0.565,0.971,1.105,1.47C31.252,63.547,32.003,64.431,32.959,65.696z M27.245,71.218l1.045-0.964l0.514,0.07
		l0.235,4.971c-0.038,0.28,0.092,0.609,0.388,0.99l-1.442,0.995l-0.143-4.703C27.71,72.275,27.511,71.823,27.245,71.218z
		 M38.963,75.286l-1.931,0.759l-3.546-5.593l0.663-0.08C36.458,73.242,38.063,74.88,38.963,75.286z M41.571,70.533l-1.932,0.759
		l-4.207-4.577l0.419-0.198C38.677,68.776,40.584,70.115,41.571,70.533z"/>
</g>
<g>
	<path fill="#FF0000" d="M45.096,23.224l0.219,0.439l-5.434,3.799c-0.193,0.096-0.41,0.389-0.65,0.874l-1.563-0.598l5.361-3.763
		c0.146-0.072,0.373-0.46,0.687-1.165L45.096,23.224z M42.674,34.172c-0.074-0.511-0.192-0.933-0.356-1.263s-0.414-0.8-0.748-1.413
		c-0.334-0.609-0.896-1.408-1.685-2.389l-0.019-0.402l1.836,1.146c1.032,1.958,1.938,3.841,2.717,5.649l-0.29,0.145L42.674,34.172z
		 M41.759,31.059l-0.492-0.991l2.789-2.209c0.168-0.266,0.281-0.826,0.34-1.68l1.29,0.595c-0.095,0.78-0.069,1.316,0.077,1.609
		c0.146,0.294,0.541,1.151,1.186,2.567l-0.725,0.36l-1.295-2.788L41.759,31.059z M49.79,49.58l-0.29,0.144l-1.692-1.767
		c-0.172-0.829-0.348-1.428-0.53-1.795c-0.183-0.366-0.852-1.682-2.007-3.945c-1.155-2.262-1.807-3.515-1.959-3.762
		c-0.152-0.243-0.713-1.039-1.685-2.388l0.235-0.255l1.746,1.329l5.014,9.725L49.79,49.58z M42.999,33.188l2.591-1.699
		c0.205-0.192,0.481-0.604,0.831-1.237l1.235,0.484l0.219,0.441l-4.456,3.038L42.999,33.188z M52.164,41.261
		c-0.682-1.491-1.751-3.705-3.21-6.641l-5.289,3.728l-0.438-0.881l4.708-3.438c0.29-0.145,0.409-0.752,0.358-1.825l1.526,0.888
		c-0.046,0.758-0.015,1.244,0.094,1.465c0.109,0.219,0.474,0.954,1.094,2.201c0.621,1.248,1.393,2.923,2.317,5.024
		c0.924,2.104,1.484,3.837,1.682,5.203l-0.272-0.002l-3.107-1.887l-0.074-0.513l2.069,0.345
		C53.332,43.975,52.845,42.754,52.164,41.261z M44.986,37.005l-0.019-0.402c1.429,0.936,2.21,1.508,2.344,1.717
		c0.134,0.209,0.268,0.69,0.404,1.447l-0.29,0.144C46.733,38.882,45.919,37.914,44.986,37.005z M50.18,38.542l1.361,0.558
		l0.165,0.33l-3.768,2.422c-0.194,0.097-0.429,0.35-0.706,0.763l-1.435-0.523l3.931-2.639C49.933,39.26,50.083,38.957,50.18,38.542z
		 M57.718,42.07l-9.793-19.704c-0.328-0.66-0.918-1.602-1.767-2.826l0.108-0.329l2.38,1.699c0.123,0.854,0.277,1.465,0.458,1.83
		c0.183,0.369,3.265,6.568,9.246,18.604L57.718,42.07z M47.177,35.229l2,1.478c-0.169,0.633-0.245,1.176-0.232,1.625
		c0.013,0.452-0.014,1.335-0.084,2.65l-0.382-0.224c-0.052-1.436-0.194-2.511-0.425-3.219
		C47.822,36.831,47.531,36.063,47.177,35.229z M51.387,35.333c-0.145-0.292-0.517-0.979-1.112-2.055
		c-0.596-1.078-0.969-1.737-1.121-1.983c-0.152-0.243-0.677-0.968-1.574-2.168l0.234-0.255l1.636,1.109
		c1.98,3.501,3.396,6.228,4.248,8.183l-0.217,0.108l-1.655-1.51C51.679,36.104,51.533,35.627,51.387,35.333z M49.851,45.156
		c-0.099-0.682-0.22-1.171-0.366-1.464c-0.145-0.293-0.602-1.212-1.368-2.753l0.725-0.36c1.021,2.056,2.019,4.123,2.992,6.201
		l-0.29,0.144L49.851,45.156z M53.14,25.403l1.636,1.108c-0.169,0.633-0.197,1.059-0.088,1.279c0.11,0.22,0.857,1.907,2.245,5.062
		l-0.725,0.36l-2.3-5.172l-4.346,3.258l-0.547-1.101l3.894-2.896C53.115,27.111,53.19,26.476,53.14,25.403z M51.805,35.811
		l3.768-2.421c0.157-0.169,0.435-0.58,0.832-1.236l1.308,0.447l0.291,0.404l-5.578,3.871L51.805,35.811z M56.147,44.91l-1.509-1.034
		l5.539-5.225l0.456,0.734C57.701,42.582,56.205,44.421,56.147,44.91z M57.559,36.658l0.053-0.438
		c1.43,0.938,2.394,1.604,2.891,1.996c0.497,0.394,0.857,0.695,1.082,0.903c0.225,0.211,0.429,1.045,0.614,2.509l-0.362,0.18
		C60.525,39.898,59.099,38.181,57.559,36.658z"/>
</g>
<g>
	<path fill="#FF0000" d="M103.537,39.09c-1.698,2.315-2.905,4.001-3.622,5.06l-1.363,0.038c1.879-2.48,3.337-4.426,4.375-5.843
		l6.228-8.49c-2.085,1.142-3.766,1.938-5.044,2.385l0.098-0.374c2.466-1.257,4.917-2.923,7.356-4.992
		c2.438-2.069,4.092-3.576,4.963-4.521l0.368,2.049l-0.889,0.24c-2.309,1.77-4.04,3.121-5.198,4.051l0.153,1.004l-0.771,0.324
		L103.537,39.09z M122.496,31.332c-2.36,3.217-3.873,5.32-4.543,6.313l-1.164-0.113l0.708-0.964l-1.969-1.444l-2.548,3.473
		l3.011,2.208l1.544-0.648l-0.231,2.501l-4.053-2.972c-0.627,1.42-1.109,3.069-1.446,4.948c-0.342,1.878-0.202,3.488,0.416,4.832
		l-0.212,0.29c-0.55-0.303-1.172-0.266-1.865,0.116c0.017-1.965,0.312-3.826,0.888-5.581c0.573-1.754,1.218-3.359,1.931-4.816
		l-0.406-0.298c-3.68,5.017-5.926,8.119-6.736,9.305l-1.362,0.039c1.218-1.581,3.478-4.62,6.781-9.123
		c-2.033,1.476-3.921,2.614-5.665,3.413c-1.743,0.798-3.427,1.293-5.053,1.487l0.096-0.375c1.729-0.415,3.662-1.27,5.804-2.569
		c2.139-1.298,3.702-2.377,4.689-3.238l-2.721-1.995l-0.895-0.36l0.104-1.112l4.631,3.398l2.549-3.474l-1.854-1.359l-0.637,0.868
		l-1.223-0.154c0.981-1.258,2.041-2.659,3.173-4.202c1.133-1.543,2.244-3.102,3.339-4.674l0.36,1.451l4.399,3.227l1.286-0.54
		l-0.051,1.892L122.496,31.332z M117.454,27.039l-4.105,5.596l4.573,3.354l4.104-5.595L117.454,27.039z"/>
</g>
<g>
	<path fill="#FF0000" d="M64.711,15.862c0.416,0.242,0.678,0.433,0.783,0.571c0.107,0.142,0.22,0.799,0.342,1.979l-0.382,0.074
		c-0.799-1.128-1.852-2.209-3.159-3.242l0.063-0.494C63.511,15.251,64.295,15.623,64.711,15.862z M65.14,27.567l-0.459,0.088
		l-2.12-3.2l0.239-0.407l1.633,1.49l1.785-7.2l0.427,0.158L65.14,27.567z M67.835,32.522c-0.066-0.348-0.2-1.043-0.401-2.087
		c-0.2-1.045-0.354-1.776-0.461-2.197c-0.108-0.42-0.43-1.34-0.967-2.762l0.306-0.059l1.327,1.55
		c0.744,3.867,1.272,6.894,1.588,9.076l-0.383,0.074L67.765,33.8C67.878,33.296,67.903,32.871,67.835,32.522z M69.936,13.775
		c-0.363,0.311-0.657,1.05-0.881,2.214c-0.226,1.167-0.788,2.84-1.69,5.017l-0.426-0.158c0.848-2.729,1.331-4.748,1.45-6.054
		c0.119-1.305,0.097-2.383-0.067-3.234l0.306-0.059L69.936,13.775z M71.163,36.635c-0.462,1.451-1.737,3.059-3.827,4.826
		l-0.341-0.537c1.872-1.803,3.017-3.406,3.434-4.81s0.597-2.8,0.541-4.194c-0.058-1.391-0.229-2.701-0.519-3.93l0.284-0.174
		l1.516,2.114c-0.231,0.447-0.354,0.771-0.368,0.973c-0.014,0.204-0.022,0.846-0.025,1.93
		C71.854,33.915,71.623,35.184,71.163,36.635z M67.257,27.042l5.705-2.06c0.255-0.049,0.504-0.537,0.748-1.468l1.087,1.115
		c-0.29,0.697-0.409,1.242-0.36,1.632c0.049,0.393,0.227,1.381,0.53,2.965c0.306,1.587,0.545,3.245,0.72,4.975l-0.307,0.059
		l-1.066-1.84c0.084-0.657,0.091-1.239,0.02-1.749c-0.071-0.506-0.358-2.075-0.864-4.706l-6.011,2.119L67.257,27.042z
		 M69.932,22.196c0.341-1.106,0.521-2.164,0.538-3.172c0.018-1.004-0.047-1.894-0.195-2.668l1.646,1.969
		c-0.275,0.215-0.473,0.773-0.588,1.677c-0.117,0.906-0.38,1.876-0.786,2.918c-0.408,1.04-1.126,2.182-2.156,3.421l-0.317-0.42
		C68.969,24.546,69.59,23.305,69.932,22.196z M70.386,16.938c-0.256,0.049-0.455,0.249-0.6,0.596l-1.139-0.984l4.973-2.161
		c0.188-0.114,0.419-0.562,0.694-1.335l1.305,1.433c-0.333,0.466-0.564,0.911-0.693,1.337c-0.13,0.427-0.447,1.528-0.948,3.309
		l-0.351-0.172l0.4-3.687L70.386,16.938z M75.57,22.676c0.872,0.554,2.172,0.786,3.897,0.695l0.111,0.58l-3.196,1.096L70.8,19.504
		l0.172-0.755C73.165,20.814,74.697,22.123,75.57,22.676z M78.794,38.416l-0.382,0.073c-1.63-1.61-3.53-2.969-5.696-4.077
		l-0.036-0.595c2.027,0.653,3.434,1.165,4.218,1.535c0.784,0.369,1.257,0.639,1.422,0.808C78.484,36.329,78.643,37.08,78.794,38.416
		z"/>
</g>
<polygon fill="#FF0000" points="93.103,102.916 77.859,89.985 61.614,100.446 67.923,82.676 54.539,70.062 72.561,70.874 
	80.02,53.721 85.191,71.626 103.386,72.886 88.508,83.45 "/>
<g>
	<path fill="#FF0000" d="M42.895,56.869c-0.246-0.503-0.5-0.893-0.76-1.167c-0.262-0.272-3.224-2.494-8.889-6.665
		c-5.664-4.169-8.74-6.412-9.225-6.73c-0.486-0.315-1.492-0.834-3.017-1.553l0.173-0.236l3.141,0.128
		c0.39,0.45,0.715,0.81,0.976,1.083c0.262,0.273,6.29,4.751,18.085,13.434l3.083,2.512l-0.231,0.315L42.895,56.869z M23.994,50.719
		l6.287-11.264c0.021-0.307,0.034-0.743,0.037-1.308l1.595-0.281l0.458,0.215l-6.114,11.028c-0.193,0.263-0.344,0.678-0.452,1.244
		L23.994,50.719z M31.055,52.642l-1.751,0.287l4.444-8.131c0.126-0.31,0.198-0.825,0.21-1.543l1.711-0.439l0.3,0.221l-4.619,8.368
		C31.262,51.663,31.164,52.076,31.055,52.642z M32.374,59.436l8.419-14.79c0.051-0.205,0.096-0.616,0.138-1.233l1.495-0.355
		l0.457,0.216l-8.361,14.71c-0.154,0.21-0.287,0.599-0.395,1.165L32.374,59.436z"/>
</g>
<g>
	<path fill="#FF0000" d="M82.341,35.194l0.3-0.436l1.33,2.219c0.245-0.452,0.485-1.079,0.72-1.884l5.792-19.902
		c0.443-1.527,0.698-2.892,0.763-4.096l0.308-0.173l0.689,2.949c-0.383,0.326-0.626,0.668-0.731,1.03
		c-0.105,0.361-2.206,7.58-6.301,21.65c-0.309,0.869-0.767,2.045-1.368,3.527l-0.396-0.115L82.341,35.194z M83.127,28.358
		l-0.644-1.627l9.142-2.18l-0.096,0.625C86.643,26.809,83.843,27.869,83.127,28.358z M85.232,18.765
		c3.989,0.464,6.028,0.688,6.12,0.669c0.091-0.017,0.394-0.124,0.91-0.323l0.828,1.287l-0.184,0.339l-5.826-0.648
		c-0.212-0.062-0.564-0.033-1.057,0.086L85.232,18.765z M85.766,36.714l10.868,1.331c0.264,0.077,0.744,0,1.442-0.234l0.794,1.408
		l-0.184,0.339l-11.186-1.423c-0.212-0.062-0.564-0.033-1.057,0.085L85.766,36.714z M90.118,32.093
		c0.345-0.597,0.57-1.032,0.68-1.307c0.108-0.273,0.73-2.556,1.865-6.85c1.134-4.292,1.743-6.579,1.825-6.861
		c0.082-0.28,0.21-1.313,0.384-3.094l0.396,0.115l0.215,2.81c-2.622,9.792-4.314,15.711-5.081,17.755l-0.237-0.069L90.118,32.093z
		 M91.031,31.313l4.797,0.349c0.21,0.061,0.665-0.023,1.364-0.257l0.581,0.954l-0.176,0.603l-6.882-0.563L91.031,31.313z
		 M97.934,24.424l-0.061,0.506l-5.113-0.441l0.316-1.086l2.948,0.204c0.263,0.077,0.612-0.038,1.047-0.35L97.934,24.424z
		 M95.007,16.769l5.588,0.579c0.264,0.077,0.735-0.265,1.416-1.026l0.644,1.626c-0.732,0.748-1.134,1.24-1.204,1.481
		s-1.557,4.563-4.46,12.963l-0.941-0.012l4.706-13.808l-6.064-0.718L95.007,16.769z"/>
</g>
<g>
	<path fill="#FF0000" d="M118.6,52.664c3.604-1.779,5.52-2.724,5.745-2.835s0.789-0.481,1.693-1.111l0.295,0.313l-0.46,1.057
		l-12.505,6.17l-3.903,1.741l-0.146-0.296l2.037-1.833c0.699-0.102,1.18-0.214,1.442-0.344
		C113.06,55.396,114.994,54.442,118.6,52.664z M116.626,62.009l12.167-6.003l-4.043-5.641l1.014-0.5l3.861,5.271
		c0.195,0.209,0.742,0.368,1.637,0.479l-0.801,1.5c-0.92-0.161-1.53-0.166-1.829-0.018c-0.302,0.148-4.433,2.187-12.394,6.113
		c-1.225,0.543-2.375,0.957-3.449,1.243l2.219-4.59l0.486-0.148l-0.631,2.979C115.438,62.533,116.024,62.306,116.626,62.009z
		 M126.748,48.597c3.438-0.132,5.892-0.362,7.364-0.689c1.472-0.327,2.822-0.763,4.049-1.307l0.146,0.296l-2.229,2.295
		c-0.495-0.246-1.299-0.264-2.407-0.053c-1.111,0.209-3.465,0.359-7.063,0.449c-3.599,0.087-7.37-0.459-11.314-1.641l0.454-0.499
		C119.643,48.346,123.312,48.729,126.748,48.597z M118.444,53.201l2.056,3.032c0.296,0.223,0.716,0.505,1.261,0.85l-0.354,1.556
		l-0.451,0.222l-3.526-5.159L118.444,53.201z M122.049,51.422l2.057,3.033c0.296,0.223,0.667,0.499,1.11,0.832l-0.313,1.35
		l-0.45,0.223l-3.417-4.938L122.049,51.422z M126.311,44.443l0.729-1.647l8.26,12.484c0.171,0.16,0.579,0.419,1.224,0.776
		l-0.539,1.462l-0.451,0.222l-8.187-12.335C127.223,45.157,126.877,44.838,126.311,44.443z"/>
</g>
<g>
	<path fill="#FF0000" d="M115.323,69.183l-0.004-0.322l3.007-0.76c0.588,0.207,1.092,0.31,1.511,0.305
		c0.418-0.005,3.958-0.045,10.615-0.12c6.657-0.076,10.112-0.115,10.363-0.118c0.252-0.003,1.212-0.122,2.885-0.354l0.255,0.239
		l-2.752,0.999L119.22,69.3L115.323,69.183z M116.772,75.051l1.497-0.902l4.567,3.898l-0.626,0.249
		C119.256,76.286,117.445,75.205,116.772,75.051z M121.051,81.212c-1.29,0.821-2.051,1.932-2.286,3.332l-0.628,0.007l-0.288-3.222
		c8.919-3.703,13.587-5.665,14.004-5.885l0.259,0.643C126.025,78.682,122.339,80.392,121.051,81.212z M118.787,75.432l-0.765-0.877
		l23.239-0.264c0.418-0.005,1.297-0.123,2.635-0.353l0.253,0.238L141.9,75.17L118.787,75.432z M131.635,72.867
		c-0.796,0.117-1.738,0.128-2.826,0.032c-1.091-0.096-2.351-0.403-3.779-0.924l3.369-1.974l0.504,0.155l-1.364,1.548
		c0.588,0.207,1.218,0.335,1.89,0.382c0.669,0.045,1.401,0.024,2.197-0.066c0.794-0.089,1.898-0.492,3.316-1.206l5.789,0.902
		l-0.787-2.895l1.131-0.013l0.657,2.573c0.085,0.213,0.55,0.53,1.393,0.952l-1.371,0.902c-0.676-0.369-1.138-0.593-1.39-0.67
		c-0.253-0.078-2.016-0.449-5.289-1.109C133.576,72.281,132.429,72.75,131.635,72.867z M126.607,78.166
		c1.352,1.166,2.346,1.908,2.977,2.223c0.633,0.316,1.408,0.575,2.334,0.78l-0.122,0.324l-2.759,0.516
		c-0.089-0.431-0.366-0.856-0.831-1.281c-0.467-0.426-1.25-1.169-2.35-2.231L126.607,78.166z M133.915,80.018l-1.123,0.658
		l-0.377,0.004l-1.073-5.955l1.257-0.014l0.547,3.945C133.23,78.869,133.486,79.323,133.915,80.018z M141.896,74.767l0.805,4.426
		c0.169,0.212,0.676,0.609,1.521,1.192l-1.624,0.824c-0.677-0.53-1.183-0.78-1.516-0.748c-0.336,0.03-3.061-0.114-8.171-0.432
		l-0.135-0.805l8.798,0.384l-0.808-4.829L141.896,74.767z M137.622,74.573l0.146,1.854c0.085,0.267,0.384,0.64,0.892,1.117
		l-0.991,1.141l-0.503,0.006l-0.673-3.943L137.622,74.573z"/>
</g>
<g>
	<path fill="#FF0000" d="M115.168,96.846c-0.262-0.026-1.102-0.452-2.517-1.272l0.119-0.316c2.671,0.381,5.534,0.498,8.588,0.351
		l0.119,0.405C117.534,96.593,115.432,96.872,115.168,96.846z M115.435,87.821l2.171,0.024c0.127,0.625,1.052,1.67,2.771,3.136
		c1.717,1.464,3.359,2.709,4.929,3.732c1.566,1.023,3.082,1.883,4.547,2.578l-0.072,0.19l-3.148-0.321
		c-0.065-0.313-0.893-1.01-2.483-2.09s-3.939-3.047-7.042-5.898l-1.092,7.234l-0.978-0.297c0.457-4.829,0.649-7.329,0.578-7.5
		C115.543,88.439,115.485,88.176,115.435,87.821z M125.49,101.456c-1.908,0.121-3.22,0.771-3.935,1.944l-0.597-0.226l0.904-3.121
		l17.367,1.277l-0.404,1.074c-0.765-0.385-1.255-0.594-1.468-0.626c-0.215-0.033-1.771-0.125-4.664-0.278
		C129.8,101.349,127.397,101.333,125.49,101.456z M128.633,92.938c-1.275-1.202-2.803-3.053-4.587-5.552l0.692-0.027
		c1.848,2.33,3.514,4.112,5.003,5.348c1.487,1.232,2.831,2.304,4.033,3.214c1.201,0.909,2.358,1.574,3.474,1.994l-0.119,0.316
		l-3.103-0.447c0.017-0.283-0.561-0.861-1.73-1.734C131.126,95.176,129.903,94.138,128.633,92.938z"/>
</g>
<g>
	<path fill="#FF0000" d="M101.494,108.342l0.225-0.205l5.584,1.512l0.135,0.371l-3.664,0.037c0.435,0.703,0.809,1.244,1.117,1.621
		s4.893,5.436,13.752,15.172l5.326-6.332c0.188-0.17,0.34-0.529,0.459-1.076l1.633,0.328l-6.344,7.584
		c-0.148,0.137-0.074,0.67,0.229,1.604l-1.633-0.326c-0.139-0.754-0.357-1.297-0.658-1.625c-0.301-0.332-2.611-2.871-6.93-7.619
		c-4.32-4.746-6.734-7.439-7.244-8.072C102.973,110.678,102.309,109.689,101.494,108.342z M109.621,112.646l3.924-5.053l0.82,0.902
		L111.6,112c-0.078,0.291-0.24,0.713-0.488,1.27l-1.162-0.262L109.621,112.646z M115.641,116.893
		c-0.096,0.195-0.047,0.699,0.146,1.514l-1.356-0.248c-0.138-0.756-0.33-1.266-0.576-1.535c-0.246-0.271-1.378-1.629-3.398-4.076
		l0.617-0.563l3.605,4.301l2.942-4.324l0.82,0.9L115.641,116.893z M118.021,113.078l-3.747-4.006l-2.405-2.756l0.225-0.205
		l2.064,1.254c0.232,0.557,0.523,1.008,0.869,1.352c0.348,0.342,0.967,0.986,1.861,1.932c0.893,0.941,1.418,1.482,1.574,1.615
		c0.154,0.133,0.699,0.602,1.631,1.4l-0.279,0.256L118.021,113.078z M121.264,115.4c0.188-0.172,0.35-0.482,0.484-0.936l1.605,0.186
		l-5.133,6.32c-0.096,0.195-0.238,0.6-0.432,1.217l-1.33-0.107l-0.385-0.311L121.264,115.4z"/>
</g>
<g>
	<path fill="#FF0000" d="M33.851,127.992c-0.249,0.525-0.257,0.925-0.025,1.2c0.231,0.275,0.475,0.432,0.729,0.467
		c0.255,0.037,0.488,0.001,0.701-0.107c0.212-0.107,0.401-0.27,0.567-0.482c0.165-0.215,0.256-0.438,0.272-0.668
		c0.016-0.231-0.036-0.438-0.156-0.619s-0.3-0.332-0.54-0.451c-0.24-0.118-0.497-0.144-0.772-0.074l-0.368-0.389
		c0.112-0.069,0.838-0.629,2.178-1.682l1.895,1.582l-0.36,0.432l-1.535-1.281c-0.441,0.364-0.808,0.642-1.101,0.83
		c0.333,0.089,0.6,0.224,0.801,0.406c0.201,0.181,0.361,0.396,0.48,0.644c0.119,0.248,0.158,0.485,0.119,0.71
		c-0.039,0.227-0.102,0.432-0.189,0.617c-0.087,0.185-0.207,0.361-0.363,0.531c-0.155,0.169-0.341,0.319-0.559,0.449
		c-0.217,0.131-0.44,0.203-0.668,0.216c-0.229,0.013-0.464-0.021-0.708-0.103c-0.244-0.082-0.479-0.23-0.706-0.447
		s-0.381-0.494-0.463-0.835c-0.082-0.34-0.003-0.735,0.237-1.187L33.851,127.992z"/>
</g>
<g>
	<path fill="#FF0000" d="M53.601,136.66c-0.349,0.158-0.762,0.283-1.24,0.371l0.208-0.557c0.612-0.148,1.158-0.389,1.638-0.723
		l0.352,0.133l-1.882,5.033l-0.585-0.219L53.601,136.66z"/>
</g>
<g>
	<path fill="#FF0000" d="M39.042,132.607l0.542,0.176c-0.051,0.279-0.034,0.541,0.051,0.783c0.085,0.244,0.254,0.426,0.509,0.547
		c0.255,0.119,0.506,0.121,0.755,0.004c0.249-0.117,0.428-0.306,0.54-0.564c0.11-0.259,0.114-0.504,0.011-0.733
		c-0.104-0.23-0.335-0.474-0.694-0.73l0.187-0.36c0.408,0.164,0.742,0.209,1.004,0.134c0.262-0.075,0.453-0.252,0.574-0.529
		c0.12-0.277,0.101-0.534-0.058-0.77c-0.16-0.235-0.388-0.372-0.686-0.409c-0.298-0.037-0.63,0.118-0.999,0.467l-0.456-0.342
		c0.284-0.275,0.58-0.474,0.89-0.595s0.64-0.113,0.992,0.022c0.352,0.135,0.622,0.328,0.809,0.578s0.267,0.525,0.239,0.828
		s-0.156,0.582-0.383,0.84c-0.228,0.258-0.575,0.406-1.041,0.445c0.201,0.245,0.313,0.516,0.337,0.809
		c0.023,0.295-0.082,0.609-0.315,0.946c-0.234,0.336-0.546,0.543-0.939,0.621s-0.763,0.021-1.108-0.171
		c-0.347-0.191-0.594-0.461-0.742-0.808C38.909,133.449,38.904,133.053,39.042,132.607z"/>
</g>
<g>
	<path fill="#FF0000" d="M45.905,134.456c0.187-0.52,0.394-0.912,0.621-1.18c0.227-0.267,0.491-0.462,0.792-0.584
		c0.302-0.123,0.626-0.13,0.974-0.02s0.604,0.352,0.771,0.721c0.166,0.37,0.22,0.786,0.161,1.248
		c-0.06,0.462-0.194,0.971-0.404,1.527c-0.209,0.557-0.456,0.987-0.737,1.291c-0.283,0.304-0.615,0.471-0.996,0.503
		c-0.382,0.032-0.715-0.091-0.999-0.366c-0.285-0.275-0.452-0.574-0.502-0.897c-0.051-0.322-0.057-0.646-0.019-0.974
		C45.606,135.399,45.719,134.976,45.905,134.456z M46.588,134.477c-0.233,0.527-0.368,1.019-0.404,1.478
		c-0.037,0.459,0.031,0.814,0.203,1.065c0.171,0.251,0.394,0.359,0.667,0.326c0.272-0.033,0.516-0.196,0.729-0.489
		c0.213-0.293,0.381-0.633,0.504-1.021s0.22-0.745,0.291-1.071c0.072-0.327,0.074-0.645,0.007-0.949
		c-0.067-0.305-0.223-0.502-0.468-0.591s-0.503-0.034-0.773,0.164C47.073,133.586,46.821,133.949,46.588,134.477z"/>
</g>
<g>
	<path fill="#FF0000" d="M58.417,140.23c0.182-0.521,0.386-0.916,0.61-1.186c0.225-0.269,0.487-0.466,0.787-0.591
		c0.301-0.125,0.625-0.135,0.974-0.027c0.348,0.107,0.607,0.346,0.777,0.714s0.227,0.784,0.172,1.246
		c-0.056,0.463-0.186,0.974-0.391,1.531c-0.204,0.559-0.447,0.99-0.727,1.297s-0.61,0.477-0.991,0.512
		c-0.382,0.035-0.716-0.084-1.002-0.357c-0.287-0.273-0.456-0.57-0.51-0.893s-0.063-0.646-0.026-0.974
		C58.126,141.176,58.234,140.752,58.417,140.23z M59.1,140.244c-0.229,0.529-0.359,1.023-0.392,1.482s0.038,0.813,0.212,1.063
		s0.397,0.356,0.67,0.321c0.272-0.036,0.515-0.202,0.726-0.496c0.21-0.295,0.375-0.637,0.495-1.024
		c0.12-0.389,0.214-0.747,0.282-1.074c0.067-0.328,0.067-0.645-0.002-0.949c-0.07-0.305-0.228-0.5-0.473-0.587
		c-0.247-0.087-0.504-0.029-0.772,0.171C59.576,139.351,59.328,139.715,59.1,140.244z"/>
</g>
<g>
	<path fill="#FF0000" d="M65.418,142.004c0.103-0.542,0.245-0.964,0.427-1.263c0.182-0.3,0.413-0.533,0.691-0.701
		c0.278-0.169,0.597-0.227,0.958-0.172c0.359,0.055,0.651,0.252,0.875,0.591c0.223,0.338,0.341,0.741,0.355,1.207
		c0.014,0.465-0.039,0.989-0.158,1.571c-0.119,0.583-0.295,1.047-0.526,1.391c-0.231,0.344-0.533,0.563-0.905,0.653
		s-0.72,0.022-1.043-0.205s-0.536-0.496-0.637-0.807c-0.101-0.311-0.158-0.63-0.171-0.959
		C65.271,142.982,65.315,142.547,65.418,142.004z M66.095,141.917c-0.147,0.558-0.203,1.064-0.166,1.523
		c0.036,0.458,0.158,0.798,0.367,1.02c0.209,0.221,0.446,0.293,0.71,0.217c0.265-0.075,0.479-0.275,0.644-0.598
		c0.164-0.323,0.277-0.685,0.338-1.087c0.061-0.401,0.1-0.77,0.119-1.104c0.019-0.333-0.029-0.646-0.143-0.938
		c-0.114-0.291-0.299-0.461-0.555-0.511c-0.256-0.049-0.502,0.046-0.738,0.284C66.434,140.962,66.243,141.359,66.095,141.917z"/>
</g>
<g>
	<path fill="#FF0000" d="M72.113,142.683c0.046-0.55,0.145-0.984,0.296-1.3c0.149-0.317,0.354-0.574,0.614-0.771
		c0.26-0.195,0.571-0.285,0.936-0.268c0.363,0.017,0.674,0.183,0.931,0.496c0.256,0.314,0.415,0.704,0.478,1.165
		c0.062,0.462,0.063,0.988,0.004,1.579c-0.059,0.593-0.186,1.071-0.38,1.438s-0.473,0.614-0.833,0.743s-0.713,0.097-1.059-0.097
		s-0.585-0.439-0.717-0.737c-0.132-0.299-0.222-0.609-0.269-0.935C72.066,143.671,72.066,143.233,72.113,142.683z M72.777,142.525
		c-0.089,0.57-0.093,1.08-0.01,1.533c0.084,0.452,0.24,0.777,0.471,0.977c0.23,0.197,0.474,0.245,0.729,0.143
		c0.255-0.102,0.447-0.323,0.578-0.661c0.13-0.338,0.205-0.71,0.224-1.116c0.02-0.405,0.021-0.776,0.005-1.109
		c-0.016-0.335-0.095-0.642-0.238-0.918c-0.144-0.278-0.345-0.429-0.604-0.451c-0.26-0.023-0.495,0.097-0.705,0.358
		C73.016,141.54,72.866,141.956,72.777,142.525z"/>
</g>
<g>
	<path fill="#FF0000" d="M80.734,141.573c-0.274,0.268-0.621,0.523-1.04,0.769l0.007-0.594c0.524-0.348,0.957-0.759,1.296-1.234
		l0.375,0.005l-0.065,5.374l-0.625-0.008L80.734,141.573z"/>
</g>
<g>
	<path fill="#FF0000" d="M87.563,141.169c-0.275,0.268-0.622,0.523-1.042,0.768l0.008-0.594c0.525-0.348,0.958-0.758,1.298-1.231
		l0.375,0.005l-0.07,5.374l-0.625-0.009L87.563,141.169z"/>
</g>
<g>
	<path fill="#FF0000" d="M93.46,142.481c-0.06-0.243-0.057-0.496,0.009-0.758c0.065-0.263,0.222-0.499,0.471-0.709
		c-0.276-0.083-0.478-0.201-0.6-0.354c-0.123-0.151-0.216-0.339-0.28-0.559c-0.064-0.221-0.081-0.42-0.049-0.599
		c0.031-0.18,0.101-0.357,0.208-0.533s0.241-0.311,0.401-0.403c0.159-0.092,0.34-0.163,0.543-0.212
		c0.202-0.049,0.39-0.074,0.562-0.072c0.171,0.002,0.364,0.046,0.579,0.133c0.214,0.088,0.391,0.243,0.531,0.467
		c0.139,0.223,0.203,0.508,0.19,0.854s-0.189,0.657-0.529,0.933c0.369,0.019,0.649,0.115,0.843,0.294
		c0.193,0.178,0.327,0.419,0.4,0.723c0.074,0.304,0.088,0.558,0.04,0.762c-0.046,0.205-0.111,0.381-0.192,0.529
		c-0.082,0.148-0.211,0.281-0.386,0.399c-0.176,0.118-0.41,0.212-0.703,0.283c-0.294,0.071-0.556,0.097-0.785,0.077
		c-0.229-0.019-0.433-0.082-0.608-0.189c-0.177-0.106-0.313-0.25-0.41-0.432C93.597,142.936,93.519,142.725,93.46,142.481z
		 M93.606,139.905c0.049,0.202,0.167,0.378,0.353,0.525s0.431,0.185,0.734,0.111s0.51-0.22,0.617-0.438
		c0.107-0.22,0.126-0.454,0.054-0.705c-0.071-0.251-0.208-0.416-0.409-0.496c-0.201-0.079-0.446-0.073-0.735,0.018
		c-0.289,0.092-0.475,0.229-0.56,0.41S93.558,139.703,93.606,139.905z M94.075,142.301c0.049,0.244,0.141,0.447,0.276,0.607
		c0.135,0.16,0.33,0.236,0.585,0.228c0.256-0.009,0.508-0.075,0.756-0.199c0.248-0.125,0.396-0.31,0.443-0.558
		s0.029-0.479-0.056-0.693c-0.084-0.217-0.256-0.373-0.516-0.471s-0.519-0.104-0.777-0.021c-0.258,0.084-0.454,0.228-0.586,0.433
		C94.068,141.83,94.025,142.055,94.075,142.301z"/>
</g>
<g>
	<path fill="#FF0000" d="M101.32,136.963l-2.499,0.989l-0.207-0.522l3.109-1.232l0.195,0.494c-0.328,1.832-0.344,3.543-0.052,5.13
		l-0.64,0.253C100.993,140.465,101.024,138.76,101.32,136.963z"/>
</g>
<g>
	<path fill="#FF0000" d="M106.809,138.374l0.47-0.322c0.189,0.21,0.407,0.356,0.652,0.437c0.244,0.081,0.492,0.059,0.743-0.07
		c0.25-0.129,0.404-0.326,0.463-0.596c0.059-0.269,0.019-0.525-0.119-0.771s-0.329-0.398-0.574-0.456
		c-0.246-0.058-0.58-0.022-1.002,0.105l-0.172-0.368c0.379-0.223,0.617-0.461,0.718-0.715s0.077-0.513-0.069-0.778
		c-0.146-0.265-0.361-0.405-0.646-0.423s-0.531,0.081-0.742,0.295c-0.21,0.213-0.29,0.571-0.239,1.076l-0.549,0.153
		c-0.045-0.393-0.021-0.749,0.07-1.067c0.093-0.319,0.301-0.576,0.623-0.773c0.322-0.196,0.639-0.293,0.951-0.289
		c0.313,0.005,0.579,0.109,0.803,0.316c0.222,0.206,0.366,0.479,0.432,0.815s-0.029,0.703-0.281,1.097
		c0.316-0.01,0.6,0.065,0.847,0.227c0.247,0.16,0.433,0.436,0.558,0.826c0.124,0.39,0.098,0.764-0.08,1.123
		c-0.178,0.358-0.447,0.617-0.811,0.774s-0.728,0.189-1.094,0.096C107.395,138.992,107.077,138.754,106.809,138.374z"/>
</g>
<g>
	<path fill="#FF0000" d="M113.781,130.308l-2.42,1.17l-0.244-0.507l3.011-1.455l0.231,0.479c-0.194,1.852-0.086,3.559,0.321,5.12
		l-0.619,0.299C113.711,133.824,113.617,132.123,113.781,130.308z"/>
</g>
</svg>
