<?xml version="1.0" encoding="utf-8"?>
<!-- Generator: Adobe Illustrator 16.0.0, SVG Export Plug-In . SVG Version: 6.00 Build 0)  -->
<!DOCTYPE svg PUBLIC "-//W3C//DTD SVG 1.1//EN" "http://www.w3.org/Graphics/SVG/1.1/DTD/svg11.dtd">
<svg version="1.1" id="图层_1" xmlns="http://www.w3.org/2000/svg" xmlns:xlink="http://www.w3.org/1999/xlink" x="0px" y="0px"
	 width="154px" height="154px" viewBox="0 0 154 154" enable-background="new 0 0 154 154" xml:space="preserve">
<circle fill="none" stroke="#FF0000" stroke-width="3.5" stroke-miterlimit="10" cx="77" cy="77.001" r="74.864"/>
<polygon fill="#FF0000" points="66.707,99.036 69.909,81.985 55.041,74.23 71.151,71.352 74.908,55.841 82.04,69.779 98.181,68.033 
	86.9,79.627 93.768,93.89 79.408,87.21 "/>
<g>
	<path fill="#FF0000" d="M23.953,107.791l-2.483-4.123c0.063-0.038-0.198-0.049-0.784-0.031c-0.498,0.021-0.759,0.01-0.784-0.031
		c0.29-0.789,0.636-1.559,1.037-2.302c0.088,0.002,0.188,0.026,0.298,0.071c0.486,0.099,0.76,0.129,0.821,0.093l6.888-4.231
		c0.572,0.104,0.969,0.339,1.191,0.709l-1.778,1.069l2.706,4.494l8.89-5.354c0.658,0.106,1.144,0.346,1.453,0.717l-9.713,5.682
		l2.483,4.125l1.497-0.902c0.287,0.052,0.696,0.309,1.229,0.771c-2.519,1.46-5.945,3.468-10.274,6.02
		c-0.049-0.082,0.035-0.721,0.251-1.913l-2.298-3.816l-5.427,3.269c-0.145-1.087-0.198-1.811-0.159-2.17
		c0.151-0.034,0.412-0.023,0.784,0.032l0.523,0.021L23.953,107.791z M24.514,107.452l5.989-3.605l-2.706-4.494l-5.989,3.607
		L24.514,107.452z M25.144,108.499l2.076,3.446c0.26,0.571,0.738,0.591,1.437,0.058l4.959-2.986l-2.483-4.124L25.144,108.499z"/>
	<path fill="#FF0000" d="M9.18,77.33l2.074-1.276c0.077,0.041,0.133,0.253,0.169,0.632c-0.031,0.437-0.041,0.727-0.028,0.869
		c0.009,0.096,0.151,0.443,0.427,1.043c0.114,0.422,0.267,0.889,0.461,1.399c2.22,0.272,3.852,0.504,4.893,0.694l-0.417-4.435
		l-1.706-0.634l1.932-1.625l0.218-0.021l0.444,4.722c2.357-0.607,3.984-2.371,4.878-5.295l0.224,0.052
		c0.054,0.571,0.465,1.038,1.229,1.399l0.115,0.061c-1.261,2.14-3.392,3.592-6.393,4.354l0.142,1.502
		c3.366,0.791,6.24,2.18,8.622,4.168l-0.313,0.174c-2.272-1.614-5.008-2.704-8.208-3.268l0.209,2.217l0.4,0.757l-0.945,0.448
		l-0.33-3.504c-1.78-0.266-3.29-0.387-4.533-0.367c0.39,1.021,0.672,2.078,0.847,3.167l-0.428,0.113
		c-0.984-2.696-2.229-5.033-3.732-7.01C9.269,77.491,9.185,77.378,9.18,77.33z M9.918,88.663l1.028-1.9
		c0.151,0.035,0.342,0.138,0.578,0.307c0.386,0.205,0.65,0.3,0.795,0.286l4.024-0.379l-0.074-0.787L14.8,85.75l1.823-1.615
		l0.115,0.062l0.256,2.719l2.828-0.267c0.618-1.213,1.203-1.99,1.756-2.33c0.861-0.177,1.529-0.071,2.004,0.316
		c0.022,0.238-0.249,0.456-0.816,0.653c-0.915,0.376-1.68,0.809-2.292,1.299l14.355-1.352c0.466,0.293,0.762,0.722,0.889,1.288
		c-2.983,0.185-5.525,0.352-7.633,0.502c-2.102,0.197-4.168,0.392-6.199,0.583c2.755,0.511,5.129,1.249,7.121,2.216l-0.306,0.245
		c-3.551-1.204-7.409-1.779-11.573-1.725l0.135,1.431l0.394,0.685l-0.932,0.593l-0.283-3.004L9.918,88.663z M21.991,78.218
		l0.939-1.676c0.073-0.007,0.187,0.031,0.34,0.112c0.377,0.108,0.602,0.159,0.673,0.152l9.896-0.932
		c0.524,0.145,0.82,0.549,0.883,1.216L21.991,78.218z M35.211,84.622l-0.435,0.041c-1.245-1.566-2.799-2.55-4.667-2.952
		c-1.19-0.224-3.849-0.094-7.973,0.391l1.144-1.841c0.073-0.007,0.15,0.034,0.231,0.123c0.313,0.212,0.542,0.311,0.686,0.296
		c0.078,0.042,0.37,0.038,0.877-0.011c2.614-0.197,4.408-0.197,5.376-0.001C32.181,81.18,33.767,82.496,35.211,84.622z"/>
	<path fill="#FF0000" d="M14.31,54.429l2.165-0.504l0.18,0.144l-2.784,7.549l-0.118,0.952l-0.994,0.169l2.61-7.078L14.31,54.429z
		 M14.702,50.207l1.392-1.246l0.103,0.037l0.649,1.081l4.51,1.663l0.547-1.483l-0.876-0.782l1.78-0.721l0.571,0.975l7.814,2.807
		c0.327,0.376,0.383,0.753,0.165,1.132l-1.23-0.453l-0.572,1.551l6.56,2.419l0.233-2.212c-1.225-0.042-2.077-0.05-2.553-0.021
		c-0.153-0.006-0.264-0.021-0.333-0.047l-0.13-0.277c2.021-0.429,3.458-0.641,4.308-0.633c0.665,0.093,1.246,0.409,1.746,0.95
		c0.361,0.49,0.211,0.689-0.454,0.599c-0.222-0.031-0.47-0.098-0.743-0.197c-0.631-0.181-1.093-0.3-1.382-0.356
		c-0.108,2.819-0.012,4.872,0.291,6.156l0.053,0.173l-1.814-0.133l0.582-3.155l-6.662-2.457l-0.522,1.417l1.23,0.453
		c0.36,0.286,0.416,0.664,0.165,1.133c-4.167-1.537-7.856-2.898-11.069-4.082l1.575-0.798l0.423-1.146L14.702,50.207z
		 M16.835,56.737l1.652-0.692c0.121,0.096,0.241,0.294,0.363,0.594l0.13,0.278l3.51,1.217c0.31,0.421,0.366,0.799,0.164,1.134
		l-0.82-0.303L20.642,62.2l1.025,0.378c0.244,0.396,0.255,0.783,0.037,1.162l-6.407-2.516l1.115-0.814l1.044-2.831
		c0.069,0.025-0.086-0.185-0.466-0.631C16.939,56.879,16.887,56.809,16.835,56.737z M18.146,57.604L17.151,60.3
		c-0.233,0.425-0.061,0.692,0.519,0.804l2.357,0.87l1.193-3.235L18.146,57.604z M23.689,58.04l1.78-0.723l0.444,1.007l9.556,3.447
		c0.702,0.412,1.09,1.041,1.168,1.886c-1.008-0.219-1.753,0.018-2.24,0.706L34.09,64.25c0.687-1.022,0.835-1.632,0.441-1.829
		l-3.997-1.474l-0.895,2.427l4.407,1.625c0.327,0.377,0.424,0.745,0.292,1.104l-4.997-1.919l-0.348,0.943l0.009,0.922l-1.047-0.003
		l0.945-2.562c-1.148-0.883-2.467-1.726-3.957-2.531l1.525-0.662c0.052,0.07,0.069,0.128,0.053,0.173
		c0.002,0.204,0.116,0.424,0.338,0.66c0.052,0.07,0.285,0.283,0.696,0.639c0.343,0.331,0.833,0.794,1.469,1.384l0.373-1.011
		l-0.519-0.804l1.45-0.461l-5.227-1.927l-1.815,4.921c-0.183,0.495-0.017,0.786,0.494,0.871l10.557,3.893
		c0.293,0.466,0.382,0.856,0.267,1.171c-5.534-2.041-10.036-3.727-13.503-5.056l1.422-0.701l1.915-5.19L23.689,58.04z
		 M21.671,52.778l-0.348,0.944c-0.216,0.379-0.069,0.613,0.441,0.698l6.354,2.343l0.522-1.416L21.671,52.778z M22.542,50.418
		L21.97,51.97l6.969,2.57l0.572-1.551L22.542,50.418z M24.437,63.906l-0.078-0.105c0.661-0.317,1.356-0.521,2.087-0.608
		c0.648,0.137,1.11,0.358,1.385,0.664c0.294,0.466,0.16,0.621-0.404,0.464c-0.084,0.02-0.194,0.004-0.332-0.047
		C26.328,64.043,25.441,63.92,24.437,63.906z"/>
	<path fill="#FF0000" d="M24.144,34.72l-0.05-0.257c1.094-0.661,1.965-0.901,2.611-0.719c1.003,0.546,1.453,1.177,1.347,1.892
		c-0.103,0.101-0.376,0.062-0.818-0.117C26.01,34.882,24.98,34.617,24.144,34.72z M27.89,31.975l0.307,0.006
		c1.179,3.125,2.022,5.255,2.528,6.389c0.05,0.257,0.576,0.864,1.577,1.819c0.561,0.573,0.892,0.911,0.993,1.015
		c0.184,0.737-0.208,0.917-1.179,0.541c-0.136-0.069-0.382-0.39-0.737-0.959c-0.524-0.811-0.974-1.34-1.348-1.585
		c-0.306-0.107-0.86-0.023-1.663,0.251l-0.254-0.362c0.051,0.053,0.11,0.045,0.179-0.022c0.906-0.579,1.3-0.965,1.182-1.154
		C29.174,36.577,28.646,34.598,27.89,31.975z M30.731,31.489l4.367-4.269c0.034-0.033-0.023-0.333-0.175-0.899
		c-0.066-0.34-0.108-0.555-0.125-0.641c1.467-0.007,2.386,0.111,2.76,0.356c0.068,0.139,0.032,0.274-0.104,0.407
		c-0.565,0.655-0.691,2-0.376,4.033l-0.307-0.004c-0.084-0.224-0.185-0.531-0.303-0.928c-0.487-1.456-0.774-2.091-0.861-1.907
		l-3.185,3.113c0.921-0.085,1.552-0.09,1.892-0.017c0.118,0.189,0.118,0.396-0.002,0.614c3.333,1.834,6.183,1.494,8.546-1.022
		l0.229,0.234c-0.533,0.826-0.596,1.652-0.19,2.478c-2.375,1.203-5.254,0.759-8.638-1.333c1.861,3.275,2.162,6.289,0.905,9.045
		l0.614,0.011l4.88-4.771c0.034-0.033-0.05-0.257-0.252-0.67c-0.135-0.274-0.186-0.43-0.151-0.463
		c0.342-0.129,1.015-0.126,2.02,0.011c0.103,0.105,0.102,0.31-0.003,0.614l0.05,0.256l4.022,4.012
		c0.031,0.581-0.098,1.065-0.39,1.451l-4.811-4.921l-4.88,4.771c-0.086,0.187-0.053,0.357,0.1,0.514l4.454,4.658
		c-0.037,0.647-0.176,1.089-0.415,1.322l-5.573-6.009c-0.275,0.474-0.584,1.082-0.929,1.825c-0.103,0.101-0.172,0.167-0.206,0.201
		l-0.357-0.263c2.493-4.37,2.136-8.505-1.068-12.399l-1.285,1.257c0.758,2.214,1.252,3.919,1.486,5.116l-0.358,0.045
		c-0.941-2.95-2.25-5.591-3.928-7.924c1.246-0.301,1.912-0.441,1.997-0.425c0.103,0.105,0.109,0.354,0.022,0.743
		c-0.035,0.238-0.044,0.4-0.028,0.485c0.083,0.224,0.168,0.446,0.252,0.67C30.562,31.146,30.663,31.353,30.731,31.489z
		 M41.756,53.249l-0.357-0.262c1.325-2.823,1.838-5.006,1.539-6.545c-0.282-1.658-1.67-3.765-4.165-6.316
		c1.059-0.424,1.759-0.598,2.1-0.525c0.017,0.087,0.017,0.189-0.001,0.307c-0.122,0.425-0.003,0.82,0.353,1.184
		C44.667,44.751,44.844,48.804,41.756,53.249z M43.949,43.468l-0.229-0.233c2.033-1.071,3.886-1.815,5.559-2.228
		c1.363,0.093,2.17,0.78,2.42,2.063c-0.069,0.068-0.299,0.038-0.69-0.089C48.965,42.535,46.612,42.698,43.949,43.468z"/>
	<path fill="#FF0000" d="M49.438,14.951l2.193,0.385c0.003,0.154-0.146,0.593-0.449,1.317l1.455,4.119l1.084-0.383l0.236-1.705
		l1.91,1.527l0.037,0.102l-3.049,1.078l1.746,4.943l2.123-2.836l0.349,0.341l-1.999,3.834l3.019,8.55
		c0.439,1.389,0.247,2.499-0.576,3.331c-0.045,0.016-0.127-0.072-0.245-0.261c-0.455-0.998-1.284-1.479-2.489-1.438l-0.109-0.309
		c1.84-0.111,2.604-0.535,2.293-1.273l-2.655-7.52c-0.657,1.158-1.072,2.001-1.242,2.524c-0.219,0.386-0.34,0.545-0.365,0.477
		c-0.275-0.058-0.694-0.526-1.26-1.409c-0.045,0.016,0.109-0.192,0.464-0.629c0.779-0.814,1.41-1.615,1.893-2.405l-1.964-5.562
		l-1.626,0.574l-0.808,0.517l-0.562-0.729l2.777-0.98L49.438,14.951z M66.682,30.988l-0.909-2.573l-4.606,1.625l0.732,2.291
		c-0.149,0.439-0.427,0.808-0.83,1.104c-2.82-8.272-4.91-14.407-6.271-18.406l1.828,0.86l3.793-1.34
		c0.044-0.016,0.107-0.345,0.184-0.991c0.014-0.392,0.043-0.595,0.089-0.611c0.024,0.069,0.163,0.175,0.417,0.316
		c0.781,0.344,1.311,0.619,1.588,0.83c0.049,0.138-0.038,0.399-0.256,0.785l-0.094,0.381c1.746,4.944,3.478,9.776,5.196,14.499
		c-0.021,0.085-0.042,0.171-0.062,0.254C67.173,30.583,66.907,30.908,66.682,30.988z M56.973,17.734l1.678,4.97l4.539-1.604
		l-2.146-6.077l-3.794,1.34C56.685,16.487,56.591,16.943,56.973,17.734z M63.408,21.719l-4.606,1.626l2.078,6.102l4.674-1.65
		L63.408,21.719z M68.609,31.699l2.009,1.375l0.037,0.104L60.29,36.837c-0.091,0.033-0.327,0.153-0.709,0.366l-0.625-0.474
		l9.281-3.277L68.609,31.699z"/>
	<path fill="#FF0000" d="M82.641,24.004l-3.292-0.296l-0.726,0.044l-0.218-0.787l5.51,0.496l0.353-3.917l-2.219-0.199l-0.078,0.869
		c-0.707,0.376-1.129,0.521-1.266,0.436c0.099-1.089,0.479-4.525,1.145-10.316c0.443,0.406,0.844,0.771,1.2,1.095l5.009,0.45
		c-0.007,0.073,0.104-0.1,0.335-0.519c0.223-0.344,0.358-0.516,0.406-0.512c0.355,0.325,0.736,0.908,1.142,1.749
		c-0.061,0.142-0.221,0.309-0.479,0.504l-0.233,0.198l-0.574,7.188c-0.422,0.401-0.822,0.584-1.204,0.551l0.108-1.198l-2.219-0.199
		l-0.353,3.918l3.578,0.32l0.853-1.458l1.317,2.202l-0.01,0.108l-5.224-0.47c0.312,3.467,1.951,6.098,4.916,7.9l-0.02,0.218
		c-0.771,0.004-1.365,0.206-1.786,0.607l-0.01,0.109c-1.99-1.936-3.167-4.893-3.53-8.873l-0.144-0.014l-0.978,10.88
		c-0.36,0.259-0.829,0.4-1.408,0.422l1.254-10.745c-2.414,4.389-4.835,7.243-7.262,8.561l-0.088,0.979
		c-0.408,0.254-0.83,0.399-1.265,0.434c0.31-2.385,0.907-7.96,1.792-16.728c-1.278,2.444-2.408,4.317-3.39,5.616l-0.133-0.122
		c2.717-5.092,4.605-10.041,5.663-14.845c1.08,0.829,1.637,1.317,1.672,1.467c-0.014,0.146-0.092,0.211-0.234,0.198
		c-0.354,0.187-0.602,0.532-0.742,1.03c-0.56,1.412-1.177,2.928-1.852,4.549c0.438,0.479,0.7,0.76,0.79,0.84
		c-0.007,0.073-0.061,0.141-0.162,0.205c-0.36,0.26-0.536,0.608-0.527,1.049c-0.046,0.507-0.171,1.629-0.375,3.366
		c-0.452,4.493-0.794,8.301-1.027,11.424C78.775,31.151,80.77,28.223,82.641,24.004z M88.215,12.55l-5.081-0.456
		c-0.383-0.034-0.545,0.17-0.488,0.615l-0.538,5.981l5.511,0.496L88.215,12.55z"/>
	<path fill="#FF0000" d="M108.927,21.998l5.354,3.083l1.853-1.202l0.179,3.002l-0.055,0.095l-7.845-4.517
		c-1.069,0.897-2.295,1.873-3.675,2.926l4.981,2.869c0.041,0.023,0.389-0.196,1.043-0.66c0.155-0.078,0.271-0.138,0.351-0.178
		c0.149,0.509,0.295,1.265,0.436,2.268c-0.073,0.127-0.268,0.225-0.584,0.295c-0.275,0.093-0.449,0.204-0.521,0.33
		c-2.508,4.355-4.504,7.868-5.988,10.543c-0.104,0.275-0.174,0.445-0.21,0.51c-0.52,0.709-1.403,0.998-2.654,0.866
		c-0.042-0.023-0.025-0.1,0.047-0.226c0.503-0.97,0.241-2.003-0.786-3.099l0.226-0.248c1.053,0.858,1.684,1.347,1.892,1.467
		c0.249,0.144,0.465,0.057,0.646-0.258l2.017-3.503l-5.355-3.083l-2.942,5.112c-0.39,0.195-0.909,0.232-1.558,0.111l7.055-11.819
		c-2.243,1.398-4.746,2.436-7.512,3.11l-0.078-0.297c4.344-1.784,8.359-4.345,12.051-7.683l-4.421-2.545l-1.035-0.218l0.18-1.031
		l5.79,3.333c0.986-0.944,2.099-2.11,3.34-3.496c0.597,1.269,0.879,1.976,0.849,2.126c-0.079,0.039-0.198,0.056-0.358,0.046
		c-0.358,0.046-0.613,0.151-0.763,0.317c-0.157,0.079-0.366,0.252-0.631,0.52C109.977,21.134,109.539,21.512,108.927,21.998z
		 M107.703,32.764l-5.355-3.083l-1.744,3.03l5.355,3.082L107.703,32.764z M104.037,26.746l-1.417,2.462l5.355,3.082l1.853-3.218
		l-4.731-2.725C104.634,25.998,104.281,26.131,104.037,26.746z"/>
	<path fill="#FF0000" d="M128.901,34.386l1.237,1.764c-0.06,0.042,0.188,0.015,0.743-0.082c0.468-0.095,0.715-0.123,0.743-0.083
		c-0.262,0.769-0.521,1.477-0.777,2.126c-0.061,0.041-0.176,0.005-0.344-0.11c-0.404-0.067-0.637-0.079-0.695-0.039
		c-0.468,0.094-1.272,0.279-2.414,0.554c-1.697,0.371-2.956,0.67-3.776,0.895c-0.495,2.335-1.506,4.128-3.033,5.375
		c-2.151,1.626-3.917,1.899-5.296,0.82c-0.028-0.04,0.018-0.1,0.138-0.184c0.691-0.661,1.04-1.433,1.045-2.314l0.221-0.066
		c-0.061,0.042-0.076,0.082-0.049,0.121c0.251,0.995,0.565,1.505,0.942,1.533c1.995,0.181,3.894-1.679,5.695-5.576l6.404-2.475
		l-1.238-1.764c-0.221-0.314-0.482-0.306-0.784,0.023l-17.615,12.359c-0.551-0.023-1.053-0.168-1.507-0.435l20.697-14.436
		C129.164,32.796,129.052,33.459,128.901,34.386z M126.005,49.847l0.716-0.502l-1.857-2.647c-1.473,1.325-2.612,2.681-3.419,4.067
		c1.356,0.158,3.213,0.203,5.564,0.133c-0.258,0.648-0.514,1.295-0.771,1.944c-0.06,0.042-0.161,0.025-0.302-0.051
		c-0.139-0.197-0.379-0.35-0.723-0.459c-0.946-0.332-1.862-0.625-2.751-0.878c-0.574-0.182-0.989-0.33-1.245-0.442
		c-1.248,2.279-1.62,4.792-1.114,7.539l-0.09,0.062c-0.495-0.706-1.164-1.026-2.008-0.96c-0.087,0.001-0.16,0.024-0.221,0.066
		c0.303-4.133,2.579-7.924,6.83-11.375l-0.866-1.234l-8.763,6.148l3.61,1.152l-0.274,0.368c-3.462-0.497-5.34-0.7-5.634-0.611
		l-0.22,0.067c0.197-0.608,0.423-1.174,0.674-1.702c0.061-0.042,0.134-0.064,0.221-0.066c0.519,0.104,0.926,0.052,1.224-0.157
		l18.152-12.737l-0.165,0.906c-0.171,0.646-0.212,0.967-0.124,0.965l2.6,3.705c0.027,0.038,0.495-0.056,1.403-0.282
		c-0.033,0.08-0.147,0.805-0.344,2.172c-0.061,0.043-0.292,0.029-0.695-0.038c-0.464-0.025-0.681-0.021-0.653,0.019
		c-2.179,1.586-4.654,3.383-7.429,5.389C126.728,50.305,126.283,50.119,126.005,49.847z M130.744,46.521l-2.972-4.234l-3.487,2.447
		l2.972,4.234L130.744,46.521z M134.679,43.76l-2.642-3.764c-0.247-0.354-0.567-0.363-0.956-0.031l-2.771,1.945l2.971,4.234
		L134.679,43.76z"/>
	<path fill="#FF0000" d="M121.664,64.427l1.689,8.822c2.148-1.278,3.731-2.416,4.748-3.411l0.251,0.178
		c-1.273,1.668-2.686,3.165-4.236,4.491c-1.734,1.113-2.979,1.175-3.734,0.184c-0.023-0.141,0.349-0.349,1.114-0.622
		c0.623-0.249,1.106-0.451,1.45-0.604c-2.082-6.307-3.231-9.441-3.447-9.405l-0.143-0.195c0.871-0.534,1.551-0.89,2.037-1.066
		l0.023,0.142c0.095,0.566,0.687,1.026,1.779,1.379c4.265,1.232,8.113,1.953,11.544,2.159c-0.89,1.314-1.406,1.981-1.549,2.005
		c-0.081-0.035-0.128-0.1-0.144-0.194c-0.136-0.365-0.471-0.602-1.004-0.706C129.205,66.936,125.744,65.885,121.664,64.427z
		 M128.079,59.719l0.288-0.268c4.621,2.049,9.726,3.215,15.31,3.499c-0.36,0.497-0.666,0.888-0.912,1.172
		c-0.345,0.592-0.554,0.895-0.625,0.905c-0.08-0.035-0.168-0.117-0.263-0.248c-0.286-0.39-0.582-0.606-0.884-0.653
		C135.601,63.226,131.297,61.757,128.079,59.719z M134.068,76.421l-0.335-0.017c-0.294-0.874-0.798-1.47-1.516-1.788
		c2.019-3.395,6.303-6.051,12.85-7.963c-0.113,0.212-0.189,0.419-0.229,0.62c-0.29,0.923-0.479,1.342-0.565,1.259
		c-0.073,0.012-0.231-0.06-0.479-0.211c-0.327-0.188-0.523-0.253-0.586-0.193C138.233,69.73,135.188,72.495,134.068,76.421z"/>
	<path fill="#FF0000" d="M120.911,90.714l0.42,0.122c-1.167,2.454-1.438,3.647-0.811,3.58c7.566,2.146,13.875,3.924,18.924,5.341
		l2.922-10.074L142.337,89l0.854-0.201l-3.143,10.833c-0.07-0.02,0.106,0.156,0.529,0.528c0.436,0.325,0.647,0.513,0.635,0.558
		c-0.594,0.476-1.294,0.796-2.1,0.962c-0.07-0.021-0.176-0.176-0.319-0.467c-0.213-0.312-0.355-0.477-0.425-0.498
		c-12.195-3.438-18.476-5.186-18.839-5.24c-1.078-0.462-1.669-1.431-1.772-2.907C119.061,93.045,120.112,92.428,120.911,90.714z
		 M130.623,93.308l-6.524-1.818c-0.257-0.425-0.395-0.862-0.414-1.317l1.889,0.548l1.321-4.554l-2.938-0.853
		c-0.26-0.674-0.356-1.126-0.289-1.354l11.31,3.355l-1.639,0.945l-1.201,4.141c-0.013,0.045,0.177,0.175,0.569,0.39
		c0.38,0.26,0.598,0.422,0.654,0.489c-0.816,0.461-1.48,0.791-1.994,0.992c-0.07-0.021-0.212-0.187-0.424-0.497
		C130.743,93.417,130.637,93.262,130.623,93.308z M131.448,92.424l1.241-4.277c0.066-0.23-0.048-0.363-0.34-0.397l-4.826-1.4
		l-1.32,4.554L131.448,92.424z M137.348,96.006l-2.394,0.802l-0.105-0.03l2.902-10.006l-0.154-0.643l0.959-0.171l-2.521,8.695
		L137.348,96.006z"/>
</g>
<g>
	<path fill="#FF0000" d="M46.544,130.088l-3.56,6.352l-0.723-0.405l2.512-4.481l-1.35-0.756l0.355-0.636
		c0.895,0.563,1.639,0.438,2.232-0.372L46.544,130.088z"/>
	<path fill="#FF0000" d="M52.695,133.038l-2.889,6.683l-0.76-0.328l2.038-4.715l-1.422-0.613l0.289-0.67
		c0.948,0.469,1.674,0.27,2.181-0.6L52.695,133.038z"/>
	<path fill="#FF0000" d="M59.404,139.412c-0.792,2.238-1.87,3.167-3.235,2.787c-1.378-0.498-1.717-1.879-1.018-4.146
		c0.771-2.33,1.861-3.298,3.271-2.904C59.756,135.631,60.081,137.053,59.404,139.412z M58.58,139.148
		c0.561-1.83,0.422-2.895-0.416-3.19c-0.868-0.278-1.587,0.512-2.155,2.368c-0.591,1.85-0.464,2.91,0.382,3.18
		C57.236,141.776,57.967,140.99,58.58,139.148z"/>
	<path fill="#FF0000" d="M65.716,137.041l-1.5,7.125l-0.81-0.17l1.057-5.027l-1.515-0.318l0.151-0.713
		c1.021,0.271,1.692-0.07,2.017-1.021L65.716,137.041z"/>
	<path fill="#FF0000" d="M73.594,141.904c-0.307,2.354-1.169,3.486-2.582,3.4c-1.452-0.199-2.071-1.48-1.859-3.844
		c0.268-2.439,1.132-3.613,2.595-3.521C73.149,138.133,73.766,139.455,73.594,141.904z M72.734,141.818
		c0.165-1.908-0.191-2.919-1.072-3.034c-0.907-0.091-1.446,0.831-1.614,2.766c-0.192,1.933,0.152,2.942,1.037,3.03
		C71.967,144.668,72.517,143.748,72.734,141.818z"/>
	<path fill="#FF0000" d="M80.489,140.066c0.011,0.756-0.247,1.284-0.771,1.588c0.677,0.342,1.031,0.916,1.067,1.726
		c-0.053,1.431-0.774,2.181-2.165,2.254c-0.625-0.019-1.143-0.173-1.554-0.464c-0.462-0.371-0.686-0.936-0.672-1.69
		c-0.035-0.835,0.316-1.433,1.055-1.794c-0.578-0.234-0.873-0.717-0.883-1.445c0.055-1.268,0.693-1.936,1.917-2.008
		C79.685,138.271,80.354,138.882,80.489,140.066z M78.572,142.115c-0.862,0.066-1.301,0.517-1.312,1.353
		c0.037,0.971,0.499,1.449,1.388,1.438c0.84-0.013,1.265-0.477,1.276-1.395C79.888,142.623,79.438,142.157,78.572,142.115z
		 M78.562,141.307c0.72-0.037,1.098-0.434,1.137-1.189c-0.081-0.672-0.494-1.018-1.238-1.035c-0.695,0.037-1.052,0.406-1.065,1.107
		C77.429,140.917,77.818,141.289,78.562,141.307z"/>
	<path fill="#FF0000" d="M87.979,141.188c0.236,2.362-0.344,3.661-1.74,3.898c-1.459,0.137-2.354-0.969-2.686-3.32
		c-0.294-2.436,0.28-3.775,1.726-4.02C86.688,137.617,87.588,138.764,87.979,141.188z M87.122,141.299
		c-0.273-1.895-0.852-2.799-1.734-2.709c-0.904,0.117-1.219,1.137-0.943,3.06c0.252,1.925,0.818,2.829,1.699,2.715
		C87.022,144.249,87.35,143.227,87.122,141.299z"/>
	<path fill="#FF0000" d="M91.29,139.352l-0.803,0.201c-0.416-1.646,0.093-2.678,1.521-3.094c1.26-0.207,2.101,0.333,2.523,1.617
		c0.297,0.981-0.075,1.91-1.117,2.783l-0.555,0.6c-0.53,0.551-0.768,1.082-0.713,1.597l3.423-0.862l0.207,0.824l-4.294,1.082
		c-0.315-1.256-0.061-2.307,0.765-3.154l0.7-0.761c0.702-0.649,0.947-1.295,0.736-1.938c-0.273-0.792-0.798-1.104-1.572-0.938
		C91.298,137.514,91.023,138.195,91.29,139.352z"/>
	<path fill="#FF0000" d="M100.903,135.5c0.267,0.706,0.205,1.292-0.185,1.755c0.752,0.092,1.281,0.512,1.589,1.261
		c0.436,1.363,0.012,2.314-1.272,2.855c-0.594,0.193-1.133,0.225-1.619,0.09c-0.559-0.191-0.961-0.646-1.204-1.361
		c-0.316-0.773-0.188-1.457,0.383-2.047c-0.623-0.023-1.063-0.377-1.321-1.059c-0.378-1.211-0.004-2.057,1.122-2.539
		C99.538,134.084,100.374,134.432,100.903,135.5z M99.513,137.32c0.664-0.279,0.885-0.781,0.664-1.504
		c-0.305-0.605-0.811-0.791-1.516-0.554c-0.642,0.271-0.851,0.737-0.626,1.402C98.313,137.338,98.807,137.557,99.513,137.32z
		 M99.797,138.077c-0.79,0.354-1.049,0.927-0.776,1.718c0.363,0.9,0.961,1.193,1.792,0.882c0.786-0.296,1.029-0.877,0.729-1.744
		C101.206,138.108,100.625,137.824,99.797,138.077z"/>
	<path fill="#FF0000" d="M105.295,137.592l0.708-0.355c0.416,0.666,0.923,0.848,1.523,0.547c0.753-0.318,0.809-1.357,0.166-3.117
		l-0.032,0.016c0.006,0.602-0.306,1.075-0.938,1.422c-1.181,0.535-2.132,0.138-2.854-1.191c-0.65-1.453-0.404-2.512,0.739-3.177
		c1.319-0.634,2.498,0.027,3.534,1.981c1.102,2.404,0.999,3.964-0.307,4.681C106.738,138.889,105.893,138.619,105.295,137.592z
		 M106.488,135.316c0.695-0.379,0.812-1.057,0.349-2.031c-0.491-0.869-1.108-1.133-1.848-0.791
		c-0.705,0.415-0.839,1.085-0.399,2.012C105.053,135.48,105.686,135.75,106.488,135.316z"/>
	<path fill="#FF0000" d="M110.903,131.268l-0.701,0.441c-0.906-1.438-0.744-2.574,0.485-3.414c1.133-0.588,2.101-0.336,2.9,0.752
		c0.588,0.842,0.521,1.84-0.197,2.994l-0.341,0.74c-0.331,0.688-0.391,1.27-0.179,1.74l2.982-1.882l0.454,0.718l-3.744,2.363
		c-0.691-1.096-0.775-2.174-0.254-3.236l0.428-0.939c0.467-0.836,0.5-1.526,0.099-2.07c-0.506-0.67-1.102-0.805-1.786-0.404
		C110.339,129.52,110.29,130.251,110.903,131.268z"/>
	<path fill="#FF0000" d="M116.788,127.319l-0.658,0.501c-1.028-1.354-0.966-2.5,0.186-3.445c1.078-0.682,2.062-0.516,2.955,0.499
		c0.658,0.787,0.681,1.787,0.065,2.999l-0.275,0.768c-0.271,0.715-0.281,1.299-0.028,1.749l2.809-2.134l0.514,0.676l-3.525,2.678
		c-0.783-1.029-0.961-2.096-0.534-3.199l0.346-0.975c0.392-0.873,0.363-1.562-0.083-2.071c-0.562-0.622-1.168-0.704-1.814-0.247
		C116.074,125.626,116.09,126.359,116.788,127.319z"/>
	<path fill="#FF0000" d="M121.643,119.312l4.829,5.448l-0.62,0.549l-3.407-3.844l-1.158,1.025l-0.482-0.544
		c0.826-0.659,0.952-1.403,0.381-2.229L121.643,119.312z"/>
</g>
</svg>
