<?xml version="1.0" encoding="utf-8"?>
<!-- Generator: Adobe Illustrator 14.0.0, SVG Export Plug-In . SVG Version: 6.00 Build 43363)  -->
<!DOCTYPE svg PUBLIC "-//W3C//DTD SVG 1.1//EN" "http://www.w3.org/Graphics/SVG/1.1/DTD/svg11.dtd">
<svg version="1.1" id="图层_1" xmlns="http://www.w3.org/2000/svg" xmlns:xlink="http://www.w3.org/1999/xlink" x="0px" y="0px"
	 width="154px" height="154px" viewBox="0 0 154 154" enable-background="new 0 0 154 154" xml:space="preserve">
<circle fill="none" stroke="#FF0000" stroke-width="4" cx="77.258" cy="77.75" r="74.25"/>
<g>
	<path fill="#FF0000" d="M29.979,98.604l0.591,1.705l-10.231,3.546l-0.591-1.705l1.085-0.376l-1.128-3.255l-4.03,1.396l-0.591-1.706
		l4.03-1.396l-1.128-3.255l-1.085,0.376l-0.591-1.705l10.076-3.492l0.591,1.705l-1.24,0.43l1.128,3.256l7.519-2.605l0.591,1.705
		l-7.519,2.605l1.128,3.256L29.979,98.604z M19.89,96.544l6.201-2.148l-1.128-3.256l-6.2,2.149L19.89,96.544z M26.681,96.101
		L20.48,98.25l1.128,3.255l6.201-2.148L26.681,96.101z"/>
</g>
<g>
	<path fill="#FF0000" d="M16.909,77.726l-0.174,1.795l-0.816-0.078l0.174-1.796l-4.572-0.443l0.158-1.633l4.572,0.443l0.174-1.797
		l0.816,0.079l-0.174,1.797l3.837,0.372c-0.224-0.517-0.734-1.197-1.532-2.044l0.09-0.074c0.474,0.211,0.863,0.442,1.169,0.69
		l0.214-2.204l-1.943-0.353l-0.175,1.796l-0.816-0.079l0.451-4.654l-3.736-2.258L15.03,66.5l3.418,2.145l0.206-2.123l0.816,0.079
		l-0.411,4.245l1.943,0.354l0.507-5.226l0.816,0.08l-0.515,5.307c0.263,0.137,0.607,0.252,1.038,0.348
		c0.484,0.103,0.834,0.192,1.045,0.266l0.27-2.775l-1.144-0.111l0.19-1.96c2.544,0.411,4.487,1.314,5.836,2.708
		c0.793-0.801,1.275-1.826,1.452-3.074c0.648,0.668,1.449,0.911,2.402,0.728l0.073,0.089c-0.807,1.517-1.772,2.686-2.896,3.51
		c0.438,0.593,1.027,1.583,1.772,2.975c0.143,0.233,0.287,0.439,0.435,0.619l-0.087,0.898c-0.805-1.342-1.751-2.642-2.837-3.901
		c-1.201,0.489-2.549,0.796-4.045,0.927c1.838,0.892,3.958,2.526,6.365,4.903l-0.063,0.652c-2.336-2.534-5.657-4.257-9.966-5.169
		l-0.214,2.205l-0.653-0.063c0.514,0.379,0.935,0.86,1.262,1.441l7.349,0.712c0.936-0.02,1.597,0.813,1.982,2.5
		c-0.278,0.027-0.381,0.237-0.308,0.628l0.092,0.752l-0.253,0.057c-0.392-1.631-0.84-2.389-1.346-2.271l-6.613-0.642
		c0.378,0.642,0.642,1.327,0.79,2.054c-0.954-0.366-1.781-0.337-2.481,0.09c0.084-0.87,0.076-1.641-0.023-2.31L16.909,77.726z
		 M13.714,65.631l0.081,0.008c0.268,1.784,0.378,3.47,0.334,5.06c1.293-0.863,2.054-1.339,2.281-1.427
		c0.523,0.271,0.932,0.584,1.227,0.943c-0.184,0.202-1.338,0.502-3.466,0.9l0.023,2.31c0.418-0.343,1.161-0.93,2.23-1.762
		c0.519,0.326,0.953,0.67,1.302,1.033c-1.424,0.521-2.614,0.9-3.572,1.137l-0.095,0.979l-0.163-0.016
		c-0.216-2.876-0.701-5.231-1.458-7.064C12.898,66.953,13.323,66.252,13.714,65.631z M24.98,69.278l-0.285,2.938
		c1.578-0.395,2.729-0.943,3.456-1.643C27.219,69.989,26.163,69.557,24.98,69.278z"/>
</g>
<g>
	<path fill="#FF0000" d="M19.899,45.516l0.042-0.071c0.753-0.636,1.448-1.114,2.083-1.44c0.463,0.4,0.832,0.743,1.106,1.03
		l2.575-4.385l0.707,0.416l-5.316,9.054l8.913,5.234c1.536,0.84,2.862,2.632,3.976,5.379l-0.332,0.566
		c-0.889-1.726-2.049-3.043-3.484-3.949L18.709,50.62l0.83-1.415l0.85,0.499l2.409-4.103C21.589,45.716,20.624,45.689,19.899,45.516
		z M24.575,47.596l0.014-0.183c2.234,0.299,4.489,0.672,6.763,1.118c0.538,0.379,0.997,1.219,1.374,2.52
		C30.571,50.293,27.854,49.141,24.575,47.596z M24.745,50.549l-0.029-0.112c3.025,0.573,5.549,1.135,7.57,1.687
		c0.816,0.987,1.24,1.775,1.275,2.366C30.608,53.58,27.668,52.267,24.745,50.549z M33.148,48.064l-6.366-3.738l0.83-1.415
		l6.508,3.821c1.059,0.685,2.02,2.232,2.887,4.644c0.107,0.571,0.238,0.996,0.392,1.276l2.409-4.103l0.707,0.416l-5.815,9.903
		l-0.707-0.416l3.073-5.235C36.34,50.89,35.035,49.172,33.148,48.064z"/>
</g>
<g>
	<path fill="#FF0000" d="M36.204,26.832l1.752-1.216c0.252,0.558,0.429,1.1,0.531,1.628l2.83-1.965l-0.334-0.768l1.752-1.216
		c0.545,1.554,0.351,3.287-0.584,5.199l2.695-1.872l-0.374-0.539l1.348-0.936l4.772,6.873l-1.348,0.936l-0.375-0.539l-7.008,4.866
		l-0.467-0.674l7.008-4.866l-1.404-2.021l-6.873,4.772l-0.468-0.674l6.873-4.772l-1.216-1.752l-7.076,4.913
		c-0.051,0.502-0.184,1.126-0.396,1.874l-0.539,0.375C37.901,31.58,37.535,29.038,36.204,26.832z M41.557,25.912l-2.965,2.059
		c0.036,1.108-0.058,2.171-0.28,3.191l3.166-2.199C41.884,28.016,41.911,26.998,41.557,25.912z M44.235,42.427l-2.339-3.369
		l1.213-0.842l1.591,2.291c0.721,1.232,0.627,2.726-0.279,4.488l-0.375-0.539C44.47,43.627,44.534,42.952,44.235,42.427z
		 M51.911,40.393l-2.357,1.637c-1.242,0.995-2.215,0.838-2.922-0.468l-2.994-4.313l1.348-0.936l2.713,3.908
		c0.302,0.722,0.818,0.796,1.552,0.221l1.55-1.076c0.705-0.424,0.908-0.897,0.61-1.422l-1.233-2.639l0.202-0.141l1.544,2.224
		l0.404-0.28C53.478,38.572,53.339,39.667,51.911,40.393z M49.226,37.963l-0.066,0.047c-1.244-0.734-2.457-1.523-3.641-2.366
		l0.021-0.114c0.26,0.087,0.815,0.168,1.665,0.242c0.729,0.093,1.232,0.144,1.506,0.154C49.012,36.648,49.185,37.328,49.226,37.963z
		 M49.718,33.926l0.021-0.114c1.809,0.209,3.246,0.41,4.312,0.601c0.153,0.892,0.218,1.513,0.194,1.862l-0.066,0.047
		C52.8,35.681,51.314,34.883,49.718,33.926z"/>
</g>
<g>
	<path fill="#FF0000" d="M60.717,24.518l-0.66-4.877l-2.113,0.286l-0.109-0.813l2.113-0.286l-0.594-4.39l1.626-0.22l0.594,4.39
		l1.788-0.242l0.109,0.813l-1.788,0.242l0.583,4.309c0.645-0.528,1.207-1.074,1.684-1.635l0.092,0.07
		c-0.256,0.974-0.792,1.901-1.61,2.784l0.956,7.072c0.117,0.866-0.491,1.667-1.827,2.4c-0.029-0.217-0.2-0.25-0.511-0.097
		l-0.79,0.272l-0.196-0.222c1.405-0.632,1.975-1.315,1.709-2.052l-0.846-6.26c-0.653,0.475-1.318,0.869-1.992,1.18
		c0.12-0.733,0.024-1.438-0.286-2.114C59.305,25.096,59.993,24.893,60.717,24.518z M64.142,18.012l-0.561-4.146l1.626-0.22
		l0.132,0.976l2.275-0.308l-0.132-0.976l1.626-0.22l0.726,5.365c-0.036,0.557,0.184,0.749,0.657,0.574l1.22-0.165l0.22,1.626
		l-2.114,0.286c-0.961,0.241-1.477-0.297-1.543-1.613l-0.549-4.064l-2.275,0.308l0.241,1.788c0.184,1.355-0.366,2.81-1.646,4.362
		l-0.731,0.099C64.103,20.583,64.378,19.36,64.142,18.012z M64.412,23.687l-0.11-0.813l4.553-0.616l-0.088-0.65l1.626-0.22
		l0.439,3.251c0.263,1.124-0.131,2.501-1.179,4.133c1.152,0.783,2.453,1.214,3.898,1.294c-0.283,0.755-0.225,1.603,0.179,2.542
		c-1.576-0.229-3.29-1.074-5.144-2.533c-0.368,0.546-1.53,1.751-3.484,3.616c-0.103,0.068-0.172,0.161-0.21,0.277l-0.732,0.099
		c1.436-1.63,2.688-3.178,3.759-4.647c-1.467-1.457-2.364-3.405-2.693-5.844L64.412,23.687z M69.206,24.86l-0.241-1.789
		l-3.414,0.462c0.486,1.977,1.526,3.547,3.12,4.71C69.189,27.181,69.367,26.053,69.206,24.86z"/>
</g>
<g>
	<path fill="#FF0000" d="M83.906,17.04l4.177-3.227l0.069,0.092l-3.57,4.223l0.491,1.229c-0.076,0.155-0.34,0.45-0.786,0.885
		l1.462,0.204c2.936-1.247,4.606-2.946,5.019-5.098l1.787,0.249c-0.015,0.109-0.065,0.269-0.148,0.477
		c-0.092,0.264-0.115,0.427-0.068,0.487c0.648,2.078,1.993,3.315,4.038,3.711c-0.641,0.629-0.957,1.304-0.945,2.021
		c-0.627-0.253-1.186-0.606-1.674-1.062l-0.816,5.85c-0.099,0.704-0.739,1.333-1.92,1.886c-0.355,0.172-0.595,0.304-0.718,0.396
		c0.729,0.71,1.926,1.233,3.589,1.577c-0.747,0.612-1.012,1.321-0.793,2.126c-0.008,0.054-0.043,0.104-0.104,0.151l-0.162-0.022
		c-2.287-1.037-3.718-2.838-4.299-5.404c-0.824,1.156-2.468,2.251-4.932,3.287c-0.525,0.202-1.001,0.44-1.425,0.713l-0.975-0.137
		c2.524-1.084,4.112-1.967,4.759-2.648c0.854-0.984,1.416-2.425,1.681-4.321l0.25-1.787l1.787,0.25
		c-0.299,1.339-0.596,2.679-0.893,4.017c0.038,0.116,0.101,0.262,0.188,0.44c0.335,0.765,0.685,1.228,1.049,1.389
		c0.747-0.612,1.179-1.326,1.292-2.139l0.59-4.225l-6.175-0.862l-0.907,6.5l-1.624-0.228l1.088-7.799
		c-0.378,0.334-0.617,0.466-0.718,0.396c-0.25-0.586-0.576-2.399-0.98-5.438l0.173-0.059c0.171,0.354,0.456,0.892,0.853,1.609
		C83.762,16.882,83.858,16.979,83.906,17.04z M84.248,11.621l0.093-0.069c1.108,1.148,1.726,1.87,1.852,2.163
		c-0.2,0.635-0.492,1.146-0.878,1.534C85.066,15.048,84.711,13.839,84.248,11.621z M92.132,21.004l1.625,0.227
		c-0.831-0.778-1.381-2.181-1.649-4.206c-1.387,1.629-3.263,2.804-5.627,3.521l-0.569-0.079l-0.067,0.487l6.175,0.862L92.132,21.004
		z M87.571,16.889l-0.649-0.091c1.348-1.357,2.115-2.906,2.304-4.648l1.95,0.272c-0.177,0.473-0.353,0.944-0.529,1.417l4.063,0.566
		l0.113-0.812l1.625,0.227l-0.385,2.763c-0.505-0.347-1.092-0.097-1.762,0.747l-0.011,0.082l0.306-2.194l-4.387-0.612
		C88.867,15.91,87.986,16.671,87.571,16.889z"/>
</g>
<g>
	<path fill="#FF0000" d="M108.729,21.999l0.505-0.646l3.232,2.525c0.168-0.215,0.496-0.549,0.987-0.997
		c0.413-0.44,0.743-0.773,0.988-0.998l1.681,1.313c-0.179,0.139-0.425,0.363-0.736,0.675c-0.592,0.578-1.049,0.986-1.369,1.22
		l6.204,4.85l-0.505,0.646l-6.463-5.053c-0.4,0.245-1.037,0.614-1.91,1.111c-0.543,0.34-0.848,0.552-0.915,0.638l4.524,3.536
		l0.404-0.517l1.422,1.112l-7.428,9.5c-0.572,0.731-1.776,0.762-3.611,0.092c0.115-0.327,0.098-0.48-0.057-0.461l-1.107-0.449
		l-0.027-0.23c1.926,0.466,3.054,0.443,3.381-0.063l6.518-8.337l-4.653-3.638l-1.616,2.068l4.006,3.133l-0.504,0.646l-4.008-3.133
		l-1.616,2.068l4.007,3.133l-0.506,0.646l-4.006-3.133l-3.588,4.588l-1.422-1.111l6.82-8.725c-0.494,0.101-1.064,0.209-1.713,0.328
		c-0.802,0.137-1.373,0.245-1.713,0.326l-0.517-0.404c3.263-0.711,6.067-1.989,8.413-3.836L108.729,21.999z"/>
</g>
<g>
	<path fill="#FF0000" d="M114.724,49.48l-0.853-1.401l17.165-10.453l0.853,1.402l-0.561,0.341l0.854,1.401l0.561-0.342l0.854,1.401
		l-2.662,1.621c-0.842,0.513-2.295,0.438-4.363-0.224c-0.047,0.028-0.051,0.127-0.012,0.295c0.394,1.489-0.017,2.603-1.23,3.342
		l-4.834,2.943c-1.104,0.609-2.164,0.391-3.184-0.654c0.14-0.084,0.139-0.244-0.004-0.478l-0.411-0.518L114.724,49.48z
		 M118.834,51.972l15.273-9.301l0.854,1.401l-0.561,0.341l1.707,2.803l0.561-0.341l0.854,1.401l-7.988,4.863l-0.854-1.4l0.561-0.342
		l-0.938-1.541c-0.879,0.662-1.875,1.652-2.992,2.974l3.943,0.479l-0.08,0.817l-4.322-0.633c-0.975,1.554-1.439,3.052-1.393,4.497
		c-0.583-0.221-1.409,0.152-2.482,1.127c-0.118-0.825,0.17-2.088,0.861-3.789c0.084-0.18,0.148-0.282,0.195-0.311
		c-2.205-0.259-4.045-1.124-5.518-2.596c0.683-0.353,1.204-0.862,1.566-1.529C118.338,51.313,118.589,51.673,118.834,51.972z
		 M129.66,42.306l1.752-1.066l-0.854-1.4l-13.523,8.234c0.831,0.838,1.698,0.949,2.605,0.334l5.255-3.2
		c0.7-0.427,1.169-1.129,1.407-2.104c0.018-0.076,0.051-0.127,0.098-0.156l0.295,0.013C127.971,42.95,128.959,42.732,129.66,42.306z
		 M128.047,49.436l-0.513-0.841l-7.638,4.65c0.436,0.503,1.212,0.991,2.332,1.462C123.268,53.05,125.206,51.293,128.047,49.436z
		 M130.547,46.761l-2.242,1.365l1.707,2.803l5.324-3.243l-1.706-2.803l-2.313,1.408l1.365,2.242l-0.771,0.47L130.547,46.761z"/>
</g>
<g>
	<path fill="#FF0000" d="M135.268,71.748l0.013,0.163c-3.716,0.854-6.701,2.581-8.956,5.183c-0.536-0.505-1.271-0.773-2.207-0.807
		c-0.221-0.037-0.336-0.082-0.34-0.136c-0.059-0.051-0.012-0.137,0.143-0.259c1.023-0.907,2.063-1.624,3.115-2.15
		c-1.867-2.04-3.223-4.837-4.064-8.39c0.945,0.141,1.726-0.032,2.344-0.522c-0.01,0.549,0.008,1.098,0.053,1.643
		c2.868,1.52,6.741,2.243,11.62,2.171l0.175,2.126c-4.278,0.022-8.199-1.273-11.762-3.889c0.229,2.78,0.878,5.003,1.949,6.672
		C129.244,72.573,131.883,71.971,135.268,71.748z M142.058,66.25l0.175,2.125c-2.576,0.048-5.882-1.464-9.921-4.533l-0.033-0.409
		C134.955,65.298,138.215,66.238,142.058,66.25z M143.6,70.98l0.013,0.163c-3.911,1.146-6.536,3.254-7.874,6.327
		c-0.586-0.445-1.307-0.523-2.16-0.233l-0.408,0.033c-0.055,0.005-0.037-0.107,0.055-0.334
		C134.885,73.782,138.344,71.795,143.6,70.98z"/>
</g>
<g>
	<path fill="#FF0000" d="M123.745,95.885l15.888,2.472l1.614-10.375l0.892,0.139l-1.614,10.375l0.811,0.126l-0.265,1.702
		l-17.428-2.711c-1.305-0.149-1.953-1.134-1.947-2.96c0.162,0.025,0.265-0.097,0.307-0.367l-0.011-0.998l0.256-0.043
		C122.356,95.032,122.857,95.912,123.745,95.885z M128.224,88.446l-1.54-0.24l0.266-1.702l8.43,1.312l-0.266,1.702l-0.892-0.139
		l-0.555,3.566l0.892,0.139l-0.265,1.702l-8.187-1.273l0.265-1.702l1.297,0.202L128.224,88.446z M128.561,92.151l4.215,0.655
		l0.555-3.566l-4.215-0.655L128.561,92.151z M136.056,96.804l1.614-10.375l0.892,0.139l-1.614,10.375L136.056,96.804z"/>
</g>
<polygon fill="#FF0000" points="93.235,100.545 77.971,89.083 63.078,99.977 68.084,82.68 54.608,71.416 71.834,71.166 
	77.971,54.392 83.917,71.166 101.333,71.334 87.75,82.25 "/>
<g>
	<path fill="#FF0000" d="M43.356,119.551l-0.598,0.332c0.531,0.93,1.383,1.893,2.557,2.889c1.172,0.996,2.778,1.738,4.814,2.225
		v0.199c-0.664,0.133-1.129,0.443-1.395,0.93c-1.949-1.063-3.398-2.136-4.35-3.221c-0.953-1.084-1.583-1.98-1.893-2.689
		c-1.195,1.815-2.402,3.188-3.619,4.117c-1.218,0.93-2.623,1.683-4.217,2.258l-0.066-0.266c1.727-0.885,3.198-1.926,4.416-3.121
		c1.217-1.195,2.202-2.723,2.955-4.582L43.356,119.551z M37.911,125.328h6.641l0.863-0.863l1.262,1.262H39.97
		c-0.488,0-0.974,0.066-1.461,0.199L37.911,125.328z M46.411,128.848c0,1.992,0.022,3.498,0.066,4.516l-0.996,0.398v-1.129h-6.375
		v0.863l-0.996,0.398c0.043-1.107,0.066-2.169,0.066-3.188c0-1.018-0.023-2.059-0.066-3.121l0.996,0.531h6.242l0.664-0.664
		l0.93,0.93L46.411,128.848z M39.106,128.516v3.719h6.375v-3.719H39.106z"/>
	<path fill="#FF0000" d="M62.63,132.168c0.93,0.133,1.649,0.211,2.158,0.232c0.508,0.022,0.764-0.299,0.764-0.963v-11.289H54.927
		v13.48l-1.063,0.398c0.088-1.461,0.133-2.634,0.133-3.52v-8.367c0-0.974-0.023-1.992-0.066-3.055l0.996,0.664h10.559l0.465-0.664
		l1.063,0.863l-0.531,0.398v11.488c0.043,1.063-0.488,1.793-1.594,2.191c0-0.576-0.753-1.085-2.258-1.527V132.168z M55.923,122.605
		h6.441l0.863-0.863l1.262,1.262h-6.641c-0.488,0-0.93,0.066-1.328,0.199L55.923,122.605z M57.185,124.664l0.93,0.531h3.984
		l0.465-0.664l0.996,0.797l-0.531,0.465v2.457c0,0.576,0.022,1.151,0.066,1.727l-0.93,0.332v-1.129h-4.051v0.996l-0.93,0.332
		c0.043-0.752,0.066-1.671,0.066-2.756C57.251,126.668,57.229,125.639,57.185,124.664z M58.115,125.594v3.188h4.051v-3.188H58.115z"
		/>
	<path fill="#FF0000" d="M75.528,124.863c0.177-0.752,0.354-1.704,0.531-2.855h-2.258c-0.575,0-1.106,0.066-1.594,0.199
		l-0.598-0.598h4.516c0.133-0.841,0.266-1.859,0.398-3.055l1.395,0.797l-0.465,0.332c-0.133,0.62-0.243,1.262-0.332,1.926h3.918
		l1.063-0.863l1.129,1.262h-6.176c-0.177,1.019-0.354,1.971-0.531,2.855h6.441l1.063-0.93l1.262,1.328h-8.832
		c-0.222,1.019-0.442,1.859-0.664,2.523h5.512l0.598-0.664l1.262,1.262c-0.575,0.133-1.173,0.487-1.793,1.063
		c-0.62,0.576-1.395,1.351-2.324,2.324c0.974,0.398,1.494,0.797,1.561,1.195s0.044,0.73-0.066,0.996s-0.354,0.199-0.73-0.199
		s-0.963-0.863-1.76-1.395s-1.882-1.129-3.254-1.793l0.066-0.266c1.505,0.443,2.767,0.886,3.785,1.328
		c0.664-0.797,1.55-1.947,2.656-3.453h-5.578l-0.465,0.531l-0.863-0.863c0.222-0.177,0.388-0.365,0.498-0.564
		s0.299-0.874,0.564-2.025h-3.32c-0.575,0-1.106,0.066-1.593,0.199l-0.598-0.598H75.528z"/>
	<path fill="#FF0000" d="M97.725,132.234c1.15,0.089,1.881,0.122,2.191,0.1c0.31-0.021,0.465-0.32,0.465-0.896v-3.387h-4.449
		c0,2.834,0.021,4.516,0.066,5.047l-0.996,0.465c0.044-2.523,0.066-4.36,0.066-5.512h-4.383c-0.311,2.347-1.24,4.361-2.789,6.043
		l-0.199-0.133c0.841-1.373,1.416-2.767,1.727-4.184c0.31-1.416,0.465-3.364,0.465-5.844c0-2.479-0.022-4.117-0.066-4.914
		l0.996,0.664h9.496l0.465-0.73l1.063,0.797l-0.531,0.531v11.621c0.044,1.106-0.443,1.814-1.461,2.125
		c-0.089-0.753-0.797-1.24-2.125-1.461V132.234z M90.818,124.133c-0.045,1.859-0.089,3.033-0.133,3.52h4.383v-3.52H90.818z
		 M90.818,120.082v3.652h4.25v-3.652H90.818z M95.932,120.082v3.652h4.449v-3.652H95.932z M95.932,124.133v3.52h4.449v-3.52H95.932z
		"/>
	<path fill="#FF0000" d="M112.549,134.293c0.044-1.461,0.066-2.412,0.066-2.855h-4.582c-0.576,0-1.107,0.066-1.594,0.199
		l-0.598-0.598h6.773v-1.793h-3.121v0.398l-0.996,0.332c0.044-0.575,0.066-1.461,0.066-2.656s-0.022-2.125-0.066-2.789l0.996,0.598
		h7.039l0.531-0.664l1.063,0.863l-0.531,0.398c0,1.594,0.021,2.834,0.066,3.719l-0.996,0.398v-0.598h-3.121v1.793h4.582l0.996-0.863
		l1.195,1.262h-6.773c0,1.239,0.021,2.08,0.066,2.523L112.549,134.293z M114.01,123.469c0.442-0.841,0.774-1.682,0.996-2.523h-5.246
		c-0.576,0-1.107,0.066-1.594,0.199l-0.598-0.598h5.047c0-0.619-0.244-1.239-0.73-1.859l0.133-0.133
		c0.752,0.311,1.239,0.609,1.461,0.896c0.221,0.288,0.133,0.653-0.266,1.096h3.32l0.863-0.93l1.195,1.328h-3.32l0.996,0.664
		c-0.398,0.089-1.041,0.709-1.926,1.859h3.719l0.996-0.93l1.195,1.328H108.1c-0.576,0-1.107,0.066-1.594,0.199l-0.598-0.598H114.01z
		 M109.494,125.527v1.527h7.172v-1.527H109.494z M109.494,127.453v1.395h7.172v-1.395H109.494z M110.158,120.945
		c0.708,0.398,1.206,0.753,1.494,1.063c0.287,0.311,0.254,0.687-0.1,1.129c-0.354,0.443-0.598,0.354-0.73-0.266
		c-0.133-0.619-0.398-1.217-0.797-1.793L110.158,120.945z"/>
</g>
</svg>
